<?xml version="1.0" encoding="UTF-8"?>
<svg data-name="Layer 1" version="1.1" viewBox="0 0 715 173.5" xmlns="http://www.w3.org/2000/svg">
 <title>Figure6</title>
 <defs>
  <style>.cls-1,.cls-4{fill:#fff;stroke-width:3px;}.cls-1{stroke:#5e5f5f;}.cls-2{fill:#333;}.cls-3{fill:#5e5f5f;}.cls-4{stroke:#010101;stroke-opacity:0;}</style>
 </defs>
 <path class="cls-1" d="M1.5,58a6,6,0,0,1,6-6h168a6,6,0,0,1,6,6V166a6,6,0,0,1-6,6H7.5a6,6,0,0,1-6-6Z"/>
 <g id="bh">
  <path id="gw" class="cls-2" d="M65.82,80.2v5.68h8.52V87.6H65.82v6.18h-2V78.47H74.59V80.2H65.82"/>
  <path id="gf" class="cls-2" d="M87.18,93.78,79,80.75l.06,13H77.3V78.47h2.41l8.21,13.15L87.8,78.47h1.91V93.78H87.18"/>
  <path id="gz" class="cls-2" d="M104.09,93.78l-1.73-4.45h-7l-1.73,4.45H91.5l6.23-15.31h2.35l6.11,15.31Zm-2.34-6.11-2.9-7.6c-.75,2.78-1.92,5.07-2.84,7.6h5.74"/>
  <path class="cls-2" d="M118.91,93.78l-1.73-4.45h-7l-1.73,4.45h-2.16l6.24-15.31h2.34L121,93.78Zm-2.35-6.11-2.9-7.6c-.74,2.78-1.91,5.07-2.84,7.6h5.74" data-name="gz"/>
 </g>
 <g id="bi">
  <path class="cls-2" d="M26.09,106v4.55h6.82V112H26.09v4.94H24.46V104.64H33.1V106h-7" data-name="gw"/>
  <path id="gx" class="cls-2" d="M35,116.89V104h1.58v12.89H35"/>
  <path id="gj" class="cls-2" d="m42.64 107.31c3.06 0 4.19 1.83 4.19 4.89s-1.33 4.89-4.24 4.89-4.1-1.93-4.15-4.89c0-3.26 1.38-4.89 4.2-4.89zm0 8.59c2.17 0 2.61-1.53 2.61-3.7s-0.39-3.71-2.51-3.71-2.62 1.58-2.62 3.71 0.49 3.65 2.52 3.7"/>
  <path id="gi" class="cls-2" d="M57.75,116.89H56l-2-8.1-2,8.1H50.19l-2.67-9.38H49.1L51,115.6l2.12-8.09h1.68l2,8.09,2.07-8.09h1.53"/>
 </g>
 <g id="bj">
  <path class="cls-2" d="m74.69 116.89-6.52-10.42v10.42h-1.39v-12.25h1.93l6.57 10.52-0.1-10.52h1.53v12.25h-2" data-name="gf"/>
  <path id="gn" class="cls-2" d="M85.06,115.11a3.67,3.67,0,0,1-3.36,2,2.64,2.64,0,0,1-2.87-2.82c0-3.16,3.11-3.11,6.18-3.11.14-1.73-.45-2.67-2-2.67-1.18.05-2,.35-2.07,1.53l-1.63-.14c.24-1.83,1.63-2.57,3.75-2.57s3.56,1,3.56,3.16v4c0,1,.34,1.58,1.38,1.33v1C86.44,117.28,85,116.74,85.06,115.11Zm-4.6-.84A1.49,1.49,0,0,0,82,115.9c2-.15,3.11-1.43,3-3.65-2.13.1-4.55-.25-4.55,2"/>
  <path id="gC" class="cls-2" d="M98.34,108.54c-3.31.15-1.88,5.19-2.17,8.35H94.64v-6c0-1.43-.25-2.47-1.73-2.37-3.26.2-1.88,5.14-2.18,8.35H89.2l0-9.38h1.49a8.79,8.79,0,0,0,.09,1.58c.5-2.18,4.89-2.47,5.29,0a3,3,0,0,1,2.86-1.78c4.2-.1,2.32,5.88,2.72,9.58h-1.53v-6c0-1.43-.25-2.42-1.73-2.37"/>
  <path id="gg" class="cls-2" d="m107.67 107.31c3.11 0 4.25 2.07 4.15 5.23h-6.67c0 2 0.7 3.31 2.62 3.36a2.29 2.29 0 0 0 2.42-1.43l1.38 0.39c-0.54 1.39-1.82 2.23-3.8 2.23-2.86 0-4.34-1.83-4.29-4.94s1.28-4.84 4.19-4.84zm2.57 4a2.53 2.53 0 0 0-4.79-1.38 3.53 3.53 0 0 0-0.3 1.38h5.09"/>
  <path id="gu" class="cls-2" d="M119.28,109.83c-.15-1.68-4.25-1.88-4.3,0,.74,2.61,5.68.59,5.88,4.44s-7.41,3.66-7.75.4l1.38-.25c.2,1.78,4.79,2.22,4.84,0-.5-2.77-5.58-.74-5.83-4.44-.2-2.82,4-3.12,6-2.08a2.48,2.48,0,0,1,1.19,1.73"/>
  <path id="gq" class="cls-2" d="m127.18 107.31c2.72 0 3.46 2 3.46 4.84s-0.79 4.84-3.46 4.94a3 3 0 0 1-3-1.68v5.18h-1.58v-13.08h1.53l0.1 1.48a2.9 2.9 0 0 1 2.95-1.68zm-0.4 8.59c2 0 2.23-1.68 2.23-3.7s-0.3-3.61-2.23-3.66-2.51 1.58-2.51 3.76 0.49 3.6 2.51 3.6"/>
  <path class="cls-2" d="M138.34,115.11a3.66,3.66,0,0,1-3.36,2,2.63,2.63,0,0,1-2.86-2.82c-.05-3.16,3.11-3.11,6.17-3.11.15-1.73-.44-2.67-2-2.67-1.19.05-2,.35-2.08,1.53l-1.63-.14c.25-1.83,1.63-2.57,3.76-2.57s3.55,1,3.55,3.16v4c-.05,1,.35,1.58,1.38,1.33v1C139.72,117.28,138.24,116.74,138.34,115.11Zm-4.59-.84a1.49,1.49,0,0,0,1.58,1.63c2-.15,3.11-1.43,3-3.65-2.12.1-4.54-.25-4.54,2" data-name="gn"/>
  <path id="gp" class="cls-2" d="M146,108.54c-2,0-2.37,1.63-2.37,3.61s.45,3.7,2.37,3.7a2,2,0,0,0,2.13-1.87l1.58.09a3.39,3.39,0,0,1-3.66,3c-2.91,0-3.75-2-4-4.89-.49-4.6,5-6.47,7.26-3.16a3.91,3.91,0,0,1,.35,1.08l-1.58.15a1.89,1.89,0,0,0-2-1.73"/>
  <path class="cls-2" d="m155.08 107.31c3.11 0 4.25 2.07 4.15 5.23h-6.67c0 2 0.69 3.31 2.62 3.36a2.3 2.3 0 0 0 2.42-1.43l1.38 0.39c-0.54 1.39-1.83 2.23-3.8 2.23-2.86 0-4.35-1.83-4.3-4.94s1.29-4.84 4.2-4.84zm2.57 4a2.53 2.53 0 0 0-4.79-1.38 3.53 3.53 0 0 0-0.3 1.38h5.09" data-name="gg"/>
 </g>
 <g id="bk">
  <path class="cls-2" d="M47.3,138.22l-1.38-3.55H40.34L39,138.22H37.23l5-12.24h1.87L49,138.22Zm-1.87-4.89-2.33-6.07c-.59,2.22-1.53,4-2.27,6.07h4.6" data-name="gz"/>
  <path class="cls-2" d="M53.77,129.88c-2,0-2.37,1.63-2.37,3.6s.45,3.71,2.37,3.71a2,2,0,0,0,2.12-1.88l1.59.1a3.4,3.4,0,0,1-3.66,3c-2.91,0-3.75-2-4-4.89-.49-4.59,5-6.47,7.26-3.16a4,4,0,0,1,.35,1.09l-1.58.14a1.89,1.89,0,0,0-2-1.72" data-name="gp"/>
  <path class="cls-2" d="M62.66,129.88c-2,0-2.37,1.63-2.37,3.6s.44,3.71,2.37,3.71a2,2,0,0,0,2.12-1.88l1.58.1a3.38,3.38,0,0,1-3.65,3c-2.91,0-3.75-2-4.05-4.89-.49-4.59,5-6.47,7.26-3.16a4,4,0,0,1,.35,1.09l-1.59.14a1.88,1.88,0,0,0-2-1.72" data-name="gp"/>
  <path class="cls-2" d="m71.75 128.64c3.11 0 4.24 2.08 4.14 5.24h-6.66c0 2 0.69 3.31 2.62 3.35a2.3 2.3 0 0 0 2.42-1.43l1.38 0.4a3.72 3.72 0 0 1-3.8 2.22c-2.87 0-4.35-1.83-4.3-4.94s1.28-4.84 4.2-4.84zm2.56 4a2.53 2.53 0 0 0-4.79-1.38 3.73 3.73 0 0 0-0.29 1.38h5.08" data-name="gg"/>
  <path class="cls-2" d="M83.35,131.16c-.15-1.68-4.25-1.88-4.29,0,.74,2.62,5.67.59,5.87,4.44s-7.41,3.66-7.75.4l1.38-.25c.2,1.78,4.79,2.23,4.84,0-.49-2.76-5.58-.74-5.83-4.44-.19-2.82,4.05-3.11,6-2.08A2.47,2.47,0,0,1,84.78,131" data-name="gu"/>
  <path class="cls-2" d="M92.24,131.16c-.15-1.68-4.25-1.88-4.3,0,.74,2.62,5.68.59,5.88,4.44s-7.41,3.66-7.75.4l1.38-.25c.2,1.78,4.79,2.23,4.84,0-.49-2.76-5.58-.74-5.83-4.44-.19-2.82,4.05-3.11,6-2.08A2.5,2.5,0,0,1,93.67,131" data-name="gu"/>
 </g>
 <g id="g">
  <path class="cls-2" d="m109.52 138.22-1.38-3.55h-5.58l-1.38 3.55h-1.73l5-12.24h1.87l4.89 12.24zm-1.87-4.89-2.32-6.07c-0.6 2.22-1.53 4-2.27 6.07h4.59" data-name="gz"/>
  <path id="gy" class="cls-2" d="M120,128.84c-.49,6.17,2,14.47-5.43,12.89a2.83,2.83,0,0,1-2.17-2.13l1.58-.24c.74,2.32,4.94,1.58,4.39-1.38v-1.49a3.11,3.11,0,0,1-3,1.78c-2.66,0-3.36-2-3.36-4.74s.79-4.79,3.51-4.84a3.16,3.16,0,0,1,2.91,1.73,15.75,15.75,0,0,1,.1-1.58Zm-4.09,8.3c1.77,0,2.46-1.58,2.46-3.61s-.69-3.7-2.46-3.7c-1.93,0-2.28,1.68-2.28,3.7s.3,3.61,2.28,3.61"/>
  <path class="cls-2" d="m126.07 128.64c3.11 0 4.24 2.08 4.15 5.24h-6.67c0 2 0.69 3.31 2.62 3.35a2.3 2.3 0 0 0 2.42-1.43l1.38 0.4c-0.54 1.38-1.83 2.22-3.8 2.22-2.87 0-4.35-1.83-4.3-4.94s1.28-4.84 4.2-4.84zm2.57 4a2.53 2.53 0 0 0-4.79-1.38 3.53 3.53 0 0 0-0.3 1.38h5.09" data-name="gg"/>
  <path id="gr" class="cls-2" d="M136.78,128.64c4.4-.2,2.62,5.73,3,9.58h-1.58v-6c0-1.53-.4-2.42-1.93-2.37-3.55.1-2.17,5-2.42,8.34h-1.58l-.05-9.38h1.48a7.93,7.93,0,0,0,.1,1.58,3.11,3.11,0,0,1,3-1.78"/>
  <path id="gh" class="cls-2" d="M143.8,135.9c-.1,1.19.89,1.43,1.87,1.09v1.18c-1.63.5-3.45.25-3.45-1.92V130h-1.09v-1.14h1.18l.45-2.12h1v2.12h1.72V130H143.8v5.92"/>
 </g>
 <path class="cls-1" d="m553.5 58a6 6 0 0 1 6-6h148a6 6 0 0 1 6 6v108a6 6 0 0 1-6 6h-148a6 6 0 0 1-6-6z"/>
 <g id="bl">
  <path class="cls-2" d="M623.22,92.42V98.1h8.52v1.72h-8.52V106h-2V90.69H632v1.73h-8.77" data-name="gw"/>
  <path id="gm" class="cls-2" d="M634.7,90.69c5.37.06,11.79-.93,11.79,4.63,0,4.81-4.75,4.94-9.75,4.69v6h-2Zm2,7.71c3.52,0,7.65.68,7.65-3.08s-4.19-2.9-7.65-3V98.4"/>
 </g>
 <g data-name="bi">
  <path class="cls-2" d="m575.5 118.24v4.55h6.81v1.38h-6.81v4.94h-1.63v-12.25h8.64v1.38h-7" data-name="gw"/>
  <path class="cls-2" d="M584.39,129.11V116.22H586v12.89h-1.58" data-name="gx"/>
  <path class="cls-2" d="m592 119.53c3.06 0 4.2 1.82 4.2 4.89s-1.33 4.89-4.25 4.89-4.1-1.93-4.14-4.89c0.04-3.26 1.42-4.89 4.19-4.89zm0 8.59c2.18 0 2.62-1.53 2.62-3.7s-0.39-3.71-2.52-3.71-2.61 1.58-2.61 3.71 0.49 3.65 2.51 3.7" data-name="gj"/>
  <path class="cls-2" d="m607.15 129.11h-1.77l-2-8.1-2 8.1h-1.78l-2.67-9.39h1.58l1.93 8.1 2.12-8.1h1.68l2 8.1 2.07-8.1h1.53" data-name="gi"/>
 </g>
 <g id="bm">
  <path class="cls-2" d="M616.19,116.86c4.3,0,9.43-.74,9.43,3.7,0,3.86-3.8,4-7.8,3.76v4.79h-1.63Zm1.63,6.17c2.82,0,6.12.55,6.12-2.47s-3.35-2.32-6.12-2.37V123" data-name="gm"/>
  <path id="gk" class="cls-2" d="M632.19,121.06c-3.85-.79-2.62,4.49-2.81,8.05H627.8l0-9.39h1.48a11.79,11.79,0,0,0,.1,1.93c.29-1.33,1.13-2.42,2.86-2v1.43"/>
  <path class="cls-2" d="m637.38 119.53c3.06 0 4.19 1.82 4.19 4.89s-1.33 4.89-4.24 4.89-4.1-1.93-4.15-4.89c0-3.26 1.38-4.89 4.2-4.89zm0 8.59c2.17 0 2.61-1.53 2.61-3.7s-0.39-3.71-2.51-3.71-2.62 1.58-2.62 3.71 0.49 3.65 2.52 3.7" data-name="gj"/>
  <path class="cls-2" d="M647.06,120.76c-2,0-2.37,1.63-2.37,3.61s.44,3.7,2.37,3.7a2,2,0,0,0,2.12-1.88l1.58.1a3.39,3.39,0,0,1-3.65,3c-2.92,0-3.76-2-4.05-4.89-.5-4.6,5-6.47,7.25-3.16a3.91,3.91,0,0,1,.35,1.08l-1.58.15a1.89,1.89,0,0,0-2-1.73" data-name="gp"/>
  <path class="cls-2" d="m656.14 119.53c3.11 0 4.25 2.07 4.15 5.23h-6.67c0 2 0.69 3.31 2.62 3.36a2.3 2.3 0 0 0 2.42-1.43l1.38 0.39c-0.54 1.39-1.82 2.23-3.8 2.23-2.86 0-4.34-1.83-4.3-4.94s1.29-4.84 4.2-4.84zm2.57 4a2.53 2.53 0 0 0-4.79-1.39 3.58 3.58 0 0 0-0.3 1.39h5.09" data-name="gg"/>
  <path class="cls-2" d="M667.75,122.05c-.15-1.68-4.25-1.88-4.3,0,.74,2.61,5.68.59,5.88,4.44s-7.41,3.65-7.76.4l1.39-.25c.19,1.78,4.79,2.22,4.84,0-.5-2.77-5.58-.74-5.83-4.45-.2-2.81,4-3.11,6-2.07a2.48,2.48,0,0,1,1.19,1.73" data-name="gu"/>
  <path class="cls-2" d="M676.64,122.05c-.15-1.68-4.25-1.88-4.3,0,.74,2.61,5.68.59,5.88,4.44s-7.41,3.65-7.76.4l1.39-.25c.19,1.78,4.79,2.22,4.84,0-.5-2.77-5.58-.74-5.83-4.45-.2-2.81,4-3.11,6-2.07a2.48,2.48,0,0,1,1.19,1.73" data-name="gu"/>
  <path class="cls-2" d="m683.8 119.53c3.06 0 4.19 1.82 4.19 4.89s-1.33 4.89-4.24 4.89-4.1-1.93-4.15-4.89c0-3.26 1.4-4.89 4.2-4.89zm0 8.59c2.17 0 2.61-1.53 2.61-3.7s-0.39-3.71-2.51-3.71-2.62 1.58-2.62 3.71 0.49 3.65 2.52 3.7" data-name="gj"/>
  <path class="cls-2" d="M694.36,121.06c-3.85-.79-2.61,4.49-2.81,8.05H690l-.05-9.39h1.48a11.79,11.79,0,0,0,.1,1.93c.3-1.33,1.14-2.42,2.86-2v1.43" data-name="gk"/>
 </g>
 <path class="cls-3" d="m294 74.45h-110v-2h110m257 1.9-110 0.06v-2h110"/>
 <path class="cls-3" d="m184 74.45h-1v-2h1m368 0-1 1.72-18.07-10.7 1-1.7"/>
 <g id="aT">
  <path id="hq" class="cls-2" d="M297.33,70.78c0,2.62,1,4.3,3.6,4.35a3.25,3.25,0,0,0,3.21-2.32l2.22.84a5.37,5.37,0,0,1-5.43,3.5c-4.05,0-5.92-2.27-6.17-6.37-.35-5.43,5.38-7.7,9.68-5.28A4.21,4.21,0,0,1,306.22,68l-2.28.59a3,3,0,0,0-3.06-2c-2.57,0-3.5,1.67-3.55,4.24"/>
  <path class="cls-2" d="M313.48,69.55c-1.93-.59-3,.64-3,2.81V77H308L308,67.57h2.32a13.62,13.62,0,0,0,.15,2c.3-1.39,1.34-2.62,3-2v2" data-name="gZ"/>
  <path class="cls-2" d="M322.86,74.58a4,4,0,0,1-4.05,2.57c-3-.1-4.4-1.82-4.4-4.94s1.49-4.84,4.45-4.84S323,69.6,323,72.71h-6c0,1.53.4,2.71,1.93,2.76a1.52,1.52,0,0,0,1.68-1.08Zm-2.22-3.4c.24-2.27-2.82-3.11-3.46-1a3.21,3.21,0,0,0-.2,1h3.66" data-name="gY"/>
  <path id="ho" class="cls-2" d="M330.17,75.28c-.79.93-1.48,1.92-3.16,1.87a2.6,2.6,0,0,1-2.87-2.86c-.05-3,2.72-3.11,5.73-3,.05-1.29-.15-2.32-1.38-2.32a1.28,1.28,0,0,0-1.39,1.33l-2.56-.1c.34-1.88,1.77-2.86,4-2.82s3.65,1.09,3.7,3.36l0,4c0,.69.59.89,1.23.74v1.34C332.09,77.25,330.07,77.1,330.17,75.28Zm-2.37.14c1.43,0,2.12-1.18,2.07-2.81-1.58,0-3.26-.15-3.21,1.48,0,.84.4,1.33,1.14,1.33"/>
  <path id="hl" class="cls-2" d="M339.15,76.81c-1.77.69-4.29.34-4.29-2.08V69.2h-1.19V67.57H335l.74-2.22h1.53v2.22h1.78V69.2h-1.78v4.89c0,1.14.79,1.53,1.87,1.24v1.48"/>
  <path class="cls-2" d="M348.49,74.58a4,4,0,0,1-4.05,2.57c-3-.1-4.4-1.82-4.4-4.94s1.48-4.84,4.45-4.84,4.1,2.23,4.15,5.34h-6c0,1.53.4,2.71,1.93,2.76a1.52,1.52,0,0,0,1.68-1.08Zm-2.22-3.4c.24-2.27-2.82-3.11-3.46-1a3.21,3.21,0,0,0-.2,1h3.66" data-name="gY"/>
 </g>
 <g id="bn">
  <path id="hA" class="cls-2" d="M355.35,64.71c4.59.05,10.18-.79,10.08,3.9-.05,3.7-3.41,4.35-7.51,4V77h-2.57Zm2.57,6c2.32,0,4.94.35,4.94-2s-2.67-1.93-4.94-1.93v4"/>
  <path class="cls-2" d="M372.69,69.55c-1.93-.59-3,.64-3,2.81V77h-2.47l-.05-9.39h2.33a12.39,12.39,0,0,0,.14,2c.3-1.39,1.34-2.62,3-2v2" data-name="gZ"/>
  <path id="hd" class="cls-2" d="m378.36 67.37c3.17 0 4.75 1.78 4.75 4.89s-1.73 4.89-4.79 4.89-4.7-1.78-4.7-4.89 1.68-4.89 4.74-4.89zm0 8.1c1.72 0 2.22-1.38 2.22-3.21s-0.5-3.21-2.13-3.21-2.22 1.29-2.22 3.21 0.5 3.21 2.13 3.21"/>
  <path id="hu" class="cls-2" d="M393.13,73.84c-.35,2.08-1.88,3.31-4.25,3.31-2.91,0-4.15-1.87-4.44-4.84-.59-5.43,7.6-6.76,8.59-1.77l-2.42.09a1.66,1.66,0,0,0-1.73-1.58c-1.48,0-1.73,1.39-1.87,3.16-.3,3.66,3.21,4.3,3.65,1.49"/>
  <path class="cls-2" d="M402.76,74.58a4,4,0,0,1-4.05,2.57c-3-.1-4.39-1.82-4.39-4.94s1.48-4.84,4.44-4.84,4.1,2.23,4.15,5.34h-6c0,1.53.4,2.71,1.93,2.76a1.52,1.52,0,0,0,1.68-1.08Zm-2.22-3.4c.24-2.27-2.82-3.11-3.46-1a3.21,3.21,0,0,0-.2,1h3.66" data-name="gY"/>
  <path id="hc" class="cls-2" d="M410.27,70.14c.05-1.43-3.46-1.68-3.51-.2.74,2.27,5.83.35,5.88,4.25.05,4.1-8.1,3.75-8.5.44l2.13-.34c.19.94,1,1.23,2.17,1.23,1.63.4,2.81-1.48,1.18-2-2.12-.69-5-.54-5.13-3.26-.1-3.95,7.6-3.66,7.95-.35"/>
  <path class="cls-2" d="M420.14,70.14c.05-1.43-3.45-1.68-3.5-.2.74,2.27,5.82.35,5.87,4.25.05,4.1-8.1,3.75-8.49.44l2.12-.34c.2.94,1,1.23,2.18,1.23,1.62.4,2.81-1.48,1.18-2-2.12-.69-5-.54-5.14-3.26-.09-3.95,7.61-3.66,8-.35" data-name="hc"/>
  <path class="cls-2" d="m428.69 67.37c3.16 0 4.74 1.78 4.74 4.89s-1.73 4.89-4.79 4.89-4.7-1.78-4.7-4.89 1.68-4.89 4.75-4.89zm-0.05 8.1c1.72 0 2.22-1.38 2.22-3.21s-0.5-3.21-2.13-3.21-2.22 1.29-2.22 3.21 0.5 3.21 2.13 3.21" data-name="hd"/>
  <path class="cls-2" d="M440.73,69.55c-1.92-.59-3,.64-3,2.81V77H435.3l-.05-9.39h2.32a13.62,13.62,0,0,0,.15,2c.3-1.39,1.34-2.62,3-2v2" data-name="gZ"/>
 </g>
 <path class="cls-3" d="m288.6 93.35h-104.6v-2h104.6m262.35 2h-104.56v-2h104.55"/>
 <path class="cls-3" d="M184,93.35h-1v-2h1m368,.1-1,1.73-18.07-10.7,1-1.7"/>
 <g id="bo">
  <path id="hw" class="cls-2" d="M289.8,83.65c5.92-.35,11,.24,10.91,6,0,4-2.17,6.22-6,6.22H289.8Zm2.56,10.27c3.66.35,5.78-.89,5.78-4.25s-2.22-4.34-5.78-4v8.3"/>
  <path class="cls-2" d="M310.54,93.52a4,4,0,0,1-4.05,2.57c-3-.1-4.4-1.82-4.4-4.94s1.48-4.84,4.45-4.84,4.1,2.23,4.15,5.34h-6c0,1.53.4,2.71,1.93,2.76a1.52,1.52,0,0,0,1.68-1.08Zm-2.22-3.4c.24-2.27-2.82-3.11-3.46-1a3.21,3.21,0,0,0-.2,1h3.66" data-name="gY"/>
  <path class="cls-2" d="M318,89.08c0-1.43-3.45-1.68-3.5-.2.74,2.27,5.82.35,5.87,4.25,0,4.1-8.09,3.75-8.49.44l2.12-.34c.2.94,1,1.23,2.18,1.23,1.63.4,2.81-1.48,1.18-2-2.12-.69-5-.55-5.13-3.26-.1-4,7.6-3.66,8-.35" data-name="hc"/>
  <path class="cls-2" d="M326.83,95.75c-1.77.69-4.29.34-4.29-2.08V88.14h-1.19V86.51h1.34l.74-2.22H325v2.22h1.77v1.63H325V93c0,1.14.79,1.53,1.87,1.24v1.48" data-name="hl"/>
  <path class="cls-2" d="M333.7,88.49c-1.93-.6-3,.64-3,2.81v4.59h-2.46l0-9.38h2.32a12.35,12.35,0,0,0,.15,2c.29-1.39,1.33-2.62,3-2v2" data-name="gZ"/>
  <path class="cls-2" d="m339.38 86.31c3.16 0 4.74 1.78 4.74 4.89s-1.73 4.89-4.79 4.89-4.69-1.78-4.69-4.89 1.68-4.89 4.74-4.89zm-0.05 8.1c1.73 0 2.22-1.38 2.22-3.21s-0.49-3.2-2.12-3.2-2.23 1.29-2.23 3.21 0.5 3.21 2.13 3.21" data-name="hd"/>
  <path id="hB" class="cls-2" d="M350.83,96.39c-.74,2.12-2.12,3.75-5.13,3.06V97.72a2.2,2.2,0,0,0,2.91-1.92l-3.7-9.29h2.57l2.37,7.31c.59-2.57,1.38-4.94,2.17-7.31h2.52"/>
 </g>
 <g data-name="bn">
  <path class="cls-2" d="M360.76,83.65c4.59,0,10.17-.79,10.07,3.9-.05,3.7-3.4,4.34-7.5,4v4.29h-2.57Zm2.57,6c2.32,0,4.94.35,4.94-2s-2.67-1.93-4.94-1.93v4" data-name="hA"/>
  <path class="cls-2" d="M378.09,88.49c-1.92-.6-3,.64-3,2.81v4.59h-2.47l-.05-9.38h2.32a12.35,12.35,0,0,0,.15,2c.3-1.39,1.33-2.62,3-2v2" data-name="gZ"/>
  <path class="cls-2" d="m383.77 86.31c3.16 0 4.74 1.78 4.74 4.89s-1.73 4.89-4.79 4.89-4.72-1.78-4.72-4.89 1.71-4.89 4.77-4.89zm0 8.1c1.73 0 2.22-1.38 2.22-3.21s-0.54-3.2-2.17-3.2-2.22 1.29-2.22 3.21 0.49 3.21 2.12 3.21" data-name="hd"/>
  <path class="cls-2" d="M398.54,92.78c-.35,2.08-1.88,3.31-4.25,3.31-2.91,0-4.15-1.87-4.44-4.84-.6-5.43,7.6-6.76,8.59-1.77l-2.42.09A1.66,1.66,0,0,0,394.29,88c-1.48,0-1.73,1.39-1.88,3.16-.29,3.66,3.21,4.3,3.66,1.49" data-name="hu"/>
  <path class="cls-2" d="M408.17,93.52a4,4,0,0,1-4.05,2.57c-3-.1-4.4-1.82-4.4-4.94s1.48-4.84,4.45-4.84,4.1,2.23,4.14,5.34h-6c0,1.53.4,2.71,1.93,2.76a1.52,1.52,0,0,0,1.68-1.08Zm-2.23-3.4c.25-2.27-2.81-3.11-3.45-1a3.21,3.21,0,0,0-.2,1h3.65" data-name="gY"/>
  <path class="cls-2" d="M415.67,89.08c.05-1.43-3.45-1.68-3.5-.2.74,2.27,5.82.35,5.87,4.25,0,4.1-8.1,3.75-8.49.44l2.12-.34c.2.94,1,1.23,2.18,1.23,1.63.4,2.81-1.48,1.18-2-2.12-.69-5-.55-5.13-3.26-.1-4,7.6-3.66,8-.35" data-name="hc"/>
  <path class="cls-2" d="M425.55,89.08c.05-1.43-3.46-1.68-3.51-.2.74,2.27,5.83.35,5.88,4.25.05,4.1-8.1,3.75-8.49.44l2.12-.34c.2.94,1,1.23,2.17,1.23,1.63.4,2.82-1.48,1.19-2-2.13-.69-5-.55-5.14-3.26-.1-4,7.61-3.66,8-.35" data-name="hc"/>
  <path class="cls-2" d="m434.09 86.31c3.16 0 4.74 1.78 4.74 4.89s-1.72 4.89-4.79 4.89-4.69-1.78-4.69-4.89 1.65-4.89 4.74-4.89zm0 8.1c1.73 0 2.23-1.38 2.23-3.21s-0.5-3.21-2.13-3.21-2.22 1.29-2.22 3.21 0.49 3.21 2.12 3.21" data-name="hd"/>
  <path class="cls-2" d="M446.14,88.49c-1.92-.6-3,.64-3,2.81v4.59h-2.47l0-9.38H443a12.35,12.35,0,0,0,.15,2c.3-1.39,1.33-2.62,3-2v2" data-name="gZ"/>
 </g>
 <path class="cls-3" d="M551,111.55v2H443.4v-2m-259.4,2v-2H291.6v2"/>
 <path class="cls-3" d="M184,113.55h-1v-2h1m368,.15-1,1.72-18.07-10.7,1-1.7"/>
 <g id="aJ">
  <path id="hh" class="cls-2" d="m303.35 111.42c0 3.41-2.17 4.89-5.48 4.89s-5.18-1.43-5.18-4.79v-7.65h2.51v7.45a2.58 2.58 0 0 0 2.72 3c4.44 0 2.42-6.42 2.86-10.42h2.57v7.55"/>
  <path id="hm" class="cls-2" d="M311.06,106.53c2.61,0,3.45,2.18,3.45,4.84s-.94,4.84-3.6,4.94a3.4,3.4,0,0,1-2.92-1.68c.15,1.63.1,3.41.1,5.19h-2.47l-.05-13.09h2.37a13.22,13.22,0,0,0,.15,1.53A2.87,2.87,0,0,1,311.06,106.53Zm-1,8.1c1.63,0,1.92-1.53,2-3.26s-.44-3.16-2-3.16c-2.77,0-2.72,6.42,0,6.42"/>
  <path id="hn" class="cls-2" d="m319.55 106.53a3 3 0 0 1 2.86 1.68l-0.05-5h2.47l0.05 12.89h-2.37a13.44 13.44 0 0 0-0.15-1.53 2.94 2.94 0 0 1-3 1.73c-2.57 0-3.36-2.22-3.41-4.89s0.93-4.78 3.6-4.88zm0.84 8.1c1.63 0 2-1.48 2-3.26s-0.44-3.16-2-3.16-1.88 1.48-1.93 3.21c0 2.13 0.64 3.21 1.93 3.21"/>
  <path class="cls-2" d="M332.59,114.43c-.79.94-1.49,1.93-3.16,1.88a2.6,2.6,0,0,1-2.87-2.86c-.05-3,2.72-3.11,5.73-3,0-1.28-.15-2.32-1.38-2.32a1.29,1.29,0,0,0-1.39,1.34l-2.56-.1c.34-1.88,1.77-2.87,4.05-2.82s3.65,1.09,3.7,3.36l.05,4c-.05.69.59.89,1.23.74V116C334.51,116.41,332.49,116.26,332.59,114.43Zm-2.37.15c1.43,0,2.12-1.18,2.07-2.81-1.58,0-3.26-.15-3.21,1.48,0,.84.4,1.33,1.14,1.33" data-name="ho"/>
  <path class="cls-2" d="M341.57,116c-1.77.69-4.29.34-4.29-2.08v-5.53h-1.19v-1.63h1.34l.74-2.22h1.53v2.22h1.78v1.63H339.7v4.89c-.05,1.14.79,1.53,1.87,1.23V116" data-name="hl"/>
  <path class="cls-2" d="M350.91,113.74a4,4,0,0,1-4.05,2.57c-3-.1-4.4-1.83-4.4-4.94s1.48-4.84,4.45-4.84,4.1,2.23,4.15,5.34h-6c0,1.53.4,2.71,1.93,2.76a1.52,1.52,0,0,0,1.68-1.08Zm-2.22-3.4c.24-2.28-2.82-3.12-3.46-1a3.21,3.21,0,0,0-.2,1h3.66" data-name="gY"/>
 </g>
 <g data-name="bn">
  <path class="cls-2" d="M357.77,103.87c4.59,0,10.17-.79,10.08,3.9-.05,3.7-3.41,4.34-7.51,4v4.29h-2.57Zm2.57,6c2.32,0,4.94.35,4.94-2s-2.67-1.93-4.94-1.93v4" data-name="hA"/>
  <path class="cls-2" d="M375.1,108.71c-1.92-.6-3,.64-3,2.81v4.59h-2.47l-.05-9.38h2.32a12.35,12.35,0,0,0,.15,2c.3-1.39,1.34-2.62,3-2v2" data-name="gZ"/>
  <path class="cls-2" d="m380.78 106.53c3.16 0 4.74 1.78 4.74 4.89s-1.72 4.89-4.79 4.89-4.69-1.78-4.69-4.89 1.68-4.89 4.74-4.89zm0 8.1c1.73 0 2.23-1.38 2.23-3.21s-0.5-3.21-2.13-3.21-2.22 1.29-2.22 3.21 0.49 3.21 2.12 3.21" data-name="hd"/>
  <path class="cls-2" d="M395.55,113c-.35,2.08-1.88,3.31-4.25,3.31-2.91,0-4.15-1.88-4.44-4.84-.6-5.43,7.6-6.76,8.59-1.78l-2.42.1a1.66,1.66,0,0,0-1.73-1.58c-1.48,0-1.73,1.39-1.87,3.16-.3,3.66,3.21,4.3,3.65,1.48" data-name="hu"/>
  <path class="cls-2" d="M405.18,113.74a4,4,0,0,1-4.05,2.57c-3-.1-4.4-1.83-4.4-4.94s1.49-4.84,4.45-4.84,4.1,2.23,4.15,5.34h-6c0,1.53.4,2.71,1.93,2.76a1.52,1.52,0,0,0,1.68-1.08Zm-2.22-3.4c.24-2.28-2.82-3.12-3.46-1a3.21,3.21,0,0,0-.2,1H403" data-name="gY"/>
  <path class="cls-2" d="M412.68,109.3c.05-1.43-3.45-1.68-3.5-.2.74,2.27,5.83.35,5.88,4.25,0,4.1-8.1,3.75-8.5.44l2.12-.34c.2.94,1,1.23,2.18,1.23,1.63.4,2.81-1.48,1.18-2-2.12-.69-5-.55-5.13-3.26-.1-4,7.6-3.66,7.95-.35" data-name="hc"/>
  <path class="cls-2" d="M422.56,109.3c.05-1.43-3.46-1.68-3.5-.2.74,2.27,5.82.35,5.87,4.25.05,4.1-8.1,3.75-8.49.44l2.12-.34c.2.94,1,1.23,2.17,1.23,1.63.4,2.82-1.48,1.19-2-2.12-.69-5-.55-5.14-3.26-.1-4,7.61-3.66,8-.35" data-name="hc"/>
  <path class="cls-2" d="m431.1 106.53c3.16 0 4.75 1.78 4.75 4.89s-1.73 4.89-4.79 4.89-4.7-1.78-4.7-4.89 1.64-4.89 4.74-4.89zm0 8.1c1.72 0 2.22-1.38 2.22-3.21s-0.5-3.21-2.13-3.21-2.22 1.29-2.22 3.21 0.5 3.21 2.13 3.21" data-name="hd"/>
  <path class="cls-2" d="M443.15,108.71c-1.92-.6-3,.64-3,2.81v4.59h-2.47l-.05-9.38H440a12.35,12.35,0,0,0,.15,2c.3-1.39,1.33-2.62,3-2v2" data-name="gZ"/>
 </g>
 <path class="cls-3" d="m551 128.15v2h-111.43v-2m-255.52 2v-2h111.43v2"/>
 <path class="cls-3" d="m184 130.12h-1v-2h1m368 0.17-1 1.71-18.07-10.7 1-1.72"/>
 <g id="bp">
  <path class="cls-2" d="M296.66,120.45c4.59,0,10.17-.79,10.07,3.9,0,3.7-3.4,4.34-7.5,4.05v4.29h-2.57Zm2.57,6c2.32,0,4.94.35,4.94-2s-2.67-1.93-4.94-1.93v4" data-name="hA"/>
  <path class="cls-2" d="M313.9,131c-.79.94-1.49,1.93-3.17,1.88a2.6,2.6,0,0,1-2.86-2.86c-.05-3,2.72-3.12,5.73-3,0-1.28-.15-2.32-1.38-2.32a1.29,1.29,0,0,0-1.39,1.34l-2.56-.1c.34-1.88,1.77-2.87,4.05-2.82s3.65,1.09,3.7,3.36l.05,4.05c-.05.69.59.89,1.23.74v1.33C315.82,133,313.8,132.84,313.9,131Zm-2.38.15c1.44,0,2.13-1.18,2.08-2.81-1.58,0-3.26-.15-3.21,1.48,0,.84.39,1.33,1.13,1.33" data-name="ho"/>
  <path id="hr" class="cls-2" d="M321.4,132.89c-4.29.05-2.86-5.58-3.11-9.58h2.47c.35,2.81-1.14,7.41,1.63,7.75,3-.24,1.73-4.79,2-7.75h2.47l.05,9.38h-2.32a10.9,10.9,0,0,0-.15-1.87,3.07,3.07,0,0,1-3,2.07"/>
  <path class="cls-2" d="M334.78,125.88c.05-1.43-3.45-1.68-3.5-.2.74,2.27,5.83.35,5.87,4.25.05,4.1-8.09,3.75-8.49.44l2.12-.34c.2.93,1,1.23,2.18,1.23,1.63.4,2.81-1.48,1.18-2-2.12-.7-5-.55-5.13-3.26-.1-4,7.6-3.66,7.95-.35" data-name="hc"/>
  <path class="cls-2" d="M347,130.32a4,4,0,0,1-4,2.57c-3-.1-4.39-1.83-4.39-4.94s1.48-4.84,4.44-4.84,4.1,2.22,4.15,5.34h-6c0,1.53.4,2.71,1.93,2.76a1.51,1.51,0,0,0,1.68-1.09Zm-2.22-3.41c.25-2.27-2.82-3.11-3.46-1a3.14,3.14,0,0,0-.2,1h3.66" data-name="gY"/>
 </g>
 <g data-name="bn">
  <path class="cls-2" d="M353.9,120.45c4.59,0,10.17-.79,10.07,3.9-.05,3.7-3.41,4.34-7.51,4.05v4.29H353.9Zm2.56,6c2.32,0,4.94.35,4.94-2s-2.67-1.93-4.94-1.93v4" data-name="hA"/>
  <path class="cls-2" d="M371.23,125.29c-1.93-.6-3,.64-3,2.81v4.59H365.8l-.05-9.38h2.32a12.35,12.35,0,0,0,.15,2c.29-1.39,1.33-2.62,3-2v2" data-name="gZ"/>
  <path class="cls-2" d="m376.91 123.11c3.16 0 4.74 1.78 4.74 4.89s-1.73 4.89-4.79 4.89-4.69-1.78-4.69-4.89 1.68-4.89 4.74-4.89zm-0.05 8.1c1.73 0 2.22-1.38 2.22-3.21s-0.49-3.21-2.12-3.21-2.23 1.29-2.23 3.21 0.5 3.21 2.13 3.21" data-name="hd"/>
  <path class="cls-2" d="M391.67,129.58c-.34,2.08-1.87,3.31-4.24,3.31-2.92,0-4.15-1.88-4.45-4.84-.59-5.43,7.61-6.76,8.59-1.78l-2.42.1a1.65,1.65,0,0,0-1.72-1.58c-1.49,0-1.73,1.38-1.88,3.16-.3,3.66,3.21,4.3,3.65,1.48" data-name="hu"/>
  <path class="cls-2" d="M401.3,130.32a4,4,0,0,1-4.05,2.57c-3-.1-4.39-1.83-4.39-4.94s1.48-4.84,4.44-4.84,4.1,2.22,4.15,5.34h-6c0,1.53.39,2.71,1.92,2.76a1.51,1.51,0,0,0,1.68-1.09Zm-2.22-3.41c.25-2.27-2.81-3.11-3.46-1a3.15,3.15,0,0,0-.19,1h3.65" data-name="gY"/>
  <path class="cls-2" d="M408.81,125.88c.05-1.43-3.46-1.68-3.51-.2.74,2.27,5.83.35,5.88,4.25.05,4.1-8.1,3.75-8.49.44l2.12-.34c.2.93,1,1.23,2.17,1.23,1.63.4,2.82-1.48,1.19-2-2.13-.7-5-.55-5.14-3.26-.1-4,7.61-3.66,8-.35" data-name="hc"/>
  <path class="cls-2" d="M418.69,125.88c0-1.43-3.46-1.68-3.51-.2.74,2.27,5.83.35,5.88,4.25.05,4.1-8.1,3.75-8.5.44l2.13-.34c.19.93,1,1.23,2.17,1.23,1.63.4,2.81-1.48,1.18-2-2.12-.7-5-.55-5.13-3.26-.1-4,7.6-3.66,7.95-.35" data-name="hc"/>
  <path class="cls-2" d="m427.23 123.11c3.16 0 4.74 1.78 4.74 4.89s-1.73 4.89-4.79 4.89-4.69-1.78-4.69-4.89 1.68-4.89 4.74-4.89zm-0.05 8.1c1.73 0 2.22-1.38 2.22-3.21s-0.49-3.21-2.12-3.21-2.22 1.29-2.22 3.21 0.49 3.21 2.12 3.21" data-name="hd"/>
  <path class="cls-2" d="M439.28,125.29c-1.93-.6-3,.64-3,2.81v4.59h-2.46l-.05-9.38h2.32a12.35,12.35,0,0,0,.15,2c.29-1.39,1.33-2.62,3-2v2" data-name="gZ"/>
 </g>
 <path class="cls-3" d="m551 143.55v2l-103.1-0.05v-2m-263.9 2v-2h103.1v2"/>
 <path class="cls-3" d="M184,145.47h-1v-2h1m368,.21-1,1.72-18.07-10.7,1-1.7"/>
 <g id="bq">
  <path class="cls-2" d="M299,139.47a3.35,3.35,0,0,1-2.67,3.45l3.31,5.14h-2.92l-2.81-4.64h-3v4.64h-2.57V135.81C292.88,136,299,134.68,299,139.47Zm-8.1,2c2.37-.1,5.53.59,5.53-1.87s-3.26-1.59-5.53-1.73v3.6" data-name="hb"/>
  <path class="cls-2" d="M309,145.69a4,4,0,0,1-4,2.57c-3-.1-4.39-1.83-4.39-4.94s1.48-4.84,4.44-4.84,4.1,2.22,4.15,5.33h-6c0,1.53.4,2.72,1.93,2.77a1.52,1.52,0,0,0,1.68-1.09Zm-2.22-3.41c.25-2.27-2.82-3.11-3.46-1a3.26,3.26,0,0,0-.2,1h3.66" data-name="gY"/>
  <path class="cls-2" d="M316.54,141.24c0-1.43-3.46-1.67-3.51-.19.74,2.27,5.83.34,5.88,4.24,0,4.1-8.1,3.76-8.5.45l2.13-.35c.19.94,1,1.24,2.17,1.24,1.63.39,2.81-1.48,1.18-2-2.12-.69-5-.54-5.13-3.26-.1-4,7.6-3.65,7.95-.34" data-name="hc"/>
  <path class="cls-2" d="M323.85,148.26c-4.3.05-2.87-5.58-3.12-9.58h2.47c.35,2.81-1.13,7.4,1.63,7.75,3-.25,1.73-4.79,2-7.75h2.47l.05,9.38H327a11.11,11.11,0,0,0-.15-1.88,3.09,3.09,0,0,1-3,2.08" data-name="hr"/>
  <path id="hs" class="cls-2" d="M341.33,140.31c-2.62.44-1.39,4.93-1.68,7.75h-2.42v-5.29c0-1.33-.25-2.41-1.43-2.46-2.62.49-1.34,4.93-1.63,7.75H331.7l-.05-9.38H334a10.9,10.9,0,0,0,.15,1.87c.49-2.61,5-2.76,5.33,0,.64-1.08,1.19-2.12,2.91-2.07,4.05.05,2.52,5.73,2.82,9.58h-2.42v-5.29c-.05-1.23-.25-2.37-1.43-2.46"/>
  <path class="cls-2" d="M355.4,145.69a4,4,0,0,1-4,2.57c-3-.1-4.39-1.83-4.39-4.94s1.48-4.84,4.44-4.84,4.1,2.22,4.15,5.33h-6c0,1.53.4,2.72,1.93,2.77a1.52,1.52,0,0,0,1.68-1.09Zm-2.22-3.41c.25-2.27-2.82-3.11-3.46-1a3.26,3.26,0,0,0-.2,1h3.66" data-name="gY"/>
 </g>
 <g data-name="bn">
  <path class="cls-2" d="M362.27,135.81c4.59.05,10.17-.79,10.07,3.9,0,3.71-3.41,4.35-7.51,4v4.3h-2.56Zm2.56,6c2.32,0,4.94.34,4.94-2s-2.67-1.92-4.94-1.92v3.95" data-name="hA"/>
  <path class="cls-2" d="M379.6,140.65c-1.93-.59-3,.64-3,2.82v4.59h-2.47l-.05-9.38h2.32a12.13,12.13,0,0,0,.15,2c.29-1.38,1.33-2.62,3-2v2" data-name="gZ"/>
  <path class="cls-2" d="m385.28 138.48c3.16 0 4.74 1.78 4.74 4.89s-1.73 4.89-4.79 4.89-4.69-1.78-4.69-4.89 1.68-4.89 4.74-4.89zm0 8.1c1.73 0 2.22-1.39 2.22-3.21 0-2-0.49-3.21-2.12-3.21s-2.23 1.28-2.23 3.21c0 1.78 0.5 3.21 2.13 3.21" data-name="hd"/>
  <path class="cls-2" d="M400,145c-.34,2.07-1.87,3.31-4.24,3.31-2.92,0-4.15-1.88-4.45-4.84-.59-5.44,7.61-6.77,8.59-1.78l-2.42.1a1.65,1.65,0,0,0-1.72-1.58c-1.49,0-1.73,1.38-1.88,3.16-.3,3.65,3.21,4.29,3.65,1.48" data-name="hu"/>
  <path class="cls-2" d="M409.67,145.69a4,4,0,0,1-4.05,2.57c-3-.1-4.39-1.83-4.39-4.94s1.48-4.84,4.44-4.84,4.1,2.22,4.15,5.33h-6c0,1.53.39,2.72,1.92,2.77a1.52,1.52,0,0,0,1.68-1.09Zm-2.22-3.41c.25-2.27-2.81-3.11-3.46-1a3.27,3.27,0,0,0-.19,1h3.65" data-name="gY"/>
  <path class="cls-2" d="M417.18,141.24c.05-1.43-3.46-1.67-3.51-.19.74,2.27,5.83.34,5.88,4.24.05,4.1-8.1,3.76-8.49.45l2.12-.35c.2.94,1,1.24,2.17,1.24,1.63.39,2.82-1.48,1.19-2-2.13-.69-5-.54-5.14-3.26-.1-4,7.61-3.65,8-.34" data-name="hc"/>
  <path class="cls-2" d="M427.06,141.24c0-1.43-3.46-1.67-3.51-.19.74,2.27,5.83.34,5.88,4.24.05,4.1-8.1,3.76-8.5.45l2.13-.35c.19.94,1,1.24,2.17,1.24,1.63.39,2.81-1.48,1.18-2-2.12-.69-5-.54-5.13-3.26-.1-4,7.6-3.65,8-.34" data-name="hc"/>
  <path class="cls-2" d="m435.6 138.48c3.16 0 4.74 1.78 4.74 4.89s-1.73 4.89-4.79 4.89-4.69-1.78-4.69-4.89 1.68-4.89 4.74-4.89zm-0.05 8.1c1.73 0 2.22-1.39 2.22-3.21 0-2-0.49-3.21-2.12-3.21s-2.22 1.28-2.22 3.21c0 1.78 0.49 3.21 2.12 3.21" data-name="hd"/>
  <path class="cls-2" d="M447.65,140.65c-1.93-.59-3,.64-3,2.82v4.59h-2.47l-.05-9.38h2.32a12.13,12.13,0,0,0,.15,2c.29-1.38,1.33-2.62,3-2v2" data-name="gZ"/>
 </g>
 <path class="cls-4" d="M181.5,7.5a6,6,0,0,1,6-6H526a6,6,0,0,1,6,6V23.2a6,6,0,0,1-6,6H187.5a6,6,0,0,1-6-6Z"/>
 <g id="bE">
  <path class="cls-2" d="M247.94,13.41v6.66h11v3.45h-11v7.87h-4.5V10h15.82v3.45H247.94" data-name="gU"/>
  <path id="he" class="cls-2" d="M262.46,31.39V8.83h4.32V31.39h-4.32"/>
  <path class="cls-2" d="m278.44 14.62c5.54 0 8.3 3.11 8.3 8.56s-3 8.55-8.38 8.55-8.21-3.11-8.21-8.55 2.94-8.56 8.29-8.56zm-0.08 14.18c3 0 3.89-2.42 3.89-5.62 0-3.46-0.87-5.62-3.72-5.62s-3.89 2.25-3.89 5.62c0 3.11 0.87 5.62 3.72 5.62" data-name="hd"/>
  <path id="hg" class="cls-2" d="M307.83,31.39h-4.5L300,18l-3.45,13.4H292L287.78,15h4l2.77,12.53c.78-4.49,2.07-8.38,3.11-12.53h4.58l3.2,12.53L308.17,15h4"/>
 </g>
 <g id="bF">
  <path class="cls-2" d="M322.78,10c8,.08,17.8-1.39,17.63,6.82-.09,6.49-6,7.61-13.14,7.09v7.52h-4.49Zm4.49,10.45c4.06,0,8.64.61,8.64-3.54s-4.66-3.37-8.64-3.37v6.91" data-name="hA"/>
  <path class="cls-2" d="M353.11,18.43c-3.37-1-5.18,1.12-5.18,4.92v8h-4.32L343.52,15h4.06c.17,1.12-.09,2.51.26,3.46.52-2.42,2.33-4.58,5.27-3.55v3.55" data-name="gZ"/>
  <path class="cls-2" d="m363.05 14.62c5.53 0 8.3 3.11 8.3 8.56s-3 8.55-8.39 8.55-8.21-3.11-8.21-8.55 2.94-8.56 8.3-8.56zm-0.05 14.18c3 0 3.89-2.42 3.89-5.62 0-3.46-0.86-5.62-3.71-5.62s-3.89 2.25-3.89 5.62c0 3.11 0.86 5.62 3.71 5.62" data-name="hd"/>
  <path class="cls-2" d="M388.89,25.94c-.61,3.63-3.28,5.79-7.43,5.79-5.1,0-7.26-3.28-7.78-8.46-1-9.51,13.31-11.84,15-3.12l-4.24.18a2.9,2.9,0,0,0-3-2.77c-2.6,0-3,2.42-3.29,5.53-.52,6.4,5.62,7.52,6.4,2.6" data-name="hu"/>
  <path class="cls-2" d="M405.74,27.24a6.94,6.94,0,0,1-7.09,4.49c-5.18-.17-7.69-3.19-7.69-8.64s2.6-8.47,7.78-8.47c5.36,0,7.17,3.89,7.26,9.34H395.46c0,2.68.69,4.75,3.37,4.84,1.55,0,2.59-.61,2.94-1.9Zm-3.89-6c.43-4-4.92-5.45-6.05-1.82a5.78,5.78,0,0,0-.34,1.82h6.39" data-name="gY"/>
  <path class="cls-2" d="M418.88,19.46c.08-2.5-6.05-2.94-6.14-.34,1.3,4,10.2.6,10.29,7.43.08,7.17-14.18,6.57-14.87.78l3.72-.61c.34,1.64,1.73,2.16,3.8,2.16,2.85.69,4.93-2.59,2.07-3.54-3.71-1.21-8.81-.95-9-5.7-.18-6.92,13.3-6.4,13.91-.61" data-name="hc"/>
  <path class="cls-2" d="M436.16,19.46c.09-2.5-6.05-2.94-6.13-.34,1.29,4,10.19.6,10.28,7.43.09,7.17-14.17,6.57-14.87.78l3.72-.61c.35,1.64,1.73,2.16,3.8,2.16,2.86.69,4.93-2.59,2.08-3.54-3.72-1.21-8.82-.95-9-5.7-.17-6.92,13.31-6.4,13.91-.61" data-name="hc"/>
  <path class="cls-2" d="m451.11 14.62c5.53 0 8.3 3.11 8.3 8.56s-3 8.55-8.38 8.55-8.21-3.11-8.21-8.55 2.93-8.56 8.29-8.56zm-0.11 14.18c3 0 3.88-2.42 3.88-5.62 0-3.46-0.86-5.62-3.71-5.62s-3.89 2.25-3.89 5.62c0 3.11 0.86 5.62 3.72 5.62" data-name="hd"/>
  <path class="cls-2" d="M472.2,18.43c-3.37-1-5.19,1.12-5.19,4.92v8h-4.32L462.61,15h4.06c.17,1.12-.09,2.51.26,3.46.51-2.42,2.33-4.58,5.27-3.55v3.55" data-name="gZ"/>
 </g>
</svg>
