<?xml version="1.0" encoding="UTF-8"?>
<svg data-name="Layer 1" version="1.1" viewBox="0 0 930.02 791.78" xmlns="http://www.w3.org/2000/svg">
 <title>Figure1</title>
 <defs>
  <style>.cls-1,.cls-10,.cls-3{fill:#fff;}.cls-2,.cls-5,.cls-8{fill:none;}.cls-2,.cls-3,.cls-5,.cls-6,.cls-7{stroke:#333;}.cls-2,.cls-6{stroke-width:2px;}.cls-10,.cls-3,.cls-5,.cls-7{stroke-width:3px;}.cls-4,.cls-6{fill:#333;}.cls-7,.cls-9{fill-opacity:0;}.cls-10{stroke:#000;stroke-opacity:0;}</style>
 </defs>
 <path class="cls-1" d="M772.33,430c0,199.24-98.93,360.75-221,360.75S330.42,629.28,330.42,430,429.34,69.29,551.36,69.29,772.31,230.81,772.31,430.05Z"/>
 <path class="cls-2" d="M772.18,437.07l-.13,6.06m-.08,4-.13,6m-.17,4-.38,6m-.25,4-.38,6.05m-.25,4-.14,2.15-.4,3.87m-.42,4-.62,6m-.43,4-.62,5.9v.1m-.6,4-.88,6m-.6,4-.87,6m-.64,4-1.13,5.94m-.74,3.95-1.13,5.94m-.76,4-.24,1.24-1.1,4.64m-.9,3.93-1.4,5.88m-.9,3.93-.63,2.65-.9,3.2m-1.08,3.88-1.62,5.84m-1.08,3.88-.88,3.14-.86,2.65m-1.24,3.84-1.87,5.75m-1.25,3.82-.87,2.7-1.12,3m-1.4,3.8L739,620.5m-1.42,3.77-.47,1.3-1.8,4.3m-1.57,3.72-2.34,5.57m-1.6,3.7-2.57,5.47M725.5,652l-2.35,5-.24.47M721,661l-2.8,5.35m-1.87,3.57-.48.93-2.5,4.33m-2,3.5-2.86,4.92-.2.3m-2.15,3.4-3.23,5.1m-2.18,3.4-3.46,5m-2.3,3.3-1.27,1.85-2.3,3m-2.44,3.2-2.6,3.44L685.3,717m-2.58,3.1-3.6,4.35-.27.3m-2.7,3-4,4.5m-2.8,2.9-4.24,4.3m-2.93,2.77L658,746.1l-.24.2m-3.05,2.64L651.14,752l-1.08.85m-3.17,2.52-2.45,1.94L642.08,759m-3.26,2.37-1,.7-4,2.68m-3.4,2.2-5.16,3.13m-3.53,1.95-2.88,1.6-2.48,1.22m-3.6,1.8-.07,0-5.46,2.43m-3.75,1.5-2.83,1.13-2.83,1m-3.83,1.3-5.12,1.53-.67.18m-3.9,1-1.24.33-4.67,1m-4,.7-2.9.5-3.07.4m-4,.44-4.43.37-1.6.06m-4,.17h-.14l-2.9,0-3,0m-4-.14-4.5-.27-1.54-.17m-4-.42-.2,0-5.76-.85h0m-3.95-.76-1.78-.33-4.13-1m-3.9-1-3.6-1-2.18-.7m-3.83-1.26-5.68-2.1m-3.72-1.57-2.43-1L490,776.68m-3.65-1.74-5.35-2.8m-3.5-2-3-1.74-2.18-1.4m-3.4-2.15-.8-.5-4.2-2.92m-3.27-2.34-4.8-3.67m-3.15-2.53-4.48-3.7-.17-.16m-3-2.7-3.7-3.35-.75-.74m-2.88-2.82-3.38-3.3-.9-1m-2.76-2.94-3.46-3.68-.65-.75m-2.63-3L420,720.16m-2.5-3.17-3.77-4.73M411.34,709l-3.54-4.9m-2.37-3.25-.08-.1-3.28-4.94m-2.23-3.35L398,689.66l-1.36-2.25M394.5,684l-3.12-5.17m-2-3.5-2.9-5.3m-2-3.54-1.3-2.33-1.5-3m-1.8-3.62-2.67-5.4m-1.74-3.65-2.47-5.52m-1.64-3.67-2.36-5.3-.1-.23M367.47,630l-2.23-5.62m-1.48-3.75-1.4-3.56-.74-2.1m-1.3-3.8-2-5.7M357,601.6l-.95-2.73-.9-3M354,592l-1.74-5.8m-1.16-3.85-.85-2.83-.78-3m-1-3.9-1.5-5.86m-1-3.9-1-3.84-.42-2m-.84-3.94-1.26-5.9m-.83-4-1.22-5.73,0-.18m-.67-4-1-6m-.68-4-1-6m-.62-4-.76-6m-.5-4-.77-6m-.5-4-.25-1.93-.34-4.1m-.34-4-.5-6m-.34-4-.5-6v0m-.17-4-.26-6.05m-.17-4-.25-6m-.17-4,0-.56,0-5.5m-.05-4,0-3,.06-3m.08-4,.13-6m.08-4,.13-6m.17-4,.38-6m.25-4,.38-6m.26-4,.13-2.15.4-3.87m.43-4,.63-6m.43-4,.62-5.9,0-.1m.6-4,.87-6m.6-4,.87-6m.64-4,1.13-5.94m.76-4,1.13-5.94m.76-4,.23-1.24,1.1-4.65m.9-3.93,1.4-5.9m.9-3.9.64-2.66.88-3.2m1.08-3.9,1.63-5.82m1.07-3.88.88-3.14.86-2.65m1.25-3.82,1.87-5.75m1.24-3.84.88-2.7,1.12-3m1.4-3.8,2.1-5.66m1.4-3.78.5-1.3,1.8-4.3m1.56-3.7,2.34-5.58m1.6-3.7,2.58-5.47m1.72-3.64,2.34-5,.25-.46m1.87-3.57,2.8-5.36m1.86-3.57.5-.93,2.5-4.33m2-3.5,2.85-4.92.18-.3m2.17-3.4,3.24-5.1m2.2-3.4,3.44-5m2.3-3.3,1.28-1.85,2.3-3m2.44-3.2,2.6-3.45,1.1-1.34m2.58-3.1,3.6-4.36.26-.3m2.7-3,4-4.5m2.82-2.88,4.23-4.32m2.92-2.76,4.18-3.94.23-.2m3-2.63,3.54-3,1.07-.86m3.15-2.5,2.46-2,2.36-1.7m3.26-2.38,1-.7,4.05-2.7m3.38-2.18,5.2-3.14m3.5-2,2.9-1.58,2.46-1.22m3.6-1.8.08,0,5.46-2.43m3.73-1.5,2.84-1.14,2.83-1m3.8-1.3,5.14-1.54.67-.2m3.9-1,1.25-.3,4.66-1m4-.72,2.9-.5,3.08-.38m4-.45,4.43-.37,1.6-.07m4-.16h.13l2.9,0,3,.07m4,.14,4.48.3,1.54.15m4,.43.2,0,5.76.85h0m4,.76,1.78.35,4.12,1m3.9,1,3.6,1,2.2.72m3.83,1.25,5.67,2.1M607.2,81l2.45,1,3.08,1.44m3.63,1.74,5.36,2.8m3.48,2,3,1.74,2.18,1.4m3.4,2.15.82.5,4.17,2.92m3.28,2.33,4.82,3.65m3.13,2.54,4.5,3.7.15.16m3,2.7,3.72,3.35.74.72M665,120.7l3.38,3.3.9,1M672,127.9l3.47,3.7.64.74m2.65,3,3.94,4.57m2.5,3.17,3.75,4.75m2.43,3.22L695,156m2.37,3.25.07.1,3.28,4.93m2.23,3.36,1.9,2.86,1.35,2.25m2.08,3.46,3.15,5.17m2,3.5,2.9,5.3m2,3.53L719.5,196l1.5,3m1.8,3.6,2.7,5.43m1.73,3.64,2.46,5.5m1.64,3.7,2.35,5.28.1.24m1.48,3.75,2.22,5.62m1.48,3.74,1.4,3.56.74,2.1m1.33,3.8,2,5.7m1.33,3.8,1,2.75.9,3m1.17,3.85,1.75,5.8m1.17,3.85.85,2.83.77,3m1,3.9,1.5,5.85m1,3.9,1,3.84.42,2m.83,3.94,1.25,5.9m.84,3.95,1.22,5.73,0,.2m.67,4,1,6m.68,4,1,6m.62,4,.75,6m.5,4,.76,6m.5,4,.24,1.93.35,4.1m.33,4,.5,6m.34,4,.5,6v0m.18,4,.25,6m.17,4,.25,6m.17,4,0,.56.06,5.5m0,4,0,3-.07,3"/>
 <path class="cls-3" d="m293.27 105a6 6 0 0 1 6-6h148a6 6 0 0 1 6 6v108a6 6 0 0 1-6 6h-148a6 6 0 0 1-6-6z"/>
 <g id="ap">
  <path id="ge" class="cls-4" d="m344.35 149.72-8.14-13 0.06 13h-1.79v-15.31h2.41l8.2 13.15-0.09-13.15h1.92v15.31h-2.54"/>
  <path id="gf" class="cls-4" d="m354.79 137.75c3.89 0 5.3 2.59 5.18 6.54h-8.33c0 2.47 0.86 4.14 3.27 4.2a2.87 2.87 0 0 0 3-1.79l1.73 0.49c-0.68 1.73-2.28 2.78-4.75 2.78-3.58 0-5.43-2.28-5.37-6.17s1.62-6.05 5.27-6.05zm3.21 5c0.37-3.71-4.7-4.75-6-1.73a4.39 4.39 0 0 0-0.37 1.73h6.37"/>
  <path id="gg" class="cls-4" d="M364.6,146.82c-.12,1.48,1.11,1.79,2.35,1.36v1.48c-2,.62-4.32.31-4.32-2.41v-7.84h-1.36V138h1.48l.55-2.66h1.3V138h2.16v1.41H364.6v7.41"/>
  <path id="gh" class="cls-4" d="M379.85,149.72h-2.22l-2.47-10.12-2.53,10.12H370.4L367.07,138h2l2.4,10.12L374.11,138h2.1l2.53,10.12L381.33,138h1.91"/>
  <path id="gi" class="cls-4" d="m389.29 137.75c3.83-0.06 5.25 2.28 5.25 6.11s-1.67 6.11-5.31 6.11-5.12-2.41-5.18-6.11c0-4.07 1.72-6.11 5.24-6.11zm-0.06 10.74c2.72 0.06 3.27-1.91 3.27-4.63s-0.49-4.63-3.15-4.63-3.27 2-3.27 4.63 0.62 4.57 3.15 4.63"/>
  <path id="gj" class="cls-4" d="M402.5,139.66c-4.81-1-3.27,5.62-3.52,10.06h-2L397,138h1.85a15.24,15.24,0,0,0,.12,2.4c.37-1.66,1.42-3,3.58-2.53v1.79"/>
  <path id="gk" class="cls-4" d="m411.64 149.72-3.95-5.37-1.42 1.18v4.19h-2v-16.11h2v10.06l5.12-5.67h2.29l-4.76 5.06 5.06 6.66h-2.34"/>
 </g>
 <g id="b">
  <path id="gl" class="cls-4" d="M322.75,161.08c5.37.06,11.79-.92,11.79,4.63,0,4.82-4.75,4.94-9.75,4.69v6h-2Zm2,7.72c3.51,0,7.65.68,7.65-3.09s-4.2-2.9-7.65-3v6.05"/>
  <path id="gm" class="cls-4" d="M344.42,174.17c-.93,1.29-1.92,2.53-4.2,2.47s-3.58-1.3-3.58-3.52c-.06-4,3.89-3.89,7.71-3.89.19-2.16-.55-3.33-2.53-3.33-1.48.06-2.53.43-2.59,1.91l-2-.19c.31-2.28,2-3.21,4.7-3.21s4.44,1.24,4.44,4v5.06c-.06,1.23.43,2,1.73,1.66v1.24C346.14,176.88,344.29,176.2,344.42,174.17Zm-5.74-1a1.87,1.87,0,0,0,2,2c2.53-.19,3.89-1.79,3.7-4.57-2.65.12-5.67-.31-5.67,2.53"/>
  <path class="cls-4" d="M355.09,166.33c-4.81-1-3.27,5.62-3.51,10.06h-2l-.06-11.73h1.85a15.43,15.43,0,0,0,.12,2.41c.38-1.67,1.42-3,3.58-2.53v1.79" data-name="gj"/>
  <path class="cls-4" d="M359.05,173.49c-.13,1.48,1.11,1.79,2.34,1.36v1.48c-2,.62-4.32.31-4.32-2.41v-7.84h-1.36v-1.42h1.48l.56-2.65h1.3v2.65h2.16v1.42h-2.16v7.41" data-name="gg"/>
  <path id="gn" class="cls-4" d="m363.06 162.13v-1.85h2v1.85zm0 14.26v-11.73h2v11.73h-2"/>
  <path id="go" class="cls-4" d="M372.38,166c-2.47,0-3,2-3,4.5s.55,4.63,3,4.63a2.45,2.45,0,0,0,2.65-2.34l2,.12a4.24,4.24,0,0,1-4.57,3.77c-3.64,0-4.69-2.53-5.06-6.11-.62-5.74,6.23-8.09,9.07-3.95a5.09,5.09,0,0,1,.44,1.35l-2,.19a2.36,2.36,0,0,0-2.53-2.16"/>
  <path class="cls-4" d="m379.05 162.13v-1.85h2v1.85zm0 14.26v-11.73h2v11.73h-2" data-name="gn"/>
  <path id="gp" class="cls-4" d="M389.54,164.41c3.39.07,4.32,2.54,4.32,6.05s-1,6-4.32,6.18a3.79,3.79,0,0,1-3.7-2.1l.06,6.48h-2l-.06-16.36h1.91l.13,1.85A3.64,3.64,0,0,1,389.54,164.41Zm-.49,10.75c2.46,0,2.77-2.1,2.77-4.63s-.37-4.51-2.77-4.57c-2.6,0-3.15,2-3.15,4.69s.61,4.51,3.15,4.51"/>
  <path class="cls-4" d="M403.49,174.17c-.93,1.29-1.91,2.53-4.2,2.47s-3.58-1.3-3.58-3.52c-.06-4,3.89-3.89,7.72-3.89.18-2.16-.56-3.33-2.53-3.33-1.48.06-2.53.43-2.6,1.91l-2-.19c.31-2.28,2-3.21,4.69-3.21s4.44,1.24,4.44,4v5.06c-.06,1.23.44,2,1.73,1.66v1.24C405.22,176.88,403.37,176.2,403.49,174.17Zm-5.74-1a1.87,1.87,0,0,0,2,2c2.54-.19,3.89-1.79,3.71-4.57-2.66.12-5.68-.31-5.68,2.53" data-name="gm"/>
  <path id="gq" class="cls-4" d="M414.35,164.41c5.5-.24,3.28,7.17,3.71,12h-2v-7.47c0-1.91-.49-3-2.4-3-4.45.12-2.72,6.29-3,10.43h-2l-.07-11.73h1.86a9.58,9.58,0,0,0,.12,2,3.92,3.92,0,0,1,3.76-2.23"/>
  <path class="cls-4" d="M423.12,173.49c-.12,1.48,1.11,1.79,2.35,1.36v1.48c-2,.62-4.33.31-4.33-2.41v-7.84h-1.35v-1.42h1.48l.55-2.65h1.3v2.65h2.16v1.42h-2.16v7.41" data-name="gg"/>
 </g>
 <path class="cls-3" d="m653.27 105a6 6 0 0 1 6-6h148a6 6 0 0 1 6 6v108a6 6 0 0 1-6 6h-148a6 6 0 0 1-6-6z"/>
 <g data-name="ap">
  <path class="cls-4" d="m704.35 149.72-8.14-13 0.06 13h-1.79v-15.31h2.41l8.2 13.15-0.09-13.15h1.92v15.31h-2.54" data-name="ge"/>
  <path class="cls-4" d="m714.79 137.75c3.89 0 5.3 2.59 5.18 6.54h-8.33c0 2.47 0.86 4.14 3.27 4.2a2.87 2.87 0 0 0 3-1.79l1.73 0.49c-0.68 1.73-2.28 2.78-4.75 2.78-3.58 0-5.43-2.28-5.37-6.17s1.62-6.05 5.27-6.05zm3.21 5c0.37-3.71-4.7-4.75-6-1.73a4.39 4.39 0 0 0-0.37 1.73h6.37" data-name="gf"/>
  <path class="cls-4" d="M724.6,146.82c-.12,1.48,1.11,1.79,2.35,1.36v1.48c-2,.62-4.32.31-4.32-2.41v-7.84h-1.36V138h1.48l.55-2.66h1.3V138h2.16v1.41H724.6v7.41" data-name="gg"/>
  <path class="cls-4" d="M739.85,149.72h-2.22l-2.47-10.12-2.53,10.12H730.4L727.07,138h2l2.4,10.12L734.11,138h2.1l2.53,10.12L741.33,138h1.91" data-name="gh"/>
  <path class="cls-4" d="m749.29 137.75c3.83-0.06 5.25 2.28 5.25 6.11s-1.67 6.11-5.31 6.11-5.12-2.41-5.18-6.11c0-4.07 1.72-6.11 5.24-6.11zm-0.06 10.74c2.72 0.06 3.27-1.91 3.27-4.63s-0.49-4.63-3.15-4.63-3.27 2-3.27 4.63 0.62 4.57 3.15 4.63" data-name="gi"/>
  <path class="cls-4" d="M762.5,139.66c-4.81-1-3.27,5.62-3.52,10.06h-2L757,138h1.85a15.24,15.24,0,0,0,.12,2.4c.37-1.66,1.42-3,3.58-2.53v1.79" data-name="gj"/>
  <path class="cls-4" d="m771.64 149.72-3.95-5.37-1.42 1.18v4.19h-2v-16.11h2v10.06l5.12-5.67h2.29l-4.76 5.06 5.06 6.66h-2.34" data-name="gk"/>
 </g>
 <g data-name="b">
  <path class="cls-4" d="M682.75,161.08c5.37.06,11.79-.92,11.79,4.63,0,4.82-4.75,4.94-9.75,4.69v6h-2Zm2,7.72c3.51,0,7.65.68,7.65-3.09s-4.2-2.9-7.65-3v6.05" data-name="gl"/>
  <path class="cls-4" d="M704.42,174.17c-.93,1.29-1.92,2.53-4.2,2.47s-3.58-1.3-3.58-3.52c-.06-4,3.89-3.89,7.71-3.89.19-2.16-.55-3.33-2.53-3.33-1.48.06-2.53.43-2.59,1.91l-2-.19c.31-2.28,2-3.21,4.7-3.21s4.44,1.24,4.44,4v5.06c-.06,1.23.43,2,1.73,1.66v1.24C706.14,176.88,704.29,176.2,704.42,174.17Zm-5.74-1a1.87,1.87,0,0,0,2,2c2.53-.19,3.89-1.79,3.7-4.57-2.65.12-5.67-.31-5.67,2.53" data-name="gm"/>
  <path class="cls-4" d="M715.09,166.33c-4.81-1-3.27,5.62-3.51,10.06h-2l-.06-11.73h1.85a15.43,15.43,0,0,0,.12,2.41c.38-1.67,1.42-3,3.58-2.53v1.79" data-name="gj"/>
  <path class="cls-4" d="M719.05,173.49c-.13,1.48,1.11,1.79,2.34,1.36v1.48c-2,.62-4.32.31-4.32-2.41v-7.84h-1.36v-1.42h1.48l.56-2.65h1.3v2.65h2.16v1.42h-2.16v7.41" data-name="gg"/>
  <path class="cls-4" d="m723.06 162.13v-1.85h2v1.85zm0 14.26v-11.73h2v11.73h-2" data-name="gn"/>
  <path class="cls-4" d="M732.38,166c-2.47,0-3,2-3,4.5s.55,4.63,3,4.63a2.45,2.45,0,0,0,2.65-2.34l2,.12a4.24,4.24,0,0,1-4.57,3.77c-3.64,0-4.69-2.53-5.06-6.11-.62-5.74,6.23-8.09,9.07-3.95a5.09,5.09,0,0,1,.44,1.35l-2,.19a2.36,2.36,0,0,0-2.53-2.16" data-name="go"/>
  <path class="cls-4" d="m739.05 162.13v-1.85h2v1.85zm0 14.26v-11.73h2v11.73h-2" data-name="gn"/>
  <path class="cls-4" d="M749.54,164.41c3.39.07,4.32,2.54,4.32,6.05s-1,6-4.32,6.18a3.79,3.79,0,0,1-3.7-2.1l.06,6.48h-2l-.06-16.36h1.91l.13,1.85A3.64,3.64,0,0,1,749.54,164.41Zm-.49,10.75c2.46,0,2.77-2.1,2.77-4.63s-.37-4.51-2.77-4.57c-2.6,0-3.15,2-3.15,4.69s.61,4.51,3.15,4.51" data-name="gp"/>
  <path class="cls-4" d="M763.49,174.17c-.93,1.29-1.91,2.53-4.2,2.47s-3.58-1.3-3.58-3.52c-.06-4,3.89-3.89,7.72-3.89.18-2.16-.56-3.33-2.53-3.33-1.48.06-2.53.43-2.6,1.91l-2-.19c.31-2.28,2-3.21,4.69-3.21s4.44,1.24,4.44,4v5.06c-.06,1.23.44,2,1.73,1.66v1.24C765.22,176.88,763.37,176.2,763.49,174.17Zm-5.74-1a1.87,1.87,0,0,0,2,2c2.54-.19,3.89-1.79,3.71-4.57-2.66.12-5.68-.31-5.68,2.53" data-name="gm"/>
  <path class="cls-4" d="M774.35,164.41c5.5-.24,3.28,7.17,3.71,12h-2v-7.47c0-1.91-.49-3-2.4-3-4.45.12-2.72,6.29-3,10.43h-2l-.07-11.73h1.86a9.58,9.58,0,0,0,.12,2,3.92,3.92,0,0,1,3.76-2.23" data-name="gq"/>
  <path class="cls-4" d="M783.12,173.49c-.12,1.48,1.11,1.79,2.35,1.36v1.48c-2,.62-4.33.31-4.33-2.41v-7.84h-1.35v-1.42h1.48l.55-2.65h1.3v2.65h2.16v1.42h-2.16v7.41" data-name="gg"/>
 </g>
 <path class="cls-3" d="m503.47 95.45c4.3 0 7.8 8.6 7.8 19.25s-3.5 19.25-7.8 19.25h-62.4c-4.3 0-7.8-8.62-7.8-19.25s3.5-19.25 7.8-19.25z"/>
 <path class="cls-5" d="m503.47 134c-4.3 0-7.8-8.62-7.8-19.25s3.5-19.25 7.8-19.25"/>
 <g id="aq">
  <path id="gv" class="cls-4" d="m445.3 106.46v5.67h8.52v1.73h-8.52v6.14h-2v-15.27h10.8v1.73h-8.8"/>
  <path id="gw" class="cls-4" d="M456.41,120V103.93h2V120h-2"/>
  <path class="cls-4" d="m466 108.06c3.82-0.06 5.24 2.28 5.24 6.11s-1.66 6.11-5.3 6.11-5.13-2.4-5.19-6.11c-0.02-4.07 1.71-6.11 5.25-6.11zm-0.06 10.74c2.71 0.06 3.27-1.91 3.27-4.63s-0.5-4.63-3.15-4.63-3.27 2-3.27 4.63 0.62 4.57 3.15 4.63" data-name="gi"/>
  <path class="cls-4" d="m484.87 120h-2.23l-2.46-10.13-2.54 10.13h-2.22l-3.33-11.73h2l2.41 10.12 2.66-10.12h2.09l2.54 10.12 2.59-10.12h1.91" data-name="gh"/>
 </g>
 <path class="cls-3" d="m503.47 141.81c4.3 0 7.8 8.62 7.8 19.25s-3.5 19.24-7.8 19.24h-62.4c-4.3 0-7.8-8.62-7.8-19.25s3.5-19.26 7.8-19.26z"/>
 <path class="cls-5" d="m503.47 180.31c-4.3 0-7.8-8.62-7.8-19.25s3.5-19.26 7.8-19.26"/>
 <g data-name="aq">
  <path class="cls-4" d="m445.3 152.82v5.68h8.52v1.73h-8.52v6.17h-2v-15.31h10.8v1.73h-8.8" data-name="gv"/>
  <path class="cls-4" d="m456.41 166.4v-16.11h2v16.11h-2" data-name="gw"/>
  <path class="cls-4" d="m466 154.42c3.82-0.06 5.24 2.29 5.24 6.11s-1.66 6.12-5.3 6.12-5.13-2.41-5.19-6.12c-0.02-4.07 1.71-6.11 5.25-6.11zm-0.06 10.74c2.71 0.07 3.27-1.91 3.27-4.63s-0.5-4.62-3.15-4.62-3.27 2-3.27 4.62 0.62 4.57 3.15 4.63" data-name="gi"/>
  <path class="cls-4" d="m484.87 166.4h-2.23l-2.46-10.12-2.54 10.12h-2.22l-3.33-11.73h2l2.41 10.12 2.66-10.12h2.09l2.54 10.12 2.59-10.12h1.91" data-name="gh"/>
 </g>
 <path class="cls-3" d="m663.47 95.45c4.3 0 7.8 8.6 7.8 19.25s-3.5 19.25-7.8 19.25h-62.4c-4.3 0-7.8-8.62-7.8-19.25s3.5-19.25 7.8-19.25z"/>
 <path class="cls-5" d="m663.47 134c-4.3 0-7.8-8.62-7.8-19.25s3.5-19.25 7.8-19.25"/>
 <g data-name="aq">
  <path class="cls-4" d="m605.3 106.46v5.67h8.52v1.73h-8.52v6.14h-2v-15.27h10.8v1.73h-8.8" data-name="gv"/>
  <path class="cls-4" d="M616.41,120V103.93h2V120h-2" data-name="gw"/>
  <path class="cls-4" d="m626 108.06c3.82-0.06 5.24 2.28 5.24 6.11s-1.66 6.11-5.3 6.11-5.13-2.4-5.19-6.11c-0.02-4.07 1.71-6.11 5.25-6.11zm-0.06 10.74c2.71 0.06 3.27-1.91 3.27-4.63s-0.5-4.63-3.15-4.63-3.27 2-3.27 4.63 0.62 4.57 3.15 4.63" data-name="gi"/>
  <path class="cls-4" d="m644.87 120h-2.23l-2.46-10.13-2.54 10.13h-2.22l-3.33-11.73h2l2.41 10.12 2.66-10.12h2.09l2.54 10.12 2.59-10.12h1.91" data-name="gh"/>
 </g>
 <path class="cls-3" d="m663.47 141.81c4.3 0 7.8 8.62 7.8 19.25s-3.5 19.24-7.8 19.24h-62.4c-4.3 0-7.8-8.62-7.8-19.25s3.5-19.26 7.8-19.26z"/>
 <path class="cls-5" d="m663.47 180.31c-4.3 0-7.8-8.62-7.8-19.25s3.5-19.26 7.8-19.26"/>
 <g data-name="aq">
  <path class="cls-4" d="m605.3 152.82v5.68h8.52v1.73h-8.52v6.17h-2v-15.31h10.8v1.73h-8.8" data-name="gv"/>
  <path class="cls-4" d="m616.41 166.4v-16.11h2v16.11h-2" data-name="gw"/>
  <path class="cls-4" d="m626 154.42c3.82-0.06 5.24 2.29 5.24 6.11s-1.66 6.12-5.3 6.12-5.13-2.41-5.19-6.12c-0.02-4.07 1.71-6.11 5.25-6.11zm-0.06 10.74c2.71 0.07 3.27-1.91 3.27-4.63s-0.5-4.62-3.15-4.62-3.27 2-3.27 4.62 0.62 4.57 3.15 4.63" data-name="gi"/>
  <path class="cls-4" d="m644.87 166.4h-2.23l-2.46-10.12-2.54 10.12h-2.22l-3.33-11.73h2l2.41 10.12 2.66-10.12h2.09l2.54 10.12 2.59-10.12h1.91" data-name="gh"/>
 </g>
 <path class="cls-2" d="m531.28 114.7h59.5"/>
 <path class="cls-6" d="m516 114.7 14.27-4.64v9.26z"/>
 <path class="cls-4" d="M591.77,114.61v.8l.05.3h-1.08v-2h1.13"/>
 <path class="cls-2" d="m573.27 161.07h-59.5"/>
 <path class="cls-6" d="m588.53 161.07-14.26 4.62v-9.27z"/>
 <path class="cls-4" d="M513.8,162.07h-1.14l.1-.93v-.78l0-.3h1.07"/>
 <path class="cls-7" d="m258.93 92.3a7.25 7.25 0 1 1-7.23-7.25 7.24 7.24 0 0 1 7.23 7.25z"/>
 <path class="cls-5" d="m251.69 99.55v14.3a20.71 20.71 0 0 0 3.65 10.76l14.14 18.44m-17.78-23.2-17.77 23.2m0-36.25h35.54"/>
 <path class="cls-8" d="m233.93 91.05a6 6 0 0 1 6-6h23.54a6 6 0 0 1 6 6v68a6 6 0 0 1-6 6h-23.55a6 6 0 0 1-6-6z"/>
 <path class="cls-7" d="m198.93 92.3a7.25 7.25 0 1 1-7.23-7.25 7.24 7.24 0 0 1 7.23 7.25z"/>
 <path class="cls-5" d="m191.69 99.55v14.3a20.71 20.71 0 0 0 3.65 10.76l14.14 18.44m-17.78-23.2-17.77 23.2m0-36.25h35.54"/>
 <path class="cls-8" d="m173.93 91.05a6 6 0 0 1 6-6h23.54a6 6 0 0 1 6 6v68a6 6 0 0 1-6 6h-23.55a6 6 0 0 1-6-6z"/>
 <path class="cls-7" d="m228.3 153.8a7.25 7.25 0 1 1-7.25-7.25 7.25 7.25 0 0 1 7.25 7.25z"/>
 <path class="cls-5" d="m221.05 161.05v14.3a20.71 20.71 0 0 0 3.65 10.76l14.13 18.44m-17.78-23.2-17.78 23.2m0-36.25h35.56"/>
 <path class="cls-8" d="m203.27 152.55a6 6 0 0 1 6-6h23.56a6 6 0 0 1 6 6v68a6 6 0 0 1-6 6h-23.56a6 6 0 0 1-6-6z"/>
 <g id="ar">
  <path id="gS" class="cls-4" d="M206.64,216.58c-.06,4-2.46,6-6.42,6-3.76,0-6.17-2-6.17-5.8V207h2c.49,5.49-2,13.82,4.13,13.82s4-8.21,4.39-13.82h2v9.56"/>
  <path id="gt" class="cls-4" d="M216.64,213.5c-.18-2.1-5.3-2.35-5.37,0,.93,3.27,7.1.74,7.35,5.55s-9.26,4.57-9.69.5l1.73-.31c.24,2.22,6,2.78,6.05,0-.62-3.46-7-.93-7.29-5.56-.24-3.52,5.06-3.89,7.53-2.59a3.08,3.08,0,0,1,1.48,2.16"/>
  <path class="cls-4" d="M225.6,210.35c3.88,0,5.3,2.59,5.18,6.54h-8.33c0,2.47.86,4.14,3.27,4.2a2.87,2.87,0,0,0,3-1.79l1.73.49c-.68,1.73-2.28,2.78-4.75,2.78-3.58,0-5.43-2.28-5.37-6.17S222,210.35,225.6,210.35Zm3.2,5c.38-3.7-4.69-4.75-6-1.73a4.39,4.39,0,0,0-.37,1.73h6.35" data-name="gf"/>
  <path class="cls-4" d="M238.8,212.26c-4.81-1-3.27,5.62-3.51,10.07h-2l-.06-11.73h1.85a15.24,15.24,0,0,0,.12,2.4c.38-1.66,1.42-3,3.58-2.53v1.79" data-name="gj"/>
  <path class="cls-4" d="M247.45,213.5c-.19-2.1-5.31-2.35-5.37,0,.92,3.27,7.1.74,7.34,5.55s-9.26,4.57-9.69.5l1.73-.31c.25,2.22,6,2.78,6,0-.62-3.46-7-.93-7.29-5.56-.24-3.52,5.07-3.89,7.54-2.59a3.11,3.11,0,0,1,1.48,2.16" data-name="gt"/>
 </g>
 <path class="cls-7" d="m918.3 95.45a7.25 7.25 0 1 1-7.25-7.25 7.25 7.25 0 0 1 7.25 7.25z"/>
 <path class="cls-5" d="M911.05,102.7V117a20.71,20.71,0,0,0,3.65,10.76l14.13,18.43M911.05,123l-17.78,23.2m0-36.25h35.56"/>
 <path class="cls-8" d="m893.27 94.2a6 6 0 0 1 6-6h23.56a6 6 0 0 1 6 6v68a6 6 0 0 1-6 6h-23.56a6 6 0 0 1-6-6z"/>
 <path class="cls-7" d="m858.3 95.45a7.25 7.25 0 1 1-7.25-7.25 7.25 7.25 0 0 1 7.25 7.25z"/>
 <path class="cls-5" d="M851.05,102.7V117a20.71,20.71,0,0,0,3.65,10.76l14.13,18.43M851.05,123l-17.78,23.2m0-36.25h35.56"/>
 <path class="cls-8" d="m833.27 94.2a6 6 0 0 1 6-6h23.56a6 6 0 0 1 6 6v68a6 6 0 0 1-6 6h-23.56a6 6 0 0 1-6-6z"/>
 <path class="cls-7" d="m887.66 157a7.25 7.25 0 1 1-7.25-7.25 7.26 7.26 0 0 1 7.25 7.25z"/>
 <path class="cls-5" d="m880.41 164.2v14.3a20.62 20.62 0 0 0 3.65 10.76l14.13 18.43m-17.78-23.2-17.78 23.2m0-36.25h35.56"/>
 <path class="cls-8" d="m862.63 155.7a6 6 0 0 1 6-6h23.56a6 6 0 0 1 6 6v68a6 6 0 0 1-6 6h-23.56a6 6 0 0 1-6-6z"/>
 <g data-name="ar">
  <path class="cls-4" d="M866,219.73c-.06,4-2.47,6-6.42,6-3.76,0-6.17-2-6.17-5.8v-9.76h2c.49,5.5-2,13.83,4.13,13.83s3.95-8.21,4.39-13.83h2v9.57" data-name="gS"/>
  <path class="cls-4" d="M876,216.65c-.18-2.1-5.31-2.35-5.37,0,.93,3.27,7.1.74,7.35,5.55s-9.26,4.57-9.69.5l1.72-.31c.25,2.22,6,2.77,6,0-.61-3.46-7-.93-7.28-5.56-.25-3.52,5.06-3.89,7.53-2.59a3.08,3.08,0,0,1,1.48,2.16" data-name="gt"/>
  <path class="cls-4" d="M885,213.5c3.89,0,5.31,2.59,5.19,6.54h-8.33c0,2.47.86,4.14,3.27,4.2a2.87,2.87,0,0,0,3-1.79l1.73.49c-.68,1.73-2.28,2.78-4.75,2.78-3.58,0-5.44-2.28-5.37-6.17S881.31,213.5,885,213.5Zm3.21,5c.37-3.71-4.69-4.75-6-1.73a4.39,4.39,0,0,0-.37,1.73h6.35" data-name="gf"/>
  <path class="cls-4" d="M898.16,215.41c-4.81-1-3.27,5.62-3.52,10.06h-2l-.06-11.72h1.85a15.24,15.24,0,0,0,.12,2.4c.37-1.66,1.42-3,3.58-2.53v1.79" data-name="gj"/>
  <path class="cls-4" d="M906.81,216.65c-.19-2.1-5.31-2.35-5.38,0,.93,3.27,7.1.74,7.35,5.55s-9.26,4.57-9.69.5l1.73-.31c.24,2.22,6,2.77,6,0-.62-3.46-7-.93-7.29-5.56-.24-3.52,5.06-3.89,7.53-2.59a3.12,3.12,0,0,1,1.49,2.16" data-name="gt"/>
 </g>
 <path class="cls-9" d="m232.63 0h546.6v95.33h-546.6z"/>
 <g id="cR">
  <path id="gC" class="cls-4" d="M259.51,33.44V9H278v2.77H262.77v7.8H277v2.67H262.77v8.59h16v2.66H259.51"/>
  <path id="gD" class="cls-4" d="M290.92,33.44h-3.75l-6.82-18.76h3.36L289.05,31l5.53-16.3h3.35"/>
  <path class="cls-4" d="m307.91 14.28c6.22 0 8.49 4.15 8.3 10.47h-13.34c0 3.95 1.39 6.62 5.24 6.72a4.6 4.6 0 0 0 4.89-2.87l2.76 0.79c-1.08 2.77-3.65 4.45-7.6 4.45-5.73 0-8.69-3.65-8.6-9.88 0.05-6.02 2.52-9.68 8.35-9.68zm5.14 8c0.59-5.92-7.51-7.6-9.58-2.76a7.09 7.09 0 0 0-0.6 2.76h10.18" data-name="gf"/>
  <path class="cls-4" d="M329.34,14.28c8.79-.39,5.24,11.46,5.93,19.16h-3.16V21.49c0-3.06-.79-4.84-3.85-4.74-7.12.2-4.35,10.08-4.84,16.69h-3.16l-.1-18.76h3a15.76,15.76,0,0,0,.2,3.16c1.08-2.17,2.86-3.46,6-3.56" data-name="gq"/>
  <path class="cls-4" d="M343.37,28.8c-.2,2.37,1.77,2.87,3.75,2.18v2.37c-3.26,1-6.91.49-6.91-3.86V17H338V14.68h2.37l.89-4.25h2.08v4.25h3.45V17h-3.45V28.8" data-name="gg"/>
 </g>
 <g id="cS">
  <path class="cls-4" d="M375.56,14.78c-.49-4.74-12.14-5.34-12.24.2,1.38,7.4,15.6,1.38,16.1,11.75.29,7.7-11.95,8.59-17.29,5.43a7.09,7.09,0,0,1-3.26-4.54l3.26-.69c.5,5.53,13.93,6.22,13.93-.1,0-7.71-15.31-1.39-16-11.66-.5-8.1,14.32-8.29,17.68-3.36a9.38,9.38,0,0,1,1.08,2.47" data-name="gG"/>
  <path class="cls-4" d="M386.82,28.8c-.19,2.37,1.78,2.87,3.76,2.18v2.37c-3.26,1-6.92.49-6.92-3.86V17h-2.17V14.68h2.37l.89-4.25h2.07v4.25h3.46V17h-3.46V28.8" data-name="gg"/>
  <path class="cls-4" d="M402.13,17.35c-7.7-1.58-5.23,9-5.63,16.09h-3.16l-.1-18.76h3a24.88,24.88,0,0,0,.19,3.85c.6-2.67,2.28-4.84,5.73-4.05v2.87" data-name="gj"/>
  <path class="cls-4" d="m412.5 14.28c6.22 0 8.5 4.15 8.3 10.47h-13.33c0 3.95 1.38 6.62 5.23 6.72 2.57 0.1 4.25-1.19 4.84-2.87l2.77 0.79c-1.09 2.77-3.66 4.45-7.61 4.45-5.73 0-8.69-3.65-8.59-9.88 0.1-6.02 2.57-9.68 8.39-9.68zm5.14 8c0.59-5.92-7.51-7.6-9.58-2.76a7.1 7.1 0 0 0-0.59 2.76h10.17" data-name="gf"/>
  <path class="cls-4" d="M436.31,29.89c-1.49,2.07-3.07,4-6.72,4s-5.73-2.07-5.73-5.63c-.1-6.32,6.22-6.22,12.35-6.22.29-3.46-.89-5.34-4-5.34-2.37.1-4.05.7-4.15,3.07l-3.26-.3c.49-3.65,3.26-5.14,7.51-5.14,4.44,0,7.11,2,7.11,6.32v8.1c-.1,2,.69,3.16,2.76,2.67v2C439.07,34.23,436.11,33.15,436.31,29.89Zm-9.19-1.68a3,3,0,0,0,3.16,3.26c4.05-.3,6.22-2.87,5.93-7.31-4.25.2-9.09-.49-9.09,4.05" data-name="gm"/>
  <path id="gB" class="cls-4" d="M462.87,16.75c-6.61.3-3.75,10.37-4.34,16.69h-3.06V21.49c0-2.86-.5-4.93-3.46-4.74-6.52.4-3.75,10.27-4.35,16.69H444.6l-.1-18.76h3a15.79,15.79,0,0,0,.19,3.16c1-4.35,9.78-4.94,10.57,0A6.08,6.08,0,0,1,464,14.28c8.39-.19,4.64,11.76,5.43,19.16h-3.06V21.49c0-2.86-.49-4.84-3.46-4.74"/>
  <path class="cls-4" d="M474,10.63v-3h3.16v3Zm0,22.81V14.68h3.16V33.44H474" data-name="gn"/>
  <path class="cls-4" d="M491,14.28c8.79-.39,5.24,11.46,5.93,19.16h-3.16V21.49c0-3.06-.79-4.84-3.86-4.74-7.11.2-4.34,10.08-4.83,16.69h-3.17l-.09-18.76h3a15.76,15.76,0,0,0,.2,3.16c1.08-2.17,2.86-3.46,6-3.56" data-name="gq"/>
  <path id="gx" class="cls-4" d="M516.7,14.68c-1,12.34,4,28.94-10.86,25.78a5.63,5.63,0,0,1-4.35-4.25l3.16-.49c1.48,4.64,9.88,3.16,8.79-2.77V30a6.25,6.25,0,0,1-6,3.55c-5.34,0-6.72-4.05-6.72-9.48s1.58-9.58,7-9.68a6.34,6.34,0,0,1,5.83,3.46,31.5,31.5,0,0,1,.2-3.16Zm-8.2,16.59c3.56,0,4.94-3.16,4.94-7.21s-1.38-7.41-4.94-7.41c-3.85,0-4.54,3.36-4.54,7.41s.59,7.21,4.54,7.21"/>
 </g>
 <g id="cT">
  <path id="hK" class="cls-4" d="m542.68 8.65c8 0 12.14 4.55 12.14 12.45s-4.34 12.74-12.14 12.74c-8 0-12.15-4.84-12.15-12.74s4.15-12.45 12.15-12.45zm0 22.42c6.22 0 8.79-4.05 8.79-10s-2.87-9.78-8.79-9.78-8.79 3.85-8.79 9.78 2.76 9.88 8.79 10"/>
  <path class="cls-4" d="m567.86 14.28c5.43 0.1 6.91 4 6.91 9.68s-1.58 9.68-6.91 9.88c-3.06 0-4.84-1.28-5.93-3.36l0.1 10.37h-3.16l-0.1-26.17h3.07l0.19 3c0.97-2.11 2.77-3.4 5.83-3.4zm-0.79 17.19c3.95 0 4.44-3.36 4.44-7.41s-0.59-7.21-4.44-7.31c-4.15 0-5 3.16-5 7.51s1 7.21 5 7.21" data-name="gp"/>
  <path class="cls-4" d="m586.13 14.28c6.22 0 8.5 4.15 8.3 10.47h-13.33c0 3.95 1.38 6.62 5.23 6.72 2.57 0.1 4.25-1.19 4.84-2.87l2.76 0.79c-1.08 2.77-3.65 4.45-7.6 4.45-5.73 0-8.69-3.65-8.59-9.88 0.1-6.02 2.56-9.68 8.39-9.68zm5.14 8c0.59-5.92-7.51-7.6-9.58-2.76a7.1 7.1 0 0 0-0.59 2.76h10.17" data-name="gf"/>
  <path class="cls-4" d="M607.56,14.28c8.79-.39,5.24,11.46,5.93,19.16h-3.16V21.49c0-3.06-.79-4.84-3.85-4.74-7.11.2-4.35,10.08-4.84,16.69h-3.16l-.1-18.76h3a15.76,15.76,0,0,0,.2,3.16c1.09-2.17,2.86-3.46,6-3.56" data-name="gq"/>
 </g>
 <g id="cU">
  <path class="cls-4" d="M644.4,33.44l-13-20.84.1,20.84H628.6V9h3.85l13.14,21-.2-21h3.06V33.44H644.4" data-name="ge"/>
  <path class="cls-4" d="m661.1 14.28c6.22 0 8.49 4.15 8.29 10.47h-13.33c0 3.95 1.38 6.62 5.23 6.72 2.57 0.1 4.25-1.19 4.84-2.87l2.77 0.79c-1.09 2.77-3.66 4.45-7.61 4.45-5.73 0-8.69-3.65-8.59-9.88 0.1-6.02 2.57-9.68 8.4-9.68zm5.13 8c0.59-5.92-7.51-7.6-9.58-2.76a7.1 7.1 0 0 0-0.59 2.76h10.17" data-name="gf"/>
  <path class="cls-4" d="M676.8,28.8c-.2,2.37,1.78,2.87,3.75,2.18v2.37c-3.26,1-6.91.49-6.91-3.86V17h-2.17V14.68h2.37l.88-4.25h2.08v4.25h3.46V17H676.8V28.8" data-name="gg"/>
  <path class="cls-4" d="m701.19 33.44h-3.55l-3.95-16.19-4.05 16.19h-3.56l-5.33-18.76h3.16l3.85 16.2 4.24-16.2h3.36l4 16.2 4.14-16.2h3.07" data-name="gh"/>
  <path class="cls-4" d="m716.31 14.28c6.12-0.09 8.39 3.66 8.39 9.78s-2.67 9.78-8.49 9.78-8.2-3.85-8.3-9.78c0-6.52 2.77-9.78 8.4-9.78zm-0.1 17.19c4.34 0.1 5.23-3.06 5.23-7.41s-0.79-7.41-5-7.41-5.23 3.16-5.23 7.41 1 7.31 5 7.41" data-name="gi"/>
  <path class="cls-4" d="M737.44,17.35c-7.7-1.58-5.23,9-5.63,16.09h-3.16l-.1-18.76h3a24.83,24.83,0,0,0,.2,3.85c.6-2.67,2.27-4.84,5.73-4.05v2.87" data-name="gj"/>
  <path class="cls-4" d="M752.06,33.44l-6.32-8.59-2.27,1.88v6.71h-3.16V7.67h3.16v16.1l8.19-9.09h3.66l-7.61,8.1,8.1,10.66h-3.75" data-name="gk"/>
 </g>
 <path class="cls-3" d="m293.27 275a6 6 0 0 1 6-6h148a6 6 0 0 1 6 6v108a6 6 0 0 1-6 6h-148a6 6 0 0 1-6-6z"/>
 <g data-name="ap">
  <path class="cls-4" d="m344.35 319.76-8.14-13 0.06 13h-1.79v-15.31h2.41l8.2 13.15-0.09-13.15h1.92v15.31h-2.54" data-name="ge"/>
  <path class="cls-4" d="m354.79 307.78c3.89 0 5.3 2.6 5.18 6.55h-8.33c0 2.47 0.86 4.13 3.27 4.19a2.86 2.86 0 0 0 3-1.79l1.73 0.5c-0.64 1.77-2.26 2.77-4.73 2.77-3.58 0-5.43-2.28-5.37-6.17s1.6-6.05 5.25-6.05zm3.21 5c0.37-3.7-4.7-4.75-6-1.73a4.44 4.44 0 0 0-0.37 1.73h6.37" data-name="gf"/>
  <path class="cls-4" d="M364.6,316.86c-.12,1.48,1.11,1.79,2.35,1.35v1.49c-2,.61-4.32.3-4.32-2.41v-7.84h-1.36V308h1.48l.55-2.65h1.3V308h2.16v1.42H364.6v7.41" data-name="gg"/>
  <path class="cls-4" d="M379.85,319.76h-2.22l-2.47-10.13-2.53,10.13H370.4L367.07,308h2l2.4,10.12L374.11,308h2.1l2.53,10.12L381.33,308h1.91" data-name="gh"/>
  <path class="cls-4" d="m389.29 307.78c3.83-0.06 5.25 2.29 5.25 6.11s-1.67 6.11-5.31 6.11-5.12-2.4-5.18-6.11c0-4.07 1.72-6.11 5.24-6.11zm-0.06 10.74c2.72 0.07 3.27-1.91 3.27-4.63s-0.49-4.63-3.15-4.63-3.27 2-3.27 4.63 0.62 4.57 3.15 4.63" data-name="gi"/>
  <path class="cls-4" d="M402.5,309.7c-4.81-1-3.27,5.61-3.52,10.06h-2L397,308h1.85a15.43,15.43,0,0,0,.12,2.41c.37-1.67,1.42-3,3.58-2.53v1.79" data-name="gj"/>
  <path class="cls-4" d="m411.64 319.76-3.95-5.37-1.42 1.17v4.2h-2v-16.11h2v10.06l5.12-5.68h2.29l-4.76 5.06 5.06 6.67h-2.34" data-name="gk"/>
 </g>
 <g data-name="b">
  <path class="cls-4" d="M322.75,331.12c5.37.06,11.79-.93,11.79,4.63,0,4.81-4.75,4.93-9.75,4.69v6h-2Zm2,7.71c3.51,0,7.65.68,7.65-3.08s-4.2-2.91-7.65-3v6.05" data-name="gl"/>
  <path class="cls-4" d="M344.42,344.2c-.93,1.3-1.92,2.53-4.2,2.47s-3.58-1.29-3.58-3.52c-.06-3.95,3.89-3.89,7.71-3.89.19-2.16-.55-3.33-2.53-3.33-1.48.06-2.53.43-2.59,1.91l-2-.18c.31-2.28,2-3.21,4.7-3.21s4.44,1.23,4.44,3.95v5.06c-.06,1.24.43,2,1.73,1.67v1.23C346.14,346.92,344.29,346.24,344.42,344.2Zm-5.74-1.05a1.86,1.86,0,0,0,2,2c2.53-.19,3.89-1.79,3.7-4.57-2.65.13-5.67-.31-5.67,2.53" data-name="gm"/>
  <path class="cls-4" d="M355.09,336.36c-4.81-1-3.27,5.62-3.51,10.06h-2l-.06-11.72h1.85a15.24,15.24,0,0,0,.12,2.4c.38-1.66,1.42-3,3.58-2.53v1.79" data-name="gj"/>
  <path class="cls-4" d="M359.05,343.52c-.13,1.48,1.11,1.79,2.34,1.36v1.48c-2,.62-4.32.31-4.32-2.4v-7.84h-1.36V334.7h1.48l.56-2.66h1.3v2.66h2.16v1.42h-2.16v7.4" data-name="gg"/>
  <path class="cls-4" d="M363.06,332.17v-1.86h2v1.86Zm0,14.25V334.7h2v11.72h-2" data-name="gn"/>
  <path class="cls-4" d="M372.38,336c-2.47,0-3,2-3,4.51s.55,4.63,3,4.63a2.46,2.46,0,0,0,2.65-2.35l2,.13a4.24,4.24,0,0,1-4.57,3.76c-3.64,0-4.69-2.53-5.06-6.11-.62-5.74,6.23-8.09,9.07-3.95a5,5,0,0,1,.44,1.36l-2,.18a2.37,2.37,0,0,0-2.53-2.16" data-name="go"/>
  <path class="cls-4" d="M379.05,332.17v-1.86h2v1.86Zm0,14.25V334.7h2v11.72h-2" data-name="gn"/>
  <path class="cls-4" d="M389.54,334.45c3.39.06,4.32,2.53,4.32,6.05s-1,6.05-4.32,6.17a3.77,3.77,0,0,1-3.7-2.1l.06,6.48h-2l-.06-16.35h1.91l.13,1.85A3.63,3.63,0,0,1,389.54,334.45Zm-.49,10.74c2.46,0,2.77-2.1,2.77-4.63s-.37-4.51-2.77-4.57c-2.6,0-3.15,2-3.15,4.69s.61,4.51,3.15,4.51" data-name="gp"/>
  <path class="cls-4" d="M403.49,344.2c-.93,1.3-1.91,2.53-4.2,2.47s-3.58-1.29-3.58-3.52c-.06-3.95,3.89-3.89,7.72-3.89.18-2.16-.56-3.33-2.53-3.33-1.48.06-2.53.43-2.6,1.91l-2-.18c.31-2.28,2-3.21,4.69-3.21s4.44,1.23,4.44,3.95v5.06c-.06,1.24.44,2,1.73,1.67v1.23C405.22,346.92,403.37,346.24,403.49,344.2Zm-5.74-1.05a1.86,1.86,0,0,0,2,2c2.54-.19,3.89-1.79,3.71-4.57-2.66.13-5.68-.31-5.68,2.53" data-name="gm"/>
  <path class="cls-4" d="M414.35,334.45c5.5-.25,3.28,7.16,3.71,12h-2V339c0-1.92-.49-3-2.4-3-4.45.13-2.72,6.3-3,10.43h-2l-.07-11.72h1.86a9.48,9.48,0,0,0,.12,2,3.9,3.9,0,0,1,3.76-2.22" data-name="gq"/>
  <path class="cls-4" d="M423.12,343.52c-.12,1.48,1.11,1.79,2.35,1.36v1.48c-2,.62-4.33.31-4.33-2.4v-7.84h-1.35V334.7h1.48l.55-2.66h1.3v2.66h2.16v1.42h-2.16v7.4" data-name="gg"/>
 </g>
 <path class="cls-3" d="m503.47 277.59c4.3 0 7.8 8.62 7.8 19.25s-3.5 19.25-7.8 19.25h-62.4c-4.3 0-7.8-8.62-7.8-19.25s3.5-19.25 7.8-19.25z"/>
 <path class="cls-5" d="m503.47 316.09c-4.3 0-7.8-8.62-7.8-19.25s3.5-19.25 7.8-19.25"/>
 <g data-name="aq">
  <path class="cls-4" d="m445.3 288.6v5.68h8.52v1.72h-8.52v6.17h-2v-15.3h10.8v1.73h-8.8" data-name="gv"/>
  <path class="cls-4" d="m456.41 302.18v-16.11h2v16.11h-2" data-name="gw"/>
  <path class="cls-4" d="M466,290.2c3.82-.06,5.24,2.29,5.24,6.11s-1.66,6.12-5.3,6.12-5.13-2.41-5.19-6.12C460.73,292.24,462.46,290.2,466,290.2Zm-.06,10.74c2.71.07,3.27-1.91,3.27-4.63s-.5-4.63-3.15-4.63-3.27,2-3.27,4.63.62,4.57,3.15,4.63" data-name="gi"/>
  <path class="cls-4" d="m484.87 302.18h-2.23l-2.46-10.13-2.54 10.13h-2.22l-3.33-11.73h2l2.41 10.12 2.66-10.12h2.09l2.54 10.12 2.59-10.12h1.91" data-name="gh"/>
 </g>
 <path class="cls-2" d="M593,174.6l-1,.42-1.8.87-1.72.93-1.65,1-1.6,1-1.54,1.1-1.5,1.17-1.46,1.24-1.44,1.32-1.4,1.4-1.4,1.52-1.38,1.63L573.79,190l-1.37,1.93L571.05,194l-1.38,2.34-1.4,2.64-1.44,3-1.48,3.45-1.56,4.08-1.7,5-2,6.78-3,12.55-5.64,24.58-1.7,5.9-1.4,4.2-1.28,3.33-1.18,2.73-1.1,2.3-1.08,2-1,1.77-1,1.55-1,1.4-1,1.27-1,1.15-1,1.06-1,1-1,.9-1,.83-1,.77-1,.73-1,.67-1.06.63-.12.06"/>
 <path class="cls-4" d="M594.31,175.13l-.92.4-.8-1.83,1-.42"/>
 <path class="cls-6" d="m515.93 296.1 12.83-7.77 2.1 9z"/>
 <path class="cls-2" d="M113.27,90.49V771m0-680.48v-1"/>
 <path class="cls-6" d="m113.27 786.25-4.63-14.25h9.28z"/>
 <g id="cV">
  <path id="hv" class="cls-4" d="M0,372.1c5.93-.35,11,.24,10.91,6-.05,3.95-2.17,6.22-6,6.22H0Zm2.57,10.27c3.65.34,5.78-.89,5.78-4.25s-2.23-4.34-5.78-4.05v8.3"/>
  <path id="hc" class="cls-4" d="M17,374.76c3.16,0,4.74,1.78,4.74,4.89s-1.73,4.89-4.79,4.89-4.69-1.78-4.69-4.89S14,374.76,17,374.76Zm-.05,8.1c1.73,0,2.22-1.38,2.22-3.21s-.49-3.21-2.12-3.21-2.23,1.29-2.23,3.21.5,3.21,2.13,3.21"/>
  <path id="hf" class="cls-4" d="M33.83,384.34H31.26l-1.93-7.65-2,7.65H24.79L22.37,375h2.27l1.58,7.16c.45-2.57,1.19-4.79,1.78-7.16h2.62l1.82,7.16L34,375H36.3"/>
  <path id="ho" class="cls-4" d="M42.91,374.76c4.3-.05,2.87,5.58,3.11,9.58H43.56c-.35-2.81,1.13-7.75-1.68-7.75s-1.68,4.79-1.93,7.75H37.48l0-9.38h2.32a11.11,11.11,0,0,0,.15,1.88,3.07,3.07,0,0,1,3-2.08"/>
  <path id="hb" class="cls-4" d="M53.83,377.53c.05-1.43-3.46-1.68-3.51-.2.74,2.27,5.83.35,5.88,4.25,0,4.1-8.1,3.75-8.5.44l2.13-.34c.19.94,1,1.23,2.17,1.23,1.63.4,2.81-1.48,1.19-2-2.13-.69-5-.55-5.14-3.26-.1-3.95,7.6-3.66,8-.35"/>
  <path class="cls-4" d="M62.62,384.2c-1.78.69-4.3.34-4.3-2.08v-5.53H57.14V375h1.33l.74-2.22h1.53V375h1.78v1.63H60.74v4.89c-.05,1.14.79,1.53,1.88,1.23v1.49" data-name="hk"/>
  <path id="gY" class="cls-4" d="M69.48,376.94c-1.92-.6-3,.64-3,2.81v4.59H64.05L64,375h2.32a12.35,12.35,0,0,0,.15,2c.3-1.39,1.33-2.62,3-2v2"/>
  <path class="cls-4" d="M78.86,382a4,4,0,0,1-4,2.57c-3-.1-4.39-1.83-4.39-4.94s1.48-4.84,4.44-4.84S79,377,79,380.1H73c0,1.53.39,2.71,1.92,2.76a1.51,1.51,0,0,0,1.68-1.08Zm-2.22-3.4c.25-2.28-2.81-3.11-3.45-1a3.21,3.21,0,0,0-.2,1h3.65" data-name="gX"/>
  <path id="hn" class="cls-4" d="M86.17,382.67c-.79.93-1.48,1.92-3.16,1.87a2.6,2.6,0,0,1-2.86-2.86c-.05-3,2.71-3.11,5.73-3,.05-1.29-.15-2.33-1.39-2.33a1.29,1.29,0,0,0-1.38,1.34l-2.57-.1c.35-1.88,1.78-2.87,4-2.82s3.66,1.09,3.71,3.36l0,4.05c0,.69.59.89,1.23.74v1.34C88.1,384.64,86.07,384.49,86.17,382.67Zm-2.37.14c1.43,0,2.13-1.18,2.08-2.81-1.58,0-3.26-.15-3.21,1.48,0,.84.39,1.33,1.13,1.33"/>
  <path id="hr" class="cls-4" d="M100.35,376.59c-2.62.45-1.39,4.94-1.68,7.75H96.25v-5.28c0-1.33-.25-2.42-1.44-2.47-2.61.49-1.33,4.94-1.62,7.75H90.72l0-9.38H93a11.11,11.11,0,0,0,.15,1.88c.49-2.62,5-2.77,5.33,0,.64-1.09,1.18-2.13,2.91-2.08,4.05.05,2.52,5.73,2.82,9.58h-2.42v-5.28c0-1.23-.25-2.37-1.43-2.47"/>
 </g>
 <g id="cW">
  <path id="hl" class="cls-4" d="M21.33,396.1c2.62,0,3.46,2.17,3.46,4.84s-.94,4.84-3.6,4.94a3.4,3.4,0,0,1-2.92-1.68c.15,1.63.1,3.4.1,5.18H15.9l-.05-13.08h2.37a13.44,13.44,0,0,0,.15,1.53A2.85,2.85,0,0,1,21.33,396.1Zm-1,8.1c1.63,0,1.92-1.53,2-3.26s-.44-3.16-2-3.16c-2.77,0-2.72,6.42,0,6.42"/>
  <path class="cls-4" d="M32.15,398.27c-1.93-.59-3,.64-3,2.82v4.59H26.72l0-9.38H29a12.13,12.13,0,0,0,.15,2c.29-1.38,1.33-2.62,3-2v2" data-name="gY"/>
  <path class="cls-4" d="m37.83 396.1c3.16 0 4.74 1.78 4.74 4.89s-1.73 4.89-4.79 4.89-4.69-1.78-4.69-4.89 1.68-4.89 4.74-4.89zm0 8.1c1.73 0 2.22-1.39 2.22-3.21 0-2-0.49-3.21-2.12-3.21s-2.23 1.28-2.23 3.21c0 1.77 0.5 3.21 2.13 3.21" data-name="hc"/>
  <path id="hm" class="cls-4" d="m47.56 396.1a3 3 0 0 1 2.86 1.68l-0.05-5h2.47v12.89h-2.32a13 13 0 0 0-0.15-1.53 3 3 0 0 1-3 1.73c-2.57 0-3.36-2.23-3.41-4.89s0.93-4.78 3.6-4.88zm0.84 8.1c1.62 0 2-1.49 2-3.26s-0.44-3.16-2-3.16-1.88 1.48-1.93 3.21c0 2.12 0.64 3.21 1.93 3.21"/>
  <path id="hq" class="cls-4" d="M58.22,405.88c-4.29,0-2.86-5.58-3.11-9.58h2.47c.35,2.81-1.14,7.4,1.63,7.75,3-.25,1.73-4.79,2-7.75h2.46l.05,9.38H61.38a11.11,11.11,0,0,0-.15-1.88,3.07,3.07,0,0,1-3,2.08"/>
  <path id="ht" class="cls-4" d="M74.22,402.57c-.34,2.07-1.87,3.31-4.24,3.31-2.92,0-4.15-1.88-4.45-4.84-.59-5.44,7.61-6.77,8.59-1.78l-2.42.1A1.65,1.65,0,0,0,70,397.78c-1.49,0-1.73,1.38-1.88,3.16-.3,3.65,3.21,4.29,3.65,1.48"/>
  <path class="cls-4" d="M80.4,405.53c-1.78.69-4.3.35-4.3-2.07v-5.54H74.91V396.3h1.34l.74-2.23h1.53v2.23H80.3v1.62H78.52v4.89c0,1.14.79,1.53,1.88,1.24v1.48" data-name="hk"/>
  <path id="hj" class="cls-4" d="m81.83 394.62v-1.83h2.47v1.83zm0 11.06v-9.38h2.47v9.38h-2.47"/>
  <path id="gZ" class="cls-4" d="m91.85 405.68h-2.91l-3.36-9.38h2.62l2.22 7.4 2.37-7.4h2.57"/>
  <path class="cls-4" d="M104.54,403.31a4,4,0,0,1-4.05,2.57c-3-.1-4.39-1.83-4.39-4.94s1.48-4.84,4.44-4.84,4.1,2.22,4.15,5.33h-6c0,1.53.39,2.72,1.92,2.77a1.52,1.52,0,0,0,1.68-1.09Zm-2.22-3.41c.25-2.27-2.81-3.11-3.46-1a3.51,3.51,0,0,0-.19,1h3.65" data-name="gX"/>
 </g>
 <g id="cX">
  <path class="cls-4" d="M35.9,425.33c-.79.94-1.48,1.93-3.16,1.88a2.6,2.6,0,0,1-2.86-2.87c-.05-3,2.71-3.11,5.72-3,0-1.28-.14-2.32-1.38-2.32a1.28,1.28,0,0,0-1.38,1.33l-2.57-.09c.35-1.88,1.78-2.87,4.05-2.82s3.66,1.09,3.7,3.36l0,4c0,.69.6.89,1.24.74v1.33C37.83,427.31,35.8,427.16,35.9,425.33Zm-2.37.15c1.43,0,2.12-1.19,2.07-2.81-1.58,0-3.25-.15-3.2,1.48,0,.84.39,1.33,1.13,1.33" data-name="hn"/>
  <path class="cls-4" d="M48.59,423.9c-.34,2.07-1.87,3.31-4.24,3.31-2.92,0-4.15-1.88-4.45-4.84-.59-5.43,7.61-6.77,8.59-1.78l-2.42.1a1.65,1.65,0,0,0-1.72-1.58c-1.49,0-1.73,1.38-1.88,3.16-.3,3.65,3.21,4.3,3.65,1.48" data-name="ht"/>
  <path class="cls-4" d="M54.77,426.86c-1.78.69-4.3.35-4.3-2.07v-5.53H49.28v-1.63h1.34l.74-2.22h1.53v2.22h1.78v1.63H52.89v4.89c0,1.13.79,1.53,1.88,1.23v1.48" data-name="hk"/>
  <path class="cls-4" d="M56.2,416v-1.83h2.47V416Zm0,11.06v-9.38h2.47V427H56.2" data-name="hj"/>
  <path class="cls-4" d="M66.22,427H63.31L60,417.63h2.62L64.79,425l2.37-7.41h2.57" data-name="gZ"/>
  <path class="cls-4" d="M71,416v-1.83h2.47V416ZM71,427v-9.38h2.47V427H71" data-name="hj"/>
  <path class="cls-4" d="M80.4,426.86c-1.78.69-4.3.35-4.3-2.07v-5.53H74.91v-1.63h1.34l.74-2.22h1.53v2.22H80.3v1.63H78.52v4.89c0,1.13.79,1.53,1.88,1.23v1.48" data-name="hk"/>
  <path class="cls-4" d="M81.83,416v-1.83H84.3V416Zm0,11.06v-9.38H84.3V427H81.83" data-name="hj"/>
  <path class="cls-4" d="M94.67,424.64a4,4,0,0,1-4,2.57c-3-.1-4.4-1.83-4.4-4.94s1.48-4.84,4.45-4.84,4.1,2.22,4.14,5.33h-6c0,1.53.4,2.72,1.93,2.77a1.53,1.53,0,0,0,1.68-1.09Zm-2.23-3.41c.25-2.27-2.81-3.11-3.45-1a3.14,3.14,0,0,0-.2,1h3.65" data-name="gX"/>
  <path class="cls-4" d="M102.17,420.2c0-1.44-3.45-1.68-3.5-.2.74,2.27,5.82.34,5.87,4.25,0,4.09-8.1,3.75-8.49.44l2.12-.35c.2.94,1,1.24,2.18,1.24,1.63.39,2.81-1.48,1.18-2-2.12-.69-5-.54-5.13-3.26-.1-4,7.6-3.65,7.95-.34" data-name="hb"/>
 </g>
 <path class="cls-3" d="m653.27 564.19a6 6 0 0 1 6-6h148a6 6 0 0 1 6 6v108a6 6 0 0 1-6 6h-148a6 6 0 0 1-6-6z"/>
 <g data-name="ap">
  <path class="cls-4" d="M704.35,609l-8.14-13,.06,13h-1.79V593.66h2.41l8.2,13.15L705,593.66h1.92V609h-2.54" data-name="ge"/>
  <path class="cls-4" d="M714.79,597c3.89,0,5.3,2.6,5.18,6.55h-8.33c0,2.47.86,4.13,3.27,4.19a2.86,2.86,0,0,0,3-1.79l1.73.5c-.68,1.73-2.28,2.77-4.75,2.77-3.58,0-5.43-2.28-5.37-6.17S711.14,597,714.79,597Zm3.21,5c.37-3.7-4.7-4.75-6-1.73a4.44,4.44,0,0,0-.37,1.73H718" data-name="gf"/>
  <path class="cls-4" d="M724.6,606.07c-.12,1.48,1.11,1.79,2.35,1.35v1.49c-2,.61-4.32.3-4.32-2.41v-7.84h-1.36v-1.42h1.48l.55-2.65h1.3v2.65h2.16v1.42H724.6v7.41" data-name="gg"/>
  <path class="cls-4" d="m739.85 609h-2.22l-2.47-10.13-2.53 10.13h-2.23l-3.33-11.73h2l2.4 10.12 2.66-10.12h2.1l2.53 10.12 2.59-10.12h1.91" data-name="gh"/>
  <path class="cls-4" d="M749.29,597c3.83-.06,5.25,2.29,5.25,6.11s-1.67,6.11-5.31,6.11-5.12-2.4-5.18-6.11C744.05,599,745.77,597,749.29,597Zm-.06,10.74c2.72.07,3.27-1.91,3.27-4.63s-.49-4.63-3.15-4.63-3.27,2-3.27,4.63.62,4.57,3.15,4.63" data-name="gi"/>
  <path class="cls-4" d="M762.5,598.91c-4.81-1-3.27,5.61-3.52,10.06h-2L757,597.24h1.85a15.43,15.43,0,0,0,.12,2.41c.37-1.67,1.42-3,3.58-2.53v1.79" data-name="gj"/>
  <path class="cls-4" d="m771.64 609-3.95-5.37-1.42 1.17v4.2h-2v-16.14h2v10.06l5.12-5.68h2.29l-4.76 5.06 5.08 6.7h-2.34" data-name="gk"/>
 </g>
 <g data-name="b">
  <path class="cls-4" d="M682.75,620.33c5.37.06,11.79-.93,11.79,4.63,0,4.81-4.75,4.93-9.75,4.69v6h-2Zm2,7.71c3.51,0,7.65.68,7.65-3.08s-4.2-2.91-7.65-3v6" data-name="gl"/>
  <path class="cls-4" d="M704.42,633.41c-.93,1.3-1.92,2.53-4.2,2.47s-3.58-1.29-3.58-3.52c-.06-4,3.89-3.89,7.71-3.89.19-2.16-.55-3.33-2.53-3.33-1.48.06-2.53.43-2.59,1.91l-2-.18c.31-2.28,2-3.21,4.7-3.21s4.44,1.23,4.44,4v5.06c-.06,1.24.43,2,1.73,1.67v1.23C706.14,636.13,704.29,635.45,704.42,633.41Zm-5.74-1a1.86,1.86,0,0,0,2,2c2.53-.19,3.89-1.79,3.7-4.57-2.65.13-5.67-.31-5.67,2.53" data-name="gm"/>
  <path class="cls-4" d="M715.09,625.57c-4.81-1-3.27,5.62-3.51,10.06h-2l-.06-11.72h1.85a15.24,15.24,0,0,0,.12,2.4c.38-1.66,1.42-3,3.58-2.53v1.79" data-name="gj"/>
  <path class="cls-4" d="M719.05,632.73c-.13,1.48,1.11,1.79,2.34,1.36v1.48c-2,.62-4.32.31-4.32-2.4v-7.84h-1.36v-1.42h1.48l.56-2.66h1.3v2.66h2.16v1.42h-2.16v7.4" data-name="gg"/>
  <path class="cls-4" d="m723.06 621.38v-1.86h2v1.86zm0 14.25v-11.72h2v11.72h-2" data-name="gn"/>
  <path class="cls-4" d="M732.38,625.2c-2.47,0-3,2-3,4.51s.55,4.63,3,4.63A2.46,2.46,0,0,0,735,632l2,.13a4.24,4.24,0,0,1-4.57,3.76c-3.64,0-4.69-2.53-5.06-6.11-.62-5.74,6.23-8.09,9.07-3.95a5,5,0,0,1,.44,1.36l-2,.18a2.37,2.37,0,0,0-2.53-2.16" data-name="go"/>
  <path class="cls-4" d="m739.05 621.38v-1.86h2v1.86zm0 14.25v-11.72h2v11.72h-2" data-name="gn"/>
  <path class="cls-4" d="M749.54,623.66c3.39.06,4.32,2.53,4.32,6.05s-1,6-4.32,6.17a3.77,3.77,0,0,1-3.7-2.1l.06,6.48h-2l-.06-16.35h1.91l.13,1.85A3.63,3.63,0,0,1,749.54,623.66Zm-.49,10.74c2.46,0,2.77-2.1,2.77-4.63s-.37-4.51-2.77-4.57c-2.6,0-3.15,2-3.15,4.69s.61,4.51,3.15,4.51" data-name="gp"/>
  <path class="cls-4" d="M763.49,633.41c-.93,1.3-1.91,2.53-4.2,2.47s-3.58-1.29-3.58-3.52c-.06-4,3.89-3.89,7.72-3.89.18-2.16-.56-3.33-2.53-3.33-1.48.06-2.53.43-2.6,1.91l-2-.18c.31-2.28,2-3.21,4.69-3.21s4.44,1.23,4.44,4v5.06c-.06,1.24.44,2,1.73,1.67v1.23C765.22,636.13,763.37,635.45,763.49,633.41Zm-5.74-1a1.86,1.86,0,0,0,2,2c2.54-.19,3.89-1.79,3.71-4.57-2.66.13-5.68-.31-5.68,2.53" data-name="gm"/>
  <path class="cls-4" d="M774.35,623.66c5.5-.25,3.28,7.16,3.71,12h-2v-7.46c0-1.92-.49-3-2.4-3-4.45.13-2.72,6.3-3,10.43h-2l-.07-11.72h1.86a9.48,9.48,0,0,0,.12,2,3.9,3.9,0,0,1,3.76-2.22" data-name="gq"/>
  <path class="cls-4" d="M783.12,632.73c-.12,1.48,1.11,1.79,2.35,1.36v1.48c-2,.62-4.33.31-4.33-2.4v-7.84h-1.35v-1.42h1.48l.55-2.66h1.3v2.66h2.16v1.42h-2.16v7.4" data-name="gg"/>
 </g>
 <path class="cls-3" d="m663.47 565.37c4.3 0 7.8 8.6 7.8 19.24s-3.5 19.25-7.8 19.25h-62.4c-4.3 0-7.8-8.63-7.8-19.26s3.5-19.25 7.8-19.25z"/>
 <path class="cls-5" d="m663.47 603.87c-4.3 0-7.8-8.63-7.8-19.26s3.5-19.25 7.8-19.25"/>
 <g data-name="aq">
  <path class="cls-4" d="m605.3 576.37v5.68h8.52v1.72h-8.52v6.23h-2v-15.36h10.8v1.73h-8.8" data-name="gv"/>
  <path class="cls-4" d="M616.41,590V573.84h2V590h-2" data-name="gw"/>
  <path class="cls-4" d="M626,578c3.82-.06,5.24,2.29,5.24,6.11s-1.66,6.11-5.3,6.11-5.13-2.4-5.19-6.11C620.73,580,622.46,578,626,578Zm-.06,10.74c2.71.06,3.27-1.91,3.27-4.63s-.5-4.63-3.15-4.63-3.27,2-3.27,4.63.62,4.57,3.15,4.63" data-name="gi"/>
  <path class="cls-4" d="m644.87 590h-2.23l-2.46-10.13-2.54 10.13h-2.22l-3.33-11.73h2l2.41 10.12 2.66-10.12h2.09l2.54 10.12 2.59-10.12h1.91" data-name="gh"/>
 </g>
 <path class="cls-3" d="m503.47 329.25c4.3 0 7.8 8.62 7.8 19.25s-3.5 19.25-7.8 19.25h-62.4c-4.3 0-7.8-8.6-7.8-19.25s3.5-19.25 7.8-19.25z"/>
 <path class="cls-5" d="m503.47 367.75c-4.3 0-7.8-8.6-7.8-19.25s3.5-19.25 7.8-19.25"/>
 <g data-name="aq">
  <path class="cls-4" d="m445.3 340.26v5.68h8.52v1.73h-8.52v6.17h-2v-15.3h10.8v1.72h-8.8" data-name="gv"/>
  <path class="cls-4" d="m456.41 353.84v-16.11h2v16.11h-2" data-name="gw"/>
  <path class="cls-4" d="m466 341.87c3.82-0.06 5.24 2.28 5.24 6.11s-1.66 6.11-5.3 6.11-5.13-2.41-5.19-6.11c-0.02-4.07 1.71-6.11 5.25-6.11zm-0.06 10.74c2.71 0.06 3.27-1.91 3.27-4.63s-0.5-4.63-3.15-4.63-3.27 2-3.27 4.63 0.62 4.57 3.15 4.63" data-name="gi"/>
  <path class="cls-4" d="m484.87 353.84h-2.23l-2.46-10.12-2.54 10.12h-2.22l-3.33-11.72h2l2.41 10.12 2.66-10.12h2.09l2.54 10.12 2.59-10.12h1.91" data-name="gh"/>
 </g>
 <path class="cls-2" d="M513.77,348.57H514l.4.07.4.08.42.1.4.1.4.14.43.15.43.18.43.2.44.24.47.27.48.3.5.35.52.38.55.45.57.52.6.6.66.7.7.8.75.95.8,1.12.9,1.35,1,1.64,1.1,2,1.25,2.53L530,367l1.67,4.25,2,5.78,2.48,8.27,3.28,12.87,5.06,24.1L565,534.9l3.3,12.86L570.8,556l2,5.78,1.67,4.25,1.43,3.23,1.25,2.52.9,1.64"/>
 <path class="cls-4" d="M513.83,347.53l-.05,2-1.12,0,.1-.9v-.8l0-.3"/>
 <path class="cls-6" d="m589.27 582.57-14-5.42 5.86-7.2z"/>
 <path class="cls-3" d="m653.27 395.49a6 6 0 0 1 6-6h148a6 6 0 0 1 6 6v108a6 6 0 0 1-6 6h-148a6 6 0 0 1-6-6z"/>
 <g data-name="ap">
  <path class="cls-4" d="M704.35,440.27l-8.14-13,.06,13h-1.79V425h2.41l8.2,13.15L705,425h1.92v15.31h-2.54" data-name="ge"/>
  <path class="cls-4" d="m714.79 428.29c3.89 0 5.3 2.59 5.18 6.54h-8.33c0 2.47 0.86 4.14 3.27 4.2a2.87 2.87 0 0 0 3-1.79l1.73 0.5c-0.68 1.72-2.28 2.77-4.75 2.77-3.58 0-5.43-2.28-5.37-6.17s1.62-6.05 5.27-6.05zm3.21 5c0.37-3.7-4.7-4.75-6-1.73a4.39 4.39 0 0 0-0.37 1.73h6.37" data-name="gf"/>
  <path class="cls-4" d="M724.6,437.37c-.12,1.48,1.11,1.79,2.35,1.35v1.48c-2,.62-4.32.31-4.32-2.4V430h-1.36v-1.42h1.48l.55-2.66h1.3v2.66h2.16V430H724.6v7.41" data-name="gg"/>
  <path class="cls-4" d="m739.85 440.27h-2.22l-2.47-10.13-2.53 10.13h-2.23l-3.33-11.73h2l2.4 10.12 2.66-10.12h2.1l2.53 10.12 2.59-10.12h1.91" data-name="gh"/>
  <path class="cls-4" d="m749.29 428.29c3.83-0.06 5.25 2.29 5.25 6.11s-1.67 6.11-5.31 6.11-5.12-2.4-5.18-6.11c0-4.07 1.72-6.11 5.24-6.11zm-0.06 10.71c2.72 0.06 3.27-1.91 3.27-4.63s-0.49-4.63-3.15-4.63-3.27 2-3.27 4.63 0.62 4.57 3.15 4.63" data-name="gi"/>
  <path class="cls-4" d="M762.5,430.2c-4.81-1-3.27,5.62-3.52,10.07h-2L757,428.54h1.85a15.43,15.43,0,0,0,.12,2.41c.37-1.67,1.42-3,3.58-2.54v1.79" data-name="gj"/>
  <path class="cls-4" d="m771.64 440.27-3.95-5.37-1.42 1.17v4.2h-2v-16.11h2v10.06l5.12-5.68h2.29l-4.76 5.06 5.06 6.67h-2.34" data-name="gk"/>
 </g>
 <g data-name="b">
  <path class="cls-4" d="M682.75,451.62c5.37.07,11.79-.92,11.79,4.63,0,4.82-4.75,4.94-9.75,4.7v6h-2Zm2,7.72c3.51,0,7.65.68,7.65-3.09s-4.2-2.9-7.65-3v6" data-name="gl"/>
  <path class="cls-4" d="M704.42,464.71c-.93,1.3-1.92,2.53-4.2,2.47s-3.58-1.3-3.58-3.52c-.06-4,3.89-3.89,7.71-3.89.19-2.16-.55-3.33-2.53-3.33-1.48.06-2.53.43-2.59,1.91l-2-.18c.31-2.29,2-3.21,4.7-3.21s4.44,1.23,4.44,4V464c-.06,1.23.43,2,1.73,1.67v1.23C706.14,467.43,704.29,466.75,704.42,464.71Zm-5.74-1a1.86,1.86,0,0,0,2,2c2.53-.19,3.89-1.79,3.7-4.57-2.65.12-5.67-.31-5.67,2.53" data-name="gm"/>
  <path class="cls-4" d="M715.09,456.87c-4.81-1-3.27,5.62-3.51,10.06h-2l-.06-11.73h1.85a15.37,15.37,0,0,0,.12,2.41c.38-1.66,1.42-3,3.58-2.53v1.79" data-name="gj"/>
  <path class="cls-4" d="M719.05,464c-.13,1.48,1.11,1.79,2.34,1.36v1.48c-2,.62-4.32.31-4.32-2.41v-7.84h-1.36V455.2h1.48l.56-2.65h1.3v2.65h2.16v1.42h-2.16V464" data-name="gg"/>
  <path class="cls-4" d="M723.06,452.67v-1.85h2v1.85Zm0,14.26V455.2h2v11.73h-2" data-name="gn"/>
  <path class="cls-4" d="M732.38,456.5c-2.47,0-3,2-3,4.51s.55,4.63,3,4.63a2.46,2.46,0,0,0,2.65-2.35l2,.12a4.24,4.24,0,0,1-4.57,3.77c-3.64,0-4.69-2.53-5.06-6.11-.62-5.74,6.23-8.09,9.07-3.95a5,5,0,0,1,.44,1.36l-2,.18a2.37,2.37,0,0,0-2.53-2.16" data-name="go"/>
  <path class="cls-4" d="M739.05,452.67v-1.85h2v1.85Zm0,14.26V455.2h2v11.73h-2" data-name="gn"/>
  <path class="cls-4" d="M749.54,455c3.39.06,4.32,2.53,4.32,6.05s-1,6.05-4.32,6.17a3.77,3.77,0,0,1-3.7-2.1l.06,6.48h-2l-.06-16.36h1.91l.13,1.86A3.63,3.63,0,0,1,749.54,455Zm-.49,10.74c2.46,0,2.77-2.1,2.77-4.63s-.37-4.51-2.77-4.57c-2.6,0-3.15,2-3.15,4.69s.61,4.51,3.15,4.51" data-name="gp"/>
  <path class="cls-4" d="M763.49,464.71c-.93,1.3-1.91,2.53-4.2,2.47s-3.58-1.3-3.58-3.52c-.06-4,3.89-3.89,7.72-3.89.18-2.16-.56-3.33-2.53-3.33-1.48.06-2.53.43-2.6,1.91l-2-.18c.31-2.29,2-3.21,4.69-3.21s4.44,1.23,4.44,4V464c-.06,1.23.44,2,1.73,1.67v1.23C765.22,467.43,763.37,466.75,763.49,464.71Zm-5.74-1a1.86,1.86,0,0,0,2,2c2.54-.19,3.89-1.79,3.71-4.57-2.66.12-5.68-.31-5.68,2.53" data-name="gm"/>
  <path class="cls-4" d="M774.35,455c5.5-.25,3.28,7.16,3.71,12h-2v-7.47c0-1.91-.49-3-2.4-3-4.45.12-2.72,6.3-3,10.43h-2l-.07-11.73h1.86a9.54,9.54,0,0,0,.12,2,3.9,3.9,0,0,1,3.76-2.22" data-name="gq"/>
  <path class="cls-4" d="M783.12,464c-.12,1.48,1.11,1.79,2.35,1.36v1.48c-2,.62-4.33.31-4.33-2.41v-7.84h-1.35V455.2h1.48l.55-2.65h1.3v2.65h2.16v1.42h-2.16V464" data-name="gg"/>
 </g>
 <path class="cls-3" d="m663.47 411c4.3 0 7.8 8.62 7.8 19.25s-3.5 19.25-7.8 19.25h-62.4c-4.3 0-7.8-8.62-7.8-19.25s3.5-19.25 7.8-19.25z"/>
 <path class="cls-5" d="m663.47 449.49c-4.3 0-7.8-8.62-7.8-19.25s3.5-19.25 7.8-19.25"/>
 <g data-name="aq">
  <path class="cls-4" d="m605.3 422v5.68h8.52v1.73h-8.52v6.17h-2v-15.31h10.8v1.73h-8.8" data-name="gv"/>
  <path class="cls-4" d="m616.41 435.58v-16.11h2v16.11h-2" data-name="gw"/>
  <path class="cls-4" d="M626,423.6c3.82-.06,5.24,2.29,5.24,6.11s-1.66,6.12-5.3,6.12-5.13-2.41-5.19-6.12C620.73,425.64,622.46,423.6,626,423.6Zm-.06,10.74c2.71.07,3.27-1.91,3.27-4.63s-.5-4.62-3.15-4.62-3.27,2-3.27,4.62.62,4.57,3.15,4.63" data-name="gi"/>
  <path class="cls-4" d="m644.87 435.58h-2.23l-2.46-10.12-2.54 10.12h-2.22l-3.33-11.73h2l2.38 10.15 2.66-10.12h2.09l2.54 10.12 2.59-10.12h1.91" data-name="gh"/>
 </g>
 <path class="cls-2" d="M513.78,348.53l.7,0,1.62.14,1.56.24,1.5.32,1.5.42,1.45.5,1.45.62,1.47.73,1.48.85,1.53,1,1.6,1.18,1.65,1.42,1.77,1.7,1.93,2.1,2.16,2.64,2.5,3.5,3.12,5,4.85,9,14.2,28,3.1,5,2.5,3.5,2.16,2.64,1.93,2.08,1.78,1.7,1.48,1.26"/>
 <path class="cls-4" d="M513.83,347.54l-.06,2-1.1,0,.1-.9v-.8l0-.3"/>
 <path class="cls-6" d="m588.73 429.13-15-0.55 3.18-8.7z"/>
 <path class="cls-3" d="m293.27 663.85a6 6 0 0 1 6-6h148a6 6 0 0 1 6 6v108a6 6 0 0 1-6 6h-148a6 6 0 0 1-6-6z"/>
 <g data-name="ap">
  <path class="cls-4" d="m344.35 708.63-8.14-13 0.06 13h-1.79v-15.31h2.41l8.2 13.15-0.09-13.15h1.92v15.31h-2.54" data-name="ge"/>
  <path class="cls-4" d="m354.79 696.65c3.89 0 5.3 2.59 5.18 6.54h-8.33c0 2.47 0.86 4.14 3.27 4.2a2.87 2.87 0 0 0 3-1.79l1.73 0.5c-0.68 1.72-2.28 2.77-4.75 2.77-3.58 0-5.43-2.28-5.37-6.17s1.62-6.05 5.27-6.05zm3.21 5c0.37-3.7-4.7-4.75-6-1.73a4.39 4.39 0 0 0-0.37 1.73h6.37" data-name="gf"/>
  <path class="cls-4" d="M364.6,705.72c-.12,1.49,1.11,1.79,2.35,1.36v1.48c-2,.62-4.32.31-4.32-2.4v-7.84h-1.36V696.9h1.48l.55-2.66h1.3v2.66h2.16v1.42H364.6v7.4" data-name="gg"/>
  <path class="cls-4" d="m379.85 708.63h-2.22l-2.47-10.13-2.53 10.13h-2.23l-3.33-11.73h2l2.4 10.12 2.66-10.12h2.1l2.51 10.1 2.59-10.12h1.91" data-name="gh"/>
  <path class="cls-4" d="m389.29 696.65c3.83-0.06 5.25 2.28 5.25 6.11s-1.67 6.11-5.31 6.11-5.12-2.4-5.18-6.11c0-4.07 1.72-6.11 5.24-6.11zm-0.06 10.74c2.72 0.06 3.27-1.91 3.27-4.63s-0.49-4.63-3.15-4.63-3.27 2-3.27 4.63 0.62 4.57 3.15 4.63" data-name="gi"/>
  <path class="cls-4" d="M402.5,698.56c-4.81-1-3.27,5.62-3.52,10.07h-2L397,696.9h1.85a15.24,15.24,0,0,0,.12,2.4c.37-1.66,1.42-3,3.58-2.53v1.79" data-name="gj"/>
  <path class="cls-4" d="m411.64 708.63-3.95-5.37-1.42 1.17v4.2h-2v-16.12h2v10.07l5.12-5.68h2.29l-4.76 5.1 5.06 6.67h-2.34" data-name="gk"/>
 </g>
 <g data-name="b">
  <path class="cls-4" d="M322.75,720c5.37.07,11.79-.92,11.79,4.63,0,4.82-4.75,4.94-9.75,4.69v6h-2Zm2,7.72c3.51,0,7.65.68,7.65-3.09s-4.2-2.9-7.65-3v6.05" data-name="gl"/>
  <path class="cls-4" d="M344.42,733.07c-.93,1.3-1.92,2.53-4.2,2.47s-3.58-1.3-3.58-3.52c-.06-3.95,3.89-3.89,7.71-3.89.19-2.16-.55-3.33-2.53-3.33-1.48.06-2.53.43-2.59,1.91l-2-.18c.31-2.29,2-3.21,4.7-3.21s4.44,1.23,4.44,3.95v5.06c-.06,1.23.43,2,1.73,1.67v1.23C346.14,735.79,344.29,735.11,344.42,733.07ZM338.68,732a1.86,1.86,0,0,0,2,2c2.53-.19,3.89-1.79,3.7-4.57-2.65.12-5.67-.31-5.67,2.53" data-name="gm"/>
  <path class="cls-4" d="M355.09,725.23c-4.81-1-3.27,5.62-3.51,10.06h-2l-.06-11.73h1.85a15.43,15.43,0,0,0,.12,2.41c.38-1.67,1.42-3,3.58-2.53v1.79" data-name="gj"/>
  <path class="cls-4" d="M359.05,732.39c-.13,1.48,1.11,1.79,2.34,1.36v1.48c-2,.62-4.32.31-4.32-2.41V725h-1.36v-1.42h1.48l.56-2.65h1.3v2.65h2.16V725h-2.16v7.41" data-name="gg"/>
  <path class="cls-4" d="m363.06 721v-1.85h2v1.85zm0 14.26v-11.7h2v11.73h-2" data-name="gn"/>
  <path class="cls-4" d="M372.38,724.86c-2.47,0-3,2-3,4.51s.55,4.63,3,4.63a2.46,2.46,0,0,0,2.65-2.35l2,.12a4.24,4.24,0,0,1-4.57,3.77c-3.64,0-4.69-2.53-5.06-6.11-.62-5.74,6.23-8.09,9.07-3.95a5,5,0,0,1,.44,1.36l-2,.18a2.36,2.36,0,0,0-2.53-2.16" data-name="go"/>
  <path class="cls-4" d="m379.05 721v-1.85h2v1.85zm0 14.26v-11.7h2v11.73h-2" data-name="gn"/>
  <path class="cls-4" d="M389.54,723.32c3.39.06,4.32,2.53,4.32,6s-1,6-4.32,6.17a3.77,3.77,0,0,1-3.7-2.1l.06,6.48h-2l-.06-16.36h1.91l.13,1.86A3.63,3.63,0,0,1,389.54,723.32Zm-.49,10.74c2.46,0,2.77-2.1,2.77-4.63s-.37-4.51-2.77-4.57c-2.6,0-3.15,2-3.15,4.69s.61,4.51,3.15,4.51" data-name="gp"/>
  <path class="cls-4" d="M403.49,733.07c-.93,1.3-1.91,2.53-4.2,2.47s-3.58-1.3-3.58-3.52c-.06-3.95,3.89-3.89,7.72-3.89.18-2.16-.56-3.33-2.53-3.33-1.48.06-2.53.43-2.6,1.91l-2-.18c.31-2.29,2-3.21,4.69-3.21s4.44,1.23,4.44,3.95v5.06c-.06,1.23.44,2,1.73,1.67v1.23C405.22,735.79,403.37,735.11,403.49,733.07ZM397.75,732a1.86,1.86,0,0,0,2,2c2.54-.19,3.89-1.79,3.71-4.57-2.66.12-5.68-.31-5.68,2.53" data-name="gm"/>
  <path class="cls-4" d="M414.35,723.32c5.5-.25,3.28,7.16,3.71,12h-2v-7.47c0-1.91-.49-3-2.4-3-4.45.12-2.72,6.3-3,10.43h-2l-.07-11.73h1.86a9.54,9.54,0,0,0,.12,2,3.9,3.9,0,0,1,3.76-2.22" data-name="gq"/>
  <path class="cls-4" d="M423.12,732.39c-.12,1.48,1.11,1.79,2.35,1.36v1.48c-2,.62-4.33.31-4.33-2.41V725h-1.35v-1.42h1.48l.55-2.65h1.3v2.65h2.16V725h-2.16v7.41" data-name="gg"/>
 </g>
 <path class="cls-3" d="m483.47 670.54c4.3 0 7.8 8.62 7.8 19.25s-3.5 19.25-7.8 19.25h-62.4c-4.3 0-7.8-8.62-7.8-19.25s3.5-19.25 7.8-19.25z"/>
 <path class="cls-5" d="m483.47 709c-4.3 0-7.8-8.62-7.8-19.25s3.5-19.25 7.8-19.25"/>
 <g data-name="aq">
  <path class="cls-4" d="m425.3 681.55v5.68h8.52v1.77h-8.52v6.17h-2v-15.35h10.8v1.73h-8.8" data-name="gv"/>
  <path class="cls-4" d="M436.41,695.13V679h2v16.11h-2" data-name="gw"/>
  <path class="cls-4" d="m446 683.15c3.82-0.06 5.24 2.29 5.24 6.12s-1.66 6.11-5.3 6.11-5.13-2.41-5.19-6.11c-0.02-4.08 1.71-6.12 5.25-6.12zm-0.06 10.75c2.71 0.06 3.27-1.92 3.27-4.63s-0.5-4.63-3.15-4.63-3.27 2-3.27 4.63 0.62 4.56 3.15 4.63" data-name="gi"/>
  <path class="cls-4" d="m464.87 695.13h-2.23l-2.46-10.13-2.54 10.12h-2.22l-3.33-11.73h2l2.41 10.12 2.66-10.12h2.09l2.54 10.12 2.59-10.12h1.91" data-name="gh"/>
 </g>
 <path class="cls-2" d="M590.77,638.62l-2.46.06-3.17.25-2.94.38-2.77.5-2.62.6-2.5.7-2.44.84-2.37.94-2.35,1.1-2.37,1.22-2.4,1.4-2.52,1.67-2.7,2-3.07,2.5-3.86,3.47-19.77,19.45-3.06,2.48-2.7,2-2.52,1.65-2.42,1.43-2.36,1.23-2.35,1.07-2.37,1L511,687"/>
 <path class="cls-4" d="M591.77,638.51v.8l.05.3h-1.06l0-2h1.15"/>
 <path class="cls-6" d="m496 689.3 13.4-6.72 1.4 9.18z"/>
 <path class="cls-3" d="m663.47 619.35c4.3 0 7.8 8.62 7.8 19.25s-3.5 19.25-7.8 19.25h-62.4c-4.3 0-7.8-8.62-7.8-19.25s3.5-19.25 7.8-19.25z"/>
 <path class="cls-5" d="m663.47 657.85c-4.3 0-7.8-8.62-7.8-19.25s3.5-19.25 7.8-19.25"/>
 <g data-name="aq">
  <path class="cls-4" d="m605.3 630.36v5.64h8.52v1.73h-8.52v6.17h-2v-15.27h10.8v1.73h-8.8" data-name="gv"/>
  <path class="cls-4" d="m616.41 643.94v-16.11h2v16.11h-2" data-name="gw"/>
  <path class="cls-4" d="M626,632c3.82-.06,5.24,2.29,5.24,6.11s-1.66,6.12-5.3,6.12-5.13-2.41-5.19-6.12C620.73,634,622.46,632,626,632Zm-.06,10.74c2.71.07,3.27-1.91,3.27-4.63s-.5-4.63-3.15-4.63-3.27,2-3.27,4.63.62,4.57,3.15,4.63" data-name="gi"/>
  <path class="cls-4" d="m644.87 643.94h-2.23l-2.46-10.12-2.54 10.12h-2.22l-3.33-11.73h2l2.41 10.12 2.66-10.12h2.09l2.54 10.12 2.59-10.12h1.91" data-name="gh"/>
 </g>
 <path class="cls-7" d="m918.3 380.74a7.25 7.25 0 1 1-7.25-7.25 7.25 7.25 0 0 1 7.25 7.25z"/>
 <path class="cls-5" d="m911.05 388v14.3a20.71 20.71 0 0 0 3.65 10.76l14.13 18.44m-17.78-23.2-17.78 23.2m0-36.25h35.56"/>
 <path class="cls-8" d="m893.27 379.49a6 6 0 0 1 6-6h23.56a6 6 0 0 1 6 6v68a6 6 0 0 1-6 6h-23.56a6 6 0 0 1-6-6z"/>
 <path class="cls-7" d="m858.3 380.74a7.25 7.25 0 1 1-7.25-7.25 7.25 7.25 0 0 1 7.25 7.25z"/>
 <path class="cls-5" d="m851.05 388v14.3a20.71 20.71 0 0 0 3.65 10.76l14.13 18.44m-17.78-23.2-17.78 23.2m0-36.25h35.56"/>
 <path class="cls-8" d="m833.27 379.49a6 6 0 0 1 6-6h23.56a6 6 0 0 1 6 6v68a6 6 0 0 1-6 6h-23.56a6 6 0 0 1-6-6z"/>
 <path class="cls-7" d="m887.66 442.24a7.25 7.25 0 1 1-7.25-7.25 7.26 7.26 0 0 1 7.25 7.25z"/>
 <path class="cls-5" d="M880.41,449.49v14.3a20.62,20.62,0,0,0,3.65,10.76L898.19,493m-17.78-23.2L862.63,493m0-36.25h35.56"/>
 <path class="cls-8" d="m862.63 441a6 6 0 0 1 6-6h23.56a6 6 0 0 1 6 6v68a6 6 0 0 1-6 6h-23.56a6 6 0 0 1-6-6z"/>
 <g data-name="ar">
  <path class="cls-4" d="M866,505c-.06,4-2.47,6-6.42,6-3.76,0-6.17-2-6.17-5.8v-9.75h2c.49,5.49-2,13.83,4.13,13.83s3.95-8.21,4.39-13.83h2V505" data-name="gS"/>
  <path class="cls-4" d="M876,501.94c-.18-2.1-5.31-2.35-5.37,0,.93,3.27,7.1.74,7.35,5.55s-9.26,4.57-9.69.5l1.72-.31c.25,2.22,6,2.78,6,0-.61-3.46-7-.93-7.28-5.56-.25-3.51,5.06-3.88,7.53-2.59a3.08,3.08,0,0,1,1.48,2.16" data-name="gt"/>
  <path class="cls-4" d="M885,498.79c3.89,0,5.31,2.59,5.19,6.54h-8.33c0,2.47.86,4.14,3.27,4.2a2.87,2.87,0,0,0,3-1.79l1.73.5c-.68,1.72-2.28,2.77-4.75,2.77-3.58,0-5.44-2.28-5.37-6.17S881.31,498.79,885,498.79Zm3.21,5c.37-3.7-4.69-4.75-6-1.73a4.39,4.39,0,0,0-.37,1.73h6.35" data-name="gf"/>
  <path class="cls-4" d="M898.16,500.7c-4.81-1-3.27,5.62-3.52,10.07h-2L892.61,499h1.85a15.43,15.43,0,0,0,.12,2.41c.37-1.67,1.42-3,3.58-2.54v1.79" data-name="gj"/>
  <path class="cls-4" d="M906.81,501.94c-.19-2.1-5.31-2.35-5.38,0,.93,3.27,7.1.74,7.35,5.55s-9.26,4.57-9.69.5l1.73-.31c.24,2.22,6,2.78,6,0-.62-3.46-7-.93-7.29-5.56-.24-3.51,5.06-3.88,7.53-2.59a3.12,3.12,0,0,1,1.49,2.16" data-name="gt"/>
 </g>
 <path class="cls-7" d="m918.3 549.44a7.25 7.25 0 1 1-7.25-7.25 7.25 7.25 0 0 1 7.25 7.25z"/>
 <path class="cls-5" d="M911.05,556.69V571a20.71,20.71,0,0,0,3.65,10.76l14.13,18.44M911.05,577l-17.78,23.2m0-36.25h35.56"/>
 <path class="cls-8" d="m893.27 548.19a6 6 0 0 1 6-6h23.56a6 6 0 0 1 6 6v68a6 6 0 0 1-6 6h-23.56a6 6 0 0 1-6-6z"/>
 <path class="cls-7" d="m858.3 549.44a7.25 7.25 0 1 1-7.25-7.25 7.25 7.25 0 0 1 7.25 7.25z"/>
 <path class="cls-5" d="M851.05,556.69V571a20.71,20.71,0,0,0,3.65,10.76l14.13,18.44M851.05,577l-17.78,23.2m0-36.25h35.56"/>
 <path class="cls-8" d="m833.27 548.19a6 6 0 0 1 6-6h23.56a6 6 0 0 1 6 6v68a6 6 0 0 1-6 6h-23.56a6 6 0 0 1-6-6z"/>
 <path class="cls-7" d="m887.66 610.94a7.25 7.25 0 1 1-7.25-7.25 7.26 7.26 0 0 1 7.25 7.25z"/>
 <path class="cls-5" d="m880.41 618.19v14.3a20.62 20.62 0 0 0 3.65 10.76l14.13 18.44m-17.78-23.2-17.78 23.2m0-36.25h35.56"/>
 <path class="cls-8" d="m862.63 609.69a6 6 0 0 1 6-6h23.56a6 6 0 0 1 6 6v68a6 6 0 0 1-6 6h-23.56a6 6 0 0 1-6-6z"/>
 <g data-name="ar">
  <path class="cls-4" d="M866,673.73c-.06,4-2.47,6-6.42,6-3.76,0-6.17-2-6.17-5.8v-9.75h2c.49,5.49-2,13.83,4.13,13.83s3.95-8.21,4.39-13.83h2v9.57" data-name="gS"/>
  <path class="cls-4" d="M876,670.64c-.18-2.1-5.31-2.34-5.37,0,.93,3.27,7.1.74,7.35,5.56s-9.26,4.56-9.69.49l1.72-.31c.25,2.22,6,2.78,6,0-.61-3.46-7-.92-7.28-5.55-.25-3.52,5.06-3.89,7.53-2.6a3.12,3.12,0,0,1,1.48,2.16" data-name="gt"/>
  <path class="cls-4" d="M885,667.49c3.89,0,5.31,2.6,5.19,6.55h-8.33c0,2.47.86,4.13,3.27,4.19a2.86,2.86,0,0,0,3-1.79l1.73.5c-.68,1.73-2.28,2.77-4.75,2.77-3.58,0-5.44-2.28-5.37-6.17S881.31,667.49,885,667.49Zm3.21,5c.37-3.7-4.69-4.75-6-1.73a4.44,4.44,0,0,0-.37,1.73h6.35" data-name="gf"/>
  <path class="cls-4" d="M898.16,669.41c-4.81-1-3.27,5.61-3.52,10.06h-2l-.06-11.73h1.85a15.43,15.43,0,0,0,.12,2.41c.37-1.67,1.42-3,3.58-2.53v1.79" data-name="gj"/>
  <path class="cls-4" d="M906.81,670.64c-.19-2.1-5.31-2.34-5.38,0,.93,3.27,7.1.74,7.35,5.56s-9.26,4.56-9.69.49l1.73-.31c.24,2.22,6,2.78,6,0-.62-3.46-7-.92-7.29-5.55-.24-3.52,5.06-3.89,7.53-2.6a3.16,3.16,0,0,1,1.49,2.16" data-name="gt"/>
 </g>
 <path class="cls-7" d="m258.3 263.57a7.25 7.25 0 1 1-7.25-7.25 7.25 7.25 0 0 1 7.25 7.25z"/>
 <path class="cls-5" d="m251.05 270.82v14.3a20.65 20.65 0 0 0 3.65 10.76l14.13 18.45m-17.78-23.2-17.78 23.2m0-36.25h35.56"/>
 <path class="cls-8" d="m233.27 262.32a6 6 0 0 1 6-6h23.56a6 6 0 0 1 6 6v68a6 6 0 0 1-6 6h-23.56a6 6 0 0 1-6-6z"/>
 <path class="cls-7" d="m198.3 263.57a7.25 7.25 0 1 1-7.25-7.25 7.25 7.25 0 0 1 7.25 7.25z"/>
 <path class="cls-5" d="m191.05 270.82v14.3a20.65 20.65 0 0 0 3.65 10.76l14.13 18.45m-17.78-23.2-17.78 23.2m0-36.25h35.56"/>
 <path class="cls-8" d="m173.27 262.32a6 6 0 0 1 6-6h23.56a6 6 0 0 1 6 6v68a6 6 0 0 1-6 6h-23.56a6 6 0 0 1-6-6z"/>
 <path class="cls-7" d="m227.66 325.07a7.25 7.25 0 1 1-7.25-7.25 7.26 7.26 0 0 1 7.25 7.25z"/>
 <path class="cls-5" d="m220.41 332.32v14.3a20.56 20.56 0 0 0 3.65 10.76l14.13 18.45m-17.78-23.2-17.78 23.2m0-36.25h35.56"/>
 <path class="cls-8" d="m202.63 323.82a6 6 0 0 1 6-6h23.56a6 6 0 0 1 6 6v68a6 6 0 0 1-6 6h-23.56a6 6 0 0 1-6-6z"/>
 <g data-name="ar">
  <path class="cls-4" d="M206,387.86c-.06,4-2.47,6-6.42,6-3.76,0-6.17-2-6.17-5.81v-9.75h2c.49,5.5-2,13.83,4.13,13.83s3.95-8.21,4.39-13.83h2v9.57" data-name="gS"/>
  <path class="cls-4" d="M216,384.77c-.18-2.1-5.31-2.34-5.37,0,.93,3.27,7.1.74,7.35,5.56s-9.26,4.57-9.69.49l1.72-.31c.25,2.23,6,2.78,6.05,0-.61-3.45-7-.92-7.28-5.55-.25-3.52,5.06-3.89,7.53-2.59a3.08,3.08,0,0,1,1.48,2.16" data-name="gt"/>
  <path class="cls-4" d="M225,381.62c3.89,0,5.31,2.6,5.19,6.55h-8.33c0,2.47.86,4.13,3.27,4.2a2.88,2.88,0,0,0,3-1.79l1.73.49c-.68,1.73-2.28,2.78-4.75,2.78-3.58,0-5.44-2.29-5.37-6.18S221.31,381.62,225,381.62Zm3.21,5c.37-3.7-4.69-4.75-6-1.72a4.38,4.38,0,0,0-.37,1.72h6.35" data-name="gf"/>
  <path class="cls-4" d="M238.16,383.54c-4.81-1-3.27,5.62-3.52,10.06h-2l-.06-11.73h1.85a15.43,15.43,0,0,0,.12,2.41c.37-1.67,1.42-3,3.58-2.53v1.79" data-name="gj"/>
  <path class="cls-4" d="M246.81,384.77c-.19-2.1-5.31-2.34-5.38,0,.93,3.27,7.1.74,7.35,5.56s-9.26,4.57-9.69.49l1.73-.31c.24,2.23,6,2.78,6.05,0-.62-3.45-7-.92-7.29-5.55-.24-3.52,5.06-3.89,7.53-2.59a3.12,3.12,0,0,1,1.49,2.16" data-name="gt"/>
 </g>
 <path class="cls-7" d="m257.66 645.47a7.25 7.25 0 1 1-7.25-7.23 7.26 7.26 0 0 1 7.25 7.23z"/>
 <path class="cls-5" d="M250.41,652.73V667a20.62,20.62,0,0,0,3.65,10.76l14.13,18.44M250.41,673l-17.78,23.2m0-36.25h35.56"/>
 <path class="cls-8" d="m232.63 644.23a6 6 0 0 1 6-6h23.56a6 6 0 0 1 6 6v68a6 6 0 0 1-6 6h-23.56a6 6 0 0 1-6-6z"/>
 <path class="cls-7" d="m197.66 645.47a7.25 7.25 0 1 1-7.25-7.23 7.26 7.26 0 0 1 7.25 7.23z"/>
 <path class="cls-5" d="M190.41,652.73V667a20.62,20.62,0,0,0,3.65,10.76l14.13,18.44M190.41,673l-17.78,23.2m0-36.25h35.56"/>
 <path class="cls-8" d="m172.63 644.23a6 6 0 0 1 6-6h23.56a6 6 0 0 1 6 6v68a6 6 0 0 1-6 6h-23.56a6 6 0 0 1-6-6z"/>
 <path class="cls-7" d="M227,707a7.26,7.26,0,1,1-7.27-7.23A7.27,7.27,0,0,1,227,707Z"/>
 <path class="cls-5" d="m219.77 714.23v14.3a20.62 20.62 0 0 0 3.65 10.76l14.12 18.44m-17.78-23.2-17.76 23.2m0-36.25h35.56"/>
 <path class="cls-8" d="M202,705.73a6,6,0,0,1,6-6h23.56a6,6,0,0,1,6,6v68a6,6,0,0,1-6,6H208a6,6,0,0,1-6-6Z"/>
 <g data-name="ar">
  <path class="cls-4" d="M205.36,769.77c-.06,4-2.47,6-6.42,6-3.76,0-6.17-2-6.17-5.8V760.2h2c.49,5.49-2,13.83,4.13,13.83s3.95-8.21,4.38-13.83h2v9.57" data-name="gS"/>
  <path class="cls-4" d="M215.36,766.68c-.18-2.1-5.31-2.34-5.37,0,.93,3.27,7.1.74,7.35,5.56s-9.26,4.56-9.7.49l1.73-.31c.25,2.22,6,2.78,6,0-.61-3.46-7-.92-7.28-5.55-.25-3.52,5.06-3.89,7.53-2.6a3.12,3.12,0,0,1,1.48,2.16" data-name="gt"/>
  <path class="cls-4" d="m224.31 763.53c3.89 0 5.31 2.6 5.19 6.55h-8.34c0 2.47 0.87 4.13 3.27 4.19a2.86 2.86 0 0 0 3-1.79l1.73 0.5c-0.68 1.73-2.29 2.77-4.76 2.77-3.58 0-5.43-2.28-5.37-6.17s1.64-6.05 5.28-6.05zm3.21 5c0.37-3.7-4.69-4.75-6-1.73a4.62 4.62 0 0 0-0.37 1.73h6.36" data-name="gf"/>
  <path class="cls-4" d="m237.52 765.45c-4.81-1-3.27 5.61-3.52 10.06h-2v-11.73h1.85a15.43 15.43 0 0 0 0.12 2.41c0.37-1.67 1.42-3 3.58-2.53v1.79" data-name="gj"/>
  <path class="cls-4" d="M246.16,766.68c-.18-2.1-5.31-2.34-5.37,0,.93,3.27,7.1.74,7.35,5.56s-9.26,4.56-9.69.49l1.73-.31c.24,2.22,6,2.78,6,0-.61-3.46-7-.92-7.28-5.55-.25-3.52,5.06-3.89,7.53-2.6a3.12,3.12,0,0,1,1.48,2.16" data-name="gt"/>
 </g>
 <path class="cls-10" d="m346.83 468.51a6 6 0 0 1 6-6h188a6 6 0 0 1 6 6v86.9a6 6 0 0 1-6 6h-188a6 6 0 0 1-6-6z"/>
 <g id="dJ">
  <path class="cls-4" d="m358.9 497.41v-13.17h9v1.52h-7.11v4.12h6.53v1.51h-6.53v4.5h7.51v1.52h-9.4" data-name="hQ"/>
  <path class="cls-4" d="m376.28 497.41h-1.93l-4.94-13.17h2c1.31 3.85 2.8 7.52 3.94 11.53 1.14-4 2.63-7.68 3.93-11.53h2" data-name="hR"/>
  <path class="cls-4" d="m382.9 497.41v-13.17h9v1.52h-7.11v4.12h6.52v1.51h-6.52v4.5h7.51v1.52h-9.4" data-name="hQ"/>
  <path id="hS" class="cls-4" d="M402.23,495.35a22.13,22.13,0,0,1-.18-2.67v-8.44h1.68v13.17h-2.25l-5.07-11c.07.77.15,1.63.15,2.48v8.55H394.9V484.24h2.17"/>
  <path class="cls-4" d="m412.25 485.76v11.65h-1.86v-11.65h-4.33v-1.52h10.51v1.52h-4.32" data-name="hT"/>
 </g>
 <g id="dK">
  <path id="hU" class="cls-4" d="M435.32,485.44c-1.63,0-2.76.52-2.76,2.08,0,1.79,1.82,1.88,3.26,2.28,2.25.62,4.52,1.18,4.52,4s-2.14,3.78-5.06,3.81-4.67-1.16-5.18-3.5l1.8-.36c.34,1.61,1.46,2.42,3.43,2.4,1.8,0,3.17-.56,3.17-2.32,0-2-2-2.16-3.64-2.6-2.05-.56-4.12-1.08-4.12-3.68s2-3.48,4.59-3.52,4.2,1,4.69,3.17l-1.84.32c-.27-1.38-1.18-2.1-2.86-2.08"/>
  <path class="cls-4" d="m448.25 485.76v11.65h-1.85v-11.65h-4.33v-1.52h10.51v1.52h-4.33" data-name="hT"/>
  <path class="cls-4" d="m464.28 487.88c0 2.2-1.39 3.33-3.36 3.7l3.9 5.83h-2.14l-3.58-5.61h-2.32v5.61h-1.87v-13.17h4.71c2.74 0.03 4.66 0.97 4.66 3.64zm-4.77 2.44c1.77 0 2.89-0.71 2.89-2.41 0-1.46-1-2.18-3-2.18h-2.65v4.59h2.73" data-name="hV"/>
  <path class="cls-4" d="m466.91 497.41v-13.17h9v1.52h-7.11v4.12h6.52v1.51h-6.52v4.5h7.51v1.52h-9.38" data-name="hQ"/>
  <path id="hW" class="cls-4" d="M487.43,497.41l-1.35-3.73h-5.49l-1.34,3.73h-1.92l5-13.17h2.12l4.9,13.17Zm-1.82-5.18c-.76-2.2-1.54-4.37-2.26-6.59-.67,2.26-1.5,4.41-2.27,6.59h4.53"/>
  <path id="hX" class="cls-4" d="M492.12,486c.08,3.73,0,7.61,0,11.41H490.6V484.24h2.31a70,70,0,0,1,2.47,7c.68-2.52,1.65-4.7,2.49-7h2.2v13.17h-1.58c0-3.81-.05-7.69.06-11.41-.74,2.49-1.66,4.76-2.53,7.11h-1.34c-.88-2.34-1.81-4.63-2.56-7.11"/>
  <path id="hY" class="cls-4" d="m503.31 484.24h8v1.52h-3.09v10.13h3.09v1.52h-8v-1.52h3.09v-10.13h-3.09v-1.52"/>
  <path class="cls-4" d="M522.25,495.35a22.13,22.13,0,0,1-.18-2.67v-8.44h1.68v13.17H521.5l-5.07-11c.06.77.15,1.63.15,2.48v8.55h-1.66V484.24h2.17" data-name="hS"/>
  <path id="hZ" class="cls-4" d="M531.74,496.09a4.74,4.74,0,0,0,2.54-.72v-3.28h-2.86v-1.56h4.67v5.58a7.82,7.82,0,0,1-4.51,1.5c-3.79,0-5.13-3-5.13-6.85s1.26-6.73,5.16-6.73a4.37,4.37,0,0,1,4.5,3.23l-1.67.55a2.83,2.83,0,0,0-2.81-2.25c-2.74,0-3.22,2.39-3.22,5.2a7.78,7.78,0,0,0,.82,4,2.75,2.75,0,0,0,2.51,1.35"/>
 </g>
 <g id="dL">
  <path id="ia" class="cls-4" d="m376.31 510.76c0-3.89 1.23-6.73 5-6.73a4.36 4.36 0 0 1 3.7 1.7 8.22 8.22 0 0 1 1.29 5c0 3.11-0.86 5.41-2.91 6.42a5.37 5.37 0 0 1-4.27 0c-2.01-1.02-2.81-3.33-2.81-6.39zm7.32 4c0.92-1.57 0.95-6.41-0.05-7.89a2.65 2.65 0 0 0-4.54 0c-1 1.5-1 6.4 0 7.91a2.57 2.57 0 0 0 2.26 1.34 2.52 2.52 0 0 0 2.32-1.36"/>
  <path id="ib" class="cls-4" d="M393.39,504.24c2.89,0,4.86,1.14,4.86,3.94s-1.89,4.14-4.74,4.21h-2.74v5H388.9V504.24Zm-.14,6.68c1.9,0,3.12-.86,3.12-2.71s-1.26-2.49-3.2-2.48h-2.4v5.19h2.48"/>
  <path class="cls-4" d="m400.9 517.41v-13.17h9v1.52h-7.11v4.12h6.52v1.51h-6.52v4.5h7.51v1.52h-9.4" data-name="hQ"/>
  <path class="cls-4" d="M420.23,515.35a22.13,22.13,0,0,1-.18-2.67v-8.44h1.68v13.17h-2.24l-5.08-11c.07.77.16,1.63.16,2.48v8.55h-1.66V504.24h2.16" data-name="hS"/>
 </g>
 <g id="dM">
  <path class="cls-4" d="M444.23,515.35a24.48,24.48,0,0,1-.17-2.67v-8.44h1.68v13.17h-2.25l-5.08-11c.07.77.16,1.63.16,2.48v8.55h-1.66V504.24h2.17" data-name="hS"/>
  <path class="cls-4" d="m448.91 517.41v-13.17h9v1.52h-7.11v4.12h6.52v1.51h-6.52v4.5h7.51v1.52h-9.38" data-name="hQ"/>
  <path class="cls-4" d="m466.26 505.76v11.65h-1.86v-11.65h-4.33v-1.52h10.51v1.52h-4.32" data-name="hT"/>
  <path id="ic" class="cls-4" d="M481.27,517.41h-2c-.65-2.45-1.33-4.84-1.89-7.38-.57,2.55-1.26,4.94-1.92,7.38h-2l-2.06-13.17h1.85c.47,3.84,1.07,7.54,1.39,11.53.56-2.56,1.25-5,1.92-7.45h1.71c.67,2.45,1.36,4.88,1.92,7.45.36-3.93.9-7.7,1.36-11.53h1.85"/>
  <path class="cls-4" d="m484.33 510.76c0-3.89 1.23-6.73 5-6.73a4.37 4.37 0 0 1 3.7 1.7 8.22 8.22 0 0 1 1.29 5c0 3.11-0.86 5.41-2.91 6.42a5.4 5.4 0 0 1-4.28 0c-2-1.02-2.8-3.33-2.8-6.39zm7.32 4c0.91-1.57 0.94-6.41 0-7.89a2.65 2.65 0 0 0-4.54 0c-1 1.5-1 6.4 0 7.91a2.57 2.57 0 0 0 2.26 1.34 2.52 2.52 0 0 0 2.32-1.36" data-name="ia"/>
  <path class="cls-4" d="m506.28 507.88c0 2.2-1.38 3.33-3.35 3.7l3.9 5.83h-2.15l-3.57-5.61h-2.33v5.61h-1.86v-13.17h4.71c2.74 0.03 4.65 0.97 4.65 3.64zm-4.76 2.44c1.77 0 2.89-0.71 2.89-2.41 0-1.46-1-2.18-3-2.18h-2.66v4.59h2.74" data-name="hV"/>
  <path id="id" class="cls-4" d="m517.13 517.41-4.75-6.23-1.59 1.65v4.58h-1.87v-13.17h1.87v6.57l5.58-6.57h2.2l-4.92 5.58 5.67 7.59h-2.19"/>
 </g>
 <g id="dN">
  <path class="cls-4" d="M405.4,524.24c2.89,0,4.85,1.14,4.85,3.94s-1.89,4.14-4.74,4.21h-2.74v5H400.9V524.24Zm-.15,6.68c1.9,0,3.12-.86,3.12-2.71s-1.26-2.49-3.2-2.48h-2.4v5.19h2.48" data-name="ib"/>
  <path class="cls-4" d="m422.27 527.88c0 2.2-1.39 3.33-3.36 3.7l3.91 5.83h-2.15l-3.57-5.61h-2.33v5.61h-1.86v-13.17h4.7c2.75 0.03 4.66 0.97 4.66 3.64zm-4.76 2.44c1.76 0 2.89-0.71 2.89-2.41 0-1.46-1-2.18-3-2.18h-2.66v4.59h2.74" data-name="hV"/>
  <path class="cls-4" d="m424.32 530.76c0-3.89 1.23-6.73 5-6.73a4.37 4.37 0 0 1 3.7 1.7 8.22 8.22 0 0 1 1.29 5c0 3.11-0.86 5.41-2.91 6.42a5.4 5.4 0 0 1-4.28 0c-2-1.02-2.8-3.33-2.8-6.39zm7.32 4c0.91-1.57 0.94-6.41-0.05-7.89a2.65 2.65 0 0 0-4.54 0c-1 1.5-1 6.4 0 7.91a2.57 2.57 0 0 0 2.26 1.34 2.52 2.52 0 0 0 2.32-1.36" data-name="ia"/>
  <path class="cls-4" d="m442.25 525.76v11.65h-1.85v-11.65h-4.33v-1.52h10.51v1.52h-4.33" data-name="hT"/>
  <path class="cls-4" d="m448.33 530.76c0-3.89 1.23-6.73 5-6.73a4.37 4.37 0 0 1 3.7 1.7 8.22 8.22 0 0 1 1.29 5c0 3.11-0.86 5.41-2.91 6.42a5.4 5.4 0 0 1-4.28 0c-2-1.02-2.8-3.33-2.8-6.39zm7.31 4c0.92-1.57 0.95-6.41-0.05-7.89a2.65 2.65 0 0 0-4.54 0c-1 1.5-1 6.4 0 7.91a2.58 2.58 0 0 0 2.27 1.34 2.51 2.51 0 0 0 2.31-1.36" data-name="ia"/>
  <path id="ie" class="cls-4" d="M465.68,525.56c-2.75,0-3.28,2.38-3.28,5.2s.58,5.33,3.39,5.33c1.83,0,2.56-1.38,3.14-2.75l1.55.63c-.82,1.93-2,3.64-4.71,3.64-3.92,0-5.34-2.88-5.34-6.85s1.32-6.73,5.24-6.73a4.54,4.54,0,0,1,4.55,3.27l-1.64.64c-.46-1.26-1.24-2.38-2.9-2.38"/>
  <path class="cls-4" d="m472.33 530.76c0-3.89 1.23-6.73 5-6.73a4.37 4.37 0 0 1 3.7 1.7 8.22 8.22 0 0 1 1.29 5c0 3.11-0.86 5.41-2.91 6.42a5.4 5.4 0 0 1-4.28 0c-2-1.02-2.8-3.33-2.8-6.39zm7.31 4c0.92-1.57 0.95-6.41 0-7.89a2.66 2.66 0 0 0-4.55 0c-1 1.5-1 6.4 0 7.91a2.58 2.58 0 0 0 2.27 1.34 2.5 2.5 0 0 0 2.31-1.36" data-name="ia"/>
  <path id="if" class="cls-4" d="m485.65 537.41v-13.17h1.87v11.65h6.56v1.52h-8.43"/>
 </g>
</svg>
