<?xml version="1.0" encoding="UTF-8"?>
<svg data-name="Layer 1" version="1.1" viewBox="0 0 944.45 709.61" xmlns="http://www.w3.org/2000/svg">
 <title>Figure5</title>
 <defs>
  <style>.cls-1,.cls-3{fill:#fff;stroke-width:3px;}.cls-1,.cls-4,.cls-5{stroke:#5e5f5f;}.cls-2{fill:#333;}.cls-3{fill-opacity:0;stroke:#010101;stroke-opacity:0;}.cls-4{fill:none;}.cls-4,.cls-5{stroke-width:2px;}.cls-5{fill:#5e5f5f;}</style>
 </defs>
 <path class="cls-1" d="M783,114.11a6,6,0,0,1,6-6H937a6,6,0,0,1,6,6v588a6,6,0,0,1-6,6H789a6,6,0,0,1-6-6Z"/>
 <g id="ax">
  <path id="fx" class="cls-2" d="M837,326.44v5.68h8.52v1.73H837V340h-2V324.71h10.81v1.73H837"/>
  <path id="fy" class="cls-2" d="M848.13,340V323.91h2V340h-2"/>
  <path id="fk" class="cls-2" d="m857.7 328.05c3.83-0.06 5.25 2.28 5.25 6.11s-1.67 6.11-5.31 6.11-5.13-2.41-5.19-6.11c0-4.07 1.73-6.11 5.25-6.11zm-0.06 10.74c2.71 0.06 3.27-1.91 3.27-4.63s-0.49-4.63-3.15-4.63-3.27 2-3.27 4.63 0.62 4.57 3.15 4.63"/>
  <path id="fj" class="cls-2" d="m876.59 340h-2.22l-2.47-10.1-2.53 10.1h-2.23l-3.33-11.73h2l2.4 10.13 2.66-10.13h2.13l2.53 10.13 2.59-10.13h1.88"/>
 </g>
 <g id="ay">
  <path id="fg" class="cls-2" d="M809,366.69l-8.15-13,.06,13h-1.79V351.38h2.41l8.21,13.15-.13-13.15h1.92v15.31H809"/>
  <path id="fo" class="cls-2" d="M822,364.47c-.93,1.29-1.91,2.53-4.2,2.47s-3.58-1.3-3.58-3.52c-.06-3.95,3.89-3.89,7.72-3.89.18-2.16-.56-3.33-2.53-3.33-1.48.06-2.53.43-2.59,1.91l-2-.19c.31-2.28,2-3.21,4.69-3.21s4.44,1.24,4.44,4v5.06c-.06,1.23.44,2,1.73,1.66v1.24C823.72,367.18,821.87,366.5,822,364.47Zm-5.74-1.05a1.87,1.87,0,0,0,2,2c2.54-.19,3.89-1.79,3.71-4.57-2.66.12-5.68-.31-5.68,2.53"/>
  <path id="fD" class="cls-2" d="M838.6,356.26c-4.14.18-2.35,6.48-2.72,10.43H834v-7.47c0-1.79-.31-3.09-2.16-3-4.08.24-2.35,6.42-2.72,10.43h-1.91L827.11,355H829a9.58,9.58,0,0,0,.12,2c.62-2.72,6.11-3.09,6.6,0a3.8,3.8,0,0,1,3.58-2.23c5.25-.12,2.91,7.35,3.4,12h-1.91v-7.47c0-1.79-.31-3-2.16-3"/>
  <path id="fh" class="cls-2" d="m850.26 354.71c3.89 0 5.31 2.6 5.19 6.55h-8.34c0 2.47 0.87 4.13 3.28 4.2a2.88 2.88 0 0 0 3-1.79l1.73 0.49c-0.68 1.73-2.29 2.78-4.75 2.78-3.58 0-5.44-2.29-5.38-6.18s1.63-6.05 5.27-6.05zm3.21 5c0.37-3.7-4.69-4.75-6-1.72a4.57 4.57 0 0 0-0.37 1.72h6.36"/>
  <path id="fv" class="cls-2" d="M864.77,357.86c-.19-2.1-5.31-2.34-5.37,0,.92,3.27,7.1.74,7.34,5.56s-9.26,4.57-9.69.49l1.73-.31c.25,2.23,6,2.78,6.05,0-.62-3.45-7-.92-7.28-5.55-.25-3.52,5.06-3.89,7.53-2.59a3.11,3.11,0,0,1,1.48,2.16"/>
  <path id="fr" class="cls-2" d="M874.64,354.71c3.4.07,4.33,2.54,4.33,6.05s-1,6.05-4.33,6.18a3.8,3.8,0,0,1-3.7-2.1l.06,6.48h-2L869,355h1.91l.12,1.85A3.65,3.65,0,0,1,874.64,354.71Zm-.49,10.75c2.47,0,2.78-2.1,2.78-4.63s-.37-4.51-2.78-4.57c-2.59,0-3.15,2-3.15,4.69s.62,4.51,3.15,4.51"/>
  <path class="cls-2" d="M888.6,364.47c-.93,1.29-1.92,2.53-4.2,2.47s-3.58-1.3-3.58-3.52c-.06-3.95,3.89-3.89,7.71-3.89.19-2.16-.55-3.33-2.53-3.33-1.48.06-2.53.43-2.59,1.91l-2-.19c.31-2.28,2-3.21,4.69-3.21s4.45,1.24,4.45,4v5.06c-.06,1.23.43,2,1.73,1.66v1.24C890.32,367.18,888.47,366.5,888.6,364.47Zm-5.75-1.05a1.87,1.87,0,0,0,2,2c2.53-.19,3.89-1.79,3.7-4.57-2.65.12-5.68-.31-5.68,2.53" data-name="fo"/>
  <path id="fq" class="cls-2" d="M898.16,356.26c-2.47,0-3,2-3,4.5s.56,4.63,3,4.63a2.46,2.46,0,0,0,2.66-2.34l2,.12a4.23,4.23,0,0,1-4.57,3.77c-3.64,0-4.69-2.53-5.06-6.11-.61-5.75,6.24-8.09,9.08-3.95a5.07,5.07,0,0,1,.43,1.35l-2,.19a2.35,2.35,0,0,0-2.53-2.16"/>
  <path class="cls-2" d="m909.52 354.71c3.89 0 5.31 2.6 5.19 6.55h-8.34c0 2.47 0.87 4.13 3.27 4.2a2.89 2.89 0 0 0 3-1.79l1.73 0.49c-0.68 1.73-2.29 2.78-4.76 2.78-3.58 0-5.43-2.29-5.37-6.18s1.64-6.05 5.28-6.05zm3.21 5c0.37-3.7-4.69-4.75-6-1.72a4.57 4.57 0 0 0-0.37 1.72h6.36" data-name="fh"/>
 </g>
 <g id="az">
  <path id="fA" class="cls-2" d="M818.56,393.36l-1.72-4.45h-7l-1.73,4.45H806l6.24-15.31h2.34l6.11,15.31Zm-2.34-6.11-2.9-7.6c-.74,2.78-1.92,5.06-2.84,7.6h5.74"/>
  <path class="cls-2" d="M826.65,382.92c-2.47,0-3,2-3,4.51s.55,4.63,3,4.63a2.47,2.47,0,0,0,2.66-2.35l2,.13a4.23,4.23,0,0,1-4.57,3.76c-3.64,0-4.69-2.53-5.06-6.11-.62-5.74,6.24-8.08,9.07-3.95a5.16,5.16,0,0,1,.44,1.36l-2,.18a2.37,2.37,0,0,0-2.53-2.16" data-name="fq"/>
  <path class="cls-2" d="M837.76,382.92c-2.47,0-3,2-3,4.51s.55,4.63,3,4.63a2.47,2.47,0,0,0,2.66-2.35l2,.13a4.23,4.23,0,0,1-4.57,3.76c-3.64,0-4.69-2.53-5.06-6.11-.62-5.74,6.24-8.08,9.08-3.95a5.54,5.54,0,0,1,.43,1.36l-2,.18a2.36,2.36,0,0,0-2.53-2.16" data-name="fq"/>
  <path class="cls-2" d="M849.12,381.38c3.89,0,5.31,2.59,5.19,6.54H846c0,2.47.87,4.14,3.27,4.2a2.88,2.88,0,0,0,3-1.79l1.73.5c-.68,1.72-2.29,2.77-4.76,2.77-3.58,0-5.43-2.28-5.37-6.17S845.48,381.38,849.12,381.38Zm3.21,5c.37-3.7-4.69-4.75-6-1.73a4.58,4.58,0,0,0-.37,1.73h6.36" data-name="fh"/>
  <path class="cls-2" d="M863.63,384.53c-.19-2.1-5.31-2.35-5.37,0,.92,3.27,7.09.74,7.34,5.55s-9.26,4.57-9.69.5l1.73-.31c.25,2.22,6,2.78,6.05,0-.62-3.46-7-.93-7.29-5.56-.24-3.51,5.07-3.88,7.53-2.59a3.09,3.09,0,0,1,1.49,2.16" data-name="fv"/>
  <path class="cls-2" d="M874.74,384.53c-.19-2.1-5.31-2.35-5.37,0,.92,3.27,7.1.74,7.34,5.55s-9.26,4.57-9.69.5l1.73-.31c.25,2.22,6,2.78,6,0-.62-3.46-7-.93-7.28-5.56-.25-3.51,5.06-3.88,7.53-2.59a3.11,3.11,0,0,1,1.48,2.16" data-name="fv"/>
  <path id="fp" class="cls-2" d="m879 379.1v-1.85h2v1.85zm0 14.26v-11.73h2v11.73h-2"/>
  <path id="fs" class="cls-2" d="M889.61,381.38c5.5-.25,3.28,7.16,3.71,12h-2v-7.47c0-1.92-.49-3-2.41-3-4.44.13-2.71,6.3-3,10.44h-2l-.06-11.73h1.85a10.13,10.13,0,0,0,.13,2,3.91,3.91,0,0,1,3.76-2.22"/>
  <path id="fz" class="cls-2" d="M905.66,381.63c-.61,7.71,2.53,18.08-6.79,16.11a3.52,3.52,0,0,1-2.71-2.66l2-.3c.93,2.9,6.18,2,5.5-1.73V391.2a3.92,3.92,0,0,1-3.77,2.22c-3.33,0-4.2-2.53-4.2-5.93s1-6,4.39-6.05a4,4,0,0,1,3.64,2.16c.06-.61,0-1.42.12-2ZM900.54,392c2.22,0,3.09-2,3.09-4.51s-.87-4.63-3.09-4.63c-2.41,0-2.84,2.1-2.84,4.63s.37,4.51,2.84,4.51"/>
 </g>
 <g id="aA">
  <path class="cls-2" d="m840.14 420-1.73-4.44h-7l-1.7 4.44h-2.16l6.23-15.31h2.35l6.11 15.31zm-2.35-6.11-2.9-7.59c-0.74 2.78-1.91 5.06-2.84 7.59h5.74" data-name="fA"/>
  <path class="cls-2" d="M853.22,408.29c-.61,7.72,2.54,18.09-6.79,16.12a3.52,3.52,0,0,1-2.71-2.66l2-.31c.93,2.9,6.18,2,5.5-1.73v-1.85a3.91,3.91,0,0,1-3.77,2.23c-3.33,0-4.2-2.54-4.2-5.93s1-6,4.39-6.05a4,4,0,0,1,3.64,2.16c.06-.62,0-1.42.12-2Zm-5.12,10.38c2.22,0,3.09-2,3.09-4.51s-.87-4.63-3.09-4.63c-2.41,0-2.84,2.1-2.84,4.63s.37,4.51,2.84,4.51" data-name="fz"/>
  <path class="cls-2" d="m860.82 408.05c3.89 0 5.31 2.59 5.18 6.54h-8.33c0 2.47 0.86 4.14 3.27 4.2a2.86 2.86 0 0 0 3-1.79l1.73 0.49c-0.68 1.73-2.28 2.78-4.75 2.78-3.58 0-5.43-2.28-5.37-6.17s1.62-6.05 5.27-6.05zm3.21 5c0.37-3.71-4.69-4.76-6-1.73a4.39 4.39 0 0 0-0.37 1.73h6.34" data-name="fh"/>
  <path class="cls-2" d="M874.21,408.05c5.5-.25,3.27,7.16,3.71,12h-2v-7.47c0-1.91-.49-3-2.41-3-4.44.12-2.71,6.3-3,10.43h-2l-.06-11.73h1.85a9.5,9.5,0,0,0,.13,2,3.9,3.9,0,0,1,3.76-2.22" data-name="fs"/>
  <path id="fi" class="cls-2" d="M883,417.12c-.13,1.48,1.11,1.79,2.34,1.36V420c-2,.62-4.32.31-4.32-2.41v-7.84h-1.36v-1.42h1.49l.55-2.65H883v2.65h2.16v1.42H883v7.41"/>
 </g>
 <g id="aC">
  <path class="cls-2" d="m830.45 460.52v4.75h7.84v2.47h-7.84v5.62h-3.21v-15.31h11.29v2.47h-8.08" data-name="fV"/>
  <path id="fW" class="cls-2" d="M850.08,473.36l-6.67-11.79c.37,3.58.12,7.9.18,11.79h-2.84V458.05h3.65L851.19,470c-.37-3.58-.13-8-.19-11.91h2.84v15.31h-3.76"/>
  <path class="cls-2" d="m867.55 473.36-1.36-3.89h-5.81l-1.38 3.89h-3.21l5.55-15.31h3.77l5.55 15.31zm-2-6.3-2.22-6.67c-0.62 2.35-1.49 4.45-2.23 6.67h4.45" data-name="fX"/>
  <path class="cls-2" d="m883.53 473.36-1.36-3.89h-5.8l-1.37 3.89h-3.2l5.56-15.31h3.77l5.55 15.31zm-2-6.3-2.23-6.67c-0.61 2.35-1.48 4.45-2.22 6.67h4.45" data-name="fX"/>
 </g>
 <g id="aD">
  <path class="cls-2" d="M832.36,488.79c-.06-2.66-5.8-2.84-6-.19,1.11,4.08,9.32.62,9.51,7,.18,5.86-10.19,5.74-12.59,2.22a4.42,4.42,0,0,1-.74-1.85l3.08-.49c.19,2.84,6.92,3.45,7.16.31-1-4.26-9.26-.62-9.5-7-.25-5.37,9.44-5.43,11.6-2.16a5.31,5.31,0,0,1,.62,1.73" data-name="fY"/>
  <path class="cls-2" d="M848.16,497.06a5,5,0,0,1-5.06,3.21c-3.7-.12-5.49-2.28-5.49-6.17s1.85-6.05,5.55-6.05,5.13,2.78,5.19,6.66h-7.53c0,1.92.49,3.4,2.4,3.46a1.89,1.89,0,0,0,2.1-1.36Zm-2.78-4.26c.31-2.84-3.51-3.89-4.32-1.3a4.24,4.24,0,0,0-.24,1.3h4.56" data-name="fZ"/>
  <path id="ga" class="cls-2" d="M857.42,490.76c-2.41-.74-3.7.81-3.7,3.52V500h-3.09l-.06-11.73h2.9a14.58,14.58,0,0,0,.19,2.47c.37-1.72,1.66-3.27,3.76-2.53v2.53"/>
  <path id="gb" class="cls-2" d="M865.63,500H862l-4.2-11.73h3.27l2.78,9.26,3-9.26H870"/>
  <path class="cls-2" d="M881.5,497.06a5,5,0,0,1-5.07,3.21c-3.7-.12-5.49-2.28-5.49-6.17s1.85-6.05,5.56-6.05,5.12,2.78,5.18,6.66h-7.53c0,1.92.49,3.4,2.41,3.46a1.9,1.9,0,0,0,2.1-1.36Zm-2.78-4.26c.31-2.84-3.52-3.89-4.32-1.3a4,4,0,0,0-.25,1.3h4.57" data-name="fZ"/>
  <path class="cls-2" d="M890.75,490.76c-2.4-.74-3.7.81-3.7,3.52V500H884l-.06-11.73h2.9a15.69,15.69,0,0,0,.19,2.47c.37-1.72,1.67-3.27,3.76-2.53v2.53" data-name="ga"/>
 </g>
 <path class="cls-3" d="m153.44 7.5a6 6 0 0 1 6-6h628a6 6 0 0 1 6 6v66a6 6 0 0 1-6 6h-628a6 6 0 0 1-6-6z"/>
 <g id="bP">
  <path class="cls-2" d="M166.18,28.29V35h11V38.4h-11v7.87h-4.5V24.83H177.5v3.46H166.18" data-name="fV"/>
  <path id="gf" class="cls-2" d="M180.69,46.27V23.71H185V46.27h-4.32"/>
  <path id="ge" class="cls-2" d="m196.68 29.5c5.53 0 8.3 3.11 8.3 8.56s-3 8.55-8.38 8.55-8.21-3.11-8.21-8.55 2.93-8.56 8.29-8.56zm-0.08 14.17c3 0 3.88-2.42 3.88-5.61 0-3.46-0.86-5.62-3.71-5.62s-3.89 2.25-3.89 5.62c0 3.11 0.86 5.61 3.72 5.61"/>
  <path id="gh" class="cls-2" d="M226.06,46.27h-4.49l-3.37-13.4-3.46,13.4h-4.49L206,29.85h4l2.77,12.53c.77-4.5,2.07-8.39,3.11-12.53h4.58l3.19,12.53,2.77-12.53h4"/>
 </g>
 <g id="bQ">
  <path class="cls-2" d="M254.06,46.27l-9.33-16.51c.52,5,.17,11.06.26,16.51h-4V24.83h5.1l9.51,16.68c-.52-5-.17-11.14-.26-16.68h4V46.27h-5.28" data-name="fW"/>
  <path id="gp" class="cls-2" d="M272.82,43.33c-1.39,1.64-2.6,3.37-5.53,3.28-3.2-.08-5-1.73-5-5-.08-5.19,4.76-5.44,10-5.27.08-2.25-.26-4.06-2.42-4.06a2.23,2.23,0,0,0-2.42,2.33L263,34.43c.6-3.29,3.11-5,7.08-4.93s6.4,1.9,6.48,5.88l.09,7.08c-.09,1.21,1,1.56,2.16,1.3v2.33C276.19,46.78,272.64,46.53,272.82,43.33Zm-4.15.26c2.5,0,3.71-2.08,3.63-4.93-2.77,0-5.71-.26-5.62,2.59,0,1.47.69,2.34,2,2.34"/>
  <path id="gt" class="cls-2" d="M297.62,32.7c-4.58.78-2.42,8.64-2.94,13.57h-4.23V37c.08-2.33-.44-4.24-2.51-4.32-4.58.86-2.33,8.64-2.85,13.57h-4.32l-.09-16.42h4.06c.18,1-.08,2.42.26,3.28.87-4.58,8.73-4.84,9.34,0,1.12-1.9,2.07-3.72,5.09-3.63,7.09.09,4.41,10,4.93,16.77h-4.23V37c-.09-2.16-.44-4.15-2.51-4.32"/>
  <path class="cls-2" d="M322.25,42.12a6.94,6.94,0,0,1-7.09,4.49c-5.18-.17-7.69-3.2-7.69-8.64s2.59-8.47,7.78-8.47c5.36,0,7.17,3.89,7.26,9.33H312c0,2.68.69,4.76,3.37,4.84,1.55,0,2.59-.6,2.93-1.9Zm-3.89-6c.43-4-4.93-5.45-6.05-1.82a5.73,5.73,0,0,0-.34,1.82h6.39" data-name="fZ"/>
  <path id="gd" class="cls-2" d="M335.38,34.34c.09-2.51-6-2.94-6.13-.35,1.3,4,10.2.61,10.28,7.44.09,7.17-14.17,6.56-14.86.77l3.71-.6c.35,1.64,1.73,2.16,3.81,2.16,2.85.69,4.92-2.59,2.07-3.54-3.71-1.21-8.81-.95-9-5.71-.17-6.91,13.31-6.39,13.92-.6"/>
  <path id="gn" class="cls-2" d="M352.5,29.5c4.58,0,6.05,3.8,6.05,8.47,0,4.84-1.65,8.47-6.31,8.64-2.68.09-3.89-1.47-5.1-2.94.26,2.86.17,6,.17,9.08H343l-.09-22.9h4.15a23,23,0,0,0,.26,2.68C348.26,30.45,349.82,29.5,352.5,29.5Zm-1.82,14.17c2.85,0,3.37-2.68,3.46-5.7,0-3.28-.78-5.53-3.46-5.53-4.84,0-4.75,11.23,0,11.23"/>
  <path class="cls-2" d="M371.25,43.33c-1.38,1.64-2.59,3.37-5.53,3.28-3.2-.08-5-1.73-5-5-.09-5.19,4.75-5.44,10-5.27.09-2.25-.26-4.06-2.42-4.06a2.24,2.24,0,0,0-2.42,2.33l-4.49-.17c.6-3.29,3.11-5,7.08-4.93s6.4,1.9,6.49,5.88l.08,7.08c-.08,1.21,1,1.56,2.16,1.3v2.33C374.62,46.78,371.08,46.53,371.25,43.33Zm-4.15.26c2.51,0,3.72-2.08,3.63-4.93-2.76,0-5.7-.26-5.62,2.59,0,1.47.69,2.34,2,2.34" data-name="gp"/>
  <path id="gv" class="cls-2" d="M393.46,40.82c-.61,3.63-3.28,5.79-7.43,5.79-5.1,0-7.26-3.28-7.78-8.47-1-9.5,13.31-11.84,15-3.11l-4.24.17a2.89,2.89,0,0,0-3-2.76c-2.6,0-3,2.42-3.29,5.53-.52,6.4,5.62,7.52,6.4,2.59"/>
  <path class="cls-2" d="M410.31,42.12a6.94,6.94,0,0,1-7.09,4.49c-5.18-.17-7.69-3.2-7.69-8.64s2.6-8.47,7.78-8.47c5.36,0,7.17,3.89,7.26,9.33H400c0,2.68.69,4.76,3.37,4.84,1.55,0,2.59-.6,2.94-1.9Zm-3.89-6c.43-4-4.92-5.45-6.05-1.82a5.73,5.73,0,0,0-.34,1.82h6.39" data-name="fZ"/>
 </g>
 <g id="bR">
  <path class="cls-2" d="M437.45,46.27l-1.9-5.45h-8.13l-1.9,5.45H421l7.77-21.44h5.28l7.77,21.44Zm-2.86-8.82-3.11-9.33c-.86,3.28-2.07,6.22-3.11,9.33h6.22" data-name="fX"/>
  <path class="cls-2" d="M459.05,40.82c-.6,3.63-3.28,5.79-7.43,5.79-5.1,0-7.26-3.28-7.78-8.47-1-9.5,13.31-11.84,15-3.11l-4.24.17a2.89,2.89,0,0,0-3-2.76c-2.59,0-3,2.42-3.28,5.53-.52,6.4,5.61,7.52,6.39,2.59" data-name="gv"/>
  <path class="cls-2" d="M476.34,40.82c-.61,3.63-3.29,5.79-7.44,5.79-5.1,0-7.26-3.28-7.77-8.47-1-9.5,13.3-11.84,15-3.11l-4.23.17a2.9,2.9,0,0,0-3-2.76c-2.59,0-3,2.42-3.28,5.53-.52,6.4,5.62,7.52,6.39,2.59" data-name="gv"/>
  <path class="cls-2" d="M493.19,42.12a6.94,6.94,0,0,1-7.09,4.49c-5.18-.17-7.69-3.2-7.69-8.64s2.59-8.47,7.78-8.47c5.36,0,7.17,3.89,7.26,9.33H482.9c0,2.68.69,4.76,3.37,4.84,1.56,0,2.6-.6,2.94-1.9Zm-3.89-6c.43-4-4.93-5.45-6.05-1.82a5.72,5.72,0,0,0-.35,1.82h6.4" data-name="fZ"/>
  <path class="cls-2" d="M506.32,34.34c.09-2.51-6.05-2.94-6.13-.35,1.29,4,10.19.61,10.28,7.44.09,7.17-14.17,6.56-14.86.77l3.71-.6c.35,1.64,1.73,2.16,3.81,2.16,2.85.69,4.92-2.59,2.07-3.54-3.72-1.21-8.82-.95-9-5.71-.17-6.91,13.31-6.39,13.92-.6" data-name="gd"/>
  <path class="cls-2" d="M523.61,34.34c.08-2.51-6.05-2.94-6.14-.35,1.3,4,10.2.61,10.29,7.44.08,7.17-14.18,6.56-14.87.77l3.72-.6c.34,1.64,1.73,2.16,3.8,2.16,2.85.69,4.93-2.59,2.07-3.54-3.71-1.21-8.81-.95-9-5.71-.18-6.91,13.3-6.39,13.91-.6" data-name="gd"/>
  <path id="gl" class="cls-2" d="M531.21,26.91v-3.2h4.32v3.2Zm0,19.36V29.85h4.32V46.27h-4.32"/>
  <path id="gq" class="cls-2" d="M549.36,29.5c7.52-.09,5,9.77,5.44,16.77h-4.32c-.6-4.93,2-13.57-2.93-13.57-5.1,0-2.94,8.38-3.38,13.57h-4.32l-.08-16.42h4.06c.17,1-.09,2.42.26,3.28,1-2.25,2.42-3.54,5.27-3.63"/>
  <path id="gk" class="cls-2" d="M573.47,45.75c.95,7.6-10.37,9.16-14.17,4.49a5.5,5.5,0,0,1-.69-1.81l4.23-.52c.26,1.38,1.38,2.07,2.94,2.16,3.46,0,3.63-3.2,3.46-6.83a5.37,5.37,0,0,1-5.27,3c-4.59,0-6.05-3.72-6.05-8.39,0-4.84,1.55-8.29,6.3-8.38a5.57,5.57,0,0,1,5.1,2.94l.18-2.59h4.06Zm-7.78-2.51c2.77,0,3.55-2.33,3.55-5.44s-.78-5.36-3.46-5.36-3.37,2.51-3.46,5.44c0,3.11.78,5.36,3.37,5.36"/>
 </g>
 <g id="bS">
  <path class="cls-2" d="M601.39,46.27l-1.91-5.45h-8.12l-1.9,5.45H585l7.77-21.44H598l7.78,21.44Zm-2.86-8.82-3.11-9.33c-.86,3.28-2.07,6.22-3.11,9.33h6.22" data-name="fX"/>
  <path class="cls-2" d="M623.42,45.75c1,7.6-10.37,9.16-14.17,4.49a5.5,5.5,0,0,1-.69-1.81l4.23-.52c.26,1.38,1.39,2.07,2.94,2.16,3.46,0,3.63-3.2,3.46-6.83a5.37,5.37,0,0,1-5.27,3c-4.58,0-6-3.72-6-8.39,0-4.84,1.55-8.29,6.31-8.38a5.56,5.56,0,0,1,5.09,2.94l.18-2.59h4.06Zm-7.78-2.51c2.77,0,3.55-2.33,3.55-5.44s-.78-5.36-3.46-5.36-3.37,2.51-3.46,5.44c0,3.11.78,5.36,3.37,5.36" data-name="gk"/>
  <path class="cls-2" d="M641.48,42.12a6.92,6.92,0,0,1-7.08,4.49c-5.19-.17-7.69-3.2-7.69-8.64s2.59-8.47,7.77-8.47c5.36,0,7.18,3.89,7.26,9.33H631.2c0,2.68.69,4.76,3.37,4.84,1.56,0,2.59-.6,2.94-1.9Zm-3.89-6c.44-4-4.92-5.45-6-1.82a5.45,5.45,0,0,0-.35,1.82h6.39" data-name="fZ"/>
  <path class="cls-2" d="M654.45,29.5c7.52-.09,5,9.77,5.44,16.77h-4.32c-.6-4.93,2-13.57-2.94-13.57-5.1,0-2.94,8.38-3.37,13.57h-4.32l-.09-16.42h4.07c.17,1-.09,2.42.26,3.28,1-2.25,2.41-3.54,5.27-3.63" data-name="gq"/>
  <path id="gm" class="cls-2" d="M671.64,46c-3.11,1.21-7.51.6-7.51-3.63V32.7h-2.08V29.85h2.34L665.68,26h2.68v3.89h3.11V32.7h-3.11v8.55c-.09,2,1.38,2.68,3.28,2.16V46"/>
 </g>
 <g id="bT">
  <path class="cls-2" d="M686.42,38.23A23.85,23.85,0,0,0,691,52.75h-4.32a24.21,24.21,0,0,1-4.49-14.52,24.21,24.21,0,0,1,4.49-14.52H691a23.13,23.13,0,0,0-4.58,14.52" data-name="gF"/>
  <path class="cls-2" d="M697.48,28.29V35h11V38.4h-11v7.87H693V24.83H708.8v3.46H697.48" data-name="fV"/>
  <path class="cls-2" d="M725,46.27l-9.34-16.51c.52,5,.17,11.06.26,16.51h-4V24.83H717l9.51,16.68c-.52-5-.17-11.14-.26-16.68h4V46.27H725" data-name="fW"/>
  <path class="cls-2" d="M749.42,46.27l-1.9-5.45H739.4l-1.9,5.45H733l7.78-21.44h5.27l7.78,21.44Zm-2.85-8.82-3.11-9.33c-.87,3.28-2.08,6.22-3.11,9.33h6.22" data-name="fX"/>
  <path class="cls-2" d="m771.8 46.27-1.9-5.45h-8.12l-1.9 5.45h-4.5l7.78-21.44h5.27l7.78 21.44zm-2.8-8.82-3.11-9.33c-0.86 3.28-2.07 6.22-3.11 9.33h6.22" data-name="fX"/>
  <path id="gG" class="cls-2" d="M785.8,38.23a24.42,24.42,0,0,1-4.49,14.52H777c2.59-4,4.67-8,4.58-14.52A23.82,23.82,0,0,0,777,23.71h4.32a24.4,24.4,0,0,1,4.49,14.52"/>
 </g>
 <path class="cls-4" d="m185.5 254.81h556m-556 0h-1"/>
 <path class="cls-5" d="m756.76 254.81-14.27 4.64v-9.26z"/>
 <g id="bK">
  <path id="gr" class="cls-2" d="M427.31,237.53c0,2.62,1,4.3,3.6,4.35a3.24,3.24,0,0,0,3.21-2.33l2.22.84a5.36,5.36,0,0,1-5.43,3.51c-4.05,0-5.92-2.27-6.17-6.37-.35-5.43,5.38-7.7,9.68-5.28a4.21,4.21,0,0,1,1.78,2.47l-2.28.59a3,3,0,0,0-3.06-2c-2.56,0-3.5,1.68-3.55,4.25"/>
  <path id="gc" class="cls-2" d="m448.64 235.11a3.35 3.35 0 0 1-2.67 3.46l3.31 5.13h-2.91l-2.82-4.64h-3v4.64h-2.55v-12.24c4.57 0.19 10.69-1.14 10.64 3.65zm-8.1 2c2.37-0.1 5.53 0.59 5.53-1.88s-3.26-1.58-5.53-1.73v3.61"/>
  <path id="gi" class="cls-2" d="M461.33,239c0,3.41-2.17,4.89-5.48,4.89s-5.18-1.43-5.18-4.79v-7.65h2.51v7.45a2.58,2.58,0,0,0,2.72,3c4.44.05,2.42-6.42,2.86-10.42h2.57V239"/>
  <path id="gx" class="cls-2" d="M463.55,231.46c5.93-.35,11,.24,10.92,6-.05,4-2.17,6.22-6,6.22h-4.94Zm2.57,10.27c3.66.34,5.78-.89,5.78-4.25s-2.22-4.34-5.78-4v8.3"/>
 </g>
 <g id="aV">
  <path class="cls-2" d="m483.85 233.43v3.8h6.27v2h-6.27v4.49h-2.57v-12.26h9v2h-6.47" data-name="fV"/>
  <path class="cls-2" d="m492.15 243.7v-12.89h2.47v12.89h-2.47" data-name="gf"/>
  <path class="cls-2" d="m501.28 234.12c3.16 0 4.74 1.78 4.74 4.89s-1.72 4.89-4.79 4.89-4.69-1.78-4.69-4.89 1.68-4.89 4.74-4.89zm0 8.1c1.73 0 2.23-1.38 2.23-3.21s-0.5-3.21-2.13-3.21-2.22 1.29-2.22 3.21 0.49 3.21 2.12 3.21" data-name="ge"/>
  <path class="cls-2" d="M518.07,243.7h-2.56l-1.93-7.65-2,7.65H509l-2.42-9.38h2.27l1.58,7.16c.44-2.57,1.18-4.79,1.78-7.16h2.61l1.83,7.16,1.58-7.16h2.27" data-name="gh"/>
 </g>
 <path class="cls-4" d="m185.5 293.64h556m-556 0h-1"/>
 <path class="cls-5" d="M756.76,293.64l-14.27,4.63V289Z"/>
 <g data-name="bk">
  <path class="cls-2" d="m430.07 282.52v-12.25h2.57v10.27h6.57v2h-9.14" data-name="gA"/>
  <path class="cls-2" d="m440.94 271.46v-1.83h2.47v1.83zm0 11.06v-9.38h2.47v9.38h-2.47" data-name="gl"/>
  <path class="cls-2" d="M451.41,275.7c0-1.43-3.46-1.67-3.51-.19.74,2.27,5.83.34,5.88,4.24.05,4.1-8.1,3.76-8.5.45l2.13-.35c.19.94,1,1.24,2.17,1.24,1.63.39,2.81-1.48,1.18-2-2.12-.69-5-.54-5.13-3.26-.1-3.95,7.6-3.65,7.95-.34" data-name="gd"/>
  <path class="cls-2" d="M460.2,282.37c-1.78.69-4.3.35-4.3-2.07v-5.53h-1.19v-1.63h1.34l.74-2.23h1.53v2.23h1.78v1.63h-1.78v4.88c-.05,1.14.79,1.54,1.88,1.24v1.48" data-name="gm"/>
 </g>
 <g id="bW">
  <path class="cls-2" d="m469.09 272.25v3.8h6.27v2h-6.27v4.49h-2.57v-12.27h9v2h-6.46" data-name="fV"/>
  <path class="cls-2" d="m477.38 282.52v-12.89h2.47v12.89h-2.47" data-name="gf"/>
  <path class="cls-2" d="m486.52 272.94c3.16 0 4.74 1.78 4.74 4.89s-1.73 4.89-4.79 4.89-4.69-1.78-4.69-4.89 1.68-4.89 4.74-4.89zm0 8.1c1.73 0 2.22-1.39 2.22-3.21 0-2-0.49-3.21-2.12-3.21s-2.23 1.28-2.23 3.21 0.5 3.21 2.13 3.21" data-name="ge"/>
  <path class="cls-2" d="M503.31,282.52h-2.57l-1.93-7.66-2,7.66h-2.57l-2.42-9.38h2.27l1.58,7.16c.45-2.57,1.19-4.79,1.78-7.16h2.62l1.82,7.16,1.58-7.16h2.28" data-name="gh"/>
  <path class="cls-2" d="M512.49,275.7c0-1.43-3.45-1.67-3.5-.19.74,2.27,5.82.34,5.87,4.24,0,4.1-8.1,3.76-8.49.45l2.12-.35c.2.94,1,1.24,2.18,1.24,1.62.39,2.81-1.48,1.18-2-2.12-.69-5-.54-5.14-3.26-.09-3.95,7.61-3.65,8-.34" data-name="gd"/>
 </g>
 <path class="cls-4" d="m182.5 176.56h559m-559 0h-1"/>
 <path class="cls-5" d="m756.76 176.56-14.27 4.64v-9.27z"/>
 <g data-name="bK">
  <path class="cls-2" d="M396.67,159.28c0,2.62,1,4.3,3.61,4.35a3.27,3.27,0,0,0,3.21-2.33l2.22.84a5.37,5.37,0,0,1-5.43,3.51c-4,0-5.93-2.27-6.18-6.37-.34-5.43,5.39-7.7,9.68-5.28a4.17,4.17,0,0,1,1.78,2.46l-2.27.6a3,3,0,0,0-3.06-2c-2.57,0-3.51,1.68-3.56,4.25" data-name="gr"/>
  <path class="cls-2" d="m418 156.86a3.37 3.37 0 0 1-2.67 3.46l3.31 5.13h-2.92l-2.81-4.64h-3v4.64h-2.57v-12.24c4.59 0.19 10.71-1.14 10.66 3.65zm-8.1 2c2.37-0.09 5.53 0.6 5.53-1.87s-3.26-1.58-5.53-1.73v3.6" data-name="gc"/>
  <path class="cls-2" d="m430.7 160.76c0 3.41-2.18 4.89-5.48 4.89s-5.19-1.43-5.19-4.79v-7.65h2.52v7.45a2.57 2.57 0 0 0 2.71 3c4.45 0 2.42-6.42 2.87-10.42h2.57v7.55" data-name="gi"/>
  <path class="cls-2" d="M432.92,153.21c5.92-.35,11,.24,10.91,6-.05,4-2.17,6.22-6,6.22h-4.94Zm2.57,10.27c3.65.34,5.77-.89,5.77-4.25s-2.22-4.35-5.77-4v8.3" data-name="gx"/>
 </g>
 <g id="dM">
  <path class="cls-2" d="M458.1,165.45,452.77,156c.3,2.86.1,6.32.15,9.43h-2.27V153.21h2.91l5.43,9.53c-.29-2.87-.1-6.37-.15-9.53h2.28v12.24h-3" data-name="fW"/>
  <path class="cls-2" d="M468.82,163.77c-.79.94-1.48,1.93-3.16,1.88a2.6,2.6,0,0,1-2.86-2.86c-.05-3,2.71-3.12,5.72-3,.05-1.28-.14-2.32-1.38-2.32a1.29,1.29,0,0,0-1.38,1.34l-2.57-.1c.35-1.88,1.78-2.87,4.05-2.82s3.65,1.09,3.7,3.36l.05,4.05c-.05.69.6.89,1.24.74v1.33C470.75,165.75,468.72,165.6,468.82,163.77Zm-2.37.15c1.43,0,2.12-1.18,2.07-2.81-1.58,0-3.26-.15-3.21,1.48,0,.84.4,1.33,1.14,1.33" data-name="gp"/>
  <path class="cls-2" d="M483,157.7c-2.61.44-1.38,4.94-1.68,7.75h-2.42v-5.28c.05-1.34-.24-2.42-1.43-2.47-2.62.49-1.33,4.94-1.63,7.75h-2.47l-.05-9.38h2.32a12.24,12.24,0,0,0,.15,1.88c.5-2.62,5-2.77,5.34,0,.64-1.09,1.18-2.13,2.91-2.08,4.05,0,2.52,5.73,2.81,9.58h-2.42v-5.28c0-1.24-.24-2.37-1.43-2.47" data-name="gt"/>
  <path class="cls-2" d="M497.07,163.08a4,4,0,0,1-4.05,2.57c-3-.1-4.4-1.83-4.4-4.94s1.48-4.84,4.45-4.84,4.1,2.22,4.15,5.34h-6c0,1.53.4,2.71,1.93,2.76a1.51,1.51,0,0,0,1.68-1.09Zm-2.23-3.41c.25-2.27-2.81-3.11-3.45-1a3.14,3.14,0,0,0-.2,1h3.65" data-name="fZ"/>
  <path class="cls-2" d="M504.57,158.64c.05-1.43-3.45-1.68-3.5-.2.74,2.27,5.82.35,5.87,4.25.05,4.1-8.1,3.75-8.49.44l2.12-.34c.2.93,1,1.23,2.18,1.23,1.63.4,2.81-1.48,1.18-2-2.12-.7-5-.55-5.13-3.26-.1-4,7.6-3.66,7.95-.35" data-name="gd"/>
  <path class="cls-2" d="M514.35,155.87c2.62,0,3.46,2.17,3.46,4.84s-.94,4.84-3.61,4.94a3.37,3.37,0,0,1-2.91-1.68c.15,1.63.1,3.41.1,5.19h-2.47l-.05-13.09h2.37a13.22,13.22,0,0,0,.15,1.53A2.86,2.86,0,0,1,514.35,155.87Zm-1,8.1c1.63,0,1.93-1.53,2-3.26,0-1.88-.45-3.16-2-3.16-2.76,0-2.71,6.42,0,6.42" data-name="gn"/>
  <path class="cls-2" d="M525.07,163.77c-.79.94-1.48,1.93-3.16,1.88a2.6,2.6,0,0,1-2.87-2.86c0-3,2.72-3.12,5.73-3,.05-1.28-.15-2.32-1.38-2.32a1.28,1.28,0,0,0-1.38,1.34l-2.57-.1c.34-1.88,1.78-2.87,4-2.82s3.65,1.09,3.7,3.36l0,4.05c0,.69.59.89,1.23.74v1.33C527,165.75,525,165.6,525.07,163.77Zm-2.37.15c1.43,0,2.12-1.18,2.07-2.81-1.58,0-3.26-.15-3.21,1.48,0,.84.4,1.33,1.14,1.33" data-name="gp"/>
  <path class="cls-2" d="M537.76,162.34c-.35,2.08-1.88,3.31-4.25,3.31-2.91,0-4.15-1.88-4.44-4.84-.6-5.43,7.6-6.77,8.59-1.78l-2.42.1a1.66,1.66,0,0,0-1.73-1.58c-1.48,0-1.73,1.38-1.88,3.16-.29,3.66,3.21,4.3,3.66,1.48" data-name="gv"/>
  <path class="cls-2" d="M547.39,163.08a4,4,0,0,1-4,2.57c-3-.1-4.4-1.83-4.4-4.94s1.48-4.84,4.45-4.84,4.1,2.22,4.15,5.34h-6c0,1.53.4,2.71,1.93,2.76a1.51,1.51,0,0,0,1.68-1.09Zm-2.22-3.41c.24-2.27-2.82-3.11-3.46-1a3.14,3.14,0,0,0-.2,1h3.66" data-name="fZ"/>
 </g>
 <path class="cls-4" d="m182.5 216.74h559m-559 0h-1"/>
 <path class="cls-5" d="m756.76 216.74-14.27 4.63v-9.27z"/>
 <g data-name="bk">
  <path class="cls-2" d="m404.38 205.62v-12.25h2.56v10.27h6.57v2h-9.13" data-name="gA"/>
  <path class="cls-2" d="m415.24 194.56v-1.83h2.47v1.83zm0 11.06v-9.38h2.47v9.38h-2.47" data-name="gl"/>
  <path class="cls-2" d="M425.71,198.8c.05-1.43-3.46-1.67-3.51-.19.74,2.27,5.83.34,5.88,4.24.05,4.1-8.1,3.76-8.49.45l2.12-.35c.2.94,1,1.24,2.17,1.24,1.63.39,2.82-1.48,1.19-2-2.13-.69-5-.54-5.14-3.26-.1-4,7.61-3.65,7.95-.34" data-name="gd"/>
  <path class="cls-2" d="M434.5,205.47c-1.78.69-4.3.35-4.3-2.07v-5.53H429v-1.63h1.33l.74-2.23h1.53v2.23h1.78v1.63h-1.78v4.89c-.05,1.13.79,1.53,1.88,1.23v1.48" data-name="gm"/>
 </g>
 <g data-name="dM">
  <path class="cls-2" d="M448.28,205.62l-5.34-9.43c.3,2.86.1,6.32.15,9.43h-2.27V193.37h2.91l5.44,9.53c-.3-2.86-.1-6.37-.15-9.53h2.27v12.25h-3" data-name="fW"/>
  <path class="cls-2" d="M459,203.94c-.79.94-1.48,1.93-3.16,1.88A2.6,2.6,0,0,1,453,203c-.05-3,2.71-3.11,5.73-3,.05-1.28-.15-2.32-1.39-2.32a1.28,1.28,0,0,0-1.38,1.33l-2.57-.1c.35-1.87,1.78-2.86,4.05-2.81s3.66,1.09,3.71,3.36l.05,4c-.05.69.59.89,1.23.74v1.33C460.92,205.92,458.89,205.77,459,203.94Zm-2.37.15c1.43,0,2.13-1.19,2.08-2.82-1.58,0-3.26-.14-3.21,1.49,0,.84.39,1.33,1.13,1.33" data-name="gp"/>
  <path class="cls-2" d="M473.17,197.87c-2.62.44-1.39,4.93-1.68,7.75h-2.42v-5.28c.05-1.34-.25-2.42-1.44-2.47-2.61.49-1.33,4.93-1.62,7.75h-2.47l-.05-9.38h2.32a10.9,10.9,0,0,0,.15,1.87c.49-2.61,5-2.76,5.33,0,.64-1.08,1.18-2.12,2.91-2.07,4.05.05,2.52,5.73,2.82,9.58H474.6v-5.28c-.05-1.24-.25-2.37-1.43-2.47" data-name="gt"/>
  <path class="cls-2" d="M487.24,203.25a4,4,0,0,1-4.05,2.57c-3-.1-4.39-1.83-4.39-4.94s1.48-4.84,4.44-4.84,4.1,2.22,4.15,5.33h-6c0,1.53.4,2.72,1.93,2.77a1.52,1.52,0,0,0,1.68-1.09ZM485,199.84c.24-2.27-2.82-3.11-3.46-1a3.26,3.26,0,0,0-.2,1H485" data-name="fZ"/>
  <path class="cls-2" d="M494.75,198.8c.05-1.43-3.46-1.67-3.51-.19.74,2.27,5.83.34,5.88,4.24.05,4.1-8.1,3.76-8.5.45l2.13-.35c.19.94,1,1.24,2.17,1.24,1.63.39,2.81-1.48,1.18-2-2.12-.69-5-.54-5.13-3.26-.1-4,7.6-3.65,7.95-.34" data-name="gd"/>
  <path class="cls-2" d="M504.52,196c2.62,0,3.46,2.17,3.46,4.84s-.94,4.84-3.6,4.94a3.38,3.38,0,0,1-2.92-1.68c.15,1.63.1,3.41.1,5.18h-2.47l0-13.08h2.37a13.44,13.44,0,0,0,.15,1.53A2.85,2.85,0,0,1,504.52,196Zm-1,8.1c1.63,0,1.92-1.53,2-3.26s-.44-3.16-2-3.16c-2.77,0-2.72,6.42,0,6.42" data-name="gn"/>
  <path class="cls-2" d="M515.24,203.94c-.79.94-1.48,1.93-3.16,1.88a2.6,2.6,0,0,1-2.86-2.87c-.05-3,2.71-3.11,5.72-3,0-1.28-.14-2.32-1.38-2.32a1.28,1.28,0,0,0-1.38,1.33l-2.57-.1c.35-1.87,1.78-2.86,4-2.81s3.65,1.09,3.7,3.36l0,4c0,.69.6.89,1.24.74v1.33C517.17,205.92,515.14,205.77,515.24,203.94Zm-2.37.15c1.43,0,2.12-1.19,2.07-2.82-1.58,0-3.26-.14-3.21,1.49,0,.84.4,1.33,1.14,1.33" data-name="gp"/>
  <path class="cls-2" d="M527.93,202.51c-.34,2.07-1.88,3.31-4.25,3.31-2.91,0-4.14-1.88-4.44-4.84-.59-5.43,7.6-6.77,8.59-1.78l-2.42.1a1.66,1.66,0,0,0-1.73-1.58c-1.48,0-1.72,1.38-1.87,3.16-.3,3.65,3.21,4.3,3.65,1.48" data-name="gv"/>
  <path class="cls-2" d="M537.56,203.25a4,4,0,0,1-4,2.57c-3-.1-4.39-1.83-4.39-4.94s1.48-4.84,4.44-4.84,4.1,2.22,4.15,5.33h-6c0,1.53.4,2.72,1.93,2.77a1.52,1.52,0,0,0,1.68-1.09Zm-2.22-3.41c.25-2.27-2.82-3.11-3.46-1a3.26,3.26,0,0,0-.2,1h3.66" data-name="fZ"/>
 </g>
 <path class="cls-4" d="m187 335.18h554.5m-554.48 0h-1"/>
 <path class="cls-5" d="m756.76 335.18-14.27 4.64v-9.27z"/>
 <g id="aU">
  <path class="cls-2" d="M415.79,315.08c-.05-2.12-4.65-2.27-4.79-.14.88,3.26,7.45.49,7.6,5.63.15,4.69-8.15,4.59-10.07,1.77a3.51,3.51,0,0,1-.6-1.48l2.47-.39c.15,2.27,5.53,2.76,5.73.24-.84-3.4-7.41-.49-7.6-5.63-.2-4.29,7.55-4.34,9.28-1.72a3.84,3.84,0,0,1,.49,1.38" data-name="fY"/>
  <path id="gs" class="cls-2" d="M423.49,324.27c-4.3.05-2.86-5.58-3.11-9.58h2.47c.34,2.81-1.14,7.41,1.63,7.75,3-.24,1.73-4.79,2-7.75h2.47l.05,9.38h-2.32a10.9,10.9,0,0,0-.15-1.87,3.07,3.07,0,0,1-3,2.07"/>
  <path id="gu" class="cls-2" d="m436.77 314.49c2.57 0 3.46 2.13 3.46 4.84s-0.94 4.89-3.6 4.94a3 3 0 0 1-2.87-1.73l-0.1 1.53h-2.37v-12.89h2.47v5.14a3 3 0 0 1 3.01-1.83zm-1 8.1c1.53 0 2-1.33 2-3.26s-0.34-3.11-1.92-3.11-2 1.38-2 3.21 0.4 3.16 2 3.16"/>
  <path class="cls-2" d="M447.69,317.26c.05-1.44-3.46-1.68-3.51-.2.74,2.27,5.83.35,5.88,4.25.05,4.1-8.1,3.75-8.5.44l2.13-.34c.19.93,1,1.23,2.17,1.23,1.63.39,2.81-1.48,1.19-2-2.13-.7-5-.55-5.14-3.26-.1-3.95,7.6-3.66,7.95-.35" data-name="gd"/>
  <path class="cls-2" d="M460.18,321c-.34,2.07-1.88,3.31-4.25,3.31-2.91,0-4.14-1.88-4.44-4.84-.59-5.43,7.6-6.77,8.59-1.78l-2.42.1a1.66,1.66,0,0,0-1.73-1.58c-1.48,0-1.72,1.38-1.87,3.16-.3,3.66,3.21,4.3,3.65,1.48" data-name="gv"/>
  <path class="cls-2" d="M467.34,316.66c-1.92-.59-3,.65-3,2.82v4.59h-2.47l-.05-9.38h2.32a12.13,12.13,0,0,0,.15,2c.3-1.38,1.33-2.61,3-2v2" data-name="ga"/>
  <path class="cls-2" d="M468.82,313v-1.83h2.47V313Zm0,11.06v-9.38h2.47v9.38h-2.47" data-name="gl"/>
  <path class="cls-2" d="M479.19,314.49c2.57,0,3.46,2.13,3.46,4.84s-.94,4.89-3.6,4.94a3,3,0,0,1-2.87-1.73l-.1,1.53h-2.37l.05-12.89h2.47v5.14A3,3,0,0,1,479.19,314.49Zm-1,8.1c1.53,0,2-1.33,2-3.26s-.34-3.11-1.92-3.11-2,1.38-2,3.21.4,3.16,2,3.16" data-name="gu"/>
  <path class="cls-2" d="M492.48,321.7a4,4,0,0,1-4.05,2.57c-3-.1-4.4-1.83-4.4-4.94s1.48-4.84,4.45-4.84,4.1,2.22,4.15,5.33h-6c0,1.54.4,2.72,1.93,2.77a1.52,1.52,0,0,0,1.68-1.09Zm-2.22-3.41c.24-2.27-2.82-3.11-3.46-1a3.14,3.14,0,0,0-.2,1h3.66" data-name="fZ"/>
 </g>
 <g data-name="aV">
  <path class="cls-2" d="m501.91 313.8v3.8h6.27v2h-6.27v4.49h-2.57v-12.27h9v2h-6.47" data-name="fV"/>
  <path class="cls-2" d="m510.21 324.07v-12.89h2.46v12.89h-2.46" data-name="gf"/>
  <path class="cls-2" d="m519.34 314.49c3.16 0 4.74 1.78 4.74 4.89s-1.73 4.89-4.79 4.89-4.69-1.78-4.69-4.89 1.68-4.89 4.74-4.89zm-0.05 8.1c1.73 0 2.22-1.38 2.22-3.21s-0.49-3.21-2.12-3.21-2.22 1.28-2.22 3.21 0.49 3.21 2.12 3.21" data-name="ge"/>
  <path class="cls-2" d="M536.13,324.07h-2.57l-1.92-7.65-2,7.65h-2.57l-2.42-9.38H527l1.58,7.16c.44-2.57,1.18-4.79,1.77-7.16h2.62l1.83,7.16,1.58-7.16h2.27" data-name="gh"/>
 </g>
 <path class="cls-4" d="m182.5 375.18h559m-559 0h-1"/>
 <path class="cls-5" d="m756.76 375.18-14.27 4.64v-9.27z"/>
 <g id="cc">
  <path class="cls-2" d="M406.13,359.38c0,3.41-2.17,4.89-5.48,4.89-3.16,0-5.19-1.43-5.19-4.79v-7.66H398v7.46a2.56,2.56,0,0,0,2.72,3c4.44.05,2.42-6.42,2.86-10.42h2.57v7.56" data-name="gi"/>
  <path class="cls-2" d="M413.83,354.49c4.3-.05,2.87,5.58,3.11,9.58h-2.47c-.34-2.81,1.14-7.75-1.67-7.75s-1.68,4.79-1.93,7.75H408.4l0-9.38h2.32a11.11,11.11,0,0,0,.15,1.88,3.07,3.07,0,0,1,3-2.08" data-name="gq"/>
  <path class="cls-2" d="M424.75,357.26c.05-1.44-3.46-1.68-3.51-.2.74,2.27,5.83.35,5.88,4.25.05,4.1-8.1,3.75-8.5.44l2.13-.34c.19.93,1,1.23,2.17,1.23,1.63.39,2.81-1.48,1.18-2-2.12-.7-5-.55-5.13-3.26-.1-3.95,7.6-3.66,7.95-.35" data-name="gd"/>
  <path class="cls-2" d="M432.05,364.27c-4.29.05-2.86-5.58-3.11-9.58h2.47c.35,2.81-1.13,7.41,1.63,7.75,3-.24,1.73-4.79,2-7.75h2.47l.05,9.38h-2.32a12,12,0,0,0-.15-1.87,3.1,3.1,0,0,1-3,2.07" data-name="gs"/>
  <path class="cls-2" d="M445.34,354.49c2.57,0,3.46,2.13,3.46,4.84s-.94,4.89-3.61,4.94a3,3,0,0,1-2.86-1.73l-.1,1.53h-2.37l.05-12.89h2.47v5.14A3,3,0,0,1,445.34,354.49Zm-1,8.1c1.53,0,2-1.33,2-3.26s-.35-3.11-1.93-3.11-2,1.38-2,3.21.39,3.16,2,3.16" data-name="gu"/>
  <path class="cls-2" d="M456.25,357.26c.05-1.44-3.45-1.68-3.5-.2.74,2.27,5.82.35,5.87,4.25.05,4.1-8.1,3.75-8.49.44l2.12-.34c.2.93,1,1.23,2.18,1.23,1.62.39,2.81-1.48,1.18-2-2.12-.7-5-.55-5.14-3.26-.09-3.95,7.61-3.66,8-.35" data-name="gd"/>
  <path class="cls-2" d="M468.75,361c-.35,2.07-1.88,3.31-4.25,3.31-2.91,0-4.15-1.88-4.45-4.84-.59-5.43,7.61-6.77,8.6-1.78l-2.42.1a1.66,1.66,0,0,0-1.73-1.58c-1.48,0-1.73,1.38-1.88,3.16-.29,3.66,3.21,4.3,3.66,1.48" data-name="gv"/>
  <path class="cls-2" d="M475.91,356.66c-1.93-.59-3,.65-3,2.82v4.59h-2.47l0-9.38h2.32a13.42,13.42,0,0,0,.14,2c.3-1.38,1.34-2.61,3-2v2" data-name="ga"/>
  <path class="cls-2" d="M477.39,353v-1.83h2.47V353Zm0,11.06v-9.38h2.47v9.38h-2.47" data-name="gl"/>
  <path class="cls-2" d="M487.76,354.49c2.57,0,3.46,2.13,3.46,4.84s-.94,4.89-3.61,4.94a3,3,0,0,1-2.86-1.73l-.1,1.53h-2.37l.05-12.89h2.47v5.14A3,3,0,0,1,487.76,354.49Zm-1,8.1c1.53,0,2-1.33,2-3.26s-.35-3.11-1.93-3.11-2,1.38-2,3.21.39,3.16,2,3.16" data-name="gu"/>
  <path class="cls-2" d="M501,361.7a4,4,0,0,1-4.05,2.57c-3-.1-4.39-1.83-4.39-4.94s1.48-4.84,4.44-4.84,4.1,2.22,4.15,5.33h-6c0,1.54.39,2.72,1.92,2.77a1.52,1.52,0,0,0,1.68-1.09Zm-2.22-3.41c.25-2.27-2.81-3.11-3.46-1a3.15,3.15,0,0,0-.19,1h3.65" data-name="fZ"/>
 </g>
 <g data-name="aV">
  <path class="cls-2" d="m510.47 353.8v3.8h6.28v2h-6.28v4.49h-2.56v-12.27h9v2h-6.47" data-name="fV"/>
  <path class="cls-2" d="m518.77 364.07v-12.89h2.47v12.89h-2.47" data-name="gf"/>
  <path class="cls-2" d="m527.91 354.49c3.16 0 4.74 1.78 4.74 4.89s-1.73 4.89-4.79 4.89-4.69-1.78-4.69-4.89 1.68-4.89 4.74-4.89zm0 8.1c1.73 0 2.22-1.38 2.22-3.21s-0.49-3.21-2.12-3.21-2.23 1.28-2.23 3.21 0.5 3.21 2.13 3.21" data-name="ge"/>
  <path class="cls-2" d="M544.7,364.07h-2.57l-1.93-7.65-2,7.65h-2.57l-2.42-9.38h2.27l1.58,7.16c.45-2.57,1.19-4.79,1.78-7.16h2.62l1.82,7.16,1.58-7.16h2.28" data-name="gh"/>
 </g>
 <path class="cls-4" d="m182.5 535.74h559m-559 0h-1"/>
 <path class="cls-5" d="m756.76 535.74-14.27 4.64v-9.27z"/>
 <g id="ba">
  <path class="cls-2" d="m438.25 516a3.36 3.36 0 0 1-2.66 3.46l3.3 5.13h-2.89l-2.83-4.59h-3v4.64h-2.56v-12.25c4.57 0.2 10.69-1.14 10.64 3.61zm-8.1 2c2.37-0.1 5.53 0.59 5.53-1.88s-3.25-1.58-5.53-1.73v3.61" data-name="gc"/>
  <path class="cls-2" d="M448.33,522.26a4,4,0,0,1-4.05,2.57c-3-.1-4.4-1.83-4.4-4.94s1.48-4.84,4.45-4.84,4.1,2.23,4.14,5.34h-6c0,1.53.39,2.71,1.93,2.76a1.51,1.51,0,0,0,1.67-1.08Zm-2.23-3.4c.25-2.27-2.81-3.11-3.45-1a3.21,3.21,0,0,0-.2,1h3.65" data-name="fZ"/>
  <path class="cls-2" d="M455.63,523c-.79.93-1.48,1.92-3.16,1.87a2.6,2.6,0,0,1-2.86-2.86c-.05-3,2.72-3.11,5.73-3,.05-1.29-.15-2.33-1.38-2.33a1.29,1.29,0,0,0-1.39,1.34l-2.56-.1c.34-1.88,1.77-2.87,4-2.82s3.66,1.09,3.71,3.36l.05,4.05c-.05.69.59.89,1.23.74v1.34C457.56,524.93,455.54,524.78,455.63,523Zm-2.37.14c1.44,0,2.13-1.18,2.08-2.81-1.58,0-3.26-.15-3.21,1.48,0,.84.39,1.33,1.13,1.33" data-name="gp"/>
  <path id="go" class="cls-2" d="m463.29 515.05a3 3 0 0 1 2.86 1.68v-5h2.47l0.05 12.88h-2.37a13.44 13.44 0 0 0-0.15-1.53 2.94 2.94 0 0 1-3 1.73c-2.57 0-3.36-2.22-3.41-4.89s0.88-4.77 3.55-4.87zm0.84 8.1c1.63 0 2-1.48 2-3.26s-0.44-3.16-2-3.16-1.88 1.48-1.93 3.21c0 2.13 0.64 3.21 1.93 3.21"/>
 </g>
 <g data-name="aV">
  <path class="cls-2" d="m478.45 514.36v3.81h6.27v2h-6.27v4.49h-2.57v-12.27h9v2h-6.47" data-name="fV"/>
  <path class="cls-2" d="m486.75 524.63v-12.88h2.46v12.88h-2.46" data-name="gf"/>
  <path class="cls-2" d="m495.88 515.05c3.16 0 4.74 1.78 4.74 4.89s-1.73 4.89-4.79 4.89-4.69-1.78-4.69-4.89 1.68-4.89 4.74-4.89zm-0.05 8.1c1.73 0 2.22-1.38 2.22-3.21s-0.49-3.21-2.12-3.21-2.22 1.29-2.22 3.21 0.49 3.21 2.12 3.21" data-name="ge"/>
  <path class="cls-2" d="m512.67 524.63h-2.57l-1.92-7.63-2 7.65h-2.57l-2.42-9.38h2.28l1.58 7.16c0.44-2.57 1.18-4.79 1.77-7.16h2.62l1.83 7.16 1.58-7.16h2.27" data-name="gh"/>
 </g>
 <path class="cls-4" d="m182.5 575.74h559m-559 0h-1"/>
 <path class="cls-5" d="m756.76 575.74-14.27 4.64v-9.27z"/>
 <g id="cd">
  <path class="cls-2" d="m439.66 564.63h-3l-2.19-9.63-2.17 9.67h-3.06l-3.16-12.24h2.62l2.17 9.82 2.22-9.82h2.91l2.12 9.82 2.17-9.82h2.57" data-name="gH"/>
  <path class="cls-2" d="M449.14,557.23c-1.93-.6-3,.64-3,2.81v4.59h-2.47l0-9.38H446a12.35,12.35,0,0,0,.15,2c.29-1.39,1.33-2.62,3-2v2" data-name="ga"/>
  <path class="cls-2" d="m450.62 553.57v-1.82h2.47v1.82zm0 11.06v-9.38h2.47v9.38h-2.47" data-name="gl"/>
  <path class="cls-2" d="M460,564.49c-1.78.69-4.3.34-4.3-2.08v-5.53h-1.19v-1.63h1.34l.74-2.22h1.53v2.22h1.78v1.63h-1.78v4.89c-.05,1.14.79,1.53,1.88,1.23v1.49" data-name="gm"/>
  <path class="cls-2" d="M469.34,562.26a4,4,0,0,1-4,2.57c-3-.1-4.4-1.83-4.4-4.94s1.49-4.84,4.45-4.84,4.1,2.23,4.15,5.34h-6c0,1.53.4,2.71,1.93,2.76a1.52,1.52,0,0,0,1.68-1.08Zm-2.22-3.4c.24-2.27-2.82-3.11-3.46-1a3.21,3.21,0,0,0-.2,1h3.66" data-name="fZ"/>
 </g>
 <g data-name="aV">
  <path class="cls-2" d="M478.77,554.36v3.81H485v2h-6.27v4.49H476.2V552.39h9v2h-6.47" data-name="fV"/>
  <path class="cls-2" d="m487.07 564.63v-12.88h2.47v12.88h-2.47" data-name="gf"/>
  <path class="cls-2" d="m496.2 555.05c3.16 0 4.74 1.78 4.74 4.89s-1.72 4.89-4.79 4.89-4.69-1.78-4.69-4.89 1.68-4.89 4.74-4.89zm-0.05 8.1c1.73 0 2.23-1.38 2.23-3.21s-0.5-3.21-2.13-3.21-2.25 1.27-2.25 3.21 0.49 3.21 2.12 3.21" data-name="ge"/>
  <path class="cls-2" d="M513,564.63h-2.57L508.5,557l-2,7.65H504l-2.42-9.38h2.27l1.58,7.16c.44-2.57,1.18-4.79,1.78-7.16h2.61l1.83,7.16,1.58-7.16h2.27" data-name="gh"/>
 </g>
 <path class="cls-4" d="m182.5 135.18h559m-559 0h-1"/>
 <path class="cls-5" d="m756.76 135.18-14.27 4.64v-9.27z"/>
 <g id="dN">
  <path class="cls-2" d="m426.92 124.07-1.09-3.07h-4.64l-1.09 3.11h-2.56l4.46-12.29h3l4.45 12.25zm-1.63-5-1.78-5.33c-0.49 1.88-1.18 3.56-1.78 5.33h3.56" data-name="fX"/>
  <path class="cls-2" d="M434.08,124.27c-4.3,0-2.86-5.58-3.11-9.58h2.47c.34,2.81-1.14,7.41,1.63,7.75,3-.24,1.73-4.79,2-7.75h2.47l.05,9.38h-2.32a10.9,10.9,0,0,0-.15-1.87,3.07,3.07,0,0,1-3,2.07" data-name="gs"/>
  <path class="cls-2" d="M446.38,123.92c-1.78.69-4.3.35-4.3-2.07v-5.53h-1.19v-1.63h1.34l.74-2.22h1.53v2.22h1.78v1.63H444.5v4.89c-.05,1.13.79,1.53,1.88,1.23v1.48" data-name="gm"/>
  <path id="gy" class="cls-2" d="m452.2 116.32c-2.91 0-1.68 4.79-1.92 7.75h-2.47v-12.89h2.47v5.39a3.07 3.07 0 0 1 3-2.08c4.25 0 2.86 5.58 3.11 9.58h-2.47c-0.34-2.81 1.14-7.75-1.68-7.75"/>
  <path class="cls-2" d="M466.52,121.7a4,4,0,0,1-4,2.57c-3-.1-4.39-1.83-4.39-4.94s1.48-4.84,4.44-4.84,4.1,2.22,4.15,5.33h-6c0,1.54.39,2.72,1.92,2.77a1.52,1.52,0,0,0,1.68-1.09Zm-2.22-3.41c.25-2.27-2.81-3.11-3.46-1a3.44,3.44,0,0,0-.19,1h3.65" data-name="fZ"/>
  <path class="cls-2" d="M473.93,114.49c4.3,0,2.87,5.58,3.11,9.58h-2.47c-.34-2.81,1.14-7.75-1.68-7.75s-1.67,4.79-1.92,7.75H468.5l-.05-9.38h2.32a11.11,11.11,0,0,0,.15,1.88,3.07,3.07,0,0,1,3-2.08" data-name="gq"/>
  <path class="cls-2" d="M483.76,123.92c-1.78.69-4.3.35-4.3-2.07v-5.53h-1.18v-1.63h1.33l.74-2.22h1.53v2.22h1.78v1.63h-1.78v4.89c-.05,1.13.79,1.53,1.88,1.23v1.48" data-name="gm"/>
  <path class="cls-2" d="M485.19,113v-1.83h2.47V113Zm0,11.06v-9.38h2.47v9.38h-2.47" data-name="gl"/>
  <path class="cls-2" d="M498.28,121c-.35,2.07-1.88,3.31-4.25,3.31-2.91,0-4.15-1.88-4.44-4.84-.6-5.43,7.6-6.77,8.59-1.78l-2.42.1a1.66,1.66,0,0,0-1.73-1.58c-1.48,0-1.73,1.38-1.88,3.16-.29,3.66,3.21,4.3,3.66,1.48" data-name="gv"/>
  <path class="cls-2" d="M505.34,122.39c-.79.94-1.48,1.93-3.16,1.88a2.6,2.6,0,0,1-2.87-2.86c-.05-3,2.72-3.12,5.73-3,0-1.28-.15-2.32-1.38-2.32a1.29,1.29,0,0,0-1.38,1.34l-2.57-.1c.34-1.88,1.78-2.87,4.05-2.82s3.65,1.09,3.7,3.36l.05,4.05c-.05.69.59.89,1.24.74V124C507.26,124.37,505.24,124.22,505.34,122.39Zm-2.37.15c1.43,0,2.12-1.18,2.07-2.81-1.58,0-3.26-.15-3.21,1.48,0,.84.4,1.33,1.14,1.33" data-name="gp"/>
  <path class="cls-2" d="M514.33,123.92c-1.78.69-4.3.35-4.3-2.07v-5.53h-1.19v-1.63h1.34l.74-2.22h1.53v2.22h1.78v1.63h-1.78v4.89c-.05,1.13.79,1.53,1.88,1.23v1.48" data-name="gm"/>
  <path class="cls-2" d="M523.66,121.7a4,4,0,0,1-4,2.57c-3-.1-4.39-1.83-4.39-4.94s1.48-4.84,4.44-4.84,4.1,2.22,4.15,5.33h-6c0,1.54.4,2.72,1.93,2.77a1.52,1.52,0,0,0,1.68-1.09Zm-2.22-3.41c.24-2.27-2.82-3.11-3.46-1a3.14,3.14,0,0,0-.2,1h3.66" data-name="fZ"/>
 </g>
 <path class="cls-4" d="m182.5 615.74h559m-559 0h-1"/>
 <path class="cls-5" d="m756.76 615.74-14.27 4.64v-9.27z"/>
 <g id="ck">
  <path class="cls-2" d="M389.14,592.39c4.59.05,10.17-.79,10.08,3.9-.05,3.7-3.41,4.34-7.51,4.05v4.29h-2.57Zm2.57,6c2.32,0,4.94.35,4.94-2s-2.67-1.93-4.94-1.93v4" data-name="gB"/>
  <path class="cls-2" d="M406.38,603c-.79.93-1.49,1.92-3.16,1.87a2.6,2.6,0,0,1-2.87-2.86c-.05-3,2.72-3.11,5.73-3,.05-1.29-.15-2.33-1.38-2.33a1.29,1.29,0,0,0-1.39,1.34l-2.56-.1c.34-1.88,1.77-2.87,4.05-2.82s3.65,1.09,3.7,3.36l.05,4.05c-.05.69.59.89,1.23.74v1.34C408.3,604.93,406.28,604.78,406.38,603Zm-2.37.14c1.43,0,2.12-1.18,2.07-2.81-1.58,0-3.26-.15-3.21,1.48,0,.84.39,1.33,1.14,1.33" data-name="gp"/>
  <path class="cls-2" d="M413.88,604.83c-4.29,0-2.86-5.58-3.11-9.58h2.47c.35,2.82-1.14,7.41,1.63,7.75,3-.24,1.73-4.79,2-7.75h2.47l.05,9.38H417a10.9,10.9,0,0,0-.15-1.87,3.07,3.07,0,0,1-3,2.07" data-name="gs"/>
  <path class="cls-2" d="M427.26,597.82c.05-1.43-3.45-1.68-3.5-.2.74,2.27,5.83.35,5.88,4.25,0,4.1-8.1,3.75-8.5.44l2.12-.34c.2.94,1,1.23,2.18,1.23,1.63.4,2.81-1.48,1.18-2-2.12-.69-5-.55-5.13-3.26-.1-3.95,7.6-3.66,7.95-.35" data-name="gd"/>
  <path class="cls-2" d="M439.51,602.26a4,4,0,0,1-4.05,2.57c-3-.1-4.39-1.83-4.39-4.94s1.48-4.84,4.44-4.84,4.1,2.23,4.15,5.34h-6c0,1.53.39,2.71,1.92,2.76a1.52,1.52,0,0,0,1.68-1.08Zm-2.22-3.4c.25-2.27-2.82-3.11-3.46-1a3.21,3.21,0,0,0-.19,1h3.65" data-name="fZ"/>
 </g>
 <g id="dO">
  <path class="cls-2" d="M453.54,595.65c-.05-2.13-4.65-2.27-4.79-.15.88,3.26,7.45.49,7.6,5.63.15,4.69-8.15,4.59-10.07,1.78a3.6,3.6,0,0,1-.6-1.49l2.47-.39c.15,2.27,5.53,2.76,5.73.25-.84-3.41-7.41-.5-7.6-5.63-.2-4.3,7.55-4.35,9.28-1.73a3.91,3.91,0,0,1,.49,1.38" data-name="fY"/>
  <path class="cls-2" d="M461.24,604.83c-4.3,0-2.86-5.58-3.11-9.58h2.47c.34,2.82-1.14,7.41,1.63,7.75,3-.24,1.73-4.79,2-7.75h2.47l.05,9.38H464.4a10.9,10.9,0,0,0-.15-1.87,3.07,3.07,0,0,1-3,2.07" data-name="gs"/>
  <path class="cls-2" d="M474.52,595.05c2.57,0,3.46,2.13,3.46,4.84s-.94,4.89-3.6,4.94a3,3,0,0,1-2.87-1.73l-.1,1.53H469l0-12.88h2.47v5.13A3,3,0,0,1,474.52,595.05Zm-1,8.1c1.53,0,2-1.33,2-3.26s-.34-3.11-1.92-3.11-2,1.39-2,3.21.4,3.16,2,3.16" data-name="gu"/>
  <path class="cls-2" d="M485.44,597.82c.05-1.43-3.46-1.68-3.51-.2.74,2.27,5.83.35,5.88,4.25.05,4.1-8.1,3.75-8.5.44l2.13-.34c.19.94,1,1.23,2.17,1.23,1.63.4,2.81-1.48,1.19-2-2.13-.69-5-.55-5.14-3.26-.1-3.95,7.6-3.66,7.95-.35" data-name="gd"/>
  <path class="cls-2" d="M497.93,601.52c-.34,2.08-1.88,3.31-4.25,3.31-2.91,0-4.14-1.87-4.44-4.84-.59-5.43,7.6-6.76,8.59-1.78l-2.42.1a1.66,1.66,0,0,0-1.73-1.58c-1.48,0-1.72,1.39-1.87,3.16-.3,3.66,3.21,4.3,3.65,1.49" data-name="gv"/>
  <path class="cls-2" d="M505.09,597.23c-1.92-.6-3,.64-3,2.81v4.59h-2.47l-.05-9.38h2.32a12.35,12.35,0,0,0,.15,2c.3-1.39,1.33-2.62,3-2v2" data-name="ga"/>
  <path class="cls-2" d="M506.57,593.57v-1.82H509v1.82Zm0,11.06v-9.38H509v9.38h-2.47" data-name="gl"/>
  <path class="cls-2" d="M516.94,595.05c2.62,0,3.46,2.18,3.46,4.84s-.94,4.84-3.6,4.94a3.38,3.38,0,0,1-2.92-1.68c.15,1.63.1,3.41.1,5.19h-2.47l-.05-13.09h2.37a13,13,0,0,0,.15,1.53A2.86,2.86,0,0,1,516.94,595.05Zm-1,8.1c1.63,0,1.92-1.53,2-3.26s-.44-3.16-2-3.16c-2.77,0-2.72,6.42,0,6.42" data-name="gn"/>
  <path class="cls-2" d="M526.77,604.49c-1.78.69-4.3.34-4.3-2.08v-5.53h-1.18v-1.63h1.33l.74-2.22h1.53v2.22h1.78v1.63h-1.78v4.89c0,1.14.79,1.53,1.88,1.23v1.49" data-name="gm"/>
  <path class="cls-2" d="m528.2 593.57v-1.82h2.47v1.82zm0 11.06v-9.38h2.47v9.38h-2.47" data-name="gl"/>
  <path class="cls-2" d="m537.34 595.05c3.16 0 4.74 1.78 4.74 4.89s-1.73 4.89-4.79 4.89-4.69-1.78-4.69-4.89 1.68-4.89 4.74-4.89zm-0.05 8.1c1.73 0 2.22-1.38 2.22-3.21s-0.49-3.21-2.12-3.21-2.22 1.29-2.22 3.21 0.49 3.21 2.12 3.21" data-name="ge"/>
  <path class="cls-2" d="M549.39,595.05c4.29,0,2.86,5.58,3.11,9.58H550c-.35-2.81,1.14-7.75-1.68-7.75s-1.68,4.79-1.93,7.75H544l-.05-9.38h2.32a11.11,11.11,0,0,0,.15,1.88,3.07,3.07,0,0,1,3-2.08" data-name="gq"/>
 </g>
 <path class="cls-4" d="m182.5 655.74h559m-559 0h-1"/>
 <path class="cls-5" d="m756.76 655.74-14.27 4.64v-9.27z"/>
 <g id="by">
  <path class="cls-2" d="m391.44 636a3.36 3.36 0 0 1-2.67 3.46l3.31 5.13h-2.91l-2.82-4.59h-3v4.64h-2.57v-12.25c4.58 0.2 10.71-1.14 10.66 3.61zm-8.1 2c2.37-0.1 5.53 0.59 5.53-1.88s-3.26-1.58-5.53-1.73v3.61" data-name="gc"/>
  <path class="cls-2" d="M401.51,642.26a4,4,0,0,1-4.05,2.57c-3-.1-4.39-1.83-4.39-4.94s1.48-4.84,4.44-4.84,4.1,2.23,4.15,5.34h-6c0,1.53.39,2.71,1.92,2.76a1.52,1.52,0,0,0,1.68-1.08Zm-2.22-3.4c.25-2.27-2.82-3.11-3.46-1a3.21,3.21,0,0,0-.19,1h3.65" data-name="fZ"/>
  <path class="cls-2" d="M409,637.82c.05-1.43-3.46-1.68-3.51-.2.74,2.27,5.83.35,5.88,4.25.05,4.1-8.1,3.75-8.5.44L405,642c.2.94,1,1.23,2.17,1.23,1.63.4,2.82-1.48,1.19-2-2.13-.69-5-.55-5.14-3.26-.1-3.95,7.61-3.66,7.95-.35" data-name="gd"/>
  <path class="cls-2" d="M416.33,644.83c-4.3,0-2.87-5.58-3.11-9.58h2.46c.35,2.82-1.13,7.41,1.63,7.75,3-.24,1.73-4.79,2-7.75h2.47l.05,9.38h-2.32a10.9,10.9,0,0,0-.15-1.87,3.07,3.07,0,0,1-3,2.07" data-name="gs"/>
  <path class="cls-2" d="M433.81,636.88c-2.62.45-1.38,4.94-1.68,7.75h-2.42v-5.28c.05-1.33-.25-2.42-1.43-2.47-2.62.5-1.34,4.94-1.63,7.75h-2.47l-.05-9.38h2.32a11.11,11.11,0,0,0,.15,1.88c.49-2.62,5-2.77,5.33,0,.64-1.09,1.19-2.13,2.92-2.08,4,.05,2.51,5.73,2.81,9.58h-2.42v-5.28c-.05-1.23-.25-2.37-1.43-2.47" data-name="gt"/>
  <path class="cls-2" d="M447.88,642.26a4,4,0,0,1-4.05,2.57c-3-.1-4.39-1.83-4.39-4.94s1.48-4.84,4.44-4.84,4.1,2.23,4.15,5.34h-6c0,1.53.39,2.71,1.92,2.76a1.52,1.52,0,0,0,1.68-1.08Zm-2.22-3.4c.25-2.27-2.81-3.11-3.46-1a3.21,3.21,0,0,0-.19,1h3.65" data-name="fZ"/>
 </g>
 <g data-name="dO">
  <path class="cls-2" d="M461.91,635.65c-.05-2.13-4.64-2.27-4.79-.15.89,3.26,7.45.49,7.6,5.63.15,4.69-8.15,4.59-10.07,1.78a3.46,3.46,0,0,1-.59-1.49l2.46-.39c.15,2.27,5.54,2.76,5.73.25-.84-3.41-7.4-.5-7.6-5.63-.2-4.3,7.55-4.35,9.28-1.73a4.13,4.13,0,0,1,.5,1.38" data-name="fY"/>
  <path class="cls-2" d="M469.61,644.83c-4.3,0-2.86-5.58-3.11-9.58H469c.34,2.82-1.14,7.41,1.63,7.75,3-.24,1.73-4.79,2-7.75H475l0,9.38h-2.32a10.9,10.9,0,0,0-.15-1.87,3.07,3.07,0,0,1-3,2.07" data-name="gs"/>
  <path class="cls-2" d="m482.89 635.05c2.57 0 3.46 2.13 3.46 4.84s-0.94 4.89-3.6 4.94a3 3 0 0 1-2.87-1.73l-0.1 1.53h-2.37v-12.88h2.47v5.13a3 3 0 0 1 3.01-1.83zm-1 8.1c1.53 0 2-1.33 2-3.26s-0.34-3.11-1.92-3.11-2 1.39-2 3.21 0.4 3.16 2 3.16" data-name="gu"/>
  <path class="cls-2" d="M493.81,637.82c.05-1.43-3.46-1.68-3.51-.2.74,2.27,5.83.35,5.88,4.25.05,4.1-8.1,3.75-8.5.44l2.13-.34c.2.94,1,1.23,2.17,1.23,1.63.4,2.82-1.48,1.19-2-2.13-.69-5-.55-5.14-3.26-.1-3.95,7.61-3.66,8-.35" data-name="gd"/>
  <path class="cls-2" d="M506.3,641.52c-.34,2.08-1.87,3.31-4.24,3.31-2.92,0-4.15-1.87-4.45-4.84-.59-5.43,7.61-6.76,8.59-1.78l-2.42.1a1.66,1.66,0,0,0-1.72-1.58c-1.49,0-1.73,1.39-1.88,3.16-.3,3.66,3.21,4.3,3.65,1.49" data-name="gv"/>
  <path class="cls-2" d="M513.46,637.23c-1.92-.6-3,.64-3,2.81v4.59H508l0-9.38h2.32a12.35,12.35,0,0,0,.15,2c.3-1.39,1.33-2.62,3-2v2" data-name="ga"/>
  <path class="cls-2" d="m514.94 633.57v-1.82h2.47v1.82zm0 11.06v-9.38h2.47v9.38h-2.47" data-name="gl"/>
  <path class="cls-2" d="M525.31,635.05c2.62,0,3.46,2.18,3.46,4.84s-.94,4.84-3.6,4.94a3.39,3.39,0,0,1-2.92-1.68c.15,1.63.1,3.41.1,5.19h-2.47l0-13.09h2.37a13,13,0,0,0,.15,1.53A2.86,2.86,0,0,1,525.31,635.05Zm-1,8.1c1.63,0,1.92-1.53,2-3.26s-.44-3.16-2-3.16c-2.77,0-2.72,6.42,0,6.42" data-name="gn"/>
  <path class="cls-2" d="M535.14,644.49c-1.78.69-4.29.34-4.29-2.08v-5.53h-1.19v-1.63H531l.74-2.22h1.54v2.22H535v1.63h-1.77v4.89c0,1.14.79,1.53,1.87,1.23v1.49" data-name="gm"/>
  <path class="cls-2" d="M536.57,633.57v-1.82H539v1.82Zm0,11.06v-9.38H539v9.38h-2.47" data-name="gl"/>
  <path class="cls-2" d="m545.71 635.05c3.16 0 4.74 1.78 4.74 4.89s-1.73 4.89-4.79 4.89-4.69-1.78-4.69-4.89 1.68-4.89 4.74-4.89zm-0.05 8.1c1.73 0 2.22-1.38 2.22-3.21s-0.49-3.21-2.12-3.21-2.22 1.29-2.22 3.21 0.49 3.21 2.12 3.21" data-name="ge"/>
  <path class="cls-2" d="M557.76,635.05c4.3,0,2.86,5.58,3.11,9.58H558.4c-.34-2.81,1.14-7.75-1.68-7.75s-1.68,4.79-1.92,7.75h-2.47l-.05-9.38h2.32a11.11,11.11,0,0,0,.15,1.88,3.07,3.07,0,0,1,3-2.08" data-name="gq"/>
 </g>
 <path class="cls-4" d="m182.5 695.74h559m-559 0h-1"/>
 <path class="cls-5" d="m756.76 695.74-14.27 4.64v-9.27z"/>
 <g id="cl">
  <path class="cls-2" d="M402.77,675.65c0-2.13-4.64-2.27-4.79-.15.89,3.26,7.46.49,7.61,5.63.14,4.69-8.15,4.59-10.08,1.78a3.59,3.59,0,0,1-.59-1.49l2.47-.39c.15,2.27,5.53,2.76,5.73.25-.84-3.41-7.41-.5-7.61-5.63-.2-4.3,7.56-4.35,9.29-1.73a4.35,4.35,0,0,1,.49,1.38" data-name="fY"/>
  <path class="cls-2" d="M412,684.49c-1.78.69-4.3.34-4.3-2.08v-5.53h-1.19v-1.63h1.34l.74-2.22h1.53v2.22h1.78v1.63h-1.78v4.89c-.05,1.14.79,1.53,1.88,1.23v1.49" data-name="gm"/>
  <path class="cls-2" d="m417.59 675.05c3.16 0 4.74 1.78 4.74 4.89s-1.73 4.89-4.79 4.89-4.7-1.78-4.7-4.89 1.68-4.89 4.75-4.89zm0 8.1c1.72 0 2.22-1.38 2.22-3.21s-0.5-3.21-2.13-3.21-2.22 1.29-2.22 3.21 0.5 3.21 2.13 3.21" data-name="ge"/>
  <path class="cls-2" d="M429.63,675.05c2.62,0,3.46,2.18,3.46,4.84s-.94,4.84-3.6,4.94a3.39,3.39,0,0,1-2.92-1.68c.15,1.63.1,3.41.1,5.19H424.2l-.05-13.09h2.37a13,13,0,0,0,.15,1.53A2.86,2.86,0,0,1,429.63,675.05Zm-1,8.1c1.63,0,1.92-1.53,2-3.26s-.44-3.16-2-3.16c-2.77,0-2.72,6.42,0,6.42" data-name="gn"/>
 </g>
 <g data-name="dO">
  <path class="cls-2" d="M447.07,675.65c-.05-2.13-4.65-2.27-4.79-.15.89,3.26,7.45.49,7.6,5.63.15,4.69-8.15,4.59-10.07,1.78a3.6,3.6,0,0,1-.6-1.49l2.47-.39c.15,2.27,5.53,2.76,5.73.25-.84-3.41-7.41-.5-7.6-5.63-.2-4.3,7.55-4.35,9.28-1.73a3.91,3.91,0,0,1,.49,1.38" data-name="fY"/>
  <path class="cls-2" d="M454.77,684.83c-4.3,0-2.86-5.58-3.11-9.58h2.47c.34,2.82-1.14,7.41,1.63,7.75,3-.24,1.73-4.79,2-7.75h2.47l.05,9.38h-2.32a10.9,10.9,0,0,0-.15-1.87,3.07,3.07,0,0,1-3,2.07" data-name="gs"/>
  <path class="cls-2" d="m468.05 675.05c2.57 0 3.46 2.13 3.46 4.84s-0.94 4.89-3.6 4.94a3 3 0 0 1-2.91-1.73l-0.1 1.53h-2.37l0.05-12.88h2.47v5.13a3 3 0 0 1 3-1.83zm-1 8.1c1.53 0 2-1.33 2-3.26s-0.34-3.11-1.92-3.11-2 1.39-2 3.21 0.4 3.16 2 3.16" data-name="gu"/>
  <path class="cls-2" d="M479,677.82c0-1.43-3.46-1.68-3.51-.2.74,2.27,5.83.35,5.88,4.25.05,4.1-8.1,3.75-8.5.44L475,682c.2.94,1,1.23,2.17,1.23,1.63.4,2.82-1.48,1.19-2-2.13-.69-5-.55-5.14-3.26-.1-3.95,7.6-3.66,7.95-.35" data-name="gd"/>
  <path class="cls-2" d="M491.46,681.52c-.34,2.08-1.88,3.31-4.25,3.31-2.91,0-4.14-1.87-4.44-4.84-.59-5.43,7.61-6.76,8.59-1.78l-2.42.1a1.66,1.66,0,0,0-1.73-1.58c-1.48,0-1.72,1.39-1.87,3.16-.3,3.66,3.21,4.3,3.65,1.49" data-name="gv"/>
  <path class="cls-2" d="M498.62,677.23c-1.92-.6-3,.64-3,2.81v4.59h-2.47l-.05-9.38h2.32a12.35,12.35,0,0,0,.15,2c.3-1.39,1.33-2.62,3-2v2" data-name="ga"/>
  <path class="cls-2" d="m500.1 673.57v-1.82h2.47v1.82zm0 11.06v-9.38h2.47v9.38h-2.47" data-name="gl"/>
  <path class="cls-2" d="M510.47,675.05c2.62,0,3.46,2.18,3.46,4.84s-.94,4.84-3.6,4.94a3.38,3.38,0,0,1-2.92-1.68c.15,1.63.1,3.41.1,5.19H505L505,675.25h2.37a13,13,0,0,0,.15,1.53A2.86,2.86,0,0,1,510.47,675.05Zm-1,8.1c1.63,0,1.92-1.53,2-3.26s-.44-3.16-2-3.16c-2.77,0-2.72,6.42,0,6.42" data-name="gn"/>
  <path class="cls-2" d="M520.3,684.49c-1.78.69-4.3.34-4.3-2.08v-5.53h-1.18v-1.63h1.33l.74-2.22h1.53v2.22h1.78v1.63h-1.78v4.89c0,1.14.79,1.53,1.88,1.23v1.49" data-name="gm"/>
  <path class="cls-2" d="m521.73 673.57v-1.82h2.47v1.82zm0 11.06v-9.38h2.47v9.38h-2.47" data-name="gl"/>
  <path class="cls-2" d="m530.87 675.05c3.16 0 4.74 1.78 4.74 4.89s-1.73 4.89-4.79 4.89-4.69-1.78-4.69-4.89 1.68-4.89 4.74-4.89zm0 8.1c1.73 0 2.22-1.38 2.22-3.21s-0.49-3.21-2.12-3.21-2.22 1.29-2.22 3.21 0.49 3.21 2.12 3.21" data-name="ge"/>
  <path class="cls-2" d="M542.92,675.05c4.29,0,2.86,5.58,3.11,9.58h-2.47c-.35-2.81,1.14-7.75-1.68-7.75s-1.68,4.79-1.92,7.75h-2.47l0-9.38h2.32a11.11,11.11,0,0,0,.15,1.88,3.07,3.07,0,0,1,3-2.08" data-name="gq"/>
 </g>
 <path class="cls-4" d="m182.5 415.18h559m-559 0h-1"/>
 <path class="cls-5" d="m756.76 415.18-14.27 4.64v-9.27z"/>
 <g data-name="bk">
  <path class="cls-2" d="m394.6 404.07v-12.25h2.57v10.28h6.56v2h-9.13" data-name="gA"/>
  <path class="cls-2" d="M405.46,393v-1.83h2.47V393Zm0,11.06v-9.38h2.47v9.38h-2.47" data-name="gl"/>
  <path class="cls-2" d="M415.93,397.26c.05-1.44-3.46-1.68-3.5-.2.74,2.27,5.82.35,5.87,4.25.05,4.1-8.1,3.75-8.49.44l2.12-.34c.2.93,1,1.23,2.17,1.23,1.63.39,2.82-1.48,1.19-2-2.12-.7-5-.55-5.14-3.26-.09-3.95,7.61-3.66,8-.35" data-name="gd"/>
  <path class="cls-2" d="M424.72,403.92c-1.78.7-4.29.35-4.29-2.07v-5.53h-1.19v-1.63h1.33l.74-2.22h1.54v2.22h1.77v1.63h-1.77v4.89c-.05,1.13.79,1.53,1.87,1.23v1.48" data-name="gm"/>
 </g>
 <g id="cm">
  <path class="cls-2" d="M438.2,395.08c-.05-2.12-4.64-2.27-4.79-.14.89,3.26,7.46.49,7.61,5.63.15,4.69-8.15,4.59-10.08,1.77a3.63,3.63,0,0,1-.59-1.48l2.47-.39c.15,2.27,5.53,2.76,5.73.24-.84-3.4-7.41-.49-7.61-5.63-.19-4.29,7.56-4.34,9.29-1.72a4.26,4.26,0,0,1,.49,1.38" data-name="fY"/>
  <path class="cls-2" d="M445.91,404.27c-4.3.05-2.87-5.58-3.11-9.58h2.46c.35,2.81-1.13,7.41,1.63,7.75,3-.24,1.73-4.79,2-7.75h2.47l.05,9.38h-2.32a10.9,10.9,0,0,0-.15-1.87,3.07,3.07,0,0,1-3,2.07" data-name="gs"/>
  <path class="cls-2" d="M459.19,394.49c2.57,0,3.46,2.13,3.46,4.84s-.94,4.89-3.61,4.94a3,3,0,0,1-2.86-1.73l-.1,1.53h-2.37l.05-12.89h2.47v5.14A3,3,0,0,1,459.19,394.49Zm-1,8.1c1.53,0,2-1.33,2-3.26s-.35-3.11-1.93-3.11-2,1.38-2,3.21.39,3.16,2,3.16" data-name="gu"/>
  <path class="cls-2" d="M470.1,397.26c0-1.44-3.45-1.68-3.5-.2.74,2.27,5.83.35,5.87,4.25,0,4.1-8.09,3.75-8.49.44l2.12-.34c.2.93,1,1.23,2.18,1.23,1.63.39,2.81-1.48,1.18-2-2.12-.7-5-.55-5.13-3.26-.1-3.95,7.6-3.66,7.95-.35" data-name="gd"/>
  <path class="cls-2" d="M482.6,401c-.35,2.07-1.88,3.31-4.25,3.31-2.91,0-4.15-1.88-4.44-4.84-.6-5.43,7.6-6.77,8.59-1.78l-2.42.1a1.66,1.66,0,0,0-1.73-1.58c-1.48,0-1.73,1.38-1.88,3.16-.29,3.66,3.21,4.3,3.66,1.48" data-name="gv"/>
  <path class="cls-2" d="M489.76,396.66c-1.93-.59-3,.65-3,2.82v4.59h-2.47l-.05-9.38h2.32a12.13,12.13,0,0,0,.15,2c.29-1.38,1.33-2.61,3-2v2" data-name="ga"/>
  <path class="cls-2" d="M491.24,393v-1.83h2.47V393Zm0,11.06v-9.38h2.47v9.38h-2.47" data-name="gl"/>
  <path class="cls-2" d="M501.61,394.49c2.62,0,3.46,2.17,3.46,4.84s-.94,4.84-3.61,4.94a3.37,3.37,0,0,1-2.91-1.68c.15,1.63.1,3.41.1,5.19h-2.47l-.05-13.09h2.37a13.44,13.44,0,0,0,.15,1.53A2.85,2.85,0,0,1,501.61,394.49Zm-1,8.1c1.63,0,1.93-1.53,2-3.26s-.45-3.16-2-3.16c-2.76,0-2.71,6.42,0,6.42" data-name="gn"/>
  <path class="cls-2" d="M511.44,403.92c-1.78.7-4.3.35-4.3-2.07v-5.53H506v-1.63h1.33l.74-2.22h1.53v2.22h1.78v1.63h-1.78v4.89c-.05,1.13.79,1.53,1.88,1.23v1.48" data-name="gm"/>
  <path class="cls-2" d="M512.87,393v-1.83h2.47V393Zm0,11.06v-9.38h2.47v9.38h-2.47" data-name="gl"/>
  <path class="cls-2" d="m522 394.49c3.16 0 4.74 1.78 4.74 4.89s-1.73 4.89-4.79 4.89-4.7-1.78-4.7-4.89 1.69-4.89 4.75-4.89zm0 8.1c1.72 0 2.22-1.38 2.22-3.21s-0.5-3.21-2.13-3.21-2.22 1.28-2.22 3.21 0.5 3.21 2.13 3.21" data-name="ge"/>
  <path class="cls-2" d="M534.05,394.49c4.3-.05,2.87,5.58,3.12,9.58H534.7c-.35-2.81,1.13-7.75-1.68-7.75s-1.68,4.79-1.93,7.75h-2.47l0-9.38h2.32a12.24,12.24,0,0,0,.15,1.88,3.09,3.09,0,0,1,3-2.08" data-name="gq"/>
  <path class="cls-2" d="M545,397.26c0-1.44-3.46-1.68-3.51-.2.74,2.27,5.83.35,5.88,4.25,0,4.1-8.1,3.75-8.49.44l2.12-.34c.2.93,1,1.23,2.17,1.23,1.63.39,2.82-1.48,1.19-2-2.13-.7-5-.55-5.14-3.26-.1-3.95,7.61-3.66,7.95-.35" data-name="gd"/>
 </g>
 <path class="cls-4" d="m182.5 455.18h559m-559 0h-1"/>
 <path class="cls-5" d="m756.76 455.18-14.27 4.64v-9.27z"/>
 <g data-name="bk">
  <path class="cls-2" d="M402.43,444.07V431.82H405V442.1h6.57v2h-9.13" data-name="gA"/>
  <path class="cls-2" d="M413.29,433v-1.83h2.47V433Zm0,11.06v-9.38h2.47v9.38h-2.47" data-name="gl"/>
  <path class="cls-2" d="M423.76,437.26c.05-1.44-3.46-1.68-3.51-.2.74,2.27,5.83.35,5.88,4.25.05,4.1-8.1,3.75-8.49.44l2.12-.34c.2.93,1,1.23,2.17,1.23,1.63.39,2.82-1.48,1.19-2-2.13-.7-5-.55-5.14-3.26-.1-3.95,7.61-3.66,7.95-.35" data-name="gd"/>
  <path class="cls-2" d="M432.55,443.92c-1.78.7-4.3.35-4.3-2.07v-5.53h-1.18v-1.63h1.33l.74-2.22h1.53v2.22h1.78v1.63h-1.78v4.89c-.05,1.13.79,1.53,1.88,1.23v1.48" data-name="gm"/>
 </g>
 <g id="dP">
  <path class="cls-2" d="M446,435.08c0-2.12-4.64-2.27-4.79-.14.89,3.26,7.46.49,7.61,5.63.14,4.69-8.15,4.59-10.08,1.77a3.5,3.5,0,0,1-.59-1.48l2.47-.39c.15,2.27,5.53,2.76,5.73.24-.84-3.4-7.41-.49-7.61-5.63-.2-4.29,7.56-4.34,9.28-1.72a4.05,4.05,0,0,1,.5,1.38" data-name="fY"/>
  <path class="cls-2" d="M453.73,444.27c-4.29.05-2.86-5.58-3.11-9.58h2.47c.35,2.81-1.13,7.41,1.63,7.75,3-.24,1.73-4.79,2-7.75h2.47l.05,9.38h-2.33a10.94,10.94,0,0,0-.14-1.87,3.1,3.1,0,0,1-3,2.07" data-name="gs"/>
  <path class="cls-2" d="M467,434.49c2.57,0,3.45,2.13,3.45,4.84s-.93,4.89-3.6,4.94a3,3,0,0,1-2.86-1.73l-.1,1.53h-2.37l0-12.89h2.46v5.14A3,3,0,0,1,467,434.49Zm-1,8.1c1.53,0,2-1.33,2-3.26s-.35-3.11-1.93-3.11-2,1.38-2,3.21.39,3.16,2,3.16" data-name="gu"/>
  <path class="cls-2" d="M477.93,437.26c.05-1.44-3.46-1.68-3.5-.2.74,2.27,5.82.35,5.87,4.25.05,4.1-8.1,3.75-8.49.44l2.12-.34c.2.93,1,1.23,2.17,1.23,1.63.39,2.82-1.48,1.19-2-2.12-.7-5-.55-5.14-3.26-.1-3.95,7.61-3.66,8-.35" data-name="gd"/>
  <path class="cls-2" d="M490.43,441c-.35,2.07-1.88,3.31-4.25,3.31-2.92,0-4.15-1.88-4.45-4.84-.59-5.43,7.61-6.77,8.6-1.78l-2.42.1a1.66,1.66,0,0,0-1.73-1.58c-1.48,0-1.73,1.38-1.88,3.16-.29,3.66,3.21,4.3,3.66,1.48" data-name="gv"/>
  <path class="cls-2" d="M497.59,436.66c-1.93-.59-3,.65-3,2.82v4.59h-2.47l0-9.38h2.33a12.17,12.17,0,0,0,.14,2c.3-1.38,1.34-2.61,3-2v2" data-name="ga"/>
  <path class="cls-2" d="M499.07,433v-1.83h2.47V433Zm0,11.06v-9.38h2.47v9.38h-2.47" data-name="gl"/>
  <path class="cls-2" d="M509.44,434.49c2.57,0,3.45,2.13,3.45,4.84s-.93,4.89-3.6,4.94a3,3,0,0,1-2.86-1.73l-.1,1.53H504l.05-12.89h2.46v5.14A3,3,0,0,1,509.44,434.49Zm-1,8.1c1.53,0,2-1.33,2-3.26s-.35-3.11-1.93-3.11-2,1.38-2,3.21.39,3.16,2,3.16" data-name="gu"/>
  <path class="cls-2" d="M522.72,441.7a4,4,0,0,1-4.05,2.57c-3-.1-4.39-1.83-4.39-4.94s1.48-4.84,4.44-4.84,4.1,2.22,4.15,5.33h-6c0,1.54.39,2.72,1.92,2.77a1.52,1.52,0,0,0,1.68-1.09Zm-2.22-3.41c.25-2.27-2.82-3.11-3.46-1a3.15,3.15,0,0,0-.19,1h3.65" data-name="fZ"/>
  <path class="cls-2" d="M530.13,436.66c-1.93-.59-3,.65-3,2.82v4.59H524.7l-.05-9.38H527a12.13,12.13,0,0,0,.15,2c.29-1.38,1.33-2.61,3-2v2" data-name="ga"/>
  <path class="cls-2" d="M537.14,437.26c.05-1.44-3.46-1.68-3.5-.2.74,2.27,5.82.35,5.87,4.25,0,4.1-8.1,3.75-8.49.44l2.12-.34c.2.93,1,1.23,2.17,1.23,1.63.39,2.82-1.48,1.19-2-2.12-.7-5-.55-5.14-3.26-.1-3.95,7.61-3.66,7.95-.35" data-name="gd"/>
 </g>
 <path class="cls-4" d="m182.5 495.18h559m-559 0h-1"/>
 <path class="cls-5" d="m756.76 495.18-14.27 4.64v-9.27z"/>
 <g id="cp">
  <path class="cls-2" d="m399.26 475.48a3.36 3.36 0 0 1-2.66 3.46l3.31 5.13h-2.91l-2.81-4.64h-3v4.64h-2.59v-12.25c4.59 0.18 10.71-1.13 10.66 3.66zm-8.09 2c2.37-0.09 5.53 0.6 5.53-1.87s-3.26-1.58-5.53-1.73v3.6" data-name="gc"/>
  <path class="cls-2" d="M409.34,481.7a4,4,0,0,1-4,2.57c-3-.1-4.4-1.83-4.4-4.94s1.49-4.84,4.45-4.84,4.1,2.22,4.15,5.33h-6c0,1.54.4,2.72,1.93,2.77a1.52,1.52,0,0,0,1.68-1.09Zm-2.22-3.41c.24-2.27-2.82-3.11-3.46-1a3.14,3.14,0,0,0-.2,1h3.66" data-name="fZ"/>
  <path class="cls-2" d="M420.94,476.32c-2.61.44-1.38,4.94-1.68,7.75h-2.41v-5.28c0-1.34-.25-2.42-1.44-2.47-2.61.49-1.33,4.94-1.63,7.75h-2.47l-.05-9.38h2.33a11.14,11.14,0,0,0,.14,1.88c.5-2.62,5-2.77,5.34,0,.64-1.09,1.18-2.13,2.91-2.08,4,.05,2.52,5.73,2.82,9.58h-2.42v-5.28c-.05-1.24-.25-2.37-1.44-2.47" data-name="gt"/>
  <path class="cls-2" d="m431.31 474.49c3.16 0 4.75 1.78 4.75 4.89s-1.73 4.89-4.8 4.89-4.69-1.78-4.69-4.89 1.68-4.89 4.74-4.89zm-0.05 8.1c1.73 0 2.23-1.38 2.23-3.21s-0.5-3.21-2.13-3.21-2.22 1.28-2.22 3.21 0.5 3.21 2.12 3.21" data-name="ge"/>
  <path class="cls-2" d="m443 484.07h-2.9l-3.35-9.38h2.61l2.23 7.41 2.37-7.41h2.56" data-name="gb"/>
  <path class="cls-2" d="M455.71,481.7a4,4,0,0,1-4,2.57c-3-.1-4.4-1.83-4.4-4.94s1.49-4.84,4.45-4.84,4.1,2.22,4.15,5.33h-6c0,1.54.4,2.72,1.93,2.77a1.52,1.52,0,0,0,1.68-1.09Zm-2.22-3.41c.24-2.27-2.82-3.11-3.46-1a3.14,3.14,0,0,0-.2,1h3.66" data-name="fZ"/>
 </g>
 <g id="cq">
  <path class="cls-2" d="M469.73,475.08c-.05-2.12-4.64-2.27-4.79-.14.89,3.26,7.46.49,7.61,5.63.15,4.69-8.15,4.59-10.07,1.77a3.51,3.51,0,0,1-.6-1.48l2.47-.39c.15,2.27,5.53,2.76,5.73.24-.84-3.4-7.41-.49-7.6-5.63-.2-4.29,7.55-4.34,9.28-1.72a4,4,0,0,1,.49,1.38" data-name="fY"/>
  <path class="cls-2" d="M477.44,484.27c-4.3.05-2.87-5.58-3.11-9.58h2.47c.34,2.81-1.14,7.41,1.63,7.75,3-.24,1.72-4.79,2-7.75h2.47l.05,9.38H480.6a10.9,10.9,0,0,0-.15-1.87,3.07,3.07,0,0,1-3,2.07" data-name="gs"/>
  <path class="cls-2" d="M490.72,474.49c2.57,0,3.46,2.13,3.46,4.84s-.94,4.89-3.61,4.94a3,3,0,0,1-2.86-1.73l-.1,1.53h-2.37l.05-12.89h2.47v5.14A3,3,0,0,1,490.72,474.49Zm-1,8.1c1.54,0,2-1.33,2-3.26s-.35-3.11-1.93-3.11-2,1.38-2,3.21.39,3.16,2,3.16" data-name="gu"/>
  <path class="cls-2" d="M501.64,477.26c0-1.44-3.46-1.68-3.51-.2.74,2.27,5.83.35,5.88,4.25.05,4.1-8.1,3.75-8.5.44l2.13-.34c.19.93,1,1.23,2.17,1.23,1.63.39,2.81-1.48,1.18-2-2.12-.7-5-.55-5.13-3.26-.1-3.95,7.6-3.66,7.95-.35" data-name="gd"/>
  <path class="cls-2" d="M514.13,481c-.35,2.07-1.88,3.31-4.25,3.31-2.91,0-4.15-1.88-4.44-4.84-.59-5.43,7.6-6.77,8.59-1.78l-2.42.1a1.66,1.66,0,0,0-1.73-1.58c-1.48,0-1.73,1.38-1.87,3.16-.3,3.66,3.21,4.3,3.65,1.48" data-name="gv"/>
  <path class="cls-2" d="M521.29,476.66c-1.93-.59-3,.65-3,2.82v4.59h-2.47l-.05-9.38h2.32a12.13,12.13,0,0,0,.15,2c.29-1.38,1.33-2.61,3-2v2" data-name="ga"/>
  <path class="cls-2" d="M522.77,473v-1.83h2.47V473Zm0,11.06v-9.38h2.47v9.38h-2.47" data-name="gl"/>
  <path class="cls-2" d="M533.14,474.49c2.57,0,3.46,2.13,3.46,4.84s-.94,4.89-3.61,4.94a3,3,0,0,1-2.86-1.73l-.1,1.53h-2.37l.05-12.89h2.47v5.14A3,3,0,0,1,533.14,474.49Zm-1,8.1c1.54,0,2-1.33,2-3.26s-.35-3.11-1.93-3.11-2,1.38-2,3.21.39,3.16,2,3.16" data-name="gu"/>
  <path class="cls-2" d="M546.43,481.7a4,4,0,0,1-4,2.57c-3-.1-4.4-1.83-4.4-4.94s1.48-4.84,4.45-4.84,4.09,2.22,4.14,5.33h-6c0,1.54.39,2.72,1.93,2.77a1.51,1.51,0,0,0,1.67-1.09Zm-2.23-3.41c.25-2.27-2.81-3.11-3.45-1a3.14,3.14,0,0,0-.2,1h3.65" data-name="fZ"/>
  <path class="cls-2" d="M553.83,476.66c-1.92-.59-3,.65-3,2.82v4.59H548.4l0-9.38h2.32a12.13,12.13,0,0,0,.15,2c.3-1.38,1.33-2.61,3-2v2" data-name="ga"/>
 </g>
 <path class="cls-1" d="M1.5,110.64a6,6,0,0,1,6-6h148a6,6,0,0,1,6,6v588a6,6,0,0,1-6,6H7.5a6,6,0,0,1-6-6Z"/>
 <g data-name="ax">
  <path class="cls-2" d="M62,318.84v5.68h8.52v1.73H62v6.17H60V317.11H70.79v1.73H62" data-name="fx"/>
  <path class="cls-2" d="m73.13 332.42v-16.11h2v16.11h-2" data-name="fy"/>
  <path class="cls-2" d="m82.7 320.44c3.83-0.06 5.25 2.29 5.25 6.11s-1.67 6.11-5.31 6.11-5.13-2.4-5.19-6.11c0-4.07 1.73-6.11 5.25-6.11zm-0.06 10.74c2.71 0.07 3.27-1.91 3.27-4.63s-0.49-4.63-3.15-4.63-3.27 2-3.27 4.63 0.62 4.57 3.15 4.63" data-name="fk"/>
  <path class="cls-2" d="M101.59,332.42H99.37L96.9,322.29l-2.53,10.13H92.14l-3.33-11.73h2l2.4,10.12,2.66-10.12H98l2.53,10.12,2.59-10.12H105" data-name="fj"/>
 </g>
 <g data-name="ay">
  <path class="cls-2" d="M34,359.08l-8.15-13,.06,13H24.15v-15.3h2.41l8.21,13.14-.13-13.14h1.92v15.3H34" data-name="fg"/>
  <path class="cls-2" d="M47,356.86c-.93,1.3-1.91,2.53-4.2,2.47s-3.58-1.3-3.58-3.52c-.06-3.95,3.89-3.89,7.72-3.89.18-2.16-.56-3.33-2.53-3.33-1.48.06-2.53.43-2.59,1.91l-2-.18c.31-2.29,2-3.21,4.69-3.21s4.44,1.23,4.44,3.95v5.06c-.06,1.24.44,2,1.73,1.67V359C48.72,359.58,46.87,358.9,47,356.86Zm-5.74-1.05a1.86,1.86,0,0,0,2,2c2.54-.19,3.89-1.79,3.71-4.57-2.66.13-5.68-.31-5.68,2.53" data-name="fo"/>
  <path class="cls-2" d="M63.6,348.65c-4.14.19-2.35,6.48-2.72,10.43H59v-7.46c0-1.79-.31-3.09-2.16-3-4.08.25-2.35,6.42-2.72,10.43H52.18l-.07-11.72H54a9.48,9.48,0,0,0,.12,2c.62-2.71,6.11-3.09,6.6,0a3.78,3.78,0,0,1,3.58-2.22c5.25-.12,2.91,7.34,3.4,12H65.76v-7.46c0-1.79-.31-3-2.16-3" data-name="fD"/>
  <path class="cls-2" d="M75.26,347.11c3.89,0,5.31,2.59,5.19,6.54H72.11c0,2.47.87,4.14,3.28,4.2a2.87,2.87,0,0,0,3-1.79l1.73.49c-.68,1.73-2.29,2.78-4.75,2.78-3.58,0-5.44-2.28-5.38-6.17S71.62,347.11,75.26,347.11Zm3.21,5c.37-3.7-4.69-4.75-6-1.73a4.58,4.58,0,0,0-.37,1.73h6.36" data-name="fh"/>
  <path class="cls-2" d="M89.77,350.26c-.19-2.1-5.31-2.35-5.37,0,.92,3.27,7.1.74,7.34,5.55s-9.26,4.57-9.69.5l1.73-.31c.25,2.22,6,2.78,6,0-.62-3.46-7-.93-7.28-5.56-.25-3.52,5.06-3.89,7.53-2.59A3.11,3.11,0,0,1,91.56,350" data-name="fv"/>
  <path class="cls-2" d="m99.64 347.11c3.4 0.06 4.33 2.53 4.33 6.05s-1 6-4.33 6.17a3.78 3.78 0 0 1-3.7-2.1l0.06 6.48h-2v-16.35h1.91l0.12 1.85a3.64 3.64 0 0 1 3.61-2.1zm-0.49 10.74c2.47 0 2.78-2.1 2.78-4.63s-0.37-4.51-2.78-4.57c-2.59 0-3.15 2-3.15 4.69s0.62 4.51 3.15 4.51" data-name="fr"/>
  <path class="cls-2" d="M113.6,356.86c-.93,1.3-1.92,2.53-4.2,2.47s-3.58-1.3-3.58-3.52c-.06-3.95,3.89-3.89,7.71-3.89.19-2.16-.55-3.33-2.53-3.33-1.48.06-2.53.43-2.59,1.91l-2-.18c.31-2.29,2-3.21,4.69-3.21s4.45,1.23,4.45,3.95v5.06c-.06,1.24.43,2,1.73,1.67V359C115.32,359.58,113.47,358.9,113.6,356.86Zm-5.75-1.05a1.87,1.87,0,0,0,2,2c2.53-.19,3.89-1.79,3.7-4.57-2.65.13-5.68-.31-5.68,2.53" data-name="fo"/>
  <path class="cls-2" d="M123.16,348.65c-2.47,0-3,2-3,4.51s.56,4.63,3,4.63a2.47,2.47,0,0,0,2.66-2.35l2,.13a4.23,4.23,0,0,1-4.57,3.76c-3.64,0-4.69-2.53-5.06-6.11-.61-5.74,6.24-8.09,9.08-4a5,5,0,0,1,.43,1.36l-2,.18a2.36,2.36,0,0,0-2.53-2.16" data-name="fq"/>
  <path class="cls-2" d="m134.52 347.11c3.89 0 5.31 2.59 5.19 6.54h-8.34c0 2.47 0.87 4.14 3.27 4.2a2.88 2.88 0 0 0 3-1.79l1.73 0.49c-0.68 1.73-2.29 2.78-4.76 2.78-3.58 0-5.43-2.28-5.37-6.17s1.64-6.05 5.28-6.05zm3.21 5c0.37-3.7-4.69-4.75-6-1.73a4.58 4.58 0 0 0-0.37 1.73h6.36" data-name="fh"/>
 </g>
 <g id="aH">
  <path class="cls-2" d="m49.12 385.75-1.73-4.44h-7l-1.73 4.44h-2.13l6.23-15.31h2.35l6.11 15.31zm-2.35-6.11-2.9-7.59c-0.74 2.78-1.91 5.06-2.84 7.59h5.74" data-name="fA"/>
  <path class="cls-2" d="M57.21,375.32c-2.47,0-3,2-3,4.51s.56,4.62,3,4.62a2.45,2.45,0,0,0,2.65-2.34l2,.12A4.24,4.24,0,0,1,57.27,386c-3.64,0-4.69-2.53-5.06-6.11-.62-5.74,6.23-8.09,9.07-3.95a4.74,4.74,0,0,1,.43,1.35l-2,.19a2.36,2.36,0,0,0-2.53-2.16" data-name="fq"/>
  <path class="cls-2" d="M68.32,375.32c-2.47,0-3,2-3,4.51s.56,4.62,3,4.62A2.45,2.45,0,0,0,71,382.11l2,.12A4.24,4.24,0,0,1,68.38,386c-3.64,0-4.69-2.53-5.06-6.11-.62-5.74,6.23-8.09,9.07-3.95a4.74,4.74,0,0,1,.43,1.35l-2,.19a2.36,2.36,0,0,0-2.53-2.16" data-name="fq"/>
  <path class="cls-2" d="M79.67,373.78c3.89,0,5.31,2.59,5.19,6.54H76.53c0,2.47.86,4.13,3.27,4.2a2.87,2.87,0,0,0,3-1.79l1.73.49C83.87,385,82.27,386,79.8,386c-3.58,0-5.43-2.29-5.37-6.17S76,373.78,79.67,373.78Zm3.21,5c.37-3.71-4.69-4.76-6-1.73a4.39,4.39,0,0,0-.37,1.73h6.35" data-name="fh"/>
  <path class="cls-2" d="M94.18,376.92c-.18-2.09-5.31-2.34-5.37,0,.93,3.28,7.1.74,7.35,5.56s-9.26,4.57-9.7.49l1.73-.31c.25,2.23,6,2.78,6,0-.61-3.45-7-.92-7.28-5.55-.25-3.52,5.06-3.89,7.53-2.59A3.08,3.08,0,0,1,96,376.68" data-name="fv"/>
  <path class="cls-2" d="M98.44,371.49v-1.85h2v1.85Zm0,14.26V374h2v11.73h-2" data-name="fp"/>
  <path class="cls-2" d="M109.06,373.78c5.49-.25,3.27,7.16,3.7,12h-2v-7.47c0-1.91-.5-3-2.41-3-4.45.12-2.72,6.3-3,10.43h-2L103.32,374h1.85a10.33,10.33,0,0,0,.12,2,3.9,3.9,0,0,1,3.77-2.22" data-name="fs"/>
  <path class="cls-2" d="M125.11,374c-.62,7.72,2.53,18.09-6.79,16.11a3.52,3.52,0,0,1-2.72-2.65l2-.31c.92,2.9,6.17,2,5.49-1.73v-1.85a3.9,3.9,0,0,1-3.77,2.22c-3.33,0-4.19-2.53-4.19-5.92s1-6,4.38-6.05a4,4,0,0,1,3.64,2.16c.06-.62,0-1.42.12-2ZM120,384.39c2.23,0,3.09-2,3.09-4.5s-.86-4.63-3.09-4.63c-2.4,0-2.84,2.1-2.84,4.63s.37,4.5,2.84,4.5" data-name="fz"/>
 </g>
 <g data-name="aA">
  <path class="cls-2" d="M65.14,412.42,63.41,408h-7l-1.72,4.45H52.55l6.23-15.31h2.35l6.11,15.31Zm-2.35-6.11-2.9-7.6c-.74,2.78-1.91,5.07-2.84,7.6h5.74" data-name="fA"/>
  <path class="cls-2" d="M78.22,400.69c-.61,7.72,2.54,18.09-6.79,16.11a3.5,3.5,0,0,1-2.71-2.65l2-.31c.93,2.9,6.18,2,5.5-1.73v-1.85a3.92,3.92,0,0,1-3.77,2.22c-3.33,0-4.2-2.53-4.2-5.93s1-6,4.39-6.05a4,4,0,0,1,3.64,2.16c.06-.61,0-1.41.12-2ZM73.1,411.06c2.22,0,3.09-2,3.09-4.51s-.87-4.63-3.09-4.63c-2.41,0-2.84,2.1-2.84,4.63s.37,4.51,2.84,4.51" data-name="fz"/>
  <path class="cls-2" d="M85.82,400.44c3.89,0,5.31,2.6,5.18,6.55H82.67c0,2.46.86,4.13,3.27,4.19a2.85,2.85,0,0,0,3-1.79l1.73.5c-.68,1.73-2.28,2.77-4.75,2.77-3.58,0-5.43-2.28-5.37-6.17S82.17,400.44,85.82,400.44Zm3.21,5c.37-3.7-4.69-4.75-6-1.73a4.44,4.44,0,0,0-.37,1.73H89" data-name="fh"/>
  <path class="cls-2" d="M99.21,400.44c5.5-.24,3.27,7.16,3.71,12h-2V405c0-1.91-.49-3-2.41-3-4.44.12-2.71,6.29-3,10.43h-2l-.06-11.73h1.85a9.4,9.4,0,0,0,.13,2,3.91,3.91,0,0,1,3.76-2.22" data-name="fs"/>
  <path class="cls-2" d="M108,409.52c-.13,1.48,1.11,1.79,2.34,1.35v1.49c-2,.61-4.32.3-4.32-2.41v-7.84h-1.36v-1.42h1.49l.55-2.65H108v2.65h2.16v1.42H108v7.41" data-name="fi"/>
 </g>
 <g data-name="aC">
  <path class="cls-2" d="m55.45 452.91v4.75h7.84v2.47h-7.84v5.62h-3.21v-15.31h11.29v2.47h-8.08" data-name="fV"/>
  <path class="cls-2" d="M75.08,465.75,68.41,454c.37,3.58.12,7.9.18,11.79H65.75V450.44H69.4l6.79,11.92c-.37-3.58-.13-8-.19-11.92h2.84v15.31H75.08" data-name="fW"/>
  <path class="cls-2" d="M92.55,465.75l-1.36-3.89H85.38L84,465.75H80.82l5.55-15.31h3.77l5.55,15.31Zm-2-6.3-2.22-6.66c-.62,2.34-1.49,4.44-2.23,6.66h4.45" data-name="fX"/>
  <path class="cls-2" d="m108.53 465.75-1.36-3.89h-5.8l-1.37 3.89h-3.2l5.56-15.31h3.77l5.55 15.31zm-2-6.3-2.23-6.66c-0.61 2.34-1.48 4.44-2.22 6.66h4.45" data-name="fX"/>
 </g>
 <g id="dQ">
  <path class="cls-2" d="M54.86,484.7c0,3.27,1.3,5.37,4.51,5.43,2.28.07,3.33-1.35,4-2.9l2.78,1a6.72,6.72,0,0,1-6.79,4.38c-5.07,0-7.41-2.83-7.72-8-.43-6.79,6.73-9.63,12.1-6.6A5.24,5.24,0,0,1,66,481.18l-2.84.74a3.72,3.72,0,0,0-3.83-2.53c-3.21,0-4.38,2.1-4.44,5.31" data-name="gr"/>
  <path class="cls-2" d="m68.26 492.42v-16.11h3.08v16.11h-3.08" data-name="gf"/>
  <path class="cls-2" d="m74.43 478.59v-2.28h3.08v2.28zm0 13.83v-11.73h3.08v11.73h-3.08" data-name="gl"/>
  <path class="cls-2" d="M90.48,489.45a4.94,4.94,0,0,1-5.06,3.21c-3.71-.12-5.5-2.28-5.5-6.17s1.85-6.05,5.56-6.05,5.12,2.78,5.18,6.67H83.13c0,1.91.5,3.39,2.41,3.46a1.91,1.91,0,0,0,2.1-1.36ZM87.7,485.2c.31-2.84-3.52-3.89-4.32-1.3a4.11,4.11,0,0,0-.25,1.3H87.7" data-name="fZ"/>
  <path class="cls-2" d="M99.74,480.44c5.37-.06,3.58,7,3.89,12h-3.09c-.43-3.52,1.42-9.69-2.1-9.69s-2.1,6-2.41,9.69H93l-.06-11.73h2.9A13.35,13.35,0,0,0,96,483a3.85,3.85,0,0,1,3.77-2.6" data-name="gq"/>
  <path class="cls-2" d="M112,492.23c-2.22.87-5.37.43-5.37-2.59v-6.91h-1.48v-2h1.67l.92-2.78h1.92v2.78h2.22v2h-2.22v6.11c-.07,1.42,1,1.91,2.34,1.54v1.85" data-name="gm"/>
 </g>
</svg>
