<?xml version="1.0" encoding="UTF-8"?>
<svg data-name="Layer 1" version="1.1" viewBox="0 0 763 194.5" xmlns="http://www.w3.org/2000/svg">
 <title>Figure11</title>
 <defs>
  <style>.cls-1,.cls-3{fill:#fff;stroke-width:3px;}.cls-1,.cls-4,.cls-5{stroke:#5e5f5f;}.cls-2{fill:#333;}.cls-3{fill-opacity:0;stroke:#010101;stroke-opacity:0;}.cls-4{fill:none;}.cls-4,.cls-5{stroke-width:4px;}.cls-5{fill:#5e5f5f;}</style>
 </defs>
 <path class="cls-1" d="M1.5,86.67a6,6,0,0,1,6-6h148a6,6,0,0,1,6,6V187a6,6,0,0,1-6,6H7.5a6,6,0,0,1-6-6Z"/>
 <g id="H">
  <path id="dY" class="cls-2" d="M55.82,113.55v5.68h8.52V121H55.82v6.17h-2V111.82H64.59v1.73H55.82"/>
  <path id="eb" class="cls-2" d="M77.18,127.13l-8.15-13,.06,13H67.3V111.82h2.41L77.92,125l-.12-13.15h1.91v15.31H77.18"/>
  <path id="eg" class="cls-2" d="M94.09,127.13l-1.73-4.44h-7l-1.73,4.44H81.5l6.23-15.31h2.35l6.11,15.31ZM91.75,121l-2.9-7.59c-.75,2.78-1.92,5.06-2.84,7.59h5.74"/>
  <path class="cls-2" d="m108.91 127.13-1.73-4.44h-7l-1.72 4.44h-2.15l6.24-15.31h2.35l6.1 15.31zm-2.35-6.13-2.9-7.59c-0.74 2.78-1.91 5.06-2.84 7.59h5.74" data-name="eg"/>
 </g>
 <g id="I">
  <path id="eY" class="cls-2" d="M66.28,142.75c-.61-1.73-2.16-2.78-4.5-2.78-3.64,0-5.37,2.47-5.37,6.11s1.79,6.24,5.49,6.24c2.66,0,3.83-1.48,4.82-3.21l1.66.86a6.79,6.79,0,0,1-6.6,4.08c-4.94,0-7.22-3.09-7.47-8-.37-6.42,6.11-9.44,11.54-6.85a5,5,0,0,1,2.41,2.84"/>
  <path id="dZ" class="cls-2" d="m70.67 153.8v-16.11h2v16.11h-2"/>
  <path id="ek" class="cls-2" d="m75.54 139.54v-1.85h2v1.85zm0 14.26v-11.73h2v11.73h-2"/>
  <path id="dW" class="cls-2" d="M85.11,141.82c3.89,0,5.31,2.6,5.19,6.55H82c0,2.47.87,4.13,3.27,4.19a2.86,2.86,0,0,0,3-1.79l1.73.5c-.68,1.73-2.29,2.78-4.76,2.78-3.58,0-5.43-2.29-5.37-6.18S81.47,141.82,85.11,141.82Zm3.21,5c.37-3.7-4.69-4.75-6-1.73a4.62,4.62,0,0,0-.37,1.73h6.36"/>
  <path id="ei" class="cls-2" d="M98.51,141.82c5.49-.24,3.27,7.16,3.7,12h-2v-7.47c0-1.91-.49-3-2.4-3-4.45.12-2.72,6.29-3,10.43h-2l-.06-11.73h1.85a10.33,10.33,0,0,0,.12,2,3.92,3.92,0,0,1,3.77-2.23"/>
  <path id="ej" class="cls-2" d="M107.27,150.9c-.12,1.48,1.11,1.79,2.35,1.36v1.48c-2,.61-4.32.31-4.32-2.41v-7.84h-1.36v-1.42h1.48l.56-2.65h1.29v2.65h2.16v1.42h-2.16v7.41"/>
 </g>
 <path class="cls-1" d="M601.5,86.67a6,6,0,0,1,6-6h148a6,6,0,0,1,6,6V187a6,6,0,0,1-6,6h-148a6,6,0,0,1-6-6Z"/>
 <g data-name="H">
  <path class="cls-2" d="M655.82,113.55v5.68h8.52V121h-8.52v6.17h-2V111.82h10.81v1.73h-8.77" data-name="dY"/>
  <path class="cls-2" d="m677.18 127.13-8.15-13 0.06 13h-1.79v-15.31h2.41l8.21 13.18-0.12-13.15h1.91v15.31h-2.53" data-name="eb"/>
  <path class="cls-2" d="m694.09 127.13-1.73-4.44h-7l-1.73 4.44h-2.13l6.23-15.31h2.35l6.11 15.31zm-2.34-6.13-2.9-7.59c-0.75 2.78-1.92 5.06-2.84 7.59h5.74" data-name="eg"/>
  <path class="cls-2" d="m708.91 127.13-1.73-4.44h-7l-1.72 4.44h-2.17l6.24-15.31h2.35l6.12 15.31zm-2.35-6.13-2.9-7.59c-0.74 2.78-1.91 5.06-2.84 7.59h5.74" data-name="eg"/>
 </g>
 <g id="J">
  <path id="ep" class="cls-2" d="M660.27,142.13c-.31-3-7.6-3.33-7.66.13.87,4.63,9.75.86,10.06,7.34.19,4.82-7.47,5.37-10.8,3.4a4.44,4.44,0,0,1-2-2.84l2-.44c.31,3.46,8.7,3.89,8.7-.06,0-4.81-9.56-.86-10-7.28-.3-5.06,8.95-5.19,11-2.1a5.67,5.67,0,0,1,.68,1.54"/>
  <path class="cls-2" d="m669.83 141.82c3.89 0 5.31 2.6 5.19 6.55h-8.33c0 2.47 0.86 4.13 3.27 4.19a2.86 2.86 0 0 0 3-1.79l1.73 0.5c-0.68 1.73-2.28 2.78-4.75 2.78-3.58 0-5.44-2.29-5.37-6.18s1.62-6.05 5.26-6.05zm3.21 5c0.37-3.7-4.69-4.75-6-1.73a4.44 4.44 0 0 0-0.37 1.73h6.33" data-name="dW"/>
  <path id="dT" class="cls-2" d="M683,143.74c-4.81-1-3.27,5.61-3.52,10.06h-2l-.06-11.73h1.85a15.43,15.43,0,0,0,.12,2.41c.37-1.67,1.42-3,3.58-2.53v1.79"/>
  <path id="en" class="cls-2" d="m690 153.8h-2.35l-4.26-11.73h2.1l3.34 10.19 3.45-10.19h2.1"/>
  <path class="cls-2" d="M700.64,141.82c3.88,0,5.3,2.6,5.18,6.55h-8.33c0,2.47.86,4.13,3.27,4.19a2.86,2.86,0,0,0,3-1.79l1.73.5c-.68,1.73-2.28,2.78-4.75,2.78-3.58,0-5.43-2.29-5.37-6.18S697,141.82,700.64,141.82Zm3.21,5c.37-3.7-4.7-4.75-6-1.73a4.44,4.44,0,0,0-.37,1.73h6.36" data-name="dW"/>
  <path class="cls-2" d="M713.85,143.74c-4.82-1-3.28,5.61-3.52,10.06h-2l-.06-11.73h1.85a14.26,14.26,0,0,0,.13,2.41c.37-1.67,1.42-3,3.58-2.53v1.79" data-name="dT"/>
 </g>
 <path class="cls-3" d="M81.5,7.5a6,6,0,0,1,6-6H694a6,6,0,0,1,6,6V80.17a6,6,0,0,1-6,6H87.5a6,6,0,0,1-6-6Z"/>
 <g id="aJ">
  <path id="fk" class="cls-2" d="M194.87,19v5.23h8.62v2.72h-8.62v6.18h-3.53V16.25h12.42V19h-8.89"/>
  <path class="cls-2" d="M206.27,33.09V15.36h3.4V33.09h-3.4" data-name="eJ"/>
  <path class="cls-2" d="m218.84 19.91c4.34 0 6.51 2.45 6.51 6.73s-2.37 6.72-6.58 6.72-6.45-2.45-6.45-6.72 2.31-6.73 6.52-6.73zm-0.07 11.14c2.38 0 3-1.9 3-4.41 0-2.72-0.67-4.42-2.92-4.42s-3.05 1.77-3.05 4.42c0 2.44 0.68 4.41 2.92 4.41" data-name="eG"/>
  <path id="fn" class="cls-2" d="M241.92,33.09h-3.53l-2.65-10.53L233,33.09H229.5l-3.33-12.9h3.12L231.47,30c.61-3.53,1.63-6.59,2.44-9.84h3.6L240,30l2.17-9.84h3.13"/>
 </g>
 <g id="aK">
  <path class="cls-2" d="M263.92,33.09l-7.33-13c.41,3.94.14,8.69.2,13h-3.12V16.25h4l7.47,13.1c-.41-3.94-.14-8.76-.21-13.1h3.12V33.09h-4.14" data-name="ey"/>
  <path class="cls-2" d="M278.66,30.78c-1.09,1.29-2,2.65-4.35,2.58-2.51-.07-3.94-1.36-3.94-3.94-.06-4.07,3.74-4.28,7.88-4.14.07-1.77-.2-3.19-1.9-3.19a1.76,1.76,0,0,0-1.9,1.83l-3.53-.14c.47-2.58,2.44-3.93,5.56-3.87s5,1.5,5.1,4.62l.07,5.57c-.07.95.81,1.22,1.69,1V33C281.31,33.49,278.52,33.29,278.66,30.78Zm-3.26.2c2,0,2.92-1.63,2.85-3.87-2.17,0-4.48-.2-4.41,2,0,1.15.54,1.83,1.56,1.83" data-name="eB"/>
  <path id="fc" class="cls-2" d="M298.15,22.43c-3.6.61-1.91,6.79-2.31,10.66h-3.33V25.82c.07-1.83-.34-3.33-2-3.39-3.6.68-1.83,6.79-2.24,10.66h-3.4l-.06-12.9H288a14.93,14.93,0,0,0,.2,2.58c.68-3.6,6.86-3.81,7.33,0,.89-1.5,1.63-2.92,4-2.86,5.57.07,3.46,7.88,3.87,13.18h-3.33V25.82c-.06-1.7-.34-3.26-2-3.39"/>
  <path id="eV" class="cls-2" d="M317.5,29.83a5.47,5.47,0,0,1-5.57,3.53c-4.08-.14-6-2.51-6-6.79s2-6.66,6.11-6.66,5.63,3.06,5.7,7.34h-8.28c0,2.1.54,3.73,2.64,3.8a2.09,2.09,0,0,0,2.31-1.49Zm-3.06-4.69c.34-3.12-3.87-4.28-4.75-1.42a4.27,4.27,0,0,0-.27,1.42h5"/>
  <path id="eU" class="cls-2" d="M327.82,23.72c.07-2-4.76-2.31-4.82-.28,1,3.13,8,.48,8.08,5.84.07,5.64-11.14,5.16-11.68.62l2.92-.48c.27,1.29,1.36,1.7,3,1.7,2.24.54,3.87-2,1.63-2.79-2.92-.95-6.93-.74-7.07-4.48-.13-5.43,10.46-5,10.94-.47"/>
  <path id="fr" class="cls-2" d="M341.26,19.91c3.6,0,4.76,3,4.76,6.66s-1.29,6.65-5,6.79c-2.11.07-3.06-1.16-4-2.31.21,2.24.14,4.68.14,7.13h-3.4l-.06-18H337a18,18,0,0,0,.21,2.1C337.94,20.66,339.16,19.91,341.26,19.91Zm-1.42,11.14c2.24,0,2.64-2.11,2.71-4.48,0-2.58-.61-4.35-2.71-4.35-3.81,0-3.74,8.83,0,8.83"/>
  <path class="cls-2" d="M356,30.78c-1.09,1.29-2,2.65-4.35,2.58-2.51-.07-3.94-1.36-3.94-3.94-.06-4.07,3.74-4.28,7.88-4.14.07-1.77-.2-3.19-1.9-3.19a1.76,1.76,0,0,0-1.9,1.83l-3.53-.14c.47-2.58,2.44-3.93,5.56-3.87s5,1.5,5.1,4.62L359,30.1c-.06.95.82,1.22,1.7,1V33C358.65,33.49,355.86,33.29,356,30.78Zm-3.26.2c2,0,2.92-1.63,2.85-3.87-2.17,0-4.48-.2-4.41,2,0,1.15.54,1.83,1.56,1.83" data-name="eB"/>
  <path class="cls-2" d="M373.45,28.81c-.48,2.85-2.58,4.55-5.84,4.55-4,0-5.71-2.58-6.11-6.66-.82-7.47,10.45-9.3,11.81-2.44L370,24.4a2.27,2.27,0,0,0-2.37-2.18c-2,0-2.38,1.9-2.58,4.35-.41,5,4.41,5.91,5,2" data-name="eI"/>
  <path class="cls-2" d="M386.69,29.83a5.45,5.45,0,0,1-5.57,3.53c-4.07-.14-6-2.51-6-6.79s2-6.66,6.11-6.66,5.63,3.06,5.7,7.34h-8.28c0,2.1.54,3.73,2.65,3.8a2.08,2.08,0,0,0,2.3-1.49Zm-3.06-4.69c.34-3.12-3.87-4.28-4.75-1.42a4.27,4.27,0,0,0-.27,1.42h5" data-name="eV"/>
 </g>
 <g id="aL">
  <path id="eZ" class="cls-2" d="m408 33.09-1.49-4.28h-6.39l-1.49 4.28h-3.53l6.11-16.84h4.14l6.11 16.84zm-2.24-6.93-2.45-7.33c-0.67 2.58-1.63 4.89-2.44 7.33h4.89"/>
  <path class="cls-2" d="M425,28.81c-.47,2.85-2.58,4.55-5.83,4.55-4,0-5.71-2.58-6.12-6.66-.81-7.47,10.46-9.3,11.82-2.44l-3.33.14a2.28,2.28,0,0,0-2.37-2.18c-2,0-2.38,1.9-2.59,4.35-.4,5,4.42,5.91,5,2" data-name="eI"/>
  <path class="cls-2" d="M438.56,28.81c-.47,2.85-2.58,4.55-5.83,4.55-4,0-5.71-2.58-6.12-6.66-.81-7.47,10.46-9.3,11.82-2.44l-3.33.14a2.28,2.28,0,0,0-2.37-2.18c-2,0-2.38,1.9-2.58,4.35-.41,5,4.41,5.91,5,2" data-name="eI"/>
  <path class="cls-2" d="M451.81,29.83a5.47,5.47,0,0,1-5.57,3.53c-4.08-.14-6.05-2.51-6.05-6.79s2-6.66,6.12-6.66,5.63,3.06,5.7,7.34h-8.28c0,2.1.54,3.73,2.64,3.8a2.09,2.09,0,0,0,2.31-1.49Zm-3.06-4.69c.34-3.12-3.87-4.28-4.75-1.42a4.27,4.27,0,0,0-.27,1.42h5" data-name="eV"/>
  <path class="cls-2" d="M462.13,23.72c.06-2-4.76-2.31-4.82-.28,1,3.13,8,.48,8.08,5.84.06,5.64-11.14,5.16-11.68.62l2.92-.48c.27,1.29,1.35,1.7,3,1.7,2.24.54,3.87-2,1.63-2.79-2.92-.95-6.92-.74-7.06-4.48-.13-5.43,10.46-5,10.93-.47" data-name="eU"/>
  <path class="cls-2" d="M475.71,23.72c.06-2-4.76-2.31-4.82-.28,1,3.13,8,.48,8.08,5.84.06,5.64-11.14,5.16-11.68.62l2.92-.48c.27,1.29,1.35,1.7,3,1.7,2.25.54,3.87-2,1.63-2.79-2.92-.95-6.92-.74-7.06-4.48-.13-5.43,10.46-5,10.93-.47" data-name="eU"/>
  <path id="fg" class="cls-2" d="m481.68 17.88v-2.52h3.4v2.52zm0 15.21v-12.9h3.4v12.9h-3.4"/>
  <path id="eT" class="cls-2" d="M495.94,19.91c5.91-.06,3.94,7.68,4.28,13.18h-3.4c-.47-3.87,1.57-10.66-2.3-10.66s-2.31,6.58-2.65,10.66h-3.4l-.07-12.9h3.2a14.93,14.93,0,0,0,.2,2.58,4.23,4.23,0,0,1,4.14-2.86"/>
  <path id="fp" class="cls-2" d="M514.89,32.68c.74,6-8.15,7.2-11.14,3.53a4.34,4.34,0,0,1-.54-1.43l3.32-.4a2.19,2.19,0,0,0,2.31,1.69c2.72,0,2.85-2.51,2.72-5.36a4.22,4.22,0,0,1-4.14,2.38c-3.6,0-4.76-2.92-4.76-6.59s1.23-6.52,5-6.59a4.39,4.39,0,0,1,4,2.31l.13-2H515Zm-6.12-2c2.18,0,2.79-1.83,2.79-4.28s-.61-4.21-2.72-4.21-2.65,2-2.71,4.28.61,4.21,2.64,4.21"/>
 </g>
 <g id="aM">
  <path class="cls-2" d="M536.82,33.09l-1.5-4.28h-6.38l-1.49,4.28h-3.53L530,16.25h4.14l6.11,16.84Zm-2.24-6.93-2.45-7.33c-.68,2.58-1.63,4.89-2.44,7.33h4.89" data-name="eZ"/>
  <path class="cls-2" d="M554.13,32.68c.75,6-8.15,7.2-11.13,3.53a4.58,4.58,0,0,1-.55-1.43l3.33-.4a2.18,2.18,0,0,0,2.31,1.69c2.72,0,2.85-2.51,2.72-5.36a4.23,4.23,0,0,1-4.15,2.38c-3.6,0-4.75-2.92-4.75-6.59s1.22-6.52,5-6.59a4.38,4.38,0,0,1,4,2.31l.14-2h3.19Zm-6.11-2c2.17,0,2.79-1.83,2.79-4.28s-.62-4.21-2.72-4.21-2.65,2-2.72,4.28.61,4.21,2.65,4.21" data-name="fp"/>
  <path class="cls-2" d="M568.32,29.83a5.45,5.45,0,0,1-5.56,3.53c-4.08-.14-6-2.51-6-6.79s2-6.66,6.11-6.66,5.64,3.06,5.71,7.34h-8.29c0,2.1.55,3.73,2.65,3.8a2.1,2.1,0,0,0,2.31-1.49Zm-3.05-4.69c.34-3.12-3.87-4.28-4.75-1.42a4.26,4.26,0,0,0-.28,1.42h5" data-name="eV"/>
  <path class="cls-2" d="M578.51,19.91c5.91-.06,3.94,7.68,4.28,13.18h-3.4c-.47-3.87,1.56-10.66-2.31-10.66s-2.31,6.58-2.64,10.66H571L571,20.19h3.19a16,16,0,0,0,.21,2.58,4.23,4.23,0,0,1,4.14-2.86" data-name="eT"/>
  <path id="eH" class="cls-2" d="M592,32.88c-2.44.95-5.91.48-5.91-2.85v-7.6h-1.63V20.19h1.84l1-3.06h2.1v3.06h2.45v2.24h-2.45v6.72c-.07,1.56,1.09,2.1,2.58,1.7v2"/>
 </g>
 <g id="aN">
  <path id="eS" class="cls-2" d="M308.09,53.93c0,3.6,1.43,5.91,5,6,2.51.07,3.67-1.5,4.41-3.19l3.06,1.15c-1.16,2.85-3.46,4.82-7.47,4.82-5.57,0-8.15-3.12-8.49-8.76-.47-7.47,7.4-10.59,13.31-7.26a5.78,5.78,0,0,1,2.44,3.39l-3.12.82A4.09,4.09,0,0,0,313,48.09c-3.53,0-4.82,2.31-4.89,5.84"/>
  <path class="cls-2" d="M322.83,62.42V44.7h3.39V62.42h-3.39" data-name="eJ"/>
  <path class="cls-2" d="M329.62,47.21V44.7H333v2.51Zm0,15.21V49.52H333v12.9h-3.39" data-name="fg"/>
  <path class="cls-2" d="M347.27,59.16a5.44,5.44,0,0,1-5.57,3.53c-4.07-.13-6-2.51-6-6.79s2-6.65,6.11-6.65,5.64,3,5.71,7.33h-8.29c0,2.11.54,3.74,2.65,3.8a2.09,2.09,0,0,0,2.31-1.49Zm-3-4.68c.34-3.13-3.87-4.28-4.76-1.43a4.61,4.61,0,0,0-.27,1.43h5" data-name="eV"/>
  <path class="cls-2" d="M357.46,49.25c5.9-.07,3.94,7.67,4.27,13.17h-3.39c-.48-3.87,1.56-10.66-2.31-10.66s-2.31,6.59-2.65,10.66H350l-.07-12.9h3.19a16,16,0,0,0,.2,2.58,4.24,4.24,0,0,1,4.15-2.85" data-name="eT"/>
  <path class="cls-2" d="M371,62.22c-2.45,1-5.91.47-5.91-2.86v-7.6h-1.63V49.52h1.84l1-3.06h2.11v3.06h2.44v2.24h-2.44v6.72c-.07,1.56,1.09,2.11,2.58,1.7v2" data-name="eH"/>
 </g>
 <g id="aO">
  <path id="fs" class="cls-2" d="m389.44 61.13c-3 2.58-10.66 2-10.32-3.33 0.2-2.92 2-4.07 4-5.09-1.69-3-0.81-7.54 3.6-7.2 2.51 0.21 4.35 1 4.35 3.53 0 2.92-2.72 3.53-4.69 4.62a22.65 22.65 0 0 0 2.92 4 12 12 0 0 0 1.9-4.35l2.52 0.88a16.49 16.49 0 0 1-2.31 5 3.87 3.87 0 0 0 3.53 0.68v2.37a5.88 5.88 0 0 1-5.5-1.11zm-3.94-9.44c1.29-0.61 2.92-0.95 2.92-2.65 0-0.95-0.68-1.49-1.7-1.49-2.31 0-2.24 2.78-1.22 4.14zm-3.4 6.11c-0.2 2.72 3.74 3.19 5.37 1.7a25.09 25.09 0 0 1-3.26-4.5 3.09 3.09 0 0 0-2.11 2.85"/>
 </g>
 <g id="aP">
  <path class="cls-2" d="M413.88,50.06c-.07-2.92-6.38-3.12-6.58-.2,1.22,4.48,10.25.68,10.45,7.74.21,6.45-11.2,6.31-13.85,2.44a4.82,4.82,0,0,1-.81-2l3.39-.55c.21,3.13,7.61,3.81,7.88.34-1.16-4.68-10.19-.68-10.46-7.74-.27-5.91,10.39-6,12.77-2.37a5.81,5.81,0,0,1,.68,1.9" data-name="ez"/>
  <path class="cls-2" d="M431.27,59.16a5.46,5.46,0,0,1-5.57,3.53c-4.08-.13-6.05-2.51-6.05-6.79s2-6.65,6.12-6.65,5.63,3,5.7,7.33h-8.28c0,2.11.54,3.74,2.64,3.8a2.08,2.08,0,0,0,2.31-1.49Zm-3.06-4.68c.34-3.13-3.87-4.28-4.75-1.43a4.33,4.33,0,0,0-.27,1.43h5" data-name="eV"/>
  <path id="eF" class="cls-2" d="M441.45,52.23c-2.65-.81-4.07.89-4.07,3.88v6.31H434l-.07-12.9h3.19a17.54,17.54,0,0,0,.21,2.71c.41-1.9,1.83-3.59,4.14-2.78v2.78"/>
  <path id="fq" class="cls-2" d="m450.48 62.42h-4l-4.62-12.9h3.6l3.05 10.18 3.26-10.18h3.53"/>
  <path class="cls-2" d="M467.93,59.16a5.44,5.44,0,0,1-5.57,3.53c-4.07-.13-6-2.51-6-6.79s2-6.65,6.11-6.65,5.64,3,5.71,7.33h-8.29c0,2.11.55,3.74,2.65,3.8a2.09,2.09,0,0,0,2.31-1.49Zm-3.05-4.68c.34-3.13-3.87-4.28-4.76-1.43a4.61,4.61,0,0,0-.27,1.43h5" data-name="eV"/>
  <path class="cls-2" d="M478.12,52.23c-2.65-.81-4.08.89-4.08,3.88v6.31h-3.39l-.07-12.9h3.19a16.38,16.38,0,0,0,.21,2.71c.4-1.9,1.83-3.59,4.14-2.78v2.78" data-name="eF"/>
 </g>
 <path class="cls-4" d="m185.74 140.63h391.52m-391.52 8h391.52"/>
 <path class="cls-5" d="M169.47,144.63,183.74,140v9.26Zm424.06,0-14.27,4.63V140Z"/>
 <g id="aW">
  <path class="cls-2" d="m232.93 123.25v3.8h6.27v2h-6.27v4.5h-2.57v-12.28h9v2h-6.47" data-name="fk"/>
  <path class="cls-2" d="m241.23 133.52v-12.89h2.47v12.89h-2.47" data-name="eJ"/>
  <path class="cls-2" d="m250.36 123.94c3.16 0 4.74 1.78 4.74 4.89s-1.72 4.89-4.79 4.89-4.69-1.78-4.69-4.89 1.68-4.89 4.74-4.89zm-0.05 8.1c1.73 0 2.23-1.39 2.23-3.21 0-2-0.5-3.21-2.13-3.21s-2.22 1.28-2.22 3.21c0 1.77 0.5 3.21 2.12 3.21" data-name="eG"/>
  <path class="cls-2" d="M267.15,133.52h-2.56l-1.93-7.66-2,7.66h-2.57l-2.42-9.39H258l1.58,7.17c.44-2.57,1.18-4.79,1.78-7.17h2.61l1.83,7.17,1.58-7.17h2.27" data-name="fn"/>
 </g>
 <g id="aZ">
  <path class="cls-2" d="M283.15,133.52l-5.33-9.43c.3,2.86.1,6.32.15,9.43H275.7V121.27h2.91L284,130.8c-.29-2.86-.1-6.37-.14-9.53h2.27v12.25h-3" data-name="ey"/>
  <path class="cls-2" d="M293.87,131.84c-.79.94-1.48,1.92-3.16,1.88a2.6,2.6,0,0,1-2.86-2.87c-.05-3,2.71-3.11,5.72-3,.05-1.29-.14-2.32-1.38-2.32a1.28,1.28,0,0,0-1.38,1.33l-2.57-.1c.35-1.87,1.78-2.86,4.05-2.81s3.65,1.08,3.7,3.36l.05,4c-.05.7.6.89,1.24.75v1.33C295.8,133.81,293.77,133.67,293.87,131.84Zm-2.37.15c1.43,0,2.12-1.19,2.07-2.82-1.58,0-3.26-.15-3.21,1.48,0,.84.4,1.34,1.14,1.34" data-name="eB"/>
  <path class="cls-2" d="M308,125.76c-2.61.45-1.38,4.94-1.68,7.76h-2.42v-5.29c.05-1.33-.24-2.42-1.43-2.47-2.61.5-1.33,4.94-1.63,7.76h-2.47l-.05-9.39h2.33a11,11,0,0,0,.14,1.88c.5-2.62,5-2.76,5.34,0,.64-1.08,1.18-2.12,2.91-2.07,4.05,0,2.52,5.73,2.82,9.58h-2.42v-5.29c-.05-1.23-.25-2.37-1.44-2.47" data-name="fc"/>
  <path class="cls-2" d="M322.12,131.15a4,4,0,0,1-4.05,2.57c-3-.1-4.4-1.83-4.4-4.94s1.48-4.84,4.45-4.84,4.1,2.22,4.15,5.33h-6c0,1.53.4,2.72,1.93,2.77a1.52,1.52,0,0,0,1.68-1.09Zm-2.22-3.41c.24-2.27-2.82-3.11-3.46-1a3.21,3.21,0,0,0-.2,1h3.66" data-name="eV"/>
  <path class="cls-2" d="M329.62,126.7c.05-1.43-3.45-1.68-3.5-.19.74,2.27,5.82.34,5.87,4.24.05,4.1-8.09,3.76-8.49.45l2.12-.35c.2.94,1,1.24,2.18,1.24,1.63.39,2.81-1.49,1.18-2-2.12-.69-5-.54-5.13-3.26-.1-4,7.6-3.65,7.95-.34" data-name="eU"/>
  <path class="cls-2" d="M339.4,123.94c2.62,0,3.46,2.17,3.46,4.84s-.94,4.84-3.61,4.94a3.39,3.39,0,0,1-2.91-1.68c.15,1.63.1,3.4.1,5.18H334l-.05-13.09h2.37a13.4,13.4,0,0,0,.15,1.54A2.85,2.85,0,0,1,339.4,123.94Zm-1,8.1c1.63,0,1.93-1.53,2-3.26,0-1.88-.44-3.16-2-3.16-2.76,0-2.71,6.42,0,6.42" data-name="fr"/>
  <path class="cls-2" d="M350.12,131.84c-.79.94-1.48,1.92-3.16,1.88a2.61,2.61,0,0,1-2.87-2.87c0-3,2.72-3.11,5.73-3,.05-1.29-.15-2.32-1.38-2.32a1.27,1.27,0,0,0-1.38,1.33l-2.57-.1c.34-1.87,1.78-2.86,4.05-2.81s3.65,1.08,3.7,3.36l.05,4c-.05.7.59.89,1.23.75v1.33C352,133.81,350,133.67,350.12,131.84Zm-2.37.15c1.43,0,2.12-1.19,2.07-2.82-1.58,0-3.26-.15-3.21,1.48,0,.84.4,1.34,1.14,1.34" data-name="eB"/>
  <path class="cls-2" d="M362.81,130.41c-.35,2.07-1.88,3.31-4.25,3.31-2.91,0-4.15-1.88-4.44-4.84-.6-5.44,7.6-6.77,8.59-1.78l-2.42.1a1.66,1.66,0,0,0-1.73-1.58c-1.48,0-1.73,1.38-1.87,3.16-.3,3.65,3.21,4.29,3.65,1.48" data-name="eI"/>
  <path class="cls-2" d="M372.44,131.15a4,4,0,0,1-4.05,2.57c-3-.1-4.4-1.83-4.4-4.94s1.49-4.84,4.45-4.84,4.1,2.22,4.15,5.33h-6c0,1.53.4,2.72,1.93,2.77a1.52,1.52,0,0,0,1.68-1.09Zm-2.22-3.41c.24-2.27-2.82-3.11-3.46-1a3.21,3.21,0,0,0-.2,1h3.66" data-name="eV"/>
 </g>
 <g id="ba">
  <path class="cls-2" d="m387.94 133.52-1.08-3.11h-4.64l-1.09 3.11h-2.57l4.44-12.25h3l4.44 12.25zm-1.63-5-1.77-5.33c-0.5 1.87-1.19 3.55-1.78 5.33h3.55" data-name="eZ"/>
  <path class="cls-2" d="M400.29,130.41c-.35,2.07-1.88,3.31-4.25,3.31-2.91,0-4.14-1.88-4.44-4.84-.59-5.44,7.6-6.77,8.59-1.78l-2.42.1a1.66,1.66,0,0,0-1.73-1.58c-1.48,0-1.73,1.38-1.87,3.16-.3,3.65,3.21,4.29,3.65,1.48" data-name="eI"/>
  <path class="cls-2" d="M410.17,130.41c-.35,2.07-1.88,3.31-4.25,3.31-2.91,0-4.15-1.88-4.44-4.84-.6-5.44,7.6-6.77,8.59-1.78l-2.42.1a1.66,1.66,0,0,0-1.73-1.58c-1.48,0-1.73,1.38-1.88,3.16-.29,3.65,3.21,4.29,3.66,1.48" data-name="eI"/>
  <path class="cls-2" d="M419.8,131.15a4,4,0,0,1-4.05,2.57c-3-.1-4.4-1.83-4.4-4.94s1.48-4.84,4.45-4.84,4.1,2.22,4.14,5.33h-6c0,1.53.39,2.72,1.93,2.77a1.51,1.51,0,0,0,1.67-1.09Zm-2.23-3.41c.25-2.27-2.81-3.11-3.45-1a3.21,3.21,0,0,0-.2,1h3.65" data-name="eV"/>
  <path class="cls-2" d="M427.3,126.7c.05-1.43-3.45-1.68-3.5-.19.74,2.27,5.82.34,5.87,4.24.05,4.1-8.1,3.76-8.49.45l2.12-.35c.2.94,1,1.24,2.18,1.24,1.62.39,2.81-1.49,1.18-2-2.12-.69-5-.54-5.14-3.26-.09-4,7.61-3.65,8-.34" data-name="eU"/>
  <path class="cls-2" d="m431.65 122.46v-1.83h2.47v1.83zm0 11.06v-9.39h2.47v9.39h-2.47" data-name="fg"/>
  <path class="cls-2" d="M442,123.94c4.29,0,2.86,5.58,3.11,9.58h-2.47c-.35-2.82,1.14-7.76-1.68-7.76s-1.68,4.79-1.92,7.76h-2.47l0-9.39h2.32A10.94,10.94,0,0,0,439,126a3.07,3.07,0,0,1,3-2.07" data-name="eT"/>
  <path class="cls-2" d="M455.8,133.22c.54,4.35-5.93,5.24-8.1,2.57a3.22,3.22,0,0,1-.4-1l2.42-.29a1.59,1.59,0,0,0,1.68,1.23c2,0,2.08-1.83,2-3.9a3.07,3.07,0,0,1-3,1.73c-2.61,0-3.45-2.13-3.45-4.79s.89-4.74,3.6-4.79a3.21,3.21,0,0,1,2.92,1.68l.09-1.49h2.33Zm-4.45-1.43c1.58,0,2-1.33,2-3.11s-.45-3.06-2-3.06-1.92,1.43-2,3.11.44,3.06,1.92,3.06" data-name="fp"/>
 </g>
 <g id="bb">
  <path id="eE" class="cls-2" d="M463.1,121.27c4.6,0,10.18-.79,10.08,3.9-.05,3.71-3.41,4.35-7.51,4v4.3H463.1Zm2.57,6c2.32,0,4.94.34,4.94-2s-2.67-1.92-4.94-1.92v4"/>
  <path class="cls-2" d="M480.44,126.11c-1.93-.59-3,.64-3,2.82v4.59H475l-.05-9.39h2.32a12.17,12.17,0,0,0,.15,2c.29-1.38,1.33-2.62,3-2v2" data-name="eF"/>
  <path class="cls-2" d="m486.12 123.94c3.16 0 4.74 1.78 4.74 4.89s-1.73 4.89-4.79 4.89-4.69-1.78-4.69-4.89 1.68-4.89 4.74-4.89zm-0.05 8.1c1.73 0 2.22-1.39 2.22-3.21 0-2-0.49-3.21-2.12-3.21s-2.23 1.28-2.23 3.21c0 1.77 0.5 3.21 2.13 3.21" data-name="eG"/>
  <path class="cls-2" d="M497.18,133.37c-1.78.69-4.3.35-4.3-2.07v-5.54H491.7v-1.63H493l.74-2.22h1.53v2.22h1.78v1.63H495.3v4.89c-.05,1.14.79,1.53,1.88,1.24v1.48" data-name="eH"/>
  <path class="cls-2" d="m502.81 123.94c3.16 0 4.74 1.78 4.74 4.89s-1.73 4.89-4.79 4.89-4.69-1.78-4.69-4.89 1.68-4.89 4.74-4.89zm-0.05 8.1c1.73 0 2.22-1.39 2.22-3.21 0-2-0.49-3.21-2.12-3.21s-2.22 1.28-2.22 3.21c0 1.77 0.49 3.21 2.12 3.21" data-name="eG"/>
  <path class="cls-2" d="M517.57,130.41c-.34,2.07-1.87,3.31-4.24,3.31-2.92,0-4.15-1.88-4.45-4.84-.59-5.44,7.61-6.77,8.6-1.78l-2.42.1a1.66,1.66,0,0,0-1.73-1.58c-1.48,0-1.73,1.38-1.88,3.16-.3,3.65,3.21,4.29,3.65,1.48" data-name="eI"/>
  <path class="cls-2" d="m523.5 123.94c3.16 0 4.74 1.78 4.74 4.89s-1.73 4.89-4.79 4.89-4.69-1.78-4.69-4.89 1.68-4.89 4.74-4.89zm0 8.1c1.73 0 2.22-1.39 2.22-3.21 0-2-0.49-3.21-2.12-3.21s-2.22 1.28-2.22 3.21c0 1.77 0.49 3.21 2.12 3.21" data-name="eG"/>
  <path class="cls-2" d="m530.12 133.52v-12.89h2.47v12.89h-2.47" data-name="eJ"/>
 </g>
</svg>
