<?xml version="1.0" encoding="UTF-8"?>
<svg data-name="Layer 1" version="1.1" viewBox="0 0 695 265.74" xmlns="http://www.w3.org/2000/svg">
 <title>Figure3</title>
 <defs>
  <style>.cls-1{fill:#fff;stroke:#5e5f5f;stroke-width:3px;}.cls-2{fill:#333;}.cls-3{fill:#5e5f5f;}</style>
 </defs>
 <path class="cls-1" d="m533.5 150.24a6 6 0 0 1 6-6h148a6 6 0 0 1 6 6v108a6 6 0 0 1-6 6h-148a6 6 0 0 1-6-6z"/>
 <g id="eW">
  <path id="fx" class="cls-2" d="M595.81,172.44v5.68h8.52v1.73h-8.52V186h-2V170.71h10.8v1.73h-8.77"/>
  <path id="fE" class="cls-2" d="M607.3,186V170.71h11.54v1.73h-9.51v4.88h8.89V179h-8.89v5.37h10V186h-12"/>
  <path id="fH" class="cls-2" d="M630.14,177.93c2.16.31,3.76,1.42,3.76,3.77,0,5.37-6.54,4.2-11.79,4.32V170.71c4.69.19,10.93-1.05,10.93,3.7A3.39,3.39,0,0,1,630.14,177.93Zm-6-.68c3.08-.06,6.79.56,6.79-2.59,0-2.9-3.89-2.22-6.79-2.28Zm0,7.1c3.39-.12,7.65.87,7.65-2.77,0-3.46-4.32-2.6-7.65-2.72v5.49"/>
 </g>
 <g id="bC">
  <path class="cls-2" d="m568.29 198.27v4.54h6.81v1.38h-6.81v4.94h-1.63v-12.25h8.64v1.39h-7" data-name="fx"/>
  <path id="fy" class="cls-2" d="m577.18 209.13v-12.89h1.58v12.89h-1.58"/>
  <path id="fk" class="cls-2" d="m584.83 199.55c3.06-0.05 4.2 1.83 4.2 4.89s-1.33 4.89-4.25 4.89-4.1-1.93-4.14-4.89c0-3.26 1.36-4.89 4.19-4.89zm-0.05 8.59c2.18 0.05 2.62-1.53 2.62-3.7s-0.39-3.7-2.52-3.7-2.61 1.58-2.61 3.7 0.49 3.65 2.51 3.7"/>
  <path id="fj" class="cls-2" d="M599.94,209.13h-1.77l-2-8.1-2,8.1h-1.78l-2.67-9.38h1.58l1.93,8.1,2.12-8.1H597l2,8.1,2.07-8.1h1.53"/>
 </g>
 <g id="eX">
  <path class="cls-2" d="M609,209.13V196.88h9.24v1.39h-7.61v3.9h7.11v1.33h-7.11v4.3h8v1.33H609" data-name="fE"/>
  <path id="fF" class="cls-2" d="m624.69 209.13h-1.88l-3.41-9.38h1.68l2.67 8.15 2.76-8.15h1.68"/>
  <path class="cls-2" d="m633.18 199.55c3.11 0 4.25 2.07 4.15 5.24h-6.67c0 2 0.69 3.3 2.62 3.35a2.3 2.3 0 0 0 2.42-1.43l1.38 0.4c-0.54 1.38-1.83 2.22-3.8 2.22-2.87 0-4.35-1.83-4.3-4.94s1.29-4.84 4.2-4.84zm2.57 4a2.53 2.53 0 0 0-4.79-1.38 3.53 3.53 0 0 0-0.3 1.38h5.09" data-name="fh"/>
  <path id="fs" class="cls-2" d="M643.9,199.55c4.39-.2,2.61,5.73,3,9.58h-1.58v-6c0-1.54-.4-2.42-1.93-2.37-3.55.09-2.17,5-2.42,8.34h-1.58l-.05-9.38h1.48a7.93,7.93,0,0,0,.1,1.58,3.13,3.13,0,0,1,3-1.78"/>
  <path id="fi" class="cls-2" d="M650.91,206.81c-.1,1.19.89,1.43,1.87,1.09v1.18c-1.63.5-3.45.25-3.45-1.92v-6.28h-1.09v-1.13h1.19l.44-2.13h1v2.13h1.73v1.13h-1.73v5.93"/>
  <path id="fv" class="cls-2" d="M659.6,202.07c-.15-1.68-4.25-1.88-4.3,0,.74,2.62,5.68.59,5.88,4.44s-7.41,3.66-7.75.4l1.38-.25c.2,1.78,4.79,2.22,4.84,0-.5-2.76-5.58-.74-5.83-4.44-.2-2.82,4-3.11,6-2.08a2.5,2.5,0,0,1,1.18,1.73"/>
 </g>
 <g id="eY">
  <path class="cls-2" d="M595.28,224c1.73.25,3,1.14,3,3,0,4.29-5.23,3.36-9.43,3.45V218.22c3.75.15,8.74-.84,8.74,3A2.7,2.7,0,0,1,595.28,224Zm-4.79-.54c2.47,0,5.43.45,5.43-2.07,0-2.32-3.11-1.78-5.43-1.83Zm0,5.68c2.71-.1,6.12.69,6.12-2.22s-3.46-2.08-6.12-2.17v4.39" data-name="fH"/>
  <path id="fl" class="cls-2" d="M604.86,222.41c-3.85-.79-2.62,4.5-2.82,8.05h-1.58l-.05-9.38h1.49A12,12,0,0,0,602,223c.3-1.34,1.14-2.42,2.87-2v1.43"/>
  <path class="cls-2" d="m610 220.88c3.07 0 4.2 1.83 4.2 4.89s-1.33 4.89-4.25 4.89-4.09-1.92-4.14-4.89c0.04-3.26 1.42-4.89 4.19-4.89zm0 8.6c2.18 0.05 2.62-1.53 2.62-3.71s-0.39-3.7-2.52-3.7-2.61 1.58-2.61 3.7 0.49 3.66 2.51 3.71" data-name="fk"/>
  <path id="fm" class="cls-2" d="M622,230.46l-3.16-4.29-1.13.94v3.35h-1.58V217.58h1.58v8l4.1-4.54h1.82l-3.8,4,4,5.33H622"/>
  <path class="cls-2" d="m628.81 220.88c3.11 0 4.25 2.08 4.15 5.24h-6.67c0 2 0.69 3.31 2.62 3.36a2.31 2.31 0 0 0 2.42-1.44l1.38 0.4c-0.54 1.38-1.83 2.22-3.8 2.22-2.87 0-4.35-1.83-4.3-4.94s1.29-4.84 4.2-4.84zm2.57 4a2.53 2.53 0 0 0-4.79-1.38 3.57 3.57 0 0 0-0.3 1.38h5.09" data-name="fh"/>
  <path class="cls-2" d="M639.38,222.41c-3.85-.79-2.62,4.5-2.82,8.05H635l-.05-9.38h1.48a11.92,11.92,0,0,0,.1,1.93c.3-1.34,1.14-2.42,2.87-2v1.43" data-name="fl"/>
 </g>
 <path class="cls-3" d="M291.33,163.08H164v-2H291.33m222.17,2H403.67v-2H513.5"/>
 <path class="cls-3" d="m164 163.08h-1v-2h1m364.73 1-14.26 4.63v-9.28z"/>
 <path class="cls-3" d="m532 162.08-18.5 6v-12m2 9.27 10-3.26-10-3.27"/>
 <g id="aY">
  <path id="gr" class="cls-2" d="M294.64,159.45c0,2.62,1,4.3,3.6,4.35a3.25,3.25,0,0,0,3.21-2.32l2.22.84a5.38,5.38,0,0,1-5.43,3.5c-4.05,0-5.93-2.27-6.17-6.37-.35-5.43,5.38-7.7,9.68-5.28a4.15,4.15,0,0,1,1.77,2.47l-2.27.59a3,3,0,0,0-3.06-2c-2.57,0-3.5,1.67-3.55,4.24"/>
  <path id="ga" class="cls-2" d="M310.78,158.22c-1.92-.59-3,.64-3,2.81v4.6h-2.47l-.05-9.39h2.32a12.26,12.26,0,0,0,.15,2c.3-1.38,1.33-2.62,3-2v2"/>
  <path id="fZ" class="cls-2" d="M320.17,163.26a4,4,0,0,1-4.05,2.56c-3-.1-4.4-1.82-4.4-4.94s1.48-4.83,4.45-4.83,4.1,2.22,4.14,5.33h-6c0,1.53.4,2.71,1.93,2.76a1.52,1.52,0,0,0,1.68-1.08Zm-2.23-3.41c.25-2.27-2.81-3.11-3.45-1a3.21,3.21,0,0,0-.2,1h3.65"/>
  <path id="gp" class="cls-2" d="M327.48,164c-.79.93-1.49,1.92-3.17,1.87a2.6,2.6,0,0,1-2.86-2.86c-.05-3,2.72-3.11,5.73-3,.05-1.29-.15-2.32-1.38-2.32a1.29,1.29,0,0,0-1.39,1.33l-2.56-.1c.34-1.88,1.77-2.86,4-2.81s3.65,1.08,3.7,3.35l0,4c0,.69.59.89,1.23.74v1.34C329.4,165.92,327.38,165.77,327.48,164Zm-2.38.14c1.44,0,2.13-1.18,2.08-2.81-1.58,0-3.26-.15-3.21,1.48,0,.84.39,1.33,1.13,1.33"/>
  <path id="gm" class="cls-2" d="M336.46,165.48c-1.77.69-4.29.34-4.29-2.08v-5.53H331v-1.63h1.33l.75-2.22h1.53v2.22h1.77v1.63h-1.77v4.89c0,1.14.79,1.53,1.87,1.24v1.48"/>
  <path class="cls-2" d="M345.8,163.26a4,4,0,0,1-4.05,2.56c-3-.1-4.4-1.82-4.4-4.94s1.48-4.83,4.45-4.83,4.1,2.22,4.14,5.33h-6c0,1.53.39,2.71,1.93,2.76a1.51,1.51,0,0,0,1.67-1.08Zm-2.23-3.41c.25-2.27-2.81-3.11-3.45-1a3.21,3.21,0,0,0-.2,1h3.65" data-name="fZ"/>
 </g>
 <g id="aZ">
  <path id="gw" class="cls-2" d="m355.62 165.82c-2.56 0-3.4-2.22-3.4-4.89s0.89-4.88 3.6-4.88a2.92 2.92 0 0 1 2.87 1.67l0.09-1.48h2.37v13.09h-2.42v-5.28a3.11 3.11 0 0 1-3.11 1.77zm1-1.68c1.58 0 2-1.43 2-3.26s-0.45-3.16-2-3.16-1.93 1.49-2 3.21c0 2.13 0.65 3.21 1.93 3.21"/>
  <path id="gs" class="cls-2" d="M366.49,165.82c-4.3.05-2.87-5.58-3.11-9.58h2.47c.34,2.82-1.14,7.41,1.63,7.76,3-.25,1.72-4.79,2-7.76h2.47l.05,9.39h-2.32a10.94,10.94,0,0,0-.15-1.88,3.07,3.07,0,0,1-3,2.07"/>
  <path class="cls-2" d="M382.24,163.26a4,4,0,0,1-4.05,2.56c-3-.1-4.39-1.82-4.39-4.94s1.48-4.83,4.44-4.83,4.1,2.22,4.15,5.33h-6c0,1.53.4,2.71,1.93,2.76a1.52,1.52,0,0,0,1.68-1.08ZM380,159.85c.25-2.27-2.82-3.11-3.46-1a3.21,3.21,0,0,0-.2,1H380" data-name="fZ"/>
  <path class="cls-2" d="M387.18,165.82c-4.3.05-2.86-5.58-3.11-9.58h2.47c.34,2.82-1.14,7.41,1.63,7.76,3-.25,1.73-4.79,2-7.76h2.47l.05,9.39h-2.32a10.94,10.94,0,0,0-.15-1.88,3.07,3.07,0,0,1-3,2.07" data-name="gs"/>
  <path class="cls-2" d="M402.93,163.26a4,4,0,0,1-4.05,2.56c-3-.1-4.39-1.82-4.39-4.94s1.48-4.83,4.44-4.83,4.1,2.22,4.15,5.33h-6c0,1.53.39,2.71,1.92,2.76a1.52,1.52,0,0,0,1.68-1.08Zm-2.22-3.41c.25-2.27-2.81-3.11-3.46-1a3.21,3.21,0,0,0-.19,1h3.65" data-name="fZ"/>
 </g>
 <path class="cls-3" d="M297.25,185.18H164v-2H297.25m216.25,2H397.75v-2H513.5"/>
 <path class="cls-3" d="m164 185.18h-1v-2h1m364.73 1-14.26 4.63v-9.27z"/>
 <path class="cls-3" d="m532 184.18-18.5 6v-12m2 9.26 10-3.26-10-3.26"/>
 <g id="ba">
  <path id="gc" class="cls-2" d="m309.1 179.14a3.36 3.36 0 0 1-2.66 3.46l3.31 5.13h-2.92l-2.83-4.64h-3v4.64h-2.57v-12.24c4.57 0.19 10.72-1.14 10.67 3.65zm-8.09 2c2.37-0.1 5.53 0.59 5.53-1.88s-3.26-1.58-5.53-1.73v3.61"/>
  <path class="cls-2" d="M319.18,185.36a4,4,0,0,1-4.05,2.57c-3-.1-4.4-1.83-4.4-4.94s1.49-4.84,4.45-4.84,4.1,2.23,4.15,5.34h-6c0,1.53.4,2.71,1.93,2.76a1.52,1.52,0,0,0,1.68-1.08ZM317,182c.24-2.28-2.82-3.12-3.46-1a3.21,3.21,0,0,0-.2,1H317" data-name="fZ"/>
  <path class="cls-2" d="M326.49,186.05c-.79.94-1.48,1.93-3.16,1.88a2.6,2.6,0,0,1-2.87-2.86c0-3,2.72-3.11,5.73-3,.05-1.28-.15-2.32-1.38-2.32a1.28,1.28,0,0,0-1.38,1.34l-2.57-.1c.34-1.88,1.78-2.87,4.05-2.82s3.65,1.09,3.7,3.36l.05,4.05c-.05.69.59.89,1.23.74v1.33C328.41,188,326.39,187.88,326.49,186.05Zm-2.37.15c1.43,0,2.12-1.18,2.07-2.81-1.58,0-3.26-.15-3.21,1.48,0,.84.4,1.33,1.14,1.33" data-name="gp"/>
  <path id="go" class="cls-2" d="m334.14 178.15a3 3 0 0 1 2.87 1.68l-0.05-5h2.47l0.05 12.89h-2.38a13.56 13.56 0 0 0-0.14-1.53 3 3 0 0 1-3 1.73c-2.56 0-3.35-2.22-3.4-4.89s0.92-4.78 3.58-4.88zm0.84 8.1c1.63 0 2-1.48 2-3.26s-0.45-3.16-2-3.16-1.88 1.48-1.92 3.21c0 2.13 0.64 3.21 1.92 3.21"/>
 </g>
 <g data-name="aZ">
  <path class="cls-2" d="M349.7,187.93c-2.57,0-3.41-2.22-3.41-4.89s.89-4.89,3.6-4.89a2.91,2.91,0,0,1,2.87,1.68l.1-1.48h2.37l-.05,13.09h-2.42v-5.29A3.1,3.1,0,0,1,349.7,187.93Zm1-1.68c1.58,0,2-1.43,2-3.26s-.45-3.16-2-3.16-1.92,1.48-2,3.21c0,2.13.64,3.21,1.92,3.21" data-name="gw"/>
  <path class="cls-2" d="M360.56,187.93c-4.3,0-2.86-5.58-3.11-9.58h2.47c.34,2.82-1.14,7.41,1.63,7.75,3-.24,1.73-4.79,2-7.75H366l.05,9.38h-2.32a10.9,10.9,0,0,0-.15-1.87,3.07,3.07,0,0,1-3,2.07" data-name="gs"/>
  <path class="cls-2" d="M376.31,185.36a4,4,0,0,1-4.05,2.57c-3-.1-4.39-1.83-4.39-4.94s1.48-4.84,4.44-4.84,4.1,2.23,4.15,5.34h-6c0,1.53.39,2.71,1.92,2.76a1.51,1.51,0,0,0,1.68-1.08Zm-2.22-3.4c.25-2.28-2.81-3.12-3.45-1a3.21,3.21,0,0,0-.2,1h3.65" data-name="fZ"/>
  <path class="cls-2" d="M381.25,187.93c-4.29,0-2.86-5.58-3.11-9.58h2.47c.35,2.82-1.14,7.41,1.63,7.75,3-.24,1.73-4.79,2-7.75h2.46l.05,9.38h-2.32a10.9,10.9,0,0,0-.15-1.87,3.07,3.07,0,0,1-3,2.07" data-name="gs"/>
  <path class="cls-2" d="M397,185.36a4,4,0,0,1-4.05,2.57c-3-.1-4.4-1.83-4.4-4.94s1.48-4.84,4.45-4.84,4.09,2.23,4.14,5.34h-6c0,1.53.39,2.71,1.93,2.76a1.51,1.51,0,0,0,1.67-1.08Zm-2.23-3.4c.25-2.28-2.81-3.12-3.45-1a3.21,3.21,0,0,0-.2,1h3.65" data-name="fZ"/>
 </g>
 <path class="cls-1" d="M1.5,150.24a6,6,0,0,1,6-6h148a6,6,0,0,1,6,6v108a6,6,0,0,1-6,6H7.5a6,6,0,0,1-6-6Z"/>
 <g id="eZ">
  <path class="cls-2" d="M55.82,160.44v5.68h8.52v1.73H55.82V174h-2V158.71H64.59v1.73H55.82" data-name="fx"/>
  <path id="fg" class="cls-2" d="M77.18,174,69,161l.06,13H67.3V158.71h2.41l8.21,13.15-.12-13.15h1.91V174H77.18"/>
  <path id="fA" class="cls-2" d="M94.09,174l-1.73-4.44h-7L83.66,174H81.5l6.23-15.31h2.35L96.19,174Zm-2.34-6.11-2.9-7.59c-.75,2.77-1.92,5.06-2.84,7.59h5.74"/>
  <path class="cls-2" d="M108.91,174l-1.73-4.44h-7L98.47,174H96.31l6.24-15.31h2.34L111,174Zm-2.35-6.11-2.9-7.59c-.74,2.77-1.91,5.06-2.84,7.59h5.74" data-name="fA"/>
 </g>
 <g data-name="fa">
  <path class="cls-2" d="m65.92 186.27v4.54h6.81v1.38h-6.81v4.94h-1.63v-12.25h8.64v1.39h-7" data-name="fx"/>
  <path class="cls-2" d="m74.81 197.13v-12.89h1.58v12.89h-1.58" data-name="fy"/>
  <path class="cls-2" d="m82.46 187.55c3.06-0.05 4.2 1.83 4.2 4.89s-1.33 4.89-4.25 4.89-4.1-1.93-4.14-4.89c0-3.26 1.38-4.89 4.19-4.89zm0 8.59c2.18 0.05 2.62-1.53 2.62-3.7s-0.39-3.7-2.52-3.7-2.61 1.58-2.61 3.7 0.49 3.65 2.51 3.7" data-name="fk"/>
  <path class="cls-2" d="M97.57,197.13H95.8l-2-8.1-2,8.1H90l-2.67-9.38h1.58l1.93,8.1,2.12-8.1h1.68l2,8.1,2.07-8.1h1.53" data-name="fj"/>
 </g>
 <g id="bH">
  <path class="cls-2" d="M43.52,218.46,37,208l.05,10.42H35.62V206.22h1.93l6.57,10.52L44,206.22h1.53v12.24h-2" data-name="fg"/>
  <path id="fo" class="cls-2" d="M53.89,216.69a3.67,3.67,0,0,1-3.35,2,2.64,2.64,0,0,1-2.87-2.81c-.05-3.16,3.11-3.11,6.18-3.11.14-1.73-.45-2.67-2-2.67-1.18.05-2,.34-2.07,1.53l-1.63-.15c.24-1.83,1.63-2.57,3.75-2.57s3.56,1,3.56,3.16v4.05c0,1,.34,1.58,1.38,1.34v1C55.28,218.86,53.8,218.32,53.89,216.69Zm-4.59-.84a1.49,1.49,0,0,0,1.58,1.63c2-.15,3.11-1.44,3-3.66-2.13.1-4.55-.24-4.55,2"/>
  <path id="fD" class="cls-2" d="M67.18,210.12c-3.31.15-1.88,5.18-2.17,8.34H63.47v-6c0-1.43-.24-2.47-1.72-2.37-3.26.2-1.88,5.13-2.18,8.34H58l0-9.38h1.48a8.63,8.63,0,0,0,.1,1.58c.5-2.17,4.89-2.47,5.29,0a3,3,0,0,1,2.86-1.78c4.2-.09,2.32,5.88,2.72,9.58H68.91v-6c0-1.43-.25-2.42-1.73-2.37"/>
  <path class="cls-2" d="M76.51,208.88c3.11,0,4.25,2.08,4.15,5.24H74c0,2,.69,3.31,2.62,3.36A2.31,2.31,0,0,0,79,216l1.38.4c-.54,1.38-1.82,2.22-3.8,2.22-2.86,0-4.34-1.83-4.3-4.94S73.6,208.88,76.51,208.88Zm2.57,4a2.53,2.53,0,0,0-4.79-1.38,3.57,3.57,0,0,0-.3,1.38h5.09" data-name="fh"/>
  <path class="cls-2" d="M88.12,211.4c-.15-1.68-4.25-1.87-4.3,0,.74,2.62,5.68.59,5.88,4.45s-7.41,3.65-7.76.39l1.39-.25c.19,1.78,4.79,2.23,4.84,0-.5-2.76-5.58-.74-5.83-4.44-.2-2.81,4-3.11,6-2.07a2.44,2.44,0,0,1,1.19,1.72" data-name="fv"/>
  <path id="fr" class="cls-2" d="M96,208.88c2.71.05,3.45,2,3.45,4.84s-.79,4.84-3.45,4.94a3,3,0,0,1-3-1.68l0,5.19H91.52l0-13.09H93l.09,1.48A2.94,2.94,0,0,1,96,208.88Zm-.4,8.6c2,0,2.23-1.68,2.23-3.71s-.3-3.6-2.23-3.65-2.52,1.58-2.52,3.75.5,3.61,2.52,3.61"/>
  <path class="cls-2" d="M107.18,216.69a3.67,3.67,0,0,1-3.36,2,2.63,2.63,0,0,1-2.86-2.81c0-3.16,3.11-3.11,6.17-3.11.15-1.73-.45-2.67-2-2.67-1.18.05-2,.34-2.07,1.53l-1.63-.15c.25-1.83,1.63-2.57,3.75-2.57s3.56,1,3.56,3.16v4.05c0,1,.35,1.58,1.38,1.34v1C108.56,218.86,107.08,218.32,107.18,216.69Zm-4.59-.84a1.49,1.49,0,0,0,1.58,1.63c2-.15,3.11-1.44,3-3.66-2.12.1-4.54-.24-4.54,2" data-name="fo"/>
  <path id="fq" class="cls-2" d="M114.83,210.12c-2,0-2.37,1.63-2.37,3.6s.45,3.71,2.37,3.71a2,2,0,0,0,2.13-1.88l1.58.1a3.39,3.39,0,0,1-3.66,3c-2.91,0-3.75-2-4-4.89-.49-4.59,5-6.47,7.26-3.16a4,4,0,0,1,.35,1.09l-1.58.15a1.89,1.89,0,0,0-2-1.73"/>
  <path class="cls-2" d="m123.92 208.88c3.11 0 4.25 2.08 4.15 5.24h-6.67c0 2 0.69 3.31 2.62 3.36a2.31 2.31 0 0 0 2.42-1.44l1.38 0.4c-0.54 1.38-1.83 2.22-3.8 2.22-2.87 0-4.35-1.83-4.3-4.94s1.28-4.84 4.2-4.84zm2.57 4a2.53 2.53 0 0 0-4.79-1.38 3.57 3.57 0 0 0-0.3 1.38h5.09" data-name="fh"/>
 </g>
 <g id="bI">
  <path class="cls-2" d="M25.48,239.8l-1.39-3.56H18.51l-1.38,3.56H15.4l5-12.25h1.88l4.88,12.25Zm-1.88-4.89-2.32-6.08c-.6,2.23-1.53,4-2.27,6.08H23.6" data-name="fA"/>
  <path class="cls-2" d="M31.94,231.45c-2,0-2.37,1.63-2.37,3.61s.45,3.7,2.37,3.7a2,2,0,0,0,2.13-1.88l1.58.1A3.39,3.39,0,0,1,32,240c-2.91,0-3.75-2-4-4.89-.49-4.6,5-6.47,7.26-3.16a3.91,3.91,0,0,1,.35,1.08l-1.58.15a1.89,1.89,0,0,0-2-1.73" data-name="fq"/>
  <path class="cls-2" d="M40.83,231.45c-2,0-2.37,1.63-2.37,3.61s.45,3.7,2.37,3.7A2,2,0,0,0,43,236.88l1.58.1a3.39,3.39,0,0,1-3.66,3c-2.91,0-3.75-2-4.05-4.89-.49-4.6,5-6.47,7.26-3.16a3.91,3.91,0,0,1,.35,1.08l-1.58.15a1.89,1.89,0,0,0-2-1.73" data-name="fq"/>
  <path class="cls-2" d="M49.92,230.22c3.11,0,4.25,2.07,4.15,5.23H47.4c0,2,.69,3.31,2.62,3.36a2.3,2.3,0,0,0,2.42-1.43l1.38.39C53.28,239.16,52,240,50,240c-2.87,0-4.35-1.83-4.3-4.94S47,230.22,49.92,230.22Zm2.57,4a2.53,2.53,0,0,0-4.79-1.39,3.58,3.58,0,0,0-.3,1.39h5.09" data-name="fh"/>
  <path class="cls-2" d="M61.52,232.74c-.14-1.68-4.24-1.88-4.29,0,.74,2.61,5.68.59,5.87,4.44s-7.4,3.65-7.75.4l1.38-.25c.2,1.78,4.79,2.22,4.84,0-.49-2.77-5.58-.74-5.82-4.45-.2-2.81,4-3.11,6-2.07A2.51,2.51,0,0,1,63,232.54" data-name="fv"/>
  <path class="cls-2" d="M70.41,232.74c-.14-1.68-4.24-1.88-4.29,0,.74,2.61,5.68.59,5.87,4.44s-7.4,3.65-7.75.4l1.38-.25c.2,1.78,4.79,2.22,4.84,0-.49-2.77-5.58-.74-5.82-4.45-.2-2.81,4-3.11,6-2.07a2.51,2.51,0,0,1,1.19,1.73" data-name="fv"/>
  <path id="fp" class="cls-2" d="m73.82 228.39v-1.48h1.58v1.48zm0 11.41v-9.39h1.58v9.39h-1.58"/>
  <path class="cls-2" d="M82.31,230.22c4.4-.2,2.62,5.73,3,9.58H83.7v-6c0-1.53-.4-2.42-1.93-2.37-3.55.1-2.17,5-2.42,8.35H77.77l0-9.39H79.2a8,8,0,0,0,.1,1.59,3.12,3.12,0,0,1,3-1.78" data-name="fs"/>
  <path class="cls-2" d="M95.15,230.41c-.49,6.18,2,14.47-5.43,12.89a2.8,2.8,0,0,1-2.17-2.12l1.58-.25c.74,2.32,4.94,1.58,4.39-1.38v-1.48a3.11,3.11,0,0,1-3,1.78c-2.66,0-3.36-2-3.36-4.74s.79-4.79,3.51-4.84A3.16,3.16,0,0,1,93.57,232c.05-.5,0-1.14.1-1.59Zm-4.09,8.3c1.77,0,2.46-1.58,2.46-3.6s-.69-3.71-2.46-3.71c-1.93,0-2.28,1.68-2.28,3.71s.3,3.6,2.28,3.6" data-name="fz"/>
 </g>
 <g id="h">
  <path class="cls-2" d="M111.35,239.8,110,236.24h-5.58L103,239.8h-1.73l5-12.25h1.87L113,239.8Zm-1.87-4.89-2.33-6.08c-.59,2.23-1.53,4-2.27,6.08h4.6" data-name="fA"/>
  <path class="cls-2" d="M121.82,230.41c-.49,6.18,2,14.47-5.43,12.89a2.78,2.78,0,0,1-2.17-2.12l1.58-.25c.74,2.32,4.93,1.58,4.39-1.38v-1.48a3.11,3.11,0,0,1-3,1.78c-2.67,0-3.36-2-3.36-4.74s.79-4.79,3.51-4.84a3.16,3.16,0,0,1,2.91,1.73c.05-.5,0-1.14.1-1.59Zm-4.1,8.3c1.78,0,2.47-1.58,2.47-3.6s-.69-3.71-2.47-3.71-2.27,1.68-2.27,3.71.3,3.6,2.27,3.6" data-name="fz"/>
  <path class="cls-2" d="M127.9,230.22c3.11,0,4.24,2.07,4.14,5.23h-6.66c0,2,.69,3.31,2.61,3.36a2.29,2.29,0,0,0,2.42-1.43l1.39.39A3.72,3.72,0,0,1,128,240c-2.86,0-4.34-1.83-4.29-4.94S125,230.22,127.9,230.22Zm2.56,4a2.53,2.53,0,0,0-4.79-1.39,3.59,3.59,0,0,0-.29,1.39h5.08" data-name="fh"/>
  <path class="cls-2" d="M138.61,230.22c4.4-.2,2.62,5.73,3,9.58H140v-6c0-1.53-.39-2.42-1.92-2.37-3.56.1-2.17,5-2.42,8.35h-1.58l0-9.39h1.48a8,8,0,0,0,.1,1.59,3.11,3.11,0,0,1,3-1.78" data-name="fs"/>
  <path class="cls-2" d="M145.62,237.48c-.1,1.18.89,1.43,1.88,1.08v1.19c-1.63.49-3.46.25-3.46-1.93v-6.27H143v-1.14h1.18l.45-2.12h1v2.12h1.73v1.14h-1.73v5.93" data-name="fi"/>
 </g>
 <path class="cls-3" d="M288.9,205.24H164v-2H288.9m224.6,2H406.1v-2H513.5"/>
 <path class="cls-3" d="m164 205.24h-1v-2h1m364.73 1-14.26 4.64v-9.27z"/>
 <path class="cls-3" d="m532 204.24-18.5 6v-12m2 9.26 10-3.26-10-3.26"/>
 <g id="aO">
  <path id="gi" class="cls-2" d="M300.66,203.11c0,3.4-2.17,4.88-5.48,4.88S290,206.56,290,203.2v-7.65h2.52V203a2.57,2.57,0,0,0,2.72,3c4.44.05,2.42-6.42,2.86-10.42h2.57v7.56"/>
  <path id="gn" class="cls-2" d="M308.36,198.22c2.62,0,3.46,2.17,3.46,4.84s-.94,4.84-3.6,4.93a3.38,3.38,0,0,1-2.92-1.67c.15,1.63.1,3.4.1,5.18h-2.47l-.05-13.09h2.37a13.4,13.4,0,0,0,.15,1.54A2.85,2.85,0,0,1,308.36,198.22Zm-1,8.1c1.63,0,1.92-1.53,2-3.26,0-1.88-.44-3.16-2-3.16-2.77,0-2.72,6.42,0,6.42"/>
  <path class="cls-2" d="m316.86 198.22a3 3 0 0 1 2.86 1.68l-0.05-5h2.47l0.05 12.89h-2.37a13 13 0 0 0-0.15-1.53 2.94 2.94 0 0 1-3 1.72c-2.57 0-3.36-2.22-3.41-4.88s0.93-4.78 3.6-4.88zm0.84 8.1c1.63 0 2-1.49 2-3.26s-0.44-3.16-2-3.16-1.88 1.48-1.93 3.21c0 2.12 0.64 3.21 1.93 3.21" data-name="go"/>
  <path class="cls-2" d="M329.89,206.12c-.79.94-1.48,1.92-3.16,1.87a2.59,2.59,0,0,1-2.86-2.86c-.05-3,2.72-3.11,5.73-3,0-1.29-.15-2.32-1.38-2.32a1.29,1.29,0,0,0-1.39,1.33l-2.56-.1c.34-1.87,1.77-2.86,4-2.81s3.66,1.08,3.71,3.36l.05,4c-.05.7.59.89,1.23.75v1.33C331.82,208.09,329.8,208,329.89,206.12Zm-2.37.15c1.44,0,2.13-1.19,2.08-2.82-1.58,0-3.26-.15-3.21,1.48,0,.84.39,1.34,1.13,1.34" data-name="gp"/>
  <path class="cls-2" d="M338.88,207.65c-1.78.69-4.29.34-4.29-2.07V200H333.4v-1.63h1.33l.75-2.22H337v2.22h1.77V200H337v4.89c-.05,1.14.79,1.53,1.87,1.24v1.48" data-name="gm"/>
  <path class="cls-2" d="M348.22,205.43a4,4,0,0,1-4.05,2.56c-3-.09-4.4-1.82-4.4-4.93s1.48-4.84,4.45-4.84,4.09,2.22,4.14,5.33h-6c0,1.53.39,2.72,1.93,2.77a1.51,1.51,0,0,0,1.67-1.09ZM346,202c.25-2.27-2.81-3.11-3.45-1a3.21,3.21,0,0,0-.2,1H346" data-name="fZ"/>
 </g>
 <g data-name="aZ">
  <path class="cls-2" d="M358,208c-2.57,0-3.4-2.22-3.4-4.88s.88-4.89,3.6-4.89a2.89,2.89,0,0,1,2.86,1.68l.1-1.49h2.37l-.05,13.09H361.1v-5.28A3.09,3.09,0,0,1,358,208Zm1-1.67c1.58,0,2-1.44,2-3.26s-.44-3.16-2-3.16-1.93,1.48-2,3.21c0,2.12.65,3.21,1.93,3.21" data-name="gw"/>
  <path class="cls-2" d="M368.91,208c-4.3,0-2.87-5.58-3.11-9.58h2.46c.35,2.82-1.13,7.41,1.63,7.76,3-.25,1.73-4.79,2-7.76h2.47l.05,9.39h-2.32a10.94,10.94,0,0,0-.15-1.88,3.06,3.06,0,0,1-3,2.07" data-name="gs"/>
  <path class="cls-2" d="M384.66,205.43a4,4,0,0,1-4.05,2.56c-3-.09-4.39-1.82-4.39-4.93s1.48-4.84,4.44-4.84,4.1,2.22,4.15,5.33h-6c0,1.53.4,2.72,1.93,2.77a1.52,1.52,0,0,0,1.68-1.09ZM382.44,202c.24-2.27-2.82-3.11-3.46-1a3.21,3.21,0,0,0-.2,1h3.66" data-name="fZ"/>
  <path class="cls-2" d="M389.6,208c-4.3,0-2.87-5.58-3.11-9.58H389c.34,2.82-1.14,7.41,1.63,7.76,3-.25,1.72-4.79,2-7.76H395l.05,9.39h-2.32a10.94,10.94,0,0,0-.15-1.88,3.06,3.06,0,0,1-3,2.07" data-name="gs"/>
  <path class="cls-2" d="M405.35,205.43A4,4,0,0,1,401.3,208c-3-.09-4.39-1.82-4.39-4.93s1.48-4.84,4.44-4.84,4.1,2.22,4.15,5.33h-6c0,1.53.4,2.72,1.93,2.77a1.52,1.52,0,0,0,1.68-1.09ZM403.13,202c.25-2.27-2.82-3.11-3.46-1a3.21,3.21,0,0,0-.2,1h3.66" data-name="fZ"/>
 </g>
 <path class="cls-3" d="M292.3,224.05H164v-2H292.3m221.2,2H402.7v-2H513.5"/>
 <path class="cls-3" d="m164 224.05h-1v-2h1m364.73 1-14.26 4.64v-9.27z"/>
 <path class="cls-3" d="m532 223.05-18.5 6v-12m2 9.26 10-3.26-10-3.26"/>
 <g id="bb">
  <path id="gx" class="cls-2" d="M293.5,214.36c5.93-.35,11,.25,10.91,6-.05,4-2.17,6.23-6,6.23H293.5Zm2.57,10.27c3.65.35,5.78-.89,5.78-4.25s-2.23-4.34-5.78-4v8.3"/>
  <path class="cls-2" d="M314.24,224.23a4,4,0,0,1-4.05,2.57c-3-.1-4.39-1.82-4.39-4.94s1.48-4.84,4.44-4.84,4.1,2.23,4.15,5.34h-6c0,1.53.4,2.71,1.93,2.76A1.52,1.52,0,0,0,312,224Zm-2.22-3.4c.25-2.27-2.82-3.11-3.46-1a3.21,3.21,0,0,0-.2,1H312" data-name="fZ"/>
  <path id="gf" class="cls-2" d="m316.22 226.61v-12.89h2.46v12.89h-2.46"/>
  <path class="cls-2" d="M329.06,224.23A4,4,0,0,1,325,226.8c-3-.1-4.4-1.82-4.4-4.94s1.48-4.84,4.45-4.84,4.09,2.23,4.14,5.34h-6c0,1.53.39,2.71,1.92,2.76a1.51,1.51,0,0,0,1.68-1.08Zm-2.23-3.4c.25-2.27-2.81-3.11-3.45-1a3.21,3.21,0,0,0-.2,1h3.65" data-name="fZ"/>
  <path class="cls-2" d="M335.47,226.46c-1.77.69-4.29.34-4.29-2.08v-5.53H330v-1.63h1.34l.74-2.22h1.53v2.22h1.78v1.63H333.6v4.89c-.05,1.14.79,1.53,1.87,1.24v1.48" data-name="gm"/>
  <path class="cls-2" d="M344.81,224.23a4,4,0,0,1-4.05,2.57c-3-.1-4.4-1.82-4.4-4.94s1.49-4.84,4.45-4.84,4.1,2.23,4.15,5.34h-6c0,1.53.4,2.71,1.93,2.76a1.52,1.52,0,0,0,1.68-1.08Zm-2.22-3.4c.24-2.27-2.82-3.11-3.46-1a3.21,3.21,0,0,0-.2,1h3.66" data-name="fZ"/>
 </g>
 <g data-name="aZ">
  <path class="cls-2" d="M354.64,226.8c-2.57,0-3.41-2.22-3.41-4.89s.89-4.89,3.6-4.89a2.92,2.92,0,0,1,2.87,1.68l.1-1.48h2.37l-.05,13.09H357.7V225A3.1,3.1,0,0,1,354.64,226.8Zm1-1.68c1.58,0,2-1.43,2-3.26s-.45-3.16-2-3.16-1.92,1.49-2,3.21c0,2.13.64,3.21,1.92,3.21" data-name="gw"/>
  <path class="cls-2" d="M365.5,226.8c-4.3,0-2.86-5.58-3.11-9.58h2.47c.34,2.82-1.14,7.41,1.63,7.76,3-.25,1.73-4.79,2-7.76h2.47l.05,9.39h-2.32a10.94,10.94,0,0,0-.15-1.88,3.07,3.07,0,0,1-3,2.07" data-name="gs"/>
  <path class="cls-2" d="M381.25,224.23a4,4,0,0,1-4.05,2.57c-3-.1-4.39-1.82-4.39-4.94s1.48-4.84,4.44-4.84,4.1,2.23,4.15,5.34h-6c0,1.53.39,2.71,1.92,2.76A1.52,1.52,0,0,0,379,224Zm-2.22-3.4c.25-2.27-2.81-3.11-3.46-1a3.21,3.21,0,0,0-.19,1H379" data-name="fZ"/>
  <path class="cls-2" d="M386.19,226.8c-4.3,0-2.86-5.58-3.11-9.58h2.47c.34,2.82-1.14,7.41,1.63,7.76,3-.25,1.73-4.79,2-7.76h2.47l.05,9.39h-2.32a10.94,10.94,0,0,0-.15-1.88,3.07,3.07,0,0,1-3,2.07" data-name="gs"/>
  <path class="cls-2" d="M401.94,224.23a4,4,0,0,1-4.05,2.57c-3-.1-4.39-1.82-4.39-4.94S395,217,397.94,217s4.1,2.23,4.15,5.34h-6c0,1.53.39,2.71,1.92,2.76a1.52,1.52,0,0,0,1.68-1.08Zm-2.22-3.4c.25-2.27-2.81-3.11-3.45-1a3.21,3.21,0,0,0-.2,1h3.65" data-name="fZ"/>
 </g>
 <path class="cls-1" d="M1.5,7.5a6,6,0,0,1,6-6h148a6,6,0,0,1,6,6v108a6,6,0,0,1-6,6H7.5a6,6,0,0,1-6-6Z"/>
 <g data-name="eW">
  <path class="cls-2" d="M63.81,29.7v5.68h8.52V37.1H63.81v6.18h-2V28h10.8V29.7H63.81" data-name="fx"/>
  <path class="cls-2" d="M75.3,43.28V28H86.84V29.7H77.33v4.87h8.89v1.67H77.33v5.37h10v1.67h-12" data-name="fE"/>
  <path class="cls-2" d="M98.14,35.19c2.16.31,3.76,1.42,3.76,3.77,0,5.37-6.54,4.19-11.79,4.32V28c4.69.18,10.93-1,10.93,3.7A3.39,3.39,0,0,1,98.14,35.19Zm-6-.68c3.08-.06,6.79.56,6.79-2.59,0-2.9-3.89-2.22-6.79-2.29Zm0,7.1c3.39-.12,7.65.86,7.65-2.78,0-3.45-4.32-2.59-7.65-2.71v5.49" data-name="fH"/>
 </g>
 <g data-name="bC">
  <path class="cls-2" d="M36.29,55.52v4.55H43.1v1.38H36.29v4.94H34.66V54.14H43.3v1.38h-7" data-name="fx"/>
  <path class="cls-2" d="M45.18,66.39V53.5h1.58V66.39H45.18" data-name="fy"/>
  <path class="cls-2" d="m52.83 56.81c3.06-0.05 4.2 1.82 4.2 4.89s-1.33 4.88-4.25 4.88-4.1-1.92-4.14-4.88c0-3.26 1.36-4.89 4.19-4.89zm0 8.59c2.18 0 2.62-1.53 2.62-3.7s-0.45-3.7-2.57-3.7-2.61 1.58-2.61 3.71 0.49 3.65 2.51 3.7" data-name="fk"/>
  <path class="cls-2" d="M67.94,66.39H66.17l-2-8.1-2,8.1H60.39L57.72,57H59.3l1.93,8.1L63.35,57H65l2,8.1L69.13,57h1.53" data-name="fj"/>
 </g>
 <g data-name="eX">
  <path class="cls-2" d="M77,66.39V54.14h9.24v1.38H78.61v3.9h7.11v1.34H78.61v4.29h8v1.34H77" data-name="fE"/>
  <path class="cls-2" d="M92.69,66.39H90.81L87.4,57h1.68l2.67,8.15L94.51,57h1.68" data-name="fF"/>
  <path class="cls-2" d="m101.18 56.81c3.11 0 4.25 2.07 4.15 5.23h-6.67c0 2 0.69 3.31 2.62 3.36a2.3 2.3 0 0 0 2.42-1.4l1.38 0.39c-0.54 1.39-1.83 2.22-3.8 2.22-2.87 0-4.35-1.82-4.3-4.93s1.29-4.87 4.2-4.87zm2.57 4a2.53 2.53 0 0 0-4.75-1.39 3.58 3.58 0 0 0-0.3 1.39h5.09" data-name="fh"/>
  <path class="cls-2" d="M111.9,56.81c4.39-.2,2.61,5.73,3,9.58h-1.58v-6c0-1.53-.4-2.42-1.93-2.37-3.55.1-2.17,5-2.42,8.35h-1.58l0-9.39h1.48a7.83,7.83,0,0,0,.1,1.58,3.14,3.14,0,0,1,3-1.77" data-name="fs"/>
  <path class="cls-2" d="M118.91,64.07c-.1,1.18.89,1.43,1.87,1.08v1.19c-1.63.49-3.45.24-3.45-1.93V58.14h-1.09V57h1.19l.44-2.12h1V57h1.73v1.14h-1.73v5.93" data-name="fi"/>
  <path class="cls-2" d="M127.6,59.33c-.15-1.68-4.25-1.88-4.3,0,.74,2.61,5.68.59,5.88,4.44s-7.41,3.65-7.75.4l1.38-.25c.2,1.78,4.79,2.22,4.84,0-.5-2.77-5.58-.74-5.83-4.45-.2-2.81,4.05-3.11,6-2.07A2.5,2.5,0,0,1,129,59.13" data-name="fv"/>
 </g>
 <g data-name="eY">
  <path class="cls-2" d="M63.28,81.25c1.73.25,3,1.14,3,3,0,4.3-5.23,3.36-9.43,3.46V75.47c3.75.15,8.74-.84,8.74,3A2.7,2.7,0,0,1,63.28,81.25Zm-4.79-.54c2.47,0,5.43.44,5.43-2.08,0-2.32-3.11-1.77-5.43-1.82Zm0,5.68c2.71-.1,6.12.69,6.12-2.22S61.15,82.09,58.49,82v4.4" data-name="fH"/>
  <path class="cls-2" d="M72.86,79.67c-3.85-.79-2.62,4.5-2.82,8H68.46l0-9.38H69.9A11.78,11.78,0,0,0,70,80.26c.3-1.33,1.14-2.42,2.87-2v1.43" data-name="fl"/>
  <path class="cls-2" d="m78 78.14c3.07 0 4.2 1.83 4.2 4.89s-1.29 4.89-4.2 4.89-4.1-1.92-4.15-4.92c0-3.23 1.38-4.86 4.15-4.86zm0 8.59c2.18 0 2.62-1.53 2.62-3.7s-0.39-3.7-2.52-3.7-2.61 1.58-2.61 3.7 0.51 3.65 2.51 3.7" data-name="fk"/>
  <path class="cls-2" d="M90,87.72l-3.16-4.3-1.13.94v3.36H84.17V74.83h1.58v8l4.1-4.54h1.82l-3.8,4,4,5.33H90" data-name="fm"/>
  <path class="cls-2" d="M96.81,78.14c3.11,0,4.25,2.07,4.15,5.24H94.29c0,2,.69,3.3,2.62,3.35a2.3,2.3,0,0,0,2.42-1.43l1.38.4c-.54,1.38-1.83,2.22-3.8,2.22-2.87,0-4.35-1.83-4.3-4.94S93.9,78.14,96.81,78.14Zm2.57,4a2.53,2.53,0,0,0-4.79-1.38,3.53,3.53,0,0,0-.3,1.38h5.09" data-name="fh"/>
  <path class="cls-2" d="M107.38,79.67c-3.85-.79-2.62,4.5-2.82,8H103l0-9.38h1.48a11.73,11.73,0,0,0,.1,1.92c.3-1.33,1.14-2.42,2.87-2v1.43" data-name="fl"/>
 </g>
 <path class="cls-1" d="m533.5 7.5a6 6 0 0 1 6-6h148a6 6 0 0 1 6 6v108a6 6 0 0 1-6 6h-148a6 6 0 0 1-6-6z"/>
 <g id="fb">
  <path id="ft" class="cls-2" d="M595.81,43.28V28h2.1V43.28h-2.1"/>
  <path class="cls-2" d="M612.6,43.28l-1.72-4.45h-7l-1.73,4.45H600L606.25,28h2.34l6.11,15.31Zm-2.34-6.11-2.9-7.6c-.74,2.78-1.92,5.06-2.84,7.6h5.74" data-name="fA"/>
  <path class="cls-2" d="M629.58,43.28l.12-13.46c-1.42,4.69-3.33,9-4.94,13.46h-1.41l-5-13.46.06,13.46h-1.79V28h2.71l4.76,13c1.29-4.63,3.14-8.64,4.69-13h2.65V43.28h-1.85" data-name="fO"/>
 </g>
 <g id="fc">
  <path class="cls-2" d="M555.4,66.39V54.14h1.68V66.39H555.4" data-name="ft"/>
  <path class="cls-2" d="m562.91 56.81a3.12 3.12 0 0 1 3 1.63v-4.94h1.58l0.05 12.89h-1.54a13 13 0 0 0-0.15-1.53 2.81 2.81 0 0 1-2.91 1.72c-2.62 0-3.41-1.92-3.46-4.83-0.03-3.26 1.11-4.94 3.43-4.94zm0.44 1.18c-2 0-2.27 1.68-2.27 3.71s0.3 3.65 2.22 3.65c2.08 0 2.52-1.58 2.52-3.75s-0.44-3.66-2.47-3.61" data-name="fB"/>
  <path class="cls-2" d="M573.52,56.81c3.12,0,4.25,2.07,4.15,5.23H571c0,2,.69,3.31,2.61,3.36A2.29,2.29,0,0,0,576,64l1.39.39c-.55,1.39-1.83,2.22-3.81,2.22-2.86,0-4.34-1.82-4.29-4.93S570.61,56.81,573.52,56.81Zm2.57,4a2.53,2.53,0,0,0-4.79-1.39,3.59,3.59,0,0,0-.29,1.39h5.08" data-name="fh"/>
  <path class="cls-2" d="M584.24,56.81c4.4-.2,2.62,5.73,3,9.58h-1.58v-6c0-1.53-.39-2.42-1.92-2.37-3.56.1-2.18,5-2.42,8.35H579.7L579.65,57h1.48a7.83,7.83,0,0,0,.1,1.58,3.12,3.12,0,0,1,3-1.77" data-name="fs"/>
  <path class="cls-2" d="M591.25,64.07c-.1,1.18.89,1.43,1.88,1.08v1.19c-1.63.49-3.46.24-3.46-1.93V58.14h-1.08V57h1.18l.45-2.12h1V57H593v1.14h-1.73v5.93" data-name="fi"/>
  <path class="cls-2" d="M594.46,55V53.5H596V55Zm0,11.41V57H596v9.39h-1.58" data-name="fp"/>
  <path class="cls-2" d="M600.09,64.07c-.1,1.18.89,1.43,1.88,1.08v1.19c-1.63.49-3.46.24-3.46-1.93V58.14h-1.08V57h1.18l.45-2.12h1V57h1.73v1.14h-1.73v5.93" data-name="fi"/>
  <path id="fN" class="cls-2" d="M611,57l-4.25,10.92a3.35,3.35,0,0,1-4,2.07V68.81c1.93.29,2.62-1,3.16-2.47L602.17,57h1.68l2.81,7.71L609.33,57H611"/>
 </g>
 <g data-name="fd">
  <path class="cls-2" d="M626.07,66.39l-1.38-3.56H619.1l-1.38,3.56H616l5-12.25h1.88l4.89,12.25Zm-1.88-4.89-2.32-6.08c-.59,2.23-1.53,4-2.27,6.08h4.59" data-name="fA"/>
  <path class="cls-2" d="M632.54,58c-2,0-2.37,1.63-2.37,3.61s.44,3.7,2.37,3.7a2,2,0,0,0,2.12-1.88l1.58.1a3.38,3.38,0,0,1-3.65,3c-2.92,0-3.76-2-4.05-4.88-.5-4.6,5-6.47,7.26-3.16a4.25,4.25,0,0,1,.34,1.08l-1.58.15a1.89,1.89,0,0,0-2-1.73" data-name="fq"/>
  <path class="cls-2" d="M641.43,58c-2,0-2.37,1.63-2.37,3.61s.44,3.7,2.37,3.7a2,2,0,0,0,2.12-1.88l1.58.1a3.38,3.38,0,0,1-3.65,3c-2.92,0-3.76-2-4.05-4.88-.5-4.6,5-6.47,7.26-3.16a4.25,4.25,0,0,1,.34,1.08l-1.58.15a1.89,1.89,0,0,0-2-1.73" data-name="fq"/>
  <path class="cls-2" d="M650.51,56.81c3.11,0,4.25,2.07,4.15,5.23H648c0,2,.7,3.31,2.62,3.36A2.3,2.3,0,0,0,653,64l1.38.39c-.54,1.39-1.82,2.22-3.8,2.22-2.86,0-4.34-1.82-4.3-4.93S647.6,56.81,650.51,56.81Zm2.57,4a2.53,2.53,0,0,0-4.79-1.39,3.58,3.58,0,0,0-.3,1.39h5.09" data-name="fh"/>
  <path class="cls-2" d="M662.12,59.33c-.15-1.68-4.25-1.88-4.3,0,.74,2.61,5.68.59,5.88,4.44s-7.41,3.65-7.76.4l1.39-.25c.19,1.78,4.79,2.22,4.84,0-.5-2.77-5.58-.74-5.83-4.45-.2-2.81,4-3.11,6-2.07a2.48,2.48,0,0,1,1.19,1.73" data-name="fv"/>
  <path class="cls-2" d="M671,59.33c-.15-1.68-4.25-1.88-4.3,0,.74,2.61,5.68.59,5.88,4.44s-7.41,3.65-7.76.4l1.39-.25c.19,1.78,4.79,2.22,4.84,0-.5-2.77-5.58-.74-5.83-4.45-.2-2.81,4-3.11,6-2.07a2.48,2.48,0,0,1,1.19,1.73" data-name="fv"/>
 </g>
 <g data-name="fe">
  <path class="cls-2" d="M573.55,87.72l.1-10.76c-1.14,3.75-2.67,7.16-3.95,10.76h-1.14l-4-10.76.05,10.76h-1.43V75.47h2.17l3.8,10.42c1-3.7,2.52-6.91,3.76-10.42H575V87.72h-1.48" data-name="fO"/>
  <path class="cls-2" d="M583.43,85.94a3.68,3.68,0,0,1-3.36,2,2.64,2.64,0,0,1-2.87-2.82c-.05-3.16,3.11-3.11,6.18-3.11.14-1.73-.45-2.66-2-2.66-1.18,0-2,.34-2.07,1.53l-1.63-.15c.24-1.83,1.63-2.57,3.75-2.57s3.56,1,3.56,3.16v4c-.05,1,.34,1.58,1.38,1.33v1C584.81,88.12,583.33,87.57,583.43,85.94Zm-4.6-.84a1.49,1.49,0,0,0,1.58,1.63c2-.15,3.11-1.43,3-3.65-2.13.1-4.55-.25-4.55,2" data-name="fo"/>
  <path class="cls-2" d="M592.12,78.14c4.39-.2,2.61,5.73,3,9.58H593.5v-6c0-1.54-.4-2.42-1.93-2.37-3.55.09-2.17,5-2.42,8.34h-1.58l-.05-9.38H589a8.79,8.79,0,0,0,.09,1.58,3.14,3.14,0,0,1,3-1.78" data-name="fs"/>
  <path class="cls-2" d="M603.18,85.94a3.66,3.66,0,0,1-3.36,2A2.63,2.63,0,0,1,597,85.1c-.05-3.16,3.11-3.11,6.17-3.11.15-1.73-.45-2.66-2-2.66-1.18,0-2,.34-2.07,1.53l-1.63-.15c.25-1.83,1.63-2.57,3.75-2.57s3.56,1,3.56,3.16v4c-.05,1,.35,1.58,1.38,1.33v1C604.56,88.12,603.08,87.57,603.18,85.94Zm-4.59-.84a1.49,1.49,0,0,0,1.58,1.63c2-.15,3.11-1.43,3-3.65-2.12.1-4.54-.25-4.54,2" data-name="fo"/>
  <path class="cls-2" d="M614.83,78.34c-.49,6.17,2,14.47-5.43,12.89a2.82,2.82,0,0,1-2.17-2.13l1.58-.24c.74,2.32,4.94,1.58,4.39-1.39V86a3.11,3.11,0,0,1-3,1.78c-2.67,0-3.36-2-3.36-4.74s.79-4.79,3.51-4.84a3.16,3.16,0,0,1,2.91,1.73,15.56,15.56,0,0,1,.1-1.58Zm-4.1,8.29c1.78,0,2.47-1.58,2.47-3.6s-.69-3.7-2.47-3.7S608.46,81,608.46,83s.3,3.6,2.27,3.6" data-name="fz"/>
  <path class="cls-2" d="M620.91,78.14c3.11,0,4.24,2.07,4.15,5.24h-6.67c0,2,.69,3.3,2.62,3.35a2.3,2.3,0,0,0,2.42-1.43l1.38.4c-.54,1.38-1.83,2.22-3.8,2.22-2.87,0-4.35-1.83-4.3-4.94S618,78.14,620.91,78.14Zm2.57,4a2.54,2.54,0,0,0-4.8-1.38,3.73,3.73,0,0,0-.29,1.38h5.09" data-name="fh"/>
  <path class="cls-2" d="M636.22,79.38c-3.31.14-1.88,5.18-2.18,8.34h-1.53v-6c0-1.44-.24-2.47-1.73-2.37-3.26.19-1.87,5.13-2.17,8.34h-1.53L627,78.34h1.48a7.93,7.93,0,0,0,.1,1.58c.49-2.17,4.89-2.47,5.28,0a3,3,0,0,1,2.87-1.78c4.2-.1,2.32,5.88,2.72,9.58h-1.54v-6c0-1.44-.24-2.42-1.72-2.37" data-name="fD"/>
  <path class="cls-2" d="m645.55 78.14c3.11 0 4.25 2.07 4.15 5.24h-6.7c0 2 0.69 3.3 2.62 3.35a2.3 2.3 0 0 0 2.42-1.43l1.38 0.4c-0.54 1.38-1.83 2.22-3.8 2.22-2.87 0-4.35-1.83-4.3-4.94s1.32-4.84 4.23-4.84zm2.57 4a2.53 2.53 0 0 0-4.79-1.38 3.53 3.53 0 0 0-0.3 1.38h5.09" data-name="fh"/>
  <path class="cls-2" d="M656.27,78.14c4.39-.2,2.61,5.73,3,9.58h-1.58v-6c0-1.54-.4-2.42-1.93-2.37-3.55.09-2.17,5-2.42,8.34h-1.58l-.05-9.38h1.48a7.93,7.93,0,0,0,.1,1.58,3.13,3.13,0,0,1,3-1.78" data-name="fs"/>
  <path class="cls-2" d="M663.28,85.4c-.1,1.18.89,1.43,1.87,1.09v1.18c-1.63.5-3.45.25-3.45-1.92V79.47h-1.09V78.34h1.19l.44-2.13h1v2.13H665v1.13h-1.73V85.4" data-name="fi"/>
 </g>
 <path class="cls-3" d="M272.64,62.5H164v-2H272.64m240.86,2H422.36v-2H513.5"/>
 <path class="cls-3" d="m164 62.5h-1v-2h1m364.73 1-14.23 4.63v-9.27z"/>
 <path class="cls-3" d="m532 61.5-18.5 6v-12m2 9.26 10-3.26-10-3.26"/>
 <g id="bf">
  <path class="cls-2" d="M282.46,65.05l-1.08-3.11h-4.65l-1.08,3.11h-2.57l4.44-12.24h3L285,65.05Zm-1.63-5-1.77-5.34c-.5,1.88-1.19,3.56-1.78,5.34h3.55" data-name="fX"/>
  <path class="cls-2" d="M289.62,65.25c-4.29,0-2.86-5.58-3.11-9.58H289c.35,2.82-1.13,7.41,1.63,7.75,3-.24,1.73-4.79,2-7.75h2.47l0,9.38h-2.32a10.94,10.94,0,0,0-.14-1.87,3.1,3.1,0,0,1-3,2.07" data-name="gs"/>
  <path class="cls-2" d="M301.92,64.91c-1.78.69-4.3.34-4.3-2.08V57.3h-1.18V55.67h1.33l.74-2.22H300v2.22h1.78V57.3H300v4.89c-.05,1.14.79,1.53,1.88,1.23v1.49" data-name="gm"/>
  <path id="gy" class="cls-2" d="M307.75,57.3c-2.92,0-1.68,4.79-1.93,7.75h-2.47V52.17h2.47l-.05,5.38a3.07,3.07,0,0,1,3-2.08c4.25,0,2.87,5.58,3.12,9.58h-2.47c-.35-2.81,1.13-7.75-1.68-7.75"/>
  <path class="cls-2" d="M322.07,62.68A4,4,0,0,1,318,65.25c-3-.1-4.4-1.83-4.4-4.94s1.48-4.84,4.45-4.84,4.1,2.23,4.15,5.34h-6c0,1.53.4,2.71,1.93,2.76a1.52,1.52,0,0,0,1.68-1.08Zm-2.22-3.4c.24-2.28-2.82-3.11-3.46-1a3.21,3.21,0,0,0-.2,1h3.66" data-name="fZ"/>
  <path id="gq" class="cls-2" d="m329.48 55.47c4.29 0 2.86 5.58 3.11 9.58h-2.47c-0.35-2.81 1.13-7.75-1.68-7.75s-1.68 4.79-1.93 7.75h-2.51v-9.38h2.32a12.24 12.24 0 0 0 0.15 1.88 3.09 3.09 0 0 1 3-2.08"/>
  <path class="cls-2" d="M339.3,64.91c-1.78.69-4.29.34-4.29-2.08V57.3h-1.19V55.67h1.33l.75-2.22h1.53v2.22h1.77V57.3h-1.77v4.89c-.05,1.14.79,1.53,1.87,1.23v1.49" data-name="gm"/>
  <path id="gl" class="cls-2" d="M340.73,54V52.17h2.47V54Zm0,11.06V55.67h2.47v9.38h-2.47"/>
  <path id="gv" class="cls-2" d="M353.82,61.94c-.34,2.08-1.88,3.31-4.25,3.31-2.91,0-4.14-1.87-4.44-4.84-.59-5.43,7.6-6.76,8.59-1.78l-2.42.1a1.66,1.66,0,0,0-1.73-1.58c-1.48,0-1.72,1.39-1.87,3.16-.3,3.66,3.21,4.3,3.65,1.48"/>
  <path class="cls-2" d="M360.88,63.38c-.79.93-1.48,1.92-3.16,1.87a2.6,2.6,0,0,1-2.86-2.86c-.05-3,2.71-3.11,5.73-3,.05-1.29-.15-2.33-1.39-2.33a1.29,1.29,0,0,0-1.38,1.34l-2.57-.1c.35-1.88,1.78-2.87,4.05-2.82S363,56.56,363,58.83l.05,4.05c-.05.69.59.89,1.23.74V65C362.81,65.35,360.78,65.2,360.88,63.38Zm-2.37.14c1.43,0,2.13-1.18,2.08-2.81-1.58,0-3.26-.15-3.21,1.48,0,.84.39,1.33,1.13,1.33" data-name="gp"/>
  <path class="cls-2" d="M369.87,64.91c-1.78.69-4.3.34-4.3-2.08V57.3h-1.18V55.67h1.33l.74-2.22H368v2.22h1.78V57.3H368v4.89c-.05,1.14.79,1.53,1.88,1.23v1.49" data-name="gm"/>
  <path class="cls-2" d="M379.2,62.68a4,4,0,0,1-4.05,2.57c-3-.1-4.39-1.83-4.39-4.94s1.48-4.84,4.44-4.84,4.1,2.23,4.15,5.34h-6c0,1.53.39,2.71,1.92,2.76a1.52,1.52,0,0,0,1.68-1.08ZM377,59.28c.25-2.28-2.81-3.11-3.46-1a3.51,3.51,0,0,0-.19,1H377" data-name="fZ"/>
 </g>
 <g id="bg">
  <path class="cls-2" d="M389.08,65.25c-4.3,0-2.86-5.58-3.11-9.58h2.47c.34,2.82-1.14,7.41,1.63,7.75,3-.24,1.73-4.79,2-7.75h2.47l.05,9.38h-2.32a10.9,10.9,0,0,0-.15-1.87,3.07,3.07,0,0,1-3,2.07" data-name="gs"/>
  <path id="gd" class="cls-2" d="M402.46,58.24c.05-1.43-3.45-1.68-3.5-.2.74,2.27,5.82.35,5.87,4.25.05,4.1-8.1,3.75-8.49.44l2.12-.34c.2.94,1,1.23,2.18,1.23,1.63.4,2.81-1.48,1.18-2-2.12-.69-5-.55-5.13-3.26-.1-4,7.6-3.66,7.95-.35"/>
  <path class="cls-2" d="M414.71,62.68a4,4,0,0,1-4,2.57c-3-.1-4.39-1.83-4.39-4.94s1.48-4.84,4.44-4.84,4.1,2.23,4.15,5.34h-6c0,1.53.4,2.71,1.93,2.76a1.52,1.52,0,0,0,1.68-1.08Zm-2.22-3.4c.24-2.28-2.82-3.11-3.46-1a3.21,3.21,0,0,0-.2,1h3.66" data-name="fZ"/>
  <path class="cls-2" d="M422.12,57.65c-1.93-.6-3,.64-3,2.81v4.59h-2.46l-.05-9.38H419a12.35,12.35,0,0,0,.15,2c.29-1.39,1.33-2.62,3-2v2" data-name="ga"/>
 </g>
 <path class="cls-3" d="M281.94,247.92H164v-2H281.94m231.56,2H413.06v-2H513.5"/>
 <path class="cls-3" d="m164 247.92h-1v-2h1m364.73 1-14.26 4.64v-9.27z"/>
 <path class="cls-3" d="m532 246.92-18.5 6v-12m2 9.27 10-3.26-10-3.25"/>
 <g id="bk">
  <path class="cls-2" d="m283.13 250.48v-12.25h2.57v10.27h6.57v2h-9.14" data-name="gA"/>
  <path class="cls-2" d="M294,239.42v-1.83h2.47v1.83Zm0,11.06V241.1h2.47v9.38H294" data-name="gl"/>
  <path class="cls-2" d="M304.46,243.67c.05-1.44-3.45-1.68-3.5-.2.74,2.27,5.82.34,5.87,4.24.05,4.1-8.1,3.76-8.49.45l2.12-.35c.2.94,1,1.24,2.18,1.24,1.63.39,2.81-1.48,1.18-2-2.12-.69-5-.54-5.13-3.26-.1-3.95,7.6-3.65,7.95-.34" data-name="gd"/>
  <path class="cls-2" d="M313.25,250.33c-1.77.69-4.29.35-4.29-2.07v-5.53h-1.19V241.1h1.33l.75-2.22h1.53v2.22h1.77v1.63h-1.77v4.89c-.05,1.13.79,1.53,1.87,1.23v1.48" data-name="gm"/>
 </g>
 <g id="bl">
  <path class="cls-2" d="M327.77,247.37c-.34,2.07-1.88,3.31-4.25,3.31-2.91,0-4.14-1.88-4.44-4.84-.59-5.43,7.6-6.77,8.59-1.78l-2.42.1a1.66,1.66,0,0,0-1.73-1.58c-1.48,0-1.72,1.38-1.87,3.16-.3,3.65,3.21,4.3,3.65,1.48" data-name="gv"/>
  <path id="ge" class="cls-2" d="m333.7 240.9c3.16 0 4.74 1.78 4.74 4.89s-1.73 4.89-4.79 4.89-4.65-1.78-4.65-4.89 1.64-4.89 4.7-4.89zm-0.05 8.1c1.73 0 2.22-1.38 2.22-3.21s-0.49-3.21-2.12-3.21-2.23 1.28-2.23 3.21 0.5 3.21 2.13 3.21"/>
  <path class="cls-2" d="M345.75,240.9c4.29-.05,2.86,5.58,3.11,9.58h-2.47c-.35-2.81,1.13-7.75-1.68-7.75s-1.68,4.79-1.93,7.75h-2.47l0-9.38h2.32a10.94,10.94,0,0,0,.14,1.87,3.1,3.1,0,0,1,3-2.07" data-name="gq"/>
  <path class="cls-2" d="M356.66,243.67c0-1.44-3.46-1.68-3.51-.2.74,2.27,5.83.34,5.88,4.24.05,4.1-8.1,3.76-8.49.45l2.12-.35c.2.94,1,1.24,2.17,1.24,1.63.39,2.82-1.48,1.19-2-2.13-.69-5-.54-5.14-3.26-.1-3.95,7.61-3.65,7.95-.34" data-name="gd"/>
  <path class="cls-2" d="M364,250.68c-4.3,0-2.87-5.58-3.11-9.58h2.47c.34,2.81-1.14,7.4,1.63,7.75,3-.25,1.72-4.79,2-7.75h2.47l.05,9.38h-2.32a11.11,11.11,0,0,0-.15-1.88,3.07,3.07,0,0,1-3,2.08" data-name="gs"/>
  <path id="gt" class="cls-2" d="M381.45,242.73c-2.62.44-1.38,4.94-1.68,7.75h-2.42V245.2c0-1.34-.25-2.42-1.43-2.47-2.62.49-1.33,4.94-1.63,7.75h-2.47l-.05-9.38h2.32a10.9,10.9,0,0,0,.15,1.87c.49-2.61,5-2.76,5.33,0,.65-1.08,1.19-2.12,2.92-2.07,4.05,0,2.52,5.73,2.81,9.58h-2.42V245.2c-.05-1.24-.24-2.37-1.43-2.47"/>
  <path class="cls-2" d="M395.52,248.11a4,4,0,0,1-4,2.57c-3-.1-4.4-1.83-4.4-4.94s1.48-4.84,4.44-4.84,4.1,2.22,4.15,5.33h-6c0,1.53.39,2.72,1.92,2.77a1.52,1.52,0,0,0,1.68-1.09Zm-2.22-3.41c.25-2.27-2.81-3.11-3.45-1a3.14,3.14,0,0,0-.2,1h3.65" data-name="fZ"/>
  <path class="cls-2" d="M402.93,243.07c-1.92-.59-3,.64-3,2.82v4.59H397.5l-.05-9.38h2.32a12.13,12.13,0,0,0,.15,2c.3-1.38,1.33-2.61,3-2v2" data-name="ga"/>
  <path class="cls-2" d="M409.94,243.67c.05-1.44-3.45-1.68-3.5-.2.74,2.27,5.83.34,5.87,4.24.05,4.1-8.09,3.76-8.49.45l2.12-.35c.2.94,1,1.24,2.18,1.24,1.63.39,2.81-1.48,1.18-2-2.12-.69-5-.54-5.13-3.26-.1-3.95,7.6-3.65,7.95-.34" data-name="gd"/>
 </g>
</svg>
