<?xml version="1.0" encoding="UTF-8"?>
<svg data-name="Layer 1" version="1.1" viewBox="0 0 695 325.98" xmlns="http://www.w3.org/2000/svg">
 <title>Figure3</title>
 <defs>
  <style>.cls-1,.cls-4{fill:#fff;stroke-width:3px;}.cls-1{stroke:#5e5f5f;}.cls-2{fill:#333;}.cls-3{fill:#5e5f5f;}.cls-4{stroke:#010101;stroke-opacity:0;}</style>
 </defs>
 <path class="cls-1" d="m533.5 210.48a6 6 0 0 1 6-6h148a6 6 0 0 1 6 6v108a6 6 0 0 1-6 6h-148a6 6 0 0 1-6-6z"/>
 <g id="dS">
  <path id="gw" class="cls-2" d="M595.81,232.68v5.68h8.52v1.73h-8.52v6.17h-2V231h10.8v1.73h-8.77"/>
  <path id="gD" class="cls-2" d="M607.3,246.26V231h11.54v1.73h-9.51v4.88h8.89v1.66h-8.89v5.37h10v1.67h-12"/>
  <path id="gG" class="cls-2" d="M630.14,238.17c2.16.31,3.76,1.42,3.76,3.77,0,5.37-6.54,4.2-11.79,4.32V231c4.69.19,10.93-1,10.93,3.71A3.39,3.39,0,0,1,630.14,238.17Zm-6-.68c3.08-.06,6.79.56,6.79-2.59,0-2.9-3.89-2.22-6.79-2.28Zm0,7.1c3.39-.12,7.65.87,7.65-2.77,0-3.46-4.32-2.6-7.65-2.72v5.49"/>
 </g>
 <g id="bu">
  <path class="cls-2" d="m568.29 258.51v4.54h6.81v1.38h-6.81v4.94h-1.63v-12.25h8.64v1.39h-7" data-name="gw"/>
  <path id="gx" class="cls-2" d="m577.18 269.37v-12.89h1.58v12.89h-1.58"/>
  <path id="gj" class="cls-2" d="m584.83 259.79c3.06-0.05 4.2 1.83 4.2 4.89s-1.33 4.89-4.25 4.89-4.1-1.93-4.14-4.89c0-3.26 1.36-4.89 4.19-4.89zm-0.05 8.59c2.18 0.05 2.62-1.53 2.62-3.7s-0.39-3.7-2.52-3.7-2.61 1.58-2.61 3.7 0.49 3.65 2.51 3.7"/>
  <path id="gi" class="cls-2" d="M599.94,269.37h-1.77l-2-8.1-2,8.1h-1.78L589.72,260h1.58l1.93,8.1,2.12-8.1H597l2,8.1,2.07-8.1h1.53"/>
 </g>
 <g id="dT">
  <path class="cls-2" d="M609,269.37V257.12h9.24v1.39h-7.61v3.9h7.11v1.33h-7.11V268h8v1.33H609" data-name="gD"/>
  <path id="gE" class="cls-2" d="M624.69,269.37h-1.88L619.4,260h1.68l2.67,8.15,2.76-8.15h1.68"/>
  <path class="cls-2" d="m633.18 259.79c3.11 0 4.25 2.07 4.15 5.24h-6.67c0 2 0.69 3.3 2.62 3.35a2.3 2.3 0 0 0 2.42-1.38l1.38 0.4c-0.54 1.38-1.83 2.22-3.8 2.22-2.87 0-4.35-1.83-4.3-4.94s1.29-4.89 4.2-4.89zm2.57 4a2.53 2.53 0 0 0-4.79-1.38 3.53 3.53 0 0 0-0.3 1.38h5.09" data-name="gg"/>
  <path id="gr" class="cls-2" d="M643.9,259.79c4.39-.2,2.61,5.73,3,9.58h-1.58v-6c0-1.54-.4-2.42-1.93-2.37-3.55.09-2.17,5-2.42,8.34h-1.58L639.3,260h1.48a7.93,7.93,0,0,0,.1,1.58,3.13,3.13,0,0,1,3-1.78"/>
  <path id="gh" class="cls-2" d="M650.91,267.05c-.1,1.19.89,1.43,1.87,1.09v1.18c-1.63.5-3.45.25-3.45-1.92v-6.28h-1.09V260h1.19l.44-2.13h1V260h1.73v1.13h-1.73v5.93"/>
  <path id="gu" class="cls-2" d="M659.6,262.31c-.15-1.68-4.25-1.88-4.3,0,.74,2.62,5.68.59,5.88,4.44s-7.41,3.66-7.75.4l1.38-.25c.2,1.78,4.79,2.22,4.84,0-.5-2.76-5.58-.74-5.83-4.44-.2-2.82,4-3.11,6-2.08a2.5,2.5,0,0,1,1.18,1.73"/>
 </g>
 <g id="dU">
  <path class="cls-2" d="M595.28,284.24c1.73.24,3,1.13,3,3,0,4.29-5.23,3.36-9.43,3.45V278.46c3.75.15,8.74-.84,8.74,3A2.72,2.72,0,0,1,595.28,284.24Zm-4.79-.55c2.47-.05,5.43.45,5.43-2.07,0-2.32-3.11-1.78-5.43-1.83Zm0,5.68c2.71-.1,6.12.69,6.12-2.22s-3.46-2.08-6.12-2.17v4.39" data-name="gG"/>
  <path id="gk" class="cls-2" d="M604.86,282.65c-3.85-.79-2.62,4.5-2.82,8.05h-1.58l-.05-9.38h1.49a12,12,0,0,0,.09,1.93c.3-1.34,1.14-2.42,2.87-2v1.43"/>
  <path class="cls-2" d="m610 281.12c3.07-0.05 4.2 1.83 4.2 4.89s-1.33 4.89-4.25 4.89-4.05-1.9-4.1-4.9c0-3.25 1.38-4.88 4.15-4.88zm0 8.6c2.18 0 2.62-1.53 2.62-3.71s-0.39-3.7-2.52-3.7-2.61 1.58-2.61 3.7 0.49 3.66 2.51 3.71" data-name="gj"/>
  <path id="gl" class="cls-2" d="M622,290.7l-3.16-4.29-1.13.94v3.35h-1.58V277.82h1.58v8l4.1-4.54h1.82l-3.8,4.05,4,5.33H622"/>
  <path class="cls-2" d="m628.81 281.12c3.11 0 4.25 2.08 4.15 5.24h-6.67c0 2 0.69 3.31 2.62 3.36a2.31 2.31 0 0 0 2.42-1.44l1.38 0.4c-0.54 1.38-1.83 2.22-3.8 2.22-2.87 0-4.35-1.83-4.3-4.94s1.29-4.84 4.2-4.84zm2.57 4a2.53 2.53 0 0 0-4.79-1.38 3.57 3.57 0 0 0-0.3 1.38h5.09" data-name="gg"/>
  <path class="cls-2" d="M639.38,282.65c-3.85-.79-2.62,4.5-2.82,8.05H635l-.05-9.38h1.48a11.92,11.92,0,0,0,.1,1.93c.3-1.34,1.14-2.42,2.87-2v1.43" data-name="gk"/>
 </g>
 <path class="cls-3" d="M291.33,223.32H164v-2H291.33m222.17,2H403.67v-2H513.5"/>
 <path class="cls-3" d="M164,223.32h-1v-2h1m364.73,1L514.5,227v-9.28Z"/>
 <path class="cls-3" d="m532 222.32-18.5 6v-12m2 9.27 10-3.26-10-3.27"/>
 <g id="aT">
  <path id="hq" class="cls-2" d="M294.64,219.69c0,2.62,1,4.3,3.6,4.35a3.25,3.25,0,0,0,3.21-2.32l2.22.84a5.38,5.38,0,0,1-5.43,3.5c-4.05,0-5.93-2.27-6.17-6.37-.35-5.43,5.38-7.7,9.68-5.28a4.15,4.15,0,0,1,1.77,2.47l-2.27.59a3,3,0,0,0-3.06-2c-2.57,0-3.5,1.68-3.55,4.24"/>
  <path id="gZ" class="cls-2" d="M310.78,218.46c-1.92-.59-3,.64-3,2.81v4.6h-2.47l-.05-9.39h2.32a12.17,12.17,0,0,0,.15,2c.3-1.38,1.33-2.62,3-2v2"/>
  <path id="gY" class="cls-2" d="M320.17,223.5a4,4,0,0,1-4.05,2.56c-3-.1-4.4-1.82-4.4-4.93s1.48-4.84,4.45-4.84,4.1,2.22,4.14,5.33h-6c0,1.53.4,2.72,1.93,2.76a1.52,1.52,0,0,0,1.68-1.08Zm-2.23-3.41c.25-2.27-2.81-3.11-3.45-1a3.21,3.21,0,0,0-.2,1h3.65"/>
  <path id="ho" class="cls-2" d="M327.48,224.19c-.79.94-1.49,1.92-3.17,1.87a2.6,2.6,0,0,1-2.86-2.86c-.05-3,2.72-3.11,5.73-3,.05-1.29-.15-2.32-1.38-2.32a1.29,1.29,0,0,0-1.39,1.33l-2.56-.1c.34-1.88,1.77-2.86,4-2.81s3.65,1.08,3.7,3.35l0,4.05c0,.69.59.89,1.23.74v1.34C329.4,226.16,327.38,226,327.48,224.19Zm-2.38.15c1.44,0,2.13-1.19,2.08-2.82-1.58,0-3.26-.15-3.21,1.48,0,.84.39,1.34,1.13,1.34"/>
  <path id="hl" class="cls-2" d="M336.46,225.72c-1.77.69-4.29.34-4.29-2.08v-5.53H331v-1.63h1.33l.75-2.22h1.53v2.22h1.77v1.63h-1.77V223c0,1.14.79,1.53,1.87,1.24v1.48"/>
  <path class="cls-2" d="M345.8,223.5a4,4,0,0,1-4.05,2.56c-3-.1-4.4-1.82-4.4-4.93s1.48-4.84,4.45-4.84,4.1,2.22,4.14,5.33h-6c0,1.53.39,2.72,1.93,2.76a1.51,1.51,0,0,0,1.67-1.08Zm-2.23-3.41c.25-2.27-2.81-3.11-3.45-1a3.21,3.21,0,0,0-.2,1h3.65" data-name="gY"/>
 </g>
 <g id="aU">
  <path id="hv" class="cls-2" d="m355.62 226.06c-2.56 0-3.4-2.22-3.4-4.89s0.89-4.88 3.6-4.88a2.92 2.92 0 0 1 2.87 1.67l0.09-1.48h2.37v13.09h-2.42v-5.28a3.11 3.11 0 0 1-3.11 1.77zm1-1.68c1.58 0 2-1.43 2-3.25s-0.45-3.17-2-3.17-1.93 1.49-2 3.21c0 2.13 0.65 3.21 1.93 3.21"/>
  <path id="hr" class="cls-2" d="M366.49,226.06c-4.3.05-2.87-5.58-3.11-9.58h2.47c.34,2.82-1.14,7.41,1.63,7.76,3-.25,1.72-4.79,2-7.76h2.47l.05,9.39h-2.32a10.94,10.94,0,0,0-.15-1.88,3.07,3.07,0,0,1-3,2.07"/>
  <path class="cls-2" d="M382.24,223.5a4,4,0,0,1-4.05,2.56c-3-.1-4.39-1.82-4.39-4.93s1.48-4.84,4.44-4.84,4.1,2.22,4.15,5.33h-6c0,1.53.4,2.72,1.93,2.76A1.52,1.52,0,0,0,380,223.3ZM380,220.09c.25-2.27-2.82-3.11-3.46-1a3.21,3.21,0,0,0-.2,1H380" data-name="gY"/>
  <path class="cls-2" d="M387.18,226.06c-4.3.05-2.86-5.58-3.11-9.58h2.47c.34,2.82-1.14,7.41,1.63,7.76,3-.25,1.73-4.79,2-7.76h2.47l.05,9.39h-2.32a10.94,10.94,0,0,0-.15-1.88,3.07,3.07,0,0,1-3,2.07" data-name="hr"/>
  <path class="cls-2" d="M402.93,223.5a4,4,0,0,1-4.05,2.56c-3-.1-4.39-1.82-4.39-4.93s1.48-4.84,4.44-4.84,4.1,2.22,4.15,5.33h-6c0,1.53.39,2.72,1.92,2.76a1.52,1.52,0,0,0,1.68-1.08Zm-2.22-3.41c.25-2.27-2.81-3.11-3.46-1a3.21,3.21,0,0,0-.19,1h3.65" data-name="gY"/>
 </g>
 <path class="cls-3" d="M297.25,245.42H164v-2H297.25m216.25,2H397.75v-2H513.5"/>
 <path class="cls-3" d="m164 245.42h-1v-2h1m364.73 1-14.26 4.63v-9.27z"/>
 <path class="cls-3" d="m532 244.42-18.5 6v-12m2 9.26 10-3.26-10-3.26"/>
 <g id="aV">
  <path id="hb" class="cls-2" d="m309.1 239.38a3.36 3.36 0 0 1-2.66 3.46l3.31 5.13h-2.92l-2.83-4.64h-3v4.67h-2.57v-12.27c4.57 0.19 10.72-1.14 10.67 3.65zm-8.09 2c2.37-0.1 5.53 0.59 5.53-1.88s-3.26-1.58-5.53-1.73v3.61"/>
  <path class="cls-2" d="M319.18,245.6a4,4,0,0,1-4.05,2.57c-3-.1-4.4-1.83-4.4-4.94s1.49-4.84,4.45-4.84,4.1,2.23,4.15,5.34h-6c0,1.53.4,2.71,1.93,2.76a1.52,1.52,0,0,0,1.68-1.08ZM317,242.2c.24-2.28-2.82-3.12-3.46-1a3.21,3.21,0,0,0-.2,1H317" data-name="gY"/>
  <path class="cls-2" d="M326.49,246.29c-.79.94-1.48,1.93-3.16,1.88a2.6,2.6,0,0,1-2.87-2.86c0-3,2.72-3.11,5.73-3,.05-1.28-.15-2.32-1.38-2.32a1.28,1.28,0,0,0-1.38,1.34l-2.57-.1c.34-1.88,1.78-2.87,4.05-2.82s3.65,1.09,3.7,3.36l.05,4.05c-.05.69.59.89,1.23.74v1.34C328.41,248.27,326.39,248.12,326.49,246.29Zm-2.37.15c1.43,0,2.12-1.18,2.07-2.81-1.58,0-3.26-.15-3.21,1.48,0,.84.4,1.33,1.14,1.33" data-name="ho"/>
  <path id="hn" class="cls-2" d="m334.14 238.39a3 3 0 0 1 2.87 1.68l-0.05-5h2.47l0.05 12.89h-2.38a13.56 13.56 0 0 0-0.14-1.53 3 3 0 0 1-3 1.73c-2.56 0-3.35-2.22-3.4-4.89s0.92-4.78 3.58-4.88zm0.84 8.1c1.63 0 2-1.48 2-3.26s-0.45-3.16-2-3.16-1.88 1.48-1.92 3.21c0 2.13 0.64 3.21 1.92 3.21"/>
 </g>
 <g data-name="aU">
  <path class="cls-2" d="M349.7,248.17c-2.57,0-3.41-2.22-3.41-4.89s.89-4.89,3.6-4.89a2.91,2.91,0,0,1,2.87,1.68l.1-1.48h2.37l-.05,13.09h-2.42v-5.29A3.1,3.1,0,0,1,349.7,248.17Zm1-1.68c1.58,0,2-1.43,2-3.26s-.45-3.16-2-3.16-1.92,1.48-2,3.21c0,2.13.64,3.21,1.92,3.21" data-name="hv"/>
  <path class="cls-2" d="M360.56,248.17c-4.3.05-2.86-5.58-3.11-9.58h2.47c.34,2.82-1.14,7.41,1.63,7.75,3-.24,1.73-4.79,2-7.75H366L366,248h-2.32a10.9,10.9,0,0,0-.15-1.87,3.07,3.07,0,0,1-3,2.07" data-name="hr"/>
  <path class="cls-2" d="M376.31,245.6a4,4,0,0,1-4.05,2.57c-3-.1-4.39-1.83-4.39-4.94s1.48-4.84,4.44-4.84,4.1,2.23,4.15,5.34h-6c0,1.53.39,2.71,1.92,2.76a1.51,1.51,0,0,0,1.68-1.08Zm-2.22-3.4c.25-2.28-2.81-3.12-3.45-1a3.21,3.21,0,0,0-.2,1h3.65" data-name="gY"/>
  <path class="cls-2" d="M381.25,248.17c-4.29.05-2.86-5.58-3.11-9.58h2.47c.35,2.82-1.14,7.41,1.63,7.75,3-.24,1.73-4.79,2-7.75h2.46l.05,9.38h-2.32a10.9,10.9,0,0,0-.15-1.87,3.07,3.07,0,0,1-3,2.07" data-name="hr"/>
  <path class="cls-2" d="M397,245.6a4,4,0,0,1-4.05,2.57c-3-.1-4.4-1.83-4.4-4.94s1.48-4.84,4.45-4.84,4.09,2.23,4.14,5.34h-6c0,1.53.39,2.71,1.93,2.76a1.51,1.51,0,0,0,1.67-1.08Zm-2.23-3.4c.25-2.28-2.81-3.12-3.45-1a3.21,3.21,0,0,0-.2,1h3.65" data-name="gY"/>
 </g>
 <path class="cls-1" d="M1.5,210.48a6,6,0,0,1,6-6h148a6,6,0,0,1,6,6v108a6,6,0,0,1-6,6H7.5a6,6,0,0,1-6-6Z"/>
 <g id="bh">
  <path class="cls-2" d="M55.82,220.68v5.68h8.52v1.73H55.82v6.17h-2V219H64.59v1.73H55.82" data-name="gw"/>
  <path id="gf" class="cls-2" d="M77.18,234.26l-8.15-13,.06,13H67.3V219h2.41l8.21,13.15L77.8,219h1.91v15.31H77.18"/>
  <path class="cls-2" d="M94.09,234.26l-1.73-4.44h-7l-1.73,4.44H81.5L87.73,219h2.35l6.11,15.31Zm-2.34-6.11-2.9-7.59c-.75,2.77-1.92,5.06-2.84,7.59h5.74" data-name="gz"/>
  <path class="cls-2" d="m108.91 234.26-1.73-4.44h-7l-1.73 4.44h-2.14l6.24-15.26h2.34l6.11 15.26zm-2.35-6.11-2.9-7.59c-0.74 2.77-1.91 5.06-2.84 7.59h5.74" data-name="gz"/>
 </g>
 <g id="dV">
  <path class="cls-2" d="m65.92 246.51v4.54h6.81v1.38h-6.81v4.94h-1.63v-12.25h8.64v1.39h-7" data-name="gw"/>
  <path class="cls-2" d="m74.81 257.37v-12.89h1.58v12.89h-1.58" data-name="gx"/>
  <path class="cls-2" d="m82.46 247.79c3.06 0 4.2 1.83 4.2 4.89s-1.33 4.89-4.25 4.89-4.1-1.93-4.14-4.89c0-3.26 1.38-4.89 4.19-4.89zm0 8.59c2.18 0.05 2.62-1.53 2.62-3.7s-0.39-3.7-2.52-3.7-2.61 1.58-2.61 3.7 0.49 3.65 2.51 3.7" data-name="gj"/>
  <path class="cls-2" d="M97.57,257.37H95.8l-2-8.1-2,8.1H90L87.35,248h1.58l1.93,8.1L93,248h1.68l2,8.1,2.07-8.1h1.53" data-name="gi"/>
 </g>
 <g id="bj">
  <path class="cls-2" d="M43.52,278.7,37,268.28l.05,10.42H35.62V266.46h1.93L44.12,277,44,266.46h1.53V278.7h-2" data-name="gf"/>
  <path id="gn" class="cls-2" d="M53.89,276.93a3.67,3.67,0,0,1-3.35,2,2.64,2.64,0,0,1-2.87-2.81c-.05-3.16,3.11-3.11,6.18-3.11.14-1.73-.45-2.67-2-2.67-1.18.05-2,.34-2.07,1.53l-1.63-.15c.24-1.83,1.63-2.57,3.75-2.57s3.56,1,3.56,3.16v4.05c0,1,.34,1.58,1.38,1.34v1C55.28,279.1,53.8,278.56,53.89,276.93Zm-4.59-.84a1.49,1.49,0,0,0,1.58,1.63c2-.15,3.11-1.44,3-3.66-2.13.1-4.55-.24-4.55,2"/>
  <path id="gC" class="cls-2" d="M67.18,270.36c-3.31.15-1.88,5.18-2.17,8.34H63.47v-6c0-1.43-.24-2.47-1.72-2.37-3.26.2-1.88,5.13-2.18,8.34H58l0-9.38h1.48a8.63,8.63,0,0,0,.1,1.58c.5-2.17,4.89-2.47,5.29,0a3,3,0,0,1,2.86-1.78c4.2-.09,2.32,5.88,2.72,9.58H68.91v-6c0-1.43-.25-2.42-1.73-2.37"/>
  <path class="cls-2" d="M76.51,269.12c3.11,0,4.25,2.08,4.15,5.24H74c0,2,.69,3.31,2.62,3.36A2.31,2.31,0,0,0,79,276.28l1.38.4c-.54,1.38-1.82,2.22-3.8,2.22-2.86,0-4.34-1.83-4.3-4.94S73.6,269.12,76.51,269.12Zm2.57,4a2.53,2.53,0,0,0-4.79-1.38,3.57,3.57,0,0,0-.3,1.38h5.09" data-name="gg"/>
  <path class="cls-2" d="M88.12,271.64c-.15-1.68-4.25-1.87-4.3,0,.74,2.62,5.68.6,5.88,4.45s-7.41,3.65-7.76.39l1.39-.24c.19,1.77,4.79,2.22,4.84,0-.5-2.77-5.58-.75-5.83-4.45-.2-2.81,4-3.11,6-2.07a2.44,2.44,0,0,1,1.19,1.73" data-name="gu"/>
  <path id="gq" class="cls-2" d="M96,269.12c2.71.05,3.45,2,3.45,4.84s-.79,4.84-3.45,4.94a3,3,0,0,1-3-1.68l0,5.19H91.52l0-13.09H93l.09,1.48A2.94,2.94,0,0,1,96,269.12Zm-.4,8.6c2,0,2.23-1.68,2.23-3.71s-.3-3.6-2.23-3.65-2.52,1.58-2.52,3.75.5,3.61,2.52,3.61"/>
  <path class="cls-2" d="M107.18,276.93a3.67,3.67,0,0,1-3.36,2,2.63,2.63,0,0,1-2.86-2.81c0-3.16,3.11-3.11,6.17-3.11.15-1.73-.45-2.67-2-2.67-1.18.05-2,.34-2.07,1.53l-1.63-.15c.25-1.83,1.63-2.57,3.75-2.57s3.56,1,3.56,3.16v4.05c0,1,.35,1.58,1.38,1.34v1C108.56,279.1,107.08,278.56,107.18,276.93Zm-4.59-.84a1.49,1.49,0,0,0,1.58,1.63c2-.15,3.11-1.44,3-3.66-2.12.1-4.54-.24-4.54,2" data-name="gn"/>
  <path id="gp" class="cls-2" d="M114.83,270.36c-2,0-2.37,1.63-2.37,3.6s.45,3.71,2.37,3.71a2,2,0,0,0,2.13-1.88l1.58.1a3.39,3.39,0,0,1-3.66,3c-2.91,0-3.75-2-4-4.89-.49-4.59,5-6.47,7.26-3.16a4,4,0,0,1,.35,1.09l-1.58.15a1.89,1.89,0,0,0-2-1.73"/>
  <path class="cls-2" d="m123.92 269.12c3.11 0 4.25 2.08 4.15 5.24h-6.67c0 2 0.69 3.31 2.62 3.36a2.31 2.31 0 0 0 2.42-1.44l1.38 0.4c-0.54 1.38-1.83 2.22-3.8 2.22-2.87 0-4.35-1.83-4.3-4.94s1.28-4.84 4.2-4.84zm2.57 4a2.53 2.53 0 0 0-4.79-1.38 3.57 3.57 0 0 0-0.3 1.38h5.09" data-name="gg"/>
 </g>
 <g id="bz">
  <path class="cls-2" d="M25.48,300l-1.39-3.56H18.51L17.13,300H15.4l5-12.25h1.88L27.15,300Zm-1.88-4.89-2.32-6.08c-.6,2.23-1.53,4.05-2.27,6.08H23.6" data-name="gz"/>
  <path class="cls-2" d="M31.94,291.69c-2,0-2.37,1.63-2.37,3.61S30,299,31.94,299a2,2,0,0,0,2.13-1.88l1.58.1a3.39,3.39,0,0,1-3.66,3c-2.91,0-3.75-2-4-4.89-.49-4.6,5-6.47,7.26-3.16a3.91,3.91,0,0,1,.35,1.08l-1.58.15a1.89,1.89,0,0,0-2-1.73" data-name="gp"/>
  <path class="cls-2" d="M40.83,291.69c-2,0-2.37,1.63-2.37,3.61s.45,3.7,2.37,3.7A2,2,0,0,0,43,297.12l1.58.1a3.39,3.39,0,0,1-3.66,3c-2.91,0-3.75-2-4.05-4.89-.49-4.6,5-6.47,7.26-3.16a3.91,3.91,0,0,1,.35,1.08l-1.58.15a1.89,1.89,0,0,0-2-1.73" data-name="gp"/>
  <path class="cls-2" d="M49.92,290.46c3.11,0,4.25,2.07,4.15,5.23H47.4c0,2,.69,3.31,2.62,3.36a2.3,2.3,0,0,0,2.42-1.43l1.38.39c-.54,1.39-1.83,2.23-3.8,2.23-2.87,0-4.35-1.83-4.3-4.94S47,290.46,49.92,290.46Zm2.57,4a2.54,2.54,0,0,0-4.79-1.39,3.58,3.58,0,0,0-.3,1.39h5.09" data-name="gg"/>
  <path class="cls-2" d="M61.52,293c-.14-1.68-4.24-1.88-4.29,0,.74,2.61,5.68.59,5.87,4.44s-7.4,3.65-7.75.4l1.38-.25c.2,1.78,4.79,2.22,4.84,0-.49-2.77-5.58-.74-5.82-4.45-.2-2.81,4-3.11,6-2.07A2.51,2.51,0,0,1,63,292.78" data-name="gu"/>
  <path class="cls-2" d="M70.41,293c-.14-1.68-4.24-1.88-4.29,0,.74,2.61,5.68.59,5.87,4.44s-7.4,3.65-7.75.4l1.38-.25c.2,1.78,4.79,2.22,4.84,0-.49-2.77-5.58-.74-5.82-4.45-.2-2.81,4-3.11,6-2.07a2.51,2.51,0,0,1,1.19,1.73" data-name="gu"/>
  <path id="go" class="cls-2" d="M73.82,288.63v-1.48H75.4v1.48Zm0,11.41v-9.38H75.4V300H73.82"/>
  <path class="cls-2" d="M82.31,290.46c4.4-.2,2.62,5.73,3,9.58H83.7v-6c0-1.53-.4-2.42-1.93-2.37-3.55.1-2.17,5-2.42,8.35H77.77l0-9.38H79.2a7.93,7.93,0,0,0,.1,1.58,3.12,3.12,0,0,1,3-1.78" data-name="gr"/>
  <path class="cls-2" d="M95.15,290.66c-.49,6.17,2,14.46-5.43,12.88a2.8,2.8,0,0,1-2.17-2.12l1.58-.25c.74,2.32,4.94,1.58,4.39-1.38v-1.48a3.11,3.11,0,0,1-3,1.78c-2.66,0-3.36-2-3.36-4.74s.79-4.79,3.51-4.84a3.16,3.16,0,0,1,2.91,1.73,15.56,15.56,0,0,1,.1-1.58ZM91.06,299c1.77,0,2.46-1.58,2.46-3.6s-.69-3.71-2.46-3.71c-1.93,0-2.28,1.68-2.28,3.71s.3,3.6,2.28,3.6" data-name="gy"/>
 </g>
 <g id="g">
  <path class="cls-2" d="M111.35,300,110,296.48h-5.58L103,300h-1.73l5-12.25h1.87L113,300Zm-1.87-4.89-2.33-6.08c-.59,2.23-1.53,4.05-2.27,6.08h4.6" data-name="gz"/>
  <path class="cls-2" d="M121.82,290.66c-.49,6.17,2,14.46-5.43,12.88a2.78,2.78,0,0,1-2.17-2.12l1.58-.25c.74,2.32,4.93,1.58,4.39-1.38v-1.48a3.11,3.11,0,0,1-3,1.78c-2.67,0-3.36-2-3.36-4.74s.79-4.79,3.51-4.84a3.16,3.16,0,0,1,2.91,1.73,15.56,15.56,0,0,1,.1-1.58Zm-4.1,8.29c1.78,0,2.47-1.58,2.47-3.6s-.69-3.71-2.47-3.71-2.27,1.68-2.27,3.71.3,3.6,2.27,3.6" data-name="gy"/>
  <path class="cls-2" d="m127.9 290.46c3.11 0 4.24 2.07 4.14 5.23h-6.66c0 2 0.69 3.31 2.61 3.36a2.29 2.29 0 0 0 2.42-1.43l1.39 0.39a3.72 3.72 0 0 1-3.81 2.23c-2.86 0-4.34-1.83-4.29-4.94s1.3-4.84 4.2-4.84zm2.56 4a2.54 2.54 0 0 0-4.79-1.39 3.59 3.59 0 0 0-0.29 1.39h5.08" data-name="gg"/>
  <path class="cls-2" d="M138.61,290.46c4.4-.2,2.62,5.73,3,9.58H140v-6c0-1.53-.39-2.42-1.92-2.37-3.56.1-2.17,5-2.42,8.35h-1.58l0-9.38h1.48a7.93,7.93,0,0,0,.1,1.58,3.11,3.11,0,0,1,3-1.78" data-name="gr"/>
  <path class="cls-2" d="M145.62,297.72c-.1,1.18.89,1.43,1.88,1.08V300c-1.63.49-3.46.25-3.46-1.93v-6.27H143v-1.13h1.18l.45-2.13h1v2.13h1.73v1.13h-1.73v5.93" data-name="gh"/>
 </g>
 <path class="cls-3" d="M288.9,265.48H164v-2H288.9m224.6,2H406.1v-2H513.5"/>
 <path class="cls-3" d="m164 265.48h-1v-2h1m364.73 1-14.26 4.64v-9.27z"/>
 <path class="cls-3" d="m532 264.48-18.5 6v-12m2 9.26 10-3.26-10-3.26"/>
 <g id="aJ">
  <path id="hh" class="cls-2" d="M300.66,263.35c0,3.4-2.17,4.89-5.48,4.89S290,266.8,290,263.45v-7.66h2.52v7.46a2.57,2.57,0,0,0,2.72,3c4.44.05,2.42-6.42,2.86-10.42h2.57v7.56"/>
  <path id="hm" class="cls-2" d="M308.36,258.46c2.62,0,3.46,2.17,3.46,4.84s-.94,4.84-3.6,4.94a3.41,3.41,0,0,1-2.92-1.68c.15,1.63.1,3.4.1,5.18h-2.47l-.05-13.09h2.37a13.4,13.4,0,0,0,.15,1.54A2.85,2.85,0,0,1,308.36,258.46Zm-1,8.1c1.63,0,1.92-1.53,2-3.26,0-1.88-.44-3.16-2-3.16-2.77,0-2.72,6.42,0,6.42"/>
  <path class="cls-2" d="m316.86 258.46a3 3 0 0 1 2.86 1.68l-0.05-5h2.47l0.05 12.89h-2.37a13 13 0 0 0-0.15-1.53 3 3 0 0 1-3 1.73c-2.57 0-3.36-2.23-3.41-4.89s0.93-4.78 3.6-4.88zm0.84 8.1c1.63 0 2-1.49 2-3.26s-0.44-3.16-2-3.16-1.88 1.48-1.93 3.21c0 2.12 0.64 3.21 1.93 3.21" data-name="hn"/>
  <path class="cls-2" d="M329.89,266.36c-.79.94-1.48,1.92-3.16,1.88a2.6,2.6,0,0,1-2.86-2.87c-.05-3,2.72-3.11,5.73-3,0-1.29-.15-2.32-1.38-2.32a1.29,1.29,0,0,0-1.39,1.33l-2.56-.1c.34-1.87,1.77-2.86,4-2.81s3.66,1.08,3.71,3.36l.05,4c-.05.7.59.89,1.23.75v1.33C331.82,268.33,329.8,268.19,329.89,266.36Zm-2.37.15c1.44,0,2.13-1.19,2.08-2.82-1.58,0-3.26-.15-3.21,1.48,0,.84.39,1.34,1.13,1.34" data-name="ho"/>
  <path class="cls-2" d="M338.88,267.89c-1.78.69-4.29.35-4.29-2.07v-5.54H333.4v-1.63h1.33l.75-2.22H337v2.22h1.77v1.63H337v4.89c-.05,1.14.79,1.53,1.87,1.24v1.48" data-name="hl"/>
  <path class="cls-2" d="M348.22,265.67a4,4,0,0,1-4.05,2.57c-3-.1-4.4-1.83-4.4-4.94s1.48-4.84,4.45-4.84,4.09,2.22,4.14,5.33h-6c0,1.53.39,2.72,1.93,2.77a1.51,1.51,0,0,0,1.67-1.09ZM346,262.26c.25-2.27-2.81-3.11-3.45-1a3.21,3.21,0,0,0-.2,1H346" data-name="gY"/>
 </g>
 <g data-name="aU">
  <path class="cls-2" d="M358,268.24c-2.57,0-3.4-2.23-3.4-4.89s.88-4.89,3.6-4.89a2.89,2.89,0,0,1,2.86,1.68l.1-1.49h2.37l-.05,13.09H361.1v-5.28A3.1,3.1,0,0,1,358,268.24Zm1-1.68c1.58,0,2-1.44,2-3.26s-.44-3.16-2-3.16-1.93,1.48-2,3.21c0,2.12.65,3.21,1.93,3.21" data-name="hv"/>
  <path class="cls-2" d="M368.91,268.24c-4.3,0-2.87-5.59-3.11-9.59h2.46c.35,2.82-1.13,7.41,1.63,7.76,3-.25,1.73-4.79,2-7.76h2.47l.05,9.39h-2.32a11,11,0,0,0-.15-1.88,3.07,3.07,0,0,1-3,2.08" data-name="hr"/>
  <path class="cls-2" d="M384.66,265.67a4,4,0,0,1-4.05,2.57c-3-.1-4.39-1.83-4.39-4.94s1.48-4.84,4.44-4.84,4.1,2.22,4.15,5.33h-6c0,1.53.4,2.72,1.93,2.77a1.52,1.52,0,0,0,1.68-1.09Zm-2.22-3.41c.24-2.27-2.82-3.11-3.46-1a3.21,3.21,0,0,0-.2,1h3.66" data-name="gY"/>
  <path class="cls-2" d="M389.6,268.24c-4.3,0-2.87-5.59-3.11-9.59H389c.34,2.82-1.14,7.41,1.63,7.76,3-.25,1.72-4.79,2-7.76H395l.05,9.39h-2.32a11,11,0,0,0-.15-1.88,3.07,3.07,0,0,1-3,2.08" data-name="hr"/>
  <path class="cls-2" d="M405.35,265.67a4,4,0,0,1-4.05,2.57c-3-.1-4.39-1.83-4.39-4.94s1.48-4.84,4.44-4.84,4.1,2.22,4.15,5.33h-6c0,1.53.4,2.72,1.93,2.77a1.52,1.52,0,0,0,1.68-1.09Zm-2.22-3.41c.25-2.27-2.82-3.11-3.46-1a3.21,3.21,0,0,0-.2,1h3.66" data-name="gY"/>
 </g>
 <path class="cls-3" d="M292.3,284.29H164v-2H292.3m221.2,2H402.7v-2H513.5"/>
 <path class="cls-3" d="m164 284.29h-1v-2h1m364.73 1-14.26 4.64v-9.27z"/>
 <path class="cls-3" d="m532 283.29-18.5 6v-12m2 9.26 10-3.26-10-3.26"/>
 <g id="aW">
  <path id="hw" class="cls-2" d="M293.5,274.6c5.93-.35,11,.25,10.91,6-.05,3.95-2.17,6.23-6,6.23H293.5Zm2.57,10.27c3.65.35,5.78-.89,5.78-4.25s-2.23-4.34-5.78-4.05v8.3"/>
  <path class="cls-2" d="M314.24,284.48a4,4,0,0,1-4.05,2.56c-3-.1-4.39-1.82-4.39-4.94s1.48-4.83,4.44-4.83,4.1,2.22,4.15,5.33h-6c0,1.53.4,2.71,1.93,2.76a1.52,1.52,0,0,0,1.68-1.08ZM312,281.07c.25-2.27-2.82-3.11-3.46-1a3.21,3.21,0,0,0-.2,1H312" data-name="gY"/>
  <path id="he" class="cls-2" d="M316.22,286.85V274h2.46v12.89h-2.46"/>
  <path class="cls-2" d="M329.06,284.48A4,4,0,0,1,325,287c-3-.1-4.4-1.82-4.4-4.94s1.48-4.83,4.45-4.83,4.09,2.22,4.14,5.33h-6c0,1.53.39,2.71,1.92,2.76a1.51,1.51,0,0,0,1.68-1.08Zm-2.23-3.41c.25-2.27-2.81-3.11-3.45-1a3.21,3.21,0,0,0-.2,1h3.65" data-name="gY"/>
  <path class="cls-2" d="M335.47,286.7c-1.77.69-4.29.34-4.29-2.08v-5.53H330v-1.63h1.34l.74-2.22h1.53v2.22h1.78v1.63H333.6V284c-.05,1.14.79,1.53,1.87,1.24v1.48" data-name="hl"/>
  <path class="cls-2" d="M344.81,284.48a4,4,0,0,1-4.05,2.56c-3-.1-4.4-1.82-4.4-4.94s1.49-4.83,4.45-4.83,4.1,2.22,4.15,5.33h-6c0,1.53.4,2.71,1.93,2.76a1.52,1.52,0,0,0,1.68-1.08Zm-2.22-3.41c.24-2.27-2.82-3.11-3.46-1a3.21,3.21,0,0,0-.2,1h3.66" data-name="gY"/>
 </g>
 <g data-name="aU">
  <path class="cls-2" d="M354.64,287c-2.57,0-3.41-2.22-3.41-4.89s.89-4.88,3.6-4.88a2.91,2.91,0,0,1,2.87,1.67l.1-1.48h2.37l-.05,13.09H357.7v-5.28A3.1,3.1,0,0,1,354.64,287Zm1-1.68c1.58,0,2-1.43,2-3.26s-.45-3.16-2-3.16-1.92,1.49-2,3.21c0,2.13.64,3.21,1.92,3.21" data-name="hv"/>
  <path class="cls-2" d="M365.5,287c-4.3,0-2.86-5.58-3.11-9.58h2.47c.34,2.82-1.14,7.41,1.63,7.76,3-.25,1.73-4.79,2-7.76h2.47l.05,9.39h-2.32a10.94,10.94,0,0,0-.15-1.88,3.07,3.07,0,0,1-3,2.07" data-name="hr"/>
  <path class="cls-2" d="M381.25,284.48A4,4,0,0,1,377.2,287c-3-.1-4.39-1.82-4.39-4.94s1.48-4.83,4.44-4.83,4.1,2.22,4.15,5.33h-6c0,1.53.39,2.71,1.92,2.76a1.52,1.52,0,0,0,1.68-1.08ZM379,281.07c.25-2.27-2.81-3.11-3.46-1a3.21,3.21,0,0,0-.19,1H379" data-name="gY"/>
  <path class="cls-2" d="M386.19,287c-4.3,0-2.86-5.58-3.11-9.58h2.47c.34,2.82-1.14,7.41,1.63,7.76,3-.25,1.73-4.79,2-7.76h2.47l.05,9.39h-2.32a10.94,10.94,0,0,0-.15-1.88,3.07,3.07,0,0,1-3,2.07" data-name="hr"/>
  <path class="cls-2" d="M401.94,284.48a4,4,0,0,1-4.05,2.56c-3-.1-4.39-1.82-4.39-4.94s1.48-4.83,4.44-4.83,4.1,2.22,4.15,5.33h-6c0,1.53.39,2.71,1.92,2.76a1.52,1.52,0,0,0,1.68-1.08Zm-2.22-3.41c.25-2.27-2.81-3.11-3.45-1a3.21,3.21,0,0,0-.2,1h3.65" data-name="gY"/>
 </g>
 <path class="cls-1" d="M1.5,67.74a6,6,0,0,1,6-6h148a6,6,0,0,1,6,6v108a6,6,0,0,1-6,6H7.5a6,6,0,0,1-6-6Z"/>
 <g data-name="dS">
  <path class="cls-2" d="m63.81 89.94v5.68h8.52v1.72h-8.52v6.18h-2v-15.31h10.8v1.73h-8.8" data-name="gw"/>
  <path class="cls-2" d="M75.3,103.52V88.21H86.84v1.73H77.33v4.87h8.89v1.67H77.33v5.37h10v1.67h-12" data-name="gD"/>
  <path class="cls-2" d="M98.14,95.43c2.16.31,3.76,1.42,3.76,3.77,0,5.37-6.54,4.19-11.79,4.32V88.21c4.69.18,10.93-1,10.93,3.7A3.39,3.39,0,0,1,98.14,95.43Zm-6-.68c3.08-.06,6.79.56,6.79-2.59,0-2.9-3.89-2.22-6.79-2.29Zm0,7.1c3.39-.12,7.65.86,7.65-2.78,0-3.45-4.32-2.59-7.65-2.71v5.49" data-name="gG"/>
 </g>
 <g data-name="bu">
  <path class="cls-2" d="m36.29 115.76v4.55h6.81v1.38h-6.81v4.94h-1.63v-12.25h8.64v1.38h-7" data-name="gw"/>
  <path class="cls-2" d="m45.18 126.63v-12.89h1.58v12.89h-1.58" data-name="gx"/>
  <path class="cls-2" d="m52.83 117.05c3.06 0 4.2 1.82 4.2 4.89s-1.33 4.89-4.25 4.89-4.1-1.93-4.14-4.89c0-3.26 1.36-4.89 4.19-4.89zm0 8.59c2.18 0 2.62-1.53 2.62-3.7s-0.39-3.71-2.52-3.71-2.61 1.58-2.61 3.71 0.49 3.65 2.51 3.7" data-name="gj"/>
  <path class="cls-2" d="M67.94,126.63H66.17l-2-8.1-2,8.1H60.39l-2.67-9.39H59.3l1.93,8.1,2.12-8.1H65l2,8.1,2.07-8.1h1.53" data-name="gi"/>
 </g>
 <g data-name="dT">
  <path class="cls-2" d="M77,126.63V114.38h9.24v1.38H78.61v3.9h7.11V121H78.61v4.29h8v1.34H77" data-name="gD"/>
  <path class="cls-2" d="m92.69 126.63h-1.88l-3.41-9.39h1.68l2.67 8.15 2.76-8.15h1.68" data-name="gE"/>
  <path class="cls-2" d="m101.18 117.05c3.11 0 4.25 2.07 4.15 5.23h-6.67c0 2 0.69 3.31 2.62 3.36a2.3 2.3 0 0 0 2.42-1.43l1.38 0.39c-0.54 1.39-1.83 2.23-3.8 2.23-2.87 0-4.35-1.83-4.3-4.94s1.29-4.84 4.2-4.84zm2.57 4a2.53 2.53 0 0 0-4.75-1.39 3.58 3.58 0 0 0-0.3 1.39h5.09" data-name="gg"/>
  <path class="cls-2" d="M111.9,117.05c4.39-.2,2.61,5.73,3,9.58h-1.58v-6c0-1.53-.4-2.42-1.93-2.37-3.55.1-2.17,5-2.42,8.35h-1.58l0-9.39h1.48a8,8,0,0,0,.1,1.59,3.13,3.13,0,0,1,3-1.78" data-name="gr"/>
  <path class="cls-2" d="M118.91,124.31c-.1,1.18.89,1.43,1.87,1.08v1.19c-1.63.49-3.45.25-3.45-1.93v-6.27h-1.09v-1.14h1.19l.44-2.12h1v2.12h1.73v1.14h-1.73v5.93" data-name="gh"/>
  <path class="cls-2" d="M127.6,119.57c-.15-1.68-4.25-1.88-4.3,0,.74,2.61,5.68.59,5.88,4.44s-7.41,3.65-7.75.4l1.38-.25c.2,1.78,4.79,2.22,4.84,0-.5-2.77-5.58-.74-5.83-4.45-.2-2.81,4.05-3.11,6-2.07a2.5,2.5,0,0,1,1.18,1.73" data-name="gu"/>
 </g>
 <g data-name="dU">
  <path class="cls-2" d="M63.28,141.49c1.73.25,3,1.14,3,3,0,4.3-5.23,3.36-9.43,3.46V135.71c3.75.15,8.74-.84,8.74,3A2.7,2.7,0,0,1,63.28,141.49ZM58.49,141c2.47,0,5.43.44,5.43-2.08,0-2.32-3.11-1.77-5.43-1.82Zm0,5.68c2.71-.1,6.12.69,6.12-2.22s-3.46-2.08-6.12-2.18v4.4" data-name="gG"/>
  <path class="cls-2" d="M72.86,139.91c-3.85-.79-2.62,4.5-2.82,8.05H68.46l0-9.38H69.9A11.78,11.78,0,0,0,70,140.5c.3-1.33,1.14-2.42,2.87-2v1.43" data-name="gk"/>
  <path class="cls-2" d="M78,138.38c3.07,0,4.2,1.83,4.2,4.89s-1.33,4.89-4.25,4.89-4.09-1.93-4.14-4.89C73.85,140,75.23,138.38,78,138.38ZM78,147c2.18.05,2.62-1.53,2.62-3.7s-.39-3.7-2.52-3.7-2.61,1.58-2.61,3.7S76,146.92,78,147" data-name="gj"/>
  <path class="cls-2" d="M90,148l-3.16-4.3-1.13.94V148H84.17V135.07h1.58v8.05l4.1-4.54h1.82l-3.8,4,4,5.33H90" data-name="gl"/>
  <path class="cls-2" d="m96.81 138.38c3.11 0 4.25 2.07 4.15 5.24h-6.67c0 2 0.69 3.3 2.62 3.35a2.3 2.3 0 0 0 2.42-1.43l1.38 0.4c-0.54 1.38-1.83 2.22-3.8 2.22-2.87 0-4.35-1.83-4.3-4.94s1.29-4.84 4.2-4.84zm2.57 4a2.53 2.53 0 0 0-4.79-1.38 3.53 3.53 0 0 0-0.3 1.38h5.09" data-name="gg"/>
  <path class="cls-2" d="M107.38,139.91c-3.85-.79-2.62,4.5-2.82,8.05H103l0-9.38h1.48a11.73,11.73,0,0,0,.1,1.92c.3-1.33,1.14-2.42,2.87-2v1.43" data-name="gk"/>
 </g>
 <path class="cls-1" d="m533.5 67.74a6 6 0 0 1 6-6h148a6 6 0 0 1 6 6v108a6 6 0 0 1-6 6h-148a6 6 0 0 1-6-6z"/>
 <g id="dW">
  <path id="gs" class="cls-2" d="M595.81,103.52V88.21h2.1v15.31h-2.1"/>
  <path class="cls-2" d="M612.6,103.52l-1.72-4.45h-7l-1.73,4.45H600l6.24-15.31h2.34l6.11,15.31Zm-2.34-6.11-2.9-7.6c-.74,2.78-1.92,5.06-2.84,7.6h5.74" data-name="gz"/>
  <path class="cls-2" d="M629.58,103.52l.12-13.46c-1.42,4.69-3.33,9-4.94,13.46h-1.41l-5-13.46.06,13.46h-1.79V88.21h2.71l4.76,13c1.29-4.63,3.14-8.64,4.69-13h2.65v15.31h-1.85" data-name="gN"/>
 </g>
 <g id="dX">
  <path class="cls-2" d="m555.4 126.63v-12.25h1.68v12.25h-1.68" data-name="gs"/>
  <path id="gA" class="cls-2" d="m562.91 117.05a3.12 3.12 0 0 1 3 1.63v-4.94h1.58l0.05 12.89h-1.54a13 13 0 0 0-0.15-1.53 2.81 2.81 0 0 1-2.91 1.73c-2.62 0-3.41-1.93-3.46-4.84-0.03-3.26 1.11-4.94 3.43-4.94zm0.44 1.18c-2 0-2.27 1.68-2.27 3.71s0.3 3.65 2.22 3.65c2.08 0 2.52-1.58 2.52-3.75s-0.44-3.66-2.47-3.61"/>
  <path class="cls-2" d="m573.52 117.05c3.12 0 4.25 2.07 4.15 5.23h-6.67c0 2 0.69 3.31 2.61 3.36a2.29 2.29 0 0 0 2.42-1.43l1.39 0.39a3.72 3.72 0 0 1-3.81 2.23c-2.86 0-4.34-1.83-4.29-4.94s1.29-4.84 4.2-4.84zm2.57 4a2.53 2.53 0 0 0-4.79-1.39 3.59 3.59 0 0 0-0.29 1.39h5.08" data-name="gg"/>
  <path class="cls-2" d="M584.24,117.05c4.4-.2,2.62,5.73,3,9.58h-1.58v-6c0-1.53-.39-2.42-1.92-2.37-3.56.1-2.18,5-2.42,8.35H579.7l-.05-9.39h1.48a8,8,0,0,0,.1,1.59,3.11,3.11,0,0,1,3-1.78" data-name="gr"/>
  <path class="cls-2" d="M591.25,124.31c-.1,1.18.89,1.43,1.88,1.08v1.19c-1.63.49-3.46.25-3.46-1.93v-6.27h-1.08v-1.14h1.18l.45-2.12h1v2.12H593v1.14h-1.73v5.93" data-name="gh"/>
  <path class="cls-2" d="M594.46,115.22v-1.48H596v1.48Zm0,11.41v-9.39H596v9.39h-1.58" data-name="go"/>
  <path class="cls-2" d="M600.09,124.31c-.1,1.18.89,1.43,1.88,1.08v1.19c-1.63.49-3.46.25-3.46-1.93v-6.27h-1.08v-1.14h1.18l.45-2.12h1v2.12h1.73v1.14h-1.73v5.93" data-name="gh"/>
  <path id="gM" class="cls-2" d="M611,117.24l-4.25,10.92a3.35,3.35,0,0,1-4,2.07v-1.18c1.93.29,2.62-1,3.16-2.47l-3.7-9.34h1.68l2.81,7.71,2.67-7.71H611"/>
 </g>
 <g id="dY">
  <path class="cls-2" d="M626.07,126.63l-1.38-3.56H619.1l-1.38,3.56H616l5-12.25h1.88l4.89,12.25Zm-1.88-4.89-2.32-6.08c-.59,2.23-1.53,4-2.27,6.08h4.59" data-name="gz"/>
  <path class="cls-2" d="M632.54,118.28c-2,0-2.37,1.63-2.37,3.61s.44,3.7,2.37,3.7a2,2,0,0,0,2.12-1.88l1.58.1a3.39,3.39,0,0,1-3.65,3c-2.92,0-3.76-2-4.05-4.89-.5-4.6,5-6.47,7.26-3.16a4.25,4.25,0,0,1,.34,1.08l-1.58.15a1.89,1.89,0,0,0-2-1.73" data-name="gp"/>
  <path class="cls-2" d="M641.43,118.28c-2,0-2.37,1.63-2.37,3.61s.44,3.7,2.37,3.7a2,2,0,0,0,2.12-1.88l1.58.1a3.39,3.39,0,0,1-3.65,3c-2.92,0-3.76-2-4.05-4.89-.5-4.6,5-6.47,7.26-3.16a4.25,4.25,0,0,1,.34,1.08l-1.58.15a1.89,1.89,0,0,0-2-1.73" data-name="gp"/>
  <path class="cls-2" d="m650.51 117.05c3.11 0 4.25 2.07 4.15 5.23h-6.66c0 2 0.7 3.31 2.62 3.36a2.3 2.3 0 0 0 2.42-1.43l1.38 0.39c-0.54 1.39-1.82 2.23-3.8 2.23-2.86 0-4.34-1.83-4.3-4.94s1.28-4.84 4.19-4.84zm2.57 4a2.53 2.53 0 0 0-4.79-1.39 3.58 3.58 0 0 0-0.3 1.39h5.09" data-name="gg"/>
  <path class="cls-2" d="M662.12,119.57c-.15-1.68-4.25-1.88-4.3,0,.74,2.61,5.68.59,5.88,4.44s-7.41,3.65-7.76.4l1.39-.25c.19,1.78,4.79,2.22,4.84,0-.5-2.77-5.58-.74-5.83-4.45-.2-2.81,4-3.11,6-2.07a2.48,2.48,0,0,1,1.19,1.73" data-name="gu"/>
  <path class="cls-2" d="M671,119.57c-.15-1.68-4.25-1.88-4.3,0,.74,2.61,5.68.59,5.88,4.44s-7.41,3.65-7.76.4l1.39-.25c.19,1.78,4.79,2.22,4.84,0-.5-2.77-5.58-.74-5.83-4.45-.2-2.81,4-3.11,6-2.07a2.48,2.48,0,0,1,1.19,1.73" data-name="gu"/>
 </g>
 <g id="dZ">
  <path class="cls-2" d="M573.55,148l.1-10.76C572.51,141,571,144.36,569.7,148h-1.14l-4-10.76.05,10.76h-1.43V135.71h2.17l3.8,10.42c1-3.7,2.52-6.91,3.76-10.42H575V148h-1.48" data-name="gN"/>
  <path class="cls-2" d="M583.43,146.18a3.68,3.68,0,0,1-3.36,2,2.64,2.64,0,0,1-2.87-2.82c-.05-3.16,3.11-3.11,6.18-3.11.14-1.73-.45-2.66-2-2.66-1.18.05-2,.34-2.07,1.53l-1.63-.15c.24-1.83,1.63-2.57,3.75-2.57s3.56,1,3.56,3.16v4.05c-.05,1,.34,1.58,1.38,1.33v1C584.81,148.36,583.33,147.81,583.43,146.18Zm-4.6-.84a1.49,1.49,0,0,0,1.58,1.63c2-.14,3.11-1.43,3-3.65-2.13.1-4.55-.25-4.55,2" data-name="gn"/>
  <path class="cls-2" d="M592.12,138.38c4.39-.2,2.61,5.73,3,9.58H593.5v-6c0-1.54-.4-2.42-1.93-2.37-3.55.09-2.17,5-2.42,8.34h-1.58l-.05-9.38H589a8.79,8.79,0,0,0,.09,1.58,3.14,3.14,0,0,1,3-1.78" data-name="gr"/>
  <path class="cls-2" d="M603.18,146.18a3.66,3.66,0,0,1-3.36,2,2.63,2.63,0,0,1-2.86-2.82c-.05-3.16,3.11-3.11,6.17-3.11.15-1.73-.45-2.66-2-2.66-1.18.05-2,.34-2.07,1.53L597.4,141c.25-1.83,1.63-2.57,3.75-2.57s3.56,1,3.56,3.16v4.05c-.05,1,.35,1.58,1.38,1.33v1C604.56,148.36,603.08,147.81,603.18,146.18Zm-4.59-.84a1.49,1.49,0,0,0,1.58,1.63c2-.14,3.11-1.43,3-3.65-2.12.1-4.54-.25-4.54,2" data-name="gn"/>
  <path class="cls-2" d="M614.83,138.58c-.49,6.17,2,14.47-5.43,12.89a2.82,2.82,0,0,1-2.17-2.13l1.58-.24c.74,2.32,4.94,1.58,4.39-1.39v-1.48a3.11,3.11,0,0,1-3,1.78c-2.67,0-3.36-2-3.36-4.74s.79-4.79,3.51-4.84a3.16,3.16,0,0,1,2.91,1.73,15.56,15.56,0,0,1,.1-1.58Zm-4.1,8.29c1.78,0,2.47-1.58,2.47-3.6s-.69-3.7-2.47-3.7-2.27,1.67-2.27,3.7.3,3.6,2.27,3.6" data-name="gy"/>
  <path class="cls-2" d="m620.91 138.38c3.11 0 4.24 2.07 4.15 5.24h-6.67c0 2 0.69 3.3 2.62 3.35a2.3 2.3 0 0 0 2.42-1.43l1.38 0.4c-0.54 1.38-1.83 2.22-3.8 2.22-2.87 0-4.35-1.83-4.3-4.94s1.29-4.84 4.2-4.84zm2.57 4a2.54 2.54 0 0 0-4.8-1.38 3.73 3.73 0 0 0-0.29 1.38h5.09" data-name="gg"/>
  <path class="cls-2" d="M636.22,139.62c-3.31.14-1.88,5.18-2.18,8.34h-1.53v-6c0-1.44-.24-2.47-1.73-2.37-3.26.19-1.87,5.13-2.17,8.34h-1.53l-.05-9.38h1.48a7.93,7.93,0,0,0,.1,1.58c.49-2.17,4.89-2.47,5.28,0a3,3,0,0,1,2.87-1.78c4.2-.1,2.32,5.88,2.72,9.58h-1.54v-6c0-1.44-.24-2.42-1.72-2.37" data-name="gC"/>
  <path class="cls-2" d="m645.55 138.38c3.11 0 4.25 2.07 4.15 5.24h-6.7c0 2 0.69 3.3 2.62 3.35a2.3 2.3 0 0 0 2.42-1.43l1.38 0.4c-0.54 1.38-1.83 2.22-3.8 2.22-2.87 0-4.35-1.83-4.3-4.94s1.32-4.84 4.23-4.84zm2.57 4a2.53 2.53 0 0 0-4.79-1.38 3.53 3.53 0 0 0-0.3 1.38h5.09" data-name="gg"/>
  <path class="cls-2" d="M656.27,138.38c4.39-.2,2.61,5.73,3,9.58h-1.58v-6c0-1.54-.4-2.42-1.93-2.37-3.55.09-2.17,5-2.42,8.34h-1.58l-.05-9.38h1.48a7.93,7.93,0,0,0,.1,1.58,3.13,3.13,0,0,1,3-1.78" data-name="gr"/>
  <path class="cls-2" d="M663.28,145.64c-.1,1.19.89,1.43,1.87,1.09v1.18c-1.63.5-3.45.25-3.45-1.92v-6.28h-1.09v-1.13h1.19l.44-2.13h1v2.13H665v1.13h-1.73v5.93" data-name="gh"/>
 </g>
 <path class="cls-3" d="M272.64,122.74H164v-2H272.64m240.86,2H422.36v-2H513.5"/>
 <path class="cls-3" d="m164 122.74h-1v-2h1m364.73 1-14.26 4.63v-9.27z"/>
 <path class="cls-3" d="m532 121.74-18.5 6v-12m2 9.26 10-3.26-10-3.26"/>
 <g id="ba">
  <path class="cls-2" d="m282.46 125.29-1.08-3.11h-4.65l-1.08 3.11h-2.57l4.44-12.24h3l4.48 12.24zm-1.63-5-1.77-5.34c-0.5 1.88-1.19 3.56-1.78 5.34h3.55" data-name="gW"/>
  <path class="cls-2" d="M289.62,125.49c-4.29.05-2.86-5.58-3.11-9.58H289c.35,2.82-1.13,7.41,1.63,7.75,3-.24,1.73-4.79,2-7.75h2.47l0,9.38h-2.32a10.94,10.94,0,0,0-.14-1.87,3.1,3.1,0,0,1-3,2.07" data-name="hr"/>
  <path class="cls-2" d="M301.92,125.15c-1.78.69-4.3.34-4.3-2.08v-5.53h-1.18v-1.63h1.33l.74-2.22H300v2.22h1.78v1.63H300v4.89c-.05,1.14.79,1.53,1.88,1.23v1.49" data-name="hl"/>
  <path id="hx" class="cls-2" d="M307.75,117.54c-2.92,0-1.68,4.79-1.93,7.75h-2.47V112.41h2.47l-.05,5.38a3.07,3.07,0,0,1,3-2.08c4.25,0,2.87,5.58,3.12,9.58h-2.47c-.35-2.81,1.13-7.75-1.68-7.75"/>
  <path class="cls-2" d="M322.07,122.92a4,4,0,0,1-4.05,2.57c-3-.1-4.4-1.83-4.4-4.94s1.48-4.84,4.45-4.84,4.1,2.23,4.15,5.34h-6c0,1.53.4,2.71,1.93,2.76a1.52,1.52,0,0,0,1.68-1.08Zm-2.22-3.4c.24-2.27-2.82-3.11-3.46-1a3.21,3.21,0,0,0-.2,1h3.66" data-name="gY"/>
  <path id="hp" class="cls-2" d="M329.48,115.71c4.29,0,2.86,5.58,3.11,9.58h-2.47c-.35-2.81,1.13-7.75-1.68-7.75s-1.68,4.79-1.93,7.75H324l-.05-9.38h2.32a12.24,12.24,0,0,0,.15,1.88,3.09,3.09,0,0,1,3-2.08"/>
  <path class="cls-2" d="M339.3,125.15c-1.78.69-4.29.34-4.29-2.08v-5.53h-1.19v-1.63h1.33l.75-2.22h1.53v2.22h1.77v1.63h-1.77v4.89c-.05,1.14.79,1.53,1.87,1.23v1.49" data-name="hl"/>
  <path id="hk" class="cls-2" d="m340.73 114.23v-1.82h2.47v1.82zm0 11.06v-9.38h2.47v9.38h-2.47"/>
  <path id="hu" class="cls-2" d="M353.82,122.18c-.34,2.08-1.88,3.31-4.25,3.31-2.91,0-4.14-1.87-4.44-4.84-.59-5.43,7.6-6.76,8.59-1.78l-2.42.1a1.66,1.66,0,0,0-1.73-1.58c-1.48,0-1.72,1.39-1.87,3.16-.3,3.66,3.21,4.3,3.65,1.49"/>
  <path class="cls-2" d="M360.88,123.62c-.79.93-1.48,1.92-3.16,1.87a2.6,2.6,0,0,1-2.86-2.86c-.05-3,2.71-3.11,5.73-3,.05-1.29-.15-2.33-1.39-2.33a1.29,1.29,0,0,0-1.38,1.34l-2.57-.1c.35-1.88,1.78-2.87,4.05-2.82s3.66,1.09,3.71,3.36l.05,4.05c-.05.69.59.89,1.23.74v1.34C362.81,125.59,360.78,125.44,360.88,123.62Zm-2.37.14c1.43,0,2.13-1.18,2.08-2.81-1.58,0-3.26-.15-3.21,1.48,0,.84.39,1.33,1.13,1.33" data-name="ho"/>
  <path class="cls-2" d="M369.87,125.15c-1.78.69-4.3.34-4.3-2.08v-5.53h-1.18v-1.63h1.33l.74-2.22H368v2.22h1.78v1.63H368v4.89c-.05,1.14.79,1.53,1.88,1.23v1.49" data-name="hl"/>
  <path class="cls-2" d="M379.2,122.92a4,4,0,0,1-4.05,2.57c-3-.1-4.39-1.83-4.39-4.94s1.48-4.84,4.44-4.84,4.1,2.23,4.15,5.34h-6c0,1.53.39,2.71,1.92,2.76a1.52,1.52,0,0,0,1.68-1.08Zm-2.22-3.4c.25-2.27-2.81-3.11-3.46-1a3.51,3.51,0,0,0-.19,1H377" data-name="gY"/>
 </g>
 <g id="bb">
  <path class="cls-2" d="M389.08,125.49c-4.3.05-2.86-5.58-3.11-9.58h2.47c.34,2.82-1.14,7.41,1.63,7.75,3-.24,1.73-4.79,2-7.75h2.47l.05,9.38h-2.32a10.9,10.9,0,0,0-.15-1.87,3.07,3.07,0,0,1-3,2.07" data-name="hr"/>
  <path id="hc" class="cls-2" d="M402.46,118.48c.05-1.43-3.45-1.68-3.5-.2.74,2.27,5.82.35,5.87,4.25.05,4.1-8.1,3.75-8.49.44l2.12-.34c.2.94,1,1.23,2.18,1.23,1.63.4,2.81-1.48,1.18-2-2.12-.69-5-.55-5.13-3.26-.1-4,7.6-3.66,7.95-.35"/>
  <path class="cls-2" d="M414.71,122.92a4,4,0,0,1-4,2.57c-3-.1-4.39-1.83-4.39-4.94s1.48-4.84,4.44-4.84,4.1,2.23,4.15,5.34h-6c0,1.53.4,2.71,1.93,2.76a1.52,1.52,0,0,0,1.68-1.08Zm-2.22-3.4c.24-2.27-2.82-3.11-3.46-1a3.21,3.21,0,0,0-.2,1h3.66" data-name="gY"/>
  <path class="cls-2" d="M422.12,117.89c-1.93-.6-3,.64-3,2.81v4.59h-2.46l-.05-9.38H419a12.35,12.35,0,0,0,.15,2c.29-1.39,1.33-2.62,3-2v2" data-name="gZ"/>
 </g>
 <path class="cls-3" d="M281.94,308.16H164v-2H281.94m231.56,2H413.06v-2H513.5"/>
 <path class="cls-3" d="m164 308.16h-1v-2h1m364.73 1-14.23 4.64v-9.27z"/>
 <path class="cls-3" d="m532 307.16-18.5 6v-12m2 9.27 10-3.26-10-3.25"/>
 <g id="bf">
  <path id="hz" class="cls-2" d="m283.13 310.72v-12.25h2.57v10.28h6.57v2h-9.14"/>
  <path class="cls-2" d="M294,299.66v-1.83h2.47v1.83Zm0,11.06v-9.38h2.47v9.38H294" data-name="hk"/>
  <path class="cls-2" d="M304.46,303.91c.05-1.44-3.45-1.68-3.5-.2.74,2.27,5.82.34,5.87,4.25.05,4.09-8.1,3.75-8.49.44l2.12-.35c.2.94,1,1.24,2.18,1.24,1.63.39,2.81-1.48,1.18-2-2.12-.69-5-.54-5.13-3.26-.1-3.95,7.6-3.65,7.95-.34" data-name="hc"/>
  <path class="cls-2" d="M313.25,310.57c-1.77.69-4.29.35-4.29-2.07V303h-1.19v-1.63h1.33l.75-2.22h1.53v2.22h1.77V303h-1.77v4.89c-.05,1.13.79,1.53,1.87,1.23v1.48" data-name="hl"/>
 </g>
 <g id="bg">
  <path class="cls-2" d="M327.77,307.61c-.34,2.07-1.88,3.31-4.25,3.31-2.91,0-4.14-1.88-4.44-4.84-.59-5.43,7.6-6.77,8.59-1.78l-2.42.1a1.66,1.66,0,0,0-1.73-1.58c-1.48,0-1.72,1.38-1.87,3.16-.3,3.65,3.21,4.3,3.65,1.48" data-name="hu"/>
  <path id="hd" class="cls-2" d="m333.7 301.14c3.16 0 4.74 1.78 4.74 4.89s-1.73 4.89-4.79 4.89-4.65-1.78-4.65-4.92 1.64-4.86 4.7-4.86zm-0.05 8.1c1.73 0 2.22-1.38 2.22-3.21s-0.49-3.21-2.12-3.21-2.23 1.28-2.23 3.21 0.5 3.21 2.13 3.21"/>
  <path class="cls-2" d="M345.75,301.14c4.29-.05,2.86,5.58,3.11,9.58h-2.47c-.35-2.81,1.13-7.75-1.68-7.75s-1.68,4.79-1.93,7.75h-2.47l0-9.38h2.32a10.94,10.94,0,0,0,.14,1.87,3.1,3.1,0,0,1,3-2.07" data-name="hp"/>
  <path class="cls-2" d="M356.66,303.91c0-1.44-3.46-1.68-3.51-.2.74,2.27,5.83.34,5.88,4.25.05,4.09-8.1,3.75-8.49.44l2.12-.35c.2.94,1,1.24,2.17,1.24,1.63.39,2.82-1.48,1.19-2-2.13-.69-5-.54-5.14-3.26-.1-3.95,7.61-3.65,7.95-.34" data-name="hc"/>
  <path class="cls-2" d="M364,310.92c-4.3.05-2.87-5.58-3.11-9.58h2.47c.34,2.81-1.14,7.41,1.63,7.75,3-.25,1.72-4.79,2-7.75h2.47l.05,9.38h-2.32a11.11,11.11,0,0,0-.15-1.88,3.07,3.07,0,0,1-3,2.08" data-name="hr"/>
  <path id="hs" class="cls-2" d="M381.45,303c-2.62.44-1.38,4.94-1.68,7.75h-2.42v-5.28c0-1.34-.25-2.42-1.43-2.47-2.62.49-1.33,4.94-1.63,7.75h-2.47l-.05-9.38h2.32a10.9,10.9,0,0,0,.15,1.87c.49-2.61,5-2.76,5.33,0,.65-1.08,1.19-2.12,2.92-2.07,4.05.05,2.52,5.73,2.81,9.58h-2.42v-5.28c-.05-1.24-.24-2.37-1.43-2.47"/>
  <path class="cls-2" d="M395.52,308.35a4,4,0,0,1-4,2.57c-3-.1-4.4-1.83-4.4-4.94s1.48-4.84,4.44-4.84,4.1,2.22,4.15,5.33h-6c0,1.53.39,2.72,1.92,2.77a1.52,1.52,0,0,0,1.68-1.09Zm-2.22-3.41c.25-2.27-2.81-3.11-3.45-1a3.14,3.14,0,0,0-.2,1h3.65" data-name="gY"/>
  <path class="cls-2" d="M402.93,303.31c-1.92-.59-3,.65-3,2.82v4.59H397.5l-.05-9.38h2.32a12.13,12.13,0,0,0,.15,2c.3-1.38,1.33-2.61,3-2v2" data-name="gZ"/>
  <path class="cls-2" d="M409.94,303.91c.05-1.44-3.45-1.68-3.5-.2.74,2.27,5.83.34,5.87,4.25.05,4.09-8.09,3.75-8.49.44l2.12-.35c.2.94,1,1.24,2.18,1.24,1.63.39,2.81-1.48,1.18-2-2.12-.69-5-.54-5.13-3.26-.1-3.95,7.6-3.65,7.95-.34" data-name="hc"/>
 </g>
 <path class="cls-4" d="M161.5,7.5a6,6,0,0,1,6-6H506a6,6,0,0,1,6,6V23.2a6,6,0,0,1-6,6H167.5a6,6,0,0,1-6-6Z"/>
 <g id="bE">
  <path class="cls-2" d="M198.64,13.42v6.65h11v3.46h-11v7.86h-4.49V10H210v3.46H198.64" data-name="gU"/>
  <path class="cls-2" d="M213.16,31.39V8.84h4.32V31.39h-4.32" data-name="he"/>
  <path class="cls-2" d="m229.15 14.63c5.53 0 8.29 3.11 8.29 8.55s-3 8.56-8.38 8.56-8.21-3.11-8.21-8.56 2.94-8.55 8.3-8.55zm-0.09 14.17c3 0 3.89-2.42 3.89-5.62 0-3.45-0.86-5.61-3.72-5.61s-3.88 2.24-3.88 5.61c0 3.11 0.86 5.62 3.71 5.62" data-name="hd"/>
  <path id="hg" class="cls-2" d="M258.53,31.39H254L250.67,18l-3.46,13.39h-4.49L238.48,15h4l2.76,12.53C246,23,247.3,19.12,248.33,15h4.58l3.2,12.53L258.88,15h4"/>
 </g>
 <g data-name="ge">
  <path class="cls-2" d="M273.48,31.39V10h16.85v3.46H278v5.44h11.4v3.46H278v5.62h13v3.45H273.48" data-name="hH"/>
  <path id="ha" class="cls-2" d="M303.21,31.39h-5.1L292.23,15h4.58l3.89,13,4.15-13h4.5"/>
  <path class="cls-2" d="M325.42,27.25a6.94,6.94,0,0,1-7.09,4.49c-5.18-.17-7.69-3.2-7.69-8.64s2.59-8.47,7.78-8.47c5.36,0,7.17,3.89,7.26,9.33H315.14c0,2.68.69,4.75,3.37,4.84,1.55,0,2.59-.6,2.93-1.9Zm-3.89-6c.43-4-4.93-5.44-6-1.81a5.72,5.72,0,0,0-.34,1.81h6.39" data-name="gY"/>
  <path class="cls-2" d="M338.38,14.63c7.52-.09,5,9.76,5.45,16.76h-4.32c-.61-4.92,2-13.56-2.94-13.56-5.1,0-2.94,8.38-3.37,13.56h-4.32L328.79,15h4.06c.17,1-.08,2.42.26,3.29,1-2.25,2.42-3.55,5.27-3.63" data-name="hp"/>
  <path class="cls-2" d="M355.58,31.13c-3.11,1.21-7.52.61-7.52-3.63V17.83H346V15h2.33l1.3-3.89h2.68V15h3.11v2.86H352.3v8.55c-.09,2,1.38,2.68,3.28,2.16v2.59" data-name="hl"/>
  <path class="cls-2" d="M367.77,19.47c.08-2.51-6-2.94-6.14-.35,1.3,4,10.2.61,10.28,7.43.09,7.18-14.17,6.57-14.86.78l3.72-.6c.34,1.64,1.72,2.16,3.8,2.16,2.85.69,4.92-2.6,2.07-3.55-3.71-1.21-8.81-.95-9-5.7-.17-6.91,13.31-6.39,13.92-.6" data-name="hc"/>
 </g>
 <g id="cf">
  <path id="hI" class="cls-2" d="M397.58,20.16c3.2.34,5.36,1.9,5.36,5.1,0,8.12-11.06,5.79-19,6.13V10c7.25.43,17.54-2,17.71,5.45A4.57,4.57,0,0,1,397.58,20.16Zm-9.16-1.56c3.46-.26,8.73,1.13,8.73-2.59s-5.19-2.42-8.73-2.68Zm0,9.51c4.15-.26,10,1.21,10-3.2,0-4.15-6-2.76-10-3v6.22"/>
  <path class="cls-2" d="M415.9,18.43c-3.37-1-5.18,1.12-5.18,4.93v8h-4.33L406.31,15h4.06c.17,1.13-.09,2.51.26,3.46.52-2.42,2.33-4.58,5.27-3.54v3.54" data-name="gZ"/>
  <path class="cls-2" d="m425.84 14.63c5.53 0 8.3 3.11 8.3 8.55s-3 8.56-8.39 8.56-8.21-3.11-8.21-8.56 2.94-8.55 8.3-8.55zm-0.09 14.17c3 0 3.89-2.42 3.89-5.62 0-3.45-0.86-5.61-3.71-5.61s-3.93 2.24-3.93 5.61c0 3.11 0.86 5.62 3.71 5.62" data-name="hd"/>
  <path id="hy" class="cls-2" d="M448,31.39,443.56,24l-1.82,1.3v6.13h-4.32V8.84h4.32v13L447.53,15h4.58l-5.7,6.4,6.22,10H448"/>
  <path class="cls-2" d="M468.53,27.25a6.94,6.94,0,0,1-7.09,4.49c-5.18-.17-7.69-3.2-7.69-8.64s2.6-8.47,7.78-8.47c5.36,0,7.17,3.89,7.26,9.33H458.25c0,2.68.69,4.75,3.37,4.84,1.55,0,2.59-.6,2.94-1.9Zm-3.89-6c.43-4-4.92-5.44-6.05-1.81a5.72,5.72,0,0,0-.34,1.81h6.39" data-name="gY"/>
  <path class="cls-2" d="M481.49,18.43c-3.37-1-5.18,1.12-5.18,4.93v8H472L471.9,15H476c.18,1.13-.08,2.51.26,3.46.52-2.42,2.34-4.58,5.27-3.54v3.54" data-name="gZ"/>
 </g>
</svg>
