<?xml version="1.0" encoding="UTF-8"?>
<svg data-name="Layer 1" version="1.1" viewBox="0 0 2200 828.74" xmlns="http://www.w3.org/2000/svg">
 <title>Figure13</title>
 <defs>
  <style>.cls-1,.cls-3,.cls-9{fill:#fff;}.cls-2{fill:#333;}.cls-3,.cls-4,.cls-5,.cls-7,.cls-8{stroke:#5e5f5f;}.cls-3,.cls-4,.cls-9{stroke-width:3px;}.cls-4{fill:#010101;}.cls-5,.cls-8{fill:none;}.cls-5,.cls-7{stroke-width:2px;}.cls-6,.cls-7{fill:#5e5f5f;}.cls-8{stroke-width:1.5px;}.cls-9{fill-opacity:0;stroke:#010101;stroke-opacity:0;}</style>
 </defs>
 <path class="cls-1" d="M0,17.67a6,6,0,0,1,6-6H1070.76a6,6,0,0,1,6,6V739a6,6,0,0,1-6,6H6a6,6,0,0,1-6-6Z"/>
 <g id="a">
  <path id="em" class="cls-2" d="M500.26,370c5.37.06,11.79-.92,11.79,4.63,0,4.82-4.75,4.94-9.75,4.69v6h-2Zm2,7.72c3.51,0,7.65.68,7.65-3.09s-4.2-2.9-7.65-3v6.05"/>
  <path id="en" class="cls-2" d="M520.26,375.29c-4.82-1-3.27,5.62-3.52,10.06h-2l-.07-11.73h1.86a14.3,14.3,0,0,0,.12,2.41c.37-1.67,1.42-3,3.58-2.53v1.79"/>
  <path id="eo" class="cls-2" d="m526.74 373.38c3.83-0.07 5.25 2.28 5.25 6.11s-1.67 6.11-5.31 6.11-5.12-2.41-5.19-6.11c0-4.08 1.73-6.11 5.25-6.11zm-0.06 10.74c2.72 0.06 3.27-1.92 3.27-4.63s-0.49-4.63-3.15-4.63-3.27 2-3.27 4.63 0.62 4.56 3.15 4.63"/>
  <path id="ep" class="cls-2" d="M538.84,374.92c-2.47,0-3,2-3,4.5s.55,4.63,3,4.63a2.45,2.45,0,0,0,2.65-2.34l2,.12a4.23,4.23,0,0,1-4.57,3.77c-3.64,0-4.69-2.53-5.06-6.11-.62-5.74,6.23-8.09,9.07-3.95a5.09,5.09,0,0,1,.44,1.35l-2,.19a2.36,2.36,0,0,0-2.53-2.16"/>
  <path id="eq" class="cls-2" d="m550.2 373.38c3.89 0 5.31 2.59 5.18 6.54h-8.33c0 2.47 0.86 4.13 3.27 4.2a2.88 2.88 0 0 0 3-1.79l1.72 0.49c-0.67 1.73-2.28 2.78-4.75 2.78-3.58 0-5.43-2.29-5.37-6.18s1.64-6.04 5.28-6.04zm3.21 5c0.37-3.71-4.69-4.76-6-1.73a4.39 4.39 0 0 0-0.37 1.73h6.36"/>
  <path id="er" class="cls-2" d="M564.7,376.52c-.18-2.1-5.3-2.34-5.37,0,.93,3.28,7.1.74,7.35,5.56s-9.26,4.57-9.69.49l1.73-.31c.24,2.23,6,2.78,6,0-.62-3.45-7-.92-7.29-5.55-.25-3.52,5.06-3.89,7.53-2.59a3.08,3.08,0,0,1,1.48,2.16"/>
  <path class="cls-2" d="M575.81,376.52c-.18-2.1-5.3-2.34-5.37,0,.93,3.28,7.1.74,7.35,5.56s-9.26,4.57-9.69.49l1.73-.31c.24,2.23,6,2.78,6,0-.62-3.45-7-.92-7.29-5.55-.24-3.52,5.06-3.89,7.53-2.59a3.08,3.08,0,0,1,1.48,2.16" data-name="er"/>
 </g>
 <path class="cls-1" d="M1140,6a6,6,0,0,1,6-6H2194a6,6,0,0,1,6,6V822.74a6,6,0,0,1-6,6H1146a6,6,0,0,1-6-6Z"/>
 <path class="cls-3" d="M20,277.67a6,6,0,0,1,6-6H174a6,6,0,0,1,6,6v108a6,6,0,0,1-6,6H26a6,6,0,0,1-6-6Z"/>
 <g data-name="A">
  <path id="eE" class="cls-2" d="m84.26 323.19v-1.86h2v1.86zm0 14.25v-11.72h2v11.72h-2"/>
  <path id="fj" class="cls-2" d="m92.9 325.47a3.9 3.9 0 0 1 3.7 2l-0.06-6.18h2l0.06 16.11h-1.87a17.14 17.14 0 0 0-0.19-1.91 3.51 3.51 0 0 1-3.64 2.16c-3.27 0-4.26-2.41-4.32-6.05 0-4.03 1.42-6.13 4.32-6.13zm0.56 1.48c-2.47 0-2.84 2.1-2.84 4.63s0.37 4.57 2.78 4.57c2.59 0 3.14-2 3.14-4.69s-0.54-4.57-3.08-4.46"/>
  <path id="et" class="cls-2" d="m101.48 337.44v-16.11h2v16.11h-2"/>
  <path class="cls-2" d="m111.05 325.47c3.89 0 5.31 2.59 5.18 6.54h-8.33c0 2.47 0.87 4.14 3.27 4.2a2.88 2.88 0 0 0 3-1.79l1.73 0.49c-0.68 1.73-2.29 2.78-4.76 2.78-3.58 0-5.43-2.28-5.37-6.17s1.64-6.05 5.28-6.05zm3.21 5c0.37-3.7-4.69-4.75-6-1.73a4.58 4.58 0 0 0-0.37 1.73h6.36" data-name="eq"/>
 </g>
 <path class="cls-3" d="M400,277.67a6,6,0,0,1,6-6H554a6,6,0,0,1,6,6v108a6,6,0,0,1-6,6H406a6,6,0,0,1-6-6Z"/>
 <g id="C">
  <path class="cls-2" d="M442.1,327c-2.47,0-3,2-3,4.51s.55,4.63,3,4.63a2.46,2.46,0,0,0,2.65-2.35l2,.13a4.24,4.24,0,0,1-4.57,3.76c-3.64,0-4.69-2.53-5.06-6.11-.62-5.74,6.23-8.09,9.07-3.95a4.7,4.7,0,0,1,.43,1.36l-2,.18A2.37,2.37,0,0,0,442.1,327" data-name="ep"/>
  <path class="cls-2" d="m453.46 325.47c3.82-0.06 5.24 2.28 5.24 6.11s-1.66 6.11-5.3 6.11-5.13-2.41-5.19-6.11c0-4.07 1.73-6.11 5.25-6.11zm-0.06 10.74c2.71 0.06 3.27-1.91 3.27-4.63s-0.5-4.63-3.15-4.63-3.27 2-3.27 4.63 0.61 4.57 3.15 4.63" data-name="eo"/>
  <path id="eC" class="cls-2" d="M466.85,325.47c5.5-.25,3.27,7.16,3.71,12h-2V330c0-1.92-.49-3-2.41-3-4.44.13-2.71,6.3-3,10.43h-2l-.06-11.72H463a9.45,9.45,0,0,0,.13,2,3.9,3.9,0,0,1,3.76-2.22"/>
  <path class="cls-2" d="M473.83,322.14c5.37.06,11.79-.93,11.79,4.63,0,4.81-4.76,4.93-9.76,4.69v6h-2Zm2,7.71c3.52,0,7.66.68,7.66-3.08s-4.2-2.91-7.66-3v6.05" data-name="em"/>
  <path class="cls-2" d="M493,325.47c3.89,0,5.31,2.59,5.19,6.54h-8.34c0,2.47.87,4.14,3.28,4.2a2.87,2.87,0,0,0,3-1.79l1.73.49c-.68,1.73-2.28,2.78-4.75,2.78-3.58,0-5.44-2.28-5.37-6.17S489.32,325.47,493,325.47Zm3.21,5c.37-3.7-4.69-4.75-6-1.73a4.38,4.38,0,0,0-.38,1.73h6.36" data-name="eq"/>
  <path class="cls-2" d="M506.36,325.47c5.49-.25,3.27,7.16,3.7,12h-2V330c0-1.92-.5-3-2.41-3-4.45.13-2.72,6.3-3,10.43h-2l-.06-11.72h1.85a10.22,10.22,0,0,0,.12,2,3.9,3.9,0,0,1,3.77-2.22" data-name="eC"/>
  <path class="cls-2" d="m516.73 325.47a3.9 3.9 0 0 1 3.7 2l-0.06-6.18h2l0.06 16.11h-1.85a17.14 17.14 0 0 0-0.19-1.91 3.52 3.52 0 0 1-3.64 2.16c-3.27 0-4.26-2.41-4.32-6.05-0.02-4.03 1.4-6.13 4.3-6.13zm0.55 1.48c-2.47 0-2.84 2.1-2.84 4.63s0.37 4.57 2.78 4.57c2.59 0 3.15-2 3.15-4.69s-0.56-4.57-3.09-4.51" data-name="fj"/>
 </g>
 <path class="cls-3" d="M860,277.67a6,6,0,0,1,6-6h148a6,6,0,0,1,6,6v108a6,6,0,0,1-6,6H866a6,6,0,0,1-6-6Z"/>
 <g id="D">
  <path class="cls-2" d="M894.69,327c-2.47,0-3,2-3,4.51s.55,4.63,3,4.63a2.47,2.47,0,0,0,2.66-2.35l2,.13a4.23,4.23,0,0,1-4.57,3.76c-3.64,0-4.69-2.53-5.06-6.11-.62-5.74,6.24-8.09,9.08-3.95a5.4,5.4,0,0,1,.43,1.36l-2,.18a2.36,2.36,0,0,0-2.53-2.16" data-name="ep"/>
  <path class="cls-2" d="m906.05 325.47c3.83-0.06 5.25 2.28 5.25 6.11s-1.67 6.11-5.31 6.11-5.13-2.41-5.19-6.11c0-4.07 1.73-6.11 5.25-6.11zm-0.05 10.74c2.71 0.06 3.27-1.91 3.27-4.63s-0.49-4.63-3.15-4.63-3.27 2-3.27 4.63 0.62 4.57 3.15 4.63" data-name="eo"/>
  <path class="cls-2" d="M919.44,325.47c5.5-.25,3.28,7.16,3.71,12h-2V330c0-1.92-.49-3-2.4-3-4.45.13-2.72,6.3-3,10.43h-2l-.07-11.72h1.86a9.48,9.48,0,0,0,.12,2,3.9,3.9,0,0,1,3.76-2.22" data-name="eC"/>
  <path class="cls-2" d="M931.79,325.47c5.49-.25,3.27,7.16,3.7,12h-2V330c0-1.92-.5-3-2.41-3-4.44.13-2.71,6.3-3,10.43h-2l-.06-11.72h1.85a10.22,10.22,0,0,0,.12,2,3.9,3.9,0,0,1,3.77-2.22" data-name="eC"/>
  <path class="cls-2" d="m943.09 325.47c3.89 0 5.31 2.59 5.18 6.54h-8.33c0 2.47 0.86 4.14 3.27 4.2a2.87 2.87 0 0 0 3-1.79l1.73 0.49c-0.68 1.73-2.28 2.78-4.75 2.78-3.58 0-5.43-2.28-5.37-6.17s1.62-6.05 5.27-6.05zm3.21 5c0.37-3.7-4.7-4.75-6-1.73a4.39 4.39 0 0 0-0.37 1.73h6.36" data-name="eq"/>
  <path class="cls-2" d="M955.19,327c-2.47,0-3,2-3,4.51s.56,4.63,3,4.63a2.46,2.46,0,0,0,2.65-2.35l2,.13a4.23,4.23,0,0,1-4.56,3.76c-3.65,0-4.69-2.53-5.06-6.11-.62-5.74,6.23-8.09,9.07-3.95a4.7,4.7,0,0,1,.43,1.36l-2,.18a2.37,2.37,0,0,0-2.53-2.16" data-name="ep"/>
  <path id="eD" class="cls-2" d="M964,334.54c-.12,1.48,1.11,1.79,2.35,1.36v1.48c-2,.62-4.32.31-4.32-2.4v-7.84h-1.36v-1.42h1.48l.56-2.66H964v2.66h2.16v1.42H964v7.4"/>
  <path class="cls-2" d="m972.72 325.47c3.88 0 5.3 2.59 5.18 6.54h-8.33c0 2.47 0.86 4.14 3.27 4.2a2.87 2.87 0 0 0 3-1.79l1.73 0.49c-0.68 1.73-2.28 2.78-4.75 2.78-3.58 0-5.43-2.28-5.37-6.17s1.62-6.05 5.27-6.05zm3.21 5c0.37-3.7-4.7-4.75-6-1.73a4.39 4.39 0 0 0-0.37 1.73h6.36" data-name="eq"/>
  <path class="cls-2" d="m984.14 325.47a3.9 3.9 0 0 1 3.7 2l-0.06-6.18h2l0.06 16.11h-1.84a17.26 17.26 0 0 0-0.18-1.91 3.52 3.52 0 0 1-3.64 2.16c-3.28 0-4.26-2.41-4.33-6.05-0.04-4.03 1.38-6.13 4.29-6.13zm0.55 1.48c-2.47 0-2.84 2.1-2.84 4.63s0.37 4.57 2.78 4.57c2.59 0 3.15-2 3.15-4.69s-0.56-4.57-3.09-4.51" data-name="fj"/>
 </g>
 <path class="cls-4" d="m120 160a20 20 0 1 1-20-20 20 20 0 0 1 20 20z"/>
 <path class="cls-5" d="m100 182.5v69.16"/>
 <path class="cls-6" d="m99.93 181.5h1.07v1.06h-2v-1.14"/>
 <path class="cls-7" d="m100 266.93-4.64-14.27h9.28z"/>
 <path class="cls-5" d="M182.5,331.67H380"/>
 <path class="cls-6" d="m182.53 332.67h-1v-2h1"/>
 <path class="cls-7" d="M395.26,331.67,381,336.3V327Z"/>
 <g id="E">
  <path id="fl" class="cls-2" d="M247,320.75c-4.29.05-2.86-5.58-3.11-9.58h2.47c.35,2.82-1.13,7.41,1.63,7.76,3-.25,1.73-4.79,2-7.76h2.47l0,9.39h-2.32a12.1,12.1,0,0,0-.14-1.88,3.1,3.1,0,0,1-3,2.07"/>
  <path id="fm" class="cls-2" d="M256.89,314.38c0,2.62,1,4.3,3.6,4.35a3.25,3.25,0,0,0,3.21-2.32l2.23.84a5.38,5.38,0,0,1-5.44,3.5c-4.05,0-5.92-2.27-6.17-6.37-.34-5.43,5.38-7.7,9.68-5.28a4.21,4.21,0,0,1,1.78,2.47l-2.27.59a3,3,0,0,0-3.07-2c-2.56,0-3.5,1.67-3.55,4.24"/>
  <path id="fa" class="cls-2" d="M271.8,311c3.16,0,4.74,1.77,4.74,4.88s-1.73,4.89-4.79,4.89-4.69-1.77-4.69-4.89S268.74,311,271.8,311Zm-.05,8.09c1.73,0,2.23-1.38,2.23-3.21s-.5-3.21-2.13-3.21-2.22,1.29-2.22,3.21.49,3.21,2.12,3.21"/>
  <path id="fn" class="cls-2" d="M283.85,311c4.3-.05,2.87,5.58,3.11,9.58h-2.47c-.34-2.82,1.14-7.76-1.68-7.76s-1.67,4.79-1.92,7.76h-2.47l-.05-9.39h2.32a10.94,10.94,0,0,0,.15,1.88,3.06,3.06,0,0,1,3-2.07"/>
  <path id="fg" class="cls-2" d="m288.2 320.9 2.52-13.23h2.07l-2.52 13.23h-2.07"/>
  <path id="fo" class="cls-2" d="M299.7,313.74c.05-1.43-3.45-1.68-3.5-.2.74,2.27,5.82.35,5.87,4.25.05,4.1-8.09,3.75-8.49.44l2.12-.34c.2.94,1,1.23,2.18,1.23,1.63.4,2.81-1.48,1.18-2-2.12-.69-5-.54-5.13-3.26-.1-3.95,7.6-3.65,7.95-.35"/>
  <path class="cls-2" d="M306.12,314.38c0,2.62,1,4.3,3.61,4.35a3.25,3.25,0,0,0,3.21-2.32l2.22.84a5.38,5.38,0,0,1-5.43,3.5c-4.05,0-5.93-2.27-6.17-6.37-.35-5.43,5.38-7.7,9.67-5.28a4.16,4.16,0,0,1,1.78,2.47l-2.27.59a3,3,0,0,0-3.06-2c-2.57,0-3.51,1.67-3.56,4.24" data-name="fm"/>
  <path class="cls-2" d="M321,311c3.16,0,4.74,1.77,4.74,4.88s-1.73,4.89-4.79,4.89-4.69-1.77-4.69-4.89S318,311,321,311Zm-.05,8.09c1.73,0,2.22-1.38,2.22-3.21s-.49-3.21-2.12-3.21-2.23,1.29-2.23,3.21.5,3.21,2.13,3.21" data-name="fa"/>
  <path class="cls-2" d="M333.09,311c4.29-.05,2.86,5.58,3.11,9.58h-2.47c-.35-2.82,1.13-7.76-1.68-7.76s-1.68,4.79-1.93,7.76h-2.47l0-9.39h2.33a11,11,0,0,0,.14,1.88,3.08,3.08,0,0,1,3-2.07" data-name="fn"/>
 </g>
 <path class="cls-5" d="M562.5,331.67H840"/>
 <path class="cls-6" d="m562.53 332.67h-1v-2h1"/>
 <path class="cls-7" d="M855.26,331.67,841,336.3V327Z"/>
 <g id="F">
  <path class="cls-2" d="M653.68,313.74c.05-1.43-3.46-1.68-3.51-.2.74,2.27,5.83.35,5.88,4.25.05,4.1-8.1,3.75-8.49.44l2.12-.34c.2.94,1,1.23,2.17,1.23,1.63.4,2.82-1.48,1.19-2-2.13-.69-5-.54-5.14-3.26-.1-3.95,7.61-3.65,8-.35" data-name="fo"/>
  <path class="cls-2" d="M660.1,314.38c0,2.62,1,4.3,3.6,4.35a3.25,3.25,0,0,0,3.21-2.32l2.23.84a5.38,5.38,0,0,1-5.44,3.5c-4.05,0-5.92-2.27-6.17-6.37-.34-5.43,5.38-7.7,9.68-5.28a4.21,4.21,0,0,1,1.78,2.47l-2.27.59a3,3,0,0,0-3.07-2c-2.56,0-3.5,1.67-3.55,4.24" data-name="fm"/>
  <path class="cls-2" d="M675,311c3.16,0,4.74,1.77,4.74,4.88s-1.73,4.89-4.79,4.89-4.69-1.77-4.69-4.89S672,311,675,311Zm0,8.09c1.73,0,2.23-1.38,2.23-3.21s-.5-3.21-2.13-3.21-2.22,1.29-2.22,3.21.49,3.21,2.12,3.21" data-name="fa"/>
  <path class="cls-2" d="M687.06,311c4.3-.05,2.87,5.58,3.11,9.58H687.7c-.34-2.82,1.14-7.76-1.68-7.76s-1.67,4.79-1.92,7.76h-2.47l0-9.39h2.32a10.94,10.94,0,0,0,.15,1.88,3.06,3.06,0,0,1,3-2.07" data-name="fn"/>
  <path id="fi" class="cls-2" d="m698.12 308.16c4 0 6.18 2.22 6.18 6.22s-2.28 6.37-6.23 6.37-6.12-2.37-6.12-6.37 2.17-6.22 6.17-6.22zm0 10.57c2.57 0 3.61-1.73 3.61-4.35 0-2.47-1-4.24-3.56-4.24s-3.6 1.72-3.6 4.24 1.08 4.35 3.55 4.35"/>
  <path id="eX" class="cls-2" d="m712.3 320.56-2.52-4.25-1 0.74v3.51h-2.47v-12.89h2.47v7.4l3.31-3.9h2.62l-3.26 3.66 3.55 5.73h-2.7"/>
  <path class="cls-2" d="m715.11 320.9 2.52-13.23h2.07l-2.51 13.23h-2.08" data-name="fg"/>
  <path class="cls-2" d="M726.62,313.74c0-1.43-3.46-1.68-3.51-.2.74,2.27,5.83.35,5.88,4.25,0,4.1-8.1,3.75-8.5.44l2.13-.34c.19.94,1,1.23,2.17,1.23,1.63.4,2.81-1.48,1.19-2-2.13-.69-5-.54-5.14-3.26-.1-3.95,7.6-3.65,7.95-.35" data-name="fo"/>
  <path id="fe" class="cls-2" d="m738.91 320.56v-5.24h-5.43v5.24h-2.57v-12.25h2.57v4.89h5.43v-4.89h2.47v12.25h-2.47"/>
  <path id="fp" class="cls-2" d="M751.65,318.19a4,4,0,0,1-4,2.56c-3-.1-4.39-1.82-4.39-4.94s1.48-4.83,4.44-4.83,4.1,2.22,4.15,5.33h-6c0,1.53.39,2.71,1.92,2.76a1.51,1.51,0,0,0,1.68-1.08Zm-2.22-3.41c.25-2.27-2.81-3.11-3.45-1a3.21,3.21,0,0,0-.2,1h3.65"/>
  <path id="fd" class="cls-2" d="m753.63 320.56v-12.89h2.47v12.89h-2.47"/>
  <path class="cls-2" d="M758.57,320.56V307.67H761v12.89h-2.47" data-name="fd"/>
  <path class="cls-2" d="M767.7,311c3.16,0,4.74,1.77,4.74,4.88s-1.72,4.89-4.79,4.89S763,319,763,315.86,764.64,311,767.7,311Zm-.05,8.09c1.73,0,2.23-1.38,2.23-3.21s-.5-3.21-2.13-3.21-2.22,1.29-2.22,3.21.49,3.21,2.12,3.21" data-name="fa"/>
 </g>
 <path class="cls-5" d="m447 269.17v-33a6 6 0 0 1 6-6h55.38a6 6 0 0 1 6 6v15.5"/>
 <path class="cls-6" d="m448 270.17h-2v-1h2"/>
 <path class="cls-7" d="m514.38 266.93-4.64-14.27h9.26z"/>
 <g id="G">
  <path class="cls-2" d="M432.2,219.25c-4.3.05-2.87-5.58-3.11-9.58h2.47c.34,2.82-1.14,7.41,1.63,7.76,3-.25,1.72-4.79,2-7.76h2.47l.05,9.39h-2.32a10.94,10.94,0,0,0-.15-1.88,3.07,3.07,0,0,1-3,2.07" data-name="fl"/>
  <path id="fq" class="cls-2" d="m450.67 210.46a3.36 3.36 0 0 1-2.67 3.46l3.31 5.14h-2.91l-2.82-4.65h-3v4.65h-2.58v-12.25c4.59 0.19 10.72-1.14 10.67 3.65zm-8.1 2c2.37-0.1 5.53 0.59 5.53-1.88s-3.26-1.58-5.53-1.73v3.61"/>
  <path class="cls-2" d="M460.74,216.69a4,4,0,0,1-4.05,2.56c-3-.1-4.39-1.82-4.39-4.94s1.48-4.83,4.44-4.83,4.1,2.22,4.15,5.33h-6c0,1.53.39,2.71,1.92,2.76a1.52,1.52,0,0,0,1.68-1.08Zm-2.22-3.41c.25-2.27-2.82-3.11-3.46-1a3.21,3.21,0,0,0-.19,1h3.65" data-name="fp"/>
  <path id="fb" class="cls-2" d="M467.16,218.91c-1.78.69-4.29.34-4.29-2.08V211.3h-1.19v-1.63H463l.74-2.22h1.53v2.22h1.78v1.63h-1.78v4.89c0,1.14.79,1.53,1.88,1.24v1.48"/>
  <path id="eZ" class="cls-2" d="M474,211.65c-1.93-.59-3,.64-3,2.81v4.6h-2.47l0-9.39h2.33a12.39,12.39,0,0,0,.14,2c.3-1.38,1.34-2.62,3-2v2"/>
  <path id="fr" class="cls-2" d="M480.35,219.55c-.74,2.12-2.13,3.75-5.14,3.06v-1.73a2.2,2.2,0,0,0,2.91-1.92l-3.7-9.29H477l2.37,7.31c.59-2.57,1.38-4.94,2.17-7.31h2.52"/>
  <path class="cls-2" d="m484.35 219.4 2.52-13.23h2.07l-2.52 13.23h-2.07" data-name="fg"/>
  <path class="cls-2" d="M495.85,212.24c0-1.43-3.45-1.68-3.5-.2.74,2.27,5.82.35,5.87,4.25,0,4.1-8.1,3.75-8.49.44l2.12-.34c.2.94,1,1.23,2.18,1.23,1.63.4,2.81-1.48,1.18-2-2.12-.69-5-.54-5.14-3.26-.09-4,7.61-3.65,8-.35" data-name="fo"/>
  <path class="cls-2" d="M502.27,212.88c0,2.62,1,4.3,3.61,4.35a3.26,3.26,0,0,0,3.21-2.32l2.22.84a5.38,5.38,0,0,1-5.43,3.5c-4.05,0-5.93-2.27-6.18-6.37-.34-5.43,5.39-7.7,9.68-5.28a4.16,4.16,0,0,1,1.78,2.47l-2.27.59a3,3,0,0,0-3.06-2c-2.57,0-3.51,1.67-3.56,4.24" data-name="fm"/>
  <path class="cls-2" d="m517.19 209.48c3.16 0 4.74 1.77 4.74 4.88s-1.73 4.89-4.79 4.89-4.69-1.77-4.69-4.89 1.67-4.88 4.74-4.88zm-0.05 8.09c1.73 0 2.22-1.38 2.22-3.21s-0.49-3.21-2.12-3.21-2.23 1.29-2.23 3.21 0.5 3.21 2.13 3.21" data-name="fa"/>
  <path class="cls-2" d="M529.24,209.48c4.29,0,2.86,5.58,3.11,9.58h-2.47c-.35-2.82,1.13-7.76-1.68-7.76s-1.68,4.79-1.93,7.76H523.8l0-9.39h2.32a12,12,0,0,0,.15,1.88,3.08,3.08,0,0,1,3-2.07" data-name="fn"/>
 </g>
 <path class="cls-3" d="M860,517.67a6,6,0,0,1,6-6h148a6,6,0,0,1,6,6v108a6,6,0,0,1-6,6H866a6,6,0,0,1-6-6Z"/>
 <g id="K">
  <path id="ew" class="cls-2" d="M882.07,575.22c-.93,1.3-1.92,2.53-4.2,2.47s-3.58-1.29-3.58-3.52c-.06-3.95,3.89-3.89,7.72-3.89.18-2.16-.56-3.33-2.53-3.33-1.49.06-2.54.43-2.6,1.91l-2-.18c.3-2.28,2-3.21,4.69-3.21s4.44,1.23,4.44,3.95v5.06c-.06,1.24.43,2,1.73,1.67v1.23C883.8,577.94,881.94,577.26,882.07,575.22Zm-5.74-1.05a1.86,1.86,0,0,0,2,2c2.53-.19,3.89-1.79,3.71-4.57-2.66.13-5.68-.31-5.68,2.53"/>
  <path id="eK" class="cls-2" d="M890.9,577.69c-5.5.25-3.34-7.16-3.77-12h2v7.4c0,1.92.44,3.09,2.41,3,4.45-.13,2.78-6.24,3.09-10.43h1.91l.06,11.72h-1.85a10.87,10.87,0,0,0-.12-2,3.85,3.85,0,0,1-3.7,2.28"/>
  <path class="cls-2" d="M901.7,574.54c-.13,1.48,1.11,1.79,2.34,1.36v1.48c-2,.62-4.32.31-4.32-2.4v-7.84h-1.36v-1.42h1.49l.55-2.66h1.3v2.66h2.16v1.42H901.7v7.4" data-name="eD"/>
  <path class="cls-2" d="M910.77,567c-4.44,0-2.71,6.3-3,10.43h-2V561.33h2l-.06,6.36a3.9,3.9,0,0,1,3.76-2.22c5.49,0,3.27,7.16,3.7,12h-2V570c.12-2-.49-3-2.41-3" data-name="eM"/>
  <path class="cls-2" d="M922.75,565.47c3.89,0,5.31,2.59,5.18,6.54H919.6c0,2.47.86,4.14,3.27,4.2a2.88,2.88,0,0,0,3-1.79l1.72.49c-.68,1.73-2.28,2.78-4.75,2.78-3.58,0-5.43-2.28-5.37-6.17S919.1,565.47,922.75,565.47Zm3.21,5c.37-3.7-4.69-4.75-6-1.73a4.39,4.39,0,0,0-.37,1.73H926" data-name="eq"/>
  <path class="cls-2" d="M936.14,565.47c5.5-.25,3.27,7.16,3.71,12h-2V570c0-1.92-.49-3-2.41-3-4.44.13-2.71,6.3-3,10.43h-2l-.06-11.72h1.85a9.45,9.45,0,0,0,.13,2,3.9,3.9,0,0,1,3.76-2.22" data-name="eC"/>
  <path class="cls-2" d="M944.91,574.54c-.13,1.48,1.11,1.79,2.34,1.36v1.48c-2,.62-4.32.31-4.32-2.4v-7.84h-1.36v-1.42h1.49l.55-2.66h1.3v2.66h2.16v1.42h-2.16v7.4" data-name="eD"/>
  <path class="cls-2" d="m948.92 563.19v-1.86h2v1.86zm0 14.25v-11.72h2v11.72h-2" data-name="eE"/>
  <path class="cls-2" d="M958.24,567c-2.47,0-3,2-3,4.51s.55,4.63,3,4.63a2.47,2.47,0,0,0,2.66-2.35l2,.13a4.23,4.23,0,0,1-4.57,3.76c-3.64,0-4.69-2.53-5.06-6.11-.62-5.74,6.24-8.09,9.07-4a5,5,0,0,1,.44,1.36l-2,.18a2.37,2.37,0,0,0-2.53-2.16" data-name="ep"/>
  <path class="cls-2" d="M972.13,575.22c-.93,1.3-1.91,2.53-4.2,2.47s-3.58-1.29-3.58-3.52c-.06-3.95,3.89-3.89,7.72-3.89.18-2.16-.56-3.33-2.53-3.33-1.48.06-2.53.43-2.6,1.91l-2-.18c.31-2.28,2-3.21,4.69-3.21s4.44,1.23,4.44,3.95v5.06c-.06,1.24.44,2,1.73,1.67v1.23C973.86,577.94,972,577.26,972.13,575.22Zm-5.74-1.05a1.86,1.86,0,0,0,2,2c2.54-.19,3.89-1.79,3.71-4.57-2.66.13-5.68-.31-5.68,2.53" data-name="ew"/>
  <path class="cls-2" d="M979.41,574.54c-.12,1.48,1.11,1.79,2.35,1.36v1.48c-2,.62-4.32.31-4.32-2.4v-7.84h-1.36v-1.42h1.48l.56-2.66h1.29v2.66h2.16v1.42h-2.16v7.4" data-name="eD"/>
  <path class="cls-2" d="m988.12 565.47c3.89 0 5.31 2.59 5.18 6.54h-8.3c0 2.47 0.86 4.14 3.27 4.2a2.88 2.88 0 0 0 3-1.79l1.72 0.49c-0.68 1.73-2.28 2.78-4.75 2.78-3.58 0-5.43-2.28-5.37-6.17s1.61-6.05 5.25-6.05zm3.21 5c0.37-3.7-4.69-4.75-6-1.73a4.39 4.39 0 0 0-0.37 1.73h6.36" data-name="eq"/>
  <path class="cls-2" d="m999.54 565.47a3.9 3.9 0 0 1 3.7 2l-0.06-6.18h2l0.07 16.11h-1.86a17.26 17.26 0 0 0-0.18-1.91 3.52 3.52 0 0 1-3.64 2.16c-3.27 0-4.26-2.41-4.32-6.05-0.03-4.03 1.39-6.13 4.29-6.13zm0.55 1.48c-2.47 0-2.84 2.1-2.84 4.63s0.37 4.57 2.78 4.57c2.59 0 3.15-2 3.15-4.69s-0.56-4.57-3.09-4.51" data-name="fj"/>
 </g>
 <path class="cls-3" d="M20,517.67a6,6,0,0,1,6-6H174a6,6,0,0,1,6,6v108a6,6,0,0,1-6,6H26a6,6,0,0,1-6-6Z"/>
 <g id="L">
  <path class="cls-2" d="M59,567c-2.47,0-3,2-3,4.51s.56,4.63,3,4.63a2.47,2.47,0,0,0,2.66-2.35l2,.13a4.23,4.23,0,0,1-4.57,3.76c-3.64,0-4.69-2.53-5.06-6.11-.61-5.74,6.24-8.09,9.08-4a5,5,0,0,1,.43,1.36l-2,.18A2.36,2.36,0,0,0,59,567" data-name="ep"/>
  <path class="cls-2" d="M77.19,567c-4.13.19-2.34,6.48-2.71,10.43H72.56V570c0-1.79-.31-3.09-2.16-3-4.07.25-2.34,6.42-2.71,10.43H65.77l-.06-11.72h1.85a9.45,9.45,0,0,0,.13,2c.61-2.71,6.11-3.09,6.6,0a3.8,3.8,0,0,1,3.58-2.22c5.25-.12,2.9,7.34,3.4,12H79.35V570c0-1.79-.31-3-2.16-3" data-name="ex"/>
  <path class="cls-2" d="m87.93 565.47a3.9 3.9 0 0 1 3.71 2l-0.07-6.18h2l0.06 16.11h-1.87a15 15 0 0 0-0.19-1.91 3.5 3.5 0 0 1-3.64 2.16c-3.27 0-4.26-2.41-4.32-6.05 0-4.03 1.39-6.13 4.32-6.13zm0.56 1.48c-2.47 0-2.84 2.1-2.84 4.63s0.37 4.57 2.78 4.57c2.59 0 3.14-2 3.14-4.69s-0.57-4.57-3.08-4.46" data-name="fj"/>
  <path class="cls-2" d="M96.88,562.14c5.37.06,11.79-.93,11.79,4.63,0,4.81-4.75,4.93-9.75,4.69v6h-2Zm2,7.71c3.52,0,7.65.68,7.65-3.08s-4.19-2.91-7.65-3v6.05" data-name="em"/>
  <path class="cls-2" d="M116,565.47c3.89,0,5.31,2.59,5.18,6.54h-8.33c0,2.47.86,4.14,3.27,4.2a2.88,2.88,0,0,0,3-1.79l1.73.49c-.68,1.73-2.29,2.78-4.76,2.78-3.58,0-5.43-2.28-5.37-6.17S112.38,565.47,116,565.47Zm3.21,5c.37-3.7-4.69-4.75-6-1.73a4.58,4.58,0,0,0-.37,1.73h6.36" data-name="eq"/>
  <path class="cls-2" d="M129.41,565.47c5.5-.25,3.28,7.16,3.71,12h-2V570c0-1.92-.49-3-2.41-3-4.44.13-2.71,6.3-3,10.43h-2l-.06-11.72h1.85a10.18,10.18,0,0,0,.13,2,3.9,3.9,0,0,1,3.76-2.22" data-name="eC"/>
  <path class="cls-2" d="m139.78 565.47a3.9 3.9 0 0 1 3.71 2l-0.06-6.18h2l0.06 16.11h-1.85a17.26 17.26 0 0 0-0.18-1.91 3.52 3.52 0 0 1-3.65 2.16c-3.27 0-4.26-2.41-4.32-6.05-0.03-4.03 1.39-6.13 4.29-6.13zm0.56 1.48c-2.47 0-2.84 2.1-2.84 4.63s0.37 4.57 2.78 4.57c2.59 0 3.15-2 3.15-4.69s-0.56-4.57-3.09-4.51" data-name="fj"/>
 </g>
 <path class="cls-6" d="M941,491.66h-2V470.2h2m0-21.35h-2V394.17h2"/>
 <path class="cls-6" d="m941 394.2h-2v-1h2m-1 113.76-4.64-14.27h9.28z"/>
 <path class="cls-6" d="m940 510.17-6-18.5h12m-9.26 2 3.26 10 3.26-10"/>
 <g id="M">
  <path class="cls-2" d="M904.42,456.26c.05-1.43-3.46-1.68-3.51-.2.74,2.28,5.83.35,5.88,4.25.05,4.1-8.1,3.75-8.49.45l2.12-.35c.2.94,1,1.23,2.17,1.23,1.63.4,2.82-1.48,1.19-2-2.13-.69-5-.54-5.14-3.26-.1-3.95,7.61-3.65,8-.34" data-name="fo"/>
  <path id="ft" class="cls-2" d="M917.36,463.08,916.27,460h-4.64l-1.09,3.11H908l4.44-12.25h3l4.45,12.25Zm-1.63-5L914,452.71c-.49,1.87-1.18,3.55-1.78,5.33h3.56"/>
  <path class="cls-2" d="M924.52,463.27c-4.3.05-2.87-5.58-3.11-9.58h2.47c.34,2.82-1.14,7.41,1.63,7.76,3-.25,1.72-4.79,2-7.76H930l0,9.39h-2.32a10.94,10.94,0,0,0-.15-1.88,3.06,3.06,0,0,1-3,2.07" data-name="fl"/>
  <path class="cls-2" d="M936.81,462.93c-1.77.69-4.29.34-4.29-2.08v-5.53h-1.19v-1.63h1.34l.74-2.22h1.53v2.22h1.78v1.63h-1.78v4.89c-.05,1.14.79,1.53,1.87,1.24v1.48" data-name="fb"/>
  <path id="fu" class="cls-2" d="M942.64,455.32c-2.91,0-1.68,4.79-1.92,7.76h-2.47V450.19h2.47l-.05,5.38a3.07,3.07,0,0,1,3-2.07c4.25-.05,2.86,5.58,3.11,9.58h-2.47c-.34-2.82,1.14-7.76-1.68-7.76"/>
  <path class="cls-2" d="m954.74 450.68c4 0 6.17 2.22 6.17 6.22s-2.27 6.37-6.22 6.37-6.12-2.37-6.12-6.37 2.17-6.22 6.17-6.22zm0 10.57c2.57 0 3.61-1.73 3.61-4.35 0-2.46-1-4.24-3.56-4.24s-3.6 1.73-3.6 4.24 1.08 4.35 3.55 4.35" data-name="fi"/>
  <path class="cls-2" d="m968.91 463.08-2.51-4.25-1 0.74v3.51h-2.47v-12.89h2.47v7.41l3.31-3.91h2.61l-3.32 3.66 3.56 5.73h-2.67" data-name="eX"/>
  <path class="cls-2" d="m971.73 463.42 2.52-13.23h2.07l-2.52 13.23h-2.07" data-name="fg"/>
  <path id="fv" class="cls-2" d="m977.16 459.52v-2.12h4.49v2.12h-4.49"/>
 </g>
 <path class="cls-5" d="M857.5,571.67H200"/>
 <path class="cls-6" d="m858.5 572.67h-1v-2h1"/>
 <path class="cls-7" d="M184.74,571.67,199,567v9.27Z"/>
 <g id="N">
  <path class="cls-2" d="M472,560.75c-4.3,0-2.87-5.58-3.12-9.58h2.47c.35,2.82-1.13,7.41,1.63,7.76,3-.25,1.73-4.79,2-7.76h2.47l0,9.39h-2.32a10.94,10.94,0,0,0-.15-1.88,3.08,3.08,0,0,1-3,2.07" data-name="fl"/>
  <path class="cls-2" d="M481.9,554.38c0,2.62,1,4.3,3.61,4.35a3.26,3.26,0,0,0,3.21-2.32l2.22.84a5.38,5.38,0,0,1-5.43,3.5c-4.05,0-5.93-2.27-6.18-6.37-.34-5.43,5.39-7.7,9.68-5.28a4.21,4.21,0,0,1,1.78,2.47l-2.27.59a3,3,0,0,0-3.06-2c-2.57,0-3.51,1.67-3.56,4.24" data-name="fm"/>
  <path id="fw" class="cls-2" d="M502.25,552.8c-2.62.45-1.39,4.94-1.68,7.76h-2.42v-5.29c.05-1.33-.25-2.42-1.43-2.47-2.62.5-1.34,4.94-1.63,7.76h-2.47l-.05-9.39h2.32a10.94,10.94,0,0,0,.15,1.88c.49-2.62,5-2.77,5.33,0,.64-1.09,1.19-2.12,2.91-2.07,4.05,0,2.52,5.72,2.82,9.58h-2.42v-5.29c-.05-1.23-.25-2.37-1.43-2.47"/>
  <path id="fx" class="cls-2" d="m511.53 551a3 3 0 0 1 2.87 1.67v-5h2.46l0.05 12.89h-2.37a13.53 13.53 0 0 0-0.14-1.54 3 3 0 0 1-3 1.73c-2.56 0-3.35-2.22-3.4-4.89s0.86-4.79 3.53-4.86zm0.84 8.09c1.63 0 2-1.48 2-3.26s-0.45-3.16-2-3.16-1.88 1.49-1.93 3.21c0 2.13 0.65 3.21 1.93 3.21"/>
  <path class="cls-2" d="m518.2 560.9 2.52-13.23h2.07l-2.52 13.23h-2.07" data-name="fg"/>
  <path class="cls-2" d="M529.7,553.74c0-1.43-3.45-1.68-3.5-.2.74,2.27,5.82.35,5.87,4.25,0,4.1-8.09,3.75-8.49.44l2.12-.34c.2.94,1,1.23,2.18,1.23,1.63.4,2.81-1.48,1.18-2-2.12-.69-5-.54-5.13-3.26-.1-4,7.6-3.65,8-.35" data-name="fo"/>
  <path class="cls-2" d="M536.12,554.38c0,2.62,1,4.3,3.61,4.35a3.25,3.25,0,0,0,3.21-2.32l2.22.84a5.38,5.38,0,0,1-5.43,3.5c-4.05,0-5.93-2.27-6.17-6.37-.35-5.43,5.38-7.7,9.67-5.28a4.16,4.16,0,0,1,1.78,2.47l-2.27.59a3,3,0,0,0-3.06-2c-2.57,0-3.51,1.67-3.56,4.24" data-name="fm"/>
  <path class="cls-2" d="M556.47,552.8c-2.62.45-1.38,4.94-1.68,7.76h-2.42v-5.29c0-1.33-.25-2.42-1.43-2.47-2.62.5-1.34,4.94-1.63,7.76h-2.47l-.05-9.39h2.32a10.94,10.94,0,0,0,.15,1.88c.49-2.62,5-2.77,5.33,0,.64-1.09,1.19-2.12,2.92-2.07,4,0,2.51,5.72,2.81,9.58H557.9v-5.29c0-1.23-.25-2.37-1.43-2.47" data-name="fw"/>
  <path class="cls-2" d="M565.75,551a3,3,0,0,1,2.87,1.67l0-5H571l.05,12.89h-2.37a13.4,13.4,0,0,0-.15-1.54,3,3,0,0,1-3,1.73c-2.57,0-3.36-2.22-3.41-4.89S563.09,551.07,565.75,551Zm.84,8.09c1.63,0,2-1.48,2-3.26s-.45-3.16-2-3.16-1.87,1.49-1.92,3.21c0,2.13.64,3.21,1.92,3.21" data-name="fx"/>
 </g>
 <path class="cls-5" d="m100 634.17v33a6 6 0 0 0 6 6h829.93a6 6 0 0 0 6-6v-15.5"/>
 <path class="cls-6" d="m101 634.2h-2v-1h2"/>
 <path class="cls-7" d="m941.93 636.4 4.64 14.27h-9.27z"/>
 <g id="O">
  <path class="cls-2" d="M187.86,684.57c0-1.43-3.46-1.67-3.51-.19.74,2.27,5.83.34,5.88,4.24.05,4.1-8.1,3.76-8.49.45l2.12-.35c.2.94,1,1.24,2.17,1.24,1.63.39,2.82-1.48,1.19-2-2.13-.69-5-.54-5.14-3.26-.1-3.95,7.61-3.65,7.95-.34" data-name="fo"/>
  <path class="cls-2" d="M194.28,685.22c0,2.61,1,4.29,3.6,4.34a3.23,3.23,0,0,0,3.21-2.32l2.23.84a5.39,5.39,0,0,1-5.44,3.51c-4,0-5.92-2.28-6.17-6.37-.34-5.44,5.38-7.71,9.68-5.29a4.24,4.24,0,0,1,1.78,2.47l-2.27.59a3,3,0,0,0-3.07-2c-2.56,0-3.5,1.68-3.55,4.25" data-name="fm"/>
  <path class="cls-2" d="M214.62,683.64c-2.61.44-1.38,4.93-1.67,7.75h-2.42V686.1c.05-1.33-.25-2.41-1.44-2.46-2.61.49-1.33,4.93-1.63,7.75H205l0-9.38h2.32a12.06,12.06,0,0,0,.14,1.87c.5-2.61,5-2.76,5.34,0,.64-1.08,1.18-2.12,2.91-2.07,4.05.05,2.52,5.73,2.82,9.58h-2.42V686.1c-.05-1.23-.25-2.37-1.44-2.46" data-name="fw"/>
  <path class="cls-2" d="m223.91 681.81a3 3 0 0 1 2.86 1.68l-0.05-5h2.47l0.05 12.89h-2.37a13.22 13.22 0 0 0-0.15-1.53 3 3 0 0 1-3 1.73c-2.57 0-3.36-2.23-3.41-4.89s0.93-4.78 3.6-4.88zm0.84 8.1c1.63 0 2-1.48 2-3.26s-0.44-3.16-2-3.16-1.88 1.48-1.93 3.21c0 2.12 0.64 3.21 1.93 3.21" data-name="fx"/>
  <path class="cls-2" d="m237.29 679c4 0 6.17 2.23 6.17 6.23s-2.27 6.37-6.22 6.37-6.12-2.37-6.12-6.37 2.17-6.23 6.17-6.23zm0 10.57c2.57 0 3.61-1.73 3.61-4.34s-1-4.25-3.56-4.25-3.6 1.73-3.6 4.25 1.08 4.34 3.55 4.34" data-name="fi"/>
  <path class="cls-2" d="m251.46 691.39-2.46-4.25-1 0.74v3.51h-2.47v-12.89h2.47v7.41l3.31-3.9h2.61l-3.25 3.65 3.55 5.73h-2.67" data-name="eX"/>
  <path class="cls-2" d="m254.28 691.73 2.52-13.23h2.07l-2.52 13.23h-2.07" data-name="fg"/>
  <path class="cls-2" d="m259.71 687.83v-2.12h4.49v2.12h-4.49" data-name="fv"/>
 </g>
 <g id="P">
  <path class="cls-2" d="M187.86,705.91c0-1.43-3.46-1.68-3.51-.2.74,2.27,5.83.35,5.88,4.25.05,4.1-8.1,3.75-8.49.44l2.12-.34c.2.93,1,1.23,2.17,1.23,1.63.4,2.82-1.48,1.19-2-2.13-.7-5-.55-5.14-3.26-.1-4,7.61-3.66,7.95-.35" data-name="fo"/>
  <path class="cls-2" d="M194.28,706.55c0,2.62,1,4.3,3.6,4.35a3.25,3.25,0,0,0,3.21-2.33l2.23.84a5.38,5.38,0,0,1-5.44,3.51c-4,0-5.92-2.27-6.17-6.37-.34-5.43,5.38-7.7,9.68-5.28a4.21,4.21,0,0,1,1.78,2.46l-2.27.6a3,3,0,0,0-3.07-2c-2.56,0-3.5,1.68-3.55,4.25" data-name="fm"/>
  <path class="cls-2" d="M214.62,705c-2.61.44-1.38,4.94-1.67,7.75h-2.42v-5.28c.05-1.34-.25-2.42-1.44-2.47-2.61.49-1.33,4.94-1.63,7.75H205l0-9.38h2.32a12.29,12.29,0,0,0,.14,1.88c.5-2.62,5-2.77,5.34,0,.64-1.09,1.18-2.13,2.91-2.08,4.05.05,2.52,5.73,2.82,9.58h-2.42v-5.28c-.05-1.24-.25-2.37-1.44-2.47" data-name="fw"/>
  <path class="cls-2" d="m223.91 703.14a3 3 0 0 1 2.86 1.68l-0.05-5h2.47l0.05 12.89h-2.37a13.44 13.44 0 0 0-0.15-1.53 2.94 2.94 0 0 1-3 1.73c-2.57 0-3.36-2.22-3.41-4.89s0.93-4.78 3.6-4.88zm0.84 8.1c1.63 0 2-1.48 2-3.26s-0.44-3.16-2-3.16-1.88 1.48-1.93 3.21c0 2.12 0.64 3.21 1.93 3.21" data-name="fx"/>
  <path id="fy" class="cls-2" d="m231.56 712.72v-12.24h9.63v2h-7.06v3.11h6.52v2h-6.52v3.21h7.41v2h-10"/>
  <path class="cls-2" d="M248.9,705.31c-1.93-.59-3,.65-3,2.82v4.59h-2.47l-.05-9.38h2.33a12.17,12.17,0,0,0,.14,2c.3-1.38,1.34-2.61,3-2v2" data-name="eZ"/>
  <path class="cls-2" d="M255.81,705.31c-1.93-.59-3,.65-3,2.82v4.59h-2.47l0-9.38h2.32a12.13,12.13,0,0,0,.15,2c.29-1.38,1.33-2.61,3-2v2" data-name="eZ"/>
  <path class="cls-2" d="m261.49 703.14c3.16 0 4.74 1.78 4.74 4.89s-1.73 4.89-4.79 4.89-4.69-1.78-4.69-4.89 1.68-4.89 4.74-4.89zm-0.05 8.1c1.73 0 2.22-1.38 2.22-3.21s-0.49-3.21-2.12-3.21-2.22 1.28-2.22 3.21 0.49 3.21 2.12 3.21" data-name="fa"/>
  <path class="cls-2" d="M273.54,705.31c-1.93-.59-3,.65-3,2.82v4.59h-2.47l-.05-9.38h2.32a12.13,12.13,0,0,0,.15,2c.29-1.38,1.33-2.61,3-2v2" data-name="eZ"/>
  <path class="cls-2" d="M274,713.07l2.52-13.24h2.08l-2.52,13.24H274" data-name="fg"/>
  <path class="cls-2" d="M279.41,709.17V707h4.5v2.13h-4.5" data-name="fv"/>
 </g>
 <path class="cls-6" d="M1059.05,121.6l2.53,2.52.92,3.4V565.8l-.92,3.4-2.53,2.54-3.42.93H1022.5v-2h32.87L1058,570l1.8-1.77.7-2.65V127.8l-.7-2.64-1.8-1.78-2.63-.7h-405v-2h405.23m-510.62,2H140.87l-2.64.7-1.78,1.78-.7,2.64V251.66h-2V127.53l.9-3.4,2.54-2.54,3.4-.93H545"/>
 <path class="cls-6" d="m1022.5 572.67h-1v-2h1m-887.8-303.74-4.64-14.27h9.26z"/>
 <path class="cls-6" d="m134.73 270.17-6-18.5h12m-9.26 2 3.26 10 3.26-10"/>
 <g id="Q">
  <path class="cls-2" d="M549.21,125.42c-4.3,0-2.87-5.58-3.11-9.58h2.47c.34,2.81-1.14,7.41,1.63,7.75,3-.24,1.73-4.79,2-7.75h2.47l.05,9.38h-2.32a10.9,10.9,0,0,0-.15-1.87,3.07,3.07,0,0,1-3,2.07" data-name="fl"/>
  <path id="fz" class="cls-2" d="m562.74 112.83c4 0 6.17 2.22 6.17 6.22 0 3.46-1.63 5.48-4.54 6.12 0.3 1.39 1.68 1.88 3.36 1.53l-0.05 1.78c-3.11 0.84-5.48-0.54-5.93-3.16-3.41-0.39-5.18-2.57-5.18-6.27 0-4 2.17-6.22 6.17-6.22zm0 10.57c2.57 0 3.61-1.73 3.61-4.35 0-2.47-1-4.25-3.56-4.25s-3.61 1.73-3.61 4.25 1.09 4.35 3.56 4.35"/>
  <path class="cls-2" d="M573.85,125.42c-4.3,0-2.86-5.58-3.11-9.58h2.47c.34,2.81-1.14,7.41,1.63,7.75,3-.24,1.73-4.79,2-7.75h2.47l.05,9.38H577a10.9,10.9,0,0,0-.15-1.87,3.07,3.07,0,0,1-3,2.07" data-name="fl"/>
  <path class="cls-2" d="m581.7 114.16v-1.83h2.47v1.83zm0 11.06v-9.38h2.47v9.38h-2.47" data-name="fA"/>
  <path class="cls-2" d="M591.09,125.07c-1.78.7-4.3.35-4.3-2.07v-5.53H585.6v-1.63h1.34l.74-2.22h1.53v2.22H591v1.63h-1.78v4.89c-.05,1.13.79,1.53,1.88,1.23v1.48" data-name="fb"/>
  <path class="cls-2" d="m591.48 125.57 2.52-13.24h2.07l-2.52 13.24h-2.07" data-name="fg"/>
  <path class="cls-2" d="M603,118.41c0-1.43-3.46-1.68-3.51-.2.74,2.27,5.83.35,5.88,4.25,0,4.1-8.1,3.75-8.5.44l2.13-.34c.19.93,1,1.23,2.17,1.23,1.63.4,2.81-1.48,1.18-2-2.12-.7-5-.55-5.13-3.26-.1-4,7.6-3.66,7.95-.35" data-name="fo"/>
  <path class="cls-2" d="M607.28,113c5.93-.35,11,.24,10.92,6-.05,4-2.18,6.22-6,6.22h-4.94Zm2.57,10.27c3.66.34,5.78-.89,5.78-4.25s-2.22-4.35-5.78-4v8.3" data-name="eR"/>
  <path class="cls-2" d="m624.32 115.64c3.16 0 4.74 1.78 4.74 4.89s-1.73 4.89-4.79 4.89-4.69-1.78-4.69-4.89 1.68-4.89 4.74-4.89zm-0.05 8.1c1.73 0 2.22-1.38 2.22-3.21s-0.49-3.21-2.12-3.21-2.22 1.28-2.22 3.21c0 1.78 0.49 3.21 2.12 3.21" data-name="fa"/>
  <path class="cls-2" d="M636.37,115.64c4.3,0,2.86,5.58,3.11,9.58H637c-.34-2.81,1.14-7.75-1.68-7.75s-1.68,4.79-1.92,7.75h-2.47l-.05-9.38h2.32a11.11,11.11,0,0,0,.15,1.88,3.07,3.07,0,0,1,3-2.08" data-name="fn"/>
  <path class="cls-2" d="M649.65,122.85a4,4,0,0,1-4,2.57c-3-.1-4.39-1.83-4.39-4.94s1.48-4.84,4.44-4.84,4.1,2.22,4.15,5.34h-6c0,1.53.39,2.71,1.92,2.76a1.51,1.51,0,0,0,1.68-1.09Zm-2.22-3.41c.25-2.27-2.81-3.11-3.46-1a3.44,3.44,0,0,0-.19,1h3.65" data-name="fp"/>
 </g>
 <path class="cls-3" d="m1298.5 209.33a6 6 0 0 1 6-6h148a6 6 0 0 1 6 6v108a6 6 0 0 1-6 6h-148a6 6 0 0 1-6-6z"/>
 <g id="R">
  <path id="eu" class="cls-2" d="m1356.7 269.11h-2.22l-2.47-10.11-2.53 10.12h-2.22l-3.3-11.74h2l2.41 10.13 2.65-10.13h2.1l2.53 10.13 2.59-10.13h1.92"/>
  <path class="cls-2" d="M1368.72,266.89c-.93,1.3-1.92,2.53-4.2,2.47s-3.58-1.3-3.58-3.52c-.06-3.95,3.89-3.89,7.71-3.89.19-2.16-.55-3.33-2.53-3.33-1.48.06-2.53.43-2.59,1.91l-2-.18c.31-2.29,2-3.21,4.7-3.21s4.44,1.23,4.44,3.95v5.06c-.06,1.23.43,2,1.73,1.66v1.24C1370.44,269.6,1368.59,268.93,1368.72,266.89Zm-5.74-1.05a1.87,1.87,0,0,0,2,2c2.53-.19,3.89-1.79,3.7-4.57-2.65.12-5.67-.31-5.67,2.53" data-name="ew"/>
  <path class="cls-2" d="M1373.84,254.85V253h2v1.85Zm0,14.26V257.38h2v11.73h-2" data-name="eE"/>
  <path class="cls-2" d="M1380.88,266.21c-.13,1.48,1.11,1.79,2.34,1.36v1.48c-2,.62-4.32.31-4.32-2.41V258.8h-1.36v-1.42H1379l.56-2.65h1.3v2.65H1383v1.42h-2.16v7.41" data-name="eD"/>
  <path class="cls-2" d="M1384.89,254.85V253h2v1.85Zm0,14.26V257.38h2v11.73h-2" data-name="eE"/>
  <path class="cls-2" d="M1395.51,257.14c5.49-.25,3.27,7.16,3.7,12h-2v-7.47c0-1.91-.49-3-2.4-3-4.45.12-2.72,6.3-3,10.43h-2l-.06-11.73h1.85a10.33,10.33,0,0,0,.12,2,3.9,3.9,0,0,1,3.77-2.22" data-name="eC"/>
  <path id="eB" class="cls-2" d="M1411.56,257.38c-.62,7.72,2.53,18.09-6.79,16.11a3.52,3.52,0,0,1-2.72-2.65l2-.31c.93,2.9,6.18,2,5.5-1.73V267a3.9,3.9,0,0,1-3.77,2.22c-3.33,0-4.19-2.53-4.19-5.92s1-6,4.38-6.05a4,4,0,0,1,3.64,2.16c.06-.62,0-1.42.12-2Zm-5.13,10.37c2.22,0,3.09-2,3.09-4.5s-.87-4.63-3.09-4.63c-2.41,0-2.84,2.1-2.84,4.63s.37,4.5,2.84,4.5"/>
 </g>
 <path class="cls-4" d="m1398.5 91.67a20 20 0 1 1-20-20 20 20 0 0 1 20 20z"/>
 <path class="cls-5" d="m1378.5 114.17v69.16"/>
 <path class="cls-6" d="m1378.4 113.17h1.07v1.06h-2v-1.23"/>
 <path class="cls-7" d="m1378.5 198.6-4.64-14.27h9.28z"/>
 <path class="cls-3" d="m1818.5 209.33a6 6 0 0 1 6-6h148a6 6 0 0 1 6 6v108a6 6 0 0 1-6 6h-148a6 6 0 0 1-6-6z"/>
 <g id="S">
  <path class="cls-2" d="M1859.7,266.89c-.92,1.3-1.91,2.53-4.19,2.47s-3.58-1.3-3.58-3.52c-.07-3.95,3.88-3.89,7.71-3.89.19-2.16-.55-3.33-2.53-3.33-1.48.06-2.53.43-2.59,1.91l-2-.18c.31-2.29,2-3.21,4.69-3.21s4.45,1.23,4.45,3.95v5.06c-.06,1.23.43,2,1.73,1.66v1.24C1861.43,269.6,1859.58,268.93,1859.7,266.89Zm-5.74-1.05a1.87,1.87,0,0,0,2,2c2.53-.19,3.89-1.79,3.7-4.57-2.65.12-5.68-.31-5.68,2.53" data-name="ew"/>
  <path class="cls-2" d="M1869.27,258.68c-2.47,0-3,2-3,4.51s.55,4.62,3,4.62a2.46,2.46,0,0,0,2.66-2.34l2,.12a4.23,4.23,0,0,1-4.57,3.77c-3.64,0-4.69-2.53-5.06-6.11-.62-5.74,6.24-8.09,9.08-3.95a5.46,5.46,0,0,1,.43,1.35l-2,.19a2.35,2.35,0,0,0-2.53-2.16" data-name="ep"/>
  <path class="cls-2" d="M1880.38,258.68c-2.47,0-3,2-3,4.51s.56,4.62,3,4.62a2.46,2.46,0,0,0,2.66-2.34l2,.12a4.23,4.23,0,0,1-4.57,3.77c-3.64,0-4.69-2.53-5.06-6.11-.61-5.74,6.24-8.09,9.08-3.95a5.07,5.07,0,0,1,.43,1.35l-2,.19a2.35,2.35,0,0,0-2.53-2.16" data-name="ep"/>
  <path class="cls-2" d="m1891.7 257.14c3.89 0 5.31 2.59 5.19 6.54h-8.34c0 2.47 0.87 4.13 3.27 4.2a2.88 2.88 0 0 0 3-1.79l1.73 0.49c-0.68 1.73-2.29 2.78-4.76 2.78-3.58 0-5.43-2.29-5.37-6.17s1.64-6.05 5.28-6.05zm3.21 5c0.37-3.71-4.69-4.76-6-1.73a4.58 4.58 0 0 0-0.37 1.73h6.42" data-name="eq"/>
  <path id="ey" class="cls-2" d="M1905,257.14c3.4.06,4.32,2.53,4.32,6.05s-1,6-4.32,6.17a3.78,3.78,0,0,1-3.7-2.1l.06,6.48h-2l-.07-16.36h1.92l.12,1.85A3.65,3.65,0,0,1,1905,257.14Zm-.49,10.74c2.47,0,2.78-2.1,2.78-4.63s-.37-4.51-2.78-4.57c-2.59,0-3.15,2-3.15,4.69s.62,4.51,3.15,4.51"/>
  <path class="cls-2" d="M1913.9,266.21c-.12,1.48,1.11,1.79,2.35,1.36v1.48c-2,.62-4.32.31-4.32-2.41V258.8h-1.36v-1.42h1.48l.55-2.65h1.3v2.65h2.16v1.42h-2.16v7.41" data-name="eD"/>
  <path class="cls-2" d="M1917.91,254.85V253h2v1.85Zm0,14.26V257.38h2v11.73h-2" data-name="eE"/>
  <path class="cls-2" d="M1928.53,257.14c5.49-.25,3.27,7.16,3.7,12h-2v-7.47c0-1.91-.49-3-2.41-3-4.44.12-2.71,6.3-3,10.43h-2l-.06-11.73h1.85a9.55,9.55,0,0,0,.13,2,3.89,3.89,0,0,1,3.76-2.22" data-name="eC"/>
  <path class="cls-2" d="M1944.58,257.38c-.62,7.72,2.53,18.09-6.79,16.11a3.52,3.52,0,0,1-2.72-2.65l2-.31c.93,2.9,6.17,2,5.49-1.73V267a3.9,3.9,0,0,1-3.76,2.22c-3.34,0-4.2-2.53-4.2-5.92s1-6,4.38-6.05a4,4,0,0,1,3.64,2.16c.07-.62,0-1.42.13-2Zm-5.12,10.37c2.22,0,3.08-2,3.08-4.5s-.86-4.63-3.08-4.63c-2.41,0-2.84,2.1-2.84,4.63s.37,4.5,2.84,4.5" data-name="eB"/>
 </g>
 <path class="cls-3" d="m1298.5 384.5a6 6 0 0 1 6-6h148a6 6 0 0 1 6 6v108a6 6 0 0 1-6 6h-148a6 6 0 0 1-6-6z"/>
 <g id="T">
  <path class="cls-2" d="M1357.79,434.22c-4.81-1-3.27,5.61-3.52,10.06h-2l-.07-11.73h1.86a14.3,14.3,0,0,0,.12,2.41c.37-1.67,1.42-3,3.58-2.53v1.79" data-name="en"/>
  <path class="cls-2" d="m1364.3 432.3c3.89 0 5.31 2.6 5.19 6.55h-8.34c0 2.46 0.87 4.13 3.28 4.19a2.87 2.87 0 0 0 3-1.79l1.73 0.5c-0.68 1.73-2.29 2.77-4.75 2.77-3.59 0-5.44-2.28-5.38-6.17s1.63-6.05 5.27-6.05zm3.21 5c0.37-3.7-4.69-4.75-6-1.73a4.62 4.62 0 0 0-0.37 1.73h6.36" data-name="eq"/>
  <path class="cls-2" d="M1379.15,442.06c-.93,1.29-1.92,2.53-4.2,2.46s-3.58-1.29-3.58-3.51c-.06-3.95,3.89-3.89,7.72-3.89.18-2.16-.56-3.34-2.53-3.34-1.49.07-2.54.44-2.6,1.92l-2-.19c.3-2.28,2-3.21,4.69-3.21s4.44,1.24,4.44,3.95v5.06c-.06,1.24.43,2,1.73,1.67v1.24C1380.88,444.77,1379,444.09,1379.15,442.06Zm-5.74-1.05a1.86,1.86,0,0,0,2,2c2.53-.18,3.89-1.79,3.71-4.56-2.66.12-5.68-.31-5.68,2.53" data-name="ew"/>
  <path class="cls-2" d="m1388 432.3a3.9 3.9 0 0 1 3.7 2l-0.06-6.17h2l0.07 16.11h-1.86a17.45 17.45 0 0 0-0.18-1.92 3.52 3.52 0 0 1-3.64 2.16c-3.27 0-4.26-2.4-4.32-6 0.01-4.08 1.43-6.18 4.29-6.18zm0.55 1.48c-2.47 0-2.84 2.1-2.84 4.63s0.37 4.57 2.78 4.57c2.59 0 3.15-2 3.15-4.69s-0.56-4.57-3.09-4.51" data-name="fj"/>
  <path id="eI" class="cls-2" d="M1406.19,432.55l-5.31,13.64c-.87,1.73-2.29,3.15-5,2.59V447.3c2.4.37,3.27-1.23,3.95-3.08l-4.63-11.67h2.1l3.51,9.63,3.34-9.63h2"/>
 </g>
 <path class="cls-3" d="m1298.5 604.5a6 6 0 0 1 6-6h148a6 6 0 0 1 6 6v108a6 6 0 0 1-6 6h-148a6 6 0 0 1-6-6z"/>
 <g id="U">
  <path class="cls-2" d="M1332,653.85c-2.47,0-3,2-3,4.5s.55,4.63,3,4.63a2.45,2.45,0,0,0,2.65-2.34l2,.12a4.24,4.24,0,0,1-4.57,3.76c-3.64,0-4.69-2.53-5.06-6.11-.62-5.74,6.23-8.08,9.07-3.95a4.9,4.9,0,0,1,.43,1.36l-2,.19a2.36,2.36,0,0,0-2.53-2.16" data-name="ep"/>
  <path class="cls-2" d="M1350.17,653.85c-4.14.18-2.35,6.48-2.72,10.43h-1.91v-7.47c0-1.79-.31-3.09-2.16-3-4.08.24-2.35,6.42-2.72,10.43h-1.91l-.06-11.73h1.85a10.17,10.17,0,0,0,.12,2c.62-2.71,6.11-3.08,6.61,0a3.77,3.77,0,0,1,3.58-2.22c5.24-.12,2.9,7.35,3.39,12h-1.91v-7.47c0-1.79-.31-3-2.16-3" data-name="ex"/>
  <path class="cls-2" d="m1360.9 652.3a3.9 3.9 0 0 1 3.7 2l-0.06-6.17h2l0.07 16.11h-1.86a17.45 17.45 0 0 0-0.18-1.92 3.52 3.52 0 0 1-3.64 2.16c-3.27 0-4.26-2.4-4.32-6-0.03-4.08 1.38-6.18 4.29-6.18zm0.55 1.48c-2.47 0-2.84 2.1-2.84 4.63s0.37 4.57 2.78 4.57c2.59 0 3.15-2 3.15-4.69s-0.56-4.57-3.09-4.51" data-name="fj"/>
  <path class="cls-2" d="m1382.4 653.35a4.07 4.07 0 0 1-3.7 4.32l4.32 6.61h-2.35l-4-6.36h-4.75v6.36h-2v-15.28c5.38 0.15 12.6-1.33 12.48 4.35zm-10.49 3c3.7-0.12 8.45 0.81 8.45-2.9s-4.94-2.59-8.45-2.77v5.67" data-name="fB"/>
  <path class="cls-2" d="m1390.2 652.3c3.89 0 5.31 2.6 5.18 6.55h-8.35c0 2.46 0.86 4.13 3.27 4.19a2.86 2.86 0 0 0 3-1.79l1.73 0.5c-0.68 1.73-2.28 2.77-4.75 2.77-3.58 0-5.43-2.28-5.37-6.17s1.64-6.05 5.29-6.05zm3.21 5c0.37-3.7-4.69-4.75-6-1.73a4.44 4.44 0 0 0-0.37 1.73h6.36" data-name="eq"/>
  <path class="cls-2" d="M1402.27,653.85c-2.47,0-3,2-3,4.5s.56,4.63,3,4.63a2.45,2.45,0,0,0,2.65-2.34l2,.12a4.24,4.24,0,0,1-4.57,3.76c-3.64,0-4.69-2.53-5.06-6.11-.62-5.74,6.23-8.08,9.07-3.95a4.9,4.9,0,0,1,.43,1.36l-2,.19a2.36,2.36,0,0,0-2.53-2.16" data-name="ep"/>
  <path id="eH" class="cls-2" d="m1414.1 664.28h-2.35l-4.26-11.73h2.1l3.33 10.18 3.46-10.18h2.1"/>
  <path class="cls-2" d="m1423.8 652.3a3.9 3.9 0 0 1 3.7 2l-0.06-6.17h2l0.06 16.11h-1.85a17.33 17.33 0 0 0-0.19-1.92 3.52 3.52 0 0 1-3.64 2.16c-3.27 0-4.26-2.4-4.32-6-0.02-4.08 1.4-6.18 4.3-6.18zm0.55 1.48c-2.46 0-2.84 2.1-2.84 4.63s0.38 4.57 2.78 4.57c2.6 0 3.15-2 3.15-4.69s-0.55-4.57-3.09-4.51" data-name="fj"/>
 </g>
 <path class="cls-5" d="m1296 438.5h-33a6 6 0 0 0-6 6v205.66a6 6 0 0 0 6 6h15.5"/>
 <path class="cls-6" d="m1297 439.5h-1v-2h1"/>
 <path class="cls-7" d="m1293.8 656.16-14.26 4.64v-9.27z"/>
 <g id="V">
  <path class="cls-2" d="M1152.92,669.05c0-1.43-3.46-1.68-3.51-.2.74,2.28,5.83.35,5.88,4.25,0,4.1-8.1,3.75-8.49.44l2.12-.34c.2.94,1,1.23,2.17,1.23,1.63.4,2.82-1.48,1.19-2-2.13-.69-5-.54-5.14-3.26-.1-3.95,7.61-3.65,7.95-.35" data-name="fo"/>
  <path class="cls-2" d="M1159.34,669.69c0,2.62,1,4.3,3.6,4.35a3.25,3.25,0,0,0,3.21-2.32l2.23.84a5.38,5.38,0,0,1-5.44,3.5c-4,0-5.92-2.27-6.17-6.37-.34-5.43,5.38-7.7,9.68-5.28a4.21,4.21,0,0,1,1.78,2.47l-2.27.59a3,3,0,0,0-3.06-2c-2.57,0-3.51,1.68-3.56,4.24" data-name="fm"/>
  <path class="cls-2" d="M1179.69,668.11c-2.62.45-1.39,4.94-1.68,7.76h-2.42v-5.29c.05-1.33-.25-2.42-1.44-2.47-2.61.5-1.33,4.94-1.62,7.76h-2.47l0-9.39h2.32a10.94,10.94,0,0,0,.15,1.88c.49-2.62,5-2.77,5.33,0,.64-1.09,1.18-2.12,2.91-2.07,4,.05,2.52,5.72,2.82,9.58h-2.42v-5.29c0-1.23-.25-2.37-1.43-2.47" data-name="fw"/>
  <path class="cls-2" d="m1189 666.29a3 3 0 0 1 2.86 1.67v-5h2.47v12.89h-2.37a13 13 0 0 0-0.15-1.53 2.94 2.94 0 0 1-3 1.72c-2.57 0-3.36-2.22-3.41-4.89s0.9-4.77 3.6-4.86zm0.84 8.09c1.63 0 2-1.48 2-3.25s-0.44-3.17-2-3.17-1.88 1.49-1.93 3.21c0 2.13 0.65 3.21 1.93 3.21" data-name="fx"/>
  <path class="cls-2" d="m1195.6 676.21 2.51-13.23h2.08l-2.52 13.23h-2.07" data-name="fg"/>
  <path class="cls-2" d="M1207.14,669.05c0-1.43-3.45-1.68-3.5-.2.74,2.28,5.82.35,5.87,4.25,0,4.1-8.1,3.75-8.49.44l2.12-.34c.2.94,1,1.23,2.18,1.23,1.62.4,2.81-1.48,1.18-2-2.12-.69-5-.54-5.14-3.26-.09-3.95,7.61-3.65,8-.35" data-name="fo"/>
  <path class="cls-2" d="M1213.56,669.69c0,2.62,1,4.3,3.61,4.35a3.26,3.26,0,0,0,3.21-2.32l2.22.84a5.38,5.38,0,0,1-5.43,3.5c-4.05,0-5.93-2.27-6.18-6.37-.34-5.43,5.39-7.7,9.68-5.28a4.16,4.16,0,0,1,1.78,2.47l-2.27.59a3,3,0,0,0-3.06-2c-2.57,0-3.51,1.68-3.56,4.24" data-name="fm"/>
  <path class="cls-2" d="M1233.91,668.11c-2.62.45-1.39,4.94-1.68,7.76h-2.42v-5.29c0-1.33-.25-2.42-1.43-2.47-2.62.5-1.34,4.94-1.63,7.76h-2.47l0-9.39h2.32a10.94,10.94,0,0,0,.15,1.88c.49-2.62,5-2.77,5.33,0,.64-1.09,1.19-2.12,2.91-2.07,4,.05,2.52,5.72,2.82,9.58h-2.42v-5.29c0-1.23-.25-2.37-1.43-2.47" data-name="fw"/>
  <path class="cls-2" d="m1243.2 666.29a3 3 0 0 1 2.87 1.67v-5h2.47v12.89h-2.38a13.13 13.13 0 0 0-0.14-1.53 3 3 0 0 1-3 1.72c-2.56 0-3.35-2.22-3.4-4.89s0.92-4.77 3.58-4.86zm0.84 8.09c1.63 0 2-1.48 2-3.25s-0.45-3.17-2-3.17-1.88 1.49-1.92 3.21c0 2.13 0.64 3.21 1.92 3.21" data-name="fx"/>
  <path id="fC" class="cls-2" d="m1256.9 675.87h-2.62l-4.54-12.25h2.72l3.16 10.17c0.84-3.55 2.07-6.76 3.11-10.17h2.66"/>
  <path class="cls-2" d="M1269.66,673.5a4,4,0,0,1-4.05,2.56c-3-.1-4.39-1.82-4.39-4.93s1.48-4.84,4.44-4.84,4.1,2.22,4.15,5.33h-6c0,1.53.4,2.72,1.93,2.76a1.52,1.52,0,0,0,1.68-1.08Zm-2.22-3.41c.25-2.27-2.82-3.11-3.46-1a3.21,3.21,0,0,0-.2,1h3.66" data-name="fp"/>
  <path class="cls-2" d="M1277.07,668.46c-1.93-.59-3,.64-3,2.81v4.6h-2.47l-.05-9.39h2.32a12.17,12.17,0,0,0,.15,2c.29-1.38,1.33-2.62,3-2v2" data-name="eZ"/>
  <path class="cls-2" d="m1278.6 664.8v-1.8h2.45v1.82zm0 11.07v-9.39h2.45v9.39h-2.47" data-name="fA"/>
  <path class="cls-2" d="M1288.23,664.71c-1.33-.35-2.12.24-1.88,1.77h1.88v1.63h-1.88v7.76h-2.42v-7.76h-1.38v-1.63h1.38c-.44-2.91,1.58-4,4.3-3.35v1.58" data-name="eW"/>
  <path class="cls-2" d="M1294.2,676.36c-.74,2.12-2.12,3.75-5.13,3.06v-1.73a2.2,2.2,0,0,0,2.91-1.92l-3.7-9.29h2.57l2.37,7.31c.59-2.57,1.38-4.94,2.17-7.31h2.52" data-name="fr"/>
 </g>
 <path class="cls-5" d="m1378.5 596v-77.5"/>
 <path class="cls-6" d="m1379.5 597h-2v-1h2"/>
 <path class="cls-7" d="m1378.5 503.24 4.64 14.26h-9.28z"/>
 <g data-name="O">
  <path class="cls-2" d="M1393.27,534.57c0-1.43-3.46-1.67-3.51-.19.74,2.27,5.83.34,5.88,4.24,0,4.1-8.1,3.76-8.5.45l2.13-.35c.19.94,1,1.24,2.17,1.24,1.63.39,2.81-1.48,1.18-2-2.12-.69-5-.54-5.13-3.26-.1-3.95,7.6-3.65,8-.34" data-name="fo"/>
  <path class="cls-2" d="M1399.69,535.22c0,2.61,1,4.29,3.6,4.34a3.23,3.23,0,0,0,3.21-2.32l2.22.84a5.39,5.39,0,0,1-5.43,3.51c-4,0-5.93-2.28-6.17-6.37-.35-5.44,5.38-7.71,9.68-5.29a4.18,4.18,0,0,1,1.77,2.47l-2.27.59a3,3,0,0,0-3.06-2c-2.57,0-3.51,1.68-3.55,4.25" data-name="fm"/>
  <path class="cls-2" d="M1420,533.64c-2.62.44-1.38,4.93-1.68,7.75h-2.42V536.1c0-1.33-.24-2.41-1.43-2.46-2.62.49-1.33,4.93-1.63,7.75h-2.47l-.05-9.38h2.32a10.9,10.9,0,0,0,.15,1.87c.49-2.61,5-2.76,5.33,0,.65-1.08,1.19-2.12,2.92-2.07,4,.05,2.52,5.73,2.81,9.58h-2.42V536.1c0-1.23-.24-2.37-1.43-2.46" data-name="fw"/>
  <path class="cls-2" d="m1429.3 531.81a3 3 0 0 1 2.87 1.68v-5h2.47l0.05 12.89h-2.37a13.22 13.22 0 0 0-0.15-1.53 3 3 0 0 1-3 1.73c-2.57 0-3.36-2.23-3.41-4.89s0.88-4.78 3.54-4.88zm0.84 8.1c1.63 0 2-1.48 2-3.26s-0.45-3.16-2-3.16-1.87 1.48-1.92 3.21c0 2.12 0.64 3.21 1.92 3.21" data-name="fx"/>
  <path class="cls-2" d="m1442.7 529c4 0 6.17 2.23 6.17 6.23s-2.27 6.37-6.22 6.37-6.13-2.37-6.13-6.37 2.18-6.23 6.18-6.23zm0 10.57c2.57 0 3.6-1.73 3.6-4.34s-1-4.25-3.55-4.25-3.61 1.73-3.61 4.25 1.09 4.34 3.56 4.34" data-name="fi"/>
  <path class="cls-2" d="m1456.9 541.39-2.52-4.25-1 0.74v3.51h-2.46v-12.89h2.46v7.41l3.31-3.9h2.62l-3.26 3.65 3.56 5.73h-2.67" data-name="eX"/>
  <path class="cls-2" d="m1459.7 541.73 2.51-13.23h2.08l-2.52 13.23h-2.07" data-name="fg"/>
  <path class="cls-2" d="m1465.1 537.83v-2.12h4.49v2.12h-4.49" data-name="fv"/>
 </g>
 <g id="W">
  <path class="cls-2" d="M1393.27,555.91c0-1.43-3.46-1.68-3.51-.2.74,2.27,5.83.35,5.88,4.25,0,4.1-8.1,3.75-8.5.44l2.13-.34c.19.93,1,1.23,2.17,1.23,1.63.4,2.81-1.48,1.18-2-2.12-.7-5-.55-5.13-3.26-.1-4,7.6-3.66,8-.35" data-name="fo"/>
  <path class="cls-2" d="M1404.72,553.73c0-2.12-4.64-2.27-4.79-.14.89,3.26,7.46.49,7.61,5.63.15,4.69-8.15,4.59-10.08,1.77a3.63,3.63,0,0,1-.59-1.48l2.47-.39c.15,2.27,5.53,2.76,5.73.24-.84-3.4-7.41-.49-7.61-5.63-.19-4.29,7.56-4.34,9.29-1.72a4.35,4.35,0,0,1,.49,1.38" data-name="eT"/>
  <path class="cls-2" d="M1412.43,562.92c-4.3.05-2.87-5.58-3.12-9.58h2.47c.35,2.81-1.13,7.41,1.63,7.75,3-.24,1.73-4.79,2-7.75h2.47l.05,9.38h-2.32a10.9,10.9,0,0,0-.15-1.87,3.07,3.07,0,0,1-3,2.07" data-name="fl"/>
  <path class="cls-2" d="m1425.7 553.14c2.57 0 3.46 2.13 3.46 4.84s-0.94 4.89-3.61 4.94a3 3 0 0 1-2.86-1.73l-0.1 1.53h-2.37v-12.89h2.47v5.17a3 3 0 0 1 3.01-1.86zm-1 8.1c1.53 0 2-1.33 2-3.26s-0.35-3.11-1.93-3.11-2 1.38-2 3.21 0.39 3.16 2 3.16" data-name="fD"/>
  <path class="cls-2" d="m1431 562.72v-12.24h9.63v2h-7.06v3.11h6.52v2h-6.52v3.21h7.43v2h-10" data-name="fy"/>
  <path class="cls-2" d="M1448.38,555.31c-1.93-.59-3,.65-3,2.82v4.59h-2.47l0-9.38h2.32a12.17,12.17,0,0,0,.14,2c.3-1.38,1.34-2.61,3-2v2" data-name="eZ"/>
  <path class="cls-2" d="M1455.29,555.31c-1.93-.59-3,.65-3,2.82v4.59h-2.47l0-9.38h2.32a12.13,12.13,0,0,0,.15,2c.29-1.38,1.33-2.61,3-2v2" data-name="eZ"/>
  <path class="cls-2" d="m1461 553.14c3.16 0 4.74 1.78 4.74 4.89s-1.73 4.89-4.79 4.89-4.69-1.78-4.69-4.89 1.65-4.89 4.74-4.89zm0 8.1c1.73 0 2.22-1.38 2.22-3.21s-0.49-3.21-2.12-3.21-2.22 1.28-2.22 3.21 0.49 3.21 2.12 3.21" data-name="fa"/>
  <path class="cls-2" d="M1473,555.31c-1.93-.59-3,.65-3,2.82v4.59h-2.47l0-9.38h2.32a12.13,12.13,0,0,0,.15,2c.29-1.38,1.33-2.61,3-2v2" data-name="eZ"/>
  <path class="cls-2" d="m1473.5 563.07 2.52-13.24h2.08l-2.52 13.24h-2.08" data-name="fg"/>
  <path class="cls-2" d="M1478.9,559.17V557h4.49v2.13h-4.49" data-name="fv"/>
 </g>
 <path class="cls-5" d="m1378.5 376v-32.66"/>
 <path class="cls-6" d="m1379.5 377h-2v-1h2"/>
 <path class="cls-7" d="m1378.5 328.07 4.64 14.27h-9.28z"/>
 <g id="X">
  <path class="cls-2" d="M1397.9,339.71c0-1.43-3.46-1.67-3.51-.19.75,2.27,5.83.34,5.88,4.24,0,4.1-8.1,3.76-8.49.45l2.12-.35c.2.94,1,1.24,2.17,1.24,1.63.39,2.82-1.48,1.19-2-2.12-.69-5-.54-5.14-3.26-.1-3.95,7.61-3.65,8-.34" data-name="fo"/>
  <path class="cls-2" d="M1402.2,334.28c5.92-.34,11,.25,10.91,6,0,3.95-2.17,6.22-6,6.22h-4.94Zm2.56,10.27c3.66.35,5.78-.88,5.78-4.24s-2.22-4.35-5.78-4.05v8.29" data-name="eR"/>
  <path class="cls-2" d="m1419.2 337c3.16 0 4.74 1.78 4.74 4.89s-1.72 4.89-4.79 4.89-4.69-1.78-4.69-4.89 1.68-4.89 4.74-4.89zm0 8.1c1.73 0 2.23-1.38 2.23-3.21s-0.5-3.21-2.13-3.21-2.22 1.28-2.22 3.21 0.5 3.21 2.12 3.21" data-name="fa"/>
  <path class="cls-2" d="M1431.28,337c4.3-.05,2.87,5.58,3.11,9.58h-2.46c-.35-2.82,1.13-7.75-1.68-7.75s-1.68,4.79-1.93,7.75h-2.47l0-9.38h2.32a10.9,10.9,0,0,0,.15,1.87,3.07,3.07,0,0,1,3-2.07" data-name="fn"/>
  <path class="cls-2" d="M1444.57,344.16a4,4,0,0,1-4,2.57c-3-.1-4.4-1.83-4.4-4.94s1.48-4.84,4.45-4.84,4.1,2.22,4.15,5.33h-6c0,1.53.4,2.72,1.93,2.77a1.52,1.52,0,0,0,1.68-1.09Zm-2.22-3.41c.24-2.27-2.82-3.11-3.46-1a3.26,3.26,0,0,0-.2,1h3.66" data-name="fp"/>
  <path class="cls-2" d="m1445.5 346.88 2.51-13.24h2.08l-2.52 13.24h-2.07" data-name="fg"/>
  <path class="cls-2" d="m1450.9 343v-2.12h4.49v2.12h-4.49" data-name="fv"/>
 </g>
 <path class="cls-5" d="M1898.5,325.83V432.5a6,6,0,0,1-6,6h-414"/>
 <path class="cls-6" d="m1899.5 325.86h-2v-1h2"/>
 <path class="cls-7" d="m1463.2 438.5 14.26-4.64v9.28z"/>
 <g data-name="M">
  <path class="cls-2" d="M1605.46,420.57c0-1.43-3.46-1.67-3.5-.19.74,2.27,5.82.34,5.87,4.24.05,4.1-8.1,3.76-8.49.45l2.12-.35c.2.94,1,1.24,2.17,1.24,1.63.39,2.82-1.48,1.19-2-2.12-.69-5-.54-5.14-3.26-.1-3.95,7.61-3.65,8-.34" data-name="fo"/>
  <path class="cls-2" d="M1618.4,427.39l-1.09-3.11h-4.64l-1.09,3.11H1609l4.44-12.25h3l4.45,12.25Zm-1.63-5L1615,417c-.49,1.88-1.18,3.55-1.78,5.33h3.56" data-name="ft"/>
  <path class="cls-2" d="M1625.56,427.59c-4.3.05-2.86-5.58-3.11-9.58h2.47c.34,2.81-1.14,7.4,1.63,7.75,3-.25,1.73-4.79,2-7.75H1631l0,9.38h-2.32a11.11,11.11,0,0,0-.15-1.88,3.07,3.07,0,0,1-3,2.08" data-name="fl"/>
  <path class="cls-2" d="M1637.86,427.24c-1.78.69-4.3.35-4.3-2.07v-5.53h-1.18V418h1.33l.74-2.23H1636V418h1.78v1.63H1636v4.88c0,1.14.79,1.54,1.88,1.24v1.48" data-name="fb"/>
  <path class="cls-2" d="m1643.7 419.64c-2.91 0-1.68 4.79-1.92 7.75h-2.47v-12.89h2.47v5.38a3.07 3.07 0 0 1 3-2.07c4.25-0.05 2.86 5.58 3.11 9.58h-2.47c-0.34-2.82 1.14-7.75-1.68-7.75" data-name="fu"/>
  <path class="cls-2" d="m1655.8 415c4 0 6.18 2.23 6.18 6.23s-2.28 6.37-6.23 6.37-6.12-2.37-6.12-6.37 2.17-6.23 6.17-6.23zm0 10.57c2.57 0 3.61-1.73 3.61-4.34s-1-4.25-3.56-4.25-3.6 1.73-3.6 4.25 1.08 4.34 3.55 4.34" data-name="fi"/>
  <path class="cls-2" d="M1670,427.39l-2.52-4.25-1,.74v3.51h-2.47V414.5h2.47v7.41l3.31-3.9h2.62l-3.26,3.65,3.55,5.73H1670" data-name="eX"/>
  <path class="cls-2" d="m1672.8 427.73 2.52-13.23h2.07l-2.52 13.23h-2.07" data-name="fg"/>
  <path class="cls-2" d="m1678.2 423.83v-2.12h4.5v2.12h-4.5" data-name="fv"/>
 </g>
 <path class="cls-5" d="m1461 263.33h337.5"/>
 <path class="cls-6" d="m1461 264.33h-1v-2h1"/>
 <path class="cls-7" d="m1813.8 263.33-14.26 4.67v-9.3z"/>
 <g id="Y">
  <path class="cls-2" d="M1586.65,245.41c0-1.43-3.46-1.68-3.51-.2.74,2.27,5.83.35,5.88,4.25,0,4.1-8.1,3.75-8.5.44l2.13-.34c.2.93,1,1.23,2.17,1.23,1.63.4,2.82-1.48,1.19-2-2.13-.7-5-.55-5.14-3.26-.1-3.95,7.61-3.66,8-.35" data-name="fo"/>
  <path class="cls-2" d="M1593.07,246.05c0,2.62,1,4.3,3.6,4.35a3.25,3.25,0,0,0,3.21-2.33l2.22.84a5.36,5.36,0,0,1-5.43,3.51c-4.05,0-5.92-2.27-6.17-6.37-.35-5.43,5.38-7.7,9.68-5.28a4.21,4.21,0,0,1,1.78,2.46l-2.27.6a3,3,0,0,0-3.07-2c-2.56,0-3.5,1.68-3.55,4.25" data-name="fm"/>
  <path class="cls-2" d="m1608 242.64c3.16 0 4.74 1.78 4.74 4.89s-1.73 4.89-4.79 4.89-4.69-1.78-4.69-4.89 1.66-4.89 4.74-4.89zm0 8.1c1.73 0 2.22-1.38 2.22-3.21s-0.49-3.21-2.12-3.21-2.22 1.28-2.22 3.21c0 1.78 0.49 3.21 2.12 3.21" data-name="fa"/>
  <path class="cls-2" d="M1620,242.64c4.3,0,2.87,5.58,3.11,9.58h-2.47c-.34-2.81,1.14-7.75-1.68-7.75s-1.68,4.79-1.92,7.75h-2.47l0-9.38h2.32a11.11,11.11,0,0,0,.15,1.88,3.07,3.07,0,0,1,3-2.08" data-name="fn"/>
  <path class="cls-2" d="m1624.4 252.57 2.52-13.24h2.1l-2.52 13.24h-2.07" data-name="fg"/>
  <path class="cls-2" d="M1635.88,245.41c0-1.43-3.45-1.68-3.5-.2.74,2.27,5.82.35,5.87,4.25,0,4.1-8.1,3.75-8.49.44l2.12-.34c.2.93,1,1.23,2.18,1.23,1.63.4,2.81-1.48,1.18-2-2.12-.7-5-.55-5.14-3.26-.09-3.95,7.61-3.66,8-.35" data-name="fo"/>
  <path class="cls-2" d="M1642.3,246.05c0,2.62,1,4.3,3.61,4.35a3.27,3.27,0,0,0,3.21-2.33l2.22.84a5.37,5.37,0,0,1-5.43,3.51c-4.05,0-5.93-2.27-6.18-6.37-.34-5.43,5.39-7.7,9.68-5.28a4.17,4.17,0,0,1,1.78,2.46l-2.27.6a3,3,0,0,0-3.06-2c-2.57,0-3.51,1.68-3.56,4.25" data-name="fm"/>
  <path class="cls-2" d="m1657.2 242.64c3.16 0 4.74 1.78 4.74 4.89s-1.73 4.89-4.79 4.89-4.69-1.78-4.69-4.89 1.67-4.89 4.74-4.89zm0 8.1c1.73 0 2.22-1.38 2.22-3.21s-0.49-3.21-2.12-3.21-2.23 1.28-2.23 3.21c0 1.78 0.5 3.21 2.13 3.21" data-name="fa"/>
  <path class="cls-2" d="m1669.3 242.64c4.29 0 2.86 5.58 3.11 9.58h-2.47c-0.35-2.81 1.13-7.75-1.68-7.75s-1.68 4.79-1.93 7.75h-2.47v-9.38h2.32a12.24 12.24 0 0 0 0.15 1.88 3.09 3.09 0 0 1 3-2.08" data-name="fn"/>
  <path class="cls-2" d="m1680.3 239.83c4 0 6.17 2.22 6.17 6.22s-2.27 6.37-6.22 6.37-6.13-2.37-6.13-6.37 2.18-6.22 6.18-6.22zm0 10.57c2.57 0 3.6-1.73 3.6-4.35s-1-4.25-3.55-4.25-3.61 1.73-3.61 4.25 1.09 4.35 3.56 4.35" data-name="fi"/>
  <path class="cls-2" d="m1694.5 252.22-2.5-4.22-1 0.74v3.5h-2.46v-12.91h2.46v7.41l3.31-3.9h2.62l-3.26 3.65 3.56 5.73h-2.67" data-name="eX"/>
 </g>
 <path class="cls-5" d="m1898.5 200.83v-33a6 6 0 0 0-6-6h-457.4a6 6 0 0 0-6 6v15.5"/>
 <path class="cls-6" d="m1899.5 201.83h-2v-1h2"/>
 <path class="cls-7" d="m1429.1 198.6-4.64-14.27h9.27z"/>
 <g id="Z">
  <path class="cls-2" d="M1580.93,143.91c0-1.43-3.46-1.68-3.51-.2.75,2.27,5.83.35,5.88,4.25,0,4.1-8.1,3.75-8.49.44l2.12-.34c.2.93,1,1.23,2.17,1.23,1.63.4,2.82-1.48,1.19-2-2.12-.7-5-.55-5.14-3.26-.1-3.95,7.61-3.66,7.95-.35" data-name="fo"/>
  <path class="cls-2" d="m1593.9 150.72-1.09-3.11h-4.64l-1.09 3.11h-2.56l4.44-12.24h3l4.45 12.24zm-1.63-5-1.78-5.34c-0.49 1.88-1.18 3.56-1.78 5.34h3.56" data-name="ft"/>
  <path class="cls-2" d="M1601,150.92c-4.3.05-2.86-5.58-3.11-9.58h2.47c.34,2.81-1.14,7.41,1.63,7.75,3-.24,1.73-4.79,2-7.75h2.47l0,9.38h-2.32a10.9,10.9,0,0,0-.15-1.87,3.07,3.07,0,0,1-3,2.07" data-name="fl"/>
  <path class="cls-2" d="M1613.33,150.57c-1.78.7-4.3.35-4.3-2.07V143h-1.19v-1.63h1.34l.74-2.22h1.53v2.22h1.78V143h-1.78v4.89c0,1.13.79,1.53,1.88,1.23v1.48" data-name="fb"/>
  <path class="cls-2" d="m1619.2 143c-2.91 0-1.68 4.79-1.92 7.75h-2.47v-12.92h2.47v5.39a3.07 3.07 0 0 1 3-2.08c4.25 0 2.86 5.58 3.11 9.58h-2.47c-0.34-2.81 1.14-7.75-1.68-7.75" data-name="fu"/>
  <path class="cls-2" d="m1625.5 150.72v-12.24h9.63v2h-7.06v3.11h6.52v2h-6.52v3.21h7.41v2h-10" data-name="fy"/>
  <path class="cls-2" d="M1642.86,143.31c-1.93-.59-3,.65-3,2.82v4.59h-2.47l0-9.38h2.32a13.42,13.42,0,0,0,.14,2c.3-1.38,1.34-2.61,3-2v2" data-name="eZ"/>
  <path class="cls-2" d="M1649.77,143.31c-1.93-.59-3,.65-3,2.82v4.59h-2.47l0-9.38h2.32a12.13,12.13,0,0,0,.15,2c.29-1.38,1.33-2.61,3-2v2" data-name="eZ"/>
  <path class="cls-2" d="m1655.4 141.14c3.16 0 4.74 1.78 4.74 4.89s-1.73 4.89-4.79 4.89-4.69-1.78-4.69-4.89 1.68-4.89 4.74-4.89zm0 8.1c1.73 0 2.22-1.38 2.22-3.21s-0.49-3.21-2.12-3.21-2.22 1.28-2.22 3.21c0 1.78 0.49 3.21 2.12 3.21" data-name="fa"/>
  <path class="cls-2" d="M1667.5,143.31c-1.93-.59-3,.65-3,2.82v4.59h-2.47l0-9.38h2.32a12.13,12.13,0,0,0,.15,2c.29-1.38,1.33-2.61,3-2v2" data-name="eZ"/>
  <path class="cls-2" d="m1667.9 151.07 2.52-13.24h2.08l-2.54 13.24h-2.08" data-name="fg"/>
  <path class="cls-2" d="M1679.45,143.91c0-1.43-3.46-1.68-3.51-.2.74,2.27,5.83.35,5.88,4.25,0,4.1-8.1,3.75-8.49.44l2.12-.34c.2.93,1,1.23,2.17,1.23,1.63.4,2.82-1.48,1.19-2-2.13-.7-5-.55-5.14-3.26-.1-3.95,7.61-3.66,7.95-.35" data-name="fo"/>
  <path class="cls-2" d="m1686.3 140.45v3.8h6.28v2h-6.28v4.49h-2.56v-12.26h9v2h-6.47" data-name="fE"/>
  <path id="eV" class="cls-2" d="M1699.94,149c-.79.94-1.48,1.93-3.16,1.88a2.6,2.6,0,0,1-2.86-2.86c-.05-3,2.71-3.12,5.73-3,0-1.28-.15-2.32-1.39-2.32a1.29,1.29,0,0,0-1.38,1.34l-2.57-.1c.35-1.88,1.78-2.87,4-2.82s3.66,1.09,3.71,3.36l0,4.05c0,.69.59.89,1.23.74v1.33C1701.87,151,1699.84,150.87,1699.94,149Zm-2.37.15c1.44,0,2.13-1.18,2.08-2.81-1.58,0-3.26-.15-3.21,1.48,0,.84.39,1.33,1.13,1.33"/>
  <path class="cls-2" d="m1704.5 139.66v-1.83h2.51v1.83zm0 11.06v-9.38h2.51v9.38h-2.47" data-name="fA"/>
  <path class="cls-2" d="m1709.4 150.72v-12.89h2.47v12.89h-2.47" data-name="fd"/>
  <path class="cls-2" d="m1723 150.72-1.09-3.11h-4.64l-1.09 3.11h-2.57l4.45-12.24h3l4.44 12.24zm-1.63-5-1.78-5.34c-0.5 1.88-1.19 3.56-1.78 5.34h3.56" data-name="ft"/>
  <path class="cls-2" d="M1730.12,150.92c-4.3.05-2.87-5.58-3.11-9.58h2.46c.35,2.81-1.13,7.41,1.63,7.75,3-.24,1.73-4.79,2-7.75h2.47l0,9.38h-2.32a10.9,10.9,0,0,0-.15-1.87,3.07,3.07,0,0,1-3,2.07" data-name="fl"/>
  <path class="cls-2" d="M1742.41,150.57c-1.78.7-4.29.35-4.29-2.07V143h-1.19v-1.63h1.33l.75-2.22h1.53v2.22h1.77V143h-1.77v4.89c0,1.13.79,1.53,1.87,1.23v1.48" data-name="fb"/>
  <path class="cls-2" d="m1748.2 143c-2.91 0-1.68 4.79-1.93 7.75h-2.47v-12.92h2.47v5.39a3.09 3.09 0 0 1 3-2.08c4.24 0 2.86 5.58 3.11 9.58h-2.47c-0.35-2.81 1.13-7.75-1.68-7.75" data-name="fu"/>
 </g>
 <path class="cls-5" d="m1981 295.72h33a6 6 0 0 0 6-6v-56.33a6 6 0 0 0-6-6h-15.5"/>
 <path class="cls-6" d="m1981 296.72h-1v-2h1"/>
 <path class="cls-7" d="m1983.2 227.4 14.26-4.64v9.24z"/>
 <g id="aa">
  <path class="cls-2" d="M2034.77,247.63c0-1.43-3.46-1.68-3.51-.2.74,2.27,5.83.35,5.88,4.25,0,4.1-8.1,3.75-8.5.44l2.13-.34c.19.94,1,1.23,2.17,1.23,1.63.4,2.81-1.48,1.18-2-2.12-.69-5-.55-5.13-3.26-.1-3.95,7.6-3.66,8-.35" data-name="fo"/>
  <path class="cls-2" d="m2047.1 254.44v-5.23h-5.43v5.23h-2.57v-12.24h2.57v4.89h5.43v-4.89h2.47v12.24h-2.47" data-name="fe"/>
  <path class="cls-2" d="M2059.8,252.07a4,4,0,0,1-4.05,2.57c-3-.1-4.39-1.83-4.39-4.94s1.48-4.84,4.44-4.84,4.1,2.23,4.15,5.34h-6c0,1.53.39,2.71,1.92,2.76a1.52,1.52,0,0,0,1.68-1.08Zm-2.22-3.4c.25-2.28-2.81-3.12-3.46-1a3.21,3.21,0,0,0-.19,1h3.65" data-name="fp"/>
  <path class="cls-2" d="m2061.8 254.44v-12.89h2.47v12.89h-2.47" data-name="fd"/>
  <path class="cls-2" d="m2066.7 254.44v-12.89h2.47v12.89h-2.47" data-name="fd"/>
  <path class="cls-2" d="m2075.8 244.86c3.16 0 4.74 1.78 4.74 4.89s-1.73 4.89-4.79 4.89-4.69-1.78-4.69-4.89 1.68-4.89 4.74-4.89zm0 8.1c1.73 0 2.22-1.38 2.22-3.21s-0.49-3.21-2.12-3.21-2.22 1.29-2.22 3.21 0.49 3.21 2.12 3.21" data-name="fa"/>
  <path class="cls-2" d="m2081.4 254.79 2.52-13.24h2.05l-2.51 13.24h-2.08" data-name="fg"/>
  <path class="cls-2" d="M2092.94,247.63c0-1.43-3.46-1.68-3.51-.2.74,2.27,5.83.35,5.88,4.25.05,4.1-8.1,3.75-8.5.44l2.13-.34c.2.94,1,1.23,2.17,1.23,1.63.4,2.82-1.48,1.19-2-2.13-.69-5-.55-5.14-3.26-.1-3.95,7.61-3.66,8-.35" data-name="fo"/>
  <path class="cls-2" d="m2105.9 254.44-1.09-3.11h-4.64l-1.09 3.11h-2.57l4.45-12.24h3l4.45 12.24zm-1.63-5-1.78-5.34c-0.49 1.88-1.19 3.56-1.78 5.34h3.56" data-name="ft"/>
  <path class="cls-2" d="M2113,254.64c-4.3.05-2.87-5.58-3.11-9.58h2.47c.34,2.82-1.14,7.41,1.62,7.75,3-.24,1.73-4.79,2-7.75h2.47l.05,9.38h-2.32a10.9,10.9,0,0,0-.15-1.87,3.07,3.07,0,0,1-3,2.07" data-name="fl"/>
  <path class="cls-2" d="M2125.33,254.3c-1.77.69-4.29.34-4.29-2.08v-5.53h-1.19v-1.63h1.34l.74-2.22h1.53v2.22h1.77v1.63h-1.77v4.89c-.05,1.14.79,1.53,1.87,1.23v1.49" data-name="fb"/>
  <path class="cls-2" d="m2131.2 246.69c-2.91 0-1.68 4.79-1.93 7.75h-2.46v-12.89h2.46v5.39a3.07 3.07 0 0 1 3-2.08c4.24-0.05 2.86 5.58 3.11 9.58h-2.47c-0.35-2.81 1.14-7.75-1.68-7.75" data-name="fu"/>
  <path class="cls-2" d="m2143.3 242.05c3.95 0 6.17 2.22 6.17 6.22s-2.27 6.37-6.22 6.37-6.12-2.37-6.12-6.37 2.17-6.22 6.17-6.22zm-0.05 10.57c2.57 0 3.6-1.73 3.6-4.35s-1-4.25-3.55-4.25-3.61 1.73-3.61 4.25 1.09 4.35 3.56 4.35" data-name="fi"/>
  <path class="cls-2" d="m2157.4 254.44-2.52-4.24-1 0.74v3.5h-2.47v-12.89h2.47v7.45l3.31-3.9h2.61l-3.26 3.66 3.56 5.72h-2.67" data-name="eX"/>
 </g>
 <g id="ab">
  <path class="cls-2" d="M2034.77,269c0-1.43-3.46-1.68-3.51-.2.74,2.28,5.83.35,5.88,4.25,0,4.1-8.1,3.75-8.5.45l2.13-.35c.19.94,1,1.23,2.17,1.23,1.63.4,2.81-1.48,1.18-2-2.12-.69-5-.54-5.13-3.26-.1-3.95,7.6-3.65,8-.34" data-name="fo"/>
  <path class="cls-2" d="m2047.1 275.78v-5.24h-5.43v5.24h-2.57v-12.25h2.57v4.89h5.43v-4.89h2.47v12.25h-2.47" data-name="fe"/>
  <path class="cls-2" d="M2059.8,273.41a4,4,0,0,1-4.05,2.56c-3-.09-4.39-1.82-4.39-4.93s1.48-4.84,4.44-4.84,4.1,2.22,4.15,5.33h-6c0,1.53.39,2.72,1.92,2.77a1.52,1.52,0,0,0,1.68-1.09Zm-2.22-3.41c.25-2.27-2.81-3.11-3.46-1a3.21,3.21,0,0,0-.19,1h3.65" data-name="fp"/>
  <path class="cls-2" d="m2061.8 275.78v-12.89h2.47v12.89h-2.47" data-name="fd"/>
  <path class="cls-2" d="m2066.7 275.78v-12.89h2.47v12.89h-2.47" data-name="fd"/>
  <path class="cls-2" d="m2075.8 266.2c3.16 0 4.74 1.77 4.74 4.89s-1.73 4.88-4.79 4.88-4.69-1.77-4.69-4.88 1.68-4.89 4.74-4.89zm0 8.1c1.73 0 2.22-1.39 2.22-3.21 0-2-0.49-3.21-2.12-3.21s-2.22 1.28-2.22 3.21c0 1.77 0.49 3.21 2.12 3.21" data-name="fa"/>
  <path class="cls-2" d="m2081.4 276.12 2.52-13.23h2.05l-2.51 13.23h-2.08" data-name="fg"/>
  <path class="cls-2" d="M2092.94,269c0-1.43-3.46-1.68-3.51-.2.74,2.28,5.83.35,5.88,4.25.05,4.1-8.1,3.75-8.5.45l2.13-.35c.2.94,1,1.23,2.17,1.23,1.63.4,2.82-1.48,1.19-2-2.13-.69-5-.54-5.14-3.26-.1-3.95,7.61-3.65,8-.34" data-name="fo"/>
  <path class="cls-2" d="m2105.9 275.78-1.09-3.11h-4.64l-1.09 3.11h-2.57l4.45-12.25h3l4.45 12.25zm-1.63-5-1.78-5.33c-0.49 1.87-1.19 3.55-1.78 5.33h3.56" data-name="ft"/>
  <path class="cls-2" d="M2113,276c-4.3,0-2.87-5.58-3.11-9.58h2.47c.34,2.82-1.14,7.41,1.62,7.76,3-.25,1.73-4.79,2-7.76h2.47l.05,9.39h-2.32a10.94,10.94,0,0,0-.15-1.88,3.06,3.06,0,0,1-3,2.07" data-name="fl"/>
  <path class="cls-2" d="M2125.33,275.63c-1.77.69-4.29.34-4.29-2.08V268h-1.19v-1.63h1.34l.74-2.22h1.53v2.22h1.77V268h-1.77v4.89c-.05,1.14.79,1.53,1.87,1.24v1.48" data-name="fb"/>
  <path class="cls-2" d="m2131.2 268c-2.91 0-1.68 4.79-1.93 7.76h-2.46v-12.87h2.46v5.38a3.07 3.07 0 0 1 3-2.07c4.24-0.05 2.86 5.58 3.11 9.58h-2.47c-0.35-2.82 1.14-7.76-1.68-7.76" data-name="fu"/>
  <path class="cls-2" d="m2137.5 275.78v-12.25h9.63v2h-7.06v3.11h6.52v2h-6.52v3.21h7.41v2h-10" data-name="fy"/>
  <path class="cls-2" d="M2154.86,268.37c-1.92-.59-3,.64-3,2.81v4.6h-2.47l0-9.39h2.32a12.17,12.17,0,0,0,.15,2c.3-1.38,1.34-2.62,3-2v2" data-name="eZ"/>
  <path class="cls-2" d="M2161.78,268.37c-1.93-.59-3,.64-3,2.81v4.6h-2.46l0-9.39h2.32a12.17,12.17,0,0,0,.15,2c.29-1.38,1.33-2.62,3-2v2" data-name="eZ"/>
  <path class="cls-2" d="m2167.5 266.2c3.16 0 4.74 1.77 4.74 4.89s-1.73 4.88-4.79 4.88-4.69-1.77-4.69-4.88 1.68-4.89 4.74-4.89zm-0.05 8.1c1.73 0 2.22-1.39 2.22-3.21 0-2-0.49-3.21-2.12-3.21s-2.23 1.28-2.23 3.21c0 1.77 0.5 3.21 2.13 3.21" data-name="fa"/>
  <path class="cls-2" d="M2179.51,268.37c-1.93-.59-3,.64-3,2.81v4.6h-2.47l-.05-9.39h2.33a12.22,12.22,0,0,0,.14,2c.3-1.38,1.34-2.62,3-2v2" data-name="eZ"/>
 </g>
 <path class="cls-5" d="M940,269.17v-91.5a6,6,0,0,0-6-6H180.2a6,6,0,0,0-6,6v74"/>
 <path class="cls-6" d="m941 270.17h-2v-1h2"/>
 <path class="cls-7" d="m174.2 266.93-4.64-14.27h9.27z"/>
 <g id="ac">
  <path class="cls-2" d="M554.29,153.74c.05-1.43-3.46-1.68-3.51-.2.74,2.27,5.83.35,5.88,4.25.05,4.1-8.1,3.75-8.49.44l2.12-.34c.2.94,1,1.23,2.17,1.23,1.63.4,2.82-1.48,1.19-2-2.13-.69-5-.54-5.14-3.26-.1-4,7.61-3.65,8-.35" data-name="fo"/>
  <path class="cls-2" d="m561.15 150.28v3.81h6.28v2h-6.28v4.5h-2.56v-12.28h9v2h-6.47" data-name="fE"/>
  <path class="cls-2" d="M574.78,158.88c-.79.93-1.48,1.92-3.16,1.87a2.6,2.6,0,0,1-2.86-2.86c0-3,2.71-3.11,5.73-3,0-1.29-.15-2.32-1.39-2.32a1.28,1.28,0,0,0-1.38,1.33l-2.57-.1c.35-1.88,1.78-2.86,4.05-2.81s3.66,1.08,3.71,3.35l.05,4c-.05.69.59.89,1.23.74v1.34C576.71,160.85,574.68,160.7,574.78,158.88Zm-2.37.14c1.44,0,2.13-1.18,2.08-2.81-1.58,0-3.26-.15-3.21,1.48,0,.84.39,1.33,1.13,1.33" data-name="eV"/>
  <path class="cls-2" d="m579.33 149.49v-1.82h2.47v1.82zm0 11.07v-9.39h2.47v9.39h-2.47" data-name="fA"/>
  <path class="cls-2" d="m584.27 160.56v-12.89h2.46v12.89h-2.46" data-name="fd"/>
  <path class="cls-2" d="m597.8 160.56-1.09-3.12h-4.64l-1.07 3.12h-2.57l4.45-12.25h3l4.44 12.25zm-1.63-5-1.78-5.33c-0.5 1.87-1.19 3.55-1.78 5.33h3.56" data-name="ft"/>
  <path class="cls-2" d="M605,160.75c-4.3.05-2.87-5.58-3.11-9.58h2.46c.35,2.82-1.13,7.41,1.63,7.76,3-.25,1.73-4.79,2-7.76h2.47l.05,9.39h-2.32a10.94,10.94,0,0,0-.15-1.88,3.07,3.07,0,0,1-3,2.07" data-name="fl"/>
  <path class="cls-2" d="M617.25,160.41c-1.78.69-4.29.34-4.29-2.08V152.8h-1.19v-1.63h1.33l.75-2.22h1.53v2.22h1.77v1.63h-1.77v4.89c0,1.14.79,1.53,1.87,1.24v1.48" data-name="fb"/>
  <path class="cls-2" d="m623.08 152.8c-2.91 0-1.68 4.79-1.93 7.76h-2.47v-12.89h2.47v5.38a3.08 3.08 0 0 1 3-2.07c4.24 0 2.86 5.58 3.11 9.58h-2.47c-0.35-2.82 1.13-7.76-1.68-7.76" data-name="fu"/>
  <path class="cls-2" d="m628.46 160.9 2.54-13.23h2.08l-2.52 13.23h-2.08" data-name="fg"/>
  <path class="cls-2" d="M633.89,157v-2.12h4.5V157h-4.5" data-name="fv"/>
 </g>
 <path class="cls-5" d="m1325.3 721v33a6 6 0 0 0 6 6h83.9a6 6 0 0 0 6-6v-15.5"/>
 <path class="cls-6" d="m1326.3 721h-2v-1h2"/>
 <path class="cls-7" d="m1421.2 723.24 4.64 14.26h-9.27z"/>
 <g id="ad">
  <path class="cls-2" d="M1282.38,776c0-1.43-3.45-1.68-3.5-.19.74,2.27,5.82.34,5.87,4.24,0,4.1-8.1,3.76-8.49.45l2.12-.35c.2.94,1,1.24,2.18,1.24,1.63.39,2.81-1.49,1.18-2-2.12-.69-5-.54-5.14-3.26-.09-3.95,7.61-3.65,8-.34" data-name="fo"/>
  <path class="cls-2" d="M1288.8,776.68c0,2.62,1,4.3,3.61,4.35a3.26,3.26,0,0,0,3.21-2.32l2.22.84a5.39,5.39,0,0,1-5.43,3.51c-4.05,0-5.93-2.28-6.18-6.38-.34-5.43,5.39-7.7,9.68-5.28a4.16,4.16,0,0,1,1.78,2.47l-2.27.59a3,3,0,0,0-3.06-2c-2.57,0-3.51,1.68-3.56,4.24" data-name="fm"/>
  <path class="cls-2" d="M1309.15,775.1c-2.62.45-1.38,4.94-1.68,7.76h-2.42v-5.29c0-1.33-.25-2.42-1.43-2.47-2.62.5-1.34,4.94-1.63,7.76h-2.47l0-9.39h2.32a10.94,10.94,0,0,0,.15,1.88c.49-2.62,5-2.76,5.33,0,.64-1.09,1.19-2.12,2.92-2.07,4,.05,2.51,5.73,2.81,9.58h-2.42v-5.29c0-1.23-.25-2.37-1.43-2.47" data-name="fw"/>
  <path class="cls-2" d="m1318.4 773.28a3 3 0 0 1 2.87 1.68v-5h2.47v12.89h-2.38a13.13 13.13 0 0 0-0.14-1.53 3 3 0 0 1-3 1.73c-2.56 0-3.35-2.23-3.4-4.89s0.92-4.78 3.58-4.88zm0.84 8.1c1.63 0 2-1.49 2-3.26s-0.45-3.16-2-3.16-1.88 1.48-1.92 3.21c0 2.12 0.64 3.21 1.92 3.21" data-name="fx"/>
  <path class="cls-2" d="m1332.2 782.86h-2.62l-4.54-12.25h2.72l3.16 10.17c0.84-3.55 2.07-6.76 3.11-10.17h2.66" data-name="fC"/>
  <path class="cls-2" d="M1344.9,780.49a4,4,0,0,1-4.05,2.57c-3-.1-4.39-1.83-4.39-4.94s1.48-4.84,4.44-4.84,4.1,2.22,4.15,5.33h-6c0,1.53.4,2.72,1.93,2.77a1.52,1.52,0,0,0,1.68-1.09Zm-2.22-3.41c.25-2.27-2.82-3.11-3.46-1a3.21,3.21,0,0,0-.2,1h3.66" data-name="fp"/>
  <path class="cls-2" d="M1352.31,775.45c-1.93-.59-3,.64-3,2.81v4.6h-2.47l-.05-9.39h2.32a12.17,12.17,0,0,0,.15,2c.29-1.38,1.33-2.62,3-2v2" data-name="eZ"/>
  <path class="cls-2" d="m1353.8 771.8v-1.8h2.47v1.83zm0 11.06v-9.39h2.47v9.39h-2.47" data-name="fA"/>
  <path class="cls-2" d="M1363.47,771.7c-1.33-.35-2.12.24-1.88,1.77h1.88v1.63h-1.88v7.76h-2.42V775.1h-1.38v-1.63h1.38c-.44-2.91,1.58-4,4.3-3.35v1.58" data-name="eW"/>
  <path class="cls-2" d="M1369.44,783.35c-.74,2.12-2.12,3.75-5.13,3.06v-1.73a2.2,2.2,0,0,0,2.91-1.92l-3.7-9.29h2.57l2.37,7.31c.59-2.56,1.38-4.93,2.17-7.31h2.52" data-name="fr"/>
  <path class="cls-2" d="m1373.4 783.2 2.56-13.2h2l-2.52 13.23h-2.08" data-name="fg"/>
  <path class="cls-2" d="M1385,776c0-1.43-3.46-1.68-3.51-.19.75,2.27,5.83.34,5.88,4.24,0,4.1-8.1,3.76-8.49.45l2.12-.35c.2.94,1,1.24,2.17,1.24,1.63.39,2.82-1.49,1.19-2-2.12-.69-5-.54-5.14-3.26-.1-3.95,7.61-3.65,7.95-.34" data-name="fo"/>
  <path class="cls-2" d="M1391.37,776.68c0,2.62,1,4.3,3.61,4.35a3.26,3.26,0,0,0,3.21-2.32l2.22.84a5.39,5.39,0,0,1-5.43,3.51c-4,0-5.93-2.28-6.18-6.38-.34-5.43,5.39-7.7,9.68-5.28a4.21,4.21,0,0,1,1.78,2.47l-2.27.59a3,3,0,0,0-3.06-2c-2.57,0-3.51,1.68-3.56,4.24" data-name="fm"/>
  <path class="cls-2" d="M1411.72,775.1c-2.62.45-1.39,4.94-1.68,7.76h-2.42v-5.29c.05-1.33-.25-2.42-1.43-2.47-2.62.5-1.34,4.94-1.63,7.76h-2.47l0-9.39h2.32a10.94,10.94,0,0,0,.15,1.88c.49-2.62,5-2.76,5.33,0,.64-1.09,1.18-2.12,2.91-2.07,4,.05,2.52,5.73,2.82,9.58h-2.42v-5.29c-.05-1.23-.25-2.37-1.43-2.47" data-name="fw"/>
  <path class="cls-2" d="m1421 773.28a3 3 0 0 1 2.86 1.68v-5h2.47v12.89h-2.33a13 13 0 0 0-0.15-1.53 3 3 0 0 1-3 1.73c-2.57 0-3.36-2.23-3.41-4.89s0.89-4.78 3.56-4.88zm0.84 8.1c1.63 0 2-1.49 2-3.26s-0.44-3.16-2-3.16-1.88 1.48-1.93 3.21c0 2.12 0.65 3.21 1.93 3.21" data-name="fx"/>
  <path class="cls-2" d="m1434.4 770.46c3.95 0 6.18 2.22 6.18 6.22s-2.28 6.38-6.23 6.38-6.12-2.38-6.12-6.38 2.17-6.22 6.17-6.22zm-0.05 10.57c2.57 0 3.61-1.73 3.61-4.35 0-2.46-1-4.24-3.56-4.24s-3.6 1.73-3.6 4.24 1.08 4.35 3.55 4.35" data-name="fi"/>
  <path class="cls-2" d="M1448.56,782.86l-2.52-4.25-1,.74v3.51h-2.47V770H1445v7.41l3.31-3.91h2.62l-3.26,3.66,3.55,5.73h-2.66" data-name="eX"/>
 </g>
 <g id="ae">
  <path class="cls-2" d="M1282.38,797.38c0-1.44-3.45-1.68-3.5-.2.74,2.27,5.82.34,5.87,4.25,0,4.09-8.1,3.75-8.49.44l2.12-.35c.2.94,1,1.24,2.18,1.24,1.63.39,2.81-1.48,1.18-2-2.12-.69-5-.54-5.14-3.26-.09-4,7.61-3.65,8-.34" data-name="fo"/>
  <path class="cls-2" d="M1288.8,798c0,2.62,1,4.29,3.61,4.34a3.25,3.25,0,0,0,3.21-2.32l2.22.84a5.37,5.37,0,0,1-5.43,3.51c-4.05,0-5.93-2.27-6.18-6.37-.34-5.43,5.39-7.71,9.68-5.29a4.23,4.23,0,0,1,1.78,2.47l-2.27.6a3,3,0,0,0-3.06-2c-2.57,0-3.51,1.68-3.56,4.25" data-name="fm"/>
  <path class="cls-2" d="M1309.15,796.44c-2.62.44-1.38,4.94-1.68,7.75h-2.42v-5.28c0-1.34-.25-2.42-1.43-2.47-2.62.49-1.34,4.94-1.63,7.75h-2.47l0-9.38h2.32a10.9,10.9,0,0,0,.15,1.87c.49-2.61,5-2.76,5.33,0,.64-1.08,1.19-2.12,2.92-2.07,4,0,2.51,5.73,2.81,9.58h-2.42v-5.28c0-1.24-.25-2.37-1.43-2.47" data-name="fw"/>
  <path class="cls-2" d="m1318.4 794.61a3 3 0 0 1 2.87 1.68v-5h2.47v12.89h-2.38a13.34 13.34 0 0 0-0.14-1.53 3 3 0 0 1-3 1.73c-2.56 0-3.35-2.22-3.4-4.89s0.92-4.78 3.58-4.88zm0.84 8.1c1.63 0 2-1.48 2-3.26s-0.45-3.16-2-3.16-1.88 1.48-1.92 3.21c0 2.12 0.64 3.21 1.92 3.21" data-name="fx"/>
  <path class="cls-2" d="m1332.2 804.19h-2.62l-4.54-12.25h2.72l3.16 10.18c0.84-3.56 2.07-6.77 3.11-10.18h2.66" data-name="fC"/>
  <path class="cls-2" d="M1344.9,801.82a4,4,0,0,1-4.05,2.57c-3-.1-4.39-1.83-4.39-4.94s1.48-4.84,4.44-4.84,4.1,2.22,4.15,5.33h-6c0,1.53.4,2.72,1.93,2.77a1.52,1.52,0,0,0,1.68-1.09Zm-2.22-3.41c.25-2.27-2.82-3.11-3.46-1a3.14,3.14,0,0,0-.2,1h3.66" data-name="fp"/>
  <path class="cls-2" d="M1352.31,796.78c-1.93-.59-3,.65-3,2.82v4.59h-2.47l-.05-9.38h2.32a12.13,12.13,0,0,0,.15,2c.29-1.38,1.33-2.61,3-2v2" data-name="eZ"/>
  <path class="cls-2" d="m1353.8 793.13v-1.83h2.47v1.83zm0 11.06v-9.38h2.47v9.38h-2.47" data-name="fA"/>
  <path class="cls-2" d="M1363.47,793c-1.33-.35-2.12.25-1.88,1.78h1.88v1.63h-1.88v7.75h-2.42v-7.75h-1.38v-1.63h1.38c-.44-2.92,1.58-4,4.3-3.36V793" data-name="eW"/>
  <path class="cls-2" d="M1369.44,804.68c-.74,2.13-2.12,3.76-5.13,3.07V806a2.21,2.21,0,0,0,2.91-1.93l-3.7-9.28h2.57l2.37,7.31c.59-2.57,1.38-4.94,2.17-7.31h2.52" data-name="fr"/>
  <path class="cls-2" d="m1373.4 804.54 2.56-13.24h2l-2.52 13.24h-2.08" data-name="fg"/>
  <path class="cls-2" d="M1385,797.38c0-1.44-3.46-1.68-3.51-.2.75,2.27,5.83.34,5.88,4.25,0,4.09-8.1,3.75-8.49.44l2.12-.35c.2.94,1,1.24,2.17,1.24,1.63.39,2.82-1.48,1.19-2-2.12-.69-5-.54-5.14-3.26-.1-4,7.61-3.65,7.95-.34" data-name="fo"/>
  <path class="cls-2" d="M1391.37,798c0,2.62,1,4.29,3.61,4.34a3.25,3.25,0,0,0,3.21-2.32l2.22.84a5.37,5.37,0,0,1-5.43,3.51c-4,0-5.93-2.27-6.18-6.37-.34-5.43,5.39-7.71,9.68-5.29a4.27,4.27,0,0,1,1.78,2.47l-2.27.6a3,3,0,0,0-3.06-2c-2.57,0-3.51,1.68-3.56,4.25" data-name="fm"/>
  <path class="cls-2" d="M1411.72,796.44c-2.62.44-1.39,4.94-1.68,7.75h-2.42v-5.28c.05-1.34-.25-2.42-1.43-2.47-2.62.49-1.34,4.94-1.63,7.75h-2.47l0-9.38h2.32a10.9,10.9,0,0,0,.15,1.87c.49-2.61,5-2.76,5.33,0,.64-1.08,1.18-2.12,2.91-2.07,4,0,2.52,5.73,2.82,9.58h-2.42v-5.28c-.05-1.24-.25-2.37-1.43-2.47" data-name="fw"/>
  <path class="cls-2" d="m1421 794.61a3 3 0 0 1 2.86 1.68v-5h2.47v12.89h-2.33a13.22 13.22 0 0 0-0.15-1.53 2.94 2.94 0 0 1-3 1.73c-2.57 0-3.36-2.22-3.41-4.89s0.89-4.78 3.56-4.88zm0.84 8.1c1.63 0 2-1.48 2-3.26s-0.44-3.16-2-3.16-1.88 1.48-1.93 3.21c0 2.12 0.65 3.21 1.93 3.21" data-name="fx"/>
  <path class="cls-2" d="m1428.6 804.19v-12.25h9.63v2h-7.06v3.06h6.52v2h-6.52v3.21h7.41v2h-10" data-name="fy"/>
  <path class="cls-2" d="M1446,796.78c-1.93-.59-3,.65-3,2.82v4.59h-2.46l0-9.38h2.32a12.13,12.13,0,0,0,.15,2c.29-1.38,1.33-2.61,3-2v2" data-name="eZ"/>
  <path class="cls-2" d="M1452.9,796.78c-1.92-.59-3,.65-3,2.82v4.59h-2.47l0-9.38h2.32a12.13,12.13,0,0,0,.15,2c.3-1.38,1.33-2.61,3-2v2" data-name="eZ"/>
  <path class="cls-2" d="m1458.6 794.61c3.16 0 4.74 1.78 4.74 4.89s-1.73 4.89-4.79 4.89-4.69-1.78-4.69-4.89 1.68-4.89 4.74-4.89zm0 8.1c1.73 0 2.22-1.38 2.22-3.21s-0.49-3.21-2.12-3.21-2.22 1.28-2.22 3.21 0.49 3.21 2.12 3.21" data-name="fa"/>
  <path class="cls-2" d="M1470.63,796.78c-1.93-.59-3,.65-3,2.82v4.59h-2.47l0-9.38h2.32a12.13,12.13,0,0,0,.15,2c.29-1.38,1.33-2.61,3-2v2" data-name="eZ"/>
 </g>
 <path class="cls-8" d="M1114.5,32.42a.76.76,0,0,1,.75.75v717a.75.75,0,1,1-1.5,0v-717A.75.75,0,0,1,1114.5,32.42Z"/>
 <path class="cls-9" d="M420,17.67a6,6,0,0,1,6-6H654a6,6,0,0,1,6,6V61.93a6,6,0,0,1-6,6H426a6,6,0,0,1-6-6Z"/>
 <g data-name="aE">
  <path class="cls-2" d="M456.69,29.46v6.65h11v3.46h-11v7.86H452.2V26H468v3.46H456.69" data-name="fE"/>
  <path id="eS" class="cls-2" d="M484.17,47.43l-9.33-16.51c.52,5,.17,11.07.26,16.51h-4V26h5.1l9.51,16.68c-.52-5-.17-11.15-.26-16.68h4V47.43h-5.27"/>
  <path class="cls-2" d="M508.63,47.43,506.73,42H498.6l-1.9,5.44h-4.49L500,26h5.27L513,47.43Zm-2.85-8.81-3.11-9.34c-.87,3.29-2.08,6.22-3.11,9.34h6.22" data-name="ft"/>
  <path class="cls-2" d="M531,47.43,529.11,42H521l-1.9,5.44h-4.5L522.37,26h5.27l7.78,21.43Zm-2.85-8.81-3.11-9.34c-.86,3.29-2.07,6.22-3.11,9.34h6.22" data-name="ft"/>
 </g>
 <g id="aF">
  <path class="cls-2" d="M549.51,36.63c0,4.58,1.81,7.52,6.3,7.6,3.2.09,4.67-1.9,5.62-4.06l3.89,1.47c-1.47,3.63-4.41,6.14-9.51,6.14-7.08,0-10.37-4-10.8-11.15-.6-9.51,9.42-13.48,16.94-9.25a7.35,7.35,0,0,1,3.11,4.32l-4,1c-.69-2.16-2.6-3.54-5.36-3.54-4.5,0-6.14,2.93-6.22,7.43" data-name="fm"/>
  <path class="cls-2" d="M568.26,47.43V24.87h4.32V47.43h-4.32" data-name="fd"/>
  <path class="cls-2" d="M576.9,28.07v-3.2h4.32v3.2Zm0,19.36V31h4.32V47.43H576.9" data-name="fA"/>
  <path class="cls-2" d="M599.37,43.28a7,7,0,0,1-7.09,4.5c-5.18-.18-7.69-3.2-7.69-8.65s2.6-8.46,7.78-8.46c5.36,0,7.17,3.88,7.26,9.33H589.09c0,2.68.69,4.75,3.37,4.84,1.55,0,2.59-.61,2.94-1.9Zm-3.89-6c.43-4-4.92-5.45-6.05-1.82a5.78,5.78,0,0,0-.34,1.82h6.39" data-name="fp"/>
  <path class="cls-2" d="M612.33,30.67c7.52-.09,5,9.76,5.45,16.76h-4.32c-.61-4.93,2-13.57-2.94-13.57-5.1,0-2.94,8.39-3.37,13.57h-4.32L602.74,31h4.06c.18,1-.08,2.42.26,3.28,1-2.24,2.42-3.54,5.27-3.62" data-name="fn"/>
  <path class="cls-2" d="M629.53,47.17c-3.11,1.21-7.52.61-7.52-3.63V33.86h-2.07V31h2.33l1.3-3.89h2.68V31h3.11v2.85h-3.11v8.56c-.09,2,1.38,2.68,3.28,2.16v2.59" data-name="fb"/>
 </g>
 <path class="cls-9" d="m1537 17.67a6 6 0 0 1 6-6h228a6 6 0 0 1 6 6v44.26a6 6 0 0 1-6 6h-228a6 6 0 0 1-6-6z"/>
 <g data-name="aE">
  <path class="cls-2" d="M1568.38,29.46v6.65h11v3.46h-11v7.86h-4.5V26h15.82v3.46h-11.32" data-name="fE"/>
  <path class="cls-2" d="M1595.86,47.43l-9.34-16.51c.52,5,.18,11.07.26,16.51h-4V26h5.1l9.5,16.68c-.51-5-.17-11.15-.26-16.68h4V47.43h-5.27" data-name="eS"/>
  <path class="cls-2" d="m1620.3 47.43-1.9-5.44h-8.12l-1.9 5.44h-4.49l7.77-21.43h5.27l7.78 21.43zm-2.85-8.81-3.11-9.34c-0.86 3.29-2.07 6.22-3.11 9.34h6.22" data-name="ft"/>
  <path class="cls-2" d="m1642.7 47.43-1.9-5.43h-8.13l-1.9 5.44h-4.49l7.78-21.44h5.27l7.77 21.43zm-2.85-8.81-3.12-9.34c-0.86 3.29-2.07 6.22-3.11 9.34h6.23" data-name="ft"/>
 </g>
 <g id="aG">
  <path class="cls-2" d="M1670,31.7c-.09-3.71-8.13-4-8.39-.26,1.56,5.71,13.05.87,13.31,9.85.26,8.21-14.26,8-17.63,3.12a6.32,6.32,0,0,1-1-2.6l4.32-.69c.26,4,9.68,4.84,10,.43-1.47-6-13-.86-13.31-9.85-.34-7.52,13.22-7.6,16.25-3a7.26,7.26,0,0,1,.86,2.42" data-name="eT"/>
  <path class="cls-2" d="M1692.13,43.28a7,7,0,0,1-7.09,4.5c-5.18-.18-7.69-3.2-7.69-8.65s2.59-8.46,7.78-8.46c5.36,0,7.17,3.88,7.26,9.33h-10.54c0,2.68.69,4.75,3.37,4.84,1.55,0,2.59-.61,2.93-1.9Zm-3.89-6c.43-4-4.93-5.45-6-1.82a5.78,5.78,0,0,0-.34,1.82h6.39" data-name="fp"/>
  <path class="cls-2" d="M1705.09,34.47c-3.37-1-5.18,1.12-5.18,4.92v8h-4.32L1695.5,31h4.06c.17,1.12-.08,2.51.26,3.46.52-2.42,2.33-4.58,5.27-3.55v3.55" data-name="eZ"/>
  <path id="fK" class="cls-2" d="m1716.6 47.43h-5.1l-5.88-16.43h4.58l3.89 13 4.15-13h4.49"/>
  <path class="cls-2" d="M1738.8,43.28a7,7,0,0,1-7.09,4.5c-5.19-.18-7.69-3.2-7.69-8.65s2.59-8.46,7.78-8.46c5.35,0,7.17,3.88,7.26,9.33h-10.55c0,2.68.69,4.75,3.37,4.84,1.56,0,2.6-.61,2.94-1.9Zm-3.89-6c.43-4-4.93-5.45-6.05-1.82a5.77,5.77,0,0,0-.35,1.82h6.4" data-name="fp"/>
  <path class="cls-2" d="M1751.76,34.47c-3.37-1-5.19,1.12-5.19,4.92v8h-4.32L1742.17,31h4.06c.17,1.12-.09,2.51.26,3.46.52-2.42,2.33-4.58,5.27-3.55v3.55" data-name="eZ"/>
 </g>
</svg>
