<?xml version="1.0" encoding="UTF-8"?>
<svg data-name="Layer 1" version="1.1" viewBox="0 0 545.66 613.17" xmlns="http://www.w3.org/2000/svg">
 <title>Figure7</title>
 <defs>
  <style>.cls-1,.cls-7{fill:#fff;}.cls-1,.cls-3,.cls-4,.cls-6{stroke:#5e5f5f;}.cls-1,.cls-3,.cls-7{stroke-width:3px;}.cls-2{fill:#333;}.cls-3,.cls-4{fill:none;}.cls-4,.cls-6{stroke-width:2px;}.cls-5,.cls-6{fill:#5e5f5f;}.cls-7{fill-opacity:0;stroke:#010101;stroke-opacity:0;}</style>
 </defs>
 <path class="cls-1" d="M143.06,84.05a6,6,0,0,1,6-6H396.6a6,6,0,0,1,6,6v91.82a6,6,0,0,1-6,6H149.06a6,6,0,0,1-6-6Z"/>
 <g id="ea">
  <path id="fH" class="cls-2" d="M190.36,108.21c2.38.34,4.14,1.56,4.14,4.14,0,5.91-7.2,4.62-13,4.76V100.27c5.16.2,12-1.16,12,4.07A3.72,3.72,0,0,1,190.36,108.21Zm-6.59-.74c3.4-.07,7.47.61,7.47-2.86,0-3.19-4.27-2.44-7.47-2.51Zm0,7.8c3.74-.13,8.42,1,8.42-3,0-3.8-4.75-2.85-8.42-3v6"/>
  <path id="fl" class="cls-2" d="M203.53,106c-5.29-1.09-3.6,6.18-3.87,11.07h-2.17l-.07-12.9h2a17,17,0,0,0,.13,2.64c.41-1.83,1.57-3.32,3.94-2.78v2"/>
  <path id="fp" class="cls-2" d="m205.5 101.42v-2h2.18v2zm0 15.69v-12.9h2.18v12.9h-2.18"/>
  <path id="fB" class="cls-2" d="m215 103.93a4.29 4.29 0 0 1 4.07 2.25l-0.07-6.79h2.18l0.07 17.72h-2a18.14 18.14 0 0 0-0.25-2.11c-0.67 1.56-1.9 2.38-4 2.38-3.6 0-4.69-2.65-4.75-6.66 0.01-4.48 1.57-6.79 4.75-6.79zm0.61 1.63c-2.72 0-3.12 2.31-3.12 5.1s0.4 5 3.05 5c2.85 0 3.46-2.17 3.46-5.16s-0.61-5-3.39-5"/>
  <path id="fz" class="cls-2" d="M234.84,104.21c-.68,8.48,2.78,19.89-7.47,17.72a3.87,3.87,0,0,1-3-2.92l2.17-.34c1,3.19,6.79,2.17,6-1.9v-2a4.28,4.28,0,0,1-4.14,2.45c-3.66,0-4.61-2.79-4.61-6.52s1.08-6.59,4.82-6.66a4.34,4.34,0,0,1,4,2.38,21.2,21.2,0,0,1,.14-2.17Zm-5.64,11.4c2.44,0,3.39-2.17,3.39-5s-1-5.1-3.39-5.1c-2.65,0-3.12,2.31-3.12,5.1s.4,5,3.12,5"/>
  <path class="cls-2" d="m243.19 103.93c4.28 0 5.84 2.86 5.7 7.2h-9.17c0 2.72 1 4.55 3.6 4.62a3.16 3.16 0 0 0 3.33-2l1.9 0.54c-0.75 1.9-2.51 3.06-5.23 3.06-3.94 0-6-2.51-5.9-6.79s1.76-6.63 5.77-6.63zm3.53 5.5c0.41-4.07-5.16-5.22-6.59-1.9a5 5 0 0 0-0.41 1.9h7" data-name="fh"/>
 </g>
 <g id="eb">
  <path id="fn" class="cls-2" d="M258.8,100.27c5.91.07,13-1,13,5.09,0,5.3-5.22,5.43-10.72,5.16v6.59H258.8Zm2.25,8.49c3.87,0,8.42.74,8.42-3.4s-4.62-3.19-8.42-3.26v6.66"/>
  <path class="cls-2" d="M280.8,106c-5.29-1.09-3.59,6.18-3.87,11.07h-2.17l-.07-12.9h2a15.83,15.83,0,0,0,.14,2.64c.4-1.83,1.56-3.32,3.93-2.78v2" data-name="fl"/>
  <path id="fk" class="cls-2" d="m287.93 103.93c4.21-0.06 5.78 2.52 5.78 6.73s-1.84 6.72-5.84 6.72-5.64-2.65-5.71-6.72c0-4.48 1.9-6.73 5.77-6.73zm-0.06 11.82c3 0.07 3.6-2.11 3.6-5.09s-0.55-5.1-3.47-5.1-3.6 2.18-3.6 5.1 0.68 5 3.47 5.09"/>
  <path id="fq" class="cls-2" d="M301.24,105.63c-2.71,0-3.26,2.24-3.26,5s.61,5.09,3.26,5.09a2.7,2.7,0,0,0,2.92-2.58l2.18.14a4.66,4.66,0,0,1-5,4.14c-4,0-5.16-2.78-5.57-6.72-.68-6.32,6.86-8.9,10-4.35a5.41,5.41,0,0,1,.48,1.49L304,108a2.6,2.6,0,0,0-2.79-2.38"/>
  <path class="cls-2" d="m313.74 103.93c4.27 0 5.84 2.86 5.7 7.2h-9.17c0 2.72 1 4.55 3.6 4.62a3.16 3.16 0 0 0 3.33-2l1.9 0.54c-0.75 1.9-2.51 3.06-5.23 3.06-3.94 0-6-2.51-5.9-6.79s1.76-6.63 5.77-6.63zm3.53 5.5c0.4-4.07-5.16-5.22-6.59-1.9a5 5 0 0 0-0.41 1.9h7" data-name="fh"/>
  <path id="fv" class="cls-2" d="M329.69,107.4c-.2-2.31-5.84-2.58-5.9,0,1,3.6,7.8.81,8.08,6.11s-10.19,5-10.66.54l1.9-.34c.27,2.45,6.58,3.06,6.65,0-.68-3.8-7.67-1-8-6.11-.27-3.87,5.57-4.28,8.28-2.85a3.37,3.37,0,0,1,1.63,2.38"/>
  <path class="cls-2" d="M341.92,107.4c-.21-2.31-5.84-2.58-5.91,0,1,3.6,7.81.81,8.08,6.11s-10.19,5-10.66.54l1.9-.34c.27,2.45,6.59,3.06,6.65,0-.68-3.8-7.67-1-8-6.11-.27-3.87,5.57-4.28,8.29-2.85a3.39,3.39,0,0,1,1.62,2.38" data-name="fv"/>
  <path class="cls-2" d="m351.76 103.93c4.21-0.06 5.77 2.52 5.77 6.73s-1.83 6.72-5.84 6.72-5.63-2.65-5.7-6.72c0.01-4.48 1.9-6.73 5.77-6.73zm-0.07 11.82c3 0.07 3.6-2.11 3.6-5.09s-0.54-5.1-3.46-5.1-3.6 2.18-3.6 5.1 0.68 5 3.46 5.09" data-name="fk"/>
  <path class="cls-2" d="M366.29,106c-5.29-1.09-3.6,6.18-3.87,11.07h-2.17l-.07-12.9h2a17,17,0,0,0,.13,2.64c.41-1.83,1.57-3.32,3.94-2.78v2" data-name="fl"/>
 </g>
 <g id="ec">
  <path id="gN" class="cls-2" d="m179.67 129.82v9.51h-1.47v-9.51h-3.68v-1.21h8.82v1.21h-3.67"/>
  <path class="cls-2" d="M188,132.29c-3.37-.69-2.29,3.93-2.47,7h-1.38l0-8.21h1.29a11.14,11.14,0,0,0,.09,1.68A2,2,0,0,1,188,131v1.26" data-name="fl"/>
  <path id="fo" class="cls-2" d="M194.31,137.77a3.18,3.18,0,0,1-2.93,1.73,2.3,2.3,0,0,1-2.51-2.46c0-2.77,2.72-2.72,5.4-2.72.13-1.52-.39-2.34-1.77-2.34-1,.05-1.77.31-1.82,1.34l-1.42-.13c.21-1.59,1.42-2.24,3.28-2.24s3.11.86,3.11,2.76v3.55c0,.86.31,1.38,1.21,1.16v.87C195.52,139.68,194.23,139.2,194.31,137.77Zm-4-.73a1.31,1.31,0,0,0,1.38,1.43c1.77-.13,2.72-1.26,2.59-3.2-1.86.08-4-.22-4,1.77"/>
  <path id="fs" class="cls-2" d="M201.92,131c3.84-.18,2.29,5,2.59,8.38h-1.38V134.1c0-1.34-.35-2.12-1.69-2.07-3.11.08-1.9,4.4-2.11,7.3h-1.39l0-8.21h1.3a6.7,6.7,0,0,0,.08,1.38,2.74,2.74,0,0,1,2.64-1.55"/>
  <path class="cls-2" d="M211.34,133.15c-.13-1.47-3.72-1.64-3.76,0,.65,2.29,5,.52,5.14,3.89s-6.48,3.2-6.78.35l1.21-.22c.17,1.55,4.19,1.94,4.23,0-.43-2.42-4.88-.65-5.1-3.89-.17-2.46,3.55-2.72,5.27-1.81a2.16,2.16,0,0,1,1,1.51" data-name="fv"/>
  <path class="cls-2" d="M217.43,132c-1.73,0-2.07,1.42-2.07,3.15s.39,3.24,2.07,3.24a1.72,1.72,0,0,0,1.86-1.64l1.38.09a3,3,0,0,1-3.2,2.63c-2.54,0-3.28-1.77-3.54-4.28-.43-4,4.37-5.66,6.35-2.76a3.31,3.31,0,0,1,.31.95l-1.39.13a1.65,1.65,0,0,0-1.77-1.51" data-name="fq"/>
  <path class="cls-2" d="M226,132.29c-3.37-.69-2.29,3.93-2.47,7h-1.38l0-8.21h1.29a11.14,11.14,0,0,0,.09,1.68A2,2,0,0,1,226,131v1.26" data-name="fl"/>
  <path class="cls-2" d="m227.24 129.35v-1.3h1.38v1.3zm0 10v-8.21h1.38v8.21h-1.38" data-name="fp"/>
  <path class="cls-2" d="M234.59,131c2.29,0,3,1.68,3,4.23,0,2.85-1,4.32-3,4.32A2.48,2.48,0,0,1,232,138l-.09,1.3h-1.34l0-11.28H232v4.37A2.42,2.42,0,0,1,234.59,131Zm-.35,7.52c1.73,0,1.94-1.47,1.94-3.25S236,132,234.24,132s-2.2,1.38-2.2,3.28.43,3.16,2.2,3.16" data-name="fQ"/>
  <path class="cls-2" d="M242.58,131c2.72,0,3.72,1.81,3.63,4.58h-5.83c0,1.73.6,2.89,2.29,2.94a2,2,0,0,0,2.11-1.26l1.21.35a3.24,3.24,0,0,1-3.32,1.94c-2.51,0-3.81-1.6-3.76-4.32S240,131,242.58,131Zm2.25,3.5a2.22,2.22,0,0,0-4.19-1.21,3.1,3.1,0,0,0-.26,1.21h4.45" data-name="fh"/>
  <path class="cls-2" d="M252.73,133.15c-.13-1.47-3.71-1.64-3.76,0,.65,2.29,5,.52,5.15,3.89s-6.48,3.2-6.79.35l1.21-.22c.18,1.55,4.19,1.94,4.24,0-.44-2.42-4.89-.65-5.1-3.89-.17-2.46,3.54-2.72,5.27-1.81a2.16,2.16,0,0,1,1,1.51" data-name="fv"/>
 </g>
 <g id="ed">
  <path class="cls-2" d="M260.17,139.33v-1.17h2.76V130l-2.42,1.69v-1.25l2.51-1.78h1.25v9.55h2.64v1.17h-6.74" data-name="fS"/>
 </g>
 <g id="ee">
  <path id="fx" class="cls-2" d="M274.68,129.82v4h6V135h-6v4.32h-1.42V128.61h7.56v1.21h-6.14"/>
  <path id="fy" class="cls-2" d="m282.46 139.33v-11.28h1.38v11.28h-1.38"/>
  <path class="cls-2" d="m289.16 131c2.68 0 3.67 1.6 3.67 4.27s-1.16 4.28-3.71 4.28-3.59-1.68-3.63-4.28c0-2.9 1.21-4.27 3.67-4.27zm0 7.52c1.9 0 2.29-1.34 2.29-3.25s-0.35-3.24-2.21-3.24-2.29 1.39-2.29 3.24 0.43 3.2 2.21 3.25" data-name="fk"/>
  <path id="fj" class="cls-2" d="m302.38 139.33h-1.55l-1.73-7.09-1.77 7.09h-1.56l-2.33-8.21h1.38l1.69 7.09 1.85-7.09h1.47l1.77 7.09 1.82-7.09h1.34"/>
 </g>
 <g id="ef">
  <path id="fi" class="cls-2" d="M311.54,137.3c-.08,1,.78,1.25,1.64.95v1c-1.42.43-3,.21-3-1.69v-5.49h-1v-1h1l.39-1.86h.9v1.86h1.51v1h-1.51v5.19"/>
  <path class="cls-2" d="m317.64 131c2.67 0 3.67 1.6 3.67 4.27s-1.17 4.28-3.72 4.28-3.58-1.68-3.63-4.28c0.04-2.9 1.21-4.27 3.68-4.27zm-0.05 7.52c1.9 0 2.29-1.34 2.29-3.25s-0.34-3.24-2.2-3.24-2.29 1.39-2.29 3.24 0.43 3.2 2.2 3.25" data-name="fk"/>
 </g>
 <g data-name="ed">
  <path class="cls-2" d="M327.44,139.33v-1.17h2.77V130l-2.42,1.69v-1.25l2.51-1.78h1.25v9.55h2.63v1.17h-6.74" data-name="fS"/>
 </g>
 <g id="eg">
  <path class="cls-2" d="M342,129.82v4h6V135h-6v4.32h-1.42V128.61h7.56v1.21H342" data-name="fx"/>
  <path class="cls-2" d="m349.74 139.33v-11.28h1.38v11.28h-1.38" data-name="fy"/>
  <path class="cls-2" d="m356.44 131c2.68 0 3.67 1.6 3.67 4.27s-1.17 4.28-3.72 4.28-3.58-1.68-3.63-4.28c0-2.9 1.24-4.27 3.68-4.27zm-0.05 7.52c1.91 0 2.29-1.34 2.29-3.25s-0.34-3.24-2.2-3.24-2.29 1.39-2.29 3.24 0.43 3.2 2.2 3.25" data-name="fk"/>
  <path class="cls-2" d="m369.66 139.33h-1.56l-1.72-7.09-1.78 7.09h-1.55l-2.33-8.21h1.38l1.68 7.09 1.86-7.09h1.47l1.77 7.09 1.82-7.09h1.3" data-name="fj"/>
 </g>
 <g id="eh">
  <path id="gO" class="cls-2" d="m260.88 161.24a10.78 10.78 0 0 1 0-14.52h1.34a10.9 10.9 0 0 0 0 14.52h-1.34"/>
  <path class="cls-2" d="M263.43,158v-1.17h2.76v-8.21l-2.42,1.68v-1.25l2.51-1.77h1.25v9.55h2.64V158h-6.74" data-name="fS"/>
  <path id="gP" class="cls-2" d="M272.33,151.34v-1.55h1.47v1.55Zm0,6.66v-1.56h1.47V158h-1.47"/>
  <path class="cls-2" d="M276.39,158v-1.17h2.77v-8.21l-2.42,1.68v-1.25l2.5-1.77h1.26v9.55h2.63V158h-6.74" data-name="fS"/>
  <path id="gQ" class="cls-2" d="M285.29,146.72a10.78,10.78,0,0,1,0,14.52H284a10.9,10.9,0,0,0,0-14.52h1.34"/>
 </g>
 <path class="cls-1" d="M143.06,206.74a6,6,0,0,1,6-6H396.6a6,6,0,0,1,6,6V336.3a6,6,0,0,1-6,6H149.06a6,6,0,0,1-6-6Z"/>
 <g id="ei">
  <path id="fC" class="cls-2" d="M181.06,242.27c-.68-1.9-2.38-3.06-5-3.06-4,0-5.91,2.72-5.91,6.72s2,6.86,6.05,6.86c2.92,0,4.21-1.63,5.29-3.53l1.84,1a7.49,7.49,0,0,1-7.27,4.48c-5.43,0-7.94-3.39-8.22-8.76-.4-7.06,6.73-10.39,12.7-7.53a5.48,5.48,0,0,1,2.65,3.12"/>
  <path class="cls-2" d="m191 241.25c4.21-0.07 5.77 2.51 5.77 6.72s-1.83 6.72-5.84 6.72-5.63-2.65-5.7-6.72c0.04-4.48 1.94-6.72 5.77-6.72zm0 11.81c3 0.07 3.6-2.1 3.6-5.09s-0.54-5.09-3.46-5.09-3.6 2.17-3.6 5.09 0.68 5 3.46 5.09" data-name="fk"/>
  <path class="cls-2" d="M199.46,254.42V236.7h2.17v17.72h-2.17" data-name="fy"/>
  <path class="cls-2" d="M204.82,254.42V236.7H207v17.72h-2.18" data-name="fy"/>
  <path class="cls-2" d="m215.35 241.25c4.28 0 5.84 2.85 5.7 7.2h-9.17c0 2.71 1 4.55 3.6 4.61a3.15 3.15 0 0 0 3.33-2l1.9 0.55c-0.74 1.9-2.51 3.05-5.23 3.05-3.93 0-6-2.51-5.9-6.79s1.76-6.62 5.77-6.62zm3.53 5.5c0.41-4.08-5.16-5.23-6.59-1.9a5 5 0 0 0-0.41 1.9h7" data-name="fh"/>
  <path class="cls-2" d="M228.66,243c-2.72,0-3.26,2.24-3.26,5s.61,5.1,3.26,5.1a2.71,2.71,0,0,0,2.92-2.58l2.17.13a4.66,4.66,0,0,1-5,4.14c-4,0-5.16-2.78-5.56-6.72-.68-6.31,6.85-8.89,10-4.34a5.29,5.29,0,0,1,.47,1.49l-2.17.2a2.6,2.6,0,0,0-2.78-2.37" data-name="fq"/>
  <path class="cls-2" d="M238.37,251.23c-.14,1.63,1.22,2,2.58,1.49v1.63c-2.24.68-4.76.34-4.76-2.64v-8.63H234.7v-1.56h1.63l.61-2.92h1.43v2.92h2.37v1.56h-2.37v8.15" data-name="fi"/>
  <path class="cls-2" d="m247.94 241.25c4.21-0.07 5.77 2.51 5.77 6.72s-1.83 6.72-5.84 6.72-5.63-2.65-5.7-6.72c0-4.48 1.9-6.72 5.77-6.72zm-0.07 11.81c3 0.07 3.6-2.1 3.6-5.09s-0.54-5.09-3.46-5.09-3.6 2.17-3.6 5.09 0.68 5 3.46 5.09" data-name="fk"/>
  <path class="cls-2" d="M262.47,243.35c-5.3-1.08-3.6,6.18-3.87,11.07h-2.17l-.07-12.9h2a17.23,17.23,0,0,0,.13,2.65c.41-1.84,1.56-3.33,3.94-2.79v2" data-name="fl"/>
 </g>
 <g data-name="eb">
  <path class="cls-2" d="M271.64,237.58c5.91.07,13-1,13,5.09,0,5.3-5.23,5.44-10.73,5.16v6.59h-2.24Zm2.24,8.49c3.87,0,8.42.75,8.42-3.4,0-4-4.62-3.19-8.42-3.25v6.65" data-name="fn"/>
  <path class="cls-2" d="M293.64,243.35c-5.3-1.08-3.6,6.18-3.87,11.07h-2.18l-.06-12.9h2a17.18,17.18,0,0,0,.14,2.65c.41-1.84,1.56-3.33,3.94-2.79v2" data-name="fl"/>
  <path class="cls-2" d="m300.77 241.25c4.21-0.07 5.77 2.51 5.77 6.72s-1.83 6.72-5.84 6.72-5.64-2.69-5.7-6.69c0-4.51 1.9-6.75 5.77-6.75zm-0.07 11.81c3 0.07 3.6-2.1 3.6-5.09s-0.54-5.09-3.46-5.09-3.6 2.17-3.6 5.09 0.68 5 3.46 5.09" data-name="fk"/>
  <path class="cls-2" d="M314.08,243c-2.72,0-3.26,2.24-3.26,5s.61,5.1,3.26,5.1a2.71,2.71,0,0,0,2.92-2.58l2.17.13a4.66,4.66,0,0,1-5,4.14c-4,0-5.16-2.78-5.56-6.72-.68-6.31,6.85-8.89,10-4.34a5.29,5.29,0,0,1,.47,1.49l-2.17.2a2.6,2.6,0,0,0-2.78-2.37" data-name="fq"/>
  <path class="cls-2" d="m326.57 241.25c4.28 0 5.84 2.85 5.7 7.2h-9.16c0 2.71 0.95 4.55 3.6 4.61a3.14 3.14 0 0 0 3.32-2l1.9 0.55c-0.74 1.9-2.51 3.05-5.22 3.05-3.94 0-6-2.51-5.91-6.79s1.76-6.62 5.77-6.62zm3.53 5.5c0.41-4.08-5.16-5.23-6.59-1.9a5 5 0 0 0-0.4 1.9h7" data-name="fh"/>
  <path class="cls-2" d="M342.53,244.71c-.21-2.31-5.84-2.58-5.91,0,1,3.6,7.81.82,8.08,6.11s-10.19,5-10.66.55l1.9-.34c.27,2.44,6.59,3.05,6.65,0-.67-3.81-7.67-1-8-6.11-.27-3.88,5.57-4.28,8.29-2.86a3.46,3.46,0,0,1,1.63,2.38" data-name="fv"/>
  <path class="cls-2" d="M354.75,244.71c-.2-2.31-5.84-2.58-5.91,0,1,3.6,7.81.82,8.08,6.11s-10.18,5-10.66.55l1.9-.34c.27,2.44,6.59,3.05,6.66,0-.68-3.81-7.68-1-8-6.11-.27-3.88,5.57-4.28,8.29-2.86a3.46,3.46,0,0,1,1.63,2.38" data-name="fv"/>
  <path class="cls-2" d="m364.59 241.25c4.21-0.07 5.78 2.51 5.78 6.72s-1.84 6.72-5.84 6.72-5.64-2.65-5.71-6.72c0-4.48 1.9-6.72 5.77-6.72zm-0.06 11.81c3 0.07 3.6-2.1 3.6-5.09s-0.55-5.09-3.47-5.09-3.6 2.17-3.6 5.09 0.68 5 3.47 5.09" data-name="fk"/>
  <path class="cls-2" d="M379.13,243.35c-5.3-1.08-3.6,6.18-3.87,11.07h-2.18l-.07-12.9h2a16,16,0,0,0,.14,2.65c.4-1.84,1.56-3.33,3.94-2.79v2" data-name="fl"/>
 </g>
 <g id="ej">
  <path class="cls-2" d="M174.5,268.92v9.5H173v-9.5h-3.67v-1.21h8.82v1.21H174.5" data-name="gN"/>
  <path class="cls-2" d="M182.84,271.38c-3.37-.69-2.29,3.93-2.46,7H179l-.05-8.21h1.3a10.15,10.15,0,0,0,.09,1.69,2,2,0,0,1,2.5-1.77v1.25" data-name="fl"/>
  <path class="cls-2" d="M189.15,276.87a3.21,3.21,0,0,1-2.94,1.72,2.3,2.3,0,0,1-2.5-2.46c-.05-2.76,2.72-2.72,5.4-2.72.13-1.51-.39-2.33-1.77-2.33-1,0-1.78.3-1.82,1.34l-1.43-.13c.22-1.6,1.43-2.25,3.29-2.25s3.11.86,3.11,2.76v3.55c0,.86.3,1.38,1.21,1.16v.87C190.36,278.77,189.06,278.29,189.15,276.87Zm-4-.74a1.31,1.31,0,0,0,1.38,1.43c1.78-.13,2.73-1.26,2.6-3.2-1.86.09-4-.22-4,1.77" data-name="fo"/>
  <path class="cls-2" d="M196.76,270c3.84-.17,2.29,5,2.59,8.38H198v-5.23c0-1.34-.35-2.11-1.69-2.07-3.11.09-1.9,4.41-2.12,7.3h-1.38l0-8.21H194a7.44,7.44,0,0,0,.09,1.38,2.72,2.72,0,0,1,2.64-1.55" data-name="fs"/>
  <path class="cls-2" d="M206.18,272.24c-.13-1.47-3.72-1.64-3.76,0,.64,2.29,5,.52,5.14,3.89s-6.48,3.2-6.79.35l1.21-.22c.18,1.56,4.2,1.95,4.24,0-.43-2.42-4.88-.65-5.1-3.89-.17-2.46,3.54-2.72,5.27-1.81a2.16,2.16,0,0,1,1,1.51" data-name="fv"/>
  <path class="cls-2" d="M212.27,271.12c-1.73,0-2.08,1.42-2.08,3.15s.39,3.24,2.08,3.24a1.73,1.73,0,0,0,1.86-1.64l1.38.09a3,3,0,0,1-3.2,2.63c-2.55,0-3.28-1.77-3.54-4.27-.43-4,4.36-5.66,6.35-2.77a3.4,3.4,0,0,1,.3.95l-1.38.13a1.65,1.65,0,0,0-1.77-1.51" data-name="fq"/>
  <path class="cls-2" d="M220.82,271.38c-3.37-.69-2.29,3.93-2.46,7H217l0-8.21h1.3a10.15,10.15,0,0,0,.09,1.69c.26-1.17,1-2.12,2.5-1.77v1.25" data-name="fl"/>
  <path class="cls-2" d="m222.08 268.44v-1.3h1.38v1.3zm0 10v-8.21h1.38v8.21h-1.38" data-name="fp"/>
  <path class="cls-2" d="M229.42,270c2.29,0,3,1.68,3,4.23,0,2.86-1,4.32-3,4.32a2.48,2.48,0,0,1-2.55-1.46l-.08,1.29h-1.34l0-11.28h1.38v4.37A2.42,2.42,0,0,1,229.42,270Zm-.34,7.52c1.72,0,1.94-1.47,1.94-3.24s-.22-3.24-1.94-3.2-2.21,1.38-2.21,3.28.43,3.16,2.21,3.16" data-name="fQ"/>
  <path class="cls-2" d="M237.42,270c2.72,0,3.71,1.81,3.63,4.58h-5.84c0,1.73.61,2.89,2.29,2.94a2,2,0,0,0,2.12-1.26l1.21.35a3.25,3.25,0,0,1-3.33,1.94c-2.5,0-3.8-1.59-3.76-4.32S234.87,270,237.42,270Zm2.24,3.5a2.22,2.22,0,0,0-4.19-1.21,3.1,3.1,0,0,0-.26,1.21h4.45" data-name="fh"/>
  <path class="cls-2" d="M247.57,272.24c-.13-1.47-3.72-1.64-3.76,0,.65,2.29,5,.52,5.14,3.89s-6.48,3.2-6.78.35l1.21-.22c.17,1.56,4.19,1.95,4.23,0-.43-2.42-4.88-.65-5.1-3.89-.17-2.46,3.55-2.72,5.28-1.81a2.18,2.18,0,0,1,1,1.51" data-name="fv"/>
 </g>
 <g id="ek">
  <path id="fg" class="cls-2" d="m262.05 278.42-5.71-9.12v9.12h-1.25v-10.71h1.69l5.74 9.2-0.08-9.2h1.34v10.71h-1.77"/>
 </g>
 <g id="el">
  <path class="cls-2" d="m272.07 268.92v4h6v1.21h-6v4.32h-1.43v-10.74h7.57v1.21h-6.14" data-name="fx"/>
  <path class="cls-2" d="m279.85 278.42v-11.28h1.38v11.28h-1.38" data-name="fy"/>
  <path class="cls-2" d="m286.55 270c2.67 0 3.67 1.6 3.67 4.28s-1.17 4.27-3.72 4.27-3.58-1.68-3.63-4.27c0-2.82 1.21-4.28 3.68-4.28zm-0.05 7.52c1.9 0 2.29-1.34 2.29-3.24s-0.34-3.24-2.2-3.24-2.29 1.38-2.29 3.24 0.43 3.19 2.2 3.24" data-name="fk"/>
  <path class="cls-2" d="m299.77 278.42h-1.56l-1.73-7.09-1.77 7.09h-1.55l-2.34-8.21h1.39l1.68 7.09 1.86-7.09h1.47l1.78 7.09 1.81-7.09h1.34" data-name="fj"/>
  <path class="cls-2" d="M307.89,272.24c-.13-1.47-3.71-1.64-3.76,0,.65,2.29,5,.52,5.14,3.89s-6.48,3.2-6.78.35l1.21-.22c.17,1.56,4.19,1.95,4.23,0-.43-2.42-4.88-.65-5.09-3.89-.18-2.46,3.54-2.72,5.27-1.81a2.15,2.15,0,0,1,1,1.51" data-name="fv"/>
 </g>
 <g id="em">
  <path class="cls-2" d="M316.71,276.39c-.09,1,.77,1.25,1.64.95v1c-1.43.43-3,.21-3-1.69v-5.48h-.95v-1h1l.39-1.86h.91v1.86h1.51v1h-1.51v5.18" data-name="fi"/>
  <path class="cls-2" d="m322.8 270c2.68 0 3.67 1.6 3.67 4.28s-1.17 4.27-3.71 4.27-3.59-1.68-3.63-4.27c0-2.82 1.21-4.28 3.67-4.28zm0 7.52c1.9 0 2.29-1.34 2.29-3.24s-0.35-3.24-2.21-3.24-2.29 1.38-2.29 3.24 0.43 3.19 2.21 3.24" data-name="fk"/>
 </g>
 <g id="en">
  <path class="cls-2" d="M332.61,278.42v-1.17h2.76V269L333,270.73v-1.25l2.51-1.77h1.25v9.54h2.64v1.17h-6.74" data-name="fS"/>
 </g>
 <g id="eo">
  <path class="cls-2" d="m347.13 268.92v4h6v1.21h-6v4.32h-1.43v-10.74h7.56v1.21h-6.13" data-name="fx"/>
  <path class="cls-2" d="m354.9 278.42v-11.28h1.39v11.28h-1.39" data-name="fy"/>
  <path class="cls-2" d="m361.6 270c2.68 0 3.67 1.6 3.67 4.28s-1.16 4.27-3.71 4.27-3.59-1.68-3.63-4.27c0-2.82 1.21-4.28 3.67-4.28zm0 7.52c1.9 0 2.29-1.34 2.29-3.24s-0.35-3.24-2.21-3.24-2.29 1.38-2.29 3.24 0.44 3.19 2.21 3.24" data-name="fk"/>
  <path class="cls-2" d="m374.82 278.42h-1.55l-1.73-7.09-1.77 7.09h-1.56l-2.33-8.21h1.38l1.74 7.09 1.85-7.09h1.47l1.78 7.09 1.81-7.09h1.34" data-name="fj"/>
 </g>
 <g id="ep">
  <path class="cls-2" d="m257.68 303.46a12.32 12.32 0 0 1 0-16.59h1.53a12.47 12.47 0 0 0 0 16.59h-1.53" data-name="gO"/>
  <path class="cls-2" d="m268.64 299.75-6.51-10.42v10.42h-1.43v-12.24h1.93l6.61 10.49-0.1-10.52h1.53v12.24h-2" data-name="fg"/>
  <path class="cls-2" d="M273.68,292.15v-1.78h1.68v1.78Zm0,7.6V298h1.68v1.77h-1.68" data-name="gP"/>
  <path class="cls-2" d="m278.32 299.75v-1.33h3.16v-9.42l-2.76 2v-1.43l2.86-2h1.42v10.91h3v1.33h-7.71" data-name="fS"/>
  <path class="cls-2" d="M288.5,286.87a12.32,12.32,0,0,1,0,16.59H287a12.47,12.47,0,0,0,0-16.59h1.53" data-name="gQ"/>
 </g>
 <path class="cls-1" d="M143.06,362.47a6,6,0,0,1,6-6H396.6a6,6,0,0,1,6,6V463.71a6,6,0,0,1-6,6H149.06a6,6,0,0,1-6-6Z"/>
 <g id="eq">
  <path id="fM" class="cls-2" d="M161.26,382.43c8-.48,14.67.54,14.47,8.28-.21,5.3-2.92,8.56-8.22,8.56h-6.25Zm2.25,15c6,.55,9.91-1.08,9.91-6.72s-4.08-6.86-9.91-6.45v13.17"/>
  <path class="cls-2" d="m178.44 383.58v-2h2.18v2zm0 15.69v-12.9h2.18v12.9h-2.18" data-name="fp"/>
  <path class="cls-2" d="M191.34,389.56c-.2-2.31-5.83-2.58-5.9,0,1,3.6,7.81.81,8.08,6.11s-10.19,5-10.66.54l1.9-.34c.27,2.45,6.58,3.06,6.65,0-.68-3.8-7.67-1-8-6.11-.27-3.87,5.57-4.28,8.28-2.85a3.37,3.37,0,0,1,1.63,2.38" data-name="fv"/>
  <path class="cls-2" d="M198.41,396.08c-.14,1.63,1.22,2,2.58,1.49v1.63c-2.24.68-4.76.34-4.76-2.65v-8.62h-1.49v-1.56h1.63l.61-2.92h1.43v2.92h2.37v1.56h-2.37v8.15" data-name="fi"/>
  <path class="cls-2" d="M208.93,388.2c-5.3-1.09-3.6,6.18-3.87,11.07h-2.17l-.07-12.9h2A17.1,17.1,0,0,0,205,389c.41-1.83,1.56-3.32,3.94-2.78v2" data-name="fl"/>
  <path class="cls-2" d="m210.9 383.58v-2h2.17v2zm0 15.69v-12.9h2.17v12.9h-2.17" data-name="fp"/>
  <path class="cls-2" d="m222.44 386.09c3.6 0 4.69 2.65 4.76 6.66 0 4.48-1.57 6.79-4.76 6.79-2.1-0.07-3.32-0.75-4-2.31l-0.14 2h-2.1l0.06-17.73h2.18v6.86c0.68-1.52 1.9-2.27 4-2.27zm-0.54 11.82c2.72 0 3.06-2.31 3.06-5.09s-0.34-5.1-3.06-5-3.46 2.17-3.46 5.16 0.68 5 3.46 5" data-name="fQ"/>
  <path id="fw" class="cls-2" d="M233.92,399.54c-6,.27-3.67-7.88-4.14-13.17H232v8.14c0,2.11.48,3.4,2.65,3.33,4.89-.13,3.05-6.86,3.39-11.47h2.11l.07,12.9h-2A11.32,11.32,0,0,0,238,397a4.24,4.24,0,0,1-4.07,2.51"/>
  <path class="cls-2" d="M245.8,396.08c-.13,1.63,1.22,2,2.58,1.49v1.63c-2.24.68-4.75.34-4.75-2.65v-8.62h-1.5v-1.56h1.63l.62-2.92h1.42v2.92h2.38v1.56H245.8v8.15" data-name="fi"/>
  <path class="cls-2" d="m255.38 386.09c4.21-0.06 5.77 2.52 5.77 6.73s-1.84 6.72-5.84 6.72-5.64-2.65-5.71-6.72c0-4.49 1.91-6.73 5.78-6.73zm-0.07 11.82c3 0.07 3.6-2.11 3.6-5.09s-0.55-5.1-3.47-5.1-3.6 2.18-3.6 5.1 0.68 5 3.47 5.09" data-name="fk"/>
  <path class="cls-2" d="M269.91,388.2c-5.3-1.09-3.6,6.18-3.87,11.07h-2.18l-.06-12.9h2A15.89,15.89,0,0,0,266,389c.41-1.83,1.56-3.32,3.94-2.78v2" data-name="fl"/>
 </g>
 <g data-name="eb">
  <path class="cls-2" d="M279.07,382.43c5.91.07,13-1,13,5.09,0,5.3-5.23,5.43-10.73,5.16v6.59h-2.24Zm2.24,8.48c3.87,0,8.42.75,8.42-3.39s-4.61-3.19-8.42-3.26v6.65" data-name="fn"/>
  <path class="cls-2" d="M301.07,388.2c-5.29-1.09-3.6,6.18-3.87,11.07H295l-.07-12.9h2a17.1,17.1,0,0,0,.13,2.64c.41-1.83,1.57-3.32,3.94-2.78v2" data-name="fl"/>
  <path class="cls-2" d="m308.2 386.09c4.21-0.06 5.77 2.52 5.77 6.73s-1.83 6.72-5.84 6.72-5.63-2.65-5.7-6.72c0-4.49 1.9-6.73 5.77-6.73zm-0.07 11.82c3 0.07 3.6-2.11 3.6-5.09s-0.54-5.1-3.46-5.1-3.6 2.18-3.6 5.1 0.68 5 3.46 5.09" data-name="fk"/>
  <path class="cls-2" d="M321.51,387.79c-2.71,0-3.26,2.24-3.26,5s.61,5.09,3.26,5.09a2.7,2.7,0,0,0,2.92-2.58l2.17.14a4.65,4.65,0,0,1-5,4.14c-4,0-5.16-2.79-5.57-6.72-.68-6.32,6.86-8.9,10-4.35a5.77,5.77,0,0,1,.48,1.49l-2.17.21a2.61,2.61,0,0,0-2.79-2.38" data-name="fq"/>
  <path class="cls-2" d="M334,386.09c4.27,0,5.83,2.86,5.7,7.2h-9.17c0,2.72.95,4.55,3.6,4.62a3.16,3.16,0,0,0,3.33-2l1.9.54c-.75,1.9-2.51,3.06-5.23,3.06-3.94,0-6-2.51-5.91-6.79S330,386.09,334,386.09Zm3.53,5.5c.4-4.07-5.16-5.22-6.59-1.9a5,5,0,0,0-.41,1.9h7" data-name="fh"/>
  <path class="cls-2" d="M350,389.56c-.2-2.31-5.84-2.58-5.91,0,1,3.6,7.81.81,8.08,6.11s-10.18,5-10.66.54l1.91-.34c.27,2.45,6.58,3.06,6.65,0-.68-3.8-7.67-1-8-6.11-.27-3.87,5.57-4.28,8.28-2.85a3.37,3.37,0,0,1,1.63,2.38" data-name="fv"/>
  <path class="cls-2" d="M362.18,389.56c-.2-2.31-5.84-2.58-5.9,0,1,3.6,7.81.81,8.08,6.11s-10.19,5-10.66.54l1.9-.34c.27,2.45,6.58,3.06,6.65,0-.68-3.8-7.67-1-8-6.11-.27-3.87,5.57-4.28,8.28-2.85a3.37,3.37,0,0,1,1.63,2.38" data-name="fv"/>
  <path class="cls-2" d="m372 386.09c4.21-0.06 5.77 2.52 5.77 6.73s-1.83 6.72-5.84 6.72-5.63-2.65-5.7-6.72c0.03-4.49 1.93-6.73 5.77-6.73zm0 11.82c3 0.07 3.6-2.11 3.6-5.09s-0.54-5.1-3.46-5.1-3.6 2.18-3.6 5.1 0.68 5 3.46 5.09" data-name="fk"/>
  <path class="cls-2" d="M386.56,388.2c-5.3-1.09-3.6,6.18-3.87,11.07h-2.17l-.07-12.9h2a15.93,15.93,0,0,0,.13,2.64c.41-1.83,1.56-3.32,3.94-2.78v2" data-name="fl"/>
 </g>
 <g id="er">
  <path class="cls-2" d="M178.39,412v9.51h-1.47V412h-3.67v-1.21h8.81V412h-3.67" data-name="gN"/>
  <path class="cls-2" d="M186.73,414.45c-3.37-.7-2.29,3.93-2.46,7h-1.39l0-8.21h1.3a10,10,0,0,0,.08,1.68,2,2,0,0,1,2.51-1.77v1.26" data-name="fl"/>
  <path class="cls-2" d="M193,419.93a3.19,3.19,0,0,1-2.94,1.73,2.31,2.31,0,0,1-2.51-2.46c0-2.77,2.73-2.72,5.41-2.72.13-1.52-.39-2.34-1.78-2.34-1,.05-1.77.31-1.81,1.34l-1.43-.13c.22-1.6,1.43-2.24,3.29-2.24s3.11.86,3.11,2.76v3.54c0,.87.3,1.39,1.21,1.17v.87C194.25,421.83,193,421.36,193,419.93Zm-4-.73a1.3,1.3,0,0,0,1.38,1.42c1.77-.12,2.73-1.25,2.6-3.19-1.86.08-4-.22-4,1.77" data-name="fo"/>
  <path class="cls-2" d="M200.64,413.11c3.85-.18,2.29,5,2.6,8.38h-1.39v-5.23c0-1.34-.34-2.12-1.68-2.07-3.11.08-1.9,4.4-2.12,7.3h-1.38l0-8.21h1.29a7.44,7.44,0,0,0,.09,1.38,2.71,2.71,0,0,1,2.63-1.55" data-name="fs"/>
  <path class="cls-2" d="M210.06,415.31c-.13-1.47-3.71-1.64-3.76,0,.65,2.29,5,.52,5.15,3.89s-6.48,3.2-6.79.34l1.21-.21c.18,1.55,4.19,1.94,4.24,0-.44-2.42-4.89-.65-5.1-3.89-.17-2.46,3.54-2.72,5.27-1.82a2.21,2.21,0,0,1,1,1.52" data-name="fv"/>
  <path class="cls-2" d="M216.16,414.19c-1.73,0-2.08,1.42-2.08,3.15s.39,3.24,2.08,3.24a1.71,1.71,0,0,0,1.85-1.64l1.39.09a3,3,0,0,1-3.2,2.63c-2.55,0-3.28-1.77-3.54-4.28-.44-4,4.36-5.66,6.35-2.76a3.64,3.64,0,0,1,.3.95l-1.38.13a1.65,1.65,0,0,0-1.77-1.51" data-name="fq"/>
  <path class="cls-2" d="M224.71,414.45c-3.37-.7-2.29,3.93-2.46,7h-1.38l-.05-8.21h1.3a10,10,0,0,0,.09,1.68,2,2,0,0,1,2.5-1.77v1.26" data-name="fl"/>
  <path class="cls-2" d="M226,411.51v-1.3h1.38v1.3Zm0,10v-8.21h1.38v8.21H226" data-name="fp"/>
  <path class="cls-2" d="m233.31 413.11c2.29 0 3 1.68 3 4.23 0 2.85-1 4.32-3 4.32a2.48 2.48 0 0 1-2.55-1.47l-0.09 1.3h-1.33v-11.28h1.38v4.37a2.42 2.42 0 0 1 2.59-1.47zm-0.34 7.51c1.72 0 1.94-1.46 1.94-3.24s-0.22-3.24-1.94-3.19-2.21 1.38-2.21 3.28 0.43 3.15 2.21 3.15" data-name="fQ"/>
  <path class="cls-2" d="m241.3 413.11c2.73 0 3.72 1.81 3.63 4.58h-5.83c0 1.72 0.61 2.89 2.29 2.93a2 2 0 0 0 2.12-1.25l1.21 0.35a3.25 3.25 0 0 1-3.33 1.94c-2.51 0-3.8-1.6-3.76-4.32s1.13-4.23 3.67-4.23zm2.25 3.5a2.22 2.22 0 0 0-4.19-1.21 3.1 3.1 0 0 0-0.26 1.21h4.45" data-name="fh"/>
  <path class="cls-2" d="M251.46,415.31c-.13-1.47-3.72-1.64-3.76,0,.65,2.29,5,.52,5.14,3.89s-6.48,3.2-6.78.34l1.21-.21c.17,1.55,4.19,1.94,4.23,0-.43-2.42-4.88-.65-5.1-3.89-.17-2.46,3.55-2.72,5.27-1.82a2.21,2.21,0,0,1,1,1.52" data-name="fv"/>
 </g>
 <g id="es">
  <path class="cls-2" d="M258.89,421.49v-1.17h2.77v-8.21l-2.42,1.69v-1.26l2.5-1.77H263v9.55h2.63v1.17h-6.74" data-name="fS"/>
 </g>
 <g id="et">
  <path class="cls-2" d="M273.41,412v4h6v1.21h-6v4.32H272V410.77h7.57V412h-6.14" data-name="fx"/>
  <path class="cls-2" d="m281.19 421.49v-11.28h1.38v11.28h-1.38" data-name="fy"/>
  <path class="cls-2" d="m287.89 413.11c2.67-0.05 3.67 1.6 3.67 4.27s-1.17 4.28-3.72 4.28-3.58-1.68-3.63-4.28c0-2.85 1.21-4.27 3.68-4.27zm-0.05 7.51c1.9 0.05 2.29-1.33 2.29-3.24s-0.34-3.24-2.2-3.24-2.29 1.39-2.29 3.24 0.43 3.2 2.2 3.24" data-name="fk"/>
  <path class="cls-2" d="m301.11 421.49h-1.56l-1.73-7.09-1.77 7.09h-1.55l-2.34-8.21h1.39l1.68 7.09 1.86-7.09h1.47l1.77 7.09 1.81-7.09h1.34" data-name="fj"/>
 </g>
 <g id="eu">
  <path class="cls-2" d="M310.27,419.46c-.09,1,.78,1.25,1.64,1v1c-1.43.43-3,.21-3-1.69v-5.49h-.95v-1h1l.39-1.86h.91v1.86h1.51v1h-1.51v5.19" data-name="fi"/>
  <path class="cls-2" d="m316.36 413.11c2.68-0.05 3.67 1.6 3.67 4.27s-1.16 4.28-3.71 4.28-3.59-1.68-3.63-4.28c0-2.85 1.21-4.27 3.67-4.27zm0 7.51c1.9 0.05 2.29-1.33 2.29-3.24s-0.35-3.24-2.21-3.24-2.29 1.39-2.29 3.24 0.44 3.2 2.21 3.24" data-name="fk"/>
 </g>
 <g id="ev">
  <path class="cls-2" d="m333.21 421.49-5.7-9.12v9.12h-1.21v-10.72h1.7l5.75 9.21-0.09-9.21h1.34v10.72h-1.77" data-name="fg"/>
 </g>
 <g id="ew">
  <path class="cls-2" d="M343.24,412v4h6v1.21h-6v4.32h-1.43V410.77h7.56V412h-6.13" data-name="fx"/>
  <path class="cls-2" d="M351,421.49V410.21h1.39v11.28H351" data-name="fy"/>
  <path class="cls-2" d="m357.71 413.11c2.68-0.05 3.68 1.6 3.68 4.27s-1.17 4.28-3.72 4.28-3.59-1.68-3.63-4.28c-0.04-2.85 1.21-4.27 3.67-4.27zm0 7.51c1.9 0.05 2.29-1.33 2.29-3.24s-0.35-3.24-2.2-3.24-2.29 1.39-2.29 3.24 0.43 3.2 2.2 3.24" data-name="fk"/>
  <path class="cls-2" d="m370.93 421.49h-1.55l-1.73-7.09-1.77 7.09h-1.56l-2.32-8.21h1.38l1.69 7.09 1.86-7.09h1.47l1.77 7.09 1.81-7.09h1.34" data-name="fj"/>
 </g>
 <g id="ex">
  <path class="cls-2" d="m259.6 443.4a10.81 10.81 0 0 1 0-14.52h1.34a10.93 10.93 0 0 0 0 14.52h-1.34" data-name="gO"/>
  <path class="cls-2" d="M262.15,440.16V439h2.77v-8.21l-2.42,1.68v-1.25l2.51-1.77h1.25V439h2.63v1.17h-6.74" data-name="fS"/>
  <path class="cls-2" d="M271.05,433.5V432h1.47v1.55Zm0,6.66V438.6h1.47v1.56h-1.47" data-name="gP"/>
  <path class="cls-2" d="m282.16 440.16-5.7-9.12v9.12h-1.25v-10.72h1.68l5.75 9.2-0.09-9.2h1.34v10.72h-1.77" data-name="fg"/>
  <path class="cls-2" d="m286.57 428.88a10.78 10.78 0 0 1 0 14.52h-1.34a10.93 10.93 0 0 0 0-14.52h1.34" data-name="gQ"/>
 </g>
 <path class="cls-1" d="M143.06,504.42a6,6,0,0,1,6-6H396.6a6,6,0,0,1,6,6V605.67a6,6,0,0,1-6,6H149.06a6,6,0,0,1-6-6Z"/>
 <g id="ey">
  <path class="cls-2" d="M193.42,517.14c-.34-3.26-8.36-3.67-8.42.14.95,5.09,10.72,1,11.06,8.08.21,5.29-8.21,5.9-11.88,3.73a4.86,4.86,0,0,1-2.24-3.12l2.24-.48c.34,3.81,9.58,4.28,9.58-.07,0-5.29-10.53-.95-11-8-.34-5.57,9.84-5.7,12.15-2.31a6.74,6.74,0,0,1,.75,1.7" data-name="fI"/>
  <path class="cls-2" d="M198.78,514.29v-2H201v2Zm0,15.68v-12.9H201V530h-2.17" data-name="fp"/>
  <path class="cls-2" d="M214.53,517.07c-.68,8.49,2.79,19.9-7.47,17.73a3.86,3.86,0,0,1-3-2.92l2.17-.34c1,3.19,6.79,2.17,6-1.91v-2a4.29,4.29,0,0,1-4.14,2.44c-3.67,0-4.62-2.78-4.62-6.52s1.09-6.58,4.82-6.65a4.37,4.37,0,0,1,4,2.38,21.4,21.4,0,0,1,.14-2.18Zm-5.63,11.41c2.44,0,3.39-2.17,3.39-5s-.95-5.09-3.39-5.09c-2.65,0-3.13,2.31-3.13,5.09s.41,5,3.13,5" data-name="fz"/>
  <path class="cls-2" d="M224,516.8c6-.27,3.6,7.88,4.07,13.17h-2.17v-8.21c0-2.11-.54-3.33-2.65-3.26-4.89.13-3,6.92-3.32,11.47h-2.18l-.07-12.9h2a10.75,10.75,0,0,0,.14,2.18A4.29,4.29,0,0,1,224,516.8" data-name="fs"/>
  <path class="cls-2" d="M239.25,527.53c-1,1.43-2.11,2.78-4.62,2.72s-3.94-1.43-3.94-3.87c-.06-4.35,4.28-4.28,8.49-4.28.2-2.38-.61-3.67-2.78-3.67-1.63.07-2.79.48-2.85,2.11l-2.25-.21c.34-2.51,2.25-3.53,5.17-3.53s4.88,1.36,4.88,4.35v5.57c-.06,1.35.48,2.17,1.91,1.83v1.36C241.15,530.52,239.11,529.77,239.25,527.53Zm-6.32-1.15a2.06,2.06,0,0,0,2.18,2.24c2.78-.21,4.27-2,4.07-5-2.92.14-6.25-.34-6.25,2.79" data-name="fo"/>
  <path class="cls-2" d="M244.88,530V512.25h2.18V530h-2.18" data-name="fy"/>
 </g>
 <g data-name="eb">
  <path class="cls-2" d="M257.45,513.13c5.9.07,13-1,13,5.1,0,5.29-5.23,5.43-10.73,5.16V530h-2.24Zm2.24,8.49c3.87,0,8.42.75,8.42-3.39s-4.62-3.19-8.42-3.26v6.65" data-name="fn"/>
  <path class="cls-2" d="M279.45,518.91c-5.3-1.09-3.6,6.18-3.87,11.06H273.4l-.06-12.9h2a16,16,0,0,0,.14,2.65c.41-1.83,1.56-3.33,3.94-2.78v2" data-name="fl"/>
  <path class="cls-2" d="m286.58 516.8c4.21-0.07 5.77 2.51 5.77 6.72s-1.84 6.73-5.84 6.73-5.64-2.65-5.71-6.73c0-4.52 1.91-6.72 5.78-6.72zm-0.07 11.82c3 0.06 3.6-2.11 3.6-5.1s-0.55-5.09-3.47-5.09-3.59 2.17-3.59 5.09 0.67 5 3.46 5.1" data-name="fk"/>
  <path class="cls-2" d="M299.88,518.5c-2.71,0-3.25,2.24-3.25,5s.61,5.09,3.25,5.09A2.7,2.7,0,0,0,302.8,526l2.18.13a4.66,4.66,0,0,1-5,4.15c-4,0-5.16-2.79-5.57-6.73-.67-6.31,6.86-8.89,10-4.34a5.29,5.29,0,0,1,.47,1.49l-2.17.21a2.6,2.6,0,0,0-2.79-2.38" data-name="fq"/>
  <path class="cls-2" d="M312.38,516.8c4.28,0,5.84,2.85,5.7,7.2h-9.16c0,2.72.95,4.55,3.59,4.62a3.18,3.18,0,0,0,3.33-2l1.9.54c-.74,1.9-2.51,3.06-5.23,3.06-3.93,0-6-2.52-5.9-6.79S308.37,516.8,312.38,516.8Zm3.53,5.5c.41-4.07-5.16-5.23-6.59-1.9a5,5,0,0,0-.4,1.9h7" data-name="fh"/>
  <path class="cls-2" d="M328.34,520.26c-.21-2.3-5.84-2.58-5.91,0,1,3.6,7.81.82,8.08,6.12s-10.19,5-10.66.54l1.9-.34c.27,2.44,6.59,3,6.65,0-.68-3.8-7.67-1-8-6.11-.27-3.87,5.57-4.28,8.29-2.85A3.39,3.39,0,0,1,330.3,520" data-name="fv"/>
  <path class="cls-2" d="M340.56,520.26c-.21-2.3-5.84-2.58-5.91,0,1,3.6,7.81.82,8.08,6.12s-10.18,5-10.66.54l1.9-.34c.27,2.44,6.59,3,6.66,0-.68-3.8-7.68-1-8-6.11-.27-3.87,5.57-4.28,8.29-2.85a3.44,3.44,0,0,1,1.63,2.37" data-name="fv"/>
  <path class="cls-2" d="m350.4 516.8c4.21-0.07 5.78 2.51 5.78 6.72s-1.84 6.73-5.84 6.73-5.64-2.65-5.71-6.73c0-4.52 1.9-6.72 5.77-6.72zm-0.06 11.82c3 0.06 3.59-2.11 3.59-5.1s-0.54-5.09-3.46-5.09-3.6 2.17-3.6 5.09 0.68 5 3.47 5.1" data-name="fk"/>
  <path class="cls-2" d="M364.93,518.91c-5.29-1.09-3.59,6.18-3.87,11.06h-2.17l-.07-12.9h2a16,16,0,0,0,.14,2.65c.4-1.83,1.56-3.33,3.93-2.78v2" data-name="fl"/>
 </g>
 <g id="ez">
  <path class="cls-2" d="m186.54 542.69v9.51h-1.47v-9.51h-3.68v-1.21h8.82v1.21h-3.67" data-name="gN"/>
  <path class="cls-2" d="M194.88,545.15c-3.37-.69-2.29,3.94-2.47,7.05H191l0-8.21h1.29a11.14,11.14,0,0,0,.09,1.68c.26-1.16,1-2.12,2.51-1.77v1.25" data-name="fl"/>
  <path class="cls-2" d="M196.13,542.22v-1.3h1.38v1.3Zm0,10V544h1.38v8.21h-1.38" data-name="fp"/>
  <path class="cls-2" d="M206.15,544c-.43,5.4,1.77,12.66-4.75,11.27a2.45,2.45,0,0,1-1.9-1.85l1.38-.22c.65,2,4.32,1.38,3.85-1.21v-1.3a2.75,2.75,0,0,1-2.64,1.56c-2.33,0-2.94-1.77-2.94-4.15s.69-4.19,3.07-4.23a2.76,2.76,0,0,1,2.55,1.51,12.15,12.15,0,0,1,.09-1.38Zm-3.58,7.26c1.55,0,2.16-1.39,2.16-3.16s-.61-3.24-2.16-3.24-2,1.47-2,3.24.26,3.16,2,3.16" data-name="fz"/>
  <path class="cls-2" d="M214.8,544c-.44,5.4,1.77,12.66-4.76,11.27a2.45,2.45,0,0,1-1.9-1.85l1.38-.22c.65,2,4.32,1.38,3.85-1.21v-1.3a2.74,2.74,0,0,1-2.64,1.56c-2.33,0-2.93-1.77-2.93-4.15s.69-4.19,3.06-4.23a2.75,2.75,0,0,1,2.55,1.51c.05-.43,0-1,.09-1.38Zm-3.59,7.26c1.55,0,2.16-1.39,2.16-3.16s-.61-3.24-2.16-3.24-2,1.47-2,3.24.26,3.16,2,3.16" data-name="fz"/>
  <path class="cls-2" d="m220.11 543.81c2.72 0 3.72 1.82 3.63 4.58h-5.83c0 1.73 0.6 2.9 2.29 2.94a2 2 0 0 0 2.11-1.25l1.21 0.34a3.24 3.24 0 0 1-3.32 2c-2.51 0-3.81-1.6-3.76-4.32s1.12-4.29 3.67-4.29zm2.25 3.5a2.22 2.22 0 0 0-4.19-1.21 3.19 3.19 0 0 0-0.26 1.21h4.45" data-name="fh"/>
  <path class="cls-2" d="M229.36,545.15c-3.37-.69-2.29,3.94-2.47,7.05h-1.38l0-8.21h1.29a11.14,11.14,0,0,0,.09,1.68c.26-1.16,1-2.12,2.51-1.77v1.25" data-name="fl"/>
  <path class="cls-2" d="M235.41,546c-.13-1.47-3.72-1.64-3.76,0,.65,2.29,5,.52,5.14,3.89s-6.48,3.19-6.78.34l1.21-.21c.17,1.55,4.19,1.94,4.23,0-.43-2.42-4.88-.65-5.1-3.89-.17-2.47,3.54-2.73,5.27-1.82a2.16,2.16,0,0,1,1,1.51" data-name="fv"/>
 </g>
 <g data-name="eA">
  <path class="cls-2" d="m246 543.81c2.73 0 3.72 1.82 3.63 4.58h-5.83c0 1.73 0.6 2.9 2.29 2.94a2 2 0 0 0 2.12-1.25l1.21 0.34a3.26 3.26 0 0 1-3.33 2c-2.51 0-3.8-1.6-3.76-4.32s1.11-4.29 3.67-4.29zm2.25 3.5a2.22 2.22 0 0 0-4.19-1.21 3.19 3.19 0 0 0-0.26 1.21h4.45" data-name="fh"/>
  <path id="fF" class="cls-2" d="m255 552.2h-1.64l-3-8.21h1.47l2.33 7.13 2.42-7.13h1.47"/>
  <path class="cls-2" d="m262.41 543.81c2.72 0 3.72 1.82 3.63 4.58h-5.83c0 1.73 0.6 2.9 2.29 2.94a2 2 0 0 0 2.12-1.25l1.21 0.34a3.26 3.26 0 0 1-3.33 2c-2.51 0-3.8-1.6-3.76-4.32s1.12-4.29 3.67-4.29zm2.25 3.5a2.22 2.22 0 0 0-4.19-1.21 3.19 3.19 0 0 0-0.26 1.21h4.45" data-name="fh"/>
  <path class="cls-2" d="M271.79,543.81c3.84-.17,2.29,5,2.59,8.39H273V547c0-1.34-.35-2.12-1.69-2.08-3.11.09-1.9,4.41-2.11,7.31h-1.39l0-8.21h1.3a6.75,6.75,0,0,0,.08,1.38,2.76,2.76,0,0,1,2.64-1.56" data-name="fs"/>
  <path class="cls-2" d="M277.92,550.17c-.08,1,.78,1.25,1.65,1v1c-1.43.44-3,.22-3-1.68V545h-1v-1h1l.39-1.86h.9V544h1.52v1h-1.52v5.19" data-name="fi"/>
  <path class="cls-2" d="M285.53,546c-.13-1.47-3.72-1.64-3.76,0,.65,2.29,5,.52,5.14,3.89s-6.48,3.19-6.78.34l1.21-.21c.17,1.55,4.19,1.94,4.23,0-.43-2.42-4.88-.65-5.1-3.89-.17-2.47,3.55-2.73,5.28-1.82a2.18,2.18,0,0,1,1,1.51" data-name="fv"/>
 </g>
 <g data-name="eu">
  <path class="cls-2" d="M294.34,550.17c-.08,1,.78,1.25,1.65,1v1c-1.43.44-3,.22-3-1.68V545H292v-1h1l.39-1.86h.9V544h1.52v1h-1.52v5.19" data-name="fi"/>
  <path class="cls-2" d="m300.44 543.81c2.68 0 3.67 1.6 3.67 4.28s-1.17 4.28-3.72 4.28-3.58-1.69-3.63-4.28c0-2.85 1.24-4.28 3.68-4.28zm-0.05 7.52c1.91 0 2.29-1.34 2.29-3.24s-0.34-3.24-2.2-3.24-2.29 1.38-2.29 3.24 0.43 3.2 2.2 3.24" data-name="fk"/>
 </g>
 <g data-name="ev">
  <path class="cls-2" d="m317.29 552.2-5.7-9.12v9.12h-1.25v-10.72h1.68l5.75 9.2-0.09-9.2h1.34v10.72h-1.77" data-name="fg"/>
 </g>
 <g data-name="eB">
  <path class="cls-2" d="m327.31 542.69v4h6v1.21h-6v4.32h-1.42v-10.74h7.56v1.21h-6.14" data-name="fx"/>
  <path class="cls-2" d="m335.09 552.2v-11.28h1.38v11.28h-1.38" data-name="fy"/>
  <path class="cls-2" d="m341.79 543.81c2.68 0 3.67 1.6 3.67 4.28s-1.16 4.28-3.71 4.28-3.59-1.69-3.63-4.28c0-2.85 1.21-4.28 3.67-4.28zm0 7.52c1.9 0 2.29-1.34 2.29-3.24s-0.35-3.24-2.21-3.24-2.29 1.38-2.29 3.24 0.43 3.2 2.21 3.24" data-name="fk"/>
  <path class="cls-2" d="m355 552.2h-1.55l-1.73-7.09-1.72 7.09h-1.6l-2.33-8.2h1.38l1.69 7.08 1.86-7.08h1.47l1.77 7.08 1.82-7.08h1.34" data-name="fj"/>
  <path class="cls-2" d="M363.14,546c-.13-1.47-3.72-1.64-3.76,0,.64,2.29,5,.52,5.14,3.89s-6.48,3.19-6.79.34l1.21-.21c.18,1.55,4.2,1.94,4.24,0-.43-2.42-4.88-.65-5.1-3.89-.17-2.47,3.54-2.73,5.27-1.82a2.16,2.16,0,0,1,1,1.51" data-name="fv"/>
 </g>
 <g data-name="eC">
  <path class="cls-2" d="M175.3,562.48c2.29,0,3,1.69,3,4.23,0,2.86-1,4.33-3,4.33a2.5,2.5,0,0,1-2.55-1.47l-.08,1.29h-1.34l0-11.27h1.38V564A2.44,2.44,0,0,1,175.3,562.48ZM175,570c1.72,0,1.94-1.47,1.94-3.24s-.22-3.24-1.94-3.2-2.21,1.38-2.21,3.28S173.18,570,175,570" data-name="fQ"/>
  <path class="cls-2" d="M185.07,569.31a3.23,3.23,0,0,1-2.94,1.73,2.31,2.31,0,0,1-2.51-2.47c0-2.76,2.72-2.72,5.4-2.72.13-1.51-.39-2.33-1.77-2.33-1,0-1.77.3-1.81,1.34l-1.43-.13c.22-1.6,1.43-2.25,3.29-2.25s3.11.86,3.11,2.77v3.54c0,.86.3,1.38,1.21,1.17v.86C186.28,571.21,185,570.73,185.07,569.31Zm-4-.74a1.31,1.31,0,0,0,1.38,1.43c1.77-.13,2.72-1.25,2.59-3.2-1.85.09-4-.21-4,1.77" data-name="fo"/>
  <path class="cls-2" d="M193.45,564.68c-.13-1.47-3.72-1.64-3.76,0,.65,2.29,5,.52,5.14,3.89s-6.48,3.2-6.78.35l1.21-.22c.17,1.56,4.19,1.95,4.23,0-.43-2.42-4.88-.65-5.1-3.89-.17-2.46,3.55-2.72,5.28-1.81a2.18,2.18,0,0,1,1,1.51" data-name="fv"/>
  <path class="cls-2" d="m199.72 562.48c2.72 0 3.71 1.82 3.62 4.58h-5.83c0 1.73 0.61 2.9 2.29 2.94a2 2 0 0 0 2.12-1.25l1.21 0.34a3.26 3.26 0 0 1-3.33 1.91c-2.5 0-3.8-1.6-3.76-4.33s1.13-4.19 3.68-4.19zm2.28 3.52a2.22 2.22 0 0 0-4.19-1.21 3.14 3.14 0 0 0-0.26 1.21h4.45" data-name="fh"/>
  <path class="cls-2" d="m207.71 562.48a2.72 2.72 0 0 1 2.59 1.43v-4.32h1.38v11.27h-1.29a12.7 12.7 0 0 0-0.13-1.34 2.46 2.46 0 0 1-2.55 1.52c-2.29 0-3-1.69-3-4.24-0.03-2.8 0.97-4.32 3-4.32zm0.39 1c-1.73 0-2 1.47-2 3.24s0.26 3.2 1.94 3.2 2.21-1.39 2.21-3.29-0.39-3.2-2.16-3.15" data-name="fB"/>
 </g>
 <g data-name="eD">
  <path class="cls-2" d="m221.32 562.48c2.68 0 3.67 1.6 3.67 4.28s-1.16 4.28-3.71 4.28-3.59-1.69-3.63-4.28c0-2.85 1.21-4.28 3.67-4.28zm0 7.52c1.9 0 2.29-1.34 2.29-3.24s-0.35-3.24-2.21-3.24-2.29 1.38-2.29 3.24 0.44 3.2 2.21 3.24" data-name="fk"/>
  <path class="cls-2" d="M230.7,562.48c3.84-.17,2.29,5,2.59,8.38h-1.38v-5.23c0-1.33-.35-2.11-1.69-2.07-3.11.09-1.9,4.41-2.12,7.3h-1.38l0-8.21H228a7.55,7.55,0,0,0,.09,1.39,2.74,2.74,0,0,1,2.64-1.56" data-name="fs"/>
 </g>
 <g data-name="eE">
  <path class="cls-2" d="M241.15,568.83c-.08,1,.78,1.26,1.65.95v1c-1.43.43-3,.22-3-1.69v-5.48h-1v-1h1l.39-1.85h.9v1.85h1.52v1h-1.52v5.18" data-name="fi"/>
  <path class="cls-2" d="M247.51,563.56c-3.12,0-1.91,4.41-2.12,7.3H244V559.59h1.38l0,4.45a2.74,2.74,0,0,1,2.64-1.56c3.85,0,2.29,5,2.59,8.38h-1.38v-5.23c.09-1.38-.35-2.11-1.68-2.07" data-name="fP"/>
  <path class="cls-2" d="m255.89 562.48c2.72 0 3.71 1.82 3.63 4.58h-5.84c0 1.73 0.61 2.9 2.29 2.94a2 2 0 0 0 2.12-1.25l1.21 0.34a3.25 3.25 0 0 1-3.3 1.91c-2.5 0-3.8-1.6-3.75-4.33s1.09-4.19 3.64-4.19zm2.24 3.5a2.22 2.22 0 0 0-4.19-1.21 3.14 3.14 0 0 0-0.26 1.21h4.45" data-name="fh"/>
 </g>
 <g data-name="eF">
  <path class="cls-2" d="M265.57,560.88v-1.29H267v1.29Zm0,10v-8.21H267v8.21h-1.38" data-name="fp"/>
  <path class="cls-2" d="M273,562.48c3.84-.17,2.29,5,2.59,8.38h-1.38v-5.23c0-1.33-.35-2.11-1.69-2.07-3.11.09-1.9,4.41-2.11,7.3H269l0-8.21h1.3a6.8,6.8,0,0,0,.08,1.39,2.75,2.75,0,0,1,2.64-1.56" data-name="fs"/>
  <path id="fr" class="cls-2" d="M281.55,562.48c2.38,0,3,1.77,3,4.23s-.69,4.24-3,4.33a2.66,2.66,0,0,1-2.59-1.47l.05,4.53h-1.39l0-11.45h1.34L279,564A2.53,2.53,0,0,1,281.55,562.48Zm-.34,7.52c1.73,0,1.94-1.47,1.94-3.24s-.26-3.16-1.94-3.2-2.2,1.38-2.2,3.28.43,3.16,2.2,3.16"/>
  <path class="cls-2" d="M288.86,571c-3.85.17-2.34-5-2.64-8.39h1.38v5.19c0,1.34.31,2.16,1.69,2.12,3.11-.09,1.94-4.37,2.16-7.31h1.34l0,8.21h-1.29a7.89,7.89,0,0,0-.09-1.42,2.72,2.72,0,0,1-2.59,1.6" data-name="fw"/>
  <path class="cls-2" d="M296.42,568.83c-.09,1,.78,1.26,1.64.95v1c-1.43.43-3,.22-3-1.69v-5.48h-1v-1h1l.39-1.85h.91v1.85h1.51v1h-1.51v5.18" data-name="fi"/>
 </g>
 <g data-name="eG">
  <path class="cls-2" d="m306.83 562.48c2.68 0 3.68 1.6 3.68 4.28s-1.17 4.28-3.72 4.28-3.59-1.69-3.63-4.28c0-2.85 1.21-4.28 3.67-4.28zm0 7.52c1.9 0 2.29-1.34 2.29-3.24s-0.35-3.24-2.2-3.24-2.29 1.38-2.29 3.24 0.43 3.2 2.2 3.24" data-name="fk"/>
  <path id="fu" class="cls-2" d="M315.52,560.75c-1.34-.39-1.82.43-1.64,1.9h1.64v1h-1.64v7.21h-1.34v-7.21h-1.17v-1h1.17c-.31-2.24.73-3.54,3-2.94v1"/>
 </g>
 <g data-name="ev">
  <path class="cls-2" d="m328 570.86-5.71-9.11v9.11h-1.25v-10.71h1.69l5.74 9.2-0.08-9.2h1.34v10.71h-1.73" data-name="fg"/>
 </g>
 <g data-name="eB">
  <path class="cls-2" d="M338,561.36v4h6v1.21h-6v4.32H336.6V560.15h7.57v1.21H338" data-name="fx"/>
  <path class="cls-2" d="m345.81 570.86v-11.27h1.38v11.27h-1.38" data-name="fy"/>
  <path class="cls-2" d="m352.51 562.48c2.67 0 3.67 1.6 3.67 4.28s-1.18 4.24-3.72 4.24-3.58-1.69-3.63-4.28c0-2.81 1.17-4.24 3.68-4.24zm-0.05 7.52c1.9 0 2.29-1.34 2.29-3.24s-0.34-3.24-2.2-3.24-2.29 1.38-2.29 3.24 0.43 3.2 2.2 3.24" data-name="fk"/>
  <path class="cls-2" d="m365.73 570.86h-1.56l-1.73-7.08-1.77 7.08h-1.55l-2.34-8.21h1.39l1.68 7.09 1.86-7.09h1.47l1.77 7.09 1.81-7.09h1.34" data-name="fj"/>
  <path class="cls-2" d="M373.85,564.68c-.13-1.47-3.72-1.64-3.76,0,.65,2.29,5,.52,5.14,3.89s-6.48,3.2-6.78.35l1.21-.22c.17,1.56,4.19,1.95,4.23,0-.43-2.42-4.88-.65-5.09-3.89-.18-2.46,3.54-2.72,5.27-1.81a2.15,2.15,0,0,1,1,1.51" data-name="fv"/>
 </g>
 <g data-name="eH">
  <path class="cls-2" d="m258.33 592.77a10.78 10.78 0 0 1 0-14.52h1.34a10.9 10.9 0 0 0 0 14.52h-1.34" data-name="gO"/>
  <path class="cls-2" d="m267.92 589.53-5.7-9.12v9.12h-1.22v-10.72h1.68l5.75 9.21-0.09-9.21h1.34v10.72h-1.77" data-name="fg"/>
  <path class="cls-2" d="M272.33,582.88v-1.56h1.47v1.56Zm0,6.65V588h1.47v1.56h-1.47" data-name="gP"/>
  <path class="cls-2" d="m283.43 589.53-5.7-9.12v9.12h-1.25v-10.72h1.69l5.83 9.19-0.08-9.21h1.34v10.72h-1.78" data-name="fg"/>
  <path class="cls-2" d="m287.84 578.25a10.78 10.78 0 0 1 0 14.52h-1.34a10.9 10.9 0 0 0 0-14.52h1.34" data-name="gQ"/>
 </g>
 <path class="cls-1" d="m86.44 118.27c5.2 0 9.44 5.27 9.44 11.8s-4.23 11.78-9.44 11.78h-75.5c-5.2 0-9.44-5.28-9.44-11.8s4.23-11.8 9.44-11.8z"/>
 <path class="cls-3" d="m86.44 141.85c-5.2 0-9.44-5.28-9.44-11.8s4.23-11.8 9.44-11.8"/>
 <g data-name="eI">
  <path class="cls-2" d="M29.76,127.11V130H34v.86H29.76v3.09h-1v-7.66h5.41v.87H29.76" data-name="fx"/>
  <path class="cls-2" d="m35.32 133.9v-8.06h1v8.06h-1" data-name="fy"/>
  <path class="cls-2" d="m40.1 127.91c1.92 0 2.63 1.14 2.63 3.06s-0.84 3.03-2.66 3.03-2.56-1.2-2.59-3.05c0-2.02 0.86-3.04 2.62-3.04zm0 5.37c1.36 0 1.64-1 1.64-2.31s-0.25-2.32-1.58-2.32-1.63 1-1.63 2.32 0.31 2.28 1.57 2.31" data-name="fk"/>
  <path class="cls-2" d="m49.55 133.9h-1.11l-1.24-5.06-1.26 5.06h-1.12l-1.66-5.9h1l1.2 5.07 1.32-5.07h1l1.32 5.1 1.3-5.07h1" data-name="fj"/>
 </g>
 <path class="cls-4" d="m98.4 130.07h24.67"/>
 <path class="cls-5" d="M98.4,131.07H97.26l.13-1-.14-1H98.4"/>
 <path class="cls-6" d="m138.33 130.07-14.27 4.63v-9.27z"/>
 <path class="cls-4" d="M405.1,130h21s.05,0,.05,0,0,.05,0,.05h3.53"/>
 <path class="cls-5" d="m405.12 131h-1v-2h1"/>
 <path class="cls-6" d="m445 130.07-14.27 4.62v-9.27z"/>
 <path class="cls-1" d="m534.72 118.27c5.22 0 9.44 5.27 9.44 11.8s-4.22 11.78-9.44 11.78h-75.5c-5.2 0-9.43-5.28-9.43-11.8s4.2-11.8 9.42-11.8z"/>
 <path class="cls-3" d="m534.72 141.85c-5.2 0-9.43-5.28-9.43-11.8s4.2-11.8 9.42-11.8"/>
 <g data-name="eI">
  <path class="cls-2" d="M478.05,127.11V130h4.26v.86h-4.26v3.09h-1v-7.66h5.4v.87h-4.38" data-name="fx"/>
  <path class="cls-2" d="m483.6 133.9v-8.06h1v8.06h-1" data-name="fy"/>
  <path class="cls-2" d="m488.39 127.91c1.91 0 2.62 1.14 2.62 3.06s-0.83 3.05-2.65 3.05-2.56-1.2-2.6-3.05c0-2.04 0.87-3.06 2.63-3.06zm0 5.37c1.36 0 1.63-1 1.63-2.31s-0.24-2.32-1.57-2.32-1.64 1-1.64 2.32 0.31 2.28 1.58 2.31" data-name="fk"/>
  <path class="cls-2" d="m497.83 133.9h-1.11l-1.23-5.06-1.27 5.06h-1.11l-1.67-5.9h1l1.21 5.07 1.35-5.07h1l1.27 5.07 1.29-5.07h1" data-name="fj"/>
 </g>
 <path class="cls-1" d="M86.44,206c5.2,0,9.44,5.3,9.44,11.8s-4.23,11.8-9.44,11.8H10.94c-5.2,0-9.44-5.27-9.44-11.8S5.73,206,10.94,206Z"/>
 <path class="cls-3" d="M86.44,229.57c-5.2,0-9.44-5.27-9.44-11.8S81.23,206,86.44,206"/>
 <g data-name="eI">
  <path class="cls-2" d="M29.76,214.83v2.84H34v.87H29.76v3.08h-1V214h5.41v.86H29.76" data-name="fx"/>
  <path class="cls-2" d="m35.32 221.62v-8.05h1v8.05h-1" data-name="fy"/>
  <path class="cls-2" d="m40.1 215.64c1.92 0 2.63 1.14 2.63 3.05s-0.84 3.06-2.66 3.06-2.56-1.21-2.59-3.06c0-2.04 0.86-3.05 2.62-3.05zm0 5.37c1.36 0 1.64-1 1.64-2.32s-0.25-2.31-1.58-2.31-1.63 1-1.63 2.31 0.31 2.29 1.57 2.32" data-name="fk"/>
  <path class="cls-2" d="m49.55 221.62h-1.11l-1.24-5.06-1.26 5.06h-1.12l-1.66-5.86h1l1.2 5.06 1.33-5.06h1l1.31 5.06 1.3-5.06h1" data-name="fj"/>
 </g>
 <path class="cls-1" d="m86.44 258.05c5.2 0 9.44 5.3 9.44 11.8s-4.23 11.8-9.44 11.8h-75.5c-5.2 0-9.44-5.28-9.44-11.8s4.23-11.8 9.44-11.8z"/>
 <path class="cls-3" d="m86.44 281.65c-5.2 0-9.44-5.28-9.44-11.8s4.23-11.8 9.44-11.8"/>
 <g data-name="eI">
  <path class="cls-2" d="M29.76,266.9v2.84H34v.87H29.76v3.08h-1V266h5.41v.86H29.76" data-name="fx"/>
  <path class="cls-2" d="m35.32 273.69v-8.05h1v8.05h-1" data-name="fy"/>
  <path class="cls-2" d="m40.1 267.71c1.92 0 2.63 1.14 2.63 3.05s-0.84 3.06-2.66 3.06-2.56-1.21-2.59-3.06c0-2.04 0.86-3.05 2.62-3.05zm0 5.37c1.36 0 1.64-1 1.64-2.32s-0.25-2.31-1.58-2.31-1.63 1-1.63 2.31 0.31 2.29 1.57 2.32" data-name="fk"/>
  <path class="cls-2" d="m49.55 273.69h-1.11l-1.24-5.06-1.26 5.06h-1.12l-1.66-5.86h1l1.2 5.06 1.33-5.06h1l1.31 5.06 1.3-5.06h1" data-name="fj"/>
 </g>
 <path class="cls-1" d="m86.44 308.23c5.2 0 9.44 5.28 9.44 11.8s-4.23 11.8-9.44 11.8h-75.5c-5.2 0-9.44-5.3-9.44-11.8s4.23-11.8 9.44-11.8z"/>
 <path class="cls-3" d="m86.44 331.82c-5.2 0-9.44-5.28-9.44-11.8s4.23-11.8 9.44-11.8"/>
 <g data-name="eI">
  <path class="cls-2" d="M29.76,317.07v2.84H34v.87H29.76v3.08h-1v-7.65h5.41v.86H29.76" data-name="fx"/>
  <path class="cls-2" d="m35.32 323.86v-8.05h1v8.05h-1" data-name="fy"/>
  <path class="cls-2" d="m40.1 317.88c1.92 0 2.63 1.14 2.63 3.05s-0.84 3.07-2.66 3.07-2.56-1.21-2.59-3.06c0-2.04 0.86-3.06 2.62-3.06zm0 5.37c1.36 0 1.64-1 1.64-2.32s-0.25-2.31-1.58-2.31-1.63 1-1.63 2.31 0.31 2.29 1.57 2.32" data-name="fk"/>
  <path class="cls-2" d="m49.55 323.86h-1.11l-1.24-5.06-1.26 5.06h-1.12l-1.66-5.86h1l1.2 5.06 1.32-5.06h1l1.32 5.06 1.3-5.06h1" data-name="fj"/>
 </g>
 <path class="cls-4" d="M98.4,217.77h20.68a.41.41,0,0,1,.4.4.39.39,0,0,0,.4.4h3.18"/>
 <path class="cls-5" d="M98.4,218.77H97.26l.13-1-.14-1H98.4"/>
 <path class="cls-6" d="M138.33,218.57l-14.27,4.65V214Z"/>
 <path class="cls-4" d="M98.4,269.85h20.66a.43.43,0,0,0,.42-.42.39.39,0,0,1,.4-.4h3.18"/>
 <path class="cls-5" d="M98.4,270.85H97.26l.13-1-.14-1H98.4"/>
 <path class="cls-6" d="m138.33 269-14.27 4.63v-9.27z"/>
 <path class="cls-4" d="M98.4,320h20.8a.29.29,0,0,0,.28-.28.29.29,0,0,1,.28-.3h3.3"/>
 <path class="cls-5" d="M98.4,321H97.26l.13-1-.14-1H98.4"/>
 <path class="cls-6" d="m138.33 319.45-14.27 4.64v-9.28z"/>
 <path class="cls-1" d="m534.72 259.82c5.22 0 9.44 5.3 9.44 11.8s-4.22 11.8-9.44 11.8h-75.5c-5.2 0-9.43-5.28-9.43-11.8s4.2-11.8 9.42-11.8z"/>
 <path class="cls-3" d="m534.72 283.42c-5.2 0-9.43-5.28-9.43-11.8s4.2-11.8 9.42-11.8"/>
 <g data-name="eI">
  <path class="cls-2" d="M478.05,268.67v2.84h4.26v.87h-4.26v3.08h-1v-7.65h5.4v.86h-4.38" data-name="fx"/>
  <path class="cls-2" d="m483.6 275.46v-8h1v8h-1" data-name="fy"/>
  <path class="cls-2" d="m488.39 269.48c1.91 0 2.62 1.14 2.62 3s-0.83 3.06-2.65 3.06-2.56-1.21-2.6-3.06c0-1.99 0.87-3 2.63-3zm0 5.37c1.36 0 1.63-1 1.63-2.32s-0.24-2.31-1.57-2.31-1.64 1-1.64 2.31 0.31 2.28 1.58 2.32" data-name="fk"/>
  <path class="cls-2" d="m497.83 275.46h-1.11l-1.23-5.06-1.27 5.06h-1.11l-1.67-5.86h1l1.21 5.06 1.35-5.06h1l1.27 5.06 1.29-5.06h1" data-name="fj"/>
 </g>
 <path class="cls-4" d="m405.1 271.52h24.68"/>
 <path class="cls-5" d="m405.12 272.52h-1v-2h1"/>
 <path class="cls-6" d="m445.05 271.52-14.27 4.64v-9.28z"/>
 <path class="cls-1" d="m534.72 359.15c5.22 0 9.44 5.28 9.44 11.8s-4.22 11.8-9.44 11.8h-75.5c-5.2 0-9.43-5.3-9.43-11.8s4.2-11.8 9.42-11.8z"/>
 <path class="cls-3" d="m534.72 382.74c-5.2 0-9.43-5.28-9.43-11.8s4.2-11.8 9.42-11.8"/>
 <g data-name="eI">
  <path class="cls-2" d="M478.05,368v2.84h4.26v.86h-4.26v3.09h-1v-7.66h5.4V368h-4.38" data-name="fx"/>
  <path class="cls-2" d="m483.6 374.79v-8.06h1v8.06h-1" data-name="fy"/>
  <path class="cls-2" d="m488.39 368.8c1.91 0 2.62 1.14 2.62 3.06s-0.83 3.05-2.65 3.05-2.56-1.2-2.6-3.05c0-2.04 0.87-3.06 2.63-3.06zm0 5.37c1.36 0 1.63-1 1.63-2.31s-0.24-2.32-1.57-2.32-1.64 1-1.64 2.32 0.31 2.28 1.58 2.31" data-name="fk"/>
  <path class="cls-2" d="M497.83,374.79h-1.11l-1.23-5.06-1.27,5.06h-1.11l-1.67-5.87h1l1.21,5.07,1.32-5.07H496l1.27,5.07,1.29-5.07h1" data-name="fj"/>
 </g>
 <path class="cls-1" d="m534.72 399.62c5.22 0 9.44 5.28 9.44 11.8s-4.22 11.8-9.44 11.8h-75.5c-5.2 0-9.43-5.3-9.43-11.8s4.2-11.8 9.42-11.8z"/>
 <path class="cls-3" d="m534.72 423.21c-5.2 0-9.43-5.28-9.43-11.8s4.2-11.8 9.42-11.8"/>
 <g data-name="eI">
  <path class="cls-2" d="M478.05,408.47v2.84h4.26v.86h-4.26v3.09h-1V407.6h5.4v.87h-4.38" data-name="fx"/>
  <path class="cls-2" d="m483.6 415.26v-8.06h1v8.06h-1" data-name="fy"/>
  <path class="cls-2" d="m488.39 409.27c1.91 0 2.62 1.14 2.62 3.06s-0.83 3.05-2.65 3.05-2.56-1.2-2.6-3.05c0-2.04 0.87-3.06 2.63-3.06zm0 5.37c1.36 0 1.63-1 1.63-2.31s-0.24-2.32-1.57-2.32-1.64 1-1.64 2.32 0.31 2.28 1.58 2.31" data-name="fk"/>
  <path class="cls-2" d="M497.83,415.26h-1.11l-1.23-5.06-1.27,5.06h-1.11l-1.67-5.87h1l1.21,5.07,1.32-5.07H496l1.27,5.07,1.29-5.07h1" data-name="fj"/>
 </g>
 <path class="cls-1" d="m534.72 439.14c5.22 0 9.44 5.28 9.44 11.8s-4.22 11.8-9.44 11.8h-75.5c-5.2 0-9.43-5.3-9.43-11.8s4.2-11.8 9.42-11.8z"/>
 <path class="cls-3" d="m534.72 462.73c-5.2 0-9.43-5.28-9.43-11.8s4.2-11.8 9.42-11.8"/>
 <g data-name="eI">
  <path class="cls-2" d="M478.05,448v2.84h4.26v.86h-4.26v3.09h-1v-7.66h5.4V448h-4.38" data-name="fx"/>
  <path class="cls-2" d="m483.6 454.78v-8.06h1v8.06h-1" data-name="fy"/>
  <path class="cls-2" d="m488.39 448.79c1.91 0 2.62 1.14 2.62 3.06s-0.83 3-2.65 3-2.56-1.2-2.6-3c0-2.04 0.87-3.06 2.63-3.06zm0 5.37c1.36 0 1.63-1 1.63-2.31s-0.24-2.32-1.57-2.32-1.64 1-1.64 2.32 0.31 2.28 1.58 2.31" data-name="fk"/>
  <path class="cls-2" d="M497.83,454.78h-1.11l-1.23-5.06-1.27,5.06h-1.11l-1.67-5.87h1l1.21,5.07,1.32-5.07H496l1.27,5.07,1.29-5.07h1" data-name="fj"/>
 </g>
 <path class="cls-4" d="M405.1,368.69H426a.29.29,0,0,1,.3.28.27.27,0,0,0,.28.28H430"/>
 <path class="cls-5" d="m405.12 369.69h-1v-2h1"/>
 <path class="cls-6" d="m445.26 369.25-14.26 4.64v-9.27z"/>
 <path class="cls-4" d="M405.1,408h20.82a.43.43,0,0,1,.43.43.43.43,0,0,0,.43.43h3.32"/>
 <path class="cls-5" d="m405.12 409h-1v-2h1"/>
 <path class="cls-6" d="m445.37 408.85-14.27 4.64v-9.27z"/>
 <path class="cls-4" d="M405.1,451.84h20.83a.29.29,0,0,0,.28-.28.29.29,0,0,1,.3-.3h3.32"/>
 <path class="cls-5" d="m405.12 452.84h-1v-2h1"/>
 <path class="cls-6" d="m445.08 451.27-14.26 4.64v-9.27z"/>
 <path class="cls-1" d="m86.44 401.57c5.2 0 9.44 5.3 9.44 11.8s-4.23 11.8-9.44 11.8h-75.5c-5.2 0-9.44-5.27-9.44-11.8s4.23-11.8 9.44-11.8z"/>
 <path class="cls-3" d="m86.44 425.17c-5.2 0-9.44-5.27-9.44-11.8s4.23-11.8 9.44-11.8"/>
 <g data-name="eI">
  <path class="cls-2" d="M29.76,410.43v2.84H34v.87H29.76v3.08h-1v-7.65h5.41v.86H29.76" data-name="fx"/>
  <path class="cls-2" d="m35.32 417.22v-8.05h1v8.05h-1" data-name="fy"/>
  <path class="cls-2" d="m40.1 411.24c1.92 0 2.63 1.14 2.63 3.05s-0.84 3.06-2.66 3.06-2.56-1.21-2.59-3.06c0-2.04 0.86-3.05 2.62-3.05zm0 5.37c1.36 0 1.64-1 1.64-2.32s-0.28-2.29-1.61-2.29-1.63 1-1.63 2.31 0.31 2.29 1.57 2.32" data-name="fk"/>
  <path class="cls-2" d="m49.55 417.22h-1.11l-1.24-5.06-1.26 5.06h-1.12l-1.66-5.86h1l1.2 5.06 1.33-5.06h1l1.31 5.06 1.3-5.06h1" data-name="fj"/>
 </g>
 <path class="cls-4" d="m98.4 413.37h21s0 0 0 0h3.56"/>
 <path class="cls-5" d="M98.4,414.37H97.26l.13-1-.14-1H98.4"/>
 <path class="cls-6" d="m138.33 413.44-14.27 4.64v-9.26z"/>
 <path class="cls-1" d="m534.72 511.3c5.22 0 9.44 5.28 9.44 11.8s-4.22 11.8-9.44 11.8h-75.5c-5.2 0-9.43-5.3-9.43-11.8s4.2-11.8 9.42-11.8z"/>
 <path class="cls-3" d="m534.72 534.89c-5.2 0-9.43-5.28-9.43-11.8s4.2-11.8 9.42-11.8"/>
 <g data-name="eI">
  <path class="cls-2" d="M478.05,520.15V523h4.26v.86h-4.26v3.09h-1v-7.66h5.4v.87h-4.38" data-name="fx"/>
  <path class="cls-2" d="m483.6 526.94v-8.06h1v8.06h-1" data-name="fy"/>
  <path class="cls-2" d="m488.39 521c1.91 0 2.62 1.14 2.62 3s-0.83 3.06-2.65 3.06-2.56-1.2-2.6-3.06c0-2 0.87-3 2.63-3zm0 5.37c1.36 0 1.63-1 1.63-2.32s-0.24-2.31-1.57-2.31-1.64 1-1.64 2.31 0.31 2.29 1.58 2.32" data-name="fk"/>
  <path class="cls-2" d="M497.83,526.94h-1.11l-1.23-5.07-1.27,5.07h-1.11l-1.67-5.87h1l1.21,5.06,1.32-5.06H496l1.27,5.06,1.29-5.06h1" data-name="fj"/>
 </g>
 <path class="cls-1" d="m534.72 544.92c5.22 0 9.44 5.28 9.44 11.8s-4.22 11.8-9.44 11.8h-75.5c-5.2 0-9.43-5.3-9.43-11.8s4.2-11.8 9.42-11.8z"/>
 <path class="cls-3" d="m534.72 568.51c-5.2 0-9.43-5.28-9.43-11.8s4.2-11.8 9.42-11.8"/>
 <g data-name="eI">
  <path class="cls-2" d="M478.05,553.77v2.84h4.26v.86h-4.26v3.09h-1V552.9h5.4v.87h-4.38" data-name="fx"/>
  <path class="cls-2" d="m483.6 560.56v-8.06h1v8.06h-1" data-name="fy"/>
  <path class="cls-2" d="m488.39 554.57c1.91 0 2.62 1.14 2.62 3.06s-0.83 3-2.65 3-2.56-1.2-2.6-3c0-2.04 0.87-3.06 2.63-3.06zm0 5.37c1.36 0 1.63-1 1.63-2.31s-0.24-2.32-1.57-2.32-1.64 1-1.64 2.32 0.31 2.28 1.58 2.31" data-name="fk"/>
  <path class="cls-2" d="M497.83,560.56h-1.11l-1.23-5.06-1.27,5.06h-1.11l-1.67-5.87h1l1.21,5.06,1.32-5.06H496l1.27,5.06,1.29-5.06h1" data-name="fj"/>
 </g>
 <path class="cls-1" d="m534.72 578.54c5.22 0 9.44 5.28 9.44 11.8s-4.22 11.8-9.44 11.8h-75.5c-5.2 0-9.43-5.3-9.43-11.8s4.2-11.8 9.42-11.8z"/>
 <path class="cls-3" d="m534.72 602.13c-5.2 0-9.43-5.28-9.43-11.8s4.2-11.8 9.42-11.8"/>
 <g data-name="eI">
  <path class="cls-2" d="M478.05,587.39v2.84h4.26v.86h-4.26v3.09h-1v-7.66h5.4v.87h-4.38" data-name="fx"/>
  <path class="cls-2" d="m483.6 594.18v-8.06h1v8.06h-1" data-name="fy"/>
  <path class="cls-2" d="m488.39 588.19c1.91 0 2.62 1.14 2.62 3.06s-0.83 3-2.65 3-2.56-1.2-2.6-3c0-2.04 0.87-3.06 2.63-3.06zm0 5.37c1.36 0 1.63-1 1.63-2.31s-0.24-2.32-1.57-2.32-1.64 1-1.64 2.32 0.31 2.28 1.58 2.31" data-name="fk"/>
  <path class="cls-2" d="M497.83,594.18h-1.11l-1.23-5.06-1.27,5.06h-1.11l-1.67-5.87h1l1.21,5.07,1.32-5.07H496l1.27,5.07,1.29-5.07h1" data-name="fj"/>
 </g>
 <path class="cls-4" d="M405.37,521.39H430m-24.6,0h-1"/>
 <path class="cls-6" d="M445.26,521.4,431,526v-9.27Z"/>
 <path class="cls-4" d="m405.37 554.14h24.73m-24.7 0h-1"/>
 <path class="cls-6" d="m445.37 554.15-14.27 4.64v-9.27z"/>
 <path class="cls-4" d="m405.37 590.67h24.45m-24.42 0h-1"/>
 <path class="cls-6" d="M445.08,590.67l-14.26,4.64V586Z"/>
 <path class="cls-1" d="m88.2 511.3c5.22 0 9.45 5.28 9.45 11.8s-4.23 11.8-9.44 11.8h-75.5c-5.2 0-9.43-5.3-9.43-11.8s4.22-11.8 9.44-11.8z"/>
 <path class="cls-3" d="m88.2 534.89c-5.2 0-9.43-5.28-9.43-11.8s4.23-11.8 9.44-11.8"/>
 <g data-name="eI">
  <path class="cls-2" d="M31.53,520.15V523h4.26v.86H31.53v3.09h-1v-7.66h5.4v.87H31.53" data-name="fx"/>
  <path class="cls-2" d="m37.09 526.94v-8.06h1v8.06h-1" data-name="fy"/>
  <path class="cls-2" d="m41.87 521c1.91 0 2.62 1.14 2.62 3s-0.83 3.06-2.65 3.06-2.56-1.2-2.59-3.06c0-2 0.86-3 2.62-3zm0 5.37c1.36 0 1.64-1 1.64-2.32s-0.25-2.31-1.58-2.31-1.63 1-1.63 2.31 0.31 2.29 1.57 2.32" data-name="fk"/>
  <path class="cls-2" d="M51.32,526.94H50.2L49,521.87l-1.27,5.07H46.59l-1.66-5.87h1l1.21,5.06,1.33-5.06h1l1.27,5.06,1.3-5.06H53" data-name="fj"/>
 </g>
 <path class="cls-1" d="m88.2 544.92c5.22 0 9.45 5.28 9.45 11.8s-4.23 11.8-9.44 11.8h-75.5c-5.2 0-9.43-5.3-9.43-11.8s4.22-11.8 9.44-11.8z"/>
 <path class="cls-3" d="m88.2 568.51c-5.2 0-9.43-5.28-9.43-11.8s4.23-11.8 9.44-11.8"/>
 <g data-name="eI">
  <path class="cls-2" d="M31.53,553.77v2.84h4.26v.86H31.53v3.09h-1V552.9h5.4v.87H31.53" data-name="fx"/>
  <path class="cls-2" d="m37.09 560.56v-8.06h1v8.06h-1" data-name="fy"/>
  <path class="cls-2" d="m41.87 554.57c1.91 0 2.62 1.14 2.62 3.06s-0.83 3-2.65 3-2.56-1.2-2.59-3c0-2.04 0.86-3.06 2.62-3.06zm0 5.37c1.36 0 1.64-1 1.64-2.31s-0.25-2.32-1.58-2.32-1.63 1-1.63 2.32 0.31 2.28 1.57 2.31" data-name="fk"/>
  <path class="cls-2" d="M51.32,560.56H50.2L49,555.5l-1.27,5.06H46.59l-1.66-5.87h1l1.21,5.06,1.33-5.06h1l1.27,5.06,1.3-5.06H53" data-name="fj"/>
 </g>
 <path class="cls-1" d="m88.2 578.54c5.22 0 9.45 5.28 9.45 11.8s-4.23 11.8-9.44 11.8h-75.5c-5.2 0-9.43-5.3-9.43-11.8s4.22-11.8 9.44-11.8z"/>
 <path class="cls-3" d="m88.2 602.13c-5.2 0-9.43-5.28-9.43-11.8s4.23-11.8 9.44-11.8"/>
 <g data-name="eI">
  <path class="cls-2" d="M31.53,587.39v2.84h4.26v.86H31.53v3.09h-1v-7.66h5.4v.87H31.53" data-name="fx"/>
  <path class="cls-2" d="m37.09 594.18v-8.06h1v8.06h-1" data-name="fy"/>
  <path class="cls-2" d="m41.87 588.19c1.91 0 2.62 1.14 2.62 3.06s-0.83 3-2.65 3-2.56-1.2-2.59-3c0-2.04 0.86-3.06 2.62-3.06zm0 5.37c1.36 0 1.64-1 1.64-2.31s-0.25-2.32-1.58-2.32-1.63 1-1.63 2.32 0.31 2.28 1.57 2.31" data-name="fk"/>
  <path class="cls-2" d="M51.32,594.18H50.2L49,589.12l-1.27,5.06H46.59l-1.66-5.87h1l1.21,5.07,1.33-5.07h1l1.27,5.07,1.3-5.07H53" data-name="fj"/>
 </g>
 <path class="cls-4" d="m100.16 523.09h24.4"/>
 <path class="cls-5" d="M100.18,524.09H99l.13-1-.13-1h1.15"/>
 <path class="cls-6" d="m139.83 523.09-14.27 4.64v-9.27z"/>
 <path class="cls-4" d="m100.16 556.72h24.4"/>
 <path class="cls-5" d="M100.18,557.72H99l.13-1-.13-1h1.15"/>
 <path class="cls-6" d="m139.83 556.72-14.27 4.63v-9.27z"/>
 <path class="cls-4" d="m100.16 590.34h24.4"/>
 <path class="cls-5" d="M100.18,591.34H99l.13-1-.13-1h1.15"/>
 <path class="cls-6" d="m139.83 590.34-14.27 4.66v-9.3z"/>
 <path class="cls-7" d="M38,7.5a6,6,0,0,1,6-6h457.6a6,6,0,0,1,6,6V45.25a6,6,0,0,1-6,6H44a6,6,0,0,1-6-6Z"/>
 <g id="bP">
  <path class="cls-2" d="M116,15.92v6.65h11V26H116v7.86h-4.5V12.46h15.82v3.46H116" data-name="fV"/>
  <path id="gf" class="cls-2" d="M130.49,33.89V11.34h4.32V33.89h-4.32"/>
  <path id="ge" class="cls-2" d="m146.47 17.13c5.53 0 8.3 3.11 8.3 8.55s-3 8.56-8.38 8.56-8.21-3.11-8.21-8.56 2.94-8.55 8.29-8.55zm-0.08 14.17c3 0 3.89-2.42 3.89-5.62 0-3.45-0.87-5.62-3.72-5.62s-3.89 2.25-3.89 5.62c0 3.11 0.87 5.62 3.72 5.62"/>
  <path id="gh" class="cls-2" d="M175.86,33.89h-4.5L168,20.5l-3.45,13.39H160l-4.23-16.42h4L162.55,30c.78-4.49,2.07-8.38,3.11-12.53h4.58L173.44,30l2.76-12.53h4"/>
 </g>
 <g data-name="eJ">
  <path id="gB" class="cls-2" d="M190.81,12.46c8,.09,17.8-1.38,17.63,6.83-.09,6.48-6,7.6-13.14,7.08v7.52h-4.49Zm4.49,10.46c4.06,0,8.64.6,8.64-3.55S199.28,16,195.3,16v6.92"/>
  <path id="ga" class="cls-2" d="M221.14,20.93c-3.37-1-5.18,1.12-5.18,4.93v8h-4.33l-.08-16.42h4.06c.17,1.13-.09,2.51.26,3.46.52-2.42,2.33-4.58,5.27-3.54v3.54"/>
  <path class="cls-2" d="m231.08 17.13c5.53 0 8.3 3.11 8.3 8.55s-3 8.56-8.39 8.56-8.21-3.11-8.21-8.56 2.94-8.55 8.3-8.55zm-0.08 14.17c3 0 3.89-2.42 3.89-5.62 0-3.45-0.86-5.62-3.71-5.62s-3.89 2.25-3.89 5.62c0 3.11 0.86 5.62 3.71 5.62" data-name="ge"/>
  <path id="gv" class="cls-2" d="M256.92,28.45c-.61,3.63-3.29,5.79-7.43,5.79-5.1,0-7.26-3.29-7.78-8.47-1-9.51,13.31-11.84,15-3.11l-4.24.17a2.9,2.9,0,0,0-3-2.77c-2.6,0-3,2.42-3.29,5.54-.52,6.39,5.62,7.51,6.4,2.59"/>
  <path class="cls-2" d="M273.77,29.74a6.94,6.94,0,0,1-7.09,4.5C261.5,34.06,259,31,259,25.6s2.6-8.47,7.78-8.47c5.36,0,7.17,3.89,7.26,9.33H263.49c0,2.68.69,4.75,3.37,4.84,1.55,0,2.59-.61,2.94-1.9Zm-3.89-6c.43-4-4.92-5.44-6.05-1.81a5.66,5.66,0,0,0-.34,1.81h6.39" data-name="fZ"/>
  <path id="gd" class="cls-2" d="M286.91,22c.08-2.51-6.05-2.94-6.14-.35,1.3,4,10.2.61,10.28,7.43.09,7.18-14.17,6.57-14.86.78l3.72-.6c.34,1.64,1.72,2.16,3.8,2.16,2.85.69,4.92-2.6,2.07-3.55-3.71-1.21-8.81-.95-9-5.7-.18-6.91,13.3-6.4,13.91-.61"/>
  <path class="cls-2" d="M304.19,22c.09-2.51-6.05-2.94-6.14-.35,1.3,4,10.2.61,10.29,7.43.08,7.18-14.17,6.57-14.87.78l3.72-.6c.35,1.64,1.73,2.16,3.8,2.16,2.85.69,4.93-2.6,2.08-3.55-3.72-1.21-8.82-.95-9-5.7-.17-6.91,13.31-6.4,13.91-.61" data-name="gd"/>
  <path class="cls-2" d="m319.14 17.13c5.53 0 8.3 3.11 8.3 8.55s-3 8.56-8.39 8.56-8.21-3.11-8.21-8.56 2.94-8.55 8.3-8.55zm-0.09 14.17c3 0 3.89-2.42 3.89-5.62 0-3.45-0.86-5.62-3.71-5.62s-3.89 2.25-3.89 5.62c0 3.11 0.86 5.62 3.71 5.62" data-name="ge"/>
  <path class="cls-2" d="M340.23,20.93c-3.37-1-5.19,1.12-5.19,4.93v8h-4.32l-.09-16.42h4.07c.17,1.13-.09,2.51.26,3.46.51-2.42,2.33-4.58,5.27-3.54v3.54" data-name="ga"/>
 </g>
 <g data-name="eK">
  <path id="gR" class="cls-2" d="M361.05,15.92v18h-4.49v-18h-6.91V12.46H368v3.46h-6.92"/>
  <path id="gC" class="cls-2" d="M376.52,34.76c-1.29,3.71-3.71,6.56-9,5.35v-3c3,.69,4.58-1,5.09-3.37l-6.48-16.25h4.5l4.15,12.79c1-4.49,2.41-8.64,3.8-12.79H383"/>
  <path class="cls-2" d="M394.84,17.13c4.58,0,6.05,3.8,6.05,8.47,0,4.84-1.64,8.46-6.3,8.64-2.68.08-3.89-1.47-5.1-2.94.26,2.85.17,6,.17,9.07h-4.32l-.09-22.9h4.15a22.56,22.56,0,0,0,.26,2.68C390.61,18.08,392.17,17.13,394.84,17.13ZM393,31.3c2.85,0,3.37-2.68,3.46-5.7,0-3.29-.78-5.54-3.46-5.54-4.84,0-4.75,11.24,0,11.24" data-name="gn"/>
  <path class="cls-2" d="M418.09,29.74a6.94,6.94,0,0,1-7.09,4.5c-5.18-.18-7.69-3.2-7.69-8.64s2.6-8.47,7.78-8.47c5.36,0,7.17,3.89,7.26,9.33H407.81c0,2.68.69,4.75,3.37,4.84,1.55,0,2.59-.61,2.94-1.9Zm-3.89-6c.43-4-4.92-5.44-6.05-1.81a5.66,5.66,0,0,0-.34,1.81h6.39" data-name="fZ"/>
  <path class="cls-2" d="M431.23,22c.08-2.51-6.05-2.94-6.14-.35,1.3,4,10.2.61,10.29,7.43.08,7.18-14.18,6.57-14.87.78l3.72-.6c.34,1.64,1.73,2.16,3.8,2.16,2.85.69,4.93-2.6,2.07-3.55-3.71-1.21-8.81-.95-9-5.7-.18-6.91,13.3-6.4,13.91-.61" data-name="gd"/>
 </g>
</svg>
