<?xml version="1.0" encoding="UTF-8"?>
<svg data-name="Layer 1" version="1.1" viewBox="0 0 1626.9 797.7" xmlns="http://www.w3.org/2000/svg">
 <title>Figure12</title>
 <defs>
  <style>.cls-1,.cls-3{fill:#fff;}.cls-1,.cls-4,.cls-6,.cls-7,.cls-8{stroke:#5e5f5f;}.cls-1,.cls-3,.cls-7{stroke-width:3px;}.cls-2,.cls-7{fill:#333;}.cls-3{fill-opacity:0;stroke:#010101;stroke-opacity:0;}.cls-4,.cls-8{fill:none;}.cls-4,.cls-6{stroke-width:2px;}.cls-5,.cls-6{fill:#5e5f5f;}.cls-8{stroke-width:1.5px;}</style>
 </defs>
 <path class="cls-1" d="m121.5 196a6 6 0 0 1 6-6h148a6 6 0 0 1 6 6v108a6 6 0 0 1-6 6h-148a6 6 0 0 1-6-6z"/>
 <g id="A">
  <path id="eE" class="cls-2" d="m185.76 241.52v-1.85h2v1.85zm0 14.26v-11.73h2v11.73h-2"/>
  <path id="fj" class="cls-2" d="m194.4 243.8a3.9 3.9 0 0 1 3.7 2l-0.06-6.17h2l0.06 16.11h-1.85a17.33 17.33 0 0 0-0.19-1.92 3.51 3.51 0 0 1-3.66 2.18c-3.27 0-4.26-2.4-4.32-6 0-4.1 1.42-6.2 4.32-6.2zm0.56 1.48c-2.47 0-2.84 2.1-2.84 4.63s0.37 4.57 2.78 4.57c2.59 0 3.14-2 3.14-4.69s-0.55-4.57-3.08-4.51"/>
  <path id="et" class="cls-2" d="m203 255.78v-16.11h2v16.11h-2"/>
  <path id="eq" class="cls-2" d="M212.55,243.8c3.89,0,5.31,2.6,5.18,6.55H209.4c0,2.46.87,4.13,3.27,4.19a2.88,2.88,0,0,0,3-1.79l1.73.5c-.68,1.73-2.29,2.77-4.76,2.77-3.58,0-5.43-2.28-5.37-6.17S208.91,243.8,212.55,243.8Zm3.21,5c.37-3.7-4.69-4.75-6-1.73a4.62,4.62,0,0,0-.37,1.73h6.36"/>
 </g>
 <path class="cls-1" d="m421.5 194.67a6 6 0 0 1 6-6h148a6 6 0 0 1 6 6v108a6 6 0 0 1-6 6h-148a6 6 0 0 1-6-6z"/>
 <g id="C">
  <path id="ep" class="cls-2" d="M463.6,244c-2.47,0-3,2-3,4.51s.55,4.63,3,4.63a2.46,2.46,0,0,0,2.65-2.35l2,.13a4.24,4.24,0,0,1-4.57,3.76c-3.64,0-4.69-2.53-5.06-6.11-.62-5.74,6.23-8.09,9.07-4a4.7,4.7,0,0,1,.43,1.36l-2,.18A2.37,2.37,0,0,0,463.6,244"/>
  <path id="eo" class="cls-2" d="m475 242.47c3.82-0.06 5.24 2.28 5.24 6.11s-1.66 6.11-5.3 6.11-5.13-2.41-5.19-6.11c-0.04-4.07 1.69-6.11 5.25-6.11zm-0.06 10.74c2.71 0.06 3.27-1.91 3.27-4.63s-0.54-4.58-3.21-4.58-3.27 2-3.27 4.63 0.61 4.57 3.15 4.63"/>
  <path id="eC" class="cls-2" d="M488.35,242.47c5.5-.25,3.27,7.16,3.71,12h-2V247c0-1.92-.49-3-2.41-3-4.44.13-2.71,6.3-3,10.43h-2l-.06-11.72h1.85a9.45,9.45,0,0,0,.13,2,3.9,3.9,0,0,1,3.76-2.22"/>
  <path id="em" class="cls-2" d="M495.33,239.14c5.37.06,11.79-.93,11.79,4.63,0,4.81-4.76,4.93-9.76,4.69v6h-2Zm2,7.71c3.52,0,7.66.68,7.66-3.08s-4.2-2.91-7.66-3v6"/>
  <path class="cls-2" d="m514.46 242.47c3.89 0 5.31 2.59 5.19 6.54h-8.34c0 2.47 0.87 4.14 3.28 4.2a2.87 2.87 0 0 0 3-1.79l1.73 0.49c-0.68 1.73-2.28 2.78-4.75 2.78-3.58 0-5.44-2.28-5.37-6.17s1.62-6.05 5.26-6.05zm3.21 5c0.37-3.7-4.69-4.75-6-1.73a4.38 4.38 0 0 0-0.38 1.73h6.36" data-name="eq"/>
  <path class="cls-2" d="M527.86,242.47c5.49-.25,3.27,7.16,3.7,12h-2V247c0-1.92-.5-3-2.41-3-4.45.13-2.72,6.3-3,10.43h-2l-.06-11.72H524a10.22,10.22,0,0,0,.12,2,3.9,3.9,0,0,1,3.77-2.22" data-name="eC"/>
  <path class="cls-2" d="m538.23 242.47a3.9 3.9 0 0 1 3.7 2l-0.06-6.18h2l0.06 16.11h-1.85a17.14 17.14 0 0 0-0.19-1.91 3.52 3.52 0 0 1-3.64 2.16c-3.27 0-4.26-2.41-4.32-6.05-0.02-4.03 1.4-6.13 4.3-6.13zm0.55 1.48c-2.47 0-2.84 2.1-2.84 4.63s0.37 4.57 2.78 4.57c2.59 0 3.15-2 3.15-4.69s-0.56-4.57-3.09-4.51" data-name="fj"/>
 </g>
 <path class="cls-1" d="m721.5 194.67a6 6 0 0 1 6-6h148a6 6 0 0 1 6 6v108a6 6 0 0 1-6 6h-148a6 6 0 0 1-6-6z"/>
 <g id="D">
  <path class="cls-2" d="M756.19,244c-2.47,0-3,2-3,4.51s.55,4.63,3,4.63a2.47,2.47,0,0,0,2.66-2.35l2,.13a4.23,4.23,0,0,1-4.57,3.76c-3.64,0-4.69-2.53-5.06-6.11-.62-5.74,6.24-8.09,9.08-4a5.4,5.4,0,0,1,.43,1.36l-2,.18a2.36,2.36,0,0,0-2.53-2.16" data-name="ep"/>
  <path class="cls-2" d="m767.55 242.47c3.83-0.06 5.25 2.28 5.25 6.11s-1.67 6.11-5.31 6.11-5.13-2.41-5.19-6.11c0-4.07 1.7-6.11 5.25-6.11zm-0.06 10.74c2.71 0.06 3.27-1.91 3.27-4.63s-0.49-4.63-3.15-4.63-3.27 2-3.27 4.63 0.62 4.57 3.15 4.63" data-name="eo"/>
  <path class="cls-2" d="M780.94,242.47c5.5-.25,3.28,7.16,3.71,12h-2V247c0-1.92-.49-3-2.4-3-4.45.13-2.72,6.3-3,10.43h-2l-.07-11.72h1.86a9.48,9.48,0,0,0,.12,2,3.9,3.9,0,0,1,3.76-2.22" data-name="eC"/>
  <path class="cls-2" d="M793.29,242.47c5.49-.25,3.27,7.16,3.7,12h-2V247c0-1.92-.5-3-2.41-3-4.44.13-2.71,6.3-3,10.43h-2l-.06-11.72h1.85a10.22,10.22,0,0,0,.12,2,3.9,3.9,0,0,1,3.77-2.22" data-name="eC"/>
  <path class="cls-2" d="m804.59 242.47c3.89 0 5.31 2.59 5.18 6.54h-8.33c0 2.47 0.86 4.14 3.27 4.2a2.87 2.87 0 0 0 3-1.79l1.73 0.49c-0.68 1.73-2.28 2.78-4.75 2.78-3.58 0-5.43-2.28-5.37-6.17s1.62-6.05 5.27-6.05zm3.21 5c0.37-3.7-4.7-4.75-6-1.73a4.39 4.39 0 0 0-0.37 1.73h6.36" data-name="eq"/>
  <path class="cls-2" d="M816.69,244c-2.47,0-3,2-3,4.51s.56,4.63,3,4.63a2.46,2.46,0,0,0,2.65-2.35l2,.13a4.23,4.23,0,0,1-4.56,3.76c-3.65,0-4.69-2.53-5.06-6.11-.62-5.74,6.23-8.09,9.07-4a4.7,4.7,0,0,1,.43,1.36l-2,.18a2.37,2.37,0,0,0-2.53-2.16" data-name="ep"/>
  <path id="eD" class="cls-2" d="M825.51,251.54c-.12,1.48,1.11,1.79,2.35,1.36v1.48c-2,.62-4.32.31-4.32-2.4v-7.84h-1.36v-1.42h1.48l.56-2.66h1.29v2.66h2.16v1.42h-2.16v7.4"/>
  <path class="cls-2" d="m834.22 242.47c3.88 0 5.3 2.59 5.18 6.54h-8.33c0 2.47 0.86 4.14 3.27 4.2a2.87 2.87 0 0 0 3-1.79l1.73 0.49c-0.68 1.73-2.28 2.78-4.75 2.78-3.58 0-5.43-2.28-5.37-6.17s1.62-6.05 5.27-6.05zm3.21 5c0.37-3.7-4.7-4.75-6-1.73a4.39 4.39 0 0 0-0.37 1.73h6.36" data-name="eq"/>
  <path class="cls-2" d="m845.64 242.47a3.9 3.9 0 0 1 3.7 2l-0.06-6.18h2l0.06 16.11h-1.85a17.26 17.26 0 0 0-0.18-1.91 3.52 3.52 0 0 1-3.64 2.16c-3.28 0-4.26-2.41-4.33-6.05-0.03-4.03 1.39-6.13 4.3-6.13zm0.55 1.48c-2.47 0-2.84 2.1-2.84 4.63s0.37 4.57 2.78 4.57c2.59 0 3.15-2 3.15-4.69s-0.56-4.57-3.09-4.51" data-name="fj"/>
 </g>
 <path class="cls-1" d="m721.5 407.67a6 6 0 0 1 6-6h148a6 6 0 0 1 6 6v108a6 6 0 0 1-6 6h-148a6 6 0 0 1-6-6z"/>
 <g id="dS">
  <path class="cls-2" d="m758.63 453.19v-1.86h2v1.86zm0 14.25v-11.72h2v11.72h-2" data-name="eE"/>
  <path class="cls-2" d="m767.27 455.47a3.91 3.91 0 0 1 3.71 2l-0.07-6.18h2l0.06 16.11h-1.87a15 15 0 0 0-0.19-1.91 3.5 3.5 0 0 1-3.64 2.16c-3.27 0-4.26-2.41-4.32-6.05 0.05-4.03 1.42-6.13 4.32-6.13zm0.56 1.48c-2.47 0-2.84 2.1-2.84 4.63s0.37 4.57 2.78 4.57c2.59 0 3.14-2 3.14-4.69s-0.55-4.57-3.08-4.51" data-name="fj"/>
  <path class="cls-2" d="m780.54 455.47c3.89 0 5.31 2.59 5.19 6.54h-8.33c0 2.47 0.86 4.14 3.27 4.2a2.87 2.87 0 0 0 3-1.79l1.73 0.49c-0.68 1.73-2.28 2.78-4.75 2.78-3.58 0-5.44-2.28-5.37-6.17s1.62-6.05 5.26-6.05zm3.21 5c0.37-3.7-4.69-4.75-6-1.73a4.39 4.39 0 0 0-0.37 1.73h6.35" data-name="eq"/>
  <path class="cls-2" d="M793.94,455.47c5.49-.25,3.27,7.16,3.7,12h-2V460c0-1.92-.5-3-2.41-3-4.45.13-2.72,6.3-3,10.43h-2l-.06-11.72h1.85a10.22,10.22,0,0,0,.12,2,3.9,3.9,0,0,1,3.77-2.22" data-name="eC"/>
  <path class="cls-2" d="M802.7,464.54c-.12,1.48,1.11,1.79,2.35,1.36v1.48c-2,.62-4.32.31-4.32-2.4v-7.84h-1.36v-1.42h1.48l.56-2.66h1.29v2.66h2.16v1.42H802.7v7.4" data-name="eD"/>
  <path class="cls-2" d="m806.72 453.19v-1.86h2v1.86zm0 14.25v-11.72h2v11.72h-2" data-name="eE"/>
  <path class="cls-2" d="M816.35,453c-1.92-.56-2.6.62-2.35,2.72h2.35v1.42H814v10.3h-1.91v-10.3h-1.67v-1.42h1.67c-.44-3.21,1-5.07,4.26-4.2V453" data-name="eO"/>
  <path class="cls-2" d="m817.77 453.19v-1.86h2v1.86zm0 14.25v-11.72h2v11.72h-2" data-name="eE"/>
  <path class="cls-2" d="m827.33 455.47c3.89 0 5.31 2.59 5.19 6.54h-8.33c0 2.47 0.86 4.14 3.27 4.2a2.87 2.87 0 0 0 3-1.79l1.73 0.49c-0.68 1.73-2.28 2.78-4.75 2.78-3.58 0-5.44-2.28-5.37-6.17s1.62-6.05 5.26-6.05zm3.21 5c0.37-3.7-4.69-4.75-6-1.73a4.39 4.39 0 0 0-0.37 1.73h6.35" data-name="eq"/>
  <path class="cls-2" d="m838.75 455.47a3.9 3.9 0 0 1 3.71 2l-0.06-6.18h2l0.06 16.11h-1.85a17.26 17.26 0 0 0-0.18-1.91 3.52 3.52 0 0 1-3.65 2.16c-3.27 0-4.26-2.41-4.32-6.05-0.03-4.03 1.39-6.13 4.29-6.13zm0.56 1.48c-2.47 0-2.84 2.1-2.84 4.63s0.37 4.57 2.78 4.57c2.59 0 3.15-2 3.15-4.69s-0.56-4.57-3.09-4.51" data-name="fj"/>
 </g>
 <path class="cls-1" d="m421.5 407.67a6 6 0 0 1 6-6h148a6 6 0 0 1 6 6v108a6 6 0 0 1-6 6h-148a6 6 0 0 1-6-6z"/>
 <g id="dT">
  <path class="cls-2" d="M459.65,453c-1.92-.56-2.59.62-2.35,2.72h2.35v1.42H457.3v10.3h-1.91v-10.3h-1.67v-1.42h1.67c-.43-3.21,1.05-5.07,4.26-4.2V453" data-name="eO"/>
  <path id="en" class="cls-2" d="M466.62,457.38c-4.81-1-3.27,5.62-3.52,10.06h-2l-.06-11.72h1.85a15.24,15.24,0,0,0,.12,2.4c.37-1.66,1.42-3,3.58-2.53v1.79"/>
  <path class="cls-2" d="m473.1 455.47c3.83-0.06 5.25 2.28 5.25 6.11s-1.66 6.11-5.31 6.11-5.12-2.41-5.18-6.11c0-4.07 1.73-6.11 5.24-6.11zm-0.1 10.74c2.72 0.06 3.27-1.91 3.27-4.63s-0.49-4.63-3.14-4.63-3.27 2-3.27 4.63 0.61 4.57 3.14 4.63" data-name="eo"/>
  <path id="ex" class="cls-2" d="M492.24,457c-4.14.19-2.34,6.48-2.72,10.43h-1.91V460c0-1.79-.31-3.09-2.16-3-4.07.25-2.35,6.42-2.72,10.43h-1.91l-.06-11.72h1.85a10.22,10.22,0,0,0,.12,2c.62-2.71,6.12-3.09,6.61,0a3.8,3.8,0,0,1,3.58-2.22c5.25-.12,2.9,7.34,3.39,12H494.4V460c0-1.79-.31-3-2.16-3"/>
  <path class="cls-2" d="M499.59,452.14c5.37.06,11.79-.93,11.79,4.63,0,4.81-4.76,4.93-9.76,4.69v6h-2Zm2,7.71c3.52,0,7.66.68,7.66-3.08s-4.2-2.91-7.66-3v6.05" data-name="em"/>
  <path class="cls-2" d="m518.72 455.47c3.89 0 5.31 2.59 5.19 6.54h-8.34c0 2.47 0.87 4.14 3.28 4.2a2.87 2.87 0 0 0 3-1.79l1.73 0.49c-0.68 1.73-2.29 2.78-4.75 2.78-3.58 0-5.44-2.28-5.37-6.17s1.62-6.05 5.26-6.05zm3.21 5c0.37-3.7-4.69-4.75-6-1.73a4.58 4.58 0 0 0-0.37 1.73h6.36" data-name="eq"/>
  <path class="cls-2" d="M532.12,455.47c5.49-.25,3.27,7.16,3.7,12h-2V460c0-1.92-.5-3-2.41-3-4.45.13-2.72,6.3-3,10.43h-2l-.06-11.72h1.85a10.22,10.22,0,0,0,.12,2,3.9,3.9,0,0,1,3.77-2.22" data-name="eC"/>
  <path class="cls-2" d="m542.49 455.47a3.9 3.9 0 0 1 3.7 2l-0.06-6.18h2l0.07 16.11h-1.86a17.26 17.26 0 0 0-0.18-1.91 3.52 3.52 0 0 1-3.64 2.16c-3.27 0-4.26-2.41-4.32-6.05-0.03-4.03 1.39-6.13 4.29-6.13zm0.51 1.53c-2.47 0-2.84 2.1-2.84 4.63s0.37 4.57 2.78 4.57c2.59 0 3.15-2 3.15-4.69s-0.56-4.57-3.09-4.51" data-name="fj"/>
 </g>
 <path class="cls-1" d="m121.5 416a6 6 0 0 1 6-6h148a6 6 0 0 1 6 6v108a6 6 0 0 1-6 6h-148a6 6 0 0 1-6-6z"/>
 <g id="dU">
  <path class="cls-2" d="M165.36,465.72c-4.82-1-3.27,5.61-3.52,10.06h-2l-.06-11.73h1.85a15.38,15.38,0,0,0,.13,2.41c.37-1.67,1.42-3,3.58-2.53v1.79" data-name="en"/>
  <path class="cls-2" d="M171.59,465.35c-2.47,0-3,2-3,4.5s.56,4.63,3,4.63a2.46,2.46,0,0,0,2.66-2.34l2,.12a4.23,4.23,0,0,1-4.57,3.76c-3.64,0-4.69-2.53-5.06-6.11-.61-5.74,6.24-8.08,9.08-4a5.26,5.26,0,0,1,.43,1.36l-2,.19a2.35,2.35,0,0,0-2.53-2.16" data-name="ep"/>
  <path id="ey" class="cls-2" d="M183.88,463.8c3.39.06,4.32,2.53,4.32,6.05s-1,6-4.32,6.17a3.8,3.8,0,0,1-3.71-2.09l.06,6.48h-2l-.06-16.36h1.91l.12,1.85A3.64,3.64,0,0,1,183.88,463.8Zm-.5,10.74c2.47,0,2.78-2.1,2.78-4.63s-.37-4.5-2.78-4.56c-2.59,0-3.15,2-3.15,4.69s.62,4.5,3.15,4.5"/>
  <path class="cls-2" d="M192.77,472.88c-.13,1.48,1.11,1.79,2.34,1.35v1.49c-2,.61-4.32.3-4.32-2.41v-7.84h-1.36v-1.42h1.48l.56-2.65h1.3v2.65h2.16v1.42h-2.16v7.41" data-name="eD"/>
  <path id="fP" class="cls-2" d="m197.33 475.78v-15.31h2.1v15.31h-2.1"/>
  <path class="cls-2" d="M208.69,463.8c5.5-.24,3.27,7.16,3.71,12h-2v-7.47c0-1.91-.49-3-2.41-3-4.44.12-2.71,6.29-3,10.43h-2L203,464.05h1.85a9.4,9.4,0,0,0,.13,2,3.9,3.9,0,0,1,3.76-2.22" data-name="eC"/>
  <path class="cls-2" d="M220.91,463.8c3.4.06,4.32,2.53,4.32,6.05s-1,6-4.32,6.17a3.79,3.79,0,0,1-3.7-2.09l.06,6.48h-2l-.07-16.36h1.92l.12,1.85A3.64,3.64,0,0,1,220.91,463.8Zm-.49,10.74c2.47,0,2.78-2.1,2.78-4.63s-.37-4.5-2.78-4.56c-2.59,0-3.15,2-3.15,4.69s.62,4.5,3.15,4.5" data-name="ey"/>
  <path id="eK" class="cls-2" d="M231.35,476c-5.5.25-3.34-7.16-3.77-12h2v7.41c0,1.91.43,3.08,2.4,3,4.45-.12,2.78-6.23,3.09-10.43H237l.06,11.73h-1.85a10.93,10.93,0,0,0-.12-2,3.85,3.85,0,0,1-3.7,2.28"/>
  <path class="cls-2" d="M242.15,472.88c-.13,1.48,1.11,1.79,2.34,1.35v1.49c-2,.61-4.32.3-4.32-2.41v-7.84h-1.36v-1.42h1.49l.55-2.65h1.3v2.65h2.16v1.42h-2.16v7.41" data-name="eD"/>
 </g>
 <path class="cls-1" d="m121.5 636a6 6 0 0 1 6-6h148a6 6 0 0 1 6 6v108a6 6 0 0 1-6 6h-148a6 6 0 0 1-6-6z"/>
 <g data-name="dU">
  <path class="cls-2" d="M165.36,685.72c-4.82-1-3.27,5.61-3.52,10.06h-2l-.06-11.73h1.85a15.38,15.38,0,0,0,.13,2.41c.37-1.67,1.42-3,3.58-2.53v1.79" data-name="en"/>
  <path class="cls-2" d="M171.59,685.35c-2.47,0-3,2-3,4.5s.56,4.63,3,4.63a2.46,2.46,0,0,0,2.66-2.34l2,.12a4.23,4.23,0,0,1-4.57,3.76c-3.64,0-4.69-2.53-5.06-6.11-.61-5.74,6.24-8.08,9.08-3.95a5.26,5.26,0,0,1,.43,1.36l-2,.19a2.35,2.35,0,0,0-2.53-2.16" data-name="ep"/>
  <path class="cls-2" d="M183.88,683.8c3.39.06,4.32,2.53,4.32,6.05s-1,6-4.32,6.17a3.8,3.8,0,0,1-3.71-2.09l.06,6.48h-2l-.06-16.36h1.91l.12,1.85A3.64,3.64,0,0,1,183.88,683.8Zm-.5,10.74c2.47,0,2.78-2.1,2.78-4.63s-.37-4.5-2.78-4.56c-2.59,0-3.15,2-3.15,4.69s.62,4.5,3.15,4.5" data-name="ey"/>
  <path class="cls-2" d="M192.77,692.88c-.13,1.48,1.11,1.79,2.34,1.35v1.49c-2,.61-4.32.3-4.32-2.41v-7.84h-1.36v-1.42h1.48l.56-2.65h1.3v2.65h2.16v1.42h-2.16v7.41" data-name="eD"/>
  <path class="cls-2" d="m197.33 695.78v-15.31h2.1v15.31h-2.1" data-name="fP"/>
  <path class="cls-2" d="M208.69,683.8c5.5-.24,3.27,7.16,3.71,12h-2v-7.47c0-1.91-.49-3-2.41-3-4.44.12-2.71,6.29-3,10.43h-2L203,684.05h1.85a9.4,9.4,0,0,0,.13,2,3.9,3.9,0,0,1,3.76-2.22" data-name="eC"/>
  <path class="cls-2" d="M220.91,683.8c3.4.06,4.32,2.53,4.32,6.05s-1,6-4.32,6.17a3.79,3.79,0,0,1-3.7-2.09l.06,6.48h-2l-.07-16.36h1.92l.12,1.85A3.64,3.64,0,0,1,220.91,683.8Zm-.49,10.74c2.47,0,2.78-2.1,2.78-4.63s-.37-4.5-2.78-4.56c-2.59,0-3.15,2-3.15,4.69s.62,4.5,3.15,4.5" data-name="ey"/>
  <path class="cls-2" d="M231.35,696c-5.5.25-3.34-7.16-3.77-12h2v7.41c0,1.91.43,3.08,2.4,3,4.45-.12,2.78-6.23,3.09-10.43H237l.06,11.73h-1.85a10.93,10.93,0,0,0-.12-2,3.85,3.85,0,0,1-3.7,2.28" data-name="eK"/>
  <path class="cls-2" d="M242.15,692.88c-.13,1.48,1.11,1.79,2.34,1.35v1.49c-2,.61-4.32.3-4.32-2.41v-7.84h-1.36v-1.42h1.49l.55-2.65h1.3v2.65h2.16v1.42h-2.16v7.41" data-name="eD"/>
 </g>
 <path class="cls-1" d="m421.5 634.67a6 6 0 0 1 6-6h148a6 6 0 0 1 6 6v108a6 6 0 0 1-6 6h-148a6 6 0 0 1-6-6z"/>
 <g id="dV">
  <path class="cls-2" d="m460.45 682.47a3.9 3.9 0 0 1 3.7 2l-0.06-6.18h2l0.06 16.11h-1.85a17.14 17.14 0 0 0-0.19-1.91 3.51 3.51 0 0 1-3.64 2.16c-3.27 0-4.26-2.41-4.32-6.05-0.02-4.03 1.4-6.13 4.3-6.13zm0.55 1.53c-2.47 0-2.84 2.1-2.84 4.63s0.37 4.57 2.77 4.57c2.6 0 3.15-2 3.15-4.69s-0.55-4.57-3.08-4.51" data-name="fj"/>
  <path id="ew" class="cls-2" d="M476.25,692.22c-.92,1.3-1.91,2.53-4.19,2.47s-3.58-1.29-3.58-3.52c-.07-3.95,3.88-3.89,7.71-3.89.19-2.16-.55-3.33-2.53-3.33-1.48.06-2.53.43-2.59,1.91l-2-.18c.31-2.28,2-3.21,4.69-3.21s4.45,1.23,4.45,3.95v5.06c-.07,1.24.43,2,1.72,1.67v1.23C478,694.94,476.13,694.26,476.25,692.22Zm-5.74-1.05a1.87,1.87,0,0,0,2,2c2.53-.19,3.89-1.79,3.7-4.57-2.65.13-5.68-.31-5.68,2.53"/>
  <path class="cls-2" d="M483.54,691.54c-.13,1.48,1.11,1.79,2.34,1.36v1.48c-2,.62-4.32.31-4.32-2.4v-7.84H480.2v-1.42h1.49l.55-2.66h1.3v2.66h2.16v1.42h-2.16v7.4" data-name="eD"/>
  <path class="cls-2" d="M494.77,692.22c-.92,1.3-1.91,2.53-4.2,2.47S487,693.4,487,691.17c-.06-3.95,3.89-3.89,7.72-3.89.18-2.16-.56-3.33-2.53-3.33-1.48.06-2.53.43-2.59,1.91l-2-.18c.31-2.28,2-3.21,4.69-3.21s4.45,1.23,4.45,3.95v5.06c-.07,1.24.43,2,1.72,1.67v1.23C496.5,694.94,494.65,694.26,494.77,692.22ZM489,691.17a1.87,1.87,0,0,0,2,2c2.53-.19,3.88-1.79,3.7-4.57-2.65.13-5.68-.31-5.68,2.53" data-name="ew"/>
  <path class="cls-2" d="m500.45 694.44v-15.3h2.1v15.3h-2.1" data-name="fP"/>
  <path class="cls-2" d="M511.81,682.47c5.49-.25,3.27,7.16,3.7,12h-2V687c0-1.92-.5-3-2.41-3-4.44.13-2.72,6.3-3,10.43h-2l-.06-11.72h1.85a10.22,10.22,0,0,0,.12,2,3.9,3.9,0,0,1,3.77-2.22" data-name="eC"/>
  <path class="cls-2" d="M524,682.47c3.4.06,4.32,2.53,4.32,6s-1,6.05-4.32,6.17a3.78,3.78,0,0,1-3.7-2.1l.06,6.48h-2l-.06-16.35h1.92l.12,1.85A3.64,3.64,0,0,1,524,682.47Zm-.49,10.74c2.47,0,2.77-2.1,2.77-4.63s-.37-4.51-2.77-4.57c-2.6,0-3.15,2-3.15,4.69s.62,4.51,3.15,4.51" data-name="ey"/>
  <path class="cls-2" d="M534.46,694.69c-5.49.25-3.33-7.16-3.76-12h2v7.4c0,1.92.43,3.09,2.41,3,4.44-.13,2.78-6.24,3.09-10.43h1.91l.06,11.72h-1.85a10.87,10.87,0,0,0-.12-2,3.85,3.85,0,0,1-3.71,2.28" data-name="eK"/>
  <path class="cls-2" d="M545.27,691.54c-.13,1.48,1.11,1.79,2.34,1.36v1.48c-2,.62-4.32.31-4.32-2.4v-7.84h-1.36v-1.42h1.48l.56-2.66h1.3v2.66h2.16v1.42h-2.16v7.4" data-name="eD"/>
 </g>
 <path class="cls-1" d="m721.5 634.67a6 6 0 0 1 6-6h148a6 6 0 0 1 6 6v108a6 6 0 0 1-6 6h-148a6 6 0 0 1-6-6z"/>
 <g id="dW">
  <path class="cls-2" d="m759.22 682.47a3.9 3.9 0 0 1 3.7 2l-0.06-6.18h2l0.07 16.11h-1.93a17.26 17.26 0 0 0-0.18-1.91 3.52 3.52 0 0 1-3.64 2.16c-3.28 0-4.26-2.41-4.32-6.05 0.04-4.03 1.45-6.13 4.36-6.13zm0.55 1.48c-2.47 0-2.84 2.1-2.84 4.63s0.37 4.57 2.78 4.57c2.59 0 3.15-2 3.15-4.69s-0.56-4.57-3.09-4.51" data-name="fj"/>
  <path class="cls-2" d="M775,692.22c-.93,1.3-1.91,2.53-4.2,2.47s-3.58-1.29-3.58-3.52c-.06-3.95,3.89-3.89,7.72-3.89.18-2.16-.56-3.33-2.53-3.33-1.49.06-2.53.43-2.6,1.91l-2-.18c.31-2.28,2-3.21,4.69-3.21s4.44,1.23,4.44,3.95v5.06c-.06,1.24.43,2,1.73,1.67v1.23C776.75,694.94,774.9,694.26,775,692.22Zm-5.74-1.05a1.86,1.86,0,0,0,2,2c2.53-.19,3.89-1.79,3.71-4.57-2.66.13-5.68-.31-5.68,2.53" data-name="ew"/>
  <path class="cls-2" d="M782.3,691.54c-.12,1.48,1.11,1.79,2.35,1.36v1.48c-2,.62-4.32.31-4.32-2.4v-7.84H779v-1.42h1.48l.56-2.66h1.29v2.66h2.16v1.42H782.3v7.4" data-name="eD"/>
  <path class="cls-2" d="M793.54,692.22c-.93,1.3-1.92,2.53-4.2,2.47s-3.58-1.29-3.58-3.52c-.06-3.95,3.89-3.89,7.72-3.89.18-2.16-.56-3.33-2.54-3.33-1.48.06-2.53.43-2.59,1.91l-2-.18c.31-2.28,2-3.21,4.7-3.21s4.44,1.23,4.44,3.95v5.06c-.06,1.24.43,2,1.73,1.67v1.23C795.27,694.94,793.41,694.26,793.54,692.22Zm-5.74-1.05a1.86,1.86,0,0,0,2,2c2.53-.19,3.89-1.79,3.71-4.57-2.66.13-5.68-.31-5.68,2.53" data-name="ew"/>
  <path class="cls-2" d="M799,679.14c5.37.06,11.79-.93,11.79,4.63,0,4.81-4.75,4.93-9.75,4.69v6h-2Zm2,7.71c3.52,0,7.65.68,7.65-3.08s-4.2-2.91-7.65-3v6.05" data-name="em"/>
  <path class="cls-2" d="M818.17,682.47c3.89,0,5.31,2.59,5.18,6.54H815c0,2.47.86,4.14,3.27,4.2a2.86,2.86,0,0,0,3-1.79l1.73.49c-.68,1.73-2.28,2.78-4.75,2.78-3.58,0-5.43-2.28-5.37-6.17S814.52,682.47,818.17,682.47Zm3.21,5c.37-3.7-4.69-4.75-6-1.73a4.39,4.39,0,0,0-.37,1.73h6.36" data-name="eq"/>
  <path class="cls-2" d="M831.56,682.47c5.5-.25,3.27,7.16,3.71,12h-2V687c0-1.92-.49-3-2.41-3-4.44.13-2.71,6.3-3,10.43h-2l-.06-11.72h1.85a9.45,9.45,0,0,0,.13,2,3.9,3.9,0,0,1,3.76-2.22" data-name="eC"/>
  <path class="cls-2" d="m841.93 682.47a3.9 3.9 0 0 1 3.71 2l-0.07-6.18h2l0.06 16.11h-1.85a15 15 0 0 0-0.19-1.91 3.5 3.5 0 0 1-3.64 2.16c-3.27 0-4.26-2.41-4.32-6.05-0.02-4.03 1.37-6.13 4.3-6.13zm0.56 1.48c-2.47 0-2.84 2.1-2.84 4.63s0.37 4.57 2.78 4.57c2.59 0 3.14-2 3.14-4.69s-0.55-4.57-3.08-4.51" data-name="fj"/>
 </g>
 <path class="cls-3" d="M1.5,8.67a6,6,0,0,1,6-6h228a6,6,0,0,1,6,6v54a6,6,0,0,1-6,6H7.5a6,6,0,0,1-6-6Z"/>
 <g id="dX">
  <path id="fm" class="cls-2" d="M65.56,32.3c0,6.87,2.73,11.27,9.47,11.4,4.79.13,7-2.85,8.42-6.09l5.84,2.2C87.08,45.26,82.68,49,75,49c-10.63,0-15.56-6-16.21-16.72C57.92,18,73,12.07,84.23,18.43c2.33,1.29,3.76,3.76,4.67,6.48l-6,1.55c-1-3.24-3.89-5.31-8-5.31-6.74,0-9.21,4.41-9.34,11.15"/>
  <path id="fd" class="cls-2" d="M93.69,48.5V14.67h6.49V48.5H93.69"/>
  <path id="fA" class="cls-2" d="M106.66,19.46V14.67h6.48v4.79Zm0,29V23.87h6.48V48.5h-6.48"/>
  <path class="cls-2" d="M140.36,42.28c-1.68,3.89-4.8,6.87-10.63,6.74-7.78-.26-11.54-4.8-11.54-13s3.89-12.71,11.67-12.71c8,0,10.76,5.84,10.89,14H124.94c0,4,1,7.13,5.05,7.26,2.33,0,3.89-.91,4.41-2.85Zm-5.83-9c.65-6-7.39-8.16-9.08-2.72a8.5,8.5,0,0,0-.51,2.72h9.59" data-name="fp"/>
  <path id="fn" class="cls-2" d="M159.81,23.35C171.08,23.22,167.32,38,168,48.5h-6.48c-.91-7.39,3-20.35-4.41-20.35-7.64,0-4.4,12.57-5.05,20.35h-6.48l-.13-24.63h6.09c.26,1.56-.13,3.63.39,4.93,1.55-3.37,3.63-5.32,7.91-5.45"/>
  <path id="fb" class="cls-2" d="M185.6,48.11c-4.66,1.82-11.28.91-11.28-5.44V28.15h-3.11V23.87h3.5L176.66,18h4v5.83h4.66v4.28h-4.66V41c-.13,3,2.07,4,4.92,3.24v3.89"/>
 </g>
 <path class="cls-4" d="m284 250h117.5"/>
 <path class="cls-5" d="m284 251h-1v-2h1"/>
 <path class="cls-6" d="m416.76 250-14.26 4.64v-9.28z"/>
 <g id="dY">
  <path id="fl" class="cls-2" d="M307.48,239.09c-4.3,0-2.87-5.58-3.12-9.58h2.47c.35,2.81-1.13,7.4,1.63,7.75,3-.25,1.73-4.79,2-7.75h2.47l0,9.38h-2.32a11.11,11.11,0,0,0-.15-1.88,3.08,3.08,0,0,1-3,2.08"/>
  <path class="cls-2" d="M317.4,232.72c0,2.61,1,4.29,3.61,4.34a3.25,3.25,0,0,0,3.21-2.32l2.22.84a5.39,5.39,0,0,1-5.43,3.51c-4.05,0-5.93-2.28-6.18-6.37-.34-5.44,5.39-7.71,9.68-5.29a4.24,4.24,0,0,1,1.78,2.47l-2.27.59a3,3,0,0,0-3.06-2c-2.57,0-3.51,1.68-3.56,4.25" data-name="fm"/>
  <path class="cls-2" d="m332.31 229.31c3.17 0 4.75 1.78 4.75 4.89s-1.73 4.89-4.79 4.89-4.7-1.78-4.7-4.89 1.68-4.89 4.74-4.89zm0 8.1c1.72 0 2.22-1.39 2.22-3.21 0-2-0.5-3.21-2.13-3.21s-2.22 1.28-2.22 3.21 0.5 3.21 2.13 3.21" data-name="fa"/>
  <path class="cls-2" d="M344.36,229.31c4.3-.05,2.87,5.58,3.12,9.58H345c-.35-2.82,1.13-7.75-1.68-7.75s-1.68,4.79-1.93,7.75h-2.47l-.05-9.38h2.32a10.9,10.9,0,0,0,.15,1.87,3.07,3.07,0,0,1,3-2.07" data-name="fn"/>
  <path id="fg" class="cls-2" d="m348.71 239.23 2.52-13.23h2.07l-2.52 13.23h-2.07"/>
  <path class="cls-2" d="M361.8,229.9c-.05-2.12-4.65-2.27-4.79-.15.89,3.26,7.45.5,7.6,5.63.15,4.69-8.15,4.6-10.07,1.78a3.56,3.56,0,0,1-.6-1.48l2.47-.4c.15,2.28,5.53,2.77,5.73.25-.84-3.41-7.41-.49-7.6-5.63-.2-4.3,7.55-4.34,9.28-1.73a4,4,0,0,1,.49,1.39" data-name="eT"/>
  <path class="cls-2" d="M368.61,232.72c0,2.61,1,4.29,3.61,4.34a3.25,3.25,0,0,0,3.21-2.32l2.22.84a5.39,5.39,0,0,1-5.43,3.51c-4.05,0-5.93-2.28-6.18-6.37-.34-5.44,5.39-7.71,9.68-5.29a4.24,4.24,0,0,1,1.78,2.47l-2.27.59a3,3,0,0,0-3.06-2c-2.57,0-3.51,1.68-3.56,4.25" data-name="fm"/>
  <path class="cls-2" d="m383.52 229.31c3.17 0 4.75 1.78 4.75 4.89s-1.73 4.89-4.79 4.89-4.7-1.78-4.7-4.89 1.68-4.89 4.74-4.89zm0 8.1c1.72 0 2.22-1.39 2.22-3.21 0-2-0.5-3.21-2.13-3.21s-2.22 1.28-2.22 3.21 0.5 3.21 2.13 3.21" data-name="fa"/>
  <path class="cls-2" d="M395.57,229.31c4.3-.05,2.87,5.58,3.12,9.58h-2.47c-.35-2.82,1.13-7.75-1.68-7.75s-1.68,4.79-1.93,7.75h-2.47l-.05-9.38h2.32a10.9,10.9,0,0,0,.15,1.87,3.07,3.07,0,0,1,3-2.07" data-name="fn"/>
 </g>
 <path class="cls-4" d="m584 248.67h117.5"/>
 <path class="cls-5" d="m584 249.67h-1v-2h1"/>
 <path class="cls-6" d="m716.76 248.67-14.26 4.63v-9.3z"/>
 <g id="dZ">
  <path class="cls-2" d="M617.5,228c3.16,0,4.74,1.77,4.74,4.88s-1.73,4.89-4.79,4.89-4.69-1.77-4.69-4.89S614.44,228,617.5,228Zm0,8.09c1.73,0,2.22-1.38,2.22-3.21s-.49-3.21-2.12-3.21-2.22,1.29-2.22,3.21.49,3.21,2.12,3.21" data-name="fa"/>
  <path class="cls-2" d="m630.14 237.56-2.52-4.25-1 0.74v3.51h-2.47v-12.89h2.47v7.4l3.31-3.9h2.61l-3.26 3.66 3.56 5.73h-2.67" data-name="eX"/>
  <path class="cls-2" d="M633,237.9l2.52-13.23h2.07L635,237.9H633" data-name="fg"/>
  <path id="fo" class="cls-2" d="M644.46,230.74c0-1.43-3.45-1.68-3.5-.2.74,2.27,5.82.35,5.87,4.25,0,4.1-8.1,3.75-8.49.44l2.12-.34c.2.94,1,1.23,2.18,1.23,1.63.4,2.81-1.48,1.18-2-2.12-.69-5-.54-5.13-3.26-.1-4,7.6-3.65,7.95-.35"/>
  <path id="fe" class="cls-2" d="m656.76 237.56v-5.24h-5.43v5.24h-2.57v-12.25h2.57v4.89h5.43v-4.89h2.47v12.25h-2.47"/>
  <path class="cls-2" d="M669.5,235.19a4,4,0,0,1-4,2.56c-3-.1-4.39-1.82-4.39-4.94s1.48-4.83,4.44-4.83,4.1,2.22,4.15,5.33h-6c0,1.53.4,2.71,1.93,2.76a1.52,1.52,0,0,0,1.68-1.08Zm-2.22-3.41c.24-2.27-2.82-3.11-3.46-1a3.21,3.21,0,0,0-.2,1h3.66" data-name="fp"/>
  <path class="cls-2" d="m671.48 237.56v-12.89h2.46v12.89h-2.46" data-name="fd"/>
  <path class="cls-2" d="m676.41 237.56v-12.89h2.47v12.89h-2.47" data-name="fd"/>
  <path class="cls-2" d="M685.55,228c3.16,0,4.74,1.77,4.74,4.88s-1.73,4.89-4.79,4.89-4.69-1.77-4.69-4.89S682.49,228,685.55,228Zm0,8.09c1.73,0,2.22-1.38,2.22-3.21s-.49-3.21-2.12-3.21-2.22,1.29-2.22,3.21.49,3.21,2.12,3.21" data-name="fa"/>
 </g>
 <path class="cls-4" d="m801.5 311.17v70.5"/>
 <path class="cls-5" d="m802.5 311.2h-2v-1h2"/>
 <path class="cls-6" d="m801.5 396.93-4.64-14.27h9.28z"/>
 <g id="ea">
  <path class="cls-2" d="m814.93 349.14c3.16 0 4.74 1.78 4.74 4.89s-1.73 4.89-4.79 4.89-4.69-1.78-4.69-4.89 1.68-4.89 4.74-4.89zm0 8.1c1.73 0 2.22-1.38 2.22-3.21s-0.49-3.21-2.12-3.21-2.22 1.28-2.22 3.21 0.49 3.21 2.12 3.21" data-name="fa"/>
  <path class="cls-2" d="M827.57,358.72l-2.51-4.24-1,.74v3.5h-2.47V345.83H824v7.41l3.31-3.9h2.61L826.69,353l3.55,5.73h-2.67" data-name="eX"/>
  <path class="cls-2" d="M830.39,359.07l2.52-13.24H835l-2.52,13.24h-2.07" data-name="fg"/>
  <path id="fv" class="cls-2" d="M835.82,355.17V353h4.49v2.13h-4.49"/>
 </g>
 <path class="cls-4" d="m801.5 626.17v-84.5"/>
 <path class="cls-5" d="m802.5 627.17h-2v-1h2"/>
 <path class="cls-6" d="m801.5 526.4 4.64 14.27h-9.28z"/>
 <g data-name="ea">
  <path class="cls-2" d="m814.93 575.56c3.16 0 4.74 1.77 4.74 4.88s-1.73 4.89-4.79 4.89-4.69-1.77-4.69-4.89 1.68-4.88 4.74-4.88zm0 8.09c1.73 0 2.22-1.38 2.22-3.21s-0.49-3.21-2.12-3.21-2.22 1.29-2.22 3.21 0.49 3.21 2.12 3.21" data-name="fa"/>
  <path class="cls-2" d="M827.57,585.14l-2.51-4.25-1,.74v3.51h-2.47V572.25H824v7.4l3.31-3.9h2.61l-3.25,3.66,3.55,5.73h-2.67" data-name="eX"/>
  <path class="cls-2" d="M830.39,585.48l2.52-13.23H835l-2.52,13.23h-2.07" data-name="fg"/>
  <path class="cls-2" d="m835.82 581.58v-2.12h4.49v2.12h-4.49" data-name="fv"/>
 </g>
 <path class="cls-4" d="M719,461.67H601.5"/>
 <path class="cls-5" d="m720 462.67h-1v-2h1"/>
 <path class="cls-6" d="M586.24,461.67,600.5,457v9.27Z"/>
 <g id="eb">
  <path class="cls-2" d="M603.45,446.12c-4.3.05-2.86-5.58-3.11-9.58h2.47c.34,2.81-1.14,7.4,1.63,7.75,3-.25,1.73-4.79,2-7.75h2.47l0,9.38h-2.32a11.11,11.11,0,0,0-.15-1.88,3.07,3.07,0,0,1-3,2.08" data-name="fl"/>
  <path id="ht" class="cls-2" d="M621.43,445.92l.09-10.07-3.16,10.07h-1.82l-3.11-10.07.09,10.07h-2.27V433.67h3.46l2.77,9.14,2.81-9.14h3.41v12.25h-2.27"/>
  <path id="eV" class="cls-2" d="M631.4,444.24c-.79.94-1.48,1.93-3.16,1.88a2.6,2.6,0,0,1-2.86-2.87c0-3,2.71-3.11,5.73-3,0-1.28-.15-2.32-1.39-2.32a1.28,1.28,0,0,0-1.38,1.33l-2.57-.1c.35-1.87,1.78-2.86,4.05-2.81s3.66,1.09,3.7,3.36l.05,4.05c-.05.69.6.89,1.24.74v1.33C633.33,446.22,631.3,446.07,631.4,444.24Zm-2.37.15c1.43,0,2.12-1.19,2.08-2.82-1.59,0-3.26-.14-3.21,1.49,0,.84.39,1.33,1.13,1.33"/>
  <path class="cls-2" d="M635.94,434.86V433h2.47v1.83Zm0,11.06v-9.38h2.47v9.38h-2.47" data-name="fA"/>
  <path class="cls-2" d="M640.88,445.92V433h2.47v12.89h-2.47" data-name="fd"/>
  <path class="cls-2" d="M644.78,446.27,647.3,433h2.08l-2.52,13.24h-2.08" data-name="fg"/>
  <path class="cls-2" d="M656.29,439.11c.05-1.44-3.46-1.68-3.51-.2.74,2.27,5.83.34,5.88,4.24.05,4.1-8.1,3.76-8.49.45l2.12-.35c.2.94,1,1.24,2.17,1.24,1.63.39,2.82-1.48,1.19-2-2.13-.69-5-.54-5.14-3.26-.1-3.95,7.61-3.65,8-.34" data-name="fo"/>
  <path class="cls-2" d="m663.15 435.65v3.8h6.28v2h-6.28v4.49h-2.56v-12.27h9v2h-6.47" data-name="fE"/>
  <path id="eZ" class="cls-2" d="M676.88,438.51c-1.92-.59-3,.64-3,2.82v4.59h-2.47l-.05-9.38h2.32a12.13,12.13,0,0,0,.15,2c.3-1.38,1.33-2.61,3-2v2"/>
  <path class="cls-2" d="m682.56 436.34c3.16 0 4.74 1.78 4.74 4.89s-1.73 4.89-4.79 4.89-4.69-1.78-4.69-4.89 1.68-4.89 4.74-4.89zm0 8.1c1.73 0 2.22-1.38 2.22-3.21 0-2-0.49-3.21-2.12-3.21s-2.22 1.28-2.22 3.21c0 1.78 0.49 3.21 2.12 3.21" data-name="fa"/>
  <path id="fw" class="cls-2" d="M698.81,438.17c-2.62.44-1.38,4.94-1.68,7.75h-2.42v-5.28c0-1.34-.25-2.42-1.43-2.47-2.62.49-1.34,4.94-1.63,7.75h-2.47l0-9.38h2.32a10.9,10.9,0,0,0,.15,1.87c.49-2.61,5-2.76,5.33,0,.64-1.08,1.19-2.12,2.92-2.07,4,.05,2.51,5.73,2.81,9.58h-2.42v-5.28c0-1.24-.25-2.37-1.43-2.47"/>
 </g>
 <path class="cls-4" d="M419,461.67H301.5"/>
 <path class="cls-5" d="m420 462.67h-1v-2h1"/>
 <path class="cls-6" d="M286.24,461.67,300.5,457v9.27Z"/>
 <g data-name="ea">
  <path class="cls-2" d="M341.18,441c3.16,0,4.74,1.77,4.74,4.88s-1.73,4.89-4.79,4.89-4.69-1.77-4.69-4.89S338.12,441,341.18,441Zm-.05,8.09c1.73,0,2.22-1.38,2.22-3.21s-.49-3.21-2.12-3.21-2.22,1.29-2.22,3.21.49,3.21,2.12,3.21" data-name="fa"/>
  <path class="cls-2" d="m353.82 450.56-2.52-4.25-1 0.74v3.51h-2.5v-12.89h2.47v7.4l3.3-3.9h2.62l-3.26 3.66 3.56 5.73h-2.67" data-name="eX"/>
  <path class="cls-2" d="m356.64 450.9 2.51-13.23h2.08l-2.52 13.23h-2.07" data-name="fg"/>
  <path class="cls-2" d="M362.07,447v-2.12h4.49V447h-4.49" data-name="fv"/>
 </g>
 <path class="cls-4" d="M201.5,532.5V610"/>
 <path class="cls-5" d="m202.5 532.53h-2v-1h2"/>
 <path class="cls-6" d="m201.5 625.26-4.64-14.26h9.28z"/>
 <g data-name="ec">
  <path class="cls-2" d="M213.7,572c-4.3,0-2.87-5.58-3.11-9.58h2.47c.34,2.82-1.14,7.41,1.63,7.76,3-.25,1.72-4.79,2-7.76h2.47l.05,9.39h-2.32a10.94,10.94,0,0,0-.15-1.88,3.07,3.07,0,0,1-3,2.07" data-name="fl"/>
  <path id="fq" class="cls-2" d="m232.17 563.2a3.36 3.36 0 0 1-2.67 3.46l3.31 5.14h-2.91l-2.82-4.65h-3v4.65h-2.58v-12.25c4.59 0.2 10.72-1.14 10.67 3.65zm-8.1 2c2.37-0.1 5.53 0.59 5.53-1.88s-3.26-1.58-5.53-1.73v3.61"/>
  <path id="fc" class="cls-2" d="M242.49,568.68c-.35,2.08-1.88,3.31-4.25,3.31-2.91,0-4.15-1.87-4.44-4.84-.6-5.43,7.6-6.76,8.59-1.77l-2.42.09a1.66,1.66,0,0,0-1.73-1.58c-1.48,0-1.73,1.39-1.88,3.16-.29,3.66,3.21,4.3,3.66,1.49"/>
  <path class="cls-2" d="M249.65,562.22c2.62,0,3.45,2.17,3.45,4.83s-.93,4.84-3.6,4.94a3.37,3.37,0,0,1-2.91-1.68c.14,1.63.1,3.41.1,5.19h-2.47l-.05-13.09h2.37a13,13,0,0,0,.15,1.53A2.85,2.85,0,0,1,249.65,562.22Zm-1,8.09c1.63,0,1.93-1.53,2-3.26s-.45-3.16-2-3.16c-2.76,0-2.71,6.42,0,6.42" data-name="fL"/>
  <path class="cls-2" d="M259.48,571.65c-1.78.69-4.3.34-4.3-2.08V564H254v-1.63h1.34l.74-2.22h1.53v2.22h1.78V564H257.6v4.89c-.05,1.14.79,1.53,1.88,1.24v1.48" data-name="fb"/>
  <path class="cls-2" d="m259.87 572.14 2.52-13.23h2.07l-2.52 13.23h-2.07" data-name="fg"/>
  <path class="cls-2" d="M271.38,565c.05-1.43-3.46-1.68-3.51-.2.74,2.27,5.83.35,5.88,4.25.05,4.1-8.1,3.75-8.5.44l2.13-.34c.19.94,1,1.23,2.17,1.23,1.63.4,2.81-1.48,1.18-2-2.12-.69-5-.54-5.13-3.26-.1-4,7.6-3.66,7.95-.35" data-name="fo"/>
  <path class="cls-2" d="m286.34 563.2a3.36 3.36 0 0 1-2.67 3.46l3.33 5.14h-2.91l-2.82-4.65h-3v4.65h-2.57v-12.25c4.57 0.2 10.69-1.14 10.64 3.65zm-8.1 2c2.37-0.1 5.53 0.59 5.53-1.88s-3.26-1.58-5.53-1.73v3.61" data-name="fq"/>
  <path class="cls-2" d="M296.66,568.68c-.35,2.08-1.88,3.31-4.25,3.31-2.91,0-4.14-1.87-4.44-4.84-.59-5.43,7.6-6.76,8.59-1.77l-2.42.09a1.66,1.66,0,0,0-1.73-1.58c-1.48,0-1.72,1.39-1.87,3.16-.3,3.66,3.21,4.3,3.65,1.49" data-name="fc"/>
  <path class="cls-2" d="M303.82,562.22c2.62,0,3.46,2.17,3.46,4.83s-.94,4.84-3.61,4.94a3.37,3.37,0,0,1-2.91-1.68c.15,1.63.1,3.41.1,5.19h-2.47l-.05-13.09h2.37a13,13,0,0,0,.15,1.53A2.85,2.85,0,0,1,303.82,562.22Zm-1,8.09c1.63,0,1.93-1.53,2-3.26s-.45-3.16-2-3.16c-2.76,0-2.71,6.42,0,6.42" data-name="fL"/>
  <path class="cls-2" d="M313.65,571.65c-1.78.69-4.3.34-4.3-2.08V564h-1.18v-1.63h1.33l.74-2.22h1.53v2.22h1.78V564h-1.78v4.89c0,1.14.79,1.53,1.88,1.24v1.48" data-name="fb"/>
 </g>
 <path class="cls-4" d="m284 690h117.5"/>
 <path class="cls-5" d="m284 691h-1v-2h1"/>
 <path class="cls-6" d="m416.76 690-14.26 4.64v-9.28z"/>
 <g data-name="ea">
  <path class="cls-2" d="m341.18 669.31c3.16 0 4.74 1.78 4.74 4.89s-1.73 4.89-4.79 4.89-4.69-1.78-4.69-4.89 1.68-4.89 4.74-4.89zm-0.05 8.1c1.73 0 2.22-1.39 2.22-3.21 0-2-0.49-3.21-2.12-3.21s-2.23 1.28-2.23 3.21c0 1.78 0.49 3.21 2.12 3.21" data-name="fa"/>
  <path class="cls-2" d="M353.82,678.89l-2.52-4.25-1,.74v3.51H347.8V666h2.47v7.41l3.3-3.9h2.62l-3.26,3.65,3.56,5.73h-2.67" data-name="eX"/>
  <path class="cls-2" d="m356.64 679.23 2.51-13.23h2.08l-2.52 13.23h-2.07" data-name="fg"/>
  <path class="cls-2" d="m362.07 675.33v-2.12h4.49v2.12h-4.49" data-name="fv"/>
 </g>
 <path class="cls-4" d="m584 688.67h117.5"/>
 <path class="cls-5" d="m584 689.67h-1v-2h1"/>
 <path class="cls-6" d="m716.76 688.67-14.26 4.63v-9.3z"/>
 <g data-name="ed">
  <path class="cls-2" d="M597.08,677.75c-4.3,0-2.86-5.58-3.11-9.58h2.47c.34,2.82-1.14,7.41,1.63,7.76,3-.25,1.73-4.79,2-7.76h2.47l0,9.39h-2.32a10.94,10.94,0,0,0-.15-1.88,3.07,3.07,0,0,1-3,2.07" data-name="fl"/>
  <path id="eR" class="cls-2" d="M604.88,665.31c5.93-.35,11,.25,10.92,6,0,3.95-2.18,6.23-6,6.23h-4.94Zm2.57,10.27c3.65.35,5.78-.89,5.78-4.25s-2.22-4.34-5.78-4.05v8.3"/>
  <path class="cls-2" d="M623.05,675.88c-.79.93-1.48,1.92-3.16,1.87a2.6,2.6,0,0,1-2.86-2.86c0-3,2.72-3.11,5.73-3,0-1.29-.15-2.32-1.38-2.32a1.28,1.28,0,0,0-1.39,1.33l-2.56-.1c.34-1.88,1.77-2.86,4-2.81s3.66,1.08,3.71,3.35l.05,4c-.05.69.59.89,1.23.74v1.34C625,677.85,623,677.7,623.05,675.88Zm-2.37.14c1.44,0,2.13-1.18,2.08-2.81-1.58,0-3.26-.15-3.21,1.48,0,.84.39,1.33,1.13,1.33" data-name="eV"/>
  <path class="cls-2" d="M632,677.41c-1.78.69-4.29.34-4.29-2.08V669.8h-1.19v-1.63h1.33l.75-2.22h1.53v2.22h1.77v1.63h-1.77v4.89c0,1.14.79,1.53,1.87,1.24v1.48" data-name="fb"/>
  <path class="cls-2" d="M638.81,675.88c-.79.93-1.48,1.92-3.16,1.87a2.6,2.6,0,0,1-2.87-2.86c0-3,2.72-3.11,5.73-3,0-1.29-.15-2.32-1.38-2.32a1.27,1.27,0,0,0-1.38,1.33l-2.57-.1c.34-1.88,1.78-2.86,4.05-2.81s3.65,1.08,3.7,3.35l.05,4c-.05.69.59.89,1.24.74v1.34C640.73,677.85,638.71,677.7,638.81,675.88Zm-2.37.14c1.43,0,2.12-1.18,2.07-2.81-1.58,0-3.26-.15-3.21,1.48,0,.84.4,1.33,1.14,1.33" data-name="eV"/>
  <path class="cls-2" d="m642.31 677.9 2.52-13.23h2.08l-2.52 13.23h-2.08" data-name="fg"/>
  <path class="cls-2" d="M653.82,670.74c0-1.43-3.46-1.68-3.51-.2.74,2.27,5.83.35,5.88,4.25,0,4.1-8.1,3.75-8.49.44l2.12-.34c.2.94,1,1.23,2.17,1.23,1.63.4,2.82-1.48,1.19-2-2.13-.69-5-.54-5.14-3.26-.1-4,7.61-3.65,8-.35" data-name="fo"/>
  <path class="cls-2" d="M658.12,665.31c5.92-.35,11,.25,10.91,6,0,3.95-2.17,6.23-6,6.23h-4.93Zm2.56,10.27c3.66.35,5.78-.89,5.78-4.25s-2.22-4.34-5.78-4.05v8.3" data-name="eR"/>
  <path class="cls-2" d="M676.29,675.88c-.79.93-1.48,1.92-3.16,1.87a2.6,2.6,0,0,1-2.87-2.86c0-3,2.72-3.11,5.73-3,0-1.29-.14-2.32-1.38-2.32a1.27,1.27,0,0,0-1.38,1.33l-2.57-.1c.35-1.88,1.78-2.86,4.05-2.81s3.65,1.08,3.7,3.35l.05,4c-.05.69.59.89,1.24.74v1.34C678.22,677.85,676.19,677.7,676.29,675.88Zm-2.37.14c1.43,0,2.12-1.18,2.07-2.81-1.58,0-3.26-.15-3.21,1.48,0,.84.4,1.33,1.14,1.33" data-name="eV"/>
  <path class="cls-2" d="M685.28,677.41c-1.78.69-4.3.34-4.3-2.08V669.8H679.8v-1.63h1.33l.74-2.22h1.53v2.22h1.78v1.63H683.4v4.89c0,1.14.79,1.53,1.88,1.24v1.48" data-name="fb"/>
  <path class="cls-2" d="M692,675.88c-.79.93-1.48,1.92-3.16,1.87a2.59,2.59,0,0,1-2.86-2.86c0-3,2.71-3.11,5.73-3,0-1.29-.15-2.32-1.39-2.32a1.27,1.27,0,0,0-1.38,1.33l-2.57-.1c.35-1.88,1.78-2.86,4.05-2.81s3.66,1.08,3.71,3.35l.05,4c-.05.69.59.89,1.23.74v1.34C694,677.85,691.94,677.7,692,675.88Zm-2.37.14c1.43,0,2.13-1.18,2.08-2.81-1.58,0-3.26-.15-3.21,1.48,0,.84.39,1.33,1.13,1.33" data-name="eV"/>
 </g>
 <path class="cls-4" d="m461.8 186.17v-33a6 6 0 0 1 6-6h75.45a6 6 0 0 1 6 6v15.5"/>
 <path class="cls-5" d="m462.8 187.17h-2v-1h2"/>
 <path class="cls-6" d="m549.25 183.93-4.63-14.27h9.27z"/>
 <path class="cls-4" d="M884,461.67h33a6,6,0,0,0,6-6v-361a6,6,0,0,0-6-6H207.5a6,6,0,0,0-6,6V170"/>
 <path class="cls-5" d="m884 462.67h-1v-2h1"/>
 <path class="cls-6" d="m201.5 185.26-4.64-14.26h9.28z"/>
 <g id="Q">
  <path class="cls-2" d="M231,107.09c-4.29,0-2.86-5.58-3.11-9.58h2.47c.35,2.81-1.13,7.4,1.63,7.75,3-.25,1.73-4.79,2-7.75h2.47l.05,9.38h-2.32A12.24,12.24,0,0,0,234,105a3.09,3.09,0,0,1-3,2.08" data-name="fl"/>
  <path id="fz" class="cls-2" d="m244.52 94.49c3.95 0 6.17 2.23 6.17 6.23 0 3.45-1.63 5.48-4.54 6.12 0.29 1.38 1.67 1.88 3.35 1.53l-0.05 1.78c-3.11 0.84-5.48-0.55-5.92-3.16-3.41-0.4-5.19-2.57-5.19-6.27 0-4 2.18-6.23 6.18-6.23zm-0.05 10.57c2.56 0 3.6-1.73 3.6-4.34s-1-4.25-3.55-4.25-3.61 1.73-3.61 4.25 1.09 4.34 3.56 4.34"/>
  <path class="cls-2" d="M255.63,107.09c-4.3,0-2.87-5.58-3.11-9.58H255c.35,2.81-1.13,7.4,1.63,7.75,3-.25,1.73-4.79,2-7.75h2.47l.05,9.38h-2.32a11.11,11.11,0,0,0-.15-1.88,3.07,3.07,0,0,1-3,2.08" data-name="fl"/>
  <path class="cls-2" d="M263.48,95.83V94H266v1.83Zm0,11.06V97.51H266v9.38h-2.47" data-name="fA"/>
  <path class="cls-2" d="M272.86,106.74c-1.78.69-4.3.35-4.3-2.07V99.14h-1.18V97.51h1.33l.74-2.23H271v2.23h1.78v1.63H271V104c0,1.14.79,1.54,1.88,1.24v1.48" data-name="fb"/>
  <path class="cls-2" d="M273.26,107.23,275.77,94h2.08l-2.52,13.23h-2.07" data-name="fg"/>
  <path class="cls-2" d="M284.76,100.07c.05-1.43-3.45-1.67-3.5-.19.74,2.27,5.82.34,5.87,4.24.05,4.1-8.1,3.76-8.49.45l2.12-.35c.2.94,1,1.24,2.18,1.24,1.62.39,2.81-1.48,1.18-2-2.12-.69-5-.54-5.14-3.26-.09-4,7.61-3.65,8-.34" data-name="fo"/>
  <path class="cls-2" d="M289.06,94.64c5.92-.34,11,.25,10.91,6-.05,4-2.17,6.22-6,6.22h-4.94Zm2.57,10.27c3.65.35,5.77-.89,5.77-4.24s-2.22-4.35-5.77-4v8.29" data-name="eR"/>
  <path class="cls-2" d="M306.1,97.31c3.16,0,4.74,1.78,4.74,4.89s-1.73,4.89-4.79,4.89-4.69-1.78-4.69-4.89S303,97.31,306.1,97.31Zm-.05,8.1c1.72,0,2.22-1.39,2.22-3.21,0-2-.5-3.21-2.12-3.21s-2.23,1.28-2.23,3.21c0,1.78.5,3.21,2.13,3.21" data-name="fa"/>
  <path class="cls-2" d="M318.15,97.31c4.29,0,2.86,5.58,3.11,9.58h-2.47c-.35-2.82,1.13-7.75-1.68-7.75s-1.68,4.79-1.93,7.75h-2.47l0-9.38H315a12,12,0,0,0,.15,1.87,3.1,3.1,0,0,1,3-2.07" data-name="fn"/>
  <path class="cls-2" d="M331.43,104.52a4,4,0,0,1-4.05,2.57c-3-.1-4.4-1.83-4.4-4.94s1.49-4.84,4.45-4.84,4.1,2.22,4.15,5.33h-6c0,1.53.4,2.72,1.93,2.77a1.52,1.52,0,0,0,1.68-1.09Zm-2.22-3.41c.24-2.27-2.82-3.11-3.46-1a3.26,3.26,0,0,0-.2,1h3.66" data-name="fp"/>
 </g>
 <path class="cls-7" d="m81.5 245.5c0 12.06-9 21.83-20 21.83s-20-9.77-20-21.83 9-21.83 20-21.83 20 9.77 20 21.83z"/>
 <path class="cls-4" d="M84,245.5h17.26a.24.24,0,0,0,.24-.25V245"/>
 <path class="cls-5" d="M84,246.5H82.9l.1-1-.1-1H84"/>
 <path class="cls-6" d="m116.76 245-14.26 4.64v-9.27z"/>
 <path class="cls-1" d="m1100 197.83a6 6 0 0 1 6-6h148a6 6 0 0 1 6 6v108a6 6 0 0 1-6 6h-148a6 6 0 0 1-6-6z"/>
 <g id="R">
  <path id="eu" class="cls-2" d="m1158.2 257.61h-2.24l-2.47-10.12-2.53 10.12h-2.22l-3.34-11.73h2l2.41 10.13 2.65-10.13h2.1l2.53 10.13 2.59-10.13h1.92"/>
  <path class="cls-2" d="M1170.22,255.39c-.93,1.3-1.92,2.53-4.2,2.47s-3.58-1.3-3.58-3.52c-.06-4,3.89-3.89,7.71-3.89.19-2.16-.55-3.33-2.53-3.33-1.48.06-2.53.43-2.59,1.91l-2-.18c.31-2.29,2-3.21,4.7-3.21s4.44,1.23,4.44,4v5.06c-.06,1.23.43,2,1.73,1.66v1.24C1171.94,258.1,1170.09,257.43,1170.22,255.39Zm-5.74-1a1.87,1.87,0,0,0,2,2c2.53-.19,3.89-1.79,3.7-4.57-2.65.12-5.67-.31-5.67,2.53" data-name="ew"/>
  <path class="cls-2" d="m1175.3 243.35v-1.85h2v1.85zm0 14.26v-11.73h2v11.73h-2" data-name="eE"/>
  <path class="cls-2" d="M1182.38,254.71c-.13,1.48,1.11,1.79,2.34,1.36v1.48c-2,.62-4.32.31-4.32-2.41V247.3H1179v-1.42h1.48l.56-2.65h1.3v2.65h2.16v1.42h-2.16v7.41" data-name="eD"/>
  <path class="cls-2" d="m1186.4 243.35v-1.85h2v1.85zm0 14.26v-11.73h2v11.73h-2" data-name="eE"/>
  <path class="cls-2" d="M1197,245.64c5.49-.25,3.27,7.16,3.7,12h-2v-7.47c0-1.91-.49-3-2.4-3-4.45.12-2.72,6.3-3,10.43h-2l-.06-11.73h1.85a10.33,10.33,0,0,0,.12,2,3.9,3.9,0,0,1,3.77-2.22" data-name="eC"/>
  <path class="cls-2" d="M1213.06,245.88c-.62,7.72,2.53,18.09-6.79,16.11a3.52,3.52,0,0,1-2.72-2.65l2-.31c.93,2.9,6.18,2,5.5-1.73v-1.85a3.9,3.9,0,0,1-3.77,2.22c-3.33,0-4.19-2.53-4.19-5.92s1-6,4.38-6.05a4,4,0,0,1,3.64,2.16c.06-.62,0-1.42.12-2Zm-5.13,10.37c2.22,0,3.09-2,3.09-4.5s-.87-4.63-3.09-4.63c-2.41,0-2.84,2.1-2.84,4.63s.37,4.5,2.84,4.5" data-name="eB"/>
 </g>
 <path class="cls-8" d="M983,.75a.71.71,0,0,1,.75.64V796.31a.76.76,0,0,1-1.5,0V1.39A.71.71,0,0,1,983,.75Z"/>
 <path class="cls-3" d="m1021.5 11.67a6 6 0 0 1 6-6h228a6 6 0 0 1 6 6v54a6 6 0 0 1-6 6h-228a6 6 0 0 1-6-6z"/>
 <g data-name="ee">
  <path class="cls-2" d="M1090.81,27.91c-.12-5.58-12.18-6-12.57-.39,2.33,8.55,19.57,1.29,20,14.78.39,12.31-21.39,12.05-26.44,4.66a9.38,9.38,0,0,1-1.56-3.89l6.49-1c.38,6,14.51,7.26,15,.65-2.2-8.95-19.44-1.3-20-14.78-.52-11.28,19.83-11.41,24.37-4.54a11,11,0,0,1,1.3,3.63" data-name="eT"/>
  <path class="cls-2" d="M1124,45.28c-1.69,3.89-4.8,6.87-10.63,6.74-7.78-.26-11.54-4.8-11.54-13s3.89-12.71,11.67-12.71c8,0,10.76,5.84,10.89,14h-15.82c0,4,1,7.13,5.06,7.26,2.33,0,3.89-.91,4.41-2.85Zm-5.83-9c.64-6-7.39-8.16-9.08-2.72a8.49,8.49,0,0,0-.52,2.72h9.6" data-name="fp"/>
  <path class="cls-2" d="M1143.44,32.06c-5-1.56-7.77,1.68-7.77,7.38V51.5h-6.48l-.13-24.63h6.09c.26,1.69-.13,3.76.39,5.19.77-3.63,3.5-6.87,7.9-5.32v5.32" data-name="eZ"/>
  <path id="fK" class="cls-2" d="m1160.7 51.5h-7.69l-8.82-24.63h6.87l5.84 19.44 6.22-19.44h6.74"/>
  <path class="cls-2" d="M1194,45.28c-1.69,3.89-4.8,6.87-10.63,6.74-7.78-.26-11.54-4.8-11.54-13s3.89-12.71,11.67-12.71c8,0,10.76,5.84,10.89,14h-15.82c0,4,1,7.13,5.06,7.26,2.33,0,3.89-.91,4.41-2.85Zm-5.83-9c.64-6-7.39-8.16-9.08-2.72a8.49,8.49,0,0,0-.52,2.72h9.6" data-name="fp"/>
  <path class="cls-2" d="M1213.44,32.06c-5-1.56-7.77,1.68-7.77,7.38V51.5h-6.48l-.13-24.63h6.09c.26,1.69-.13,3.76.39,5.19.77-3.63,3.5-6.87,7.9-5.32v5.32" data-name="eZ"/>
 </g>
 <path class="cls-1" d="m1460 194.17a6 6 0 0 1 6-6h148a6 6 0 0 1 6 6v108a6 6 0 0 1-6 6h-148a6 6 0 0 1-6-6z"/>
 <g id="S">
  <path class="cls-2" d="M1501.2,251.72c-.92,1.3-1.91,2.53-4.19,2.47s-3.58-1.29-3.58-3.52c-.07-3.95,3.88-3.89,7.71-3.89.19-2.16-.55-3.33-2.53-3.33-1.48.06-2.53.43-2.59,1.91l-2-.18c.31-2.28,2-3.21,4.69-3.21s4.45,1.23,4.45,3.95V251c-.06,1.24.43,2,1.73,1.67v1.23C1502.93,254.44,1501.08,253.76,1501.2,251.72Zm-5.74-1.05a1.87,1.87,0,0,0,2,2c2.53-.19,3.89-1.79,3.7-4.57-2.65.13-5.68-.31-5.68,2.53" data-name="ew"/>
  <path class="cls-2" d="M1510.77,243.51c-2.47,0-3,2-3,4.51s.55,4.63,3,4.63a2.47,2.47,0,0,0,2.66-2.35l2,.13a4.23,4.23,0,0,1-4.57,3.76c-3.64,0-4.69-2.53-5.06-6.11-.62-5.74,6.24-8.09,9.08-4a5.4,5.4,0,0,1,.43,1.36l-2,.18a2.36,2.36,0,0,0-2.53-2.16" data-name="ep"/>
  <path class="cls-2" d="M1521.88,243.51c-2.47,0-3,2-3,4.51s.56,4.63,3,4.63a2.47,2.47,0,0,0,2.66-2.35l2,.13a4.23,4.23,0,0,1-4.57,3.76c-3.64,0-4.69-2.53-5.06-6.11-.61-5.74,6.24-8.09,9.08-4a5,5,0,0,1,.43,1.36l-2,.18a2.36,2.36,0,0,0-2.53-2.16" data-name="ep"/>
  <path class="cls-2" d="M1533.24,242c3.89,0,5.31,2.59,5.19,6.54h-8.34c0,2.47.87,4.14,3.27,4.2a2.88,2.88,0,0,0,3-1.79l1.73.49c-.68,1.73-2.29,2.78-4.76,2.78-3.58,0-5.43-2.28-5.37-6.17S1529.6,242,1533.24,242Zm3.21,5c.37-3.7-4.69-4.75-6-1.73a4.58,4.58,0,0,0-.37,1.73h6.36" data-name="eq"/>
  <path class="cls-2" d="M1546.51,242c3.4.06,4.32,2.53,4.32,6.05s-1,6-4.32,6.17a3.78,3.78,0,0,1-3.7-2.1l.06,6.48h-2l-.07-16.35h1.92l.12,1.85A3.64,3.64,0,0,1,1546.51,242Zm-.49,10.74c2.47,0,2.78-2.1,2.78-4.63s-.37-4.51-2.78-4.57c-2.59,0-3.15,2-3.15,4.69s.62,4.51,3.15,4.51" data-name="ey"/>
  <path class="cls-2" d="M1555.4,251c-.12,1.48,1.11,1.79,2.35,1.36v1.48c-2,.62-4.32.31-4.32-2.4v-7.84h-1.36v-1.42h1.48l.55-2.66h1.3v2.66h2.16v1.42h-2.16V251" data-name="eD"/>
  <path class="cls-2" d="m1559.4 239.69v-1.86h2v1.86zm0 14.25v-11.72h2v11.72h-2" data-name="eE"/>
  <path class="cls-2" d="M1570,242c5.49-.25,3.27,7.16,3.7,12h-2v-7.46c0-1.92-.49-3-2.41-3-4.44.13-2.71,6.3-3,10.43h-2l-.06-11.72h1.85a9.45,9.45,0,0,0,.13,2A3.89,3.89,0,0,1,1570,242" data-name="eC"/>
  <path class="cls-2" d="M1586.08,242.22c-.62,7.71,2.53,18.08-6.79,16.11a3.53,3.53,0,0,1-2.72-2.66l2-.31c.93,2.91,6.17,2,5.49-1.72v-1.86a3.9,3.9,0,0,1-3.76,2.23c-3.34,0-4.2-2.53-4.2-5.93s1-6,4.38-6.05a4,4,0,0,1,3.64,2.16c.07-.62,0-1.42.13-2ZM1581,252.59c2.22,0,3.08-2,3.08-4.51s-.86-4.63-3.08-4.63c-2.41,0-2.84,2.1-2.84,4.63s.37,4.51,2.84,4.51" data-name="eB"/>
 </g>
 <path class="cls-1" d="m1280 410.83a6 6 0 0 1 6-6h148a6 6 0 0 1 6 6v108a6 6 0 0 1-6 6h-148a6 6 0 0 1-6-6z"/>
 <g id="T">
  <path class="cls-2" d="M1339.29,460.55c-4.81-1-3.27,5.62-3.52,10.06h-2l-.07-11.73h1.86a14.3,14.3,0,0,0,.12,2.41c.37-1.67,1.42-3,3.58-2.53v1.79" data-name="en"/>
  <path class="cls-2" d="m1345.8 458.64c3.89 0 5.31 2.59 5.19 6.54h-8.34c0 2.47 0.87 4.13 3.28 4.2a2.87 2.87 0 0 0 3-1.79l1.73 0.49c-0.68 1.73-2.29 2.78-4.75 2.78-3.59 0-5.44-2.29-5.38-6.17s1.63-6.05 5.27-6.05zm3.21 5c0.37-3.71-4.69-4.76-6-1.73a4.58 4.58 0 0 0-0.37 1.73h6.39" data-name="eq"/>
  <path class="cls-2" d="M1360.65,468.39c-.93,1.3-1.92,2.53-4.2,2.47s-3.58-1.3-3.58-3.52c-.06-3.95,3.89-3.89,7.72-3.89.18-2.16-.56-3.33-2.53-3.33-1.49.06-2.54.43-2.6,1.91l-2-.18c.3-2.29,2-3.21,4.69-3.21s4.44,1.23,4.44,3.95v5.06c-.06,1.23.43,2,1.73,1.66v1.24C1362.38,471.11,1360.52,470.43,1360.65,468.39Zm-5.74-1.05a1.87,1.87,0,0,0,2,2c2.53-.19,3.89-1.79,3.71-4.57-2.66.12-5.68-.31-5.68,2.53" data-name="ew"/>
  <path class="cls-2" d="m1369.5 458.64a3.91 3.91 0 0 1 3.7 2l-0.06-6.17h2l0.07 16.11h-1.86a17 17 0 0 0-0.18-1.91 3.52 3.52 0 0 1-3.64 2.16c-3.27 0-4.26-2.41-4.32-6.05-0.03-4.05 1.39-6.14 4.29-6.14zm0.55 1.48c-2.47 0-2.84 2.1-2.84 4.63s0.37 4.56 2.78 4.56c2.59 0 3.15-2 3.15-4.69s-0.56-4.56-3.09-4.5" data-name="fj"/>
  <path id="eI" class="cls-2" d="M1387.69,458.88l-5.31,13.64c-.87,1.73-2.29,3.15-5,2.6v-1.48c2.4.37,3.27-1.24,3.95-3.09l-4.63-11.67h2.1l3.51,9.63,3.34-9.63h2"/>
 </g>
 <path class="cls-1" d="m1100 617.83a6 6 0 0 1 6-6h148a6 6 0 0 1 6 6v108a6 6 0 0 1-6 6h-148a6 6 0 0 1-6-6z"/>
 <g id="ef">
  <path class="cls-2" d="M1138.8,663.17c-1.92-.56-2.6.61-2.35,2.71h2.35v1.42h-2.35v10.31h-1.91V667.3h-1.67v-1.42h1.67c-.44-3.21,1-5.06,4.26-4.19v1.48" data-name="eO"/>
  <path class="cls-2" d="M1145.77,667.55c-4.81-1-3.27,5.62-3.52,10.06h-2l-.06-11.73h1.85a15.43,15.43,0,0,0,.12,2.41c.37-1.67,1.42-3,3.58-2.53v1.79" data-name="en"/>
  <path class="cls-2" d="m1152.2 665.64c3.83-0.07 5.25 2.28 5.25 6.11s-1.67 6.11-5.31 6.11-5.12-2.41-5.18-6.11c-0.01-4.08 1.72-6.11 5.24-6.11zm-0.06 10.74c2.72 0.06 3.27-1.92 3.27-4.63s-0.49-4.63-3.15-4.63-3.27 2-3.27 4.63 0.62 4.56 3.15 4.63" data-name="eo"/>
  <path class="cls-2" d="M1171.39,667.18c-4.14.18-2.35,6.48-2.72,10.43h-1.91v-7.47c0-1.79-.31-3.08-2.16-3-4.08.25-2.35,6.42-2.72,10.43H1160l-.06-11.73h1.85a10.33,10.33,0,0,0,.12,2c.62-2.72,6.11-3.09,6.61,0a3.77,3.77,0,0,1,3.58-2.22c5.24-.13,2.9,7.34,3.39,12h-1.91v-7.47c0-1.79-.31-3-2.16-3" data-name="ex"/>
  <path class="cls-2" d="m1191.3 666.69a4.07 4.07 0 0 1-3.71 4.32l4.32 6.6h-2.34l-4-6.36h-4.75v6.36h-2v-15.31c5.38 0.19 12.6-1.3 12.48 4.39zm-10.5 3c3.71-0.13 8.46 0.8 8.46-2.9s-4.94-2.6-8.46-2.78v5.68" data-name="fB"/>
  <path class="cls-2" d="M1198.8,667.18c-2.47,0-3,2-3,4.51s.56,4.62,3,4.62a2.45,2.45,0,0,0,2.65-2.34l2,.12a4.24,4.24,0,0,1-4.57,3.77c-3.64,0-4.69-2.53-5.06-6.11-.62-5.74,6.23-8.09,9.07-4a4.74,4.74,0,0,1,.43,1.35l-2,.19a2.36,2.36,0,0,0-2.53-2.16" data-name="ep"/>
  <path id="eH" class="cls-2" d="m1210.6 677.61h-2.35l-4.3-11.73h2.1l3.34 10.19 3.45-10.19h2.1"/>
  <path class="cls-2" d="m1220.3 665.64a3.91 3.91 0 0 1 3.7 2l-0.06-6.17h2l0.06 16.11h-1.85a16.9 16.9 0 0 0-0.19-1.91 3.52 3.52 0 0 1-3.64 2.16c-3.27 0-4.26-2.41-4.32-6.05-0.04-4.05 1.4-6.14 4.3-6.14zm0.56 1.48c-2.47 0-2.84 2.1-2.84 4.63s0.37 4.56 2.77 4.56c2.6 0 3.15-2 3.15-4.69s-0.55-4.56-3.08-4.5" data-name="fj"/>
 </g>
 <path class="cls-1" d="m1460 619.17a6 6 0 0 1 6-6h148a6 6 0 0 1 6 6v108a6 6 0 0 1-6 6h-148a6 6 0 0 1-6-6z"/>
 <g id="eg">
  <path class="cls-2" d="M1503.27,668.88c-4.81-1-3.27,5.62-3.52,10.06h-2l-.06-11.72h1.85a15.24,15.24,0,0,0,.12,2.4c.37-1.66,1.42-3,3.58-2.53v1.79" data-name="en"/>
  <path class="cls-2" d="M1509.51,668.51c-2.47,0-3,2-3,4.51s.56,4.63,3,4.63a2.46,2.46,0,0,0,2.65-2.35l2,.13a4.24,4.24,0,0,1-4.57,3.76c-3.64,0-4.69-2.53-5.06-6.11-.62-5.74,6.23-8.09,9.07-4a4.7,4.7,0,0,1,.43,1.36l-2,.18a2.37,2.37,0,0,0-2.53-2.16" data-name="ep"/>
  <path class="cls-2" d="M1521.79,667c3.4.06,4.32,2.53,4.32,6s-1,6.05-4.32,6.17a3.78,3.78,0,0,1-3.7-2.1l.06,6.48h-2l-.06-16.35H1518l.13,1.85A3.64,3.64,0,0,1,1521.79,667Zm-.49,10.74c2.47,0,2.77-2.1,2.77-4.63s-.37-4.51-2.77-4.57c-2.6,0-3.15,2-3.15,4.69s.62,4.51,3.15,4.51" data-name="ey"/>
  <path class="cls-2" d="M1530.68,676c-.12,1.48,1.11,1.79,2.34,1.36v1.48c-2,.62-4.32.31-4.32-2.4v-7.84h-1.35v-1.42h1.48l.55-2.66h1.3v2.66h2.16v1.42h-2.16V676" data-name="eD"/>
  <path class="cls-2" d="m1547.6 668a4.07 4.07 0 0 1-3.7 4.32l4.32 6.6h-2.35l-4-6.35h-4.75v6.35h-2v-15.3c5.38 0.2 12.61-1.28 12.48 4.38zm-10.49 3c3.7-0.12 8.46 0.8 8.46-2.9s-4.94-2.59-8.46-2.78v5.68" data-name="fB"/>
  <path class="cls-2" d="M1555.12,668.51c-2.47,0-3,2-3,4.51s.56,4.63,3,4.63a2.47,2.47,0,0,0,2.66-2.35l2,.13a4.23,4.23,0,0,1-4.56,3.76c-3.65,0-4.7-2.53-5.07-6.11-.61-5.74,6.24-8.09,9.08-4a5,5,0,0,1,.43,1.36l-2,.18a2.36,2.36,0,0,0-2.53-2.16" data-name="ep"/>
  <path class="cls-2" d="m1567 678.94h-2.35l-4.26-11.72h2.1l3.33 10.18 3.46-10.18h2.1" data-name="eH"/>
  <path class="cls-2" d="m1576.7 667a3.9 3.9 0 0 1 3.7 2l-0.06-6.18h2l0.07 16.11h-1.86a17.26 17.26 0 0 0-0.18-1.91 3.52 3.52 0 0 1-3.64 2.16c-3.27 0-4.26-2.41-4.32-6.05-0.03-4.06 1.39-6.13 4.29-6.13zm0.55 1.48c-2.47 0-2.84 2.1-2.84 4.63s0.37 4.57 2.78 4.57c2.59 0 3.15-2 3.15-4.69s-0.56-4.57-3.09-4.51" data-name="fj"/>
 </g>
 <path class="cls-5" d="m1325 252.83h-62.5v-2h62.5m115 2h-45v-2h45"/>
 <path class="cls-5" d="m1262.5 252.83h-1v-2h1m192.73 1-14.26 4.64v-9.27z"/>
 <path class="cls-5" d="m1458.5 251.83-18.5 6v-12m2 9.27 10-3.27-10-3.26"/>
 <g data-name="eh">
  <path class="cls-2" d="M1331.8,248.57c0-1.43-3.45-1.67-3.5-.19.74,2.27,5.82.34,5.87,4.24,0,4.1-8.1,3.76-8.49.45l2.12-.35c.2.94,1,1.24,2.18,1.24,1.63.39,2.81-1.48,1.18-2-2.12-.69-5-.54-5.14-3.26-.09-3.95,7.61-3.65,8-.34" data-name="fo"/>
  <path class="cls-2" d="M1338.22,249.22c0,2.61,1,4.29,3.61,4.34a3.25,3.25,0,0,0,3.21-2.32l2.22.84a5.39,5.39,0,0,1-5.43,3.51c-4,0-5.93-2.28-6.18-6.37-.34-5.44,5.39-7.71,9.68-5.29a4.19,4.19,0,0,1,1.78,2.47l-2.27.59a3,3,0,0,0-3.06-2c-2.57,0-3.51,1.68-3.56,4.25" data-name="fm"/>
  <path class="cls-2" d="m1353.1 245.81c3.16 0 4.74 1.78 4.74 4.89s-1.73 4.89-4.79 4.89-4.69-1.78-4.69-4.89 1.67-4.89 4.74-4.89zm-0.05 8.1c1.72 0 2.22-1.39 2.22-3.21 0-2-0.5-3.21-2.12-3.21s-2.23 1.28-2.23 3.21 0.5 3.21 2.13 3.21" data-name="fa"/>
  <path class="cls-2" d="M1365.19,245.81c4.29-.05,2.86,5.58,3.11,9.58h-2.47c-.35-2.82,1.13-7.75-1.68-7.75s-1.68,4.79-1.93,7.75h-2.47l0-9.38H1362a12,12,0,0,0,.15,1.87,3.1,3.1,0,0,1,3-2.07" data-name="fn"/>
  <path class="cls-2" d="m1369.5 255.73 2.52-13.23h2.07l-2.51 13.23h-2.08" data-name="fg"/>
  <path class="cls-2" d="m1379.7 245.81c3.16 0 4.74 1.78 4.74 4.89s-1.72 4.89-4.79 4.89-4.69-1.78-4.69-4.89 1.68-4.89 4.74-4.89zm0 8.1c1.73 0 2.23-1.39 2.23-3.21 0-2-0.5-3.21-2.13-3.21s-2.22 1.28-2.22 3.21 0.49 3.21 2.12 3.21" data-name="fa"/>
  <path class="cls-2" d="m1392.4 255.39-2.52-4.25-1 0.74v3.51h-2.47v-12.89h2.47v7.41l3.31-3.9h2.62l-3.26 3.65 3.55 5.73h-2.66" data-name="eX"/>
 </g>
 <path class="cls-7" d="m1061.5 246.33c0 12.06-9 21.84-20 21.84s-20-9.78-20-21.84 9-21.83 20-21.83 20 9.78 20 21.83z"/>
 <path class="cls-4" d="M1064,246.33h17.26a.24.24,0,0,0,.24-.24v-.26"/>
 <path class="cls-5" d="M1064,247.33h-1.13l.1-1-.1-1H1064"/>
 <path class="cls-6" d="m1096.8 245.83-14.26 4.64v-9.27z"/>
 <path class="cls-4" d="m1540 310.67v122.1a6 6 0 0 1-6 6h-74"/>
 <path class="cls-5" d="m1541 310.7h-2v-1h2"/>
 <path class="cls-6" d="m1444.7 438.78 14.26-4.63v9.27z"/>
 <g data-name="ei">
  <path class="cls-2" d="M1554.77,356c0-1.43-3.46-1.68-3.51-.2.74,2.27,5.83.35,5.88,4.25,0,4.1-8.1,3.75-8.5.44l2.13-.34c.19.94,1,1.23,2.17,1.23,1.63.4,2.81-1.48,1.18-2-2.12-.69-5-.54-5.13-3.26-.1-3.95,7.6-3.65,8-.35" data-name="fo"/>
  <path class="cls-2" d="m1567.1 362.8v-5.24h-5.43v5.24h-2.57v-12.25h2.57v4.89h5.43v-4.89h2.47v12.25h-2.47" data-name="fe"/>
  <path class="cls-2" d="M1579.8,360.43a4,4,0,0,1-4,2.56c-3-.1-4.39-1.82-4.39-4.94s1.48-4.83,4.44-4.83,4.1,2.22,4.15,5.33h-6c0,1.53.39,2.71,1.92,2.76a1.52,1.52,0,0,0,1.68-1.08Zm-2.22-3.41c.25-2.27-2.81-3.11-3.46-1a3.21,3.21,0,0,0-.19,1h3.65" data-name="fp"/>
  <path class="cls-2" d="m1581.8 362.8v-12.89h2.47v12.89h-2.47" data-name="fd"/>
  <path class="cls-2" d="m1586.7 362.8v-12.89h2.47v12.89h-2.47" data-name="fd"/>
  <path class="cls-2" d="m1595.8 353.22c3.16 0 4.74 1.77 4.74 4.88s-1.73 4.89-4.79 4.89-4.69-1.77-4.69-4.89 1.68-4.88 4.74-4.88zm0 8.09c1.73 0 2.22-1.38 2.22-3.21s-0.49-3.21-2.12-3.21-2.22 1.29-2.22 3.21 0.49 3.21 2.12 3.21" data-name="fa"/>
  <path class="cls-2" d="m1601.4 363.14 2.52-13.23h2.05l-2.51 13.23h-2.08" data-name="fg"/>
  <path class="cls-2" d="m1611.6 353.22c3.17 0 4.75 1.77 4.75 4.88s-1.73 4.89-4.79 4.89-4.7-1.77-4.7-4.89 1.68-4.88 4.74-4.88zm0 8.09c1.72 0 2.22-1.38 2.22-3.21s-0.5-3.21-2.13-3.21-2.22 1.29-2.22 3.21 0.5 3.21 2.13 3.21" data-name="fa"/>
  <path class="cls-2" d="m1624.2 362.8-2.52-4.25-1 0.74v3.51h-2.47v-12.89h2.47v7.4l3.31-3.9h2.62l-3.26 3.66 3.55 5.73h-2.66" data-name="eX"/>
 </g>
 <path class="cls-4" d="m1540 610.67v-117a6 6 0 0 0-6-6h-74"/>
 <path class="cls-5" d="m1541 611.67h-2v-1h2"/>
 <path class="cls-6" d="m1444.7 487.7 14.26-4.64v9.27z"/>
 <g id="ej">
  <path class="cls-2" d="M1554.77,554.6c0-1.43-3.46-1.67-3.51-.19.74,2.27,5.83.34,5.88,4.24,0,4.1-8.1,3.76-8.5.45l2.13-.35c.19.94,1,1.24,2.17,1.24,1.63.39,2.81-1.48,1.18-2-2.12-.69-5-.54-5.13-3.26-.1-4,7.6-3.65,8-.34" data-name="fo"/>
  <path class="cls-2" d="M1559.06,549.17c5.93-.34,11,.25,10.92,6,0,3.95-2.18,6.22-6,6.22h-4.94Zm2.57,10.27c3.65.35,5.78-.88,5.78-4.24s-2.22-4.35-5.78-4.05v8.29" data-name="eR"/>
  <path class="cls-2" d="M1577.23,559.74c-.79.94-1.48,1.93-3.16,1.88a2.6,2.6,0,0,1-2.86-2.87c0-3,2.72-3.11,5.73-3,0-1.28-.15-2.32-1.38-2.32a1.29,1.29,0,0,0-1.39,1.33l-2.57-.1c.35-1.87,1.78-2.86,4.05-2.81s3.66,1.09,3.71,3.36l.05,4c-.05.69.59.89,1.23.74v1.33C1579.16,561.72,1577.14,561.57,1577.23,559.74Zm-2.37.15c1.44,0,2.13-1.19,2.08-2.82-1.58,0-3.26-.14-3.21,1.49,0,.83.39,1.33,1.13,1.33" data-name="eV"/>
  <path class="cls-2" d="M1586.22,561.27c-1.78.69-4.29.35-4.29-2.07v-5.53h-1.19V552h1.33l.74-2.23h1.54V552h1.77v1.63h-1.77v4.89c0,1.13.79,1.53,1.87,1.23v1.48" data-name="fb"/>
  <path class="cls-2" d="M1593,559.74c-.79.94-1.48,1.93-3.16,1.88a2.61,2.61,0,0,1-2.87-2.87c0-3,2.72-3.11,5.73-3,0-1.28-.15-2.32-1.38-2.32a1.27,1.27,0,0,0-1.38,1.33l-2.57-.1c.34-1.87,1.78-2.86,4.05-2.81s3.65,1.09,3.7,3.36l.05,4c-.05.69.59.89,1.24.74v1.33C1594.91,561.72,1592.89,561.57,1593,559.74Zm-2.37.15c1.43,0,2.12-1.19,2.07-2.82-1.58,0-3.26-.14-3.21,1.49,0,.83.4,1.33,1.14,1.33" data-name="eV"/>
  <path class="cls-2" d="m1596.5 561.77 2.52-13.24h2.08l-2.52 13.24h-2.08" data-name="fg"/>
  <path class="cls-2" d="m1606.7 551.84c3.16 0 4.74 1.78 4.74 4.89s-1.73 4.89-4.79 4.89-4.69-1.78-4.69-4.89 1.67-4.89 4.74-4.89zm-0.05 8.1c1.73 0 2.22-1.38 2.22-3.21 0-2-0.49-3.21-2.12-3.21s-2.23 1.28-2.23 3.21c0 1.78 0.5 3.21 2.13 3.21" data-name="fa"/>
  <path class="cls-2" d="m1619.3 561.42-2.52-4.25-1 0.74v3.51h-2.47v-12.89h2.47v7.41l3.31-3.9h2.62l-3.26 3.65 3.56 5.73h-2.67" data-name="eX"/>
 </g>
 <path class="cls-4" d="M1277.5,438.78H1186a6,6,0,0,1-6-6V331.84"/>
 <path class="cls-5" d="m1278.5 439.78h-1v-2h1"/>
 <path class="cls-6" d="m1180 316.57 4.64 14.27h-9.28z"/>
 <g id="X">
  <path class="cls-2" d="M1113.78,378.21c0-1.43-3.46-1.67-3.51-.19.74,2.27,5.83.34,5.88,4.24,0,4.1-8.1,3.76-8.5.45l2.13-.35c.2.94,1,1.24,2.17,1.24,1.63.39,2.82-1.48,1.19-2-2.13-.69-5-.54-5.14-3.26-.1-3.95,7.61-3.65,8-.34" data-name="fo"/>
  <path class="cls-2" d="M1118.07,372.78c5.93-.34,11,.25,10.92,6,0,3.95-2.18,6.22-6,6.22h-4.94Zm2.57,10.27c3.66.35,5.78-.88,5.78-4.24s-2.22-4.35-5.78-4.05v8.29" data-name="eR"/>
  <path class="cls-2" d="m1135.1 375.45c3.16 0 4.74 1.78 4.74 4.89s-1.73 4.89-4.79 4.89-4.69-1.78-4.69-4.89 1.68-4.89 4.74-4.89zm0 8.1c1.73 0 2.22-1.38 2.22-3.21s-0.49-3.21-2.12-3.21-2.22 1.28-2.22 3.21 0.49 3.21 2.12 3.21" data-name="fa"/>
  <path class="cls-2" d="M1147.16,375.45c4.3-.05,2.86,5.58,3.11,9.58h-2.47c-.34-2.82,1.14-7.75-1.68-7.75s-1.68,4.79-1.92,7.75h-2.47l0-9.38H1144a10.9,10.9,0,0,0,.15,1.87,3.07,3.07,0,0,1,3-2.07" data-name="fn"/>
  <path class="cls-2" d="M1160.44,382.66a4,4,0,0,1-4,2.57c-3-.1-4.4-1.83-4.4-4.94s1.48-4.84,4.44-4.84,4.1,2.22,4.15,5.33h-6c0,1.53.39,2.72,1.92,2.77a1.52,1.52,0,0,0,1.68-1.09Zm-2.22-3.41c.25-2.27-2.81-3.11-3.45-1a3.26,3.26,0,0,0-.2,1h3.65" data-name="fp"/>
  <path class="cls-2" d="m1161.4 385.38 2.52-13.24h2.1l-2.52 13.24h-2.08" data-name="fg"/>
  <path class="cls-2" d="m1166.8 381.47v-2.12h4.5v2.12h-4.5" data-name="fv"/>
 </g>
 <path class="cls-4" d="M1277.5,490.66H1186a6,6,0,0,0-6,6v95.17"/>
 <path class="cls-5" d="m1278.5 491.66h-1v-2h1"/>
 <path class="cls-6" d="m1180 607.1-4.64-14.27h9.28z"/>
 <g data-name="ek">
  <path class="cls-2" d="M1098.91,536.21c0-1.43-3.45-1.68-3.5-.2.74,2.28,5.82.35,5.87,4.25,0,4.1-8.09,3.75-8.49.45l2.12-.35c.2.94,1,1.24,2.18,1.24,1.63.39,2.81-1.49,1.18-2-2.12-.69-5-.54-5.13-3.26-.1-3.95,7.6-3.65,7.95-.34" data-name="fo"/>
  <path class="cls-2" d="m1105.8 532.76v3.8h6.27v2h-6.27v4.44h-2.57v-12.22h9v2h-6.47" data-name="fE"/>
  <path class="cls-2" d="M1119.51,535.62c-1.93-.59-3,.64-3,2.81V543h-2.47l0-9.39h2.33a12.22,12.22,0,0,0,.14,2c.3-1.38,1.34-2.62,3-2v2" data-name="eZ"/>
  <path class="cls-2" d="m1125.2 533.45c3.16 0 4.74 1.77 4.74 4.89s-1.73 4.88-4.79 4.88-4.7-1.77-4.7-4.88 1.68-4.89 4.75-4.89zm0 8.1c1.72 0 2.22-1.39 2.22-3.21 0-2-0.5-3.21-2.13-3.21s-2.22 1.28-2.22 3.21c0 1.77 0.5 3.21 2.13 3.21" data-name="fa"/>
  <path class="cls-2" d="M1141.43,535.27c-2.62.45-1.38,4.94-1.68,7.76h-2.42v-5.29c.05-1.33-.24-2.42-1.43-2.47-2.62.5-1.33,4.94-1.63,7.76h-2.47l0-9.39h2.32a10.94,10.94,0,0,0,.15,1.88c.5-2.62,5-2.76,5.34,0,.64-1.09,1.18-2.12,2.91-2.07,4,0,2.52,5.73,2.81,9.58h-2.42v-5.29c0-1.23-.24-2.37-1.43-2.47" data-name="fw"/>
  <path class="cls-2" d="m1146.6 543.37 2.52-13.23h2.07l-2.52 13.23h-2.07" data-name="fg"/>
  <path class="cls-2" d="m1156.7 533.45c3.16 0 4.74 1.77 4.74 4.89s-1.73 4.88-4.79 4.88-4.69-1.77-4.69-4.88 1.68-4.89 4.74-4.89zm0 8.1c1.73 0 2.22-1.39 2.22-3.21 0-2-0.49-3.21-2.12-3.21s-2.22 1.28-2.22 3.21c0 1.77 0.49 3.21 2.12 3.21" data-name="fa"/>
  <path class="cls-2" d="m1169.4 543-2.52-4.25-1 0.74v3.51h-2.47v-12.86h2.47v7.41l3.31-3.91h2.61l-3.26 3.66 3.56 5.73h-2.67" data-name="eX"/>
 </g>
 <path class="cls-4" d="M1262.5,671.83H1440"/>
 <path class="cls-5" d="m1262.5 672.83h-1v-2h1"/>
 <path class="cls-6" d="m1455.3 671.83-14.26 4.64v-9.27z"/>
 <g id="el">
  <path class="cls-2" d="M1329.33,653.91c.05-1.43-3.45-1.68-3.5-.2.74,2.27,5.82.35,5.87,4.25,0,4.1-8.1,3.75-8.49.44l2.12-.34c.2.93,1,1.23,2.18,1.23,1.63.4,2.81-1.48,1.18-2-2.12-.7-5-.55-5.13-3.26-.1-4,7.6-3.66,8-.35" data-name="fo"/>
  <path class="cls-2" d="m1344.3 652.13a3.37 3.37 0 0 1-2.67 3.46l3.31 5.13h-2.94l-2.81-4.64h-3v4.64h-2.57v-12.24c4.6 0.19 10.73-1.14 10.68 3.65zm-8.1 2c2.37-0.09 5.53 0.6 5.53-1.87s-3.26-1.58-5.53-1.73v3.6" data-name="fq"/>
  <path class="cls-2" d="M1354.62,657.61c-.35,2.08-1.88,3.31-4.25,3.31-2.91,0-4.15-1.88-4.44-4.84-.6-5.43,7.6-6.77,8.59-1.78l-2.42.1a1.66,1.66,0,0,0-1.73-1.58c-1.48,0-1.73,1.38-1.88,3.16-.29,3.66,3.21,4.3,3.66,1.48" data-name="fc"/>
  <path class="cls-2" d="M1361.78,651.14c2.62,0,3.45,2.17,3.45,4.84s-.93,4.84-3.6,4.94a3.37,3.37,0,0,1-2.91-1.68c.14,1.63.09,3.41.09,5.19h-2.46l0-13.09h2.37c.1.49,0,1.14.14,1.53A2.88,2.88,0,0,1,1361.78,651.14Zm-1,8.1c1.63,0,1.93-1.53,2-3.26s-.45-3.16-2-3.16c-2.76,0-2.72,6.42,0,6.42" data-name="fL"/>
  <path class="cls-2" d="M1371.6,660.57c-1.77.7-4.29.35-4.29-2.07V653h-1.19v-1.63h1.34l.74-2.22h1.53v2.22h1.78V653h-1.78v4.89c0,1.13.79,1.53,1.87,1.23v1.48" data-name="fb"/>
  <path class="cls-2" d="M1372,661.07l2.52-13.24h2.07l-2.52,13.24H1372" data-name="fg"/>
  <path class="cls-2" d="m1382.2 651.14c3.16 0 4.74 1.78 4.74 4.89s-1.72 4.89-4.79 4.89-4.69-1.78-4.69-4.89 1.68-4.89 4.74-4.89zm-0.05 8.1c1.73 0 2.23-1.38 2.23-3.21s-0.5-3.21-2.13-3.21-2.22 1.28-2.22 3.18 0.49 3.21 2.12 3.21" data-name="fa"/>
  <path class="cls-2" d="m1394.8 660.72-2.51-4.24-1 0.74v3.5h-2.47v-12.89h2.47v7.41l3.31-3.9h2.62l-3.26 3.65 3.55 5.73h-2.67" data-name="eX"/>
 </g>
</svg>
