<?xml version="1.0" encoding="UTF-8"?>
<svg data-name="Layer 1" version="1.1" viewBox="0 0 930.02 789.49" xmlns="http://www.w3.org/2000/svg">
 <title>Figure1</title>
 <defs>
  <style>.cls-1{fill:#c1e4f7;}.cls-1,.cls-14,.cls-15,.cls-16,.cls-17,.cls-3,.cls-4,.cls-5,.cls-6{stroke:#5e5e5e;}.cls-1,.cls-11,.cls-12,.cls-14,.cls-15,.cls-16,.cls-17,.cls-18,.cls-19,.cls-20,.cls-21,.cls-22,.cls-23,.cls-24,.cls-25,.cls-3,.cls-4,.cls-8,.cls-9{stroke-width:3px;}.cls-2{fill:#333;}.cls-3{fill:#ffc374;}.cls-10,.cls-12,.cls-19,.cls-21,.cls-23,.cls-25,.cls-4,.cls-5,.cls-9{fill:none;}.cls-5,.cls-6{stroke-width:2px;}.cls-6,.cls-7{fill:#5e5e5e;}.cls-11,.cls-13,.cls-18,.cls-20,.cls-22,.cls-24,.cls-8{fill:#fff;}.cls-8,.cls-9{stroke:#c1e4f7;}.cls-11,.cls-12{stroke:#ffc374;}.cls-13{fill-opacity:0;}.cls-14{fill:#c7e8ac;}.cls-15{fill:#d1bcd2;}.cls-16{fill:#ffbbb1;}.cls-17{fill:#ffdf71;}.cls-18,.cls-19{stroke:#ffbbb1;}.cls-20,.cls-21{stroke:#d1bcd2;}.cls-22,.cls-23{stroke:#c7e8ac;}.cls-24,.cls-25{stroke:#ffdf71;}</style>
 </defs>
 <path class="cls-1" d="m293.27 105a6 6 0 0 1 6-6h148a6 6 0 0 1 6 6v108a6 6 0 0 1-6 6h-148a6 6 0 0 1-6-6z"/>
 <g id="a">
  <path id="m" class="cls-2" d="m344.35 149.73-8.14-13 0.06 13h-1.79v-15.3h2.4l8.21 13.14-0.09-13.14h1.91v15.3h-2.53"/>
  <path id="n" class="cls-2" d="m354.79 137.76c3.89 0 5.3 2.59 5.18 6.54h-8.33c0 2.47 0.86 4.14 3.27 4.2a2.87 2.87 0 0 0 3-1.79l1.73 0.49c-0.68 1.73-2.28 2.78-4.75 2.78-3.58 0-5.43-2.28-5.37-6.17s1.62-6.05 5.27-6.05zm3.21 5c0.37-3.7-4.7-4.75-6-1.73a4.39 4.39 0 0 0-0.37 1.73h6.37"/>
  <path id="o" class="cls-2" d="M364.6,146.83c-.12,1.49,1.11,1.79,2.35,1.36v1.48c-2,.62-4.32.31-4.32-2.4v-7.84h-1.36V138h1.48l.55-2.66h1.3V138h2.16v1.42H364.6v7.4"/>
  <path id="p" class="cls-2" d="M379.85,149.73h-2.22l-2.47-10.12-2.53,10.12H370.4L367.07,138h2l2.4,10.12L374.11,138h2.1l2.53,10.12L381.33,138h1.91"/>
  <path id="q" class="cls-2" d="m389.29 137.76c3.83-0.06 5.25 2.28 5.25 6.11s-1.67 6.11-5.31 6.11-5.12-2.41-5.18-6.11c0-4.07 1.72-6.11 5.24-6.11zm-0.06 10.74c2.72 0.06 3.27-1.91 3.27-4.63s-0.49-4.63-3.15-4.63-3.27 2-3.27 4.63 0.62 4.57 3.15 4.63"/>
  <path id="r" class="cls-2" d="M402.5,139.67c-4.81-1-3.27,5.62-3.52,10.06h-2L397,138h1.85a15.24,15.24,0,0,0,.12,2.4c.37-1.66,1.42-3,3.58-2.53v1.79"/>
  <path id="s" class="cls-2" d="m411.64 149.73-3.95-5.37-1.42 1.18v4.19h-2v-16.11h2v10.07l5.12-5.68h2.29l-4.76 5.06 5.06 6.66h-2.34"/>
 </g>
 <g id="b">
  <path id="t" class="cls-2" d="M322.75,161.09c5.37.06,11.79-.92,11.79,4.63,0,4.82-4.75,4.94-9.75,4.69v6h-2Zm2,7.72c3.51,0,7.65.68,7.65-3.09s-4.2-2.9-7.65-3v6.05"/>
  <path id="u" class="cls-2" d="M344.42,174.18c-.93,1.3-1.92,2.53-4.2,2.47s-3.58-1.3-3.58-3.52c-.06-3.95,3.89-3.89,7.71-3.89.19-2.16-.55-3.33-2.53-3.33-1.48.06-2.53.43-2.59,1.91l-2-.18c.31-2.29,2-3.21,4.69-3.21s4.45,1.23,4.45,3.95v5.06c-.06,1.23.43,2,1.73,1.67v1.23C346.14,176.9,344.29,176.22,344.42,174.18Zm-5.74-1.05a1.87,1.87,0,0,0,2,2c2.53-.19,3.89-1.79,3.7-4.57-2.65.12-5.67-.31-5.67,2.53"/>
  <path class="cls-2" d="M355.09,166.34c-4.81-1-3.27,5.62-3.51,10.06h-2l-.06-11.73h1.85a15.43,15.43,0,0,0,.12,2.41c.37-1.67,1.42-3,3.58-2.53v1.79" data-name="r"/>
  <path class="cls-2" d="M359.05,173.5c-.13,1.48,1.11,1.79,2.34,1.36v1.48c-2,.62-4.32.31-4.32-2.41v-7.84h-1.36v-1.42h1.48l.56-2.65h1.3v2.65h2.16v1.42h-2.16v7.41" data-name="o"/>
  <path id="v" class="cls-2" d="m363.06 162.14v-1.85h2v1.85zm0 14.26v-11.73h2v11.73h-2"/>
  <path id="w" class="cls-2" d="M372.38,166c-2.47,0-3,2-3,4.51s.55,4.63,3,4.63a2.46,2.46,0,0,0,2.65-2.35l2,.12a4.24,4.24,0,0,1-4.57,3.77c-3.64,0-4.69-2.53-5.06-6.11-.62-5.74,6.23-8.09,9.07-3.95a4.74,4.74,0,0,1,.43,1.35l-2,.19a2.36,2.36,0,0,0-2.53-2.16"/>
  <path class="cls-2" d="m379.05 162.14v-1.85h2v1.85zm0 14.26v-11.73h2v11.73h-2" data-name="v"/>
  <path id="x" class="cls-2" d="M389.54,164.43c3.39.06,4.32,2.53,4.32,6s-1,6-4.32,6.17a3.77,3.77,0,0,1-3.7-2.1l.06,6.48h-2l-.06-16.36h1.91l.13,1.85A3.64,3.64,0,0,1,389.54,164.43Zm-.49,10.74c2.46,0,2.77-2.1,2.77-4.63s-.37-4.51-2.77-4.57c-2.6,0-3.15,2-3.15,4.69s.61,4.51,3.15,4.51"/>
  <path class="cls-2" d="M403.49,174.18c-.93,1.3-1.91,2.53-4.2,2.47s-3.58-1.3-3.58-3.52c-.06-3.95,3.89-3.89,7.72-3.89.18-2.16-.56-3.33-2.53-3.33-1.48.06-2.53.43-2.6,1.91l-2-.18c.31-2.29,2-3.21,4.69-3.21s4.44,1.23,4.44,3.95v5.06c-.06,1.23.44,2,1.73,1.67v1.23C405.22,176.9,403.37,176.22,403.49,174.18Zm-5.74-1.05a1.87,1.87,0,0,0,2,2c2.54-.19,3.89-1.79,3.71-4.57-2.66.12-5.68-.31-5.68,2.53" data-name="u"/>
  <path id="y" class="cls-2" d="M414.35,164.43c5.5-.25,3.28,7.16,3.71,12h-2v-7.47c0-1.91-.49-3-2.4-3-4.45.12-2.72,6.3-3,10.43h-2l-.07-11.73h1.86a9.58,9.58,0,0,0,.12,2,3.9,3.9,0,0,1,3.76-2.22"/>
  <path class="cls-2" d="M423.12,173.5c-.12,1.48,1.11,1.79,2.35,1.36v1.48c-2,.62-4.33.31-4.33-2.41v-7.84h-1.35v-1.42h1.48l.55-2.65h1.3v2.65h2.16v1.42h-2.16v7.41" data-name="o"/>
 </g>
 <path class="cls-3" d="m653.27 105a6 6 0 0 1 6-6h148a6 6 0 0 1 6 6v108a6 6 0 0 1-6 6h-148a6 6 0 0 1-6-6z"/>
 <g data-name="a">
  <path class="cls-2" d="m704.35 149.73-8.14-13 0.06 13h-1.79v-15.3h2.4l8.21 13.14-0.09-13.14h1.91v15.3h-2.53" data-name="m"/>
  <path class="cls-2" d="m714.79 137.76c3.89 0 5.3 2.59 5.18 6.54h-8.33c0 2.47 0.86 4.14 3.27 4.2a2.87 2.87 0 0 0 3-1.79l1.73 0.49c-0.68 1.73-2.28 2.78-4.75 2.78-3.58 0-5.43-2.28-5.37-6.17s1.62-6.05 5.27-6.05zm3.21 5c0.37-3.7-4.7-4.75-6-1.73a4.39 4.39 0 0 0-0.37 1.73h6.37" data-name="n"/>
  <path class="cls-2" d="M724.6,146.83c-.12,1.49,1.11,1.79,2.35,1.36v1.48c-2,.62-4.32.31-4.32-2.4v-7.84h-1.36V138h1.48l.55-2.66h1.3V138h2.16v1.42H724.6v7.4" data-name="o"/>
  <path class="cls-2" d="M739.85,149.73h-2.22l-2.47-10.12-2.53,10.12H730.4L727.07,138h2l2.4,10.12L734.11,138h2.1l2.53,10.12L741.33,138h1.91" data-name="p"/>
  <path class="cls-2" d="m749.29 137.76c3.83-0.06 5.25 2.28 5.25 6.11s-1.67 6.11-5.31 6.11-5.12-2.41-5.18-6.11c0-4.07 1.72-6.11 5.24-6.11zm-0.06 10.74c2.72 0.06 3.27-1.91 3.27-4.63s-0.49-4.63-3.15-4.63-3.27 2-3.27 4.63 0.62 4.57 3.15 4.63" data-name="q"/>
  <path class="cls-2" d="M762.5,139.67c-4.81-1-3.27,5.62-3.52,10.06h-2L757,138h1.85a15.24,15.24,0,0,0,.12,2.4c.37-1.66,1.42-3,3.58-2.53v1.79" data-name="r"/>
  <path class="cls-2" d="m771.64 149.73-3.95-5.37-1.42 1.18v4.19h-2v-16.11h2v10.07l5.12-5.68h2.29l-4.76 5.06 5.06 6.66h-2.34" data-name="s"/>
 </g>
 <g data-name="b">
  <path class="cls-2" d="M682.75,161.09c5.37.06,11.79-.92,11.79,4.63,0,4.82-4.75,4.94-9.75,4.69v6h-2Zm2,7.72c3.51,0,7.65.68,7.65-3.09s-4.2-2.9-7.65-3v6.05" data-name="t"/>
  <path class="cls-2" d="M704.42,174.18c-.93,1.3-1.92,2.53-4.2,2.47s-3.58-1.3-3.58-3.52c-.06-3.95,3.89-3.89,7.71-3.89.19-2.16-.55-3.33-2.53-3.33-1.48.06-2.53.43-2.59,1.91l-2-.18c.31-2.29,2-3.21,4.69-3.21s4.45,1.23,4.45,3.95v5.06c-.06,1.23.43,2,1.73,1.67v1.23C706.14,176.9,704.29,176.22,704.42,174.18Zm-5.74-1.05a1.87,1.87,0,0,0,2,2c2.53-.19,3.89-1.79,3.7-4.57-2.65.12-5.67-.31-5.67,2.53" data-name="u"/>
  <path class="cls-2" d="M715.09,166.34c-4.81-1-3.27,5.62-3.51,10.06h-2l-.06-11.73h1.85a15.43,15.43,0,0,0,.12,2.41c.37-1.67,1.42-3,3.58-2.53v1.79" data-name="r"/>
  <path class="cls-2" d="M719.05,173.5c-.13,1.48,1.11,1.79,2.34,1.36v1.48c-2,.62-4.32.31-4.32-2.41v-7.84h-1.36v-1.42h1.48l.56-2.65h1.3v2.65h2.16v1.42h-2.16v7.41" data-name="o"/>
  <path class="cls-2" d="m723.06 162.14v-1.85h2v1.85zm0 14.26v-11.73h2v11.73h-2" data-name="v"/>
  <path class="cls-2" d="M732.38,166c-2.47,0-3,2-3,4.51s.55,4.63,3,4.63a2.46,2.46,0,0,0,2.65-2.35l2,.12a4.24,4.24,0,0,1-4.57,3.77c-3.64,0-4.69-2.53-5.06-6.11-.62-5.74,6.23-8.09,9.07-3.95a4.74,4.74,0,0,1,.43,1.35l-2,.19a2.36,2.36,0,0,0-2.53-2.16" data-name="w"/>
  <path class="cls-2" d="m739.05 162.14v-1.85h2v1.85zm0 14.26v-11.73h2v11.73h-2" data-name="v"/>
  <path class="cls-2" d="M749.54,164.43c3.39.06,4.32,2.53,4.32,6s-1,6-4.32,6.17a3.77,3.77,0,0,1-3.7-2.1l.06,6.48h-2l-.06-16.36h1.91l.13,1.85A3.64,3.64,0,0,1,749.54,164.43Zm-.49,10.74c2.46,0,2.77-2.1,2.77-4.63s-.37-4.51-2.77-4.57c-2.6,0-3.15,2-3.15,4.69s.61,4.51,3.15,4.51" data-name="x"/>
  <path class="cls-2" d="M763.49,174.18c-.93,1.3-1.91,2.53-4.2,2.47s-3.58-1.3-3.58-3.52c-.06-3.95,3.89-3.89,7.72-3.89.18-2.16-.56-3.33-2.53-3.33-1.48.06-2.53.43-2.6,1.91l-2-.18c.31-2.29,2-3.21,4.69-3.21s4.44,1.23,4.44,3.95v5.06c-.06,1.23.44,2,1.73,1.67v1.23C765.22,176.9,763.37,176.22,763.49,174.18Zm-5.74-1.05a1.87,1.87,0,0,0,2,2c2.54-.19,3.89-1.79,3.71-4.57-2.66.12-5.68-.31-5.68,2.53" data-name="u"/>
  <path class="cls-2" d="M774.35,164.43c5.5-.25,3.28,7.16,3.71,12h-2v-7.47c0-1.91-.49-3-2.4-3-4.45.12-2.72,6.3-3,10.43h-2l-.07-11.73h1.86a9.58,9.58,0,0,0,.12,2,3.9,3.9,0,0,1,3.76-2.22" data-name="y"/>
  <path class="cls-2" d="M783.12,173.5c-.12,1.48,1.11,1.79,2.35,1.36v1.48c-2,.62-4.33.31-4.33-2.41v-7.84h-1.35v-1.42h1.48l.55-2.65h1.3v2.65h2.16v1.42h-2.16v7.41" data-name="o"/>
 </g>
 <path class="cls-1" d="m503.47 95.46c4.3 0 7.8 8.62 7.8 19.25s-3.5 19.26-7.8 19.26h-62.4c-4.3 0-7.8-8.62-7.8-19.25s3.5-19.24 7.8-19.24z"/>
 <path class="cls-4" d="m503.47 134c-4.3 0-7.8-8.62-7.8-19.25s3.5-19.24 7.8-19.24"/>
 <g id="c">
  <path id="z" class="cls-2" d="m445.3 106.47v5.68h8.52v1.72h-8.52v6.18h-2v-15.31h10.8v1.73h-8.8"/>
  <path class="cls-2" d="m456.41 120.05v-16.11h2v16.11h-2" data-name="A"/>
  <path class="cls-2" d="m466 108.07c3.82-0.06 5.24 2.29 5.24 6.11s-1.66 6.11-5.3 6.11-5.13-2.4-5.19-6.11c-0.02-4.07 1.71-6.11 5.25-6.11zm-0.06 10.74c2.71 0.06 3.27-1.91 3.27-4.63s-0.5-4.63-3.15-4.63-3.27 2-3.27 4.63 0.61 4.57 3.15 4.63" data-name="q"/>
  <path class="cls-2" d="m484.87 120.05h-2.23l-2.46-10.13-2.54 10.13h-2.22l-3.33-11.73h2l2.41 10.12 2.66-10.12h2.09l2.54 10.12 2.59-10.12h1.91" data-name="p"/>
 </g>
 <path class="cls-1" d="m503.47 141.82c4.3 0 7.8 8.62 7.8 19.25s-3.5 19.25-7.8 19.25h-62.4c-4.3 0-7.8-8.62-7.8-19.25s3.5-19.25 7.8-19.25z"/>
 <path class="cls-4" d="m503.47 180.32c-4.3 0-7.8-8.62-7.8-19.25s3.5-19.25 7.8-19.25"/>
 <g data-name="c">
  <path class="cls-2" d="m445.3 152.83v5.68h8.52v1.73h-8.52v6.17h-2v-15.31h10.8v1.73h-8.8" data-name="z"/>
  <path class="cls-2" d="M456.41,166.41V150.3h2v16.11h-2" data-name="A"/>
  <path class="cls-2" d="m466 154.43c3.82-0.06 5.24 2.29 5.24 6.12s-1.66 6.11-5.3 6.11-5.13-2.41-5.19-6.11c-0.02-4.08 1.71-6.12 5.25-6.12zm-0.06 10.75c2.71 0.06 3.27-1.92 3.27-4.63s-0.5-4.63-3.15-4.63-3.27 2-3.27 4.63 0.61 4.56 3.15 4.63" data-name="q"/>
  <path class="cls-2" d="m484.87 166.41h-2.23l-2.46-10.12-2.54 10.12h-2.22l-3.33-11.73h2l2.41 10.13 2.66-10.13h2.09l2.54 10.13 2.59-10.13h1.91" data-name="p"/>
 </g>
 <path class="cls-3" d="m663.47 95.46c4.3 0 7.8 8.62 7.8 19.25s-3.5 19.26-7.8 19.26h-62.4c-4.3 0-7.8-8.62-7.8-19.25s3.5-19.24 7.8-19.24z"/>
 <path class="cls-4" d="m663.47 134c-4.3 0-7.8-8.62-7.8-19.25s3.5-19.24 7.8-19.24"/>
 <g data-name="c">
  <path class="cls-2" d="m605.3 106.47v5.68h8.52v1.72h-8.52v6.18h-2v-15.31h10.8v1.73h-8.8" data-name="z"/>
  <path class="cls-2" d="m616.41 120.05v-16.11h2v16.11h-2" data-name="A"/>
  <path class="cls-2" d="m626 108.07c3.82-0.06 5.24 2.29 5.24 6.11s-1.66 6.11-5.3 6.11-5.13-2.4-5.19-6.11c-0.02-4.07 1.71-6.11 5.25-6.11zm-0.06 10.74c2.71 0.06 3.27-1.91 3.27-4.63s-0.5-4.63-3.15-4.63-3.27 2-3.27 4.63 0.61 4.57 3.15 4.63" data-name="q"/>
  <path class="cls-2" d="m644.87 120.05h-2.23l-2.46-10.13-2.54 10.13h-2.22l-3.33-11.73h2l2.41 10.12 2.66-10.12h2.09l2.54 10.12 2.59-10.12h1.91" data-name="p"/>
 </g>
 <path class="cls-3" d="m663.47 141.82c4.3 0 7.8 8.62 7.8 19.25s-3.5 19.25-7.8 19.25h-62.4c-4.3 0-7.8-8.62-7.8-19.25s3.5-19.25 7.8-19.25z"/>
 <path class="cls-4" d="m663.47 180.32c-4.3 0-7.8-8.62-7.8-19.25s3.5-19.25 7.8-19.25"/>
 <g data-name="c">
  <path class="cls-2" d="m605.3 152.83v5.68h8.52v1.73h-8.52v6.17h-2v-15.31h10.8v1.73h-8.8" data-name="z"/>
  <path class="cls-2" d="M616.41,166.41V150.3h2v16.11h-2" data-name="A"/>
  <path class="cls-2" d="m626 154.43c3.82-0.06 5.24 2.29 5.24 6.12s-1.66 6.11-5.3 6.11-5.13-2.41-5.19-6.11c-0.02-4.08 1.71-6.12 5.25-6.12zm-0.06 10.75c2.71 0.06 3.27-1.92 3.27-4.63s-0.5-4.63-3.15-4.63-3.27 2-3.27 4.63 0.61 4.56 3.15 4.63" data-name="q"/>
  <path class="cls-2" d="m644.87 166.41h-2.23l-2.46-10.12-2.54 10.12h-2.22l-3.33-11.73h2l2.41 10.13 2.66-10.13h2.09l2.54 10.13 2.59-10.13h1.91" data-name="p"/>
 </g>
 <path class="cls-5" d="m531.27 114.7h59.5"/>
 <path class="cls-6" d="m516 114.7 14.26-4.63v9.27z"/>
 <path class="cls-7" d="m591.77 114.62v0.8 0.3h-1.07v-2h1.14"/>
 <path class="cls-5" d="m573.27 161.07h-59.5"/>
 <path class="cls-6" d="m588.53 161.07-14.26 4.63v-9.27z"/>
 <path class="cls-7" d="M513.8,162.07h-1.14l.1-.9v-.8l0-.3h1.07"/>
 <path class="cls-8" d="m258.94 92.3a7.25 7.25 0 1 1-7.25-7.23 7.26 7.26 0 0 1 7.25 7.23z"/>
 <path class="cls-9" d="m251.69 99.56v14.3a20.62 20.62 0 0 0 3.65 10.76l14.13 18.44m-17.78-23.2-17.78 23.2m0-36.25h35.56"/>
 <path class="cls-10" d="m233.91 91.06a6 6 0 0 1 6-6h23.56a6 6 0 0 1 6 6v68a6 6 0 0 1-6 6h-23.56a6 6 0 0 1-6-6z"/>
 <path class="cls-8" d="m198.94 92.3a7.25 7.25 0 1 1-7.25-7.23 7.26 7.26 0 0 1 7.25 7.23z"/>
 <path class="cls-9" d="m191.69 99.56v14.3a20.62 20.62 0 0 0 3.65 10.76l14.13 18.44m-17.78-23.2-17.78 23.2m0-36.25h35.56"/>
 <path class="cls-10" d="m173.91 91.06a6 6 0 0 1 6-6h23.56a6 6 0 0 1 6 6v68a6 6 0 0 1-6 6h-23.56a6 6 0 0 1-6-6z"/>
 <path class="cls-8" d="m228.3 153.8a7.25 7.25 0 1 1-7.25-7.23 7.26 7.26 0 0 1 7.25 7.23z"/>
 <path class="cls-9" d="m221.05 161.06v14.3a20.62 20.62 0 0 0 3.65 10.76l14.13 18.44m-17.78-23.2-17.78 23.2m0-36.25h35.56"/>
 <path class="cls-10" d="m203.27 152.56a6 6 0 0 1 6-6h23.56a6 6 0 0 1 6 6v68a6 6 0 0 1-6 6h-23.56a6 6 0 0 1-6-6z"/>
 <g id="d">
  <path class="cls-2" d="M206.64,216.6c-.06,4-2.46,6-6.42,6-3.76,0-6.17-2-6.17-5.8V207h2c.49,5.49-2,13.82,4.13,13.82s4-8.21,4.39-13.82h2v9.57" data-name="B"/>
  <path class="cls-2" d="M216.64,213.51c-.18-2.1-5.3-2.35-5.37,0,.93,3.27,7.1.74,7.35,5.55s-9.26,4.57-9.69.5l1.73-.31c.24,2.22,6,2.78,6.05,0-.62-3.46-7-.93-7.29-5.56-.24-3.51,5.06-3.88,7.53-2.59a3.08,3.08,0,0,1,1.48,2.16" data-name="C"/>
  <path class="cls-2" d="M225.59,210.36c3.89,0,5.31,2.59,5.19,6.54h-8.33c0,2.47.86,4.14,3.27,4.2a2.87,2.87,0,0,0,3-1.79l1.73.5c-.68,1.72-2.28,2.77-4.75,2.77-3.58,0-5.43-2.28-5.37-6.17S222,210.36,225.59,210.36Zm3.21,5c.38-3.7-4.69-4.75-6-1.73a4.39,4.39,0,0,0-.37,1.73h6.35" data-name="n"/>
  <path class="cls-2" d="M238.8,212.27c-4.81-1-3.27,5.62-3.51,10.07h-2l-.06-11.73h1.85a15.43,15.43,0,0,0,.12,2.41c.37-1.67,1.42-3,3.58-2.54v1.79" data-name="r"/>
  <path class="cls-2" d="M247.45,213.51c-.19-2.1-5.31-2.35-5.37,0,.92,3.27,7.1.74,7.34,5.55s-9.26,4.57-9.69.5l1.73-.31c.25,2.22,6,2.78,6,0-.62-3.46-7-.93-7.29-5.56-.24-3.51,5.07-3.88,7.54-2.59a3.11,3.11,0,0,1,1.48,2.16" data-name="C"/>
 </g>
 <path class="cls-11" d="m918.3 95.46a7.25 7.25 0 1 1-7.25-7.24 7.26 7.26 0 0 1 7.25 7.24z"/>
 <path class="cls-12" d="M911.05,102.7V117a20.59,20.59,0,0,0,3.65,10.77l14.13,18.44M911.05,123l-17.78,23.2m0-36.24h35.56"/>
 <path class="cls-10" d="m893.27 94.2a6 6 0 0 1 6-6h23.56a6 6 0 0 1 6 6v68a6 6 0 0 1-6 6h-23.56a6 6 0 0 1-6-6z"/>
 <path class="cls-11" d="m858.3 95.46a7.25 7.25 0 1 1-7.25-7.24 7.26 7.26 0 0 1 7.25 7.24z"/>
 <path class="cls-12" d="M851.05,102.7V117a20.59,20.59,0,0,0,3.65,10.77l14.13,18.44M851.05,123l-17.78,23.2m0-36.24h35.56"/>
 <path class="cls-10" d="m833.27 94.2a6 6 0 0 1 6-6h23.56a6 6 0 0 1 6 6v68a6 6 0 0 1-6 6h-23.56a6 6 0 0 1-6-6z"/>
 <path class="cls-11" d="m887.67 157a7.26 7.26 0 1 1-7.27-7.24 7.26 7.26 0 0 1 7.27 7.24z"/>
 <path class="cls-12" d="m880.41 164.2v14.3a20.59 20.59 0 0 0 3.65 10.77l14.1 18.44m-17.76-23.2-17.78 23.2m0-36.24h35.55"/>
 <path class="cls-10" d="m862.63 155.7a6 6 0 0 1 6-6h23.55a6 6 0 0 1 6 6v68a6 6 0 0 1-6 6h-23.54a6 6 0 0 1-6-6z"/>
 <g data-name="d">
  <path class="cls-2" d="M866,219.74c-.06,4-2.47,6-6.42,6-3.76,0-6.17-2-6.17-5.8v-9.75h2c.49,5.49-2,13.82,4.13,13.82s3.95-8.21,4.39-13.82h2v9.56" data-name="B"/>
  <path class="cls-2" d="M876,216.66c-.18-2.1-5.31-2.35-5.37,0,.93,3.27,7.1.74,7.35,5.55s-9.26,4.57-9.69.5l1.72-.31c.25,2.22,6,2.78,6,0-.61-3.46-7-.93-7.28-5.56-.25-3.52,5.06-3.89,7.53-2.59a3.08,3.08,0,0,1,1.48,2.16" data-name="C"/>
  <path class="cls-2" d="M885,213.51c3.89,0,5.31,2.59,5.19,6.54H881.8c0,2.47.87,4.14,3.28,4.2a2.87,2.87,0,0,0,3-1.79l1.73.49c-.68,1.73-2.28,2.78-4.75,2.78-3.58,0-5.44-2.28-5.37-6.17S881.31,213.51,885,213.51Zm3.21,5c.37-3.7-4.69-4.75-6-1.73a4.38,4.38,0,0,0-.38,1.73h6.36" data-name="n"/>
  <path class="cls-2" d="M898.16,215.42c-4.81-1-3.27,5.62-3.52,10.06h-2l-.06-11.72h1.85a15.24,15.24,0,0,0,.12,2.4c.37-1.66,1.42-3,3.58-2.53v1.79" data-name="r"/>
  <path class="cls-2" d="M906.8,216.66c-.18-2.1-5.3-2.35-5.37,0,.93,3.27,7.1.74,7.35,5.55s-9.26,4.57-9.69.5l1.73-.31c.24,2.22,6,2.78,6,0-.62-3.46-7-.93-7.29-5.56-.24-3.52,5.06-3.89,7.53-2.59a3.12,3.12,0,0,1,1.49,2.16" data-name="C"/>
 </g>
 <path class="cls-13" d="M232.63,0H779.21V95.34H232.63Z"/>
 <g id="e">
  <path class="cls-2" d="M259.51,33.46V9H278v2.77H262.77v7.8H277V22.2H262.77v8.59h16v2.67H259.51" data-name="D"/>
  <path class="cls-2" d="M290.92,33.46h-3.75l-6.82-18.77h3.36L289.05,31l5.53-16.3h3.35" data-name="E"/>
  <path class="cls-2" d="m307.91 14.3c6.22 0 8.49 4.14 8.3 10.46h-13.34c0 3.95 1.39 6.62 5.24 6.72 2.57 0.1 4.24-1.18 4.84-2.86l2.76 0.79c-1.08 2.76-3.65 4.44-7.6 4.44-5.73 0-8.69-3.65-8.6-9.88 0.1-5.97 2.57-9.67 8.4-9.67zm5.14 8c0.59-5.93-7.51-7.61-9.58-2.77a7.1 7.1 0 0 0-0.6 2.77h10.18" data-name="n"/>
  <path class="cls-2" d="M329.34,14.3c8.79-.4,5.24,11.45,5.93,19.16h-3.16V21.51c0-3.07-.79-4.84-3.85-4.75-7.12.2-4.35,10.08-4.84,16.7h-3.16l-.1-18.77h3a15.76,15.76,0,0,0,.2,3.16c1.08-2.17,2.86-3.46,6-3.55" data-name="y"/>
  <path class="cls-2" d="M343.37,28.81c-.2,2.37,1.77,2.87,3.75,2.18v2.37c-3.26,1-6.91.49-6.91-3.85V17H338V14.69h2.37l.89-4.25h2.08v4.25h3.45V17h-3.45V28.81" data-name="o"/>
 </g>
 <g id="f">
  <path class="cls-2" d="M375.56,14.79c-.49-4.74-12.14-5.33-12.24.2,1.38,7.4,15.6,1.38,16.1,11.75.29,7.7-11.95,8.59-17.29,5.43a7.09,7.09,0,0,1-3.26-4.54l3.26-.69c.5,5.53,13.93,6.22,13.93-.1,0-7.71-15.31-1.38-16-11.66-.5-8.09,14.32-8.29,17.68-3.35a9.24,9.24,0,0,1,1.08,2.47" data-name="F"/>
  <path class="cls-2" d="M386.82,28.81c-.19,2.37,1.78,2.87,3.76,2.18v2.37c-3.26,1-6.92.49-6.92-3.85V17h-2.17V14.69h2.37l.89-4.25h2.07v4.25h3.46V17h-3.46V28.81" data-name="o"/>
  <path class="cls-2" d="M402.13,17.36c-7.7-1.58-5.23,9-5.63,16.1h-3.16l-.1-18.77h3a23.64,23.64,0,0,0,.19,3.85c.6-2.66,2.28-4.84,5.73-4v2.87" data-name="r"/>
  <path class="cls-2" d="M412.5,14.3c6.22,0,8.5,4.14,8.3,10.46H407.47c0,3.95,1.38,6.62,5.23,6.72,2.57.1,4.25-1.18,4.84-2.86l2.76.79c-1.08,2.76-3.65,4.44-7.6,4.44-5.73,0-8.69-3.65-8.59-9.88C404.21,18,406.68,14.3,412.5,14.3Zm5.14,8c.59-5.93-7.51-7.61-9.58-2.77a7.11,7.11,0,0,0-.59,2.77h10.17" data-name="n"/>
  <path class="cls-2" d="M436.3,29.9c-1.48,2.07-3.06,4.05-6.71,4s-5.73-2.07-5.73-5.63c-.1-6.32,6.22-6.22,12.35-6.22.29-3.46-.89-5.33-4-5.33-2.37.09-4.05.69-4.15,3.06l-3.26-.3c.49-3.65,3.26-5.13,7.51-5.13,4.44,0,7.11,2,7.11,6.32v8.09c-.1,2,.69,3.17,2.76,2.67v2C439.07,34.25,436.11,33.16,436.3,29.9Zm-9.18-1.68a3,3,0,0,0,3.16,3.26c4.05-.3,6.22-2.86,5.93-7.31-4.25.2-9.09-.49-9.09,4" data-name="u"/>
  <path id="G" class="cls-2" d="M462.87,16.76c-6.61.3-3.75,10.37-4.34,16.7h-3.06V21.51c0-2.87-.5-4.94-3.46-4.75-6.52.4-3.75,10.28-4.35,16.7H444.6l-.1-18.77h3a15.79,15.79,0,0,0,.19,3.16c1-4.34,9.78-4.94,10.57,0A6.05,6.05,0,0,1,464,14.3c8.39-.2,4.64,11.75,5.43,19.16h-3.06V21.51c0-2.87-.49-4.84-3.46-4.75"/>
  <path class="cls-2" d="M474,10.64v-3h3.16v3Zm0,22.82V14.69h3.16V33.46H474" data-name="v"/>
  <path class="cls-2" d="M491,14.3c8.79-.4,5.24,11.45,5.93,19.16h-3.16V21.51c0-3.07-.79-4.84-3.86-4.75-7.11.2-4.34,10.08-4.83,16.7h-3.17l-.09-18.77h3a15.76,15.76,0,0,0,.2,3.16c1.08-2.17,2.86-3.46,6-3.55" data-name="y"/>
  <path id="H" class="cls-2" d="M516.7,14.69c-1,12.35,4,28.94-10.86,25.78a5.62,5.62,0,0,1-4.35-4.25l3.16-.49c1.48,4.64,9.88,3.16,8.79-2.77V30a6.25,6.25,0,0,1-6,3.55c-5.34,0-6.72-4-6.72-9.48s1.58-9.58,7-9.68a6.36,6.36,0,0,1,5.83,3.46,31.5,31.5,0,0,1,.2-3.16Zm-8.2,16.59c3.56,0,4.94-3.16,4.94-7.21s-1.38-7.4-4.94-7.4c-3.85,0-4.54,3.35-4.54,7.4s.59,7.21,4.54,7.21"/>
 </g>
 <g data-name="g">
  <path id="I" class="cls-2" d="m542.68 8.67c8 0 12.14 4.54 12.14 12.44s-4.34 12.74-12.14 12.74c-8 0-12.15-4.84-12.15-12.74s4.15-12.44 12.15-12.44zm0 22.42c6.22 0 8.79-4.05 8.79-10s-2.87-9.78-8.79-9.78-8.79 3.85-8.79 9.78 2.76 9.88 8.79 10"/>
  <path class="cls-2" d="M567.86,14.3c5.43.09,6.91,4,6.91,9.67s-1.58,9.68-6.91,9.88c-3.06,0-4.84-1.28-5.93-3.36l.1,10.37h-3.16l-.1-26.17h3.07l.19,3C563,15.58,564.8,14.3,567.86,14.3Zm-.79,17.18c3.95,0,4.44-3.36,4.44-7.41s-.59-7.21-4.44-7.31c-4.15,0-5,3.16-5,7.51s1,7.21,5,7.21" data-name="x"/>
  <path class="cls-2" d="M586.13,14.3c6.22,0,8.5,4.14,8.3,10.46H581.1c0,3.95,1.38,6.62,5.23,6.72,2.57.1,4.25-1.18,4.84-2.86l2.76.79c-1.08,2.76-3.65,4.44-7.6,4.44-5.73,0-8.69-3.65-8.59-9.88C577.84,18,580.3,14.3,586.13,14.3Zm5.14,8c.59-5.93-7.51-7.61-9.58-2.77a7.11,7.11,0,0,0-.59,2.77h10.17" data-name="n"/>
  <path class="cls-2" d="M607.56,14.3c8.79-.4,5.24,11.45,5.93,19.16h-3.16V21.51c0-3.07-.79-4.84-3.85-4.75-7.11.2-4.35,10.08-4.84,16.7h-3.16l-.1-18.77h3a15.76,15.76,0,0,0,.2,3.16c1.09-2.17,2.86-3.46,6-3.55" data-name="y"/>
 </g>
 <g data-name="h">
  <path class="cls-2" d="M644.4,33.46l-13-20.84.1,20.84H628.6V9h3.85l13.14,21-.2-21h3.06v24.5H644.4" data-name="m"/>
  <path class="cls-2" d="M661.09,14.3c6.23,0,8.5,4.14,8.3,10.46H656.06c0,3.95,1.38,6.62,5.23,6.72,2.57.1,4.25-1.18,4.84-2.86l2.77.79c-1.09,2.76-3.66,4.44-7.61,4.44-5.73,0-8.69-3.65-8.59-9.88C652.8,18,655.27,14.3,661.09,14.3Zm5.14,8c.59-5.93-7.51-7.61-9.58-2.77a7.11,7.11,0,0,0-.59,2.77h10.17" data-name="n"/>
  <path class="cls-2" d="M676.8,28.81c-.2,2.37,1.78,2.87,3.75,2.18v2.37c-3.26,1-6.91.49-6.91-3.85V17h-2.17V14.69h2.37l.88-4.25h2.08v4.25h3.46V17H676.8V28.81" data-name="o"/>
  <path class="cls-2" d="m701.19 33.46h-3.55l-3.95-16.2-4.05 16.2h-3.56l-5.33-18.77h3.16l3.85 16.2 4.24-16.2h3.36l4 16.2 4.14-16.2h3.07" data-name="p"/>
  <path class="cls-2" d="m716.3 14.3c6.13-0.1 8.4 3.65 8.4 9.77s-2.67 9.78-8.49 9.78-8.2-3.85-8.3-9.78c0-6.52 2.77-9.77 8.39-9.77zm-0.09 17.18c4.34 0.1 5.23-3.06 5.23-7.41s-0.79-7.4-5-7.4-5.23 3.16-5.23 7.4 1 7.31 5 7.41" data-name="q"/>
  <path class="cls-2" d="M737.44,17.36c-7.7-1.58-5.23,9-5.63,16.1h-3.16l-.1-18.77h3a24.76,24.76,0,0,0,.2,3.85c.59-2.66,2.27-4.84,5.73-4v2.87" data-name="r"/>
  <path class="cls-2" d="M752.06,33.46l-6.32-8.6-2.27,1.88v6.72H740.3V7.68h3.17v16.1l8.19-9.09h3.66l-7.61,8.1,8.1,10.67h-3.75" data-name="s"/>
 </g>
 <path class="cls-14" d="m293.27 275a6 6 0 0 1 6-6h148a6 6 0 0 1 6 6v108a6 6 0 0 1-6 6h-148a6 6 0 0 1-6-6z"/>
 <g data-name="a">
  <path class="cls-2" d="m344.35 319.77-8.14-13 0.06 13h-1.79v-15.31h2.4l8.21 13.15-0.09-13.15h1.91v15.31h-2.53" data-name="m"/>
  <path class="cls-2" d="m354.79 307.79c3.89 0 5.3 2.6 5.18 6.55h-8.33c0 2.47 0.86 4.13 3.27 4.19a2.86 2.86 0 0 0 3-1.79l1.73 0.5c-0.64 1.76-2.26 2.76-4.73 2.76-3.58 0-5.43-2.29-5.37-6.18s1.6-6.03 5.25-6.03zm3.21 5c0.37-3.7-4.7-4.75-6-1.72a4.34 4.34 0 0 0-0.37 1.72h6.37" data-name="n"/>
  <path class="cls-2" d="M364.6,316.87c-.12,1.48,1.11,1.79,2.35,1.36v1.48c-2,.61-4.32.31-4.32-2.41v-7.84h-1.36V308h1.48l.55-2.65h1.3V308h2.16v1.42H364.6v7.41" data-name="o"/>
  <path class="cls-2" d="M379.85,319.77h-2.22l-2.47-10.12-2.53,10.12H370.4L367.07,308h2l2.4,10.12L374.11,308h2.1l2.53,10.12L381.33,308h1.91" data-name="p"/>
  <path class="cls-2" d="m389.29 307.79c3.83-0.06 5.25 2.29 5.25 6.12s-1.67 6.11-5.31 6.11-5.12-2.41-5.18-6.11c0-4.08 1.72-6.12 5.24-6.12zm-0.06 10.74c2.72 0.07 3.27-1.91 3.27-4.62s-0.49-4.63-3.15-4.63-3.27 2-3.27 4.63 0.62 4.56 3.15 4.62" data-name="q"/>
  <path class="cls-2" d="M402.5,309.71c-4.81-1-3.27,5.61-3.52,10.06h-2L397,308h1.85a15.43,15.43,0,0,0,.12,2.41c.37-1.67,1.42-3,3.58-2.53v1.79" data-name="r"/>
  <path class="cls-2" d="m411.64 319.77-3.95-5.37-1.42 1.17v4.2h-2v-16.11h2v10.06l5.12-5.68h2.29l-4.76 5.06 5.06 6.67h-2.34" data-name="s"/>
 </g>
 <g data-name="b">
  <path class="cls-2" d="M322.75,331.13c5.37.06,11.79-.93,11.79,4.63,0,4.81-4.75,4.94-9.75,4.69v6h-2Zm2,7.71c3.51,0,7.65.68,7.65-3.08s-4.2-2.9-7.65-3v6" data-name="t"/>
  <path class="cls-2" d="M344.42,344.21c-.93,1.3-1.92,2.53-4.2,2.47s-3.58-1.29-3.58-3.52c-.06-4,3.89-3.88,7.71-3.88.19-2.17-.55-3.34-2.53-3.34-1.48.06-2.53.43-2.59,1.92l-2-.19c.31-2.28,2-3.21,4.69-3.21s4.45,1.24,4.45,4v5.06c-.06,1.24.43,2,1.73,1.67v1.23C346.14,346.93,344.29,346.25,344.42,344.21Zm-5.74-1a1.86,1.86,0,0,0,2,2c2.53-.18,3.89-1.79,3.7-4.57-2.65.13-5.67-.31-5.67,2.53" data-name="u"/>
  <path class="cls-2" d="M355.09,336.37c-4.81-1-3.27,5.62-3.51,10.07h-2l-.06-11.73h1.85a15.24,15.24,0,0,0,.12,2.4c.37-1.66,1.42-3,3.58-2.53v1.79" data-name="r"/>
  <path class="cls-2" d="M359.05,343.53c-.13,1.49,1.11,1.79,2.34,1.36v1.48c-2,.62-4.32.31-4.32-2.4v-7.84h-1.36v-1.42h1.48l.56-2.66h1.3v2.66h2.16v1.42h-2.16v7.4" data-name="o"/>
  <path class="cls-2" d="m363.06 332.18v-1.86h2v1.86zm0 14.26v-11.73h2v11.73h-2" data-name="v"/>
  <path class="cls-2" d="M372.38,336c-2.47,0-3,2-3,4.51s.55,4.63,3,4.63a2.45,2.45,0,0,0,2.65-2.35l2,.13a4.24,4.24,0,0,1-4.57,3.76c-3.64,0-4.69-2.53-5.06-6.11-.62-5.74,6.23-8.08,9.07-3.95a4.8,4.8,0,0,1,.43,1.36l-2,.18a2.37,2.37,0,0,0-2.53-2.16" data-name="w"/>
  <path class="cls-2" d="m379.05 332.18v-1.86h2v1.86zm0 14.26v-11.73h2v11.73h-2" data-name="v"/>
  <path class="cls-2" d="M389.54,334.46c3.39.06,4.32,2.53,4.32,6.05s-1,6.05-4.32,6.17a3.77,3.77,0,0,1-3.7-2.1l.06,6.49h-2l-.06-16.36h1.91l.13,1.85A3.63,3.63,0,0,1,389.54,334.46Zm-.49,10.74c2.46,0,2.77-2.1,2.77-4.63s-.37-4.5-2.77-4.57c-2.6,0-3.15,2-3.15,4.7s.61,4.5,3.15,4.5" data-name="x"/>
  <path class="cls-2" d="M403.49,344.21c-.93,1.3-1.91,2.53-4.2,2.47s-3.58-1.29-3.58-3.52c-.06-4,3.89-3.88,7.72-3.88.18-2.17-.56-3.34-2.53-3.34-1.48.06-2.53.43-2.6,1.92l-2-.19c.31-2.28,2-3.21,4.69-3.21s4.44,1.24,4.44,4v5.06c-.06,1.24.44,2,1.73,1.67v1.23C405.22,346.93,403.37,346.25,403.49,344.21Zm-5.74-1a1.86,1.86,0,0,0,2,2c2.54-.18,3.89-1.79,3.71-4.57-2.66.13-5.68-.31-5.68,2.53" data-name="u"/>
  <path class="cls-2" d="M414.35,334.46c5.5-.25,3.28,7.16,3.71,12h-2V339c0-1.92-.49-3-2.4-3-4.45.13-2.72,6.3-3,10.44h-2l-.07-11.73h1.86a9.48,9.48,0,0,0,.12,2,3.9,3.9,0,0,1,3.76-2.22" data-name="y"/>
  <path class="cls-2" d="M423.12,343.53c-.12,1.49,1.11,1.79,2.35,1.36v1.48c-2,.62-4.33.31-4.33-2.4v-7.84h-1.35v-1.42h1.48l.55-2.66h1.3v2.66h2.16v1.42h-2.16v7.4" data-name="o"/>
 </g>
 <path class="cls-14" d="m503.47 277.6c4.3 0 7.8 8.62 7.8 19.25s-3.5 19.25-7.8 19.25h-62.4c-4.3 0-7.8-8.62-7.8-19.25s3.5-19.25 7.8-19.25z"/>
 <path class="cls-4" d="m503.47 316.1c-4.3 0-7.8-8.62-7.8-19.25s3.5-19.25 7.8-19.25"/>
 <g data-name="c">
  <path class="cls-2" d="m445.3 288.61v5.68h8.52v1.71h-8.52v6.17h-2v-15.29h10.8v1.73h-8.8" data-name="z"/>
  <path class="cls-2" d="m456.41 302.19v-16.11h2v16.11h-2" data-name="A"/>
  <path class="cls-2" d="m466 290.21c3.82-0.06 5.24 2.29 5.24 6.12s-1.66 6.11-5.3 6.11-5.13-2.41-5.19-6.11c-0.02-4.08 1.71-6.12 5.25-6.12zm-0.08 10.79c2.71 0.07 3.27-1.91 3.27-4.62s-0.5-4.63-3.15-4.63-3.27 2-3.27 4.63 0.61 4.56 3.15 4.62" data-name="q"/>
  <path class="cls-2" d="m484.87 302.19h-2.23l-2.46-10.12-2.54 10.12h-2.22l-3.33-11.73h2l2.41 10.12 2.66-10.12h2.09l2.54 10.12 2.59-10.12h1.91" data-name="p"/>
 </g>
 <path class="cls-5" d="M593,174.6l-1,.43-1.8.87-1.7.93-1.67,1-1.6,1-1.54,1.1-1.5,1.17-1.46,1.25-1.44,1.32-1.4,1.4-1.4,1.53-1.38,1.63L573.78,190,572.42,192,571,194.07l-1.38,2.34-1.4,2.62-1.44,3-1.48,3.43-1.56,4.08-1.7,5.05-2,6.78-3,12.55-5.64,24.58-1.7,5.9-1.42,4.2-1.26,3.33-1.18,2.7-1.12,2.32-1.06,2-1,1.76-1,1.56-1,1.4-1,1.26-1,1.15-1,1.06-1,1-1,.9-1,.83-1,.78-1,.73-1,.68-1.06.63-.12.07"/>
 <path class="cls-7" d="M594.31,175.14l-.92.4-.8-1.83,1-.4"/>
 <path class="cls-6" d="m515.92 296.1 12.83-7.76 2.12 9z"/>
 <path class="cls-5" d="M113.27,90.5V771m0-680.47v-1"/>
 <path class="cls-6" d="m113.27 786.26-4.64-14.26h9.28z"/>
 <g data-name="i">
  <path id="J" class="cls-2" d="M0,372.11c5.93-.35,11,.25,10.91,6-.05,3.95-2.17,6.23-6,6.23H0Zm2.57,10.27c3.65.35,5.78-.89,5.78-4.25s-2.23-4.34-5.78-4.05v8.3"/>
  <path id="K" class="cls-2" d="m17 374.78c3.16 0 4.74 1.77 4.74 4.88s-1.73 4.89-4.79 4.89-4.69-1.77-4.69-4.89 1.74-4.88 4.74-4.88zm0 8.09c1.73 0 2.22-1.38 2.22-3.21s-0.49-3.21-2.12-3.21-2.23 1.29-2.23 3.21 0.5 3.21 2.13 3.21"/>
  <path id="L" class="cls-2" d="M33.83,384.36H31.26l-1.93-7.66-2,7.66H24.79L22.37,375h2.27l1.58,7.16c.45-2.56,1.19-4.79,1.78-7.16h2.62l1.82,7.16L34,375H36.3"/>
  <path class="cls-2" d="M42.91,374.78c4.3,0,2.87,5.58,3.11,9.58H43.56c-.35-2.82,1.13-7.76-1.68-7.76s-1.68,4.79-1.93,7.76H37.48l0-9.39h2.32a10.94,10.94,0,0,0,.15,1.88,3.06,3.06,0,0,1,3-2.07" data-name="M"/>
  <path class="cls-2" d="M53.83,377.54c.05-1.43-3.46-1.68-3.51-.2.74,2.27,5.83.35,5.88,4.25,0,4.1-8.1,3.75-8.5.44l2.13-.34c.19.94,1,1.23,2.17,1.23,1.63.4,2.81-1.48,1.19-2-2.13-.69-5-.54-5.14-3.26-.1-3.95,7.6-3.65,8-.35" data-name="N"/>
  <path class="cls-2" d="M62.62,384.21c-1.78.69-4.3.34-4.3-2.08V376.6H57.14V375h1.33l.74-2.22h1.53V375h1.78v1.63H60.74v4.89c-.05,1.14.79,1.53,1.88,1.24v1.48" data-name="O"/>
  <path class="cls-2" d="M69.48,377c-1.92-.59-3,.64-3,2.81v4.6H64.05L64,375h2.32a12.35,12.35,0,0,0,.15,2c.3-1.38,1.33-2.62,3-2v2" data-name="P"/>
  <path class="cls-2" d="M78.86,382a4,4,0,0,1-4,2.56c-3-.1-4.39-1.82-4.39-4.94s1.48-4.83,4.44-4.83S79,377,79,380.11H73c0,1.53.39,2.71,1.92,2.76a1.51,1.51,0,0,0,1.68-1.08Zm-2.22-3.41c.25-2.27-2.81-3.11-3.45-1a3.21,3.21,0,0,0-.2,1h3.65" data-name="Q"/>
  <path class="cls-2" d="M86.17,382.68c-.79.93-1.48,1.92-3.16,1.87a2.6,2.6,0,0,1-2.86-2.86c-.05-3,2.71-3.11,5.73-3,.05-1.29-.15-2.32-1.39-2.32a1.27,1.27,0,0,0-1.38,1.33l-2.57-.1c.35-1.88,1.78-2.86,4-2.81s3.66,1.08,3.71,3.35l0,4.05c0,.69.59.89,1.23.74v1.34C88.1,384.65,86.07,384.5,86.17,382.68Zm-2.37.14c1.43,0,2.13-1.18,2.08-2.81-1.58,0-3.26-.15-3.21,1.48,0,.84.39,1.33,1.13,1.33" data-name="R"/>
  <path class="cls-2" d="M100.35,376.6c-2.62.45-1.39,4.94-1.68,7.76H96.25v-5.29c0-1.33-.25-2.42-1.44-2.47-2.61.5-1.33,4.94-1.62,7.76H90.72l0-9.39H93a10.94,10.94,0,0,0,.15,1.88c.49-2.62,5-2.77,5.33,0,.64-1.09,1.18-2.12,2.91-2.07,4.05,0,2.52,5.72,2.82,9.58h-2.42v-5.29c0-1.23-.25-2.37-1.43-2.47" data-name="S"/>
 </g>
 <g data-name="j">
  <path class="cls-2" d="M21.33,396.11c2.62,0,3.46,2.17,3.46,4.84s-.94,4.84-3.6,4.94a3.38,3.38,0,0,1-2.92-1.68c.15,1.63.1,3.4.1,5.18H15.9l-.05-13.08h2.37a13.44,13.44,0,0,0,.15,1.53A2.85,2.85,0,0,1,21.33,396.11Zm-1,8.1c1.63,0,1.92-1.53,2-3.26s-.44-3.16-2-3.16c-2.77,0-2.72,6.42,0,6.42" data-name="T"/>
  <path class="cls-2" d="M32.15,398.28c-1.93-.59-3,.64-3,2.82v4.59H26.72l0-9.38H29a12.13,12.13,0,0,0,.15,2c.29-1.38,1.33-2.62,3-2v2" data-name="P"/>
  <path class="cls-2" d="m37.83 396.11c3.16 0 4.74 1.78 4.74 4.89s-1.73 4.89-4.79 4.89-4.69-1.78-4.69-4.89 1.68-4.89 4.74-4.89zm0 8.1c1.73 0 2.22-1.39 2.22-3.21 0-2-0.49-3.21-2.12-3.21s-2.23 1.28-2.23 3.21c0 1.78 0.5 3.21 2.13 3.21" data-name="K"/>
  <path class="cls-2" d="m47.56 396.11a3 3 0 0 1 2.86 1.68l-0.05-5h2.47v12.89h-2.32a13.22 13.22 0 0 0-0.15-1.53 3 3 0 0 1-3 1.73c-2.57 0-3.36-2.23-3.41-4.89s0.93-4.78 3.6-4.88zm0.84 8.1c1.62 0 2-1.48 2-3.26s-0.44-3.16-2-3.16-1.88 1.48-1.93 3.21c0 2.12 0.64 3.21 1.93 3.21" data-name="U"/>
  <path class="cls-2" d="M58.22,405.89c-4.29.05-2.86-5.58-3.11-9.58h2.47c.35,2.81-1.14,7.4,1.63,7.75,3-.25,1.73-4.79,2-7.75h2.46l.05,9.38H61.38a11.11,11.11,0,0,0-.15-1.88,3.07,3.07,0,0,1-3,2.08" data-name="V"/>
  <path class="cls-2" d="M74.22,402.58c-.34,2.07-1.87,3.31-4.24,3.31-2.92,0-4.15-1.88-4.45-4.84-.59-5.44,7.61-6.77,8.59-1.78l-2.42.1A1.65,1.65,0,0,0,70,397.79c-1.49,0-1.73,1.38-1.88,3.16-.3,3.65,3.21,4.29,3.65,1.48" data-name="W"/>
  <path class="cls-2" d="M80.4,405.54c-1.78.69-4.3.35-4.3-2.07v-5.53H74.91v-1.63h1.34l.74-2.23h1.53v2.23H80.3v1.63H78.52v4.88c0,1.14.79,1.54,1.88,1.24v1.48" data-name="O"/>
  <path class="cls-2" d="m81.83 394.63v-1.83h2.47v1.83zm0 11.06v-9.38h2.47v9.38h-2.47" data-name="X"/>
  <path class="cls-2" d="m91.85 405.69h-2.91l-3.36-9.38h2.62l2.22 7.4 2.37-7.4h2.57" data-name="Y"/>
  <path class="cls-2" d="M104.54,403.32a4,4,0,0,1-4.05,2.57c-3-.1-4.39-1.83-4.39-4.94s1.48-4.84,4.44-4.84,4.1,2.22,4.15,5.33h-6c0,1.53.39,2.72,1.92,2.77a1.52,1.52,0,0,0,1.68-1.09Zm-2.22-3.41c.25-2.27-2.81-3.11-3.46-1a3.57,3.57,0,0,0-.19,1h3.65" data-name="Q"/>
 </g>
 <g data-name="k">
  <path class="cls-2" d="M35.9,425.34c-.79.94-1.48,1.93-3.16,1.88a2.6,2.6,0,0,1-2.86-2.86c-.05-3,2.71-3.12,5.72-3,0-1.28-.14-2.32-1.38-2.32a1.29,1.29,0,0,0-1.38,1.34l-2.57-.1c.35-1.88,1.78-2.87,4.05-2.82S38,418.53,38,420.8l0,4.05c0,.69.6.89,1.24.74v1.33C37.83,427.32,35.8,427.17,35.9,425.34Zm-2.37.15c1.43,0,2.12-1.18,2.07-2.81-1.58,0-3.25-.15-3.2,1.48,0,.84.39,1.33,1.13,1.33" data-name="R"/>
  <path class="cls-2" d="M48.59,423.91c-.34,2.08-1.87,3.31-4.24,3.31-2.92,0-4.15-1.88-4.45-4.84-.59-5.43,7.61-6.77,8.59-1.78l-2.42.1a1.65,1.65,0,0,0-1.72-1.58c-1.49,0-1.73,1.38-1.88,3.16-.3,3.66,3.21,4.3,3.65,1.48" data-name="W"/>
  <path class="cls-2" d="M54.77,426.87c-1.78.7-4.3.35-4.3-2.07v-5.53H49.28v-1.63h1.34l.74-2.22h1.53v2.22h1.78v1.63H52.89v4.89c0,1.13.79,1.53,1.88,1.23v1.48" data-name="O"/>
  <path class="cls-2" d="M56.2,416v-1.83h2.47V416Zm0,11.06v-9.38h2.47V427H56.2" data-name="X"/>
  <path class="cls-2" d="M66.22,427H63.31L60,417.64h2.62l2.22,7.41,2.37-7.41h2.57" data-name="Y"/>
  <path class="cls-2" d="M71,416v-1.83h2.47V416ZM71,427v-9.38h2.47V427H71" data-name="X"/>
  <path class="cls-2" d="M80.4,426.87c-1.78.7-4.3.35-4.3-2.07v-5.53H74.91v-1.63h1.34l.74-2.22h1.53v2.22H80.3v1.63H78.52v4.89c0,1.13.79,1.53,1.88,1.23v1.48" data-name="O"/>
  <path class="cls-2" d="M81.83,416v-1.83H84.3V416Zm0,11.06v-9.38H84.3V427H81.83" data-name="X"/>
  <path class="cls-2" d="M94.67,424.65a4,4,0,0,1-4,2.57c-3-.1-4.4-1.83-4.4-4.94s1.48-4.84,4.45-4.84,4.1,2.22,4.14,5.34h-6c0,1.53.4,2.71,1.93,2.76a1.52,1.52,0,0,0,1.68-1.09Zm-2.23-3.41c.25-2.27-2.81-3.11-3.45-1a3.14,3.14,0,0,0-.2,1h3.65" data-name="Q"/>
  <path class="cls-2" d="M102.17,420.21c0-1.43-3.45-1.68-3.5-.2.74,2.27,5.82.35,5.87,4.25,0,4.1-8.1,3.75-8.49.44l2.12-.34c.2.93,1,1.23,2.18,1.23,1.63.4,2.81-1.48,1.18-2-2.12-.7-5-.55-5.13-3.26-.1-3.95,7.6-3.66,7.95-.35" data-name="N"/>
 </g>
 <path class="cls-15" d="m653.27 564.2a6 6 0 0 1 6-6h148a6 6 0 0 1 6 6v108a6 6 0 0 1-6 6h-148a6 6 0 0 1-6-6z"/>
 <g data-name="a">
  <path class="cls-2" d="M704.35,609l-8.14-13,.06,13h-1.79V593.67h2.4l8.21,13.15L705,593.67h1.91V609h-2.53" data-name="m"/>
  <path class="cls-2" d="M714.79,597c3.89,0,5.3,2.6,5.18,6.55h-8.33c0,2.47.86,4.13,3.27,4.19a2.86,2.86,0,0,0,3-1.79l1.73.5c-.68,1.73-2.28,2.78-4.75,2.78-3.58,0-5.43-2.29-5.37-6.18S711.14,597,714.79,597Zm3.21,5c.37-3.7-4.7-4.75-6-1.72a4.34,4.34,0,0,0-.37,1.72H718" data-name="n"/>
  <path class="cls-2" d="M724.6,606.08c-.12,1.48,1.11,1.79,2.35,1.36v1.48c-2,.61-4.32.31-4.32-2.41v-7.84h-1.36v-1.42h1.48l.55-2.65h1.3v2.65h2.16v1.42H724.6v7.41" data-name="o"/>
  <path class="cls-2" d="m739.85 609h-2.22l-2.47-10.12-2.53 10.12h-2.23l-3.33-11.73h2l2.4 10.12 2.66-10.12h2.1l2.53 10.12 2.59-10.12h1.91" data-name="p"/>
  <path class="cls-2" d="M749.29,597c3.83-.06,5.25,2.29,5.25,6.12s-1.67,6.11-5.31,6.11-5.12-2.41-5.18-6.11C744.05,599,745.77,597,749.29,597Zm-.06,10.74c2.72.07,3.27-1.91,3.27-4.62s-.49-4.63-3.15-4.63-3.27,2-3.27,4.63.62,4.56,3.15,4.62" data-name="q"/>
  <path class="cls-2" d="M762.5,598.92c-4.81-1-3.27,5.61-3.52,10.06h-2L757,597.25h1.85a15.43,15.43,0,0,0,.12,2.41c.37-1.67,1.42-3,3.58-2.53v1.79" data-name="r"/>
  <path class="cls-2" d="M771.64,609l-3.95-5.37-1.42,1.17V609h-2V592.87h2v10.06l5.12-5.68h2.29l-4.76,5.06L774,609h-2.34" data-name="s"/>
 </g>
 <g data-name="b">
  <path class="cls-2" d="M682.75,620.34c5.37.06,11.79-.93,11.79,4.63,0,4.81-4.75,4.94-9.75,4.69v6h-2Zm2,7.71c3.51,0,7.65.68,7.65-3.08s-4.2-2.9-7.65-3v6" data-name="t"/>
  <path class="cls-2" d="M704.42,633.42c-.93,1.3-1.92,2.53-4.2,2.47s-3.58-1.29-3.58-3.52c-.06-4,3.89-3.88,7.71-3.88.19-2.17-.55-3.34-2.53-3.34-1.48.06-2.53.43-2.59,1.92l-2-.19c.31-2.28,2-3.21,4.69-3.21s4.45,1.24,4.45,4v5.06c-.06,1.24.43,2,1.73,1.67v1.23C706.14,636.14,704.29,635.46,704.42,633.42Zm-5.74-1a1.86,1.86,0,0,0,2,2c2.53-.18,3.89-1.79,3.7-4.57-2.65.13-5.67-.31-5.67,2.53" data-name="u"/>
  <path class="cls-2" d="M715.09,625.58c-4.81-1-3.27,5.62-3.51,10.07h-2l-.06-11.73h1.85a15.24,15.24,0,0,0,.12,2.4c.37-1.66,1.42-3,3.58-2.53v1.79" data-name="r"/>
  <path class="cls-2" d="M719.05,632.74c-.13,1.49,1.11,1.79,2.34,1.36v1.48c-2,.62-4.32.31-4.32-2.4v-7.84h-1.36v-1.42h1.48l.56-2.66h1.3v2.66h2.16v1.42h-2.16v7.4" data-name="o"/>
  <path class="cls-2" d="m723.06 621.39v-1.86h2v1.86zm0 14.26v-11.73h2v11.73h-2" data-name="v"/>
  <path class="cls-2" d="M732.38,625.21c-2.47,0-3,2-3,4.51s.55,4.63,3,4.63A2.45,2.45,0,0,0,735,632l2,.13a4.24,4.24,0,0,1-4.57,3.76c-3.64,0-4.69-2.53-5.06-6.11-.62-5.74,6.23-8.08,9.07-3.95a4.8,4.8,0,0,1,.43,1.36l-2,.18a2.37,2.37,0,0,0-2.53-2.16" data-name="w"/>
  <path class="cls-2" d="m739.05 621.39v-1.86h2v1.86zm0 14.26v-11.73h2v11.73h-2" data-name="v"/>
  <path class="cls-2" d="M749.54,623.67c3.39.06,4.32,2.53,4.32,6.05s-1,6-4.32,6.17a3.77,3.77,0,0,1-3.7-2.1l.06,6.49h-2l-.06-16.36h1.91l.13,1.85A3.63,3.63,0,0,1,749.54,623.67Zm-.49,10.74c2.46,0,2.77-2.1,2.77-4.63s-.37-4.5-2.77-4.57c-2.6,0-3.15,2-3.15,4.7s.61,4.5,3.15,4.5" data-name="x"/>
  <path class="cls-2" d="M763.49,633.42c-.93,1.3-1.91,2.53-4.2,2.47s-3.58-1.29-3.58-3.52c-.06-4,3.89-3.88,7.72-3.88.18-2.17-.56-3.34-2.53-3.34-1.48.06-2.53.43-2.6,1.92l-2-.19c.31-2.28,2-3.21,4.69-3.21s4.44,1.24,4.44,4v5.06c-.06,1.24.44,2,1.73,1.67v1.23C765.22,636.14,763.37,635.46,763.49,633.42Zm-5.74-1a1.86,1.86,0,0,0,2,2c2.54-.18,3.89-1.79,3.71-4.57-2.66.13-5.68-.31-5.68,2.53" data-name="u"/>
  <path class="cls-2" d="M774.35,623.67c5.5-.25,3.28,7.16,3.71,12h-2v-7.47c0-1.92-.49-3-2.4-3-4.45.13-2.72,6.3-3,10.44h-2l-.07-11.73h1.86a9.48,9.48,0,0,0,.12,2,3.9,3.9,0,0,1,3.76-2.22" data-name="y"/>
  <path class="cls-2" d="M783.12,632.74c-.12,1.49,1.11,1.79,2.35,1.36v1.48c-2,.62-4.33.31-4.33-2.4v-7.84h-1.35v-1.42h1.48l.55-2.66h1.3v2.66h2.16v1.42h-2.16v7.4" data-name="o"/>
 </g>
 <path class="cls-15" d="m663.47 565.37c4.3 0 7.8 8.62 7.8 19.25s-3.5 19.25-7.8 19.25h-62.4c-4.3 0-7.8-8.62-7.8-19.25s3.5-19.25 7.8-19.25z"/>
 <path class="cls-4" d="m663.47 603.87c-4.3 0-7.8-8.62-7.8-19.25s3.5-19.25 7.8-19.25"/>
 <g data-name="c">
  <path class="cls-2" d="m605.3 576.38v5.68h8.52v1.73h-8.52v6.21h-2v-15.35h10.8v1.73h-8.8" data-name="z"/>
  <path class="cls-2" d="M616.41,590V573.85h2V590h-2" data-name="A"/>
  <path class="cls-2" d="M626,578c3.82-.06,5.24,2.29,5.24,6.11s-1.66,6.12-5.3,6.12-5.13-2.41-5.19-6.12C620.73,580,622.46,578,626,578Zm-.06,10.74c2.71.07,3.27-1.91,3.27-4.63s-.5-4.63-3.15-4.63-3.27,2-3.27,4.63.61,4.57,3.15,4.63" data-name="q"/>
  <path class="cls-2" d="m644.87 590h-2.23l-2.46-10.13-2.54 10.13h-2.22l-3.33-11.73h2l2.41 10.12 2.66-10.12h2.09l2.54 10.12 2.59-10.12h1.91" data-name="p"/>
 </g>
 <path class="cls-14" d="m503.47 329.27c4.3 0 7.8 8.6 7.8 19.25s-3.5 19.25-7.8 19.25h-62.4c-4.3 0-7.8-8.62-7.8-19.25s3.5-19.25 7.8-19.25z"/>
 <path class="cls-4" d="m503.47 367.77c-4.3 0-7.8-8.62-7.8-19.25s3.5-19.25 7.8-19.25"/>
 <g data-name="c">
  <path class="cls-2" d="m445.3 340.28v5.72h8.52v1.73h-8.52v6.18h-2v-15.36h10.8v1.73h-8.8" data-name="z"/>
  <path class="cls-2" d="m456.41 353.86v-16.12h2v16.12h-2" data-name="A"/>
  <path class="cls-2" d="m466 341.88c3.82-0.06 5.24 2.28 5.24 6.11s-1.66 6.11-5.3 6.11-5.13-2.4-5.19-6.11c-0.02-4.07 1.71-6.11 5.25-6.11zm-0.06 10.74c2.71 0.06 3.27-1.91 3.27-4.63s-0.5-4.63-3.15-4.63-3.27 2-3.27 4.63 0.61 4.57 3.15 4.63" data-name="q"/>
  <path class="cls-2" d="m484.87 353.86h-2.23l-2.46-10.13-2.54 10.13h-2.22l-3.33-11.73h2l2.41 10.12 2.66-10.12h2.09l2.54 10.12 2.59-10.12h1.91" data-name="p"/>
 </g>
 <path class="cls-5" d="M513.77,348.57l.23,0,.4.05.4.08.4.1.42.1.4.14.43.16.43.18.45.22.45.23.46.27.48.3.5.35.52.4.54.44.58.53.6.6.66.7.7.8.74.95.82,1.12.9,1.35,1,1.64,1.1,2,1.26,2.53,1.43,3.23,1.68,4.24,2,5.78,2.5,8.27,3.27,12.87,5,24.12,20.5,112.58,3.3,12.86,2.48,8.28,2,5.77,1.68,4.25,1.43,3.23,1.25,2.53.9,1.64"/>
 <path class="cls-7" d="m513.82 347.54v2h-1.1l0.1-0.9v-0.78-0.3"/>
 <path class="cls-6" d="m589.27 582.57-14-5.4 5.86-7.2z"/>
 <path class="cls-16" d="m653.27 395.5a6 6 0 0 1 6-6h148a6 6 0 0 1 6 6v108a6 6 0 0 1-6 6h-148a6 6 0 0 1-6-6z"/>
 <g data-name="a">
  <path class="cls-2" d="M704.35,440.28l-8.14-13,.06,13h-1.79V425h2.4l8.21,13.15L705,425h1.91v15.31h-2.53" data-name="m"/>
  <path class="cls-2" d="M714.79,428.3c3.89,0,5.3,2.6,5.18,6.55h-8.33c0,2.46.86,4.13,3.27,4.19a2.87,2.87,0,0,0,3-1.79l1.73.5c-.68,1.73-2.28,2.77-4.75,2.77-3.58,0-5.43-2.28-5.37-6.17S711.14,428.3,714.79,428.3Zm3.21,5c.37-3.7-4.7-4.75-6-1.73a4.44,4.44,0,0,0-.37,1.73H718" data-name="n"/>
  <path class="cls-2" d="M724.6,437.38c-.12,1.48,1.11,1.79,2.35,1.35v1.49c-2,.61-4.32.3-4.32-2.41V430h-1.36v-1.42h1.48l.55-2.65h1.3v2.65h2.16V430H724.6v7.41" data-name="o"/>
  <path class="cls-2" d="m739.85 440.28h-2.22l-2.47-10.13-2.53 10.13h-2.23l-3.33-11.73h2l2.4 10.12 2.66-10.12h2.1l2.53 10.12 2.59-10.12h1.91" data-name="p"/>
  <path class="cls-2" d="m749.29 428.3c3.83-0.06 5.25 2.29 5.25 6.11s-1.67 6.11-5.31 6.11-5.12-2.4-5.18-6.11c0-4.07 1.72-6.11 5.24-6.11zm-0.06 10.7c2.72 0.06 3.27-1.91 3.27-4.63s-0.49-4.63-3.15-4.63-3.27 2-3.27 4.63 0.62 4.57 3.15 4.63" data-name="q"/>
  <path class="cls-2" d="M762.5,430.22c-4.81-1-3.27,5.61-3.52,10.06h-2L757,428.55h1.85a15.43,15.43,0,0,0,.12,2.41c.37-1.67,1.42-3,3.58-2.53v1.79" data-name="r"/>
  <path class="cls-2" d="m771.64 440.28-3.95-5.37-1.42 1.17v4.2h-2v-16.11h2v10.06l5.12-5.68h2.29l-4.76 5.06 5.06 6.67h-2.34" data-name="s"/>
 </g>
 <g data-name="b">
  <path class="cls-2" d="M682.75,451.64c5.37.06,11.79-.93,11.79,4.63,0,4.81-4.75,4.93-9.75,4.69v6h-2Zm2,7.71c3.51,0,7.65.68,7.65-3.08s-4.2-2.91-7.65-3v6.05" data-name="t"/>
  <path class="cls-2" d="M704.42,464.72c-.93,1.3-1.92,2.53-4.2,2.47s-3.58-1.3-3.58-3.52c-.06-3.95,3.89-3.89,7.71-3.89.19-2.16-.55-3.33-2.53-3.33-1.48.06-2.53.43-2.59,1.91l-2-.18c.31-2.29,2-3.21,4.69-3.21s4.45,1.23,4.45,3.95V464c-.06,1.24.43,2,1.73,1.67v1.23C706.14,467.44,704.29,466.76,704.42,464.72Zm-5.74-1.05a1.86,1.86,0,0,0,2,2c2.53-.19,3.89-1.79,3.7-4.57-2.65.13-5.67-.31-5.67,2.53" data-name="u"/>
  <path class="cls-2" d="M715.09,456.88c-4.81-1-3.27,5.62-3.51,10.06h-2l-.06-11.72h1.85a15.24,15.24,0,0,0,.12,2.4c.37-1.66,1.42-3,3.58-2.53v1.79" data-name="r"/>
  <path class="cls-2" d="M719.05,464c-.13,1.48,1.11,1.79,2.34,1.36v1.48c-2,.62-4.32.31-4.32-2.4v-7.84h-1.36v-1.42h1.48l.56-2.66h1.3v2.66h2.16v1.42h-2.16V464" data-name="o"/>
  <path class="cls-2" d="m723.06 452.69v-1.86h2v1.86zm0 14.25v-11.72h2v11.72h-2" data-name="v"/>
  <path class="cls-2" d="M732.38,456.51c-2.47,0-3,2-3,4.51s.55,4.63,3,4.63A2.46,2.46,0,0,0,735,463.3l2,.13a4.24,4.24,0,0,1-4.57,3.76c-3.64,0-4.69-2.53-5.06-6.11-.62-5.74,6.23-8.09,9.07-3.95a4.7,4.7,0,0,1,.43,1.36l-2,.18a2.37,2.37,0,0,0-2.53-2.16" data-name="w"/>
  <path class="cls-2" d="m739.05 452.69v-1.86h2v1.86zm0 14.25v-11.72h2v11.72h-2" data-name="v"/>
  <path class="cls-2" d="M749.54,455c3.39.06,4.32,2.53,4.32,6s-1,6.05-4.32,6.17a3.77,3.77,0,0,1-3.7-2.1l.06,6.48h-2l-.06-16.35h1.91l.13,1.85A3.63,3.63,0,0,1,749.54,455Zm-.49,10.74c2.46,0,2.77-2.1,2.77-4.63s-.37-4.51-2.77-4.57c-2.6,0-3.15,2-3.15,4.69s.61,4.51,3.15,4.51" data-name="x"/>
  <path class="cls-2" d="M763.49,464.72c-.93,1.3-1.91,2.53-4.2,2.47s-3.58-1.3-3.58-3.52c-.06-3.95,3.89-3.89,7.72-3.89.18-2.16-.56-3.33-2.53-3.33-1.48.06-2.53.43-2.6,1.91l-2-.18c.31-2.29,2-3.21,4.69-3.21s4.44,1.23,4.44,3.95V464c-.06,1.24.44,2,1.73,1.67v1.23C765.22,467.44,763.37,466.76,763.49,464.72Zm-5.74-1.05a1.86,1.86,0,0,0,2,2c2.54-.19,3.89-1.79,3.71-4.57-2.66.13-5.68-.31-5.68,2.53" data-name="u"/>
  <path class="cls-2" d="M774.35,455c5.5-.25,3.28,7.16,3.71,12h-2v-7.46c0-1.92-.49-3-2.4-3-4.45.13-2.72,6.3-3,10.43h-2l-.07-11.72h1.86a9.48,9.48,0,0,0,.12,2,3.9,3.9,0,0,1,3.76-2.22" data-name="y"/>
  <path class="cls-2" d="M783.12,464c-.12,1.48,1.11,1.79,2.35,1.36v1.48c-2,.62-4.33.31-4.33-2.4v-7.84h-1.35v-1.42h1.48l.55-2.66h1.3v2.66h2.16v1.42h-2.16V464" data-name="o"/>
 </g>
 <path class="cls-16" d="m663.47 411c4.3 0 7.8 8.62 7.8 19.25s-3.5 19.25-7.8 19.25h-62.4c-4.3 0-7.8-8.62-7.8-19.25s3.5-19.25 7.8-19.25z"/>
 <path class="cls-4" d="m663.47 449.5c-4.3 0-7.8-8.62-7.8-19.25s3.5-19.25 7.8-19.25"/>
 <g data-name="l">
  <path class="cls-2" d="m605.3 422v5.68h8.52v1.73h-8.52v6.17h-2v-15.3h10.8v1.72h-8.8" data-name="z"/>
  <path class="cls-2" d="m616.41 435.59v-16.11h2v16.11h-2" data-name="A"/>
  <path class="cls-2" d="m626 423.62c3.82-0.07 5.24 2.28 5.24 6.11s-1.66 6.11-5.3 6.11-5.13-2.41-5.19-6.11c-0.02-4.08 1.71-6.11 5.25-6.11zm-0.06 10.74c2.71 0.06 3.27-1.92 3.27-4.63s-0.5-4.63-3.15-4.63-3.27 2-3.27 4.63 0.61 4.56 3.15 4.63" data-name="q"/>
  <path class="cls-2" d="m644.87 435.59h-2.23l-2.46-10.12-2.54 10.12h-2.22l-3.33-11.73h2l2.38 10.14 2.66-10.13h2.09l2.54 10.13 2.59-10.13h1.91" data-name="p"/>
 </g>
 <path class="cls-5" d="M513.77,348.55l.7,0,1.63.15,1.55.24,1.52.32,1.47.42,1.46.5,1.46.62,1.45.73,1.5.85,1.5,1,1.6,1.2,1.66,1.4,1.78,1.7,1.93,2.1,2.16,2.65,2.5,3.5,3.12,5,4.85,9,14.2,28,3.1,5,2.5,3.5,2.16,2.64,1.92,2.1,1.77,1.7,1.47,1.26"/>
 <path class="cls-7" d="M513.83,347.55l-.06,2-1.1,0,.1-.9v-.78l0-.3"/>
 <path class="cls-6" d="m588.73 429.14-15-0.55 3.2-8.7z"/>
 <path class="cls-17" d="m293.27 663.86a6 6 0 0 1 6-6h148a6 6 0 0 1 6 6v108a6 6 0 0 1-6 6h-148a6 6 0 0 1-6-6z"/>
 <g data-name="a">
  <path class="cls-2" d="m344.35 708.64-8.14-13 0.06 13h-1.79v-15.31h2.4l8.21 13.15-0.09-13.15h1.91v15.31h-2.53" data-name="m"/>
  <path class="cls-2" d="m354.79 696.66c3.89 0 5.3 2.59 5.18 6.55h-8.33c0 2.46 0.86 4.13 3.27 4.19a2.87 2.87 0 0 0 3-1.79l1.73 0.5c-0.68 1.72-2.28 2.77-4.75 2.77-3.58 0-5.43-2.28-5.37-6.17s1.62-6.05 5.27-6.05zm3.21 5c0.37-3.7-4.7-4.75-6-1.73a4.44 4.44 0 0 0-0.37 1.73h6.37" data-name="n"/>
  <path class="cls-2" d="M364.6,705.74c-.12,1.48,1.11,1.79,2.35,1.35v1.49c-2,.61-4.32.3-4.32-2.41v-7.84h-1.36v-1.42h1.48l.55-2.66h1.3v2.66h2.16v1.42H364.6v7.41" data-name="o"/>
  <path class="cls-2" d="m379.85 708.64h-2.22l-2.47-10.13-2.53 10.13h-2.23l-3.33-11.73h2l2.4 10.12 2.66-10.12h2.1l2.51 10.09 2.59-10.12h1.91" data-name="p"/>
  <path class="cls-2" d="m389.29 696.66c3.83-0.06 5.25 2.29 5.25 6.11s-1.67 6.11-5.31 6.11-5.12-2.4-5.18-6.11c0-4.07 1.72-6.11 5.24-6.11zm-0.06 10.74c2.72 0.06 3.27-1.91 3.27-4.63s-0.49-4.63-3.15-4.63-3.27 2-3.27 4.63 0.62 4.57 3.15 4.63" data-name="q"/>
  <path class="cls-2" d="M402.5,698.58c-4.81-1-3.27,5.61-3.52,10.06h-2L397,696.91h1.85a15.43,15.43,0,0,0,.12,2.41c.37-1.67,1.42-3,3.58-2.53v1.79" data-name="r"/>
  <path class="cls-2" d="m411.64 708.64-3.95-5.37-1.42 1.17v4.2h-2v-16.11h2v10.06l5.12-5.68h2.29l-4.76 5.09 5.06 6.67h-2.34" data-name="s"/>
 </g>
 <g data-name="b">
  <path class="cls-2" d="M322.75,720c5.37.06,11.79-.93,11.79,4.62,0,4.82-4.75,4.94-9.75,4.7v6h-2Zm2,7.71c3.51,0,7.65.68,7.65-3.09s-4.2-2.9-7.65-3v6.05" data-name="t"/>
  <path class="cls-2" d="M344.42,733.08c-.93,1.3-1.92,2.53-4.2,2.47s-3.58-1.3-3.58-3.52c-.06-3.95,3.89-3.89,7.71-3.89.19-2.16-.55-3.33-2.53-3.33-1.48.06-2.53.43-2.59,1.91l-2-.18c.31-2.29,2-3.21,4.69-3.21s4.45,1.23,4.45,3.95v5.06c-.06,1.24.43,2,1.73,1.67v1.23C346.14,735.8,344.29,735.12,344.42,733.08ZM338.68,732a1.86,1.86,0,0,0,2,2c2.53-.19,3.89-1.79,3.7-4.57-2.65.12-5.67-.31-5.67,2.53" data-name="u"/>
  <path class="cls-2" d="M355.09,725.24c-4.81-1-3.27,5.62-3.51,10.06h-2l-.06-11.72h1.85a15.24,15.24,0,0,0,.12,2.4c.37-1.66,1.42-3,3.58-2.53v1.79" data-name="r"/>
  <path class="cls-2" d="M359.05,732.4c-.13,1.48,1.11,1.79,2.34,1.36v1.48c-2,.62-4.32.31-4.32-2.41V725h-1.36v-1.42h1.48l.56-2.66h1.3v2.66h2.16V725h-2.16v7.4" data-name="o"/>
  <path class="cls-2" d="M363.06,721v-1.85h2V721Zm0,14.26V723.58h2V735.3h-2" data-name="v"/>
  <path class="cls-2" d="M372.38,724.87c-2.47,0-3,2-3,4.51s.55,4.63,3,4.63a2.46,2.46,0,0,0,2.65-2.35l2,.13a4.24,4.24,0,0,1-4.57,3.76c-3.64,0-4.69-2.53-5.06-6.11-.62-5.74,6.23-8.09,9.07-4a4.7,4.7,0,0,1,.43,1.36l-2,.18a2.37,2.37,0,0,0-2.53-2.16" data-name="w"/>
  <path class="cls-2" d="M379.05,721v-1.85h2V721Zm0,14.26V723.58h2V735.3h-2" data-name="v"/>
  <path class="cls-2" d="M389.54,723.33c3.39.06,4.32,2.53,4.32,6s-1,6-4.32,6.17a3.77,3.77,0,0,1-3.7-2.1l.06,6.48h-2l-.06-16.35h1.91l.13,1.85A3.63,3.63,0,0,1,389.54,723.33Zm-.49,10.74c2.46,0,2.77-2.1,2.77-4.63s-.37-4.51-2.77-4.57c-2.6,0-3.15,2-3.15,4.69s.61,4.51,3.15,4.51" data-name="x"/>
  <path class="cls-2" d="M403.49,733.08c-.93,1.3-1.91,2.53-4.2,2.47s-3.58-1.3-3.58-3.52c-.06-3.95,3.89-3.89,7.72-3.89.18-2.16-.56-3.33-2.53-3.33-1.48.06-2.53.43-2.6,1.91l-2-.18c.31-2.29,2-3.21,4.69-3.21s4.44,1.23,4.44,3.95v5.06c-.06,1.24.44,2,1.73,1.67v1.23C405.22,735.8,403.37,735.12,403.49,733.08ZM397.75,732a1.86,1.86,0,0,0,2,2c2.54-.19,3.89-1.79,3.71-4.57-2.66.12-5.68-.31-5.68,2.53" data-name="u"/>
  <path class="cls-2" d="M414.35,723.33c5.5-.25,3.28,7.16,3.71,12h-2v-7.47c0-1.91-.49-3-2.4-3-4.45.13-2.72,6.3-3,10.43h-2l-.07-11.72h1.86a9.48,9.48,0,0,0,.12,2,3.9,3.9,0,0,1,3.76-2.22" data-name="y"/>
  <path class="cls-2" d="M423.12,732.4c-.12,1.48,1.11,1.79,2.35,1.36v1.48c-2,.62-4.33.31-4.33-2.41V725h-1.35v-1.42h1.48l.55-2.66h1.3v2.66h2.16V725h-2.16v7.4" data-name="o"/>
 </g>
 <path class="cls-17" d="m483.47 670.55c4.3 0 7.8 8.62 7.8 19.25s-3.5 19.25-7.8 19.25h-62.4c-4.3 0-7.8-8.62-7.8-19.25s3.5-19.25 7.8-19.25z"/>
 <path class="cls-4" d="m483.47 709.05c-4.3 0-7.8-8.62-7.8-19.25s3.5-19.25 7.8-19.25"/>
 <g data-name="c">
  <path class="cls-2" d="m425.3 681.56v5.68h8.52v1.76h-8.52v6.17h-2v-15.34h10.8v1.73h-8.8" data-name="z"/>
  <path class="cls-2" d="M436.41,695.14V679h2v16.11h-2" data-name="A"/>
  <path class="cls-2" d="m446 683.17c3.82-0.07 5.24 2.28 5.24 6.11s-1.66 6.11-5.3 6.11-5.13-2.41-5.19-6.11c-0.02-4.08 1.71-6.11 5.25-6.11zm-0.06 10.74c2.71 0.06 3.27-1.92 3.27-4.63s-0.5-4.63-3.15-4.63-3.27 2-3.27 4.63 0.61 4.56 3.15 4.63" data-name="q"/>
  <path class="cls-2" d="m464.87 695.14h-2.23l-2.46-10.14-2.54 10.12h-2.22l-3.33-11.73h2l2.41 10.13 2.66-10.13h2.09l2.54 10.13 2.59-10.13h1.91" data-name="p"/>
 </g>
 <path class="cls-5" d="M590.77,638.63l-2.46.07-3.18.24-3,.37-2.75.5-2.62.6-2.5.72-2.43.83-2.38.94L567.15,644l-2.36,1.23-2.4,1.4-2.52,1.67-2.7,2-3.07,2.5-3.84,3.47-19.77,19.45-3.08,2.5-2.7,2-2.52,1.66-2.4,1.4-2.37,1.24-2.35,1.08-2.38.94L511,687"/>
 <path class="cls-7" d="m591.77 638.52v0.8 0.3h-1v-2h1.16"/>
 <path class="cls-6" d="m496 689.3 13.4-6.7 1.4 9.16z"/>
 <path class="cls-15" d="m663.47 619.36c4.3 0 7.8 8.62 7.8 19.25s-3.5 19.26-7.8 19.26h-62.4c-4.3 0-7.8-8.62-7.8-19.25s3.5-19.24 7.8-19.24z"/>
 <path class="cls-4" d="m663.47 657.86c-4.3 0-7.8-8.62-7.8-19.25s3.5-19.24 7.8-19.24"/>
 <g data-name="c">
  <path class="cls-2" d="m605.3 630.37v5.68h8.52v1.73h-8.52v6.22h-2v-15.36h10.8v1.73h-8.8" data-name="z"/>
  <path class="cls-2" d="M616.41,644V627.84h2V644h-2" data-name="A"/>
  <path class="cls-2" d="M626,632c3.82-.06,5.24,2.29,5.24,6.12s-1.66,6.11-5.3,6.11-5.13-2.41-5.19-6.11C620.73,634,622.46,632,626,632Zm-.06,10.75c2.71.06,3.27-1.92,3.27-4.63s-.5-4.63-3.15-4.63-3.27,2-3.27,4.63.61,4.56,3.15,4.63" data-name="q"/>
  <path class="cls-2" d="m644.87 644h-2.23l-2.46-10.12-2.54 10.12h-2.22l-3.33-11.73h2l2.41 10.12 2.66-10.12h2.09l2.54 10.12 2.59-10.12h1.91" data-name="p"/>
 </g>
 <path class="cls-18" d="m918.3 380.75a7.25 7.25 0 1 1-7.25-7.25 7.26 7.26 0 0 1 7.25 7.25z"/>
 <path class="cls-19" d="m911.05 388v14.3a20.62 20.62 0 0 0 3.65 10.76l14.13 18.44m-17.78-23.2-17.78 23.2m0-36.25h35.56"/>
 <path class="cls-10" d="m893.27 379.5a6 6 0 0 1 6-6h23.56a6 6 0 0 1 6 6v68a6 6 0 0 1-6 6h-23.56a6 6 0 0 1-6-6z"/>
 <path class="cls-18" d="m858.3 380.75a7.25 7.25 0 1 1-7.25-7.25 7.26 7.26 0 0 1 7.25 7.25z"/>
 <path class="cls-19" d="m851.05 388v14.3a20.62 20.62 0 0 0 3.65 10.76l14.13 18.44m-17.78-23.2-17.78 23.2m0-36.25h35.56"/>
 <path class="cls-10" d="m833.27 379.5a6 6 0 0 1 6-6h23.56a6 6 0 0 1 6 6v68a6 6 0 0 1-6 6h-23.56a6 6 0 0 1-6-6z"/>
 <path class="cls-18" d="m887.67 442.25a7.26 7.26 0 1 1-7.27-7.25 7.26 7.26 0 0 1 7.27 7.25z"/>
 <path class="cls-19" d="m880.41 449.5v14.3a20.62 20.62 0 0 0 3.65 10.76l14.1 18.44m-17.76-23.2-17.78 23.2m0-36.25h35.55"/>
 <path class="cls-10" d="m862.63 441a6 6 0 0 1 6-6h23.55a6 6 0 0 1 6 6v68a6 6 0 0 1-6 6h-23.54a6 6 0 0 1-6-6z"/>
 <g data-name="d">
  <path class="cls-2" d="M866,505c-.06,4-2.47,6-6.42,6-3.76,0-6.17-2-6.17-5.8v-9.75h2c.49,5.49-2,13.83,4.13,13.83s3.95-8.21,4.39-13.83h2V505" data-name="B"/>
  <path class="cls-2" d="M876,502c-.18-2.1-5.31-2.35-5.37,0,.93,3.27,7.1.74,7.35,5.56s-9.26,4.56-9.69.49l1.72-.31c.25,2.22,6,2.78,6,0-.61-3.46-7-.92-7.28-5.55-.25-3.52,5.06-3.89,7.53-2.6a3.12,3.12,0,0,1,1.48,2.16" data-name="C"/>
  <path class="cls-2" d="M885,498.8c3.89,0,5.31,2.6,5.19,6.55H881.8c0,2.46.87,4.13,3.28,4.19a2.87,2.87,0,0,0,3-1.79l1.73.5c-.68,1.73-2.28,2.77-4.75,2.77-3.58,0-5.44-2.28-5.37-6.17S881.31,498.8,885,498.8Zm3.21,5c.37-3.7-4.69-4.75-6-1.73a4.43,4.43,0,0,0-.38,1.73h6.36" data-name="n"/>
  <path class="cls-2" d="M898.16,500.72c-4.81-1-3.27,5.61-3.52,10.06h-2l-.06-11.73h1.85a15.43,15.43,0,0,0,.12,2.41c.37-1.67,1.42-3,3.58-2.53v1.79" data-name="r"/>
  <path class="cls-2" d="M906.8,502c-.18-2.1-5.3-2.35-5.37,0,.93,3.27,7.1.74,7.35,5.56s-9.26,4.56-9.69.49l1.73-.31c.24,2.22,6,2.78,6,0-.62-3.46-7-.92-7.29-5.55-.24-3.52,5.06-3.89,7.53-2.6a3.16,3.16,0,0,1,1.49,2.16" data-name="C"/>
 </g>
 <path class="cls-20" d="m918.3 549.45a7.25 7.25 0 1 1-7.25-7.25 7.26 7.26 0 0 1 7.25 7.25z"/>
 <path class="cls-21" d="M911.05,556.7V571a20.56,20.56,0,0,0,3.65,10.76l14.13,18.44M911.05,577l-17.78,23.2m0-36.25h35.56"/>
 <path class="cls-10" d="m893.27 548.2a6 6 0 0 1 6-6h23.56a6 6 0 0 1 6 6v68a6 6 0 0 1-6 6h-23.56a6 6 0 0 1-6-6z"/>
 <path class="cls-20" d="m858.3 549.45a7.25 7.25 0 1 1-7.25-7.25 7.26 7.26 0 0 1 7.25 7.25z"/>
 <path class="cls-21" d="M851.05,556.7V571a20.56,20.56,0,0,0,3.65,10.76l14.13,18.44M851.05,577l-17.78,23.2m0-36.25h35.56"/>
 <path class="cls-10" d="m833.27 548.2a6 6 0 0 1 6-6h23.56a6 6 0 0 1 6 6v68a6 6 0 0 1-6 6h-23.56a6 6 0 0 1-6-6z"/>
 <path class="cls-20" d="m887.67 611a7.26 7.26 0 1 1-7.27-7.25 7.26 7.26 0 0 1 7.27 7.25z"/>
 <path class="cls-21" d="m880.41 618.2v14.3a20.56 20.56 0 0 0 3.65 10.76l14.1 18.44m-17.76-23.2-17.78 23.2m0-36.25h35.55"/>
 <path class="cls-10" d="m862.63 609.7a6 6 0 0 1 6-6h23.55a6 6 0 0 1 6 6v68a6 6 0 0 1-6 6h-23.54a6 6 0 0 1-6-6z"/>
 <g data-name="d">
  <path class="cls-2" d="M866,673.74c-.06,4-2.47,6-6.42,6-3.76,0-6.17-2-6.17-5.81v-9.75h2c.49,5.49-2,13.83,4.13,13.83s3.95-8.21,4.39-13.83h2v9.57" data-name="B"/>
  <path class="cls-2" d="M876,670.65c-.18-2.1-5.31-2.34-5.37,0,.93,3.27,7.1.74,7.35,5.56s-9.26,4.57-9.69.49l1.72-.31c.25,2.23,6,2.78,6,0-.61-3.45-7-.92-7.28-5.55-.25-3.52,5.06-3.89,7.53-2.6a3.12,3.12,0,0,1,1.48,2.17" data-name="C"/>
  <path class="cls-2" d="M885,667.5c3.89,0,5.31,2.6,5.19,6.55H881.8c0,2.47.87,4.13,3.28,4.19a2.86,2.86,0,0,0,3-1.79l1.73.5c-.68,1.73-2.28,2.78-4.75,2.78-3.58,0-5.44-2.29-5.37-6.18S881.31,667.5,885,667.5Zm3.21,5c.37-3.7-4.69-4.75-6-1.72a4.33,4.33,0,0,0-.38,1.72h6.36" data-name="n"/>
  <path class="cls-2" d="M898.16,669.42c-4.81-1-3.27,5.61-3.52,10.06h-2l-.06-11.73h1.85a15.43,15.43,0,0,0,.12,2.41c.37-1.67,1.42-3,3.58-2.53v1.79" data-name="r"/>
  <path class="cls-2" d="M906.8,670.65c-.18-2.1-5.3-2.34-5.37,0,.93,3.27,7.1.74,7.35,5.56s-9.26,4.57-9.69.49l1.73-.31c.24,2.23,6,2.78,6,0-.62-3.45-7-.92-7.29-5.55-.24-3.52,5.06-3.89,7.53-2.6a3.16,3.16,0,0,1,1.49,2.17" data-name="C"/>
 </g>
 <path class="cls-22" d="m258.3 263.58a7.25 7.25 0 1 1-7.25-7.25 7.26 7.26 0 0 1 7.25 7.25z"/>
 <path class="cls-23" d="m251.05 270.83v14.3a20.59 20.59 0 0 0 3.65 10.77l14.13 18.43m-17.78-23.2-17.78 23.2m0-36.25h35.56"/>
 <path class="cls-10" d="m233.27 262.33a6 6 0 0 1 6-6h23.56a6 6 0 0 1 6 6v68a6 6 0 0 1-6 6h-23.56a6 6 0 0 1-6-6z"/>
 <path class="cls-22" d="m198.3 263.58a7.25 7.25 0 1 1-7.25-7.25 7.26 7.26 0 0 1 7.25 7.25z"/>
 <path class="cls-23" d="m191.05 270.83v14.3a20.59 20.59 0 0 0 3.65 10.77l14.13 18.43m-17.78-23.2-17.78 23.2m0-36.25h35.56"/>
 <path class="cls-10" d="m173.27 262.33a6 6 0 0 1 6-6h23.56a6 6 0 0 1 6 6v68a6 6 0 0 1-6 6h-23.56a6 6 0 0 1-6-6z"/>
 <path class="cls-22" d="m227.67 325.08a7.26 7.26 0 1 1-7.27-7.25 7.26 7.26 0 0 1 7.27 7.25z"/>
 <path class="cls-23" d="m220.41 332.33v14.3a20.59 20.59 0 0 0 3.65 10.77l14.1 18.43m-17.76-23.2-17.78 23.2m0-36.25h35.55"/>
 <path class="cls-10" d="m202.63 323.83a6 6 0 0 1 6-6h23.55a6 6 0 0 1 6 6v68a6 6 0 0 1-6 6h-23.54a6 6 0 0 1-6-6z"/>
 <g data-name="d">
  <path class="cls-2" d="M206,387.87c-.06,4-2.47,6-6.42,6-3.76,0-6.17-2-6.17-5.8V378.3h2c.49,5.5-2,13.83,4.13,13.83s3.95-8.21,4.39-13.83h2v9.57" data-name="B"/>
  <path class="cls-2" d="M216,384.78c-.18-2.09-5.31-2.34-5.37,0,.93,3.28,7.1.74,7.35,5.56s-9.26,4.57-9.69.49l1.72-.31c.25,2.23,6,2.78,6.05,0-.61-3.45-7-.92-7.28-5.55-.25-3.52,5.06-3.89,7.53-2.59a3.08,3.08,0,0,1,1.48,2.16" data-name="C"/>
  <path class="cls-2" d="M225,381.64c3.89,0,5.31,2.59,5.19,6.54H221.8c0,2.47.87,4.13,3.28,4.2a2.87,2.87,0,0,0,3-1.79l1.73.49c-.68,1.73-2.28,2.78-4.75,2.78-3.58,0-5.44-2.29-5.37-6.17S221.31,381.64,225,381.64Zm3.21,5c.37-3.71-4.69-4.76-6-1.73a4.38,4.38,0,0,0-.38,1.73h6.36" data-name="n"/>
  <path class="cls-2" d="M238.16,383.55c-4.81-1-3.27,5.62-3.52,10.06h-2l-.06-11.73h1.85a15.43,15.43,0,0,0,.12,2.41c.37-1.67,1.42-3,3.58-2.53v1.79" data-name="r"/>
  <path class="cls-2" d="M246.8,384.78c-.18-2.09-5.3-2.34-5.37,0,.93,3.28,7.1.74,7.35,5.56s-9.26,4.57-9.69.49l1.73-.31c.24,2.23,6,2.78,6.05,0-.62-3.45-7-.92-7.29-5.55-.24-3.52,5.06-3.89,7.53-2.59a3.12,3.12,0,0,1,1.49,2.16" data-name="C"/>
 </g>
 <path class="cls-24" d="m257.67 645.5a7.26 7.26 0 1 1-7.27-7.27 7.26 7.26 0 0 1 7.27 7.27z"/>
 <path class="cls-25" d="M250.41,652.74V667a20.56,20.56,0,0,0,3.65,10.76l14.1,18.44M250.4,673l-17.78,23.2m0-36.25h35.55"/>
 <path class="cls-10" d="m232.63 644.24a6 6 0 0 1 6-6h23.55a6 6 0 0 1 6 6v68a6 6 0 0 1-6 6h-23.54a6 6 0 0 1-6-6z"/>
 <path class="cls-24" d="m197.67 645.5a7.26 7.26 0 1 1-7.27-7.27 7.26 7.26 0 0 1 7.27 7.27z"/>
 <path class="cls-25" d="M190.41,652.74V667a20.56,20.56,0,0,0,3.65,10.76l14.1,18.44M190.4,673l-17.78,23.2m0-36.25h35.55"/>
 <path class="cls-10" d="m172.63 644.24a6 6 0 0 1 6-6h23.55a6 6 0 0 1 6 6v68a6 6 0 0 1-6 6h-23.54a6 6 0 0 1-6-6z"/>
 <path class="cls-24" d="M227,707a7.26,7.26,0,1,1-7.26-7.27A7.24,7.24,0,0,1,227,707Z"/>
 <path class="cls-25" d="m219.77 714.24v14.3a20.64 20.64 0 0 0 3.64 10.76l14.13 18.44m-17.78-23.2-17.76 23.2m0-36.25h35.55"/>
 <path class="cls-10" d="M202,705.74a6,6,0,0,1,6-6h23.55a6,6,0,0,1,6,6v68a6,6,0,0,1-6,6H208a6,6,0,0,1-6-6Z"/>
 <g data-name="d">
  <path class="cls-2" d="M205.36,769.78c-.06,4-2.47,6-6.42,6-3.76,0-6.17-2-6.17-5.81v-9.75h2c.49,5.49-2,13.83,4.13,13.83s3.95-8.21,4.38-13.83h2v9.57" data-name="B"/>
  <path class="cls-2" d="M215.36,766.69c-.18-2.1-5.31-2.34-5.37,0,.93,3.27,7.1.74,7.35,5.56s-9.26,4.57-9.7.49l1.73-.31c.25,2.23,6,2.78,6,0-.61-3.45-7-.92-7.28-5.55-.25-3.52,5.06-3.89,7.53-2.6a3.12,3.12,0,0,1,1.48,2.17" data-name="C"/>
  <path class="cls-2" d="m224.31 763.54c3.89 0 5.31 2.6 5.19 6.55h-8.34c0 2.47 0.87 4.13 3.27 4.19a2.86 2.86 0 0 0 3-1.79l1.73 0.5c-0.68 1.73-2.29 2.78-4.76 2.78-3.58 0-5.43-2.29-5.37-6.18s1.64-6.05 5.28-6.05zm3.21 5c0.37-3.7-4.69-4.75-6-1.72a4.52 4.52 0 0 0-0.37 1.72h6.36" data-name="n"/>
  <path class="cls-2" d="m237.52 765.46c-4.81-1-3.27 5.61-3.52 10.06h-2v-11.73h1.85a15.43 15.43 0 0 0 0.12 2.41c0.37-1.67 1.42-3 3.58-2.53v1.79" data-name="r"/>
  <path class="cls-2" d="M246.16,766.69c-.18-2.1-5.31-2.34-5.37,0,.93,3.27,7.1.74,7.35,5.56s-9.26,4.57-9.69.49l1.73-.31c.24,2.23,6,2.78,6,0-.61-3.45-7-.92-7.28-5.55-.25-3.52,5.06-3.89,7.53-2.6a3.12,3.12,0,0,1,1.48,2.17" data-name="C"/>
 </g>
</svg>
