<?xml version="1.0" encoding="UTF-8"?>
<svg data-name="Layer 1" version="1.1" viewBox="0 0 1603 1058.6" xmlns="http://www.w3.org/2000/svg">
 <title>Figure2</title>
 <defs>
  <style>.cls-1,.cls-8,.cls-9{fill:#fff;}.cls-1,.cls-3,.cls-5,.cls-6,.cls-7,.cls-8{stroke:#5e5f5f;}.cls-1,.cls-6,.cls-7,.cls-9{stroke-width:3px;}.cls-2{fill:#333;}.cls-3,.cls-7{fill:none;}.cls-3,.cls-5,.cls-8{stroke-width:2px;}.cls-4,.cls-5{fill:#5e5f5f;}.cls-6{fill:#c2e4f7;}.cls-9{fill-opacity:0;stroke:#010101;stroke-opacity:0;}</style>
 </defs>
 <path class="cls-1" d="M332.38,123.08a6,6,0,0,1,6-6H1315.5a6,6,0,0,1,6,6v928a6,6,0,0,1-6,6H338.38a6,6,0,0,1-6-6Z"/>
 <g id="b">
  <path id="fg" class="cls-2" d="M743,1040.58l-8.15-13,.06,13h-1.79v-15.31h2.41l8.21,13.15-.12-13.15h1.91v15.31H743"/>
  <path id="fh" class="cls-2" d="m753.43 1028.6c3.89 0 5.31 2.59 5.19 6.55h-8.34c0 2.46 0.87 4.13 3.27 4.19a2.88 2.88 0 0 0 3-1.79l1.73 0.5c-0.68 1.73-2.29 2.77-4.76 2.77-3.58 0-5.43-2.28-5.37-6.17s1.64-6.05 5.28-6.05zm3.21 5c0.37-3.7-4.69-4.75-6-1.73a4.62 4.62 0 0 0-0.37 1.73h6.36"/>
  <path id="fi" class="cls-2" d="M763.25,1037.68c-.13,1.48,1.11,1.79,2.34,1.35v1.49c-2,.61-4.32.3-4.32-2.41v-7.84h-1.36v-1.42h1.48l.56-2.66h1.3v2.66h2.16v1.42h-2.16v7.41"/>
  <path id="fj" class="cls-2" d="m778.49 1040.6h-2.22l-2.47-10.13-2.53 10.13h-2.22l-3.34-11.73h2l2.39 10.15 2.65-10.12h2.1l2.53 10.12 2.59-10.12h1.92"/>
  <path id="fk" class="cls-2" d="m787.94 1028.6c3.82-0.06 5.24 2.29 5.24 6.11s-1.66 6.11-5.3 6.11-5.13-2.4-5.19-6.11c0-4.07 1.73-6.11 5.25-6.11zm-0.06 10.74c2.71 0.06 3.27-1.91 3.27-4.63s-0.5-4.63-3.15-4.63-3.27 2-3.27 4.63 0.61 4.57 3.15 4.63"/>
  <path id="fl" class="cls-2" d="M801.15,1030.52c-4.82-1-3.27,5.61-3.52,10.06h-2l-.06-11.73h1.85a15.38,15.38,0,0,0,.13,2.41c.37-1.67,1.42-3,3.58-2.53v1.79"/>
  <path id="fm" class="cls-2" d="m810.28 1040.6-3.95-5.37-1.42 1.17v4.2h-2v-16.11h2v10.06l5.13-5.68h2.28l-4.75 5.06 5.06 6.67h-2.35"/>
 </g>
 <g id="c">
  <path id="fn" class="cls-2" d="M820.59,1025.27c5.37.06,11.79-.93,11.79,4.63,0,4.81-4.75,4.94-9.75,4.69v6h-2Zm2,7.71c3.52,0,7.65.68,7.65-3.08s-4.19-2.9-7.65-3v6"/>
  <path id="fo" class="cls-2" d="M842.26,1038.36c-.93,1.29-1.92,2.53-4.2,2.46s-3.58-1.29-3.58-3.51c-.06-4,3.89-3.89,7.72-3.89.18-2.16-.56-3.34-2.53-3.34-1.49.07-2.54.44-2.6,1.92l-2-.19c.3-2.28,2-3.21,4.69-3.21s4.44,1.24,4.44,4v5.06c-.06,1.24.43,2,1.73,1.67v1.24C844,1041.07,842.13,1040.39,842.26,1038.36Zm-5.74-1a1.86,1.86,0,0,0,2,2c2.53-.18,3.89-1.79,3.71-4.56-2.66.12-5.68-.31-5.68,2.53"/>
  <path class="cls-2" d="M852.94,1030.52c-4.82-1-3.27,5.61-3.52,10.06h-2l-.06-11.73h1.85a15.38,15.38,0,0,0,.13,2.41c.37-1.67,1.42-3,3.58-2.53v1.79" data-name="fl"/>
  <path class="cls-2" d="M856.89,1037.68c-.13,1.48,1.11,1.79,2.34,1.35v1.49c-2,.61-4.32.3-4.32-2.41v-7.84h-1.36v-1.42H855l.55-2.66h1.3v2.66h2.16v1.42h-2.16v7.41" data-name="fi"/>
  <path id="fp" class="cls-2" d="m860.9 1026.3v-1.85h2v1.85zm0 14.26v-11.73h2v11.73h-2"/>
  <path id="fq" class="cls-2" d="M870.22,1030.15c-2.47,0-3,2-3,4.5s.55,4.63,3,4.63a2.46,2.46,0,0,0,2.66-2.34l2,.12a4.23,4.23,0,0,1-4.57,3.76c-3.64,0-4.69-2.53-5.06-6.11-.62-5.74,6.24-8.08,9.08-4a5.54,5.54,0,0,1,.43,1.36l-2,.19a2.35,2.35,0,0,0-2.53-2.16"/>
  <path class="cls-2" d="m876.89 1026.3v-1.85h2v1.85zm0 14.26v-11.73h2v11.73h-2" data-name="fp"/>
  <path id="fr" class="cls-2" d="M887.38,1028.6c3.4.06,4.32,2.53,4.32,6.05s-1,6-4.32,6.17a3.79,3.79,0,0,1-3.7-2.09l.06,6.48h-2l-.06-16.36h1.92l.12,1.85A3.64,3.64,0,0,1,887.38,1028.6Zm-.49,10.74c2.47,0,2.78-2.1,2.78-4.63s-.37-4.5-2.78-4.56c-2.59,0-3.15,2-3.15,4.69s.62,4.5,3.15,4.5"/>
  <path class="cls-2" d="M901.33,1038.36c-.92,1.29-1.91,2.53-4.2,2.46s-3.58-1.29-3.58-3.51c-.06-4,3.89-3.89,7.72-3.89.19-2.16-.55-3.34-2.53-3.34-1.48.07-2.53.44-2.59,1.92l-2-.19c.31-2.28,2-3.21,4.69-3.21s4.45,1.24,4.45,4v5.06c-.07,1.24.43,2,1.72,1.67v1.24C903.06,1041.07,901.21,1040.39,901.33,1038.36Zm-5.74-1a1.86,1.86,0,0,0,2,2c2.53-.18,3.89-1.79,3.7-4.56-2.65.12-5.68-.31-5.68,2.53" data-name="fo"/>
  <path id="fs" class="cls-2" d="M912.2,1028.6c5.49-.24,3.27,7.16,3.7,12h-2v-7.47c0-1.92-.49-3-2.4-3-4.45.12-2.72,6.29-3,10.43h-2l-.06-11.73h1.85a10.17,10.17,0,0,0,.12,2,3.92,3.92,0,0,1,3.77-2.22"/>
  <path class="cls-2" d="M921,1037.68c-.12,1.48,1.11,1.79,2.35,1.35v1.49c-2,.61-4.32.3-4.32-2.41v-7.84h-1.36v-1.42h1.48l.56-2.66H921v2.66h2.16v1.42H921v7.41" data-name="fi"/>
 </g>
 <path class="cls-1" d="m1321.5 123.08a6 6 0 0 1 6-6h268a6 6 0 0 1 6 6v928a6 6 0 0 1-6 6h-268a6 6 0 0 1-6-6z"/>
 <g id="d">
  <path id="ft" class="cls-2" d="m1357.5 1040.6v-15.31h2.1v15.31h-2.1"/>
  <path class="cls-2" d="M1368.85,1028.6c5.49-.24,3.27,7.16,3.7,12h-2v-7.47c0-1.92-.49-3-2.4-3-4.45.12-2.72,6.29-3,10.43h-2l-.06-11.73H1365a10.17,10.17,0,0,0,.12,2,3.92,3.92,0,0,1,3.77-2.22" data-name="fs"/>
  <path class="cls-2" d="M1377.61,1037.68c-.12,1.48,1.11,1.79,2.35,1.35v1.49c-2,.61-4.32.3-4.32-2.41v-7.84h-1.36v-1.42h1.48l.55-2.66h1.3v2.66h2.16v1.42h-2.16v7.41" data-name="fi"/>
  <path class="cls-2" d="m1386.3 1028.6c3.89 0 5.31 2.59 5.19 6.55h-8.33c0 2.46 0.86 4.13 3.27 4.19a2.87 2.87 0 0 0 3-1.79l1.73 0.5c-0.68 1.73-2.28 2.77-4.75 2.77-3.58 0-5.43-2.28-5.37-6.17s1.62-6.05 5.26-6.05zm3.21 5c0.38-3.7-4.69-4.75-6-1.73a4.44 4.44 0 0 0-0.37 1.73h6.35" data-name="fh"/>
  <path class="cls-2" d="M1399.52,1030.52c-4.81-1-3.27,5.61-3.51,10.06h-2l-.06-11.73h1.85a15.43,15.43,0,0,0,.12,2.41c.37-1.67,1.42-3,3.58-2.53v1.79" data-name="fl"/>
  <path class="cls-2" d="M1407.06,1028.6c5.49-.24,3.27,7.16,3.7,12h-2v-7.47c0-1.92-.49-3-2.4-3-4.45.12-2.72,6.29-3,10.43h-2l-.07-11.73h1.86a10.17,10.17,0,0,0,.12,2,3.92,3.92,0,0,1,3.77-2.22" data-name="fs"/>
  <path class="cls-2" d="m1418.4 1028.6c3.89 0 5.31 2.59 5.19 6.55h-8.34c0 2.46 0.87 4.13 3.28 4.19a2.87 2.87 0 0 0 3-1.79l1.73 0.5c-0.68 1.73-2.29 2.77-4.75 2.77-3.58 0-5.44-2.28-5.37-6.17s1.62-6.05 5.26-6.05zm3.21 5c0.37-3.7-4.69-4.75-6-1.73a4.62 4.62 0 0 0-0.37 1.73h6.36" data-name="fh"/>
  <path class="cls-2" d="M1428.17,1037.68c-.13,1.48,1.11,1.79,2.34,1.35v1.49c-2,.61-4.32.3-4.32-2.41v-7.84h-1.36v-1.42h1.48l.56-2.66h1.3v2.66h2.16v1.42h-2.16v7.41" data-name="fi"/>
 </g>
 <g id="e">
  <path class="cls-2" d="m1438.9 1040.6v-15.31h2.1v15.31h-2.1" data-name="ft"/>
  <path class="cls-2" d="M1450.27,1028.6c5.49-.24,3.27,7.16,3.7,12h-2v-7.47c0-1.92-.49-3-2.4-3-4.45.12-2.72,6.29-3,10.43h-2l-.07-11.73h1.86a10.17,10.17,0,0,0,.12,2,3.92,3.92,0,0,1,3.77-2.22" data-name="fs"/>
  <path id="fu" class="cls-2" d="M1461.62,1026.13c-1.91-.55-2.59.62-2.34,2.72h2.34v1.42h-2.34v10.31h-1.92v-10.31h-1.66v-1.42h1.66c-.43-3.21,1.05-5.06,4.26-4.2v1.48"/>
  <path class="cls-2" d="M1468.6,1030.52c-4.82-1-3.27,5.61-3.52,10.06h-2l-.07-11.73h1.86a14.3,14.3,0,0,0,.12,2.41c.37-1.67,1.42-3,3.58-2.53v1.79" data-name="fl"/>
  <path class="cls-2" d="m1477.6 1038.4c-0.92 1.29-1.91 2.53-4.2 2.46s-3.58-1.29-3.58-3.51c-0.06-4 3.89-3.89 7.72-3.89 0.18-2.16-0.56-3.34-2.53-3.34-1.48 0.07-2.53 0.44-2.59 1.92l-2-0.19c0.31-2.28 2-3.21 4.69-3.21s4.44 1.24 4.44 4v5.06c-0.06 1.24 0.44 2 1.73 1.67v1.24c-1.95 0.5-3.8-0.18-3.68-2.21zm-5.74-1a1.86 1.86 0 0 0 2 2c2.53-0.18 3.88-1.79 3.7-4.56-2.65 0.12-5.68-0.31-5.68 2.53" data-name="fo"/>
  <path id="fv" class="cls-2" d="M1489.59,1031.75c-.19-2.1-5.31-2.35-5.37,0,.92,3.27,7.1.74,7.34,5.56s-9.26,4.56-9.69.49l1.73-.31c.25,2.22,6,2.78,6.05,0-.62-3.46-7-.92-7.29-5.55-.24-3.52,5.07-3.89,7.54-2.6a3.15,3.15,0,0,1,1.48,2.16"/>
  <path class="cls-2" d="M1496,1037.68c-.13,1.48,1.11,1.79,2.34,1.35v1.49c-2,.61-4.32.3-4.32-2.41v-7.84h-1.36v-1.42h1.48l.56-2.66h1.3v2.66h2.16v1.42H1496v7.41" data-name="fi"/>
  <path class="cls-2" d="M1505.57,1030.52c-4.81-1-3.27,5.61-3.51,10.06h-2l-.06-11.73h1.85a15.43,15.43,0,0,0,.12,2.41c.37-1.67,1.42-3,3.58-2.53v1.79" data-name="fl"/>
  <path id="fw" class="cls-2" d="M1511.07,1040.82c-5.5.25-3.34-7.16-3.77-12h2v7.41c0,1.91.43,3.08,2.41,3,4.44-.12,2.77-6.23,3.08-10.43h1.92l.06,11.73h-1.85a10.88,10.88,0,0,0-.13-2,3.85,3.85,0,0,1-3.7,2.28"/>
  <path class="cls-2" d="M1524.15,1030.15c-2.46,0-3,2-3,4.5s.56,4.63,3,4.63a2.45,2.45,0,0,0,2.66-2.34l2,.12a4.23,4.23,0,0,1-4.56,3.76c-3.65,0-4.7-2.53-5.07-6.11-.61-5.74,6.24-8.08,9.08-4a4.8,4.8,0,0,1,.43,1.36l-2,.19a2.36,2.36,0,0,0-2.54-2.16" data-name="fq"/>
  <path class="cls-2" d="M1533,1037.68c-.12,1.48,1.11,1.79,2.35,1.35v1.49c-2,.61-4.32.3-4.32-2.41v-7.84h-1.36v-1.42h1.48l.56-2.66H1533v2.66h2.16v1.42H1533v7.41" data-name="fi"/>
  <path class="cls-2" d="M1540.7,1040.82c-5.5.25-3.34-7.16-3.77-12h2v7.41c0,1.91.43,3.08,2.41,3,4.44-.12,2.77-6.23,3.08-10.43h1.92l.06,11.73h-1.86a10.14,10.14,0,0,0-.12-2,3.85,3.85,0,0,1-3.7,2.28" data-name="fw"/>
  <path class="cls-2" d="M1554.9,1030.52c-4.82-1-3.28,5.61-3.52,10.06h-2l-.06-11.73h1.85a14.26,14.26,0,0,0,.13,2.41c.37-1.67,1.41-3,3.58-2.53v1.79" data-name="fl"/>
  <path class="cls-2" d="m1561.4 1028.6c3.89 0 5.31 2.59 5.18 6.55h-8.33c0 2.46 0.86 4.13 3.27 4.19a2.86 2.86 0 0 0 3-1.79l1.73 0.5c-0.68 1.73-2.28 2.77-4.75 2.77-3.58 0-5.43-2.28-5.37-6.17s1.62-6.05 5.27-6.05zm3.21 5c0.37-3.7-4.69-4.75-6-1.73a4.44 4.44 0 0 0-0.37 1.73h6.36" data-name="fh"/>
 </g>
 <path class="cls-1" d="M1.5,123.08a6,6,0,0,1,6-6H326.38a6,6,0,0,1,6,6v928a6,6,0,0,1-6,6H7.5a6,6,0,0,1-6-6Z"/>
 <g data-name="b">
  <path class="cls-2" d="m111.6 1040.6-8.15-13 0.06 13h-1.79v-15.31h2.41l8.21 13.15-0.12-13.15h1.91v15.31h-2.53" data-name="fg"/>
  <path class="cls-2" d="M122,1028.6c3.89,0,5.31,2.59,5.19,6.55h-8.34c0,2.46.87,4.13,3.27,4.19a2.88,2.88,0,0,0,3-1.79l1.73.5c-.68,1.73-2.29,2.77-4.76,2.77-3.58,0-5.43-2.28-5.37-6.17S118.39,1028.6,122,1028.6Zm3.21,5c.37-3.7-4.69-4.75-6-1.73a4.62,4.62,0,0,0-.37,1.73h6.36" data-name="fh"/>
  <path class="cls-2" d="M131.85,1037.68c-.13,1.48,1.11,1.79,2.34,1.35v1.49c-2,.61-4.32.3-4.32-2.41v-7.84h-1.36v-1.42H130l.56-2.66h1.3v2.66H134v1.42h-2.16v7.41" data-name="fi"/>
  <path class="cls-2" d="M147.09,1040.58h-2.22l-2.47-10.13-2.53,10.13h-2.22l-3.34-11.73h2L138.7,1039l2.65-10.12h2.1L146,1039l2.59-10.12h1.92" data-name="fj"/>
  <path class="cls-2" d="m156.54 1028.6c3.82-0.06 5.24 2.29 5.24 6.11s-1.66 6.11-5.3 6.11-5.13-2.4-5.19-6.11c0-4.07 1.71-6.11 5.25-6.11zm-0.06 10.74c2.71 0.06 3.27-1.91 3.27-4.63s-0.5-4.63-3.15-4.63-3.27 2-3.27 4.63 0.61 4.57 3.15 4.63" data-name="fk"/>
  <path class="cls-2" d="M169.75,1030.52c-4.82-1-3.27,5.61-3.52,10.06h-2l-.06-11.73H166a14.26,14.26,0,0,0,.13,2.41c.37-1.67,1.42-3,3.58-2.53v1.79" data-name="fl"/>
  <path class="cls-2" d="m178.88 1040.6-3.95-5.37-1.42 1.17v4.2h-2v-16.11h2v10.06l5.13-5.68h2.28l-4.75 5.06 5.06 6.67h-2.35" data-name="fm"/>
 </g>
 <g id="eQ">
  <path class="cls-2" d="M201.66,1034.84c-.06,4-2.47,6-6.42,6-3.76,0-6.17-2-6.17-5.8v-9.75h2c.49,5.49-2,13.83,4.13,13.83s3.95-8.21,4.38-13.83h2v9.57" data-name="fU"/>
  <path class="cls-2" d="M211.66,1031.75c-.18-2.1-5.31-2.35-5.37,0,.93,3.27,7.1.74,7.35,5.56s-9.26,4.56-9.7.49l1.73-.31c.25,2.22,6,2.78,6.05,0-.61-3.46-7-.92-7.28-5.55-.25-3.52,5.06-3.89,7.53-2.6a3.12,3.12,0,0,1,1.48,2.16" data-name="fv"/>
  <path class="cls-2" d="M220.61,1028.6c3.89,0,5.31,2.59,5.19,6.55h-8.34c0,2.46.87,4.13,3.27,4.19a2.88,2.88,0,0,0,3-1.79l1.73.5c-.68,1.73-2.29,2.77-4.76,2.77-3.58,0-5.43-2.28-5.37-6.17S217,1028.6,220.61,1028.6Zm3.21,5c.37-3.7-4.69-4.75-6-1.73a4.62,4.62,0,0,0-.37,1.73h6.36" data-name="fh"/>
  <path class="cls-2" d="M233.82,1030.52c-4.81-1-3.27,5.61-3.52,10.06h-2l-.06-11.73h1.85a15.43,15.43,0,0,0,.12,2.41c.37-1.67,1.42-3,3.58-2.53v1.79" data-name="fl"/>
 </g>
 <path class="cls-3" d="m1068.4 880.85h-39.2"/>
 <path class="cls-4" d="m1069.4 881.85h-1v-2h1"/>
 <path class="cls-5" d="m1014 880.85 14.25-4.63v9.27z"/>
 <path class="cls-6" d="m732.5 670.9a6 6 0 0 1 6-6h148a6 6 0 0 1 6 6v283a6 6 0 0 1-6 6h-148a6 6 0 0 1-6-6z"/>
 <g id="aE">
  <path id="fx" class="cls-2" d="M756,791.19v5.68h8.52v1.73H756v6.17h-2V789.46h10.8v1.73H756"/>
  <path id="fy" class="cls-2" d="m767.1 804.77v-16.11h2v16.11h-2"/>
  <path class="cls-2" d="m776.67 792.8c3.82-0.07 5.24 2.28 5.24 6.11s-1.66 6.09-5.31 6.09-5.12-2.41-5.18-6.11c0-4.06 1.73-6.09 5.25-6.09zm-0.07 10.74c2.72 0.06 3.28-1.92 3.28-4.63s-0.5-4.63-3.15-4.63-3.27 2-3.27 4.63 0.61 4.56 3.14 4.63" data-name="fk"/>
  <path class="cls-2" d="M795.56,804.77h-2.23l-2.47-10.12-2.53,10.12h-2.22L782.78,793h2l2.41,10.13L789.81,793h2.1l2.53,10.13L797,793H799" data-name="fj"/>
 </g>
 <g id="aX">
  <path id="fE" class="cls-2" d="m806.85 804.77v-15.31h11.55v1.73h-9.51v4.88h8.89v1.66h-8.89v5.37h10v1.67h-12"/>
  <path id="fF" class="cls-2" d="M826.48,804.77h-2.34L819.88,793H822l3.33,10.19L828.77,793h2.09"/>
  <path class="cls-2" d="M837.1,792.8c3.89,0,5.31,2.59,5.18,6.54H834c0,2.47.86,4.13,3.27,4.2a2.88,2.88,0,0,0,3-1.79l1.73.49c-.68,1.73-2.29,2.78-4.76,2.78-3.58,0-5.43-2.29-5.37-6.18S833.46,792.8,837.1,792.8Zm3.21,5c.37-3.71-4.69-4.76-6-1.73a4.58,4.58,0,0,0-.37,1.73h6.36" data-name="fh"/>
  <path class="cls-2" d="M850.49,792.8c5.5-.25,3.28,7.16,3.71,12h-2V797.3c0-1.91-.49-3-2.41-3-4.44.12-2.71,6.29-3,10.43h-2L844.75,793h1.85a10.29,10.29,0,0,0,.13,2,3.9,3.9,0,0,1,3.76-2.22" data-name="fs"/>
  <path class="cls-2" d="M859.26,801.87c-.12,1.48,1.11,1.79,2.34,1.36v1.48c-2,.62-4.32.31-4.32-2.41v-7.84h-1.35V793h1.48l.55-2.65h1.3V793h2.16v1.42h-2.16v7.41" data-name="fi"/>
  <path class="cls-2" d="M870.12,795.94c-.18-2.1-5.31-2.34-5.37,0,.93,3.27,7.1.74,7.35,5.56s-9.26,4.57-9.69.49l1.73-.31c.24,2.23,6,2.78,6.05,0-.62-3.45-7-.92-7.29-5.55-.25-3.52,5.06-3.89,7.53-2.59a3.08,3.08,0,0,1,1.48,2.16" data-name="fv"/>
 </g>
 <g id="n">
  <path class="cls-2" d="M789.72,823.35c2.16.31,3.77,1.42,3.77,3.77,0,5.37-6.55,4.19-11.79,4.32V816.13c4.69.18,10.92-1,10.92,3.7A3.38,3.38,0,0,1,789.72,823.35Zm-6-.68c3.09-.06,6.79.56,6.79-2.59,0-2.9-3.88-2.22-6.79-2.28Zm0,7.1c3.4-.12,7.66.86,7.66-2.78,0-3.45-4.32-2.59-7.66-2.71v5.49" data-name="fH"/>
  <path class="cls-2" d="M801.7,821.38c-4.82-1-3.27,5.61-3.52,10.06h-2l-.06-11.73H798a15.38,15.38,0,0,0,.13,2.41c.37-1.67,1.42-3,3.58-2.53v1.79" data-name="fl"/>
  <path class="cls-2" d="m808.18 819.46c3.83-0.06 5.25 2.29 5.25 6.11s-1.67 6.11-5.31 6.11-5.13-2.4-5.19-6.11c0-4.07 1.73-6.11 5.25-6.11zm-0.06 10.74c2.71 0.06 3.27-1.91 3.27-4.63s-0.49-4.63-3.15-4.63-3.27 2-3.27 4.63 0.62 4.57 3.15 4.63" data-name="fk"/>
  <path class="cls-2" d="m823.18 831.44-3.95-5.37-1.42 1.17v4.2h-2v-16.11h2v10.06l5.12-5.68h2.29l-4.76 5.06 5.06 6.67h-2.34" data-name="fm"/>
  <path class="cls-2" d="M831.64,819.46c3.88,0,5.3,2.59,5.18,6.55h-8.33c0,2.46.86,4.13,3.27,4.19a2.87,2.87,0,0,0,3-1.79l1.73.5c-.68,1.72-2.28,2.77-4.75,2.77-3.58,0-5.43-2.28-5.37-6.17S828,819.46,831.64,819.46Zm3.21,5c.37-3.7-4.7-4.75-6-1.73a4.44,4.44,0,0,0-.37,1.73h6.36" data-name="fh"/>
  <path class="cls-2" d="M844.85,821.38c-4.82-1-3.28,5.61-3.52,10.06h-2l-.06-11.73h1.85a14.26,14.26,0,0,0,.13,2.41c.37-1.67,1.42-3,3.58-2.53v1.79" data-name="fl"/>
 </g>
 <path class="cls-6" d="m997 861.6c6.77 0 12.27 8.62 12.27 19.25s-5.5 19.25-12.27 19.25h-98.2c-6.78 0-12.28-8.6-12.28-19.25s5.5-19.25 12.27-19.25z"/>
 <path class="cls-7" d="M997,900.1c-6.78,0-12.28-8.6-12.28-19.25S990.2,861.6,997,861.6"/>
 <g id="eR">
  <path class="cls-2" d="m911.31 870.7c5 0 7.59 2.84 7.59 7.77 0 4.45-2.16 7.23-6.17 7.78 0.43 1.85 1.85 3 4.26 2.47v1.42c-3.4 1-5.87-0.92-6.36-3.76-4.51-0.37-6.91-3.15-6.91-7.91 0-4.93 2.59-7.77 7.59-7.77zm0 14c3.89 0 5.49-2.53 5.49-6.24s-1.79-6.11-5.49-6.11-5.5 2.41-5.5 6.11 1.73 6.18 5.5 6.24" data-name="fG"/>
  <path class="cls-2" d="M925.14,886.44c-5.5.24-3.34-7.16-3.77-12h2v7.41c0,1.91.43,3.09,2.4,3,4.45-.12,2.78-6.23,3.09-10.43h1.91l.06,11.73H929a11,11,0,0,0-.12-2,3.86,3.86,0,0,1-3.7,2.29" data-name="fw"/>
  <path class="cls-2" d="m938.47 874.22c3.89 0 5.31 2.59 5.18 6.54h-8.33c0 2.47 0.87 4.13 3.27 4.2a2.88 2.88 0 0 0 3-1.79l1.73 0.49c-0.68 1.73-2.29 2.78-4.76 2.78-3.58 0-5.43-2.29-5.37-6.18s1.64-6.04 5.28-6.04zm3.21 5c0.37-3.71-4.69-4.76-6-1.73a4.58 4.58 0 0 0-0.37 1.73h6.36" data-name="fh"/>
  <path class="cls-2" d="M949.83,886.44c-5.5.24-3.34-7.16-3.77-12h2v7.41c0,1.91.43,3.09,2.4,3,4.45-.12,2.78-6.23,3.09-10.43h1.91l.07,11.73h-1.86a10.18,10.18,0,0,0-.12-2,3.86,3.86,0,0,1-3.7,2.29" data-name="fw"/>
  <path class="cls-2" d="M963.16,874.22c3.89,0,5.31,2.59,5.19,6.54H960c0,2.47.87,4.13,3.27,4.2a2.88,2.88,0,0,0,3-1.79l1.73.49c-.68,1.73-2.29,2.78-4.76,2.78-3.58,0-5.43-2.29-5.37-6.18S959.52,874.22,963.16,874.22Zm3.21,5c.37-3.71-4.69-4.76-6-1.73a4.58,4.58,0,0,0-.37,1.73h6.36" data-name="fh"/>
 </g>
 <path class="cls-6" d="m1070.9 867.6a6 6 0 0 1 6-6h188a6 6 0 0 1 6 6v26.5a6 6 0 0 1-6 6h-188a6 6 0 0 1-6-6z"/>
 <g data-name="aE">
  <path class="cls-2" d="m1098.4 872.61v5.68h8.56v1.71h-8.52v6.17h-2v-15.29h10.8v1.73h-8.76" data-name="fx"/>
  <path class="cls-2" d="m1109.6 886.19v-16.11h2v16.11h-2" data-name="fy"/>
  <path class="cls-2" d="m1119.1 874.22c3.82-0.07 5.24 2.28 5.24 6.11s-1.66 6.11-5.3 6.11-5.13-2.41-5.19-6.11c0-4.08 1.73-6.11 5.25-6.11zm-0.06 10.74c2.71 0.06 3.27-1.92 3.27-4.63s-0.5-4.63-3.15-4.63-3.27 2-3.27 4.63 0.61 4.56 3.15 4.63" data-name="fk"/>
  <path class="cls-2" d="m1138 886.19h-2.23l-2.47-10.12-2.53 10.12h-2.22l-3.33-11.73h2l2.41 10.13 2.65-10.13h2.1l2.53 10.13 2.6-10.13h1.91" data-name="fj"/>
 </g>
 <g id="aT">
  <path class="cls-2" d="M1149.3,870.88c5.37.06,11.79-.92,11.79,4.63,0,4.82-4.75,4.94-9.75,4.69v6h-2Zm2,7.72c3.52,0,7.65.68,7.65-3.09s-4.19-2.9-7.65-3v6.05" data-name="fn"/>
  <path class="cls-2" d="M1169.3,876.13c-4.81-1-3.27,5.62-3.52,10.06h-2l-.06-11.73h1.85a15.43,15.43,0,0,0,.12,2.41c.37-1.67,1.42-3,3.58-2.53v1.79" data-name="fl"/>
  <path class="cls-2" d="m1175.8 874.22c3.83-0.07 5.25 2.28 5.25 6.11s-1.67 6.11-5.31 6.11-5.12-2.41-5.18-6.11c0-4.08 1.72-6.11 5.24-6.11zm-0.06 10.74c2.72 0.06 3.27-1.92 3.27-4.63s-0.49-4.63-3.15-4.63-3.27 2-3.27 4.63 0.62 4.56 3.15 4.63" data-name="fk"/>
  <path class="cls-2" d="M1187.88,875.76c-2.47,0-3,2-3,4.5s.55,4.63,3,4.63a2.46,2.46,0,0,0,2.66-2.34l2,.12a4.23,4.23,0,0,1-4.57,3.77c-3.64,0-4.69-2.53-5.06-6.11-.62-5.74,6.24-8.09,9.08-4a5.46,5.46,0,0,1,.43,1.35l-2,.19a2.35,2.35,0,0,0-2.53-2.16" data-name="fq"/>
  <path class="cls-2" d="m1199.2 874.22c3.89 0 5.31 2.59 5.19 6.54h-8.34c0 2.47 0.87 4.13 3.27 4.2a2.88 2.88 0 0 0 3-1.79l1.73 0.49c-0.68 1.73-2.29 2.78-4.76 2.78-3.58 0-5.43-2.29-5.37-6.18s1.64-6.04 5.28-6.04zm3.21 5c0.37-3.71-4.69-4.76-6-1.73a4.58 4.58 0 0 0-0.37 1.73h6.36" data-name="fh"/>
  <path class="cls-2" d="M1213.75,877.36c-.19-2.1-5.31-2.34-5.37,0,.92,3.28,7.09.74,7.34,5.56s-9.26,4.57-9.69.49l1.73-.31c.25,2.23,6,2.78,6,0-.62-3.45-7-.92-7.29-5.55-.24-3.52,5.07-3.89,7.53-2.59a3.09,3.09,0,0,1,1.49,2.16" data-name="fv"/>
  <path class="cls-2" d="M1224.86,877.36c-.19-2.1-5.31-2.34-5.37,0,.92,3.28,7.1.74,7.34,5.56s-9.26,4.57-9.69.49l1.73-.31c.25,2.23,6,2.78,6.05,0-.62-3.45-7-.92-7.29-5.55-.24-3.52,5.07-3.89,7.54-2.59a3.11,3.11,0,0,1,1.48,2.16" data-name="fv"/>
  <path class="cls-2" d="m1233.8 874.22c3.82-0.07 5.24 2.28 5.24 6.11s-1.66 6.11-5.3 6.11-5.13-2.41-5.19-6.11c0-4.08 1.73-6.11 5.25-6.11zm-0.06 10.74c2.71 0.06 3.27-1.92 3.27-4.63s-0.5-4.63-3.15-4.63-3.27 2-3.27 4.63 0.62 4.56 3.15 4.63" data-name="fk"/>
  <path class="cls-2" d="M1247,876.13c-4.82-1-3.27,5.62-3.52,10.06h-2l-.06-11.73h1.85a15.38,15.38,0,0,0,.13,2.41c.37-1.67,1.42-3,3.58-2.53v1.79" data-name="fl"/>
 </g>
 <path class="cls-6" d="m732.5 159.71a6 6 0 0 1 6-6h148a6 6 0 0 1 6 6v108a6 6 0 0 1-6 6h-148a6 6 0 0 1-6-6z"/>
 <g data-name="aE">
  <path class="cls-2" d="m760.37 190.91v5.67h8.52v1.73h-8.52v6.18h-2v-15.31h10.81v1.73h-8.77" data-name="fx"/>
  <path class="cls-2" d="m771.48 204.49v-16.12h2v16.12h-2" data-name="fy"/>
  <path class="cls-2" d="m781.05 192.51c3.83-0.06 5.25 2.28 5.25 6.11s-1.67 6.11-5.31 6.11-5.13-2.4-5.19-6.11c0-4.07 1.73-6.11 5.25-6.11zm-0.05 10.74c2.71 0.06 3.27-1.91 3.27-4.63s-0.49-4.63-3.15-4.63-3.27 2-3.27 4.63 0.62 4.57 3.15 4.63" data-name="fk"/>
  <path class="cls-2" d="m799.94 204.49h-2.22l-2.47-10.13-2.53 10.13h-2.23l-3.33-11.73h2l2.4 10.12 2.66-10.12h2.1l2.53 10.12 2.59-10.12h1.91" data-name="fj"/>
 </g>
 <g id="aF">
  <path class="cls-2" d="M821.11,204.49l-8.15-13,.06,13h-1.79V189.18h2.41l8.21,13.15-.12-13.15h1.91v15.31h-2.53" data-name="fg"/>
  <path class="cls-2" d="M834.07,202.26c-.92,1.3-1.91,2.53-4.19,2.47s-3.58-1.29-3.58-3.52c-.07-4,3.89-3.88,7.71-3.88.19-2.17-.55-3.34-2.53-3.34-1.48.06-2.53.43-2.59,1.92l-2-.19c.31-2.28,2-3.21,4.69-3.21s4.45,1.24,4.45,4v5.06c-.06,1.24.43,2,1.73,1.67v1.23C835.8,205,834,204.3,834.07,202.26Zm-5.74-1a1.87,1.87,0,0,0,2,2c2.53-.18,3.89-1.79,3.7-4.57-2.65.13-5.68-.31-5.68,2.53" data-name="fo"/>
  <path id="fD" class="cls-2" d="M850.68,194.05c-4.14.19-2.35,6.49-2.72,10.44h-1.91V197c0-1.79-.31-3.09-2.16-3-4.08.25-2.35,6.42-2.72,10.44h-1.91l-.06-11.73h1.85a10.22,10.22,0,0,0,.12,2c.62-2.71,6.11-3.08,6.61,0a3.79,3.79,0,0,1,3.58-2.22c5.25-.12,2.9,7.35,3.39,12h-1.91V197c0-1.79-.31-3-2.16-3"/>
  <path class="cls-2" d="m862.35 192.51c3.88 0 5.3 2.59 5.18 6.54h-8.33c0 2.47 0.86 4.14 3.27 4.2a2.87 2.87 0 0 0 3-1.79l1.73 0.5c-0.68 1.72-2.28 2.77-4.75 2.77-3.58 0-5.43-2.28-5.37-6.17s1.62-6.05 5.27-6.05zm3.21 5c0.37-3.7-4.7-4.75-6-1.73a4.39 4.39 0 0 0-0.37 1.73h6.36" data-name="fh"/>
 </g>
 <g id="aG">
  <path class="cls-2" d="M786.94,219.49c-.3-3-7.59-3.34-7.65.12.86,4.63,9.75.86,10.06,7.34.19,4.82-7.47,5.38-10.8,3.4a4.41,4.41,0,0,1-2-2.84l2-.43c.31,3.46,8.7,3.89,8.7-.06,0-4.82-9.56-.87-10-7.29-.31-5.06,9-5.18,11-2.1a5.74,5.74,0,0,1,.68,1.55" data-name="fI"/>
  <path class="cls-2" d="m796.51 219.18c3.89 0 5.31 2.59 5.19 6.54h-8.34c0 2.47 0.87 4.14 3.28 4.2a2.87 2.87 0 0 0 3-1.79l1.73 0.49c-0.68 1.73-2.28 2.78-4.75 2.78-3.58 0-5.44-2.28-5.37-6.17s1.62-6.05 5.26-6.05zm3.21 5c0.37-3.71-4.69-4.76-6-1.73a4.58 4.58 0 0 0-0.37 1.73h6.36" data-name="fh"/>
  <path class="cls-2" d="M809.72,221.09c-4.81-1-3.27,5.62-3.52,10.06h-2l-.06-11.73H806a15.43,15.43,0,0,0,.12,2.41c.37-1.67,1.42-3,3.58-2.53v1.79" data-name="fl"/>
  <path class="cls-2" d="m816.7 231.15h-2.35l-4.26-11.73h2.1l3.33 10.19 3.48-10.19h2.1" data-name="fF"/>
  <path class="cls-2" d="M822.62,216.89V215h2v1.85Zm0,14.26V219.42h2v11.73h-2" data-name="fp"/>
  <path class="cls-2" d="M831.94,220.72c-2.46,0-3,2-3,4.51s.56,4.63,3,4.63a2.46,2.46,0,0,0,2.66-2.35l2,.12A4.23,4.23,0,0,1,832,231.4c-3.65,0-4.69-2.53-5.07-6.11-.61-5.74,6.24-8.09,9.08-3.95a4.7,4.7,0,0,1,.43,1.36l-2,.18a2.36,2.36,0,0,0-2.54-2.16" data-name="fq"/>
  <path class="cls-2" d="m843.3 219.18c3.89 0 5.31 2.59 5.19 6.54h-8.34c0 2.47 0.87 4.14 3.28 4.2a2.87 2.87 0 0 0 3-1.79l1.73 0.49c-0.68 1.73-2.28 2.78-4.75 2.78-3.58 0-5.44-2.28-5.37-6.17s1.62-6.05 5.26-6.05zm3.21 5c0.37-3.71-4.69-4.76-6-1.73a4.58 4.58 0 0 0-0.37 1.73h6.36" data-name="fh"/>
 </g>
 <path class="cls-6" d="M732.5,339.71a6,6,0,0,1,6-6h148a6,6,0,0,1,6,6V537a6,6,0,0,1-6,6h-148a6,6,0,0,1-6-6Z"/>
 <g id="cI">
  <path class="cls-2" d="M793,390.59v5.68h8.52V398H793v6.17h-2V388.86h10.8v1.73H793" data-name="fx"/>
  <path class="cls-2" d="m804.14 404.17v-16.11h2v16.11h-2" data-name="fy"/>
  <path class="cls-2" d="m813.7 392.2c3.83-0.06 5.25 2.28 5.25 6.11s-1.67 6.11-5.31 6.11-5.12-2.41-5.18-6.11c0-4.08 1.73-6.11 5.24-6.11zm-0.06 10.74c2.72 0.06 3.27-1.91 3.27-4.63s-0.49-4.63-3.14-4.63-3.28 2-3.28 4.63 0.62 4.57 3.15 4.63" data-name="fk"/>
  <path class="cls-2" d="M832.59,404.17h-2.22l-2.47-10.12-2.53,10.12h-2.22l-3.34-11.73h2l2.41,10.13,2.65-10.13H829l2.53,10.13,2.59-10.13H836" data-name="fj"/>
 </g>
 <g id="cJ">
  <path class="cls-2" d="M765,430.84l-8.15-13,.06,13h-1.79V415.53h2.41l8.21,13.15-.12-13.15h1.91v15.31H765" data-name="fg"/>
  <path class="cls-2" d="M778,428.62c-.92,1.29-1.91,2.53-4.19,2.47s-3.58-1.3-3.58-3.52c-.07-3.95,3.88-3.89,7.71-3.89.19-2.16-.55-3.33-2.53-3.33-1.48.06-2.53.43-2.59,1.91l-2-.19c.31-2.28,2-3.21,4.69-3.21s4.45,1.24,4.45,4v5.06c-.06,1.23.43,2,1.73,1.66v1.24C779.72,431.33,777.87,430.65,778,428.62Zm-5.74-1.05a1.87,1.87,0,0,0,2,2c2.53-.19,3.89-1.79,3.7-4.57-2.65.12-5.68-.31-5.68,2.53" data-name="fo"/>
  <path class="cls-2" d="M794.6,420.41c-4.14.18-2.35,6.48-2.72,10.43H790v-7.47c0-1.79-.31-3.09-2.16-3-4.08.24-2.35,6.42-2.72,10.43h-1.91l-.06-11.73H785a10.33,10.33,0,0,0,.12,2c.62-2.72,6.11-3.09,6.61,0a3.79,3.79,0,0,1,3.58-2.23c5.24-.12,2.9,7.35,3.39,12h-1.91v-7.47c0-1.79-.31-3-2.16-3" data-name="fD"/>
  <path class="cls-2" d="m806.27 418.86c3.88 0 5.3 2.6 5.18 6.55h-8.33c0 2.47 0.86 4.13 3.27 4.2a2.88 2.88 0 0 0 3-1.79l1.73 0.49c-0.68 1.73-2.28 2.78-4.75 2.78-3.58 0-5.43-2.29-5.37-6.18s1.62-6.05 5.27-6.05zm3.21 5c0.37-3.7-4.7-4.75-6-1.72a4.38 4.38 0 0 0-0.37 1.72h6.36" data-name="fh"/>
  <path class="cls-2" d="M820.77,422c-.18-2.1-5.31-2.34-5.37,0,.93,3.27,7.1.74,7.35,5.56s-9.26,4.57-9.69.49l1.72-.31c.25,2.23,6,2.78,6.05,0-.61-3.45-7-.92-7.28-5.55-.25-3.52,5.06-3.89,7.53-2.59a3.08,3.08,0,0,1,1.48,2.16" data-name="fv"/>
  <path class="cls-2" d="M830.65,418.86c3.39.07,4.32,2.54,4.32,6.05s-1,6-4.32,6.18a3.8,3.8,0,0,1-3.71-2.1l.07,6.48h-2L825,419.11h1.91L827,421A3.63,3.63,0,0,1,830.65,418.86Zm-.5,10.75c2.47,0,2.78-2.1,2.78-4.63s-.37-4.51-2.78-4.57c-2.59,0-3.14,2-3.14,4.69s.61,4.51,3.14,4.51" data-name="fr"/>
  <path class="cls-2" d="M844.6,428.62c-.93,1.29-1.92,2.53-4.2,2.47s-3.58-1.3-3.58-3.52c-.06-3.95,3.89-3.89,7.72-3.89.18-2.16-.56-3.33-2.53-3.33-1.49.06-2.53.43-2.6,1.91l-2-.19c.3-2.28,2-3.21,4.69-3.21s4.44,1.24,4.44,4v5.06c-.06,1.23.43,2,1.73,1.66v1.24C846.33,431.33,844.48,430.65,844.6,428.62Zm-5.74-1.05a1.87,1.87,0,0,0,2,2c2.53-.19,3.89-1.79,3.71-4.57-2.66.12-5.68-.31-5.68,2.53" data-name="fo"/>
  <path class="cls-2" d="M854.17,420.41c-2.47,0-3,2-3,4.5s.56,4.63,3,4.63a2.45,2.45,0,0,0,2.65-2.34l2,.12a4.24,4.24,0,0,1-4.57,3.77c-3.64,0-4.69-2.53-5.06-6.11-.62-5.75,6.23-8.09,9.07-4a4.74,4.74,0,0,1,.43,1.35l-2,.19a2.36,2.36,0,0,0-2.53-2.16" data-name="fq"/>
  <path class="cls-2" d="m865.52 418.86c3.89 0 5.31 2.6 5.19 6.55h-8.33c0 2.47 0.86 4.13 3.27 4.2a2.88 2.88 0 0 0 3-1.79l1.73 0.49c-0.68 1.73-2.28 2.78-4.75 2.78-3.58 0-5.43-2.29-5.37-6.18s1.62-6.05 5.26-6.05zm3.21 5c0.37-3.7-4.69-4.75-6-1.72a4.38 4.38 0 0 0-0.37 1.72h6.35" data-name="fh"/>
 </g>
 <g id="cK">
  <path id="fA" class="cls-2" d="M774.57,457.51l-1.73-4.45h-7l-1.72,4.45H762l6.23-15.31h2.35l6.11,15.31Zm-2.35-6.11-2.9-7.6c-.74,2.78-1.91,5.06-2.84,7.6h5.74"/>
  <path class="cls-2" d="M782.65,447.07c-2.46,0-3,2-3,4.51s.56,4.63,3,4.63a2.45,2.45,0,0,0,2.66-2.35l2,.13a4.23,4.23,0,0,1-4.56,3.76c-3.65,0-4.7-2.53-5.07-6.11-.61-5.74,6.24-8.08,9.08-3.95a4.8,4.8,0,0,1,.43,1.36l-2,.19a2.37,2.37,0,0,0-2.54-2.17" data-name="fq"/>
  <path class="cls-2" d="M793.77,447.07c-2.47,0-3,2-3,4.51s.56,4.63,3,4.63a2.45,2.45,0,0,0,2.65-2.35l2,.13a4.24,4.24,0,0,1-4.57,3.76c-3.64,0-4.69-2.53-5.06-6.11-.62-5.74,6.23-8.08,9.07-3.95a4.8,4.8,0,0,1,.43,1.36l-2,.19a2.37,2.37,0,0,0-2.53-2.17" data-name="fq"/>
  <path class="cls-2" d="m805.12 445.53c3.89 0 5.31 2.59 5.19 6.54h-8.31c0 2.47 0.86 4.14 3.27 4.2a2.87 2.87 0 0 0 3-1.79l1.73 0.5c-0.68 1.72-2.28 2.77-4.75 2.77-3.58 0-5.44-2.28-5.37-6.17s1.6-6.05 5.24-6.05zm3.21 5c0.37-3.7-4.69-4.75-6-1.73a4.44 4.44 0 0 0-0.37 1.73h6.35" data-name="fh"/>
  <path class="cls-2" d="M819.63,448.68c-.19-2.1-5.31-2.35-5.37,0,.93,3.27,7.1.74,7.34,5.56s-9.25,4.56-9.69.49l1.73-.31c.25,2.22,6,2.78,6.05,0-.62-3.46-7-.93-7.28-5.56-.25-3.51,5.06-3.88,7.53-2.59a3.11,3.11,0,0,1,1.48,2.16" data-name="fv"/>
  <path class="cls-2" d="M830.74,448.68c-.18-2.1-5.31-2.35-5.37,0,.93,3.27,7.1.74,7.35,5.56s-9.26,4.56-9.7.49l1.73-.31c.25,2.22,6,2.78,6,0-.61-3.46-7-.93-7.28-5.56-.25-3.51,5.06-3.88,7.53-2.59a3.08,3.08,0,0,1,1.48,2.16" data-name="fv"/>
  <path class="cls-2" d="m835 443.25v-1.85h2v1.85zm0 14.26v-11.73h2v11.73h-2" data-name="fp"/>
  <path class="cls-2" d="M845.62,445.53c5.49-.25,3.27,7.16,3.7,12h-2V450c0-1.92-.5-3-2.41-3-4.45.13-2.72,6.3-3,10.44h-2l-.06-11.73h1.85a10.17,10.17,0,0,0,.12,2,3.92,3.92,0,0,1,3.77-2.22" data-name="fs"/>
  <path id="fz" class="cls-2" d="M861.67,445.78c-.62,7.71,2.53,18.08-6.79,16.11a3.53,3.53,0,0,1-2.72-2.65l2-.31c.92,2.9,6.17,2,5.49-1.73v-1.85a3.92,3.92,0,0,1-3.77,2.22c-3.33,0-4.19-2.53-4.19-5.93s1-6,4.38-6.05a4,4,0,0,1,3.64,2.16c.06-.61,0-1.42.12-2Zm-5.13,10.37c2.23,0,3.09-2,3.09-4.51s-.86-4.63-3.09-4.63c-2.4,0-2.84,2.1-2.84,4.63s.37,4.51,2.84,4.51"/>
 </g>
 <g id="cL">
  <path class="cls-2" d="m796.14 484.17-1.73-4.44h-7l-1.73 4.44h-2.16l6.23-15.31h2.35l6.11 15.31zm-2.34-6.11-2.9-7.59c-0.75 2.78-1.92 5.06-2.84 7.59h5.74" data-name="fA"/>
  <path class="cls-2" d="M809.23,472.44c-.62,7.72,2.53,18.09-6.79,16.12a3.53,3.53,0,0,1-2.72-2.66l2-.31c.92,2.9,6.17,2,5.49-1.73V482a3.9,3.9,0,0,1-3.76,2.22c-3.34,0-4.2-2.53-4.2-5.92s1-6,4.38-6.05a4,4,0,0,1,3.64,2.16,17.79,17.79,0,0,1,.13-2Zm-5.12,10.38c2.22,0,3.08-2,3.08-4.51s-.86-4.63-3.08-4.63c-2.41,0-2.84,2.1-2.84,4.63s.37,4.51,2.84,4.51" data-name="fz"/>
  <path class="cls-2" d="M816.82,472.2c3.89,0,5.31,2.59,5.19,6.54h-8.34c0,2.47.87,4.14,3.27,4.2a2.88,2.88,0,0,0,3-1.79l1.73.49c-.68,1.73-2.29,2.78-4.76,2.78-3.58,0-5.43-2.28-5.37-6.17S813.18,472.2,816.82,472.2Zm3.21,5c.37-3.71-4.69-4.76-6-1.73a4.58,4.58,0,0,0-.37,1.73H820" data-name="fh"/>
  <path class="cls-2" d="M830.22,472.2c5.49-.25,3.27,7.16,3.7,12h-2V476.7c0-1.91-.49-3-2.4-3-4.45.12-2.72,6.3-3,10.43h-2l-.06-11.73h1.85a10.28,10.28,0,0,0,.12,2,3.9,3.9,0,0,1,3.77-2.22" data-name="fs"/>
  <path class="cls-2" d="M839,481.27c-.12,1.48,1.11,1.79,2.35,1.36v1.48c-2,.62-4.32.31-4.32-2.41v-7.84h-1.36v-1.42h1.48l.56-2.65H839v2.65h2.16v1.42H839v7.41" data-name="fi"/>
 </g>
 <path class="cls-3" d="m812.5 331.21v-37.5"/>
 <path class="cls-4" d="m813.5 332.21h-2v-1h2"/>
 <path class="cls-5" d="m812.5 278.45 4.64 14.26h-9.28z"/>
 <g id="cM">
  <path id="gx" class="cls-2" d="M821.69,302.27c5.92-.35,11,.24,10.91,6-.05,3.95-2.17,6.22-6,6.22h-4.93Zm2.56,10.27c3.66.34,5.78-.89,5.78-4.25s-2.22-4.34-5.78-4.05v8.3"/>
  <path class="cls-2" d="M841.93,314.51l-5.33-9.43c.3,2.87.1,6.32.15,9.43h-2.27V302.27h2.91l5.43,9.53c-.3-2.87-.1-6.37-.15-9.53h2.27v12.24h-3" data-name="fW"/>
  <path class="cls-2" d="M854.43,305.53c0-2.13-4.65-2.28-4.79-.15.88,3.26,7.45.49,7.6,5.63.15,4.69-8.15,4.59-10.07,1.78a3.6,3.6,0,0,1-.6-1.49l2.47-.39c.15,2.27,5.53,2.76,5.73.25-.84-3.41-7.41-.5-7.6-5.63-.2-4.3,7.55-4.35,9.28-1.73a3.91,3.91,0,0,1,.49,1.38" data-name="fY"/>
 </g>
 <g id="cN">
  <path id="gB" class="cls-2" d="M864.06,302.27c4.59.05,10.17-.79,10.07,3.9,0,3.7-3.41,4.34-7.51,4.05v4.29h-2.56Zm2.56,6c2.32,0,4.94.35,4.94-2s-2.66-1.93-4.94-1.93v3.95"/>
  <path id="ga" class="cls-2" d="M881.39,307.11c-1.93-.6-3,.64-3,2.81v4.59H876l-.05-9.38h2.32a12.35,12.35,0,0,0,.15,2c.29-1.39,1.33-2.62,3-2v2"/>
  <path id="ge" class="cls-2" d="m887.07 304.93c3.16 0 4.74 1.78 4.74 4.89s-1.73 4.89-4.79 4.89-4.69-1.78-4.69-4.89 1.67-4.89 4.74-4.89zm-0.07 8.07c1.73 0 2.22-1.38 2.22-3.21s-0.49-3.21-2.12-3.21-2.22 1.29-2.22 3.21 0.51 3.21 2.12 3.21"/>
  <path id="gm" class="cls-2" d="M898.13,314.37c-1.78.69-4.3.34-4.3-2.08v-5.53h-1.18v-1.63H894l.74-2.22h1.53v2.22H898v1.63h-1.78v4.89c0,1.14.79,1.53,1.88,1.23v1.49"/>
  <path class="cls-2" d="m903.76 304.93c3.16 0 4.74 1.78 4.74 4.89s-1.73 4.89-4.79 4.89-4.69-1.78-4.69-4.89 1.68-4.89 4.74-4.89zm0 8.1c1.73 0 2.22-1.38 2.22-3.21s-0.49-3.21-2.12-3.21-2.22 1.29-2.22 3.21 0.49 3.21 2.12 3.21" data-name="ge"/>
  <path id="gv" class="cls-2" d="M918.52,311.4c-.34,2.08-1.87,3.31-4.24,3.31-2.92,0-4.15-1.88-4.45-4.84-.59-5.43,7.61-6.76,8.6-1.78l-2.42.1a1.66,1.66,0,0,0-1.73-1.58c-1.48,0-1.73,1.38-1.88,3.16-.29,3.66,3.21,4.3,3.66,1.48"/>
  <path class="cls-2" d="m924.45 304.93c3.16 0 4.74 1.78 4.74 4.89s-1.73 4.89-4.79 4.89-4.69-1.78-4.69-4.89 1.68-4.89 4.74-4.89zm-0.05 8.1c1.73 0 2.22-1.38 2.22-3.21s-0.49-3.21-2.12-3.21-2.22 1.29-2.22 3.21 0.49 3.21 2.12 3.21" data-name="ge"/>
  <path id="gf" class="cls-2" d="m931.07 314.51v-12.89h2.47v12.89h-2.47"/>
 </g>
 <path class="cls-3" d="m812.5 545.46v99.44"/>
 <path class="cls-4" d="m813.5 545.48h-2v-1h2"/>
 <path class="cls-5" d="m812.5 660.18-4.64-14.28h9.28z"/>
 <g id="cF">
  <path id="gI" class="cls-2" d="M618.43,634.9V622.65h9.63v2H621v3.11h6.52v2H621v3.21h7.41v2h-10"/>
  <path class="cls-2" d="m635.41 634.9h-2.91l-3.36-9.38h2.62l2.22 7.41 2.37-7.41h2.57" data-name="gb"/>
  <path class="cls-2" d="M648.1,632.53a4,4,0,0,1-4,2.57c-3-.1-4.4-1.83-4.4-4.94s1.48-4.84,4.44-4.84,4.1,2.22,4.15,5.33h-6c0,1.53.39,2.72,1.92,2.77a1.52,1.52,0,0,0,1.68-1.09Zm-2.22-3.41c.25-2.27-2.81-3.11-3.45-1a3.14,3.14,0,0,0-.2,1h3.65" data-name="fZ"/>
  <path id="gq" class="cls-2" d="M655.51,625.32c4.3-.05,2.87,5.58,3.11,9.58h-2.47c-.34-2.81,1.14-7.75-1.67-7.75s-1.68,4.79-1.93,7.75h-2.47l-.05-9.38h2.32a10.9,10.9,0,0,0,.15,1.87,3.07,3.07,0,0,1,3-2.07"/>
  <path class="cls-2" d="M665.34,634.75c-1.78.69-4.3.35-4.3-2.07v-5.53h-1.18v-1.63h1.33l.74-2.22h1.53v2.22h1.78v1.63h-1.78V632c-.05,1.13.79,1.53,1.88,1.23v1.48" data-name="gm"/>
 </g>
 <g id="cG">
  <path id="gJ" class="cls-2" d="M679.46,628.48c1.83.2,3.06,1.09,3.06,2.91,0,4.65-6.32,3.31-10.86,3.51V622.65c4.15.25,10-1.13,10.12,3.11A2.6,2.6,0,0,1,679.46,628.48Zm-5.23-.89c2-.15,5,.64,5-1.48s-3-1.38-5-1.53Zm0,5.43c2.37-.14,5.73.7,5.73-1.82s-3.41-1.58-5.73-1.73V633"/>
  <path class="cls-2" d="M689.93,627.49c-1.92-.59-3,.64-3,2.82v4.59H684.5l0-9.38h2.32a12.13,12.13,0,0,0,.15,2c.3-1.38,1.33-2.61,3-2v2" data-name="ga"/>
  <path class="cls-2" d="m695.61 625.32c3.16 0 4.74 1.78 4.74 4.89s-1.73 4.89-4.79 4.89-4.69-1.78-4.69-4.89 1.68-4.89 4.74-4.89zm-0.05 8.1c1.73 0 2.22-1.38 2.22-3.21 0-2-0.49-3.21-2.12-3.21s-2.22 1.28-2.22 3.21c0 1.78 0.49 3.21 2.12 3.21" data-name="ge"/>
  <path id="gz" class="cls-2" d="M708.25,634.9l-2.52-4.25-1,.74v3.51h-2.47V622h2.47v7.41l3.31-3.9h2.61l-3.26,3.65,3.56,5.73h-2.67"/>
  <path class="cls-2" d="M720,632.53a4,4,0,0,1-4,2.57c-3-.1-4.4-1.83-4.4-4.94s1.48-4.84,4.45-4.84,4.09,2.22,4.14,5.33h-6c0,1.53.39,2.72,1.93,2.77a1.51,1.51,0,0,0,1.67-1.09Zm-2.23-3.41c.25-2.27-2.81-3.11-3.45-1a3.14,3.14,0,0,0-.2,1h3.65" data-name="fZ"/>
  <path class="cls-2" d="M727.41,627.49c-1.92-.59-3,.64-3,2.82v4.59H722l-.05-9.38h2.32a12.13,12.13,0,0,0,.15,2c.3-1.38,1.33-2.61,3-2v2" data-name="ga"/>
 </g>
 <g id="cH">
  <path class="cls-2" d="M733.78,622.65c4.6.05,10.18-.79,10.08,3.9-.05,3.71-3.41,4.35-7.51,4.05v4.3h-2.57Zm2.57,6c2.32,0,4.94.34,4.94-2s-2.67-1.92-4.94-1.92v4" data-name="gB"/>
  <path class="cls-2" d="M751.12,627.49c-1.93-.59-3,.64-3,2.82v4.59h-2.46l-.05-9.38H748a13.42,13.42,0,0,0,.14,2c.3-1.38,1.34-2.61,3-2v2" data-name="ga"/>
  <path class="cls-2" d="m756.8 625.32c3.16 0 4.74 1.78 4.74 4.89s-1.73 4.89-4.79 4.89-4.69-1.78-4.69-4.89 1.67-4.89 4.74-4.89zm0 8.1c1.73 0 2.22-1.38 2.22-3.21 0-2-0.49-3.21-2.12-3.21s-2.23 1.28-2.23 3.21c0 1.78 0.5 3.21 2.13 3.21" data-name="ge"/>
  <path class="cls-2" d="M767.86,634.75c-1.78.69-4.3.35-4.3-2.07v-5.53h-1.18v-1.63h1.33l.74-2.22H766v2.22h1.78v1.63H766V632c-.05,1.13.79,1.53,1.88,1.23v1.48" data-name="gm"/>
  <path class="cls-2" d="m773.49 625.32c3.16 0 4.74 1.78 4.74 4.89s-1.73 4.89-4.79 4.89-4.69-1.78-4.69-4.89 1.68-4.89 4.74-4.89zm0 8.1c1.73 0 2.22-1.38 2.22-3.21 0-2-0.49-3.21-2.12-3.21s-2.23 1.28-2.23 3.21c0 1.78 0.5 3.21 2.13 3.21" data-name="ge"/>
  <path class="cls-2" d="M788.25,631.79c-.34,2.07-1.87,3.31-4.24,3.31-2.92,0-4.15-1.88-4.45-4.84-.59-5.43,7.61-6.77,8.59-1.78l-2.42.1A1.65,1.65,0,0,0,784,627c-1.49,0-1.73,1.38-1.88,3.16-.3,3.65,3.21,4.3,3.65,1.48" data-name="gv"/>
  <path class="cls-2" d="m794.18 625.32c3.16 0 4.74 1.78 4.74 4.89s-1.73 4.89-4.79 4.89-4.69-1.78-4.69-4.89 1.68-4.89 4.74-4.89zm0 8.1c1.73 0 2.22-1.38 2.22-3.21 0-2-0.49-3.21-2.12-3.21s-2.22 1.28-2.22 3.21c0 1.78 0.49 3.21 2.12 3.21" data-name="ge"/>
  <path class="cls-2" d="M800.8,634.9V622h2.47V634.9H800.8" data-name="gf"/>
 </g>
 <path class="cls-6" d="m87.94 341.21a6 6 0 0 1 6-6h148a6 6 0 0 1 6 6v108a6 6 0 0 1-6 6h-148a6 6 0 0 1-6-6z"/>
 <g data-name="ax">
  <path class="cls-2" d="M148.46,360.41v5.67H157v1.73h-8.52V374h-2V358.68h10.81v1.73h-8.77" data-name="fx"/>
  <path class="cls-2" d="M159.57,374V357.87h2V374h-2" data-name="fy"/>
  <path class="cls-2" d="m169.14 362c3.83-0.06 5.25 2.28 5.25 6.11s-1.67 6.11-5.31 6.11-5.12-2.4-5.19-6.11c0-4.06 1.73-6.11 5.25-6.11zm-0.06 10.74c2.72 0.06 3.27-1.91 3.27-4.63s-0.49-4.63-3.15-4.63-3.27 2-3.27 4.63 0.62 4.57 3.15 4.63" data-name="fk"/>
  <path class="cls-2" d="m188 374h-2.22l-2.47-10.13-2.5 10.13h-2.22l-3.34-11.73h2l2.4 10.12 2.66-10.12h2.1l2.53 10.12 2.59-10.12h1.91" data-name="fj"/>
 </g>
 <g id="ay">
  <path class="cls-2" d="M120.47,400.65l-8.15-13,.06,13h-1.79V385.34H113l8.21,13.15-.12-13.15H123v15.31h-2.53" data-name="fg"/>
  <path class="cls-2" d="M133.43,398.43c-.92,1.3-1.91,2.53-4.2,2.47s-3.58-1.3-3.58-3.52c-.06-3.95,3.89-3.89,7.72-3.89.18-2.16-.56-3.33-2.53-3.33-1.48.06-2.53.43-2.59,1.91l-2-.18c.31-2.29,2-3.21,4.69-3.21s4.44,1.23,4.44,3.95v5.06c-.06,1.23.44,2,1.73,1.67v1.23C135.16,401.15,133.31,400.47,133.43,398.43Zm-5.74-1.05a1.87,1.87,0,0,0,2,2c2.53-.19,3.88-1.79,3.7-4.57-2.65.12-5.68-.31-5.68,2.53" data-name="fo"/>
  <path class="cls-2" d="M150,390.22c-4.14.19-2.35,6.48-2.72,10.43h-1.91v-7.47c0-1.79-.31-3.08-2.16-3-4.08.25-2.35,6.42-2.72,10.43h-1.91l-.07-11.73h1.86a9.54,9.54,0,0,0,.12,2c.62-2.72,6.11-3.09,6.6,0a3.78,3.78,0,0,1,3.59-2.22c5.24-.13,2.9,7.34,3.39,12H152.2v-7.47c0-1.79-.31-3-2.16-3" data-name="fD"/>
  <path class="cls-2" d="m161.7 388.68c3.89 0 5.31 2.59 5.19 6.54h-8.34c0 2.47 0.87 4.14 3.28 4.2a2.87 2.87 0 0 0 3-1.79l1.73 0.49c-0.68 1.73-2.28 2.78-4.75 2.78-3.58 0-5.44-2.28-5.37-6.17s1.62-6.05 5.26-6.05zm3.21 5c0.37-3.71-4.69-4.76-6-1.73a4.58 4.58 0 0 0-0.37 1.73h6.36" data-name="fh"/>
  <path class="cls-2" d="M176.21,391.83c-.19-2.1-5.31-2.35-5.37,0,.92,3.27,7.1.74,7.34,5.55s-9.26,4.57-9.69.49l1.73-.3c.25,2.22,6,2.77,6.05,0-.62-3.46-7-.93-7.28-5.56-.25-3.52,5.06-3.89,7.53-2.59a3.11,3.11,0,0,1,1.48,2.16" data-name="fv"/>
  <path class="cls-2" d="M186.09,388.68c3.39.06,4.32,2.53,4.32,6.05s-1,6-4.32,6.17a3.79,3.79,0,0,1-3.71-2.1l.06,6.48h-2l-.06-16.36h1.91l.12,1.86A3.64,3.64,0,0,1,186.09,388.68Zm-.5,10.74c2.47,0,2.78-2.1,2.78-4.63s-.37-4.51-2.78-4.57c-2.59,0-3.15,2-3.15,4.69s.62,4.51,3.15,4.51" data-name="fr"/>
  <path class="cls-2" d="M200,398.43c-.93,1.3-1.92,2.53-4.2,2.47s-3.58-1.3-3.58-3.52c-.06-3.95,3.89-3.89,7.71-3.89.19-2.16-.55-3.33-2.53-3.33-1.48.06-2.53.43-2.59,1.91l-2-.18c.31-2.29,2-3.21,4.7-3.21s4.44,1.23,4.44,3.95v5.06c-.06,1.23.43,2,1.73,1.67v1.23C201.76,401.15,199.91,400.47,200,398.43Zm-5.74-1.05a1.86,1.86,0,0,0,2,2c2.53-.19,3.89-1.79,3.7-4.57-2.65.12-5.67-.31-5.67,2.53" data-name="fo"/>
  <path class="cls-2" d="M209.6,390.22c-2.47,0-3,2-3,4.51s.56,4.63,3,4.63a2.47,2.47,0,0,0,2.66-2.35l2,.12a4.23,4.23,0,0,1-4.56,3.77c-3.65,0-4.7-2.53-5.07-6.11-.61-5.74,6.24-8.09,9.08-4a5,5,0,0,1,.43,1.36l-2,.18a2.35,2.35,0,0,0-2.53-2.16" data-name="fq"/>
  <path class="cls-2" d="M221,388.68c3.89,0,5.31,2.59,5.19,6.54h-8.34c0,2.47.87,4.14,3.28,4.2a2.87,2.87,0,0,0,3-1.79l1.73.49c-.68,1.73-2.29,2.78-4.75,2.78-3.58,0-5.44-2.28-5.37-6.17S217.32,388.68,221,388.68Zm3.21,5c.37-3.71-4.69-4.76-6-1.73a4.58,4.58,0,0,0-.37,1.73h6.36" data-name="fh"/>
 </g>
 <g id="eS">
  <path class="cls-2" d="M126.76,421.58c-.06,4-2.46,6-6.42,6-3.76,0-6.17-2-6.17-5.81V412h2c.49,5.49-2,13.83,4.13,13.83s4-8.21,4.39-13.83h2v9.57" data-name="fU"/>
  <path class="cls-2" d="M136.76,418.49c-.18-2.1-5.3-2.34-5.37,0,.93,3.27,7.1.74,7.35,5.56s-9.26,4.57-9.69.49l1.73-.31c.24,2.22,6,2.78,6.05,0-.62-3.45-7-.92-7.29-5.55-.24-3.52,5.06-3.89,7.53-2.6a3.12,3.12,0,0,1,1.48,2.17" data-name="fv"/>
  <path class="cls-2" d="m145.71 415.34c3.89 0 5.31 2.6 5.19 6.55h-8.33c0 2.47 0.86 4.13 3.27 4.19a2.86 2.86 0 0 0 3-1.79l1.73 0.5c-0.68 1.73-2.28 2.78-4.75 2.78-3.58 0-5.43-2.29-5.37-6.18s1.62-6.05 5.26-6.05zm3.21 5c0.38-3.7-4.69-4.75-6-1.72a4.34 4.34 0 0 0-0.37 1.72h6.35" data-name="fh"/>
  <path class="cls-2" d="M158.92,417.26c-4.81-1-3.27,5.61-3.51,10.06h-2l-.06-11.73h1.85a15.43,15.43,0,0,0,.12,2.41c.37-1.67,1.42-3,3.58-2.53v1.79" data-name="fl"/>
 </g>
 <g id="aI">
  <path class="cls-2" d="M178.06,427.32l-1.73-4.45h-7l-1.73,4.45h-2.16L171.7,412h2.35l6.11,15.31Zm-2.34-6.11-2.91-7.59c-.74,2.77-1.91,5.06-2.84,7.59h5.75" data-name="fA"/>
  <path class="cls-2" d="M191.15,415.59c-.62,7.72,2.53,18.09-6.79,16.11a3.52,3.52,0,0,1-2.72-2.65l2-.31c.92,2.9,6.17,2,5.49-1.73v-1.85a3.92,3.92,0,0,1-3.77,2.22c-3.33,0-4.19-2.53-4.19-5.93s1-6,4.38-6a3.94,3.94,0,0,1,3.64,2.16,17.79,17.79,0,0,1,.13-2ZM186,426c2.23,0,3.09-2,3.09-4.51s-.86-4.62-3.09-4.62c-2.4,0-2.84,2.09-2.84,4.62S183.55,426,186,426" data-name="fz"/>
  <path class="cls-2" d="M198.74,415.34c3.89,0,5.31,2.6,5.19,6.55h-8.34c0,2.47.87,4.13,3.27,4.19a2.86,2.86,0,0,0,3-1.79l1.73.5c-.68,1.73-2.29,2.78-4.76,2.78-3.58,0-5.43-2.29-5.37-6.18S195.1,415.34,198.74,415.34Zm3.21,5c.37-3.7-4.69-4.75-6-1.72a4.52,4.52,0,0,0-.37,1.72H202" data-name="fh"/>
  <path class="cls-2" d="M212.13,415.34c5.5-.24,3.28,7.16,3.71,12h-2v-7.47c0-1.91-.49-3-2.4-3-4.45.12-2.72,6.29-3,10.43h-2l-.07-11.73h1.86a9.58,9.58,0,0,0,.12,2,3.92,3.92,0,0,1,3.76-2.23" data-name="fs"/>
  <path class="cls-2" d="M220.9,424.42c-.12,1.48,1.11,1.79,2.35,1.36v1.48c-2,.61-4.32.31-4.32-2.41V417h-1.36v-1.42h1.48l.55-2.65h1.3v2.65h2.16V417H220.9v7.41" data-name="fi"/>
 </g>
 <path class="cls-1" d="m1378.3 158.21a6 6 0 0 1 6-6h148a6 6 0 0 1 6 6v108a6 6 0 0 1-6 6h-148a6 6 0 0 1-6-6z"/>
 <g id="bM">
  <path class="cls-2" d="M1436.72,202.68c7.28-.43,13.33.49,13.15,7.53-.19,4.81-2.66,7.78-7.47,7.78h-5.68Zm2,13.64c5.49.49,9-1,9-6.11s-3.7-6.24-9-5.87v12" data-name="fM"/>
  <path class="cls-2" d="M1462.58,218l-8.14-13,.06,13h-1.79V202.68h2.41l8.21,13.15-.13-13.15h1.92V218h-2.54" data-name="fg"/>
  <path class="cls-2" d="M1478.26,206.32c-.3-3-7.59-3.33-7.65.12.86,4.63,9.75.87,10.06,7.35.19,4.81-7.47,5.37-10.8,3.39a4.39,4.39,0,0,1-2-2.84l2-.43c.31,3.46,8.7,3.89,8.7-.06,0-4.81-9.57-.86-10-7.28-.31-5.07,9-5.19,11-2.1a5.67,5.67,0,0,1,.68,1.54" data-name="fI"/>
 </g>
 <path class="cls-3" d="m895 213.71h463.26"/>
 <path class="cls-4" d="m895 214.71h-1v-2h1"/>
 <path class="cls-5" d="m1373.5 213.71-14.27 4.64v-9.27z"/>
 <g data-name="cM">
  <path class="cls-2" d="M1079.43,219.68c5.93-.34,11,.25,10.91,6,0,3.95-2.17,6.22-6,6.22h-4.94ZM1082,230c3.65.35,5.78-.88,5.78-4.24s-2.23-4.35-5.78-4.05V230" data-name="gx"/>
  <path class="cls-2" d="M1099.68,231.93l-5.34-9.43c.3,2.86.1,6.32.15,9.43h-2.27V219.68h2.91l5.44,9.53c-.3-2.86-.1-6.37-.15-9.53h2.27v12.25h-3" data-name="fW"/>
  <path class="cls-2" d="M1112.17,222.94c-.05-2.12-4.64-2.27-4.79-.15.89,3.26,7.46.5,7.61,5.63.14,4.7-8.15,4.6-10.08,1.78a3.69,3.69,0,0,1-.59-1.48l2.47-.39c.15,2.27,5.53,2.76,5.73.24-.84-3.41-7.41-.49-7.61-5.63-.19-4.29,7.56-4.34,9.29-1.73a4.41,4.41,0,0,1,.49,1.39" data-name="fY"/>
 </g>
 <g data-name="cN">
  <path class="cls-2" d="M1121.8,219.68c4.59,0,10.17-.79,10.08,3.9-.05,3.71-3.41,4.35-7.51,4v4.3h-2.57Zm2.57,6c2.32,0,4.94.34,4.94-2s-2.67-1.92-4.94-1.92v3.95" data-name="gB"/>
  <path class="cls-2" d="M1139.14,224.52c-1.93-.59-3,.64-3,2.82v4.59h-2.47l0-9.38H1136a13.37,13.37,0,0,0,.15,2c.3-1.38,1.34-2.61,3-2v2" data-name="ga"/>
  <path class="cls-2" d="m1144.8 222.35c3.16 0 4.74 1.78 4.74 4.89s-1.72 4.89-4.79 4.89-4.69-1.78-4.69-4.89 1.68-4.89 4.74-4.89zm0 8.1c1.73 0 2.23-1.38 2.23-3.21 0-2-0.5-3.21-2.13-3.21s-2.22 1.28-2.22 3.21c0 1.78 0.5 3.21 2.12 3.21" data-name="ge"/>
  <path class="cls-2" d="M1155.88,231.78c-1.78.69-4.3.35-4.3-2.07v-5.53h-1.19v-1.63h1.34l.74-2.22H1154v2.22h1.78v1.63H1154v4.89c0,1.13.79,1.53,1.88,1.23v1.48" data-name="gm"/>
  <path class="cls-2" d="m1161.5 222.35c3.16 0 4.74 1.78 4.74 4.89s-1.73 4.89-4.79 4.89-4.7-1.78-4.7-4.89 1.68-4.89 4.75-4.89zm0 8.1c1.72 0 2.22-1.38 2.22-3.21 0-2-0.5-3.21-2.13-3.21s-2.22 1.28-2.22 3.21c0 1.78 0.5 3.21 2.13 3.21" data-name="ge"/>
  <path class="cls-2" d="M1176.27,228.82c-.34,2.07-1.88,3.31-4.25,3.31-2.91,0-4.14-1.88-4.44-4.84-.59-5.43,7.6-6.77,8.59-1.78l-2.42.1A1.66,1.66,0,0,0,1172,224c-1.48,0-1.72,1.38-1.87,3.16-.3,3.65,3.21,4.3,3.65,1.48" data-name="gv"/>
  <path class="cls-2" d="m1182.2 222.35c3.16 0 4.74 1.78 4.74 4.89s-1.73 4.89-4.79 4.89-4.69-1.78-4.69-4.89 1.68-4.89 4.74-4.89zm0 8.1c1.73 0 2.22-1.38 2.22-3.21 0-2-0.49-3.21-2.12-3.21s-2.23 1.28-2.23 3.21c0 1.78 0.5 3.21 2.13 3.21" data-name="ge"/>
  <path class="cls-2" d="M1188.81,231.93V219h2.47v12.89h-2.47" data-name="gf"/>
 </g>
 <path class="cls-3" d="m866.17 545.46v66.17a6 6 0 0 0 6 6h292.77a6 6 0 0 1 6 6v235.42"/>
 <path class="cls-4" d="m867.17 545.48h-2v-1h2"/>
 <path class="cls-3" d="m1160.2 841.52 10.7 18.07"/>
 <g id="db">
  <path class="cls-2" d="m1035.5 606.51v-12.24h2.52v12.24h-2.56" data-name="gj"/>
  <path class="cls-2" d="M1040.41,594.27c4.6.05,10.18-.79,10.08,3.9,0,3.7-3.41,4.34-7.51,4.05v4.29h-2.57Zm2.57,6c2.32,0,4.94.35,4.94-2s-2.67-1.93-4.94-1.93v4" data-name="gB"/>
  <path id="gr" class="cls-2" d="M1054.39,600.34c0,2.62,1,4.3,3.6,4.35a3.25,3.25,0,0,0,3.21-2.32l2.23.83a5.38,5.38,0,0,1-5.44,3.51c-4,0-5.92-2.27-6.17-6.37-.34-5.43,5.38-7.7,9.68-5.28a4.21,4.21,0,0,1,1.78,2.47l-2.27.59a3,3,0,0,0-3.07-2c-2.56,0-3.5,1.68-3.55,4.25"/>
 </g>
 <path class="cls-3" d="m250.44 395.08h456.08m-456.08 4h456.08"/>
 <path class="cls-4" d="m250.46 396.08h-1v-2h1m0 6h-1v-2h1"/>
 <path class="cls-8" d="m729 397.08-21.5 12.73v-25.46z"/>
 <g id="de">
  <path class="cls-2" d="M384,405v3.8h6.28v2H384v4.49h-2.56V403.05h9v2H384" data-name="fV"/>
  <path class="cls-2" d="m392.29 415.3v-12.89h2.47v12.89h-2.47" data-name="gf"/>
  <path class="cls-2" d="m401.43 405.72c3.16 0 4.74 1.78 4.74 4.89s-1.73 4.89-4.79 4.89-4.69-1.78-4.69-4.89 1.67-4.89 4.74-4.89zm-0.05 8.1c1.72 0 2.22-1.39 2.22-3.21 0-2-0.5-3.21-2.12-3.21s-2.23 1.28-2.23 3.21c0 1.78 0.5 3.21 2.13 3.21" data-name="ge"/>
  <path id="gh" class="cls-2" d="M418.22,415.3h-2.57l-1.93-7.66-2,7.66h-2.57l-2.42-9.38H409l1.58,7.16c.45-2.57,1.19-4.79,1.78-7.16H415l1.82,7.16,1.58-7.16h2.28"/>
 </g>
 <g id="df">
  <path class="cls-2" d="M434.22,415.3l-5.34-9.43c.3,2.86.1,6.32.15,9.43h-2.27V403.05h2.91l5.43,9.53c-.29-2.86-.09-6.37-.14-9.53h2.27V415.3h-3" data-name="fW"/>
  <path id="gp" class="cls-2" d="M444.93,413.62c-.79.94-1.48,1.93-3.16,1.88a2.6,2.6,0,0,1-2.86-2.87c-.05-3,2.71-3.11,5.73-3,.05-1.28-.15-2.32-1.39-2.32a1.28,1.28,0,0,0-1.38,1.33l-2.57-.1c.35-1.87,1.78-2.86,4.05-2.81s3.66,1.09,3.71,3.36l0,4.05c0,.69.6.89,1.24.74v1.33C446.86,415.6,444.83,415.45,444.93,413.62Zm-2.37.15c1.43,0,2.13-1.19,2.08-2.82-1.58,0-3.26-.14-3.21,1.48,0,.84.39,1.34,1.13,1.34"/>
  <path id="gt" class="cls-2" d="M459.1,407.55c-2.61.44-1.38,4.93-1.67,7.75H455V410c.05-1.34-.25-2.42-1.44-2.47-2.61.49-1.33,4.93-1.63,7.75h-2.46l-.05-9.38h2.32a12.06,12.06,0,0,0,.14,1.87c.5-2.61,5-2.76,5.34,0,.64-1.08,1.18-2.12,2.91-2.07,4.05,0,2.52,5.73,2.82,9.58h-2.42V410c-.05-1.24-.25-2.38-1.44-2.47"/>
  <path class="cls-2" d="M473.18,412.93a4,4,0,0,1-4.05,2.57c-3-.1-4.4-1.83-4.4-4.94s1.49-4.84,4.45-4.84,4.1,2.22,4.15,5.33h-6c0,1.53.4,2.72,1.93,2.77a1.52,1.52,0,0,0,1.68-1.09ZM471,409.52c.24-2.27-2.82-3.11-3.46-1a3.26,3.26,0,0,0-.2,1H471" data-name="fZ"/>
  <path id="gd" class="cls-2" d="M480.69,408.48c0-1.43-3.46-1.67-3.51-.19.74,2.27,5.83.34,5.88,4.24,0,4.1-8.1,3.76-8.5.45l2.13-.35c.19.94,1,1.24,2.17,1.24,1.63.39,2.81-1.48,1.18-2-2.12-.69-5-.54-5.13-3.26-.1-3.95,7.6-3.65,7.95-.34"/>
  <path id="gn" class="cls-2" d="M490.46,405.72c2.62,0,3.46,2.17,3.46,4.84s-.94,4.84-3.61,4.94a3.37,3.37,0,0,1-2.91-1.68c.15,1.63.1,3.4.1,5.18H485l0-13.08h2.37a13.44,13.44,0,0,0,.15,1.53A2.85,2.85,0,0,1,490.46,405.72Zm-1,8.1c1.63,0,1.92-1.53,2-3.26s-.44-3.16-2-3.16c-2.77,0-2.72,6.42,0,6.42"/>
  <path class="cls-2" d="M501.18,413.62c-.79.94-1.48,1.93-3.16,1.88a2.61,2.61,0,0,1-2.87-2.87c0-3,2.72-3.11,5.73-3,.05-1.28-.15-2.32-1.38-2.32a1.28,1.28,0,0,0-1.38,1.33l-2.57-.1c.34-1.87,1.78-2.86,4.05-2.81s3.65,1.09,3.7,3.36l.05,4.05c-.05.69.59.89,1.24.74v1.33C503.1,415.6,501.08,415.45,501.18,413.62Zm-2.37.15c1.43,0,2.12-1.19,2.07-2.82-1.58,0-3.26-.14-3.21,1.48,0,.84.4,1.34,1.14,1.34" data-name="gp"/>
  <path class="cls-2" d="M513.87,412.19c-.35,2.07-1.88,3.31-4.25,3.31-2.91,0-4.14-1.88-4.44-4.84-.59-5.44,7.6-6.77,8.59-1.78l-2.42.1a1.66,1.66,0,0,0-1.73-1.58c-1.48,0-1.73,1.38-1.87,3.16-.3,3.65,3.21,4.29,3.65,1.48" data-name="gv"/>
  <path class="cls-2" d="M523.5,412.93a4,4,0,0,1-4,2.57c-3-.1-4.39-1.83-4.39-4.94s1.48-4.84,4.44-4.84,4.1,2.22,4.15,5.33h-6c0,1.53.4,2.72,1.93,2.77a1.52,1.52,0,0,0,1.68-1.09Zm-2.22-3.41c.24-2.27-2.82-3.11-3.46-1a3.26,3.26,0,0,0-.2,1h3.66" data-name="fZ"/>
 </g>
 <g id="dg">
  <path class="cls-2" d="m539 415.3-1.09-3.11h-4.64l-1.09 3.11h-2.57l4.45-12.25h3l4.44 12.25zm-1.63-5-1.78-5.33c-0.49 1.88-1.19 3.55-1.78 5.33h3.56" data-name="fX"/>
  <path class="cls-2" d="M551.35,412.19c-.34,2.07-1.87,3.31-4.24,3.31-2.92,0-4.15-1.88-4.45-4.84-.59-5.44,7.61-6.77,8.59-1.78l-2.42.1a1.65,1.65,0,0,0-1.72-1.58c-1.49,0-1.73,1.38-1.88,3.16-.3,3.65,3.21,4.29,3.65,1.48" data-name="gv"/>
  <path class="cls-2" d="M561.23,412.19c-.35,2.07-1.88,3.31-4.25,3.31-2.91,0-4.15-1.88-4.44-4.84-.6-5.44,7.6-6.77,8.59-1.78l-2.42.1A1.66,1.66,0,0,0,557,407.4c-1.48,0-1.73,1.38-1.87,3.16-.3,3.65,3.21,4.29,3.65,1.48" data-name="gv"/>
  <path class="cls-2" d="M570.86,412.93a4,4,0,0,1-4.05,2.57c-3-.1-4.4-1.83-4.4-4.94s1.49-4.84,4.45-4.84,4.1,2.22,4.15,5.33h-6c0,1.53.4,2.72,1.93,2.77a1.52,1.52,0,0,0,1.68-1.09Zm-2.22-3.41c.24-2.27-2.82-3.11-3.46-1a3.26,3.26,0,0,0-.2,1h3.66" data-name="fZ"/>
  <path class="cls-2" d="M578.36,408.48c0-1.43-3.45-1.67-3.5-.19.74,2.27,5.83.34,5.87,4.24,0,4.1-8.09,3.76-8.49.45l2.12-.35c.2.94,1,1.24,2.18,1.24,1.63.39,2.81-1.48,1.18-2-2.12-.69-5-.54-5.13-3.26-.1-3.95,7.6-3.65,7.95-.34" data-name="gd"/>
  <path class="cls-2" d="M588.24,408.48c0-1.43-3.46-1.67-3.51-.19.75,2.27,5.83.34,5.88,4.24,0,4.1-8.1,3.76-8.49.45l2.12-.35c.2.94,1,1.24,2.17,1.24,1.63.39,2.82-1.48,1.19-2-2.12-.69-5-.54-5.14-3.26-.1-3.95,7.61-3.65,7.95-.34" data-name="gd"/>
  <path id="gl" class="cls-2" d="m592.59 404.24v-1.83h2.47v1.83zm0 11.06v-9.38h2.47v9.38h-2.47"/>
  <path class="cls-2" d="M603,405.72c4.29-.05,2.86,5.58,3.11,9.58H603.6c-.35-2.82,1.13-7.75-1.68-7.75s-1.68,4.79-1.93,7.75h-2.47l0-9.38h2.32a12.06,12.06,0,0,0,.14,1.87,3.1,3.1,0,0,1,3-2.07" data-name="gq"/>
  <path id="gk" class="cls-2" d="M616.73,415c.55,4.35-5.92,5.24-8.09,2.57a3.22,3.22,0,0,1-.4-1l2.42-.29a1.59,1.59,0,0,0,1.68,1.23c2,0,2.07-1.83,2-3.9a3.08,3.08,0,0,1-3,1.73c-2.61,0-3.45-2.12-3.45-4.79s.88-4.74,3.6-4.79a3.18,3.18,0,0,1,2.91,1.68l.1-1.48h2.32Zm-4.44-1.43c1.58,0,2-1.33,2-3.11s-.45-3.06-2-3.06-1.93,1.43-2,3.11.45,3.06,1.93,3.06"/>
 </g>
 <g data-name="cH">
  <path class="cls-2" d="M624,403.05c4.6.05,10.18-.79,10.08,3.9,0,3.71-3.41,4.35-7.51,4.05v4.3H624Zm2.57,6c2.32,0,4.94.34,4.94-2s-2.67-1.92-4.94-1.92V409" data-name="gB"/>
  <path class="cls-2" d="M641.38,407.89c-1.93-.59-3,.64-3,2.82v4.59h-2.47l-.05-9.38h2.33a12.17,12.17,0,0,0,.14,2c.3-1.38,1.34-2.62,3-2v2" data-name="ga"/>
  <path class="cls-2" d="m647.06 405.72c3.16 0 4.74 1.78 4.74 4.89s-1.73 4.89-4.79 4.89-4.7-1.78-4.7-4.89 1.69-4.89 4.75-4.89zm0 8.1c1.72 0 2.22-1.39 2.22-3.21 0-2-0.5-3.21-2.13-3.21s-2.22 1.28-2.22 3.21c0 1.78 0.5 3.21 2.13 3.21" data-name="ge"/>
  <path class="cls-2" d="M658.12,415.15c-1.78.69-4.3.35-4.3-2.07v-5.53h-1.18v-1.63H654l.74-2.23h1.53v2.23H658v1.63h-1.78v4.88c0,1.14.79,1.54,1.88,1.24v1.48" data-name="gm"/>
  <path class="cls-2" d="m663.75 405.72c3.16 0 4.74 1.78 4.74 4.89s-1.73 4.89-4.79 4.89-4.69-1.78-4.69-4.89 1.68-4.89 4.74-4.89zm0 8.1c1.73 0 2.22-1.39 2.22-3.21 0-2-0.49-3.21-2.12-3.21s-2.23 1.28-2.23 3.21c0 1.78 0.5 3.21 2.13 3.21" data-name="ge"/>
  <path class="cls-2" d="M678.51,412.19c-.34,2.07-1.87,3.31-4.24,3.31-2.92,0-4.15-1.88-4.45-4.84-.59-5.44,7.61-6.77,8.59-1.78L676,409a1.65,1.65,0,0,0-1.72-1.58c-1.49,0-1.73,1.38-1.88,3.16-.3,3.65,3.21,4.29,3.65,1.48" data-name="gv"/>
  <path class="cls-2" d="m684.44 405.72c3.16 0 4.74 1.78 4.74 4.89s-1.73 4.89-4.79 4.89-4.69-1.78-4.69-4.89 1.68-4.89 4.74-4.89zm-0.05 8.1c1.73 0 2.22-1.39 2.22-3.21 0-2-0.49-3.21-2.12-3.21s-2.22 1.28-2.22 3.21c0 1.78 0.49 3.21 2.12 3.21" data-name="ge"/>
  <path class="cls-2" d="m691.06 415.3v-12.89h2.46v12.89h-2.46" data-name="gf"/>
 </g>
 <path class="cls-3" d="M167.94,332.71v-113a6,6,0,0,1,6-6H712.5"/>
 <path class="cls-4" d="m168.94 333.71h-2v-1h2"/>
 <path class="cls-5" d="m727.76 213.71-14.26 4.64v-9.27z"/>
 <g data-name="cM">
  <path class="cls-2" d="M417.53,219.68c5.92-.34,11,.25,10.91,6-.05,3.95-2.17,6.22-6,6.22h-4.94ZM420.1,230c3.65.35,5.77-.88,5.77-4.24s-2.22-4.35-5.77-4.05V230" data-name="gx"/>
  <path class="cls-2" d="M437.77,231.93l-5.33-9.43c.3,2.86.1,6.32.15,9.43h-2.27V219.68h2.91l5.43,9.53c-.29-2.86-.1-6.37-.14-9.53h2.27v12.25h-3" data-name="fW"/>
  <path class="cls-2" d="M450.27,222.94c0-2.12-4.64-2.27-4.79-.15.89,3.26,7.46.5,7.6,5.63.15,4.7-8.14,4.6-10.07,1.78a3.55,3.55,0,0,1-.59-1.48l2.47-.39c.14,2.27,5.53,2.76,5.72.24-.84-3.41-7.4-.49-7.6-5.63-.2-4.29,7.55-4.34,9.28-1.73a4.19,4.19,0,0,1,.5,1.39" data-name="fY"/>
 </g>
 <g data-name="cN">
  <path class="cls-2" d="M459.9,219.68c4.59,0,10.17-.79,10.07,3.9-.05,3.71-3.41,4.35-7.5,4v4.3H459.9Zm2.57,6c2.32,0,4.93.34,4.93-2s-2.66-1.92-4.93-1.92v3.95" data-name="gB"/>
  <path class="cls-2" d="M477.23,224.52c-1.92-.59-3,.64-3,2.82v4.59H471.8l-.05-9.38h2.32a12.13,12.13,0,0,0,.15,2c.3-1.38,1.33-2.61,3-2v2" data-name="ga"/>
  <path class="cls-2" d="m482.91 222.35c3.16 0 4.74 1.78 4.74 4.89s-1.73 4.89-4.79 4.89-4.69-1.78-4.69-4.89 1.68-4.89 4.74-4.89zm-0.05 8.1c1.73 0 2.22-1.38 2.22-3.21 0-2-0.49-3.21-2.12-3.21s-2.22 1.28-2.22 3.21c0 1.78 0.49 3.21 2.12 3.21" data-name="ge"/>
  <path class="cls-2" d="M494,231.78c-1.78.69-4.29.35-4.29-2.07v-5.53h-1.19v-1.63h1.33l.74-2.22h1.54v2.22h1.77v1.63H492.1v4.89c-.05,1.13.79,1.53,1.87,1.23v1.48" data-name="gm"/>
  <path class="cls-2" d="m499.6 222.35c3.16 0 4.74 1.78 4.74 4.89s-1.73 4.89-4.79 4.89-4.69-1.78-4.69-4.89 1.68-4.89 4.74-4.89zm-0.05 8.1c1.73 0 2.22-1.38 2.22-3.21 0-2-0.49-3.21-2.12-3.21s-2.22 1.28-2.22 3.21c0 1.78 0.49 3.21 2.12 3.21" data-name="ge"/>
  <path class="cls-2" d="M514.37,228.82c-.35,2.07-1.88,3.31-4.25,3.31-2.91,0-4.15-1.88-4.44-4.84-.6-5.43,7.6-6.77,8.59-1.78l-2.42.1a1.66,1.66,0,0,0-1.73-1.58c-1.48,0-1.73,1.38-1.88,3.16-.29,3.65,3.21,4.3,3.66,1.48" data-name="gv"/>
  <path class="cls-2" d="m520.29 222.35c3.16 0 4.74 1.78 4.74 4.89s-1.72 4.89-4.79 4.89-4.69-1.78-4.69-4.89 1.68-4.89 4.74-4.89zm0 8.1c1.73 0 2.23-1.38 2.23-3.21 0-2-0.5-3.21-2.13-3.21s-2.22 1.28-2.22 3.21c0 1.78 0.49 3.21 2.12 3.21" data-name="ge"/>
  <path class="cls-2" d="M526.91,231.93V219h2.47v12.89h-2.47" data-name="gf"/>
 </g>
 <path class="cls-3" d="M167.94,457.71V747.63a6,6,0,0,0,6,6H712.5"/>
 <path class="cls-4" d="m168.94 457.74h-2v-1h2"/>
 <path class="cls-5" d="M727.76,753.63l-14.26,4.63V749Z"/>
 <path class="cls-6" d="m401.5 489a6 6 0 0 1 6-6h148a6 6 0 0 1 6 6v118.71a6 6 0 0 1-6 6h-148a6 6 0 0 1-6-6z"/>
 <g id="dh">
  <path class="cls-2" d="M426.16,526.11V510.8h2.1v15.31h-2.1" data-name="ft"/>
  <path id="fB" class="cls-2" d="m435.54 514.14a3.91 3.91 0 0 1 3.71 2l-0.06-6.17h2l0.06 16.11h-1.85a17 17 0 0 0-0.18-1.91 3.52 3.52 0 0 1-3.65 2.16c-3.27 0-4.26-2.41-4.32-6.05-0.03-4.05 1.39-6.14 4.29-6.14zm0.56 1.48c-2.47 0-2.84 2.1-2.84 4.63s0.37 4.56 2.78 4.56c2.59 0 3.15-2 3.15-4.69s-0.56-4.56-3.09-4.5"/>
  <path class="cls-2" d="m448.81 514.14c3.89 0 5.31 2.59 5.19 6.54h-8.33c0 2.47 0.86 4.13 3.27 4.2a2.87 2.87 0 0 0 3-1.79l1.73 0.49c-0.68 1.73-2.28 2.78-4.75 2.78-3.58 0-5.43-2.29-5.37-6.18s1.62-6.04 5.26-6.04zm3.21 5c0.38-3.71-4.69-4.76-6-1.73a4.39 4.39 0 0 0-0.37 1.73h6.35" data-name="fh"/>
  <path class="cls-2" d="M462.21,514.14c5.49-.25,3.27,7.16,3.7,12h-2v-7.47c0-1.91-.5-3-2.41-3-4.44.12-2.72,6.29-3,10.43h-2l-.06-11.73h1.85a10.33,10.33,0,0,0,.12,2,3.9,3.9,0,0,1,3.77-2.22" data-name="fs"/>
  <path class="cls-2" d="M471,523.21c-.13,1.48,1.11,1.79,2.34,1.36v1.48c-2,.62-4.32.31-4.32-2.41V515.8h-1.36v-1.42h1.48l.56-2.65H471v2.65h2.16v1.42H471v7.41" data-name="fi"/>
  <path class="cls-2" d="M475,511.85V510h2v1.85Zm0,14.26V514.38h2v11.73h-2" data-name="fp"/>
  <path class="cls-2" d="M482,523.21c-.12,1.48,1.12,1.79,2.35,1.36v1.48c-2,.62-4.32.31-4.32-2.41V515.8h-1.36v-1.42h1.48l.56-2.65H482v2.65h2.17v1.42H482v7.41" data-name="fi"/>
  <path class="cls-2" d="M495.61,514.38,490.3,528c-.87,1.73-2.29,3.15-5,2.6v-1.48c2.4.37,3.27-1.24,3.95-3.09l-4.63-11.67h2.1l3.51,9.63,3.34-9.63h2" data-name="fN"/>
 </g>
 <g id="di">
  <path class="cls-2" d="M510.54,523.89c-.92,1.29-1.91,2.53-4.19,2.47s-3.58-1.3-3.58-3.52c-.07-4,3.88-3.89,7.71-3.89.19-2.16-.55-3.33-2.53-3.33-1.48.06-2.53.43-2.59,1.91l-2-.18c.31-2.29,2-3.21,4.69-3.21s4.45,1.23,4.45,4v5.06c-.06,1.23.43,2,1.73,1.66v1.24C512.27,526.6,510.42,525.93,510.54,523.89Zm-5.74-1a1.87,1.87,0,0,0,2,2c2.53-.19,3.89-1.79,3.7-4.57-2.65.12-5.68-.31-5.68,2.53" data-name="fo"/>
  <path class="cls-2" d="M521.41,514.14c5.49-.25,3.27,7.16,3.7,12h-2v-7.47c0-1.91-.5-3-2.41-3-4.45.12-2.72,6.29-3,10.43h-2l-.06-11.73h1.85a10.33,10.33,0,0,0,.12,2,3.9,3.9,0,0,1,3.77-2.22" data-name="fs"/>
  <path class="cls-2" d="m531.78 514.14a3.91 3.91 0 0 1 3.7 2l-0.06-6.17h2l0.06 16.11h-1.85a16.9 16.9 0 0 0-0.19-1.91 3.52 3.52 0 0 1-3.64 2.16c-3.27 0-4.26-2.41-4.32-6.05-0.02-4.05 1.4-6.14 4.3-6.14zm0.55 1.48c-2.47 0-2.84 2.1-2.84 4.63s0.37 4.56 2.78 4.56c2.59 0 3.15-2 3.15-4.69s-0.56-4.56-3.09-4.5" data-name="fB"/>
 </g>
 <g id="dj">
  <path class="cls-2" d="m458.35 552.78-1.73-4.45h-7l-1.73 4.45h-2.16l6.27-15.31h2.35l6.11 15.31zm-2.35-6.11-2.91-7.6c-0.74 2.78-1.91 5.07-2.83 7.6h5.74" data-name="fA"/>
  <path class="cls-2" d="M466.44,542.35c-2.47,0-3,2-3,4.5s.55,4.63,3,4.63a2.45,2.45,0,0,0,2.65-2.34l2,.12A4.24,4.24,0,0,1,466.5,553c-3.64,0-4.69-2.53-5.06-6.11-.62-5.74,6.23-8.08,9.07-3.95a4.8,4.8,0,0,1,.43,1.36l-2,.19a2.36,2.36,0,0,0-2.53-2.16" data-name="fq"/>
  <path class="cls-2" d="M477.55,542.35c-2.47,0-3,2-3,4.5s.55,4.63,3,4.63a2.45,2.45,0,0,0,2.65-2.34l2,.12a4.23,4.23,0,0,1-4.57,3.76c-3.64,0-4.69-2.53-5.06-6.11-.62-5.74,6.23-8.08,9.07-3.95a5.16,5.16,0,0,1,.44,1.36l-2,.19a2.36,2.36,0,0,0-2.53-2.16" data-name="fq"/>
  <path class="cls-2" d="M488.91,540.8c3.89,0,5.31,2.59,5.18,6.55h-8.33c0,2.46.86,4.13,3.27,4.19a2.88,2.88,0,0,0,3-1.79l1.72.5C493.1,552,491.5,553,489,553c-3.58,0-5.43-2.28-5.37-6.17S485.27,540.8,488.91,540.8Zm3.21,5c.37-3.7-4.69-4.75-6-1.73a4.44,4.44,0,0,0-.37,1.73h6.36" data-name="fh"/>
  <path class="cls-2" d="M503.41,544c-.18-2.1-5.31-2.35-5.37,0,.93,3.27,7.1.74,7.35,5.56s-9.26,4.56-9.69.49l1.73-.31c.24,2.22,6,2.78,6.05,0-.62-3.46-7-.92-7.29-5.55-.25-3.52,5.06-3.89,7.53-2.6a3.1,3.1,0,0,1,1.48,2.16" data-name="fv"/>
  <path class="cls-2" d="M514.52,544c-.18-2.1-5.3-2.35-5.37,0,.93,3.27,7.1.74,7.35,5.56s-9.26,4.56-9.69.49l1.73-.31c.24,2.22,6,2.78,6.05,0-.62-3.46-7-.92-7.29-5.55-.24-3.52,5.06-3.89,7.53-2.6a3.1,3.1,0,0,1,1.48,2.16" data-name="fv"/>
 </g>
 <g id="dk">
  <path class="cls-2" d="M452.55,579.44l.12-13.45c-1.42,4.69-3.33,9-4.94,13.45h-1.42l-5-13.45.07,13.45h-1.79v-15.3h2.71l4.76,13c1.29-4.63,3.14-8.64,4.69-13h2.65v15.3h-1.85" data-name="fO"/>
  <path class="cls-2" d="M464.9,577.22c-.93,1.3-1.92,2.53-4.2,2.47s-3.58-1.3-3.58-3.52c-.06-3.95,3.89-3.89,7.71-3.89.19-2.16-.55-3.33-2.53-3.33-1.48.06-2.53.43-2.59,1.91l-2-.18c.31-2.29,2-3.21,4.69-3.21s4.45,1.23,4.45,3.95v5.06c-.06,1.24.43,2,1.73,1.67v1.23C466.62,579.94,464.77,579.26,464.9,577.22Zm-5.75-1.05a1.87,1.87,0,0,0,2,2c2.53-.19,3.89-1.79,3.7-4.57-2.65.13-5.68-.31-5.68,2.53" data-name="fo"/>
  <path class="cls-2" d="M475.76,567.47c5.49-.25,3.27,7.16,3.7,12h-2V572c0-1.91-.5-3-2.41-3-4.44.13-2.72,6.3-3,10.43h-2L470,567.72h1.85a10.22,10.22,0,0,0,.12,2,3.9,3.9,0,0,1,3.77-2.22" data-name="fs"/>
  <path class="cls-2" d="M489.59,577.22c-.93,1.3-1.92,2.53-4.2,2.47s-3.58-1.3-3.58-3.52c-.06-3.95,3.89-3.89,7.71-3.89.19-2.16-.55-3.33-2.53-3.33-1.48.06-2.53.43-2.59,1.91l-2-.18c.31-2.29,2-3.21,4.7-3.21s4.44,1.23,4.44,3.95v5.06c-.06,1.24.43,2,1.73,1.67v1.23C491.31,579.94,489.46,579.26,489.59,577.22Zm-5.74-1.05a1.86,1.86,0,0,0,2,2c2.53-.19,3.89-1.79,3.7-4.57-2.65.13-5.67-.31-5.67,2.53" data-name="fo"/>
  <path class="cls-2" d="M504.15,567.72c-.61,7.71,2.54,18.08-6.79,16.11a3.52,3.52,0,0,1-2.71-2.66l2-.31c.93,2.91,6.18,2,5.5-1.72v-1.86a3.91,3.91,0,0,1-3.77,2.23c-3.33,0-4.2-2.54-4.2-5.93s1-6,4.39-6.05a4,4,0,0,1,3.64,2.16c.06-.62,0-1.42.12-2ZM499,578.09c2.22,0,3.09-2,3.09-4.51S501.25,569,499,569c-2.41,0-2.84,2.1-2.84,4.63s.37,4.51,2.84,4.51" data-name="fz"/>
  <path class="cls-2" d="M511.75,567.47c3.89,0,5.31,2.59,5.18,6.54H508.6c0,2.47.86,4.14,3.27,4.2a2.88,2.88,0,0,0,3-1.79l1.72.49c-.68,1.73-2.28,2.78-4.75,2.78-3.58,0-5.43-2.28-5.37-6.17S508.1,567.47,511.75,567.47Zm3.21,5c.37-3.7-4.69-4.75-6-1.73a4.39,4.39,0,0,0-.37,1.73H515" data-name="fh"/>
  <path class="cls-2" d="M525,569.38c-4.82-1-3.27,5.62-3.52,10.06h-2l-.06-11.72h1.85a14.08,14.08,0,0,0,.13,2.4c.37-1.66,1.42-3,3.58-2.53v1.79" data-name="fl"/>
 </g>
 <path class="cls-3" d="M730,520.24H581.5"/>
 <path class="cls-4" d="m731 521.24h-1v-2h1"/>
 <path class="cls-5" d="m566.24 520.24 14.26-4.63v9.27z"/>
 <g id="dl">
  <path class="cls-2" d="M636.68,538.46l-1.09-3.11H631l-1.09,3.11H627.3l4.44-12.24h3l4.45,12.24Zm-1.63-5-1.78-5.34c-.49,1.88-1.18,3.56-1.78,5.34h3.56" data-name="fX"/>
  <path id="gs" class="cls-2" d="M643.84,538.66c-4.3.05-2.86-5.58-3.11-9.58h2.47c.34,2.81-1.14,7.41,1.63,7.75,3-.24,1.73-4.79,2-7.75h2.47l.05,9.38H647a10.9,10.9,0,0,0-.15-1.87,3.07,3.07,0,0,1-3,2.07"/>
  <path class="cls-2" d="M656.14,538.31c-1.78.7-4.3.35-4.3-2.07v-5.53h-1.19v-1.63H652l.74-2.22h1.53v2.22H656v1.63h-1.78v4.89c0,1.13.79,1.53,1.88,1.23v1.48" data-name="gm"/>
  <path id="gy" class="cls-2" d="m662 530.71c-2.91 0-1.68 4.79-1.92 7.75h-2.47v-12.89h2.39v5.39a3.07 3.07 0 0 1 3-2.08c4.25 0 2.86 5.58 3.11 9.58h-2.47c-0.34-2.81 1.14-7.75-1.68-7.75"/>
 </g>
 <path class="cls-3" d="M730,710H487.5a6,6,0,0,1-6-6V633.71"/>
 <path class="cls-4" d="m731 711h-1v-2h1"/>
 <path class="cls-5" d="m481.5 618.45 4.64 14.26h-9.28z"/>
 <g data-name="dl">
  <path class="cls-2" d="m644.47 698.84-1.09-3.11h-4.64l-1.08 3.11h-2.57l4.44-12.25h3l4.47 12.25zm-1.63-5-1.78-5.33c-0.49 1.88-1.18 3.55-1.77 5.33h3.55" data-name="fX"/>
  <path class="cls-2" d="M651.63,699c-4.3.05-2.86-5.58-3.11-9.58H651c.34,2.81-1.14,7.4,1.63,7.75,3-.25,1.73-4.79,2-7.75h2.47l.05,9.38h-2.32a11.11,11.11,0,0,0-.15-1.88,3.07,3.07,0,0,1-3,2.08" data-name="gs"/>
  <path class="cls-2" d="M663.93,698.69c-1.78.69-4.3.35-4.3-2.07v-5.53h-1.18v-1.63h1.33l.74-2.23h1.53v2.23h1.78v1.63h-1.78V696c0,1.13.79,1.53,1.88,1.23v1.48" data-name="gm"/>
  <path class="cls-2" d="M669.75,691.09c-2.91,0-1.67,4.79-1.92,7.75h-2.47V686h2.47l-.05,5.38a3.07,3.07,0,0,1,3-2.07c4.25,0,2.87,5.58,3.11,9.58h-2.47c-.34-2.82,1.14-7.75-1.68-7.75" data-name="gy"/>
 </g>
 <path class="cls-9" d="M407.13,7.5a6,6,0,0,1,6-6h788.12a6,6,0,0,1,6,6V112.17a6,6,0,0,1-6,6H413.13a6,6,0,0,1-6-6Z"/>
 <g id="eT">
  <path class="cls-2" d="M514.36,68.81l-16.3-26.05.13,26.05h-3.58V38.19h4.81l16.42,26.29-.25-26.29h3.83V68.81h-5.06" data-name="fg"/>
  <path class="cls-2" d="m535.22 44.85c7.78 0 10.62 5.19 10.37 13.09h-16.66c0 4.94 1.73 8.27 6.54 8.4 3.21 0.12 5.31-1.49 6-3.58l3.46 1c-1.36 3.46-4.57 5.56-9.51 5.56-7.16 0-10.86-4.57-10.74-12.35 0.17-7.55 3.26-12.12 10.54-12.12zm6.42 10c0.74-7.4-9.38-9.5-12-3.45a9 9 0 0 0-0.74 3.45h12.71" data-name="fh"/>
  <path class="cls-2" d="M554.85,63c-.24,3,2.23,3.58,4.69,2.72v3c-4.07,1.24-8.64.62-8.64-4.81V48.19h-2.71V45.35h3L552.26,40h2.59v5.31h4.32v2.84h-4.32V63" data-name="fi"/>
  <path class="cls-2" d="m585.35 68.81h-4.45l-4.9-20.25-5.1 20.25h-4.44l-6.67-23.46h4l4.82 20.25 5.31-20.25h4.19l5.07 20.25 5.18-20.25h3.83" data-name="fj"/>
  <path class="cls-2" d="m604.24 44.85c7.65-0.12 10.49 4.57 10.49 12.23s-3.33 12.22-10.62 12.22-10.24-4.82-10.37-12.22c0-8.15 3.46-12.23 10.5-12.23zm-0.13 21.49c5.43 0.12 6.55-3.83 6.55-9.26s-1-9.26-6.3-9.26-6.54 4-6.54 9.26 1.23 9.13 6.29 9.26" data-name="fk"/>
  <path class="cls-2" d="M630.66,48.68c-9.63-2-6.55,11.24-7,20.13h-4l-.13-23.46h3.71c.12,1.48-.12,3.58.25,4.81.74-3.33,2.84-6,7.16-5.06v3.58" data-name="fl"/>
  <path class="cls-2" d="M648.93,68.81,641,58.06l-2.84,2.35v8.4h-4V36.58h4V56.71l10.24-11.36H653l-9.5,10.12,10.12,13.34h-4.69" data-name="fm"/>
 </g>
 <g id="eU">
  <path class="cls-2" d="M669.55,38.19c10.74.12,23.58-1.85,23.58,9.26,0,9.63-9.51,9.87-19.51,9.38v12h-4.07Zm4.07,15.43c7,0,15.31,1.36,15.31-6.17,0-7.29-8.4-5.8-15.31-5.93v12.1" data-name="fn"/>
  <path class="cls-2" d="M712.88,64.36c-1.85,2.59-3.83,5.06-8.4,4.94s-7.16-2.59-7.16-7c-.12-7.9,7.78-7.78,15.43-7.78.38-4.32-1.11-6.66-5.06-6.66-3,.12-5.06.86-5.18,3.83l-4.08-.38c.62-4.56,4.08-6.42,9.39-6.42,5.55,0,8.89,2.47,8.89,7.91V62.88c-.13,2.47.86,3.95,3.45,3.33v2.47C716.34,69.79,712.63,68.44,712.88,64.36Zm-11.48-2.1a3.73,3.73,0,0,0,4,4.08c5.06-.37,7.78-3.58,7.4-9.14-5.3.25-11.35-.62-11.35,5.06" data-name="fo"/>
  <path class="cls-2" d="M734.24,48.68c-9.63-2-6.55,11.24-7,20.13h-4l-.12-23.46h3.7c.12,1.48-.12,3.58.25,4.81.74-3.33,2.84-6,7.16-5.06v3.58" data-name="fl"/>
  <path class="cls-2" d="M742.14,63c-.25,3,2.22,3.58,4.69,2.72v3c-4.08,1.24-8.64.62-8.64-4.81V48.19h-2.72V45.35h3L739.55,40h2.59v5.31h4.32v2.84h-4.32V63" data-name="fi"/>
  <path class="cls-2" d="M750.16,40.29V36.58h4v3.71Zm0,28.52V45.35h4V68.81h-4" data-name="fp"/>
  <path class="cls-2" d="M768.8,47.94c-4.93,0-5.92,4.08-5.92,9s1.11,9.26,5.92,9.26c3,0,5.07-1.73,5.31-4.69l3.95.25c-.74,4.57-3.82,7.53-9.13,7.53-7.29,0-9.38-5.06-10.13-12.22C757.57,45.6,771.27,40.9,777,49.18a9.77,9.77,0,0,1,.87,2.71l-4,.37c-.5-2.59-2-4.32-5.07-4.32" data-name="fq"/>
  <path class="cls-2" d="M782.14,40.29V36.58h4v3.71Zm0,28.52V45.35h4V68.81h-4" data-name="fp"/>
  <path class="cls-2" d="m803.13 44.85c6.79 0.13 8.64 5.07 8.64 12.1s-2 12.1-8.64 12.35c-3.83 0-6-1.61-7.41-4.2l0.12 13h-4l-0.12-32.71h3.82l0.25 3.7c1.29-2.63 3.51-4.24 7.34-4.24zm-1 21.49c4.94 0 5.55-4.2 5.55-9.26s-0.74-9-5.55-9.14c-5.19 0-6.3 4-6.3 9.38s1.24 9 6.3 9" data-name="fr"/>
  <path class="cls-2" d="M831,64.36c-1.86,2.59-3.83,5.06-8.4,4.94s-7.16-2.59-7.16-7c-.12-7.9,7.78-7.78,15.43-7.78.37-4.32-1.11-6.66-5.06-6.66-3,.12-5.06.86-5.18,3.83l-4.08-.38c.62-4.56,4.08-6.42,9.38-6.42,5.56,0,8.89,2.47,8.89,7.91V62.88c-.12,2.47.87,3.95,3.46,3.33v2.47C834.48,69.79,830.78,68.44,831,64.36Zm-11.48-2.1a3.73,3.73,0,0,0,4,4.08c5.06-.37,7.77-3.58,7.4-9.14-5.31.25-11.35-.62-11.35,5.06" data-name="fo"/>
  <path class="cls-2" d="M852.75,44.85c11-.49,6.55,14.33,7.41,24h-3.95V53.87c0-3.83-1-6-4.81-5.93-8.89.25-5.44,12.59-6,20.87h-4l-.13-23.46H845c.12,1.23-.13,3,.24,3.95,1.36-2.72,3.58-4.32,7.53-4.45" data-name="fs"/>
  <path class="cls-2" d="M870.29,63c-.25,3,2.22,3.58,4.69,2.72v3c-4.08,1.24-8.64.62-8.64-4.81V48.19h-2.72V45.35h3L867.69,40h2.6v5.31h4.32v2.84h-4.32V63" data-name="fi"/>
 </g>
 <g id="eV">
  <path class="cls-2" d="m913 68.81-3.46-8.89h-13.95l-3.45 8.89h-4.32l12.47-30.62h4.71l12.2 30.62zm-4.69-12.23-5.8-15.18c-1.51 5.6-3.83 10.12-5.68 15.18h11.48" data-name="fA"/>
  <path class="cls-2" d="M931.4,48.68c-9.63-2-6.55,11.24-7,20.13h-4l-.12-23.46H924c.12,1.48-.12,3.58.25,4.81.74-3.33,2.84-6,7.16-5.06v3.58" data-name="fl"/>
  <path class="cls-2" d="M943.87,47.94c-4.94,0-5.93,4.08-5.93,9s1.11,9.26,5.93,9.26c3,0,5.06-1.73,5.3-4.69l4,.25c-.75,4.57-3.83,7.53-9.14,7.53-7.28,0-9.38-5.06-10.12-12.22C932.63,45.6,946.33,40.9,952,49.18a9.77,9.77,0,0,1,.87,2.71l-4,.37c-.5-2.59-2-4.32-5.06-4.32" data-name="fq"/>
  <path class="cls-2" d="M967.32,47.94c-8.89,0-5.43,12.59-6.05,20.87h-3.95V36.58h3.95l-.12,12.72a7.82,7.82,0,0,1,7.53-4.45c11,0,6.54,14.33,7.41,24h-4V53.87c.24-3.95-1-6-4.82-5.93" data-name="fP"/>
  <path class="cls-2" d="M981.89,40.29V36.58h4v3.71Zm0,28.52V45.35h4V68.81h-4" data-name="fp"/>
  <path class="cls-2" d="M996,63c-.24,3,2.23,3.58,4.7,2.72v3c-4.08,1.24-8.65.62-8.65-4.81V48.19H989.3V45.35h3L993.37,40H996v5.31h4.33v2.84H996V63" data-name="fi"/>
  <path class="cls-2" d="m1013.4 44.85c7.78 0 10.62 5.19 10.37 13.09h-16.66c0 4.94 1.72 8.27 6.54 8.4 3.21 0.12 5.31-1.49 6-3.58l3.46 1c-1.36 3.46-4.57 5.56-9.51 5.56-7.16 0-10.87-4.57-10.74-12.35 0.17-7.55 3.26-12.12 10.54-12.12zm6.42 10c0.74-7.4-9.38-9.5-12-3.45a9 9 0 0 0-0.74 3.45h12.71" data-name="fh"/>
  <path class="cls-2" d="M1037.57,47.94c-4.94,0-5.93,4.08-5.93,9s1.11,9.26,5.93,9.26c3,0,5.06-1.73,5.31-4.69l3.95.25c-.74,4.57-3.83,7.53-9.14,7.53-7.28,0-9.38-5.06-10.12-12.22-1.24-11.48,12.47-16.18,18.15-7.9a10.1,10.1,0,0,1,.86,2.71l-3.95.37c-.49-2.59-2-4.32-5.06-4.32" data-name="fq"/>
  <path class="cls-2" d="M1055.22,63c-.24,3,2.23,3.58,4.7,2.72v3c-4.08,1.24-8.65.62-8.65-4.81V48.19h-2.71V45.35h3l1.11-5.31h2.59v5.31h4.32v2.84h-4.32V63" data-name="fi"/>
  <path class="cls-2" d="M1070.66,69.3c-11,.49-6.67-14.32-7.53-23.95h3.95V60.16c0,3.83.86,6.18,4.81,6,8.89-.24,5.56-12.47,6.17-20.86h3.83l.12,23.46h-3.7c-.12-1.24.12-3.09-.25-4.08-1.35,2.72-3.45,4.45-7.4,4.57" data-name="fw"/>
  <path class="cls-2" d="M1099.05,48.68c-9.63-2-6.54,11.24-7,20.13h-4l-.12-23.46h3.7c.13,1.48-.12,3.58.25,4.81.74-3.33,2.84-6,7.16-5.06v3.58" data-name="fl"/>
  <path class="cls-2" d="m1112 44.85c7.78 0 10.62 5.19 10.37 13.09h-16.66c0 4.94 1.73 8.27 6.54 8.4 3.21 0.12 5.31-1.49 6-3.58l3.46 1c-1.36 3.46-4.57 5.56-9.51 5.56-7.16 0-10.86-4.57-10.74-12.35 0.18-7.55 3.27-12.12 10.54-12.12zm6.42 10c0.74-7.4-9.38-9.5-12-3.45a9 9 0 0 0-0.74 3.45h12.71" data-name="fh"/>
 </g>
</svg>
