<?xml version="1.0" encoding="UTF-8"?>
<svg data-name="Layer 1" version="1.1" viewBox="0 0 695 194.2" xmlns="http://www.w3.org/2000/svg">
 <title>Figure4</title>
 <defs>
  <style>.cls-1,.cls-4{fill:#fff;stroke-width:3px;}.cls-1{stroke:#5e5f5f;}.cls-2{fill:#333;}.cls-3{fill:#5e5f5f;}.cls-4{stroke:#010101;stroke-opacity:0;}</style>
 </defs>
 <path class="cls-1" d="m533.5 78.7a6 6 0 0 1 6-6h148a6 6 0 0 1 6 6v108a6 6 0 0 1-6 6h-148a6 6 0 0 1-6-6z"/>
 <g id="bt">
  <path id="gw" class="cls-2" d="M595.23,100.9v5.68h8.52v1.73h-8.52v6.17h-2V99.18H604v1.72h-8.76"/>
  <path id="gf" class="cls-2" d="M616.59,114.48l-8.15-13,.06,13h-1.79V99.18h2.41l8.21,13.14-.13-13.14h1.92v15.3h-2.53"/>
  <path id="gH" class="cls-2" d="M632.27,102.82c-.31-3-7.6-3.34-7.66.12.87,4.63,9.75.87,10.06,7.35.19,4.81-7.47,5.37-10.8,3.39a4.39,4.39,0,0,1-2-2.84l2-.43c.31,3.46,8.7,3.89,8.7-.06,0-4.82-9.56-.87-10-7.28-.3-5.07,8.95-5.19,11-2.1a5.54,5.54,0,0,1,.68,1.54"/>
 </g>
 <g id="bu">
  <path class="cls-2" d="m571.8 126.73v4.54h6.81v1.39h-6.81v4.94h-1.63v-12.25h8.64v1.38h-7" data-name="gw"/>
  <path id="gx" class="cls-2" d="m580.69 137.6v-12.89h1.58v12.89h-1.58"/>
  <path id="gj" class="cls-2" d="m588.34 128c3.06-0.05 4.2 1.82 4.2 4.88s-1.34 4.89-4.25 4.89-4.1-1.92-4.15-4.89c0-3.23 1.38-4.88 4.2-4.88zm-0.05 8.59c2.17 0 2.62-1.53 2.62-3.71s-0.4-3.7-2.52-3.7-2.62 1.58-2.62 3.7 0.5 3.66 2.52 3.71"/>
  <path id="gi" class="cls-2" d="m603.45 137.6h-1.78l-2-8.1-2 8.1h-1.78l-2.66-9.39h1.58l1.92 8.1 2.13-8.1h1.68l2 8.1 2.08-8.1h1.53"/>
 </g>
 <g id="bv">
  <path class="cls-2" d="m620.39 137.6-6.52-10.42v10.42h-1.43v-12.25h1.92l6.64 10.52-0.1-10.52h1.53v12.25h-2" data-name="gf"/>
  <path id="gn" class="cls-2" d="M630.76,135.82a3.65,3.65,0,0,1-3.36,2,2.62,2.62,0,0,1-2.86-2.81c0-3.16,3.11-3.11,6.17-3.11.15-1.73-.44-2.67-2-2.67-1.19.05-2,.35-2.08,1.53l-1.63-.15c.25-1.82,1.63-2.56,3.75-2.56s3.56,1,3.56,3.16v4c0,1,.35,1.58,1.38,1.33v1C632.14,138,630.66,137.45,630.76,135.82Zm-4.59-.84a1.49,1.49,0,0,0,1.58,1.63c2-.15,3.11-1.43,3-3.66-2.12.1-4.54-.24-4.54,2"/>
  <path id="gC" class="cls-2" d="M644,129.25c-3.31.15-1.87,5.19-2.17,8.35h-1.53v-6c0-1.43-.25-2.47-1.73-2.37-3.26.2-1.88,5.14-2.17,8.35h-1.53l0-9.39h1.48a7.83,7.83,0,0,0,.1,1.58c.49-2.17,4.89-2.47,5.28,0a3.05,3.05,0,0,1,2.87-1.77c4.19-.1,2.32,5.87,2.71,9.58h-1.53v-6c0-1.43-.25-2.42-1.73-2.37"/>
  <path id="gg" class="cls-2" d="M653.38,128c3.11,0,4.24,2.07,4.14,5.23h-6.66c0,2,.69,3.31,2.62,3.36a2.3,2.3,0,0,0,2.42-1.43l1.38.39a3.72,3.72,0,0,1-3.8,2.22c-2.87,0-4.35-1.82-4.3-4.93S650.46,128,653.38,128Zm2.56,4a2.53,2.53,0,0,0-4.79-1.39,3.78,3.78,0,0,0-.29,1.39h5.08"/>
 </g>
 <g id="bw">
  <path class="cls-2" d="M593.06,149.6c-.25-2.37-6.08-2.67-6.13.09.69,3.71,7.8.7,8.05,5.88.15,3.85-6,4.3-8.64,2.72a3.57,3.57,0,0,1-1.63-2.27l1.63-.35c.25,2.77,7,3.11,7,0,0-3.85-7.65-.69-8-5.83-.24-4,7.16-4.14,8.84-1.68a4.67,4.67,0,0,1,.55,1.24" data-name="gH"/>
  <path class="cls-2" d="m600.71 149.35c3.11 0 4.25 2.07 4.15 5.23h-6.67c0 2 0.69 3.31 2.62 3.36a2.3 2.3 0 0 0 2.42-1.43l1.38 0.39c-0.54 1.39-1.83 2.23-3.8 2.23-2.87 0-4.35-1.83-4.3-4.94s1.29-4.84 4.2-4.84zm2.57 4a2.53 2.53 0 0 0-4.79-1.38 3.53 3.53 0 0 0-0.3 1.38h5.09" data-name="gg"/>
  <path id="gk" class="cls-2" d="M611.28,150.88c-3.85-.79-2.62,4.49-2.82,8.05h-1.58l0-9.38h1.48a13,13,0,0,0,.1,1.92c.3-1.33,1.14-2.42,2.87-2v1.43"/>
  <path id="gE" class="cls-2" d="M616.86,158.93H615l-3.41-9.38h1.68l2.67,8.14,2.77-8.14h1.67"/>
  <path id="go" class="cls-2" d="M621.6,147.52V146h1.58v1.48Zm0,11.41v-9.38h1.58v9.38H621.6"/>
  <path id="gp" class="cls-2" d="M629.06,150.58c-2,0-2.37,1.63-2.37,3.61s.44,3.7,2.37,3.7a2,2,0,0,0,2.12-1.87l1.58.09a3.39,3.39,0,0,1-3.65,3c-2.92,0-3.76-2-4.05-4.89-.5-4.59,5-6.47,7.25-3.16a3.91,3.91,0,0,1,.35,1.08l-1.58.15a1.89,1.89,0,0,0-2-1.73"/>
  <path class="cls-2" d="m638.14 149.35c3.11 0 4.25 2.07 4.15 5.23h-6.67c0 2 0.69 3.31 2.62 3.36a2.3 2.3 0 0 0 2.42-1.43l1.38 0.39c-0.54 1.39-1.82 2.23-3.8 2.23-2.86 0-4.34-1.83-4.3-4.94s1.29-4.84 4.2-4.84zm2.57 4a2.53 2.53 0 0 0-4.79-1.38 3.53 3.53 0 0 0-0.3 1.38h5.09" data-name="gg"/>
 </g>
 <path class="cls-1" d="M1.5,78.7a6,6,0,0,1,6-6h148a6,6,0,0,1,6,6v108a6,6,0,0,1-6,6H7.5a6,6,0,0,1-6-6Z"/>
 <g id="bx">
  <path class="cls-2" d="m55.82 88.9v5.68h8.52v1.73h-8.52v6.17h-2v-15.3h10.77v1.72h-8.77" data-name="gw"/>
  <path class="cls-2" d="M77.18,102.48,69,89.46l.06,13H67.3V87.18h2.41l8.21,13.14L77.8,87.18h1.91v15.3H77.18" data-name="gf"/>
  <path id="gz" class="cls-2" d="M94.09,102.48,92.36,98h-7l-1.73,4.44H81.5l6.23-15.3h2.35l6.11,15.3Zm-2.34-6.11-2.9-7.59c-.75,2.78-1.92,5.06-2.84,7.59h5.74"/>
  <path class="cls-2" d="M108.91,102.48,107.18,98h-7l-1.72,4.44H96.31l6.24-15.3h2.35l6.11,15.3Zm-2.35-6.11-2.9-7.59c-.74,2.78-1.91,5.06-2.84,7.59h5.74" data-name="gz"/>
 </g>
 <g id="by">
  <path class="cls-2" d="m65.92 114.73v4.54h6.81v1.39h-6.81v4.94h-1.63v-12.25h8.64v1.38h-7" data-name="gw"/>
  <path class="cls-2" d="m74.81 125.6v-12.89h1.58v12.89h-1.58" data-name="gx"/>
  <path class="cls-2" d="m82.46 116c3.06 0 4.2 1.82 4.2 4.88s-1.33 4.89-4.25 4.89-4.1-1.92-4.14-4.89c0-3.23 1.38-4.88 4.19-4.88zm0 8.59c2.18 0 2.62-1.53 2.62-3.71s-0.39-3.7-2.52-3.7-2.61 1.58-2.61 3.7 0.49 3.66 2.51 3.71" data-name="gj"/>
  <path class="cls-2" d="M97.57,125.6H95.8l-2-8.1-2,8.1H90l-2.67-9.39h1.58l1.93,8.1,2.12-8.1h1.68l2,8.1,2.07-8.1h1.53" data-name="gi"/>
 </g>
 <g id="bj">
  <path class="cls-2" d="M43.52,146.93,37,136.51l.05,10.42H35.62V134.68h1.93l6.57,10.52L44,134.68h1.53v12.25h-2" data-name="gf"/>
  <path class="cls-2" d="M53.9,145.15a3.68,3.68,0,0,1-3.36,2,2.64,2.64,0,0,1-2.87-2.82c-.05-3.16,3.11-3.11,6.18-3.11.14-1.73-.45-2.67-2-2.67-1.18.05-2,.35-2.07,1.54l-1.63-.15c.24-1.83,1.63-2.57,3.75-2.57s3.56,1,3.56,3.16v4.05c0,1,.34,1.58,1.38,1.33v1C55.28,147.32,53.8,146.78,53.9,145.15Zm-4.6-.84a1.49,1.49,0,0,0,1.58,1.63c2-.15,3.11-1.43,3-3.65-2.13.1-4.55-.25-4.55,2" data-name="gn"/>
  <path class="cls-2" d="M67.18,138.58c-3.31.15-1.88,5.19-2.17,8.35H63.48v-6c0-1.43-.25-2.47-1.73-2.37-3.26.2-1.88,5.14-2.18,8.35H58l0-9.38h1.49a8,8,0,0,0,.09,1.58c.5-2.18,4.89-2.47,5.29,0a3,3,0,0,1,2.86-1.78c4.2-.1,2.32,5.88,2.72,9.58H68.91v-6c0-1.43-.25-2.42-1.73-2.37" data-name="gC"/>
  <path class="cls-2" d="M76.51,137.35c3.11,0,4.25,2.07,4.15,5.23H74c0,2,.7,3.31,2.62,3.36A2.29,2.29,0,0,0,79,144.51l1.38.39c-.54,1.39-1.82,2.23-3.8,2.23-2.86,0-4.34-1.83-4.3-4.94S73.6,137.35,76.51,137.35Zm2.57,4A2.53,2.53,0,0,0,74.29,140a3.53,3.53,0,0,0-.3,1.38h5.09" data-name="gg"/>
  <path id="gu" class="cls-2" d="M88.12,139.87c-.15-1.68-4.25-1.88-4.3,0,.74,2.61,5.68.59,5.88,4.44s-7.41,3.66-7.76.4l1.39-.25c.19,1.78,4.79,2.22,4.84,0-.5-2.77-5.58-.74-5.83-4.44-.2-2.82,4-3.12,6-2.08a2.48,2.48,0,0,1,1.19,1.73"/>
  <path id="gq" class="cls-2" d="M96,137.35c2.71.05,3.46,2,3.46,4.84S98.69,147,96,147.13a3,3,0,0,1-3-1.68l0,5.18H91.52l0-13.08H93l.1,1.48A2.9,2.9,0,0,1,96,137.35Zm-.4,8.59c2,0,2.23-1.68,2.23-3.7s-.3-3.61-2.23-3.66-2.51,1.58-2.51,3.76.49,3.6,2.51,3.6"/>
  <path class="cls-2" d="M107.18,145.15a3.66,3.66,0,0,1-3.36,2,2.63,2.63,0,0,1-2.86-2.82c0-3.16,3.11-3.11,6.17-3.11.15-1.73-.44-2.67-2-2.67-1.19.05-2,.35-2.08,1.54l-1.63-.15c.25-1.83,1.63-2.57,3.75-2.57s3.56,1,3.56,3.16v4.05c0,1,.35,1.58,1.38,1.33v1C108.56,147.32,107.08,146.78,107.18,145.15Zm-4.59-.84a1.49,1.49,0,0,0,1.58,1.63c2-.15,3.11-1.43,3-3.65-2.12.1-4.54-.25-4.54,2" data-name="gn"/>
  <path class="cls-2" d="M114.83,138.58c-2,0-2.37,1.63-2.37,3.61s.45,3.7,2.37,3.7A2,2,0,0,0,117,144l1.58.09a3.39,3.39,0,0,1-3.66,3c-2.91,0-3.75-2-4-4.89-.49-4.59,5-6.47,7.26-3.16a3.91,3.91,0,0,1,.35,1.08l-1.58.15a1.89,1.89,0,0,0-2-1.73" data-name="gp"/>
  <path class="cls-2" d="m123.92 137.35c3.11 0 4.25 2.07 4.15 5.23h-6.67c0 2 0.69 3.31 2.62 3.36a2.3 2.3 0 0 0 2.42-1.43l1.38 0.39c-0.54 1.39-1.83 2.23-3.8 2.23-2.87 0-4.35-1.83-4.3-4.94s1.28-4.84 4.2-4.84zm2.57 4a2.53 2.53 0 0 0-4.79-1.35 3.53 3.53 0 0 0-0.3 1.38h5.09" data-name="gg"/>
 </g>
 <g id="bz">
  <path class="cls-2" d="M25.48,168.26l-1.39-3.55H18.51l-1.38,3.55H15.4l5-12.24h1.88l4.88,12.24Zm-1.88-4.89-2.32-6.07c-.59,2.22-1.53,4-2.27,6.07H23.6" data-name="gz"/>
  <path class="cls-2" d="M31.94,159.92c-2,0-2.37,1.63-2.37,3.6s.45,3.71,2.37,3.71a2,2,0,0,0,2.13-1.88l1.58.1a3.39,3.39,0,0,1-3.66,3c-2.91,0-3.75-2-4-4.89-.49-4.59,5-6.47,7.26-3.16a4,4,0,0,1,.35,1.09l-1.58.15a1.89,1.89,0,0,0-2-1.73" data-name="gp"/>
  <path class="cls-2" d="M40.83,159.92c-2,0-2.37,1.63-2.37,3.6s.45,3.71,2.37,3.71A2,2,0,0,0,43,165.35l1.58.1a3.39,3.39,0,0,1-3.66,3c-2.91,0-3.75-2-4.05-4.89-.49-4.59,5-6.47,7.26-3.16a4,4,0,0,1,.35,1.09l-1.58.15a1.89,1.89,0,0,0-2-1.73" data-name="gp"/>
  <path class="cls-2" d="M49.92,158.68c3.11,0,4.25,2.08,4.15,5.24H47.4c0,2,.69,3.31,2.62,3.35a2.3,2.3,0,0,0,2.42-1.43l1.38.4c-.54,1.38-1.83,2.22-3.8,2.22-2.87,0-4.35-1.83-4.3-4.94S47,158.68,49.92,158.68Zm2.57,4a2.53,2.53,0,0,0-4.79-1.38,3.57,3.57,0,0,0-.3,1.38h5.09" data-name="gg"/>
  <path class="cls-2" d="M61.52,161.2c-.14-1.68-4.24-1.88-4.29,0,.74,2.62,5.68.59,5.88,4.45s-7.41,3.65-7.76.39l1.38-.25c.2,1.78,4.79,2.23,4.84,0-.49-2.76-5.58-.74-5.82-4.44-.2-2.82,4-3.11,6-2.08A2.51,2.51,0,0,1,63,161" data-name="gu"/>
  <path class="cls-2" d="M70.41,161.2c-.14-1.68-4.24-1.88-4.29,0,.74,2.62,5.68.59,5.87,4.45s-7.4,3.65-7.75.39l1.38-.25c.2,1.78,4.79,2.23,4.84,0-.49-2.76-5.58-.74-5.82-4.44-.2-2.82,4-3.11,6-2.08A2.51,2.51,0,0,1,71.85,161" data-name="gu"/>
  <path class="cls-2" d="m73.82 156.86v-1.49h1.58v1.49zm0 11.4v-9.38h1.58v9.38h-1.58" data-name="go"/>
  <path id="gr" class="cls-2" d="M82.32,158.68c4.39-.2,2.61,5.73,3,9.58H83.7v-6c0-1.53-.4-2.42-1.93-2.37-3.55.1-2.17,5-2.42,8.34H77.77l0-9.38H79.2a7.88,7.88,0,0,0,.1,1.58,3.13,3.13,0,0,1,3-1.78"/>
  <path id="gy" class="cls-2" d="M95.15,158.88c-.49,6.17,2,14.47-5.43,12.89a2.83,2.83,0,0,1-2.17-2.12l1.58-.25c.74,2.32,4.94,1.58,4.39-1.38v-1.49a3.11,3.11,0,0,1-3,1.78c-2.66,0-3.36-2-3.36-4.74s.79-4.79,3.51-4.84a3.16,3.16,0,0,1,2.91,1.73,15.75,15.75,0,0,1,.1-1.58Zm-4.09,8.3c1.77,0,2.46-1.58,2.46-3.61s-.69-3.7-2.46-3.7c-1.93,0-2.28,1.68-2.28,3.7s.3,3.61,2.28,3.61"/>
 </g>
 <g id="g">
  <path class="cls-2" d="m111.35 168.26-1.35-3.55h-5.58l-1.42 3.55h-1.73l5-12.24h1.87l4.86 12.24zm-1.87-4.89-2.33-6.07c-0.59 2.22-1.53 4-2.27 6.07h4.6" data-name="gz"/>
  <path class="cls-2" d="M121.82,158.88c-.49,6.17,2,14.47-5.43,12.89a2.81,2.81,0,0,1-2.17-2.12l1.58-.25c.74,2.32,4.93,1.58,4.39-1.38v-1.49a3.11,3.11,0,0,1-3,1.78c-2.67,0-3.36-2-3.36-4.74s.79-4.79,3.51-4.84a3.16,3.16,0,0,1,2.91,1.73,15.75,15.75,0,0,1,.1-1.58Zm-4.1,8.3c1.78,0,2.47-1.58,2.47-3.61s-.69-3.7-2.47-3.7-2.27,1.68-2.27,3.7.3,3.61,2.27,3.61" data-name="gy"/>
  <path class="cls-2" d="m127.9 158.68c3.11 0 4.24 2.08 4.14 5.24h-6.66c0 2 0.69 3.31 2.61 3.35a2.29 2.29 0 0 0 2.42-1.43l1.39 0.4a3.72 3.72 0 0 1-3.81 2.22c-2.86 0-4.34-1.83-4.29-4.94s1.3-4.84 4.2-4.84zm2.56 4a2.53 2.53 0 0 0-4.79-1.38 3.58 3.58 0 0 0-0.29 1.38h5.08" data-name="gg"/>
  <path class="cls-2" d="M138.61,158.68c4.4-.2,2.62,5.73,3,9.58H140v-6c0-1.53-.39-2.42-1.92-2.37-3.56.1-2.17,5-2.42,8.34h-1.58l0-9.38h1.48a7.88,7.88,0,0,0,.1,1.58,3.11,3.11,0,0,1,3-1.78" data-name="gr"/>
  <path class="cls-2" d="M145.62,165.94c-.1,1.19.89,1.43,1.88,1.09v1.18c-1.63.5-3.46.25-3.46-1.92V160H143v-1.14h1.18l.45-2.12h1v2.12h1.73V160h-1.73v5.92" data-name="gh"/>
 </g>
 <path class="cls-3" d="M275.55,89.4H164v-2H275.55m238,2H419.45v-2H513.5"/>
 <path class="cls-3" d="M164,89.4h-1v-2h1m364.73,1L514.5,93V83.77Z"/>
 <path class="cls-3" d="m532 88.4-18.5 6v-12m2 9.27 10-3.26-10-3.25"/>
 <g id="aE">
  <path id="hb" class="cls-2" d="m287.41 83.37a3.36 3.36 0 0 1-2.67 3.46l3.31 5.17h-2.92l-2.81-4.64h-3v4.64h-2.57v-12.28c4.58 0.19 10.71-1.14 10.66 3.65zm-8.1 2c2.37-0.1 5.53 0.59 5.53-1.88s-3.26-1.58-5.53-1.73v3.61"/>
  <path class="cls-2" d="M297.48,89.59a4,4,0,0,1-4.05,2.57c-3-.1-4.39-1.83-4.39-4.94s1.48-4.84,4.44-4.84,4.1,2.22,4.15,5.34h-6c0,1.53.4,2.71,1.93,2.76a1.51,1.51,0,0,0,1.68-1.09Zm-2.22-3.41c.24-2.27-2.82-3.11-3.46-1a3.14,3.14,0,0,0-.2,1h3.66" data-name="gY"/>
  <path id="hc" class="cls-2" d="M305,85.15c.05-1.43-3.46-1.68-3.51-.2.74,2.27,5.83.35,5.88,4.25.05,4.1-8.1,3.75-8.5.44L301,89.3c.19.93,1,1.23,2.17,1.23,1.63.4,2.81-1.48,1.18-2-2.12-.7-5-.55-5.13-3.26-.1-4,7.6-3.66,8-.35"/>
  <path id="hd" class="cls-2" d="m313.53 82.38c3.16 0 4.74 1.78 4.74 4.89s-1.73 4.89-4.79 4.89-4.69-1.78-4.69-4.89 1.68-4.89 4.74-4.89zm0 8.1c1.73 0 2.22-1.38 2.22-3.21s-0.49-3.21-2.12-3.21-2.22 1.29-2.22 3.21 0.49 3.21 2.12 3.21"/>
  <path id="he" class="cls-2" d="M320.15,92V79.07h2.47V92h-2.47"/>
  <path id="ha" class="cls-2" d="m330.17 92h-2.91l-3.36-9.38h2.62l2.22 7.38 2.37-7.41h2.57"/>
  <path class="cls-2" d="M342.86,89.59a4,4,0,0,1-4.05,2.57c-3-.1-4.39-1.83-4.39-4.94s1.48-4.84,4.44-4.84S343,84.6,343,87.72h-6c0,1.53.39,2.71,1.92,2.76a1.51,1.51,0,0,0,1.68-1.09Zm-2.22-3.41c.25-2.27-2.81-3.11-3.46-1a3.44,3.44,0,0,0-.19,1h3.65" data-name="gY"/>
 </g>
 <g id="aF">
  <path id="hf" class="cls-2" d="M354.52,80.8c-1.34-.34-2.13.25-1.88,1.78h1.88v1.63h-1.88V92h-2.42V84.21h-1.38V82.58h1.38c-.44-2.91,1.58-4,4.3-3.36V80.8"/>
  <path class="cls-2" d="M355.65,92V79.07h2.47V92h-2.47" data-name="he"/>
  <path class="cls-2" d="m364.79 82.38c3.16 0 4.74 1.78 4.74 4.89s-1.73 4.89-4.79 4.89-4.69-1.78-4.69-4.89 1.68-4.89 4.74-4.89zm-0.05 8.1c1.73 0 2.22-1.38 2.22-3.21s-0.49-3.21-2.12-3.21-2.22 1.29-2.22 3.21 0.49 3.21 2.12 3.21" data-name="hd"/>
  <path id="hg" class="cls-2" d="M381.58,92H379l-1.92-7.65-2,7.65h-2.57l-2.42-9.38h2.27L374,89.74c.45-2.57,1.19-4.79,1.78-7.16h2.62l1.83,7.16,1.58-7.16h2.27"/>
 </g>
 <g id="aG">
  <path id="hh" class="cls-2" d="m400.69 87.27c0 3.41-2.17 4.89-5.48 4.89-3.16 0-5.19-1.43-5.19-4.79v-7.65h2.52v7.45a2.58 2.58 0 0 0 2.72 3c4.44 0 2.42-6.42 2.86-10.42h2.57v7.55"/>
  <path class="cls-2" d="m413.58 83.37a3.36 3.36 0 0 1-2.67 3.46l3.31 5.17h-2.91l-2.82-4.64h-3v4.64h-2.57v-12.28c4.58 0.19 10.71-1.14 10.66 3.65zm-8.1 2c2.37-0.1 5.53 0.59 5.53-1.88s-3.26-1.58-5.53-1.73v3.61" data-name="hb"/>
  <path id="hi" class="cls-2" d="M415.7,92V79.72h2.57V92H415.7"/>
 </g>
 <path class="cls-3" d="M291.82,110.12H164v-2H291.82m221.68,2H403.18v-2H513.5"/>
 <path class="cls-3" d="m164 110.12h-1v-2h1m364.73 1-14.26 4.64v-9.26z"/>
 <path class="cls-3" d="m532 109.12-18.5 6v-12m2 9.26 10-3.26-10-3.26"/>
 <g id="aH">
  <path class="cls-2" d="m303.67 104.09a3.35 3.35 0 0 1-2.66 3.45l3.3 5.14h-2.91l-2.81-4.68h-3v4.64h-2.59v-12.21c4.6 0.2 10.72-1.13 10.67 3.66zm-8.1 2c2.37-0.1 5.53 0.59 5.53-1.88s-3.25-1.58-5.53-1.72v3.6" data-name="hb"/>
  <path class="cls-2" d="M313.75,110.31a4,4,0,0,1-4.05,2.57c-3-.1-4.4-1.83-4.4-4.94s1.48-4.84,4.45-4.84,4.1,2.22,4.14,5.33h-6c0,1.53.4,2.72,1.93,2.77a1.53,1.53,0,0,0,1.68-1.09Zm-2.23-3.41c.25-2.27-2.81-3.11-3.45-1a3.26,3.26,0,0,0-.2,1h3.65" data-name="gY"/>
  <path id="hj" class="cls-2" d="M324.12,112.38c.54,4.35-5.93,5.24-8.1,2.57a3.22,3.22,0,0,1-.4-1l2.42-.29a1.59,1.59,0,0,0,1.68,1.23c2,0,2.08-1.83,2-3.9a3.07,3.07,0,0,1-3,1.73c-2.61,0-3.45-2.13-3.45-4.79s.89-4.74,3.6-4.79a3.21,3.21,0,0,1,2.92,1.68l.1-1.48h2.32ZM319.67,111c1.58,0,2-1.33,2-3.11s-.45-3.06-2-3.06-1.92,1.43-2,3.11.44,3.06,1.92,3.06"/>
  <path id="hk" class="cls-2" d="M326.54,101.62V99.79H329v1.83Zm0,11.06V103.3H329v9.38h-2.47"/>
  <path class="cls-2" d="M337,105.86c.05-1.43-3.46-1.68-3.51-.19.74,2.27,5.83.34,5.88,4.24.05,4.1-8.1,3.76-8.5.45L333,110c.19.94,1,1.24,2.17,1.24,1.63.39,2.81-1.49,1.18-2-2.12-.69-5-.54-5.13-3.26-.1-3.95,7.6-3.65,7.95-.34" data-name="hc"/>
  <path id="hl" class="cls-2" d="M345.8,112.53c-1.78.69-4.3.35-4.3-2.07v-5.54h-1.19V103.3h1.34l.74-2.23h1.53v2.23h1.78v1.62h-1.78v4.89c-.05,1.14.79,1.53,1.88,1.24v1.48"/>
  <path class="cls-2" d="M355.13,110.31a4,4,0,0,1-4.05,2.57c-3-.1-4.4-1.83-4.4-4.94s1.49-4.84,4.45-4.84,4.1,2.22,4.15,5.33h-6c0,1.53.4,2.72,1.93,2.77a1.52,1.52,0,0,0,1.68-1.09Zm-2.22-3.41c.24-2.27-2.82-3.11-3.46-1a3.26,3.26,0,0,0-.2,1h3.66" data-name="gY"/>
  <path class="cls-2" d="M362.54,105.27c-1.93-.59-3,.64-3,2.82v4.59H357.1l0-9.38h2.32a13.42,13.42,0,0,0,.14,2c.3-1.38,1.34-2.62,3-2v2" data-name="gZ"/>
 </g>
 <g id="aI">
  <path class="cls-2" d="M373.7,101.52c-1.34-.35-2.13.24-1.88,1.78h1.88v1.62h-1.88v7.76H369.4v-7.76H368V103.3h1.38c-.44-2.92,1.58-4,4.3-3.36v1.58" data-name="hf"/>
  <path class="cls-2" d="M374.83,112.68V99.79h2.47v12.89h-2.47" data-name="he"/>
  <path class="cls-2" d="M384,103.1c3.16,0,4.74,1.78,4.74,4.89s-1.73,4.89-4.79,4.89-4.69-1.78-4.69-4.89S380.91,103.1,384,103.1Zm-.05,8.1c1.73,0,2.22-1.39,2.22-3.21,0-2-.49-3.21-2.12-3.21s-2.22,1.28-2.22,3.21c0,1.77.49,3.21,2.12,3.21" data-name="hd"/>
  <path class="cls-2" d="m400.76 112.68h-2.57l-1.92-7.68-2 7.66h-2.57l-2.42-9.38h2.27l1.58 7.16c0.45-2.57 1.19-4.79 1.78-7.16h2.62l1.83 7.16 1.64-7.14h2.27" data-name="hg"/>
 </g>
 <path class="cls-3" d="M297.28,133.7H164v-2H297.28m216.22,2H397.72v-2H513.5"/>
 <path class="cls-3" d="m164 133.7h-1v-2h1m364.73 1-14.26 4.64v-9.27z"/>
 <path class="cls-3" d="m532 132.7-18.5 6v-12m2 9.27 10-3.26-10-3.25"/>
 <g id="aJ">
  <path class="cls-2" d="M309,131.57c0,3.41-2.17,4.89-5.48,4.89s-5.19-1.43-5.19-4.79V124h2.52v7.45a2.58,2.58,0,0,0,2.72,3c4.44,0,2.42-6.42,2.86-10.42H309v7.55" data-name="hh"/>
  <path id="hm" class="cls-2" d="M316.73,126.68c2.62,0,3.46,2.18,3.46,4.84s-.94,4.84-3.6,4.94a3.39,3.39,0,0,1-2.92-1.68c.15,1.63.1,3.41.1,5.19H311.3l-.05-13.09h2.37a13.22,13.22,0,0,0,.15,1.53A2.86,2.86,0,0,1,316.73,126.68Zm-1,8.1c1.63,0,1.92-1.53,2-3.26s-.44-3.16-2-3.16c-2.77,0-2.72,6.42,0,6.42"/>
  <path id="hn" class="cls-2" d="m325.23 126.68a3 3 0 0 1 2.86 1.68v-5h2.47l0.05 12.89h-2.37a13.44 13.44 0 0 0-0.15-1.53 2.94 2.94 0 0 1-3 1.73c-2.57 0-3.36-2.22-3.41-4.89s0.88-4.78 3.55-4.88zm0.84 8.1c1.63 0 2-1.48 2-3.26s-0.44-3.16-2-3.16-1.88 1.48-1.93 3.21c0 2.12 0.64 3.21 1.93 3.21"/>
  <path id="ho" class="cls-2" d="M338.27,134.58c-.79.94-1.49,1.93-3.17,1.88a2.6,2.6,0,0,1-2.86-2.86c-.05-3,2.72-3.12,5.73-3,0-1.28-.15-2.32-1.38-2.32a1.29,1.29,0,0,0-1.39,1.34l-2.56-.1c.34-1.88,1.77-2.87,4.05-2.82s3.65,1.09,3.7,3.36l.05,4.05c-.05.69.59.89,1.23.74v1.33C340.19,136.56,338.17,136.41,338.27,134.58Zm-2.37.15c1.43,0,2.12-1.18,2.07-2.81-1.58,0-3.26-.15-3.21,1.48,0,.84.39,1.33,1.14,1.33"/>
  <path class="cls-2" d="M347.25,136.11c-1.77.7-4.29.35-4.29-2.07v-5.53h-1.19v-1.63h1.33l.75-2.22h1.53v2.22h1.77v1.63h-1.77v4.89c-.05,1.13.79,1.53,1.87,1.23v1.48" data-name="hl"/>
  <path class="cls-2" d="M356.59,133.89a4,4,0,0,1-4,2.57c-3-.1-4.4-1.83-4.4-4.94s1.48-4.84,4.45-4.84,4.1,2.22,4.14,5.34h-6c0,1.53.39,2.71,1.93,2.76a1.5,1.5,0,0,0,1.67-1.09Zm-2.23-3.41c.25-2.27-2.81-3.11-3.45-1a3.14,3.14,0,0,0-.2,1h3.65" data-name="gY"/>
 </g>
 <g data-name="aI">
  <path class="cls-2" d="M368.24,125.1c-1.33-.34-2.12.25-1.88,1.78h1.88v1.63h-1.88v7.75h-2.42v-7.75h-1.38v-1.63h1.38c-.44-2.91,1.58-4,4.3-3.36v1.58" data-name="hf"/>
  <path class="cls-2" d="m369.38 136.26v-12.89h2.47v12.89h-2.47" data-name="he"/>
  <path class="cls-2" d="m378.51 126.68c3.16 0 4.74 1.78 4.74 4.89s-1.73 4.89-4.79 4.89-4.69-1.78-4.69-4.89 1.68-4.89 4.74-4.89zm-0.05 8.1c1.73 0 2.23-1.38 2.23-3.21s-0.5-3.21-2.13-3.21-2.22 1.29-2.22 3.21 0.49 3.21 2.12 3.21" data-name="hd"/>
  <path class="cls-2" d="m395.3 136.26h-2.57l-1.92-7.65-2 7.65h-2.56l-2.42-9.38h2.27l1.6 7.12c0.44-2.57 1.18-4.79 1.78-7.16h2.61l1.83 7.16 1.58-7.16h2.27" data-name="hg"/>
 </g>
 <path class="cls-3" d="M283,155.78H164v-2H283m230.54,2H412v-2H513.5"/>
 <path class="cls-3" d="m164 155.78h-1v-2h1m364.73 1-14.26 4.64v-9.28z"/>
 <path class="cls-3" d="m532 154.78-18.5 6v-12m2 9.26 10-3.26-10-3.26"/>
 <g id="aK">
  <path class="cls-2" d="M294.71,153.64c0,3.41-2.17,4.89-5.48,4.89S284,157.1,284,153.74v-7.65h2.52v7.46a2.57,2.57,0,0,0,2.72,3c4.44.05,2.42-6.42,2.86-10.42h2.57v7.55" data-name="hh"/>
  <path id="hp" class="cls-2" d="M302.41,148.76c4.3,0,2.87,5.58,3.11,9.58h-2.46c-.35-2.82,1.13-7.76-1.68-7.76s-1.68,4.79-1.93,7.76H297l-.05-9.39h2.32a10.94,10.94,0,0,0,.15,1.88,3.06,3.06,0,0,1,3-2.07"/>
  <path class="cls-2" d="M313.23,150.93c-1.93-.59-3,.64-3,2.81v4.6H307.8l-.05-9.39h2.32a12.35,12.35,0,0,0,.15,2c.29-1.38,1.33-2.62,3-2v2" data-name="gZ"/>
  <path class="cls-2" d="M322.61,156a4,4,0,0,1-4.05,2.56c-3-.1-4.39-1.82-4.39-4.94s1.48-4.83,4.44-4.83,4.1,2.22,4.15,5.33h-6c0,1.53.4,2.71,1.93,2.76a1.52,1.52,0,0,0,1.68-1.08Zm-2.22-3.41c.25-2.27-2.82-3.11-3.46-1a3.21,3.21,0,0,0-.2,1h3.66" data-name="gY"/>
  <path class="cls-2" d="M333,158c.54,4.34-5.92,5.23-8.1,2.57a3.46,3.46,0,0,1-.39-1l2.42-.3a1.6,1.6,0,0,0,1.68,1.24c2,0,2.07-1.83,2-3.9a3.07,3.07,0,0,1-3,1.73c-2.62,0-3.46-2.13-3.46-4.79s.89-4.75,3.61-4.79a3.19,3.19,0,0,1,2.91,1.67l.1-1.48H333Zm-4.44-1.43c1.58,0,2-1.34,2-3.11s-.44-3.07-2-3.07-1.93,1.44-2,3.12.45,3.06,1.93,3.06" data-name="hj"/>
  <path class="cls-2" d="M335.4,147.27v-1.82h2.47v1.82Zm0,11.07V149h2.47v9.39H335.4" data-name="hk"/>
  <path class="cls-2" d="M345.87,151.52c.05-1.43-3.46-1.68-3.51-.2.75,2.27,5.83.35,5.88,4.25.05,4.1-8.1,3.75-8.49.44l2.12-.34c.2.94,1,1.23,2.17,1.23,1.63.4,2.82-1.48,1.19-2-2.12-.69-5-.54-5.14-3.26-.1-4,7.61-3.65,8-.35" data-name="hc"/>
  <path class="cls-2" d="M354.66,158.19c-1.78.69-4.3.34-4.3-2.08v-5.53h-1.18V149h1.33l.74-2.22h1.53V149h1.78v1.63h-1.78v4.89c0,1.14.79,1.53,1.88,1.24v1.48" data-name="hl"/>
  <path class="cls-2" d="M364,156a4,4,0,0,1-4.05,2.56c-3-.1-4.39-1.82-4.39-4.94s1.48-4.83,4.44-4.83,4.1,2.22,4.15,5.33h-6c0,1.53.39,2.71,1.92,2.76a1.52,1.52,0,0,0,1.68-1.08Zm-2.22-3.41c.25-2.27-2.81-3.11-3.45-1a3.21,3.21,0,0,0-.2,1h3.65" data-name="gY"/>
  <path class="cls-2" d="M371.4,150.93c-1.92-.59-3,.64-3,2.81v4.6H366l-.05-9.39h2.32a12.35,12.35,0,0,0,.15,2c.3-1.38,1.33-2.62,3-2v2" data-name="gZ"/>
 </g>
 <g data-name="aI">
  <path class="cls-2" d="M382.56,147.18c-1.33-.35-2.12.24-1.87,1.77h1.87v1.63h-1.87v7.76h-2.42v-7.76h-1.39V149h1.39c-.45-2.91,1.58-4,4.29-3.36v1.59" data-name="hf"/>
  <path class="cls-2" d="m383.7 158.34v-12.89h2.47v12.89h-2.47" data-name="he"/>
  <path class="cls-2" d="m392.83 148.76c3.16 0 4.74 1.77 4.74 4.88s-1.72 4.89-4.79 4.89-4.69-1.77-4.69-4.89 1.68-4.88 4.74-4.88zm-0.05 8.09c1.73 0 2.23-1.38 2.23-3.21s-0.5-3.21-2.13-3.21-2.22 1.29-2.22 3.21 0.49 3.21 2.12 3.21" data-name="hd"/>
  <path class="cls-2" d="m409.62 158.34h-2.56l-1.93-7.66-2 7.66h-2.56l-2.4-9.34h2.27l1.58 7.16c0.44-2.56 1.18-4.79 1.78-7.16h2.61l1.83 7.16 1.58-7.16h2.27" data-name="hg"/>
 </g>
 <path class="cls-4" d="M147.5,7.5a6,6,0,0,1,6-6h408a6,6,0,0,1,6,6V52a6,6,0,0,1-6,6h-408a6,6,0,0,1-6-6Z"/>
 <g id="bE">
  <path class="cls-2" d="M222.47,19.29v6.65h11V29.4h-11v7.86H218V15.83h15.81v3.46H222.47" data-name="gU"/>
  <path class="cls-2" d="M237,37.26V14.71h4.32V37.26H237" data-name="he"/>
  <path class="cls-2" d="M253,20.5c5.53,0,8.29,3.11,8.29,8.55s-3,8.56-8.38,8.56-8.21-3.11-8.21-8.56S247.62,20.5,253,20.5Zm-.09,14.17c3,0,3.89-2.42,3.89-5.62,0-3.45-.87-5.61-3.72-5.61s-3.89,2.24-3.89,5.61c0,3.12.87,5.62,3.72,5.62" data-name="hd"/>
  <path class="cls-2" d="M282.36,37.26h-4.5l-3.37-13.39L271,37.26h-4.5l-4.23-16.42h4l2.77,12.54c.78-4.5,2.07-8.39,3.11-12.54h4.58l3.2,12.54,2.76-12.54h4" data-name="hg"/>
 </g>
 <g id="bK">
  <path id="gV" class="cls-2" d="M310.36,37.26,301,20.76c.52,5,.18,11.06.26,16.5h-4V15.83h5.1l9.5,16.68c-.52-5-.17-11.15-.26-16.68h4V37.26h-5.27"/>
  <path class="cls-2" d="M329.11,34.33c-1.38,1.64-2.59,3.37-5.53,3.28-3.2-.09-5-1.73-5-5-.09-5.19,4.75-5.45,10-5.27.09-2.25-.26-4.07-2.42-4.07a2.26,2.26,0,0,0-2.42,2.34l-4.49-.18c.6-3.28,3.11-5,7.09-4.92s6.39,1.9,6.48,5.88l.08,7.08c-.08,1.21,1,1.56,2.16,1.3v2.33C332.48,37.78,328.94,37.52,329.11,34.33Zm-4.15.25c2.51,0,3.72-2.07,3.63-4.92-2.76,0-5.7-.26-5.61,2.59,0,1.47.69,2.33,2,2.33" data-name="ho"/>
  <path id="hs" class="cls-2" d="M353.91,23.7c-4.58.77-2.42,8.64-2.93,13.56h-4.24V28c.09-2.34-.43-4.24-2.51-4.32-4.58.86-2.33,8.64-2.85,13.56h-4.32L337,20.84H341c.17,1-.09,2.42.26,3.29.86-4.58,8.72-4.84,9.33,0,1.12-1.9,2.07-3.72,5.1-3.63,7.08.08,4.41,10,4.92,16.76h-4.23V28c-.09-2.16-.43-4.15-2.51-4.32"/>
  <path class="cls-2" d="M378.54,33.12a6.92,6.92,0,0,1-7.08,4.49c-5.19-.17-7.69-3.2-7.69-8.64s2.59-8.47,7.77-8.47c5.36,0,7.18,3.89,7.26,9.33H368.26c0,2.68.69,4.75,3.37,4.84,1.55,0,2.59-.6,2.94-1.9Zm-3.89-6c.44-4-4.92-5.44-6-1.81a5.72,5.72,0,0,0-.34,1.81h6.39" data-name="gY"/>
 </g>
 <g id="bL">
  <path class="cls-2" d="M403.09,21.54c-.09-3.72-8.13-4-8.39-.26,1.56,5.7,13.05.86,13.31,9.85.26,8.21-14.26,8-17.63,3.11a6.22,6.22,0,0,1-1-2.59l4.32-.69c.26,4,9.68,4.83,10,.43-1.47-6-13-.87-13.31-9.85-.34-7.52,13.22-7.61,16.25-3a7.34,7.34,0,0,1,.86,2.42" data-name="gX"/>
  <path class="cls-2" d="M425.21,33.12a6.94,6.94,0,0,1-7.09,4.49c-5.18-.17-7.69-3.2-7.69-8.64s2.59-8.47,7.78-8.47c5.36,0,7.17,3.89,7.26,9.33H414.93c0,2.68.69,4.75,3.37,4.84,1.55,0,2.59-.6,2.93-1.9Zm-3.89-6c.43-4-4.92-5.44-6.05-1.81a5.72,5.72,0,0,0-.34,1.81h6.39" data-name="gY"/>
  <path class="cls-2" d="M438.17,24.3c-3.37-1-5.18,1.12-5.18,4.93v8h-4.32l-.09-16.42h4.06c.17,1.13-.08,2.51.26,3.46.52-2.42,2.33-4.58,5.27-3.54V24.3" data-name="gZ"/>
  <path class="cls-2" d="m449.67 37.26h-5.1l-5.88-16.42h4.58l3.89 13 4.15-13h4.49" data-name="ha"/>
  <path class="cls-2" d="M458.05,17.91v-3.2h4.32v3.2Zm0,19.35V20.84h4.32V37.26h-4.32" data-name="hk"/>
  <path id="hu" class="cls-2" d="M481,31.82c-.6,3.63-3.28,5.79-7.43,5.79-5.1,0-7.26-3.28-7.78-8.47-1-9.51,13.31-11.84,15-3.11l-4.24.17a2.89,2.89,0,0,0-3-2.76c-2.59,0-3,2.42-3.29,5.53-.51,6.39,5.62,7.52,6.4,2.59"/>
  <path class="cls-2" d="M497.8,33.12a6.93,6.93,0,0,1-7.08,4.49c-5.19-.17-7.7-3.2-7.7-8.64s2.6-8.47,7.78-8.47c5.36,0,7.18,3.89,7.26,9.33H487.52c0,2.68.69,4.75,3.37,4.84,1.55,0,2.59-.6,2.94-1.9Zm-3.89-6c.44-4-4.92-5.44-6.05-1.81a5.72,5.72,0,0,0-.34,1.81h6.39" data-name="gY"/>
 </g>
</svg>
