<?xml version="1.0" encoding="UTF-8"?>
<svg data-name="Layer 1" version="1.1" viewBox="0 0 1603 1023" xmlns="http://www.w3.org/2000/svg">
 <title>Figure2</title>
 <defs>
  <style>.cls-1,.cls-7,.cls-8{fill:#fff;}.cls-1,.cls-3,.cls-5,.cls-6,.cls-7{stroke:#5e5f5f;}.cls-1,.cls-6,.cls-8{stroke-width:3px;}.cls-2{fill:#333;}.cls-3,.cls-6{fill:none;}.cls-3,.cls-5,.cls-7{stroke-width:2px;}.cls-4,.cls-5{fill:#5e5f5f;}.cls-8{fill-opacity:0;stroke:#010101;stroke-opacity:0;}</style>
 </defs>
 <path class="cls-1" d="M332.38,87.5a6,6,0,0,1,6-6H1315.5a6,6,0,0,1,6,6v928a6,6,0,0,1-6,6H338.38a6,6,0,0,1-6-6Z"/>
 <g id="a">
  <path id="ge" class="cls-2" d="M743,1005l-8.15-13,.06,13h-1.79V989.69h2.41l8.21,13.15-.12-13.15h1.91V1005H743"/>
  <path id="gf" class="cls-2" d="M753.43,993c3.89,0,5.31,2.59,5.19,6.54h-8.34c0,2.47.87,4.13,3.27,4.2a2.88,2.88,0,0,0,3-1.79l1.73.49c-.68,1.73-2.29,2.78-4.76,2.78-3.58,0-5.43-2.29-5.37-6.18S749.79,993,753.43,993Zm3.21,5c.37-3.71-4.69-4.76-6-1.73a4.58,4.58,0,0,0-.37,1.73h6.36"/>
  <path id="gg" class="cls-2" d="M763.25,1002.1c-.13,1.48,1.11,1.79,2.34,1.36v1.48c-2,.62-4.32.31-4.32-2.41v-7.84h-1.36v-1.42h1.48l.56-2.65h1.3v2.65h2.16v1.42h-2.16v7.41"/>
  <path id="gh" class="cls-2" d="m778.49 1005h-2.22l-2.47-10.12-2.53 10.12h-2.22l-3.34-11.73h2l2.41 10.13 2.65-10.13h2.1l2.53 10.13 2.6-10.13h1.92"/>
  <path id="gi" class="cls-2" d="m787.94 993c3.82-0.07 5.24 2.28 5.24 6.11s-1.66 6.11-5.3 6.11-5.13-2.41-5.19-6.11c0-4.05 1.73-6.11 5.25-6.11zm-0.06 10.74c2.71 0.06 3.27-1.92 3.27-4.63s-0.5-4.63-3.15-4.63-3.27 2-3.27 4.63 0.61 4.56 3.15 4.63"/>
  <path id="gj" class="cls-2" d="M801.15,994.94c-4.82-1-3.27,5.62-3.52,10.06h-2l-.06-11.73h1.85a15.38,15.38,0,0,0,.13,2.41c.37-1.67,1.42-3,3.58-2.53v1.79"/>
  <path id="gk" class="cls-2" d="M810.28,1005l-3.95-5.37-1.42,1.17v4.2h-2V988.89h2V999l5.13-5.68h2.28l-4.75,5.06,5.06,6.67h-2.35"/>
 </g>
 <g id="b">
  <path id="gl" class="cls-2" d="M820.59,989.69c5.37.06,11.79-.92,11.79,4.63,0,4.82-4.75,4.94-9.75,4.69v6h-2Zm2,7.72c3.52,0,7.65.68,7.65-3.09s-4.19-2.9-7.65-3v6"/>
  <path id="gm" class="cls-2" d="M842.26,1002.78c-.93,1.29-1.92,2.53-4.2,2.47s-3.58-1.3-3.58-3.52c-.06-4,3.89-3.89,7.72-3.89.18-2.16-.56-3.33-2.53-3.33-1.49.06-2.54.43-2.6,1.91l-2-.18c.3-2.29,2-3.21,4.69-3.21s4.44,1.23,4.44,4V1002c-.06,1.23.43,2,1.73,1.66v1.24C844,1005.49,842.13,1004.82,842.26,1002.78Zm-5.74-1a1.87,1.87,0,0,0,2,2c2.53-.19,3.89-1.79,3.71-4.57-2.66.12-5.68-.31-5.68,2.53"/>
  <path class="cls-2" d="M852.94,994.94c-4.82-1-3.27,5.62-3.52,10.06h-2l-.06-11.73h1.85a15.38,15.38,0,0,0,.13,2.41c.37-1.67,1.42-3,3.58-2.53v1.79" data-name="gj"/>
  <path class="cls-2" d="M856.89,1002.1c-.13,1.48,1.11,1.79,2.34,1.36v1.48c-2,.62-4.32.31-4.32-2.41v-7.84h-1.36v-1.42H855l.55-2.65h1.3v2.65h2.16v1.42h-2.16v7.41" data-name="gg"/>
  <path id="gn" class="cls-2" d="M860.9,990.74v-1.85h2v1.85Zm0,14.26V993.27h2V1005h-2"/>
  <path id="go" class="cls-2" d="M870.22,994.57c-2.47,0-3,2-3,4.5s.55,4.63,3,4.63a2.46,2.46,0,0,0,2.66-2.34l2,.12a4.23,4.23,0,0,1-4.57,3.77c-3.64,0-4.69-2.53-5.06-6.11-.62-5.74,6.24-8.09,9.08-3.95a5.46,5.46,0,0,1,.43,1.35l-2,.19a2.35,2.35,0,0,0-2.53-2.16"/>
  <path class="cls-2" d="M876.89,990.74v-1.85h2v1.85Zm0,14.26V993.27h2V1005h-2" data-name="gn"/>
  <path id="gp" class="cls-2" d="M887.38,993c3.4.06,4.32,2.53,4.32,6s-1,6-4.32,6.18a3.78,3.78,0,0,1-3.7-2.1l.06,6.48h-2l-.06-16.36h1.92l.12,1.85A3.65,3.65,0,0,1,887.38,993Zm-.49,10.74c2.47,0,2.78-2.1,2.78-4.63s-.37-4.51-2.78-4.57c-2.59,0-3.15,2-3.15,4.69s.62,4.51,3.15,4.51"/>
  <path class="cls-2" d="M901.33,1002.78c-.92,1.29-1.91,2.53-4.2,2.47s-3.58-1.3-3.58-3.52c-.06-4,3.89-3.89,7.72-3.89.19-2.16-.55-3.33-2.53-3.33-1.48.06-2.53.43-2.59,1.91l-2-.18c.31-2.29,2-3.21,4.69-3.21s4.45,1.23,4.45,4V1002c-.07,1.23.43,2,1.72,1.66v1.24C903.06,1005.49,901.21,1004.82,901.33,1002.78Zm-5.74-1a1.87,1.87,0,0,0,2,2c2.53-.19,3.89-1.79,3.7-4.57-2.65.12-5.68-.31-5.68,2.53" data-name="gm"/>
  <path id="gq" class="cls-2" d="M912.2,993c5.49-.25,3.27,7.16,3.7,12h-2v-7.47c0-1.91-.49-3-2.4-3-4.45.12-2.72,6.29-3,10.43h-2l-.06-11.73h1.85a10.33,10.33,0,0,0,.12,2A3.9,3.9,0,0,1,912.2,993"/>
  <path class="cls-2" d="M921,1002.1c-.12,1.48,1.11,1.79,2.35,1.36v1.48c-2,.62-4.32.31-4.32-2.41v-7.84h-1.36v-1.42h1.48l.56-2.65H921v2.65h2.16v1.42H921v7.41" data-name="gg"/>
 </g>
 <path class="cls-1" d="m1321.5 87.5a6 6 0 0 1 6-6h268a6 6 0 0 1 6 6v928a6 6 0 0 1-6 6h-268a6 6 0 0 1-6-6z"/>
 <g id="c">
  <path id="gr" class="cls-2" d="m1357.5 1005v-15.31h2.1v15.31h-2.1"/>
  <path class="cls-2" d="M1368.85,993c5.49-.25,3.27,7.16,3.7,12h-2v-7.47c0-1.91-.49-3-2.4-3-4.45.12-2.72,6.29-3,10.43h-2l-.06-11.73H1365a10.33,10.33,0,0,0,.12,2,3.9,3.9,0,0,1,3.77-2.22" data-name="gq"/>
  <path class="cls-2" d="M1377.61,1002.1c-.12,1.48,1.11,1.79,2.35,1.36v1.48c-2,.62-4.32.31-4.32-2.41v-7.84h-1.36v-1.42h1.48l.55-2.65h1.3v2.65h2.16v1.42h-2.16v7.41" data-name="gg"/>
  <path class="cls-2" d="M1386.31,993c3.89,0,5.31,2.59,5.19,6.54h-8.33c0,2.47.86,4.13,3.27,4.2a2.87,2.87,0,0,0,3-1.79l1.73.49c-.68,1.73-2.28,2.78-4.75,2.78-3.58,0-5.43-2.29-5.37-6.18S1382.67,993,1386.31,993Zm3.21,5c.38-3.71-4.69-4.76-6-1.73a4.39,4.39,0,0,0-.37,1.73h6.35" data-name="gf"/>
  <path class="cls-2" d="M1399.52,994.94c-4.81-1-3.27,5.62-3.51,10.06h-2l-.06-11.73h1.85a15.43,15.43,0,0,0,.12,2.41c.37-1.67,1.42-3,3.58-2.53v1.79" data-name="gj"/>
  <path class="cls-2" d="M1407.06,993c5.49-.25,3.27,7.16,3.7,12h-2v-7.47c0-1.91-.49-3-2.4-3-4.45.12-2.72,6.29-3,10.43h-2l-.07-11.73h1.86a10.33,10.33,0,0,0,.12,2,3.9,3.9,0,0,1,3.77-2.22" data-name="gq"/>
  <path class="cls-2" d="M1418.35,993c3.89,0,5.31,2.59,5.19,6.54h-8.34c0,2.47.87,4.13,3.28,4.2a2.87,2.87,0,0,0,3-1.79l1.73.49c-.68,1.73-2.29,2.78-4.75,2.78-3.58,0-5.44-2.29-5.37-6.18S1414.71,993,1418.35,993Zm3.21,5c.37-3.71-4.69-4.76-6-1.73a4.58,4.58,0,0,0-.37,1.73h6.36" data-name="gf"/>
  <path class="cls-2" d="M1428.17,1002.1c-.13,1.48,1.11,1.79,2.34,1.36v1.48c-2,.62-4.32.31-4.32-2.41v-7.84h-1.36v-1.42h1.48l.56-2.65h1.3v2.65h2.16v1.42h-2.16v7.41" data-name="gg"/>
 </g>
 <g id="d">
  <path class="cls-2" d="m1438.9 1005v-15.31h2.1v15.31h-2.1" data-name="gr"/>
  <path class="cls-2" d="M1450.27,993c5.49-.25,3.27,7.16,3.7,12h-2v-7.47c0-1.91-.49-3-2.4-3-4.45.12-2.72,6.29-3,10.43h-2l-.07-11.73h1.86a10.33,10.33,0,0,0,.12,2,3.9,3.9,0,0,1,3.77-2.22" data-name="gq"/>
  <path id="gs" class="cls-2" d="M1461.62,990.56c-1.91-.56-2.59.61-2.34,2.71h2.34v1.42h-2.34V1005h-1.92V994.69h-1.66v-1.42h1.66c-.43-3.21,1.05-5.06,4.26-4.2v1.49"/>
  <path class="cls-2" d="M1468.6,994.94c-4.82-1-3.27,5.62-3.52,10.06h-2l-.07-11.73h1.86a14.3,14.3,0,0,0,.12,2.41c.37-1.67,1.42-3,3.58-2.53v1.79" data-name="gj"/>
  <path class="cls-2" d="m1477.6 1002.8c-0.92 1.29-1.91 2.53-4.2 2.47s-3.58-1.3-3.58-3.52c-0.06-4 3.89-3.89 7.72-3.89 0.18-2.16-0.56-3.33-2.53-3.33-1.48 0.06-2.53 0.43-2.59 1.91l-2-0.18c0.31-2.29 2-3.21 4.69-3.21s4.44 1.23 4.44 4v4.97c-0.06 1.23 0.44 2 1.73 1.66v1.24c-1.95 0.59-3.8-0.08-3.68-2.12zm-5.74-1a1.87 1.87 0 0 0 2 2c2.53-0.19 3.88-1.79 3.7-4.57-2.65 0.12-5.68-0.31-5.68 2.53" data-name="gm"/>
  <path id="gt" class="cls-2" d="M1489.59,996.17c-.19-2.1-5.31-2.34-5.37,0,.92,3.28,7.1.74,7.34,5.56s-9.26,4.57-9.69.49l1.73-.31c.25,2.23,6,2.78,6.05,0-.62-3.45-7-.92-7.29-5.55-.24-3.52,5.07-3.89,7.54-2.59a3.11,3.11,0,0,1,1.48,2.16"/>
  <path class="cls-2" d="M1496,1002.1c-.13,1.48,1.11,1.79,2.34,1.36v1.48c-2,.62-4.32.31-4.32-2.41v-7.84h-1.36v-1.42h1.48l.56-2.65h1.3v2.65h2.16v1.42H1496v7.41" data-name="gg"/>
  <path class="cls-2" d="M1505.57,994.94c-4.81-1-3.27,5.62-3.51,10.06h-2l-.06-11.73h1.85a15.43,15.43,0,0,0,.12,2.41c.37-1.67,1.42-3,3.58-2.53v1.79" data-name="gj"/>
  <path id="gu" class="cls-2" d="M1511.07,1005.25c-5.5.24-3.34-7.16-3.77-12h2v7.41c0,1.91.43,3.09,2.41,3,4.44-.12,2.77-6.23,3.08-10.43h1.92l.06,11.73h-1.85a10.94,10.94,0,0,0-.13-2,3.86,3.86,0,0,1-3.7,2.29"/>
  <path class="cls-2" d="M1524.15,994.57c-2.46,0-3,2-3,4.5s.56,4.63,3,4.63a2.45,2.45,0,0,0,2.66-2.34l2,.12a4.23,4.23,0,0,1-4.56,3.77c-3.65,0-4.7-2.53-5.07-6.11-.61-5.74,6.24-8.09,9.08-3.95a4.74,4.74,0,0,1,.43,1.35l-2,.19a2.36,2.36,0,0,0-2.54-2.16" data-name="go"/>
  <path class="cls-2" d="M1533,1002.1c-.12,1.48,1.11,1.79,2.35,1.36v1.48c-2,.62-4.32.31-4.32-2.41v-7.84h-1.36v-1.42h1.48l.56-2.65H1533v2.65h2.16v1.42H1533v7.41" data-name="gg"/>
  <path class="cls-2" d="M1540.7,1005.25c-5.5.24-3.34-7.16-3.77-12h2v7.41c0,1.91.43,3.09,2.41,3,4.44-.12,2.77-6.23,3.08-10.43h1.92l.06,11.73h-1.86a10.18,10.18,0,0,0-.12-2,3.86,3.86,0,0,1-3.7,2.29" data-name="gu"/>
  <path class="cls-2" d="M1554.9,994.94c-4.82-1-3.28,5.62-3.52,10.06h-2l-.06-11.73h1.85a14.26,14.26,0,0,0,.13,2.41c.37-1.67,1.41-3,3.58-2.53v1.79" data-name="gj"/>
  <path class="cls-2" d="M1561.38,993c3.89,0,5.31,2.59,5.18,6.54h-8.33c0,2.47.86,4.13,3.27,4.2a2.86,2.86,0,0,0,3-1.79l1.73.49c-.68,1.73-2.28,2.78-4.75,2.78-3.58,0-5.43-2.29-5.37-6.18S1557.73,993,1561.38,993Zm3.21,5c.37-3.71-4.69-4.76-6-1.73a4.39,4.39,0,0,0-.37,1.73h6.36" data-name="gf"/>
 </g>
 <path class="cls-1" d="M1.5,87.5a6,6,0,0,1,6-6H326.38a6,6,0,0,1,6,6v928a6,6,0,0,1-6,6H7.5a6,6,0,0,1-6-6Z"/>
 <g data-name="a">
  <path class="cls-2" d="M111.6,1005l-8.15-13,.06,13h-1.79V989.69h2.41l8.21,13.15-.12-13.15h1.91V1005H111.6" data-name="ge"/>
  <path class="cls-2" d="M122,993c3.89,0,5.31,2.59,5.19,6.54h-8.34c0,2.47.87,4.13,3.27,4.2a2.88,2.88,0,0,0,3-1.79l1.73.49c-.68,1.73-2.29,2.78-4.76,2.78-3.58,0-5.43-2.29-5.37-6.18S118.39,993,122,993Zm3.21,5c.37-3.71-4.69-4.76-6-1.73a4.58,4.58,0,0,0-.37,1.73h6.36" data-name="gf"/>
  <path class="cls-2" d="M131.85,1002.1c-.13,1.48,1.11,1.79,2.34,1.36v1.48c-2,.62-4.32.31-4.32-2.41v-7.84h-1.36v-1.42H130l.56-2.65h1.3v2.65H134v1.42h-2.16v7.41" data-name="gg"/>
  <path class="cls-2" d="m147.09 1005h-2.22l-2.47-10.12-2.53 10.12h-2.22l-3.34-11.73h2l2.41 10.13 2.65-10.13h2.1l2.53 10.13 2.59-10.13h1.92" data-name="gh"/>
  <path class="cls-2" d="M156.54,993c3.82-.07,5.24,2.28,5.24,6.11s-1.66,6.11-5.3,6.11-5.13-2.41-5.19-6.11C151.29,995.06,153,993,156.54,993Zm-.06,10.74c2.71.06,3.27-1.92,3.27-4.63s-.5-4.63-3.15-4.63-3.27,2-3.27,4.63.61,4.56,3.15,4.63" data-name="gi"/>
  <path class="cls-2" d="M169.75,994.94c-4.82-1-3.27,5.62-3.52,10.06h-2l-.06-11.73H166a14.26,14.26,0,0,0,.13,2.41c.37-1.67,1.42-3,3.58-2.53v1.79" data-name="gj"/>
  <path class="cls-2" d="M178.88,1005l-3.95-5.37-1.42,1.17v4.2h-2V988.89h2V999l5.13-5.68h2.28l-4.75,5.06,5.06,6.67h-2.35" data-name="gk"/>
 </g>
 <g id="dO">
  <path class="cls-2" d="M201.66,999.26c-.06,4-2.47,6-6.42,6-3.76,0-6.17-2-6.17-5.8v-9.76h2c.49,5.5-2,13.83,4.13,13.83s3.95-8.21,4.38-13.83h2v9.57" data-name="gS"/>
  <path class="cls-2" d="M211.66,996.17c-.18-2.1-5.31-2.34-5.37,0,.93,3.28,7.1.74,7.35,5.56s-9.26,4.57-9.7.49l1.73-.31c.25,2.23,6,2.78,6.05,0-.61-3.45-7-.92-7.28-5.55-.25-3.52,5.06-3.89,7.53-2.59a3.08,3.08,0,0,1,1.48,2.16" data-name="gt"/>
  <path class="cls-2" d="M220.61,993c3.89,0,5.31,2.59,5.19,6.54h-8.34c0,2.47.87,4.13,3.27,4.2a2.88,2.88,0,0,0,3-1.79l1.73.49c-.68,1.73-2.29,2.78-4.76,2.78-3.58,0-5.43-2.29-5.37-6.18S217,993,220.61,993Zm3.21,5c.37-3.71-4.69-4.76-6-1.73a4.58,4.58,0,0,0-.37,1.73h6.36" data-name="gf"/>
  <path class="cls-2" d="M233.82,994.94c-4.81-1-3.27,5.62-3.52,10.06h-2l-.06-11.73h1.85a15.43,15.43,0,0,0,.12,2.41c.37-1.67,1.42-3,3.58-2.53v1.79" data-name="gj"/>
 </g>
 <path class="cls-3" d="m1068.4 845.27h-39.2"/>
 <path class="cls-4" d="m1069.4 846.27h-1v-2h1"/>
 <path class="cls-5" d="m1014 845.27 14.25-4.63v9.27z"/>
 <path class="cls-1" d="m732.5 635.32a6 6 0 0 1 6-6h148a6 6 0 0 1 6 6v283a6 6 0 0 1-6 6h-148a6 6 0 0 1-6-6z"/>
 <g id="az">
  <path id="gv" class="cls-2" d="M756,755.61v5.68h8.52V763H756v6.17h-2v-15.3h10.8v1.72H756"/>
  <path id="gw" class="cls-2" d="m767.1 769.19v-16.11h2v16.11h-2"/>
  <path class="cls-2" d="m776.67 757.22c3.82-0.06 5.24 2.28 5.24 6.11s-1.66 6.11-5.31 6.11-5.12-2.41-5.18-6.11c0-4.07 1.73-6.11 5.25-6.11zm-0.07 10.78c2.72 0.06 3.28-1.91 3.28-4.63s-0.5-4.63-3.15-4.63-3.27 2-3.27 4.63 0.61 4.57 3.14 4.63" data-name="gi"/>
  <path class="cls-2" d="M795.56,769.19h-2.23l-2.47-10.12-2.53,10.12h-2.22l-3.33-11.72h2l2.41,10.12,2.65-10.12h2.1l2.53,10.12,2.6-10.12H799" data-name="gh"/>
 </g>
 <g id="aS">
  <path id="gC" class="cls-2" d="m806.85 769.19v-15.3h11.55v1.72h-9.51v4.88h8.89v1.67h-8.89v5.37h10v1.66h-12"/>
  <path id="gD" class="cls-2" d="M826.48,769.19h-2.34l-4.26-11.72H822l3.33,10.18,3.46-10.18h2.09"/>
  <path class="cls-2" d="M837.1,757.22c3.89,0,5.31,2.59,5.18,6.54H834c0,2.47.86,4.14,3.27,4.2a2.88,2.88,0,0,0,3-1.79l1.73.49c-.68,1.73-2.29,2.78-4.76,2.78-3.58,0-5.43-2.28-5.37-6.17S833.46,757.22,837.1,757.22Zm3.21,5c.37-3.71-4.69-4.75-6-1.73a4.58,4.58,0,0,0-.37,1.73h6.36" data-name="gf"/>
  <path class="cls-2" d="M850.49,757.22c5.5-.25,3.28,7.16,3.71,12h-2v-7.47c0-1.91-.49-3-2.41-3-4.44.13-2.71,6.3-3,10.43h-2l-.06-11.72h1.85a10.18,10.18,0,0,0,.13,2,3.9,3.9,0,0,1,3.76-2.22" data-name="gq"/>
  <path class="cls-2" d="M859.26,766.29c-.12,1.48,1.11,1.79,2.34,1.36v1.48c-2,.62-4.32.31-4.32-2.41v-7.83h-1.35v-1.42h1.48l.55-2.66h1.3v2.66h2.16v1.42h-2.16v7.4" data-name="gg"/>
  <path class="cls-2" d="M870.12,760.37c-.18-2.1-5.31-2.35-5.37,0,.93,3.27,7.1.74,7.35,5.55s-9.26,4.57-9.69.5l1.73-.31c.24,2.22,6,2.78,6.05,0-.62-3.46-7-.93-7.29-5.56-.25-3.52,5.06-3.89,7.53-2.59a3.08,3.08,0,0,1,1.48,2.16" data-name="gt"/>
 </g>
 <g id="m">
  <path class="cls-2" d="M789.72,787.77c2.16.31,3.77,1.42,3.77,3.77,0,5.37-6.55,4.2-11.79,4.32V780.55c4.69.19,10.92-1,10.92,3.71A3.38,3.38,0,0,1,789.72,787.77Zm-6-.68c3.09-.06,6.79.56,6.79-2.59,0-2.9-3.88-2.22-6.79-2.28Zm0,7.1c3.4-.12,7.66.87,7.66-2.77,0-3.46-4.32-2.6-7.66-2.72v5.49" data-name="gF"/>
  <path class="cls-2" d="M801.7,785.8c-4.82-1-3.27,5.62-3.52,10.06h-2l-.06-11.73H798a15.38,15.38,0,0,0,.13,2.41c.37-1.67,1.42-3,3.58-2.53v1.79" data-name="gj"/>
  <path class="cls-2" d="m808.18 783.89c3.83-0.07 5.25 2.28 5.25 6.11s-1.67 6.11-5.31 6.11-5.12-2.41-5.19-6.11c0-4.08 1.73-6.11 5.25-6.11zm-0.06 10.74c2.71 0.06 3.27-1.92 3.27-4.63s-0.49-4.63-3.15-4.63-3.27 2-3.27 4.63 0.62 4.56 3.15 4.63" data-name="gi"/>
  <path class="cls-2" d="m823.18 795.86-3.95-5.37-1.42 1.17v4.2h-2v-16.11h2v10.06l5.12-5.68h2.29l-4.76 5.06 5.06 6.67h-2.34" data-name="gk"/>
  <path class="cls-2" d="M831.64,783.89c3.88,0,5.3,2.59,5.18,6.54h-8.33c0,2.47.86,4.13,3.27,4.2a2.87,2.87,0,0,0,3-1.79l1.73.49c-.68,1.73-2.28,2.78-4.75,2.78-3.58,0-5.43-2.29-5.37-6.18S828,783.89,831.64,783.89Zm3.21,5c.37-3.71-4.7-4.76-6-1.73a4.39,4.39,0,0,0-.37,1.73h6.36" data-name="gf"/>
  <path class="cls-2" d="M844.85,785.8c-4.82-1-3.28,5.62-3.52,10.06h-2l-.06-11.73h1.85a14.26,14.26,0,0,0,.13,2.41c.37-1.67,1.42-3,3.58-2.53v1.79" data-name="gj"/>
 </g>
 <path class="cls-1" d="M997,826c6.77,0,12.27,8.62,12.27,19.25s-5.5,19.25-12.27,19.25h-98.2c-6.78,0-12.28-8.6-12.28-19.25S892,826,898.77,826Z"/>
 <path class="cls-6" d="M997,864.52c-6.78,0-12.28-8.6-12.28-19.25S990.2,826,997,826"/>
 <g data-name="M">
  <path class="cls-2" d="m911.31 835.12c5 0 7.59 2.84 7.59 7.78 0 4.44-2.16 7.22-6.17 7.78 0.43 1.85 1.85 3 4.26 2.46v1.42c-3.4 1-5.87-0.92-6.36-3.76-4.51-0.37-6.91-3.15-6.91-7.9 0-4.9 2.59-7.78 7.59-7.78zm0 14c3.89 0 5.49-2.53 5.49-6.23s-1.79-6.11-5.49-6.11-5.5 2.4-5.5 6.11 1.73 6.17 5.5 6.23" data-name="gE"/>
  <path class="cls-2" d="M925.14,850.86c-5.5.25-3.34-7.16-3.77-12h2v7.4c0,1.92.43,3.09,2.4,3,4.45-.13,2.78-6.24,3.09-10.43h1.91l.06,11.72H929a10.87,10.87,0,0,0-.12-2,3.86,3.86,0,0,1-3.7,2.28" data-name="gu"/>
  <path class="cls-2" d="m938.47 838.64c3.89 0 5.31 2.59 5.18 6.54h-8.33c0 2.47 0.87 4.14 3.27 4.2a2.88 2.88 0 0 0 3-1.79l1.73 0.49c-0.68 1.73-2.29 2.78-4.76 2.78-3.58 0-5.43-2.28-5.37-6.17s1.64-6.05 5.28-6.05zm3.21 5c0.37-3.71-4.69-4.75-6-1.73a4.58 4.58 0 0 0-0.37 1.73h6.36" data-name="gf"/>
  <path class="cls-2" d="M949.83,850.86c-5.5.25-3.34-7.16-3.77-12h2v7.4c0,1.92.43,3.09,2.4,3,4.45-.13,2.78-6.24,3.09-10.43h1.91l.07,11.72h-1.86a10.08,10.08,0,0,0-.12-2,3.86,3.86,0,0,1-3.7,2.28" data-name="gu"/>
  <path class="cls-2" d="M963.16,838.64c3.89,0,5.31,2.59,5.19,6.54H960c0,2.47.87,4.14,3.27,4.2a2.88,2.88,0,0,0,3-1.79l1.73.49c-.68,1.73-2.29,2.78-4.76,2.78-3.58,0-5.43-2.28-5.37-6.17S959.52,838.64,963.16,838.64Zm3.21,5c.37-3.71-4.69-4.75-6-1.73a4.58,4.58,0,0,0-.37,1.73h6.36" data-name="gf"/>
 </g>
 <path class="cls-1" d="m1070.9 832a6 6 0 0 1 6-6h188a6 6 0 0 1 6 6v26.5a6 6 0 0 1-6 6h-188a6 6 0 0 1-6-6z"/>
 <g data-name="az">
  <path class="cls-2" d="m1098.4 837v5.68h8.56v1.73h-8.52v6.17h-2v-15.3h10.8v1.72h-8.76" data-name="gv"/>
  <path class="cls-2" d="m1109.6 850.61v-16.11h2v16.11h-2" data-name="gw"/>
  <path class="cls-2" d="m1119.1 838.64c3.82-0.06 5.24 2.28 5.24 6.11s-1.66 6.11-5.3 6.11-5.13-2.41-5.19-6.11c0-4.07 1.73-6.11 5.25-6.11zm-0.06 10.74c2.71 0.06 3.27-1.91 3.27-4.63s-0.5-4.63-3.15-4.63-3.27 2-3.27 4.63 0.61 4.57 3.15 4.63" data-name="gi"/>
  <path class="cls-2" d="m1138 850.61h-2.23l-2.47-10.12-2.53 10.12h-2.22l-3.33-11.72h2l2.41 10.12 2.65-10.12h2.1l2.53 10.12 2.6-10.12h1.91" data-name="gh"/>
 </g>
 <g id="aO">
  <path class="cls-2" d="M1149.3,835.31c5.37.06,11.79-.93,11.79,4.62,0,4.82-4.75,4.94-9.75,4.7v6h-2Zm2,7.71c3.52,0,7.65.68,7.65-3.09s-4.19-2.9-7.65-3v6" data-name="gl"/>
  <path class="cls-2" d="M1169.3,840.55c-4.81-1-3.27,5.62-3.52,10.06h-2l-.06-11.72h1.85a15.24,15.24,0,0,0,.12,2.4c.37-1.66,1.42-3,3.58-2.53v1.79" data-name="gj"/>
  <path class="cls-2" d="m1175.8 838.64c3.83-0.06 5.25 2.28 5.25 6.11s-1.67 6.11-5.31 6.11-5.12-2.41-5.18-6.11c0-4.07 1.72-6.11 5.24-6.11zm-0.06 10.74c2.72 0.06 3.27-1.91 3.27-4.63s-0.49-4.63-3.15-4.63-3.27 2-3.27 4.63 0.62 4.57 3.15 4.63" data-name="gi"/>
  <path class="cls-2" d="M1187.88,840.18c-2.47,0-3,2-3,4.51s.55,4.63,3,4.63a2.47,2.47,0,0,0,2.66-2.35l2,.13a4.23,4.23,0,0,1-4.57,3.76c-3.64,0-4.69-2.53-5.06-6.11-.62-5.74,6.24-8.09,9.08-4a5.4,5.4,0,0,1,.43,1.36l-2,.18a2.36,2.36,0,0,0-2.53-2.16" data-name="go"/>
  <path class="cls-2" d="m1199.2 838.64c3.89 0 5.31 2.59 5.19 6.54h-8.34c0 2.47 0.87 4.14 3.27 4.2a2.88 2.88 0 0 0 3-1.79l1.73 0.49c-0.68 1.73-2.29 2.78-4.76 2.78-3.58 0-5.43-2.28-5.37-6.17s1.64-6.05 5.28-6.05zm3.21 5c0.37-3.71-4.69-4.75-6-1.73a4.58 4.58 0 0 0-0.37 1.73h6.36" data-name="gf"/>
  <path class="cls-2" d="M1213.75,841.79c-.19-2.1-5.31-2.35-5.37,0,.92,3.27,7.09.74,7.34,5.55s-9.26,4.57-9.69.5l1.73-.31c.25,2.22,6,2.78,6,0-.62-3.46-7-.93-7.29-5.56-.24-3.52,5.07-3.89,7.53-2.59a3.09,3.09,0,0,1,1.49,2.16" data-name="gt"/>
  <path class="cls-2" d="M1224.86,841.79c-.19-2.1-5.31-2.35-5.37,0,.92,3.27,7.1.74,7.34,5.55s-9.26,4.57-9.69.5l1.73-.31c.25,2.22,6,2.78,6.05,0-.62-3.46-7-.93-7.29-5.56-.24-3.52,5.07-3.89,7.54-2.59a3.11,3.11,0,0,1,1.48,2.16" data-name="gt"/>
  <path class="cls-2" d="m1233.8 838.64c3.82-0.06 5.24 2.28 5.24 6.11s-1.66 6.11-5.3 6.11-5.13-2.41-5.19-6.11c0-4.07 1.73-6.11 5.25-6.11zm-0.06 10.74c2.71 0.06 3.27-1.91 3.27-4.63s-0.5-4.63-3.15-4.63-3.27 2-3.27 4.63 0.62 4.57 3.15 4.63" data-name="gi"/>
  <path class="cls-2" d="M1247,840.55c-4.82-1-3.27,5.62-3.52,10.06h-2l-.06-11.72h1.85a15.18,15.18,0,0,0,.13,2.4c.37-1.66,1.42-3,3.58-2.53v1.79" data-name="gj"/>
 </g>
 <path class="cls-1" d="m732.5 124.13a6 6 0 0 1 6-6h148a6 6 0 0 1 6 6v108a6 6 0 0 1-6 6h-148a6 6 0 0 1-6-6z"/>
 <g data-name="az">
  <path class="cls-2" d="M760.37,155.33V161h8.52v1.73h-8.52v6.17h-2V153.6h10.81v1.73h-8.77" data-name="gv"/>
  <path class="cls-2" d="M771.48,168.91V152.8h2v16.11h-2" data-name="gw"/>
  <path class="cls-2" d="m781.05 156.93c3.83-0.06 5.25 2.29 5.25 6.11s-1.67 6.12-5.31 6.12-5.13-2.41-5.19-6.12c0-4.04 1.73-6.11 5.25-6.11zm-0.05 10.74c2.71 0.07 3.27-1.91 3.27-4.63s-0.49-4.62-3.15-4.62-3.27 2-3.27 4.62 0.62 4.57 3.15 4.63" data-name="gi"/>
  <path class="cls-2" d="m799.94 168.91h-2.22l-2.47-10.12-2.53 10.12h-2.23l-3.33-11.73h2l2.4 10.12 2.66-10.12h2.1l2.53 10.12 2.59-10.12h1.91" data-name="gh"/>
 </g>
 <g id="aA">
  <path class="cls-2" d="M821.11,168.91l-8.15-13,.06,13h-1.79V153.6h2.41l8.21,13.15-.12-13.15h1.91v15.31h-2.53" data-name="ge"/>
  <path class="cls-2" d="M834.07,166.69c-.92,1.29-1.91,2.53-4.19,2.47s-3.58-1.3-3.58-3.52c-.07-3.95,3.89-3.89,7.71-3.89.19-2.16-.55-3.33-2.53-3.33-1.48.06-2.53.43-2.59,1.91l-2-.19c.31-2.28,2-3.21,4.69-3.21s4.45,1.24,4.45,3.95V166c-.06,1.23.43,2,1.73,1.66v1.24C835.8,169.4,834,168.72,834.07,166.69Zm-5.74-1.05a1.86,1.86,0,0,0,2,2c2.53-.18,3.89-1.79,3.7-4.56-2.65.12-5.68-.31-5.68,2.53" data-name="gm"/>
  <path id="gB" class="cls-2" d="M850.68,158.48c-4.14.18-2.35,6.48-2.72,10.43h-1.91v-7.47c0-1.79-.31-3.09-2.16-3-4.08.24-2.35,6.42-2.72,10.43h-1.91l-.06-11.73h1.85a10.33,10.33,0,0,0,.12,2c.62-2.72,6.11-3.09,6.61,0a3.79,3.79,0,0,1,3.58-2.23c5.25-.12,2.9,7.35,3.39,12h-1.91v-7.47c0-1.79-.31-3-2.16-3"/>
  <path class="cls-2" d="m862.35 156.93c3.88 0 5.3 2.6 5.18 6.55h-8.33c0 2.47 0.86 4.13 3.27 4.19a2.86 2.86 0 0 0 3-1.79l1.73 0.5c-0.68 1.73-2.28 2.78-4.75 2.78-3.58 0-5.43-2.29-5.37-6.18s1.62-6.05 5.27-6.05zm3.21 5c0.37-3.7-4.7-4.75-6-1.72a4.34 4.34 0 0 0-0.37 1.72h6.36" data-name="gf"/>
 </g>
 <g id="aB">
  <path class="cls-2" d="M786.94,183.91c-.3-3-7.59-3.33-7.65.12.86,4.63,9.75.87,10.06,7.35.19,4.81-7.47,5.37-10.8,3.39a4.39,4.39,0,0,1-2-2.84l2-.43c.31,3.46,8.7,3.89,8.7-.06,0-4.81-9.56-.86-10-7.28-.31-5.07,9-5.19,11-2.1a5.54,5.54,0,0,1,.68,1.54" data-name="gG"/>
  <path class="cls-2" d="M796.51,183.6c3.89,0,5.31,2.59,5.19,6.54h-8.34c0,2.47.87,4.14,3.28,4.2a2.87,2.87,0,0,0,3-1.79l1.73.49c-.68,1.73-2.28,2.78-4.75,2.78-3.58,0-5.44-2.28-5.37-6.17S792.87,183.6,796.51,183.6Zm3.21,5c.37-3.7-4.69-4.75-6-1.73a4.58,4.58,0,0,0-.37,1.73h6.36" data-name="gf"/>
  <path class="cls-2" d="M809.72,185.51c-4.81-1-3.27,5.62-3.52,10.07h-2l-.06-11.73H806a15.24,15.24,0,0,0,.12,2.4c.37-1.66,1.42-3,3.58-2.53v1.79" data-name="gj"/>
  <path class="cls-2" d="m816.7 195.58h-2.35l-4.26-11.73h2.1l3.33 10.15 3.48-10.15h2.1" data-name="gD"/>
  <path class="cls-2" d="m822.62 181.32v-1.86h2v1.86zm0 14.26v-11.73h2v11.73h-2" data-name="gn"/>
  <path class="cls-2" d="M831.94,185.14c-2.46,0-3,2-3,4.51s.56,4.63,3,4.63a2.45,2.45,0,0,0,2.66-2.35l2,.13a4.23,4.23,0,0,1-4.56,3.76c-3.65,0-4.69-2.53-5.07-6.11-.61-5.74,6.24-8.08,9.08-4a4.8,4.8,0,0,1,.43,1.36l-2,.18a2.37,2.37,0,0,0-2.54-2.16" data-name="go"/>
  <path class="cls-2" d="M843.3,183.6c3.89,0,5.31,2.59,5.19,6.54h-8.34c0,2.47.87,4.14,3.28,4.2a2.87,2.87,0,0,0,3-1.79l1.73.49c-.68,1.73-2.28,2.78-4.75,2.78-3.58,0-5.44-2.28-5.37-6.17S839.66,183.6,843.3,183.6Zm3.21,5c.37-3.7-4.69-4.75-6-1.73a4.58,4.58,0,0,0-.37,1.73h6.36" data-name="gf"/>
 </g>
 <path class="cls-1" d="m732.5 304.13a6 6 0 0 1 6-6h148a6 6 0 0 1 6 6v197.25a6 6 0 0 1-6 6h-148a6 6 0 0 1-6-6z"/>
 <g id="cp">
  <path class="cls-2" d="M793,355v5.68h8.52v1.72H793v6.18h-2V353.29h10.8V355H793" data-name="gv"/>
  <path class="cls-2" d="m804.14 368.6v-16.11h2v16.11h-2" data-name="gw"/>
  <path class="cls-2" d="m813.7 356.62c3.83-0.06 5.25 2.29 5.25 6.11s-1.67 6.11-5.31 6.11-5.12-2.4-5.18-6.11c0-4.07 1.73-6.11 5.24-6.11zm-0.06 10.74c2.72 0.06 3.27-1.91 3.27-4.63s-0.49-4.63-3.14-4.63-3.28 2-3.28 4.63 0.62 4.57 3.15 4.63" data-name="gi"/>
  <path class="cls-2" d="M832.59,368.6h-2.22l-2.47-10.13-2.53,10.13h-2.22l-3.34-11.73h2L824.2,367l2.65-10.12H829L831.48,367l2.59-10.12H836" data-name="gh"/>
 </g>
 <g id="cq">
  <path class="cls-2" d="M765,395.26l-8.15-13,.06,13h-1.79V380h2.41l8.21,13.15L765.65,380h1.91v15.31H765" data-name="ge"/>
  <path class="cls-2" d="M778,393c-.92,1.3-1.91,2.53-4.19,2.47s-3.58-1.3-3.58-3.52c-.07-3.95,3.88-3.89,7.71-3.89.19-2.16-.55-3.33-2.53-3.33-1.48.06-2.53.43-2.59,1.91l-2-.18c.31-2.29,2-3.21,4.69-3.21s4.45,1.23,4.45,3.95v5.06c-.06,1.23.43,2,1.73,1.67v1.23C779.72,395.76,777.87,395.08,778,393ZM772.25,392a1.87,1.87,0,0,0,2,2c2.53-.19,3.89-1.79,3.7-4.57-2.65.12-5.68-.31-5.68,2.53" data-name="gm"/>
  <path class="cls-2" d="M794.6,384.83c-4.14.19-2.35,6.48-2.72,10.43H790v-7.47c0-1.79-.31-3.08-2.16-3-4.08.25-2.35,6.42-2.72,10.43h-1.91l-.06-11.73H785a10.28,10.28,0,0,0,.12,2c.62-2.72,6.11-3.09,6.61,0a3.77,3.77,0,0,1,3.58-2.22c5.24-.13,2.9,7.34,3.39,12h-1.91v-7.47c0-1.79-.31-3-2.16-3" data-name="gB"/>
  <path class="cls-2" d="m806.27 383.29c3.88 0 5.3 2.59 5.18 6.54h-8.33c0 2.47 0.86 4.14 3.27 4.2a2.87 2.87 0 0 0 3-1.79l1.73 0.49c-0.68 1.73-2.28 2.78-4.75 2.78-3.58 0-5.43-2.28-5.37-6.17s1.62-6.05 5.27-6.05zm3.21 5c0.37-3.71-4.7-4.76-6-1.73a4.39 4.39 0 0 0-0.37 1.73h6.36" data-name="gf"/>
  <path class="cls-2" d="M820.77,386.44c-.18-2.1-5.31-2.35-5.37,0,.93,3.27,7.1.74,7.35,5.55s-9.26,4.57-9.69.5l1.72-.31c.25,2.22,6,2.77,6.05,0-.61-3.46-7-.93-7.28-5.56-.25-3.52,5.06-3.89,7.53-2.59a3.08,3.08,0,0,1,1.48,2.16" data-name="gt"/>
  <path class="cls-2" d="M830.65,383.29c3.39.06,4.32,2.53,4.32,6s-1,6.05-4.32,6.17a3.79,3.79,0,0,1-3.71-2.1l.07,6.48h-2L825,383.53h1.91l.13,1.86A3.62,3.62,0,0,1,830.65,383.29Zm-.5,10.74c2.47,0,2.78-2.1,2.78-4.63s-.37-4.51-2.78-4.57c-2.59,0-3.14,2-3.14,4.69s.61,4.51,3.14,4.51" data-name="gp"/>
  <path class="cls-2" d="M844.6,393c-.93,1.3-1.92,2.53-4.2,2.47s-3.58-1.3-3.58-3.52c-.06-3.95,3.89-3.89,7.72-3.89.18-2.16-.56-3.33-2.53-3.33-1.49.06-2.53.43-2.6,1.91l-2-.18c.3-2.29,2-3.21,4.69-3.21s4.44,1.23,4.44,3.95v5.06c-.06,1.23.43,2,1.73,1.67v1.23C846.33,395.76,844.48,395.08,844.6,393ZM838.86,392a1.86,1.86,0,0,0,2,2c2.53-.19,3.89-1.79,3.71-4.57-2.66.12-5.68-.31-5.68,2.53" data-name="gm"/>
  <path class="cls-2" d="M854.17,384.83c-2.47,0-3,2-3,4.51s.56,4.63,3,4.63a2.46,2.46,0,0,0,2.65-2.35l2,.12a4.24,4.24,0,0,1-4.57,3.77c-3.64,0-4.69-2.53-5.06-6.11-.62-5.74,6.23-8.09,9.07-3.95a4.7,4.7,0,0,1,.43,1.36l-2,.18a2.37,2.37,0,0,0-2.53-2.16" data-name="go"/>
  <path class="cls-2" d="m865.52 383.29c3.89 0 5.31 2.59 5.19 6.54h-8.33c0 2.47 0.86 4.14 3.27 4.2a2.87 2.87 0 0 0 3-1.79l1.73 0.49c-0.68 1.73-2.28 2.78-4.75 2.78-3.58 0-5.43-2.28-5.37-6.17s1.62-6.05 5.26-6.05zm3.21 5c0.37-3.71-4.69-4.76-6-1.73a4.39 4.39 0 0 0-0.37 1.73h6.35" data-name="gf"/>
 </g>
 <g id="cr">
  <path id="gy" class="cls-2" d="M774.57,421.93l-1.73-4.44h-7l-1.72,4.44H762l6.23-15.31h2.35l6.11,15.31Zm-2.35-6.11-2.9-7.59c-.74,2.77-1.91,5.06-2.84,7.59h5.74"/>
  <path class="cls-2" d="M782.65,411.5c-2.46,0-3,2-3,4.5s.56,4.63,3,4.63a2.45,2.45,0,0,0,2.66-2.34l2,.12a4.23,4.23,0,0,1-4.56,3.77c-3.65,0-4.7-2.53-5.07-6.11-.61-5.75,6.24-8.09,9.08-4a4.9,4.9,0,0,1,.43,1.36l-2,.19a2.36,2.36,0,0,0-2.54-2.16" data-name="go"/>
  <path class="cls-2" d="M793.77,411.5c-2.47,0-3,2-3,4.5s.56,4.63,3,4.63a2.45,2.45,0,0,0,2.65-2.34l2,.12a4.24,4.24,0,0,1-4.57,3.77c-3.64,0-4.69-2.53-5.06-6.11-.62-5.75,6.23-8.09,9.07-4a4.9,4.9,0,0,1,.43,1.36l-2,.19a2.36,2.36,0,0,0-2.53-2.16" data-name="go"/>
  <path class="cls-2" d="M805.12,410c3.89,0,5.31,2.6,5.19,6.55H802c0,2.47.86,4.13,3.27,4.2a2.88,2.88,0,0,0,3-1.79l1.73.49c-.68,1.73-2.28,2.78-4.75,2.78-3.58,0-5.44-2.29-5.37-6.18S801.48,410,805.12,410Zm3.21,5c.37-3.7-4.69-4.75-6-1.72A4.38,4.38,0,0,0,802,415h6.35" data-name="gf"/>
  <path class="cls-2" d="M819.63,413.1c-.19-2.1-5.31-2.34-5.37,0,.93,3.27,7.1.74,7.34,5.56s-9.25,4.57-9.69.49l1.73-.31c.25,2.23,6,2.78,6.05,0-.62-3.45-7-.92-7.28-5.55-.25-3.52,5.06-3.89,7.53-2.59a3.11,3.11,0,0,1,1.48,2.16" data-name="gt"/>
  <path class="cls-2" d="M830.74,413.1c-.18-2.1-5.31-2.34-5.37,0,.93,3.27,7.1.74,7.35,5.56s-9.26,4.57-9.7.49l1.73-.31c.25,2.23,6,2.78,6,0-.61-3.45-7-.92-7.28-5.55-.25-3.52,5.06-3.89,7.53-2.59a3.08,3.08,0,0,1,1.48,2.16" data-name="gt"/>
  <path class="cls-2" d="M835,407.67v-1.85h2v1.85Zm0,14.26V410.2h2v11.73h-2" data-name="gn"/>
  <path class="cls-2" d="M845.62,410c5.49-.24,3.27,7.16,3.7,12h-2v-7.47c0-1.91-.5-3-2.41-3-4.45.12-2.72,6.29-3,10.43h-2l-.06-11.73h1.85a10.33,10.33,0,0,0,.12,2,3.92,3.92,0,0,1,3.77-2.23" data-name="gq"/>
  <path id="gx" class="cls-2" d="M861.67,410.2c-.62,7.72,2.53,18.09-6.79,16.11a3.52,3.52,0,0,1-2.72-2.65l2-.31c.92,2.9,6.17,2,5.49-1.73v-1.85a3.9,3.9,0,0,1-3.77,2.22c-3.33,0-4.19-2.53-4.19-5.92s1-6,4.38-6.05a3.94,3.94,0,0,1,3.64,2.16c.06-.62,0-1.42.12-2Zm-5.13,10.37c2.23,0,3.09-2,3.09-4.5s-.86-4.63-3.09-4.63c-2.4,0-2.84,2.09-2.84,4.63s.37,4.5,2.84,4.5"/>
 </g>
 <g id="cs">
  <path class="cls-2" d="m796.14 448.6-1.73-4.45h-7l-1.73 4.45h-2.16l6.23-15.31h2.35l6.11 15.31zm-2.34-6.11-2.9-7.6c-0.75 2.78-1.92 5.06-2.84 7.6h5.74" data-name="gy"/>
  <path class="cls-2" d="M809.23,436.87c-.62,7.71,2.53,18.08-6.79,16.11a3.53,3.53,0,0,1-2.72-2.66l2-.3c.92,2.9,6.17,2,5.49-1.73v-1.85a3.91,3.91,0,0,1-3.76,2.22c-3.34,0-4.2-2.53-4.2-5.93s1-6,4.38-6.05a4,4,0,0,1,3.64,2.16,17.61,17.61,0,0,1,.13-2Zm-5.12,10.37c2.22,0,3.08-2,3.08-4.51s-.86-4.63-3.08-4.63c-2.41,0-2.84,2.1-2.84,4.63s.37,4.51,2.84,4.51" data-name="gx"/>
  <path class="cls-2" d="m816.82 436.62c3.89 0 5.31 2.59 5.19 6.54h-8.34c0 2.47 0.87 4.14 3.27 4.2a2.88 2.88 0 0 0 3-1.79l1.73 0.5c-0.68 1.72-2.29 2.77-4.76 2.77-3.58 0-5.43-2.28-5.37-6.17s1.64-6.05 5.28-6.05zm3.21 5c0.37-3.7-4.69-4.75-6-1.73a4.58 4.58 0 0 0-0.37 1.73h6.34" data-name="gf"/>
  <path class="cls-2" d="M830.22,436.62c5.49-.25,3.27,7.16,3.7,12h-2v-7.47c0-1.92-.49-3-2.4-3-4.45.13-2.72,6.3-3,10.44h-2l-.06-11.73h1.85a10.17,10.17,0,0,0,.12,2,3.92,3.92,0,0,1,3.77-2.22" data-name="gq"/>
  <path class="cls-2" d="M839,445.7c-.12,1.48,1.11,1.79,2.35,1.35v1.48c-2,.62-4.32.31-4.32-2.4v-7.84h-1.36v-1.42h1.48l.56-2.66H839v2.66h2.16v1.42H839v7.41" data-name="gg"/>
 </g>
 <path class="cls-3" d="m812.5 295.63v-37.5"/>
 <path class="cls-4" d="m813.5 296.63h-2v-1h2"/>
 <path class="cls-5" d="m812.5 242.87 4.64 14.26h-9.28z"/>
 <g id="ct">
  <path id="hv" class="cls-2" d="M821.69,266.69c5.92-.35,11,.25,10.91,6-.05,4-2.17,6.23-6,6.23h-4.93ZM824.25,277c3.66.35,5.78-.89,5.78-4.25s-2.22-4.34-5.78-4V277"/>
  <path class="cls-2" d="M841.93,278.94l-5.33-9.44c.3,2.87.1,6.33.15,9.44h-2.27V266.69h2.91l5.43,9.53c-.3-2.86-.1-6.37-.15-9.53h2.27v12.25h-3" data-name="gU"/>
  <path class="cls-2" d="M854.43,270c0-2.12-4.65-2.27-4.79-.15.88,3.26,7.45.49,7.6,5.63.15,4.69-8.15,4.59-10.07,1.78a3.62,3.62,0,0,1-.6-1.48l2.47-.4c.15,2.27,5.53,2.77,5.73.25-.84-3.41-7.41-.5-7.6-5.63-.2-4.3,7.55-4.35,9.28-1.73a4,4,0,0,1,.49,1.38" data-name="gW"/>
 </g>
 <g id="cu">
  <path id="hz" class="cls-2" d="M864.06,266.69c4.59.05,10.17-.79,10.07,3.9,0,3.7-3.41,4.35-7.51,4.05v4.3h-2.56Zm2.56,6c2.32,0,4.94.34,4.94-2s-2.66-1.93-4.94-1.93v4"/>
  <path class="cls-2" d="M881.39,271.53c-1.93-.59-3,.64-3,2.81v4.6H876l-.05-9.39h2.32a12.17,12.17,0,0,0,.15,2c.29-1.38,1.33-2.62,3-2v2" data-name="gY"/>
  <path id="hc" class="cls-2" d="m887.07 269.36c3.16 0 4.74 1.77 4.74 4.89s-1.73 4.88-4.79 4.88-4.69-1.77-4.69-4.88 1.67-4.89 4.74-4.89zm-0.05 8.1c1.73 0 2.22-1.39 2.22-3.21 0-2-0.49-3.21-2.12-3.21s-2.22 1.28-2.22 3.21c0 1.77 0.49 3.21 2.12 3.21"/>
  <path id="hk" class="cls-2" d="M898.13,278.79c-1.78.69-4.3.34-4.3-2.08v-5.53h-1.18v-1.63H894l.74-2.22h1.53v2.22H898v1.63h-1.78v4.89c0,1.14.79,1.53,1.88,1.24v1.48"/>
  <path class="cls-2" d="m903.76 269.36c3.16 0 4.74 1.77 4.74 4.89s-1.73 4.88-4.79 4.88-4.69-1.77-4.69-4.88 1.68-4.89 4.74-4.89zm0 8.1c1.73 0 2.22-1.39 2.22-3.21 0-2-0.49-3.21-2.12-3.21s-2.22 1.28-2.22 3.21c0 1.77 0.49 3.21 2.12 3.21" data-name="hc"/>
  <path id="ht" class="cls-2" d="M918.52,275.83c-.34,2.07-1.87,3.3-4.24,3.3-2.92,0-4.15-1.87-4.45-4.84-.59-5.43,7.61-6.76,8.6-1.77l-2.42.1a1.66,1.66,0,0,0-1.73-1.58c-1.48,0-1.73,1.38-1.88,3.16-.29,3.65,3.21,4.29,3.66,1.48"/>
  <path class="cls-2" d="m924.45 269.36c3.16 0 4.74 1.77 4.74 4.89s-1.73 4.88-4.79 4.88-4.69-1.77-4.69-4.88 1.68-4.89 4.74-4.89zm-0.05 8.1c1.73 0 2.22-1.39 2.22-3.21 0-2-0.49-3.21-2.12-3.21s-2.22 1.28-2.22 3.21c0 1.77 0.49 3.21 2.12 3.21" data-name="hc"/>
  <path id="hd" class="cls-2" d="m931.07 278.94v-12.89h2.47v12.89h-2.47"/>
 </g>
 <path class="cls-3" d="m812.5 509.88v99.44"/>
 <path class="cls-4" d="m813.5 509.9h-2v-1h2"/>
 <path class="cls-5" d="m812.5 624.6-4.64-14.28h9.28z"/>
 <g id="cm">
  <path id="hG" class="cls-2" d="M618.43,599.32V587.08h9.63v2H621v3.11h6.52v2H621v3.21h7.41v2h-10"/>
  <path id="gZ" class="cls-2" d="m635.41 599.32h-2.91l-3.36-9.38h2.62l2.22 7.41 2.37-7.41h2.57"/>
  <path class="cls-2" d="M648.1,597a4,4,0,0,1-4,2.57c-3-.1-4.4-1.83-4.4-4.94s1.48-4.84,4.44-4.84,4.1,2.23,4.15,5.34h-6c0,1.53.39,2.71,1.92,2.76a1.51,1.51,0,0,0,1.68-1.08Zm-2.22-3.4c.25-2.28-2.81-3.12-3.45-1a3.21,3.21,0,0,0-.2,1h3.65" data-name="gX"/>
  <path id="ho" class="cls-2" d="M655.51,589.74c4.3,0,2.87,5.58,3.11,9.58h-2.47c-.34-2.81,1.14-7.75-1.67-7.75s-1.68,4.79-1.93,7.75h-2.47l-.05-9.38h2.32a11.11,11.11,0,0,0,.15,1.88,3.07,3.07,0,0,1,3-2.08"/>
  <path class="cls-2" d="M665.34,599.18c-1.78.69-4.3.34-4.3-2.08v-5.53h-1.18v-1.63h1.33l.74-2.22h1.53v2.22h1.78v1.63h-1.78v4.89c-.05,1.14.79,1.53,1.88,1.23v1.49" data-name="hk"/>
 </g>
 <g id="cn">
  <path id="hH" class="cls-2" d="M679.46,592.9c1.83.2,3.06,1.09,3.06,2.92,0,4.64-6.32,3.31-10.86,3.5V587.08c4.15.24,10-1.14,10.12,3.11A2.59,2.59,0,0,1,679.46,592.9Zm-5.23-.89c2-.14,5,.65,5-1.48s-3-1.38-5-1.53Zm0,5.44c2.37-.15,5.73.69,5.73-1.83s-3.41-1.58-5.73-1.73v3.56"/>
  <path class="cls-2" d="M689.93,591.92c-1.92-.6-3,.64-3,2.81v4.59H684.5l0-9.38h2.32a12.35,12.35,0,0,0,.15,2c.3-1.39,1.33-2.62,3-2v2" data-name="gY"/>
  <path class="cls-2" d="m695.61 589.74c3.16 0 4.74 1.78 4.74 4.89s-1.73 4.89-4.79 4.89-4.69-1.78-4.69-4.89 1.68-4.89 4.74-4.89zm-0.05 8.1c1.73 0 2.22-1.38 2.22-3.21s-0.49-3.21-2.12-3.21-2.22 1.29-2.22 3.21 0.49 3.21 2.12 3.21" data-name="hc"/>
  <path id="hx" class="cls-2" d="m708.25 599.32-2.52-4.24-1 0.74v3.5h-2.47v-12.89h2.47v7.41l3.31-3.9h2.61l-3.26 3.66 3.56 5.72h-2.67"/>
  <path class="cls-2" d="M720,597a4,4,0,0,1-4,2.57c-3-.1-4.4-1.83-4.4-4.94s1.48-4.84,4.45-4.84,4.09,2.23,4.14,5.34h-6c0,1.53.39,2.71,1.93,2.76a1.51,1.51,0,0,0,1.67-1.08Zm-2.23-3.4c.25-2.28-2.81-3.12-3.45-1a3.21,3.21,0,0,0-.2,1h3.65" data-name="gX"/>
  <path class="cls-2" d="M727.41,591.92c-1.92-.6-3,.64-3,2.81v4.59H722l-.05-9.38h2.32a12.35,12.35,0,0,0,.15,2c.3-1.39,1.33-2.62,3-2v2" data-name="gY"/>
 </g>
 <g id="co">
  <path class="cls-2" d="M733.78,587.08c4.6,0,10.18-.79,10.08,3.9-.05,3.7-3.41,4.34-7.51,4v4.29h-2.57Zm2.57,6c2.32,0,4.94.35,4.94-2s-2.67-1.93-4.94-1.93v3.95" data-name="hz"/>
  <path class="cls-2" d="M751.12,591.92c-1.93-.6-3,.64-3,2.81v4.59h-2.46l-.05-9.38H748a13.67,13.67,0,0,0,.14,2c.3-1.39,1.34-2.62,3-2v2" data-name="gY"/>
  <path class="cls-2" d="m756.8 589.74c3.16 0 4.74 1.78 4.74 4.89s-1.73 4.89-4.79 4.89-4.69-1.78-4.69-4.89 1.67-4.89 4.74-4.89zm0 8.1c1.73 0 2.22-1.38 2.22-3.21s-0.49-3.21-2.12-3.21-2.23 1.29-2.23 3.21 0.5 3.21 2.13 3.21" data-name="hc"/>
  <path class="cls-2" d="M767.86,599.18c-1.78.69-4.3.34-4.3-2.08v-5.53h-1.18v-1.63h1.33l.74-2.22H766v2.22h1.78v1.63H766v4.89c-.05,1.14.79,1.53,1.88,1.23v1.49" data-name="hk"/>
  <path class="cls-2" d="m773.49 589.74c3.16 0 4.74 1.78 4.74 4.89s-1.73 4.89-4.79 4.89-4.69-1.78-4.69-4.89 1.68-4.89 4.74-4.89zm0 8.1c1.73 0 2.22-1.38 2.22-3.21s-0.49-3.21-2.12-3.21-2.23 1.29-2.23 3.21 0.5 3.21 2.13 3.21" data-name="hc"/>
  <path class="cls-2" d="M788.25,596.21c-.34,2.08-1.87,3.31-4.24,3.31-2.92,0-4.15-1.88-4.45-4.84-.59-5.43,7.61-6.76,8.59-1.78l-2.42.1a1.65,1.65,0,0,0-1.72-1.58c-1.49,0-1.73,1.39-1.88,3.16-.3,3.66,3.21,4.3,3.65,1.48" data-name="ht"/>
  <path class="cls-2" d="m794.18 589.74c3.16 0 4.74 1.78 4.74 4.89s-1.73 4.89-4.79 4.89-4.69-1.78-4.69-4.89 1.68-4.89 4.74-4.89zm0 8.1c1.73 0 2.22-1.38 2.22-3.21s-0.49-3.21-2.12-3.21-2.22 1.29-2.22 3.21 0.49 3.21 2.12 3.21" data-name="hc"/>
  <path class="cls-2" d="m800.8 599.32v-12.89h2.47v12.89h-2.47" data-name="hd"/>
 </g>
 <path class="cls-1" d="m87.94 305.63a6 6 0 0 1 6-6h148a6 6 0 0 1 6 6v108a6 6 0 0 1-6 6h-148a6 6 0 0 1-6-6z"/>
 <g data-name="as">
  <path class="cls-2" d="M148.46,324.83v5.68H157v1.73h-8.52v6.17h-2V323.1h10.81v1.73h-8.77" data-name="gv"/>
  <path class="cls-2" d="M159.57,338.41V322.3h2v16.11h-2" data-name="gw"/>
  <path class="cls-2" d="m169.14 326.43c3.83-0.06 5.25 2.29 5.25 6.11s-1.67 6.12-5.31 6.12-5.12-2.41-5.19-6.12c0-4.07 1.73-6.11 5.25-6.11zm-0.06 10.74c2.72 0.07 3.27-1.91 3.27-4.63s-0.49-4.62-3.15-4.62-3.27 2-3.27 4.62 0.62 4.57 3.15 4.63" data-name="gi"/>
  <path class="cls-2" d="m188 338.41h-2.22l-2.47-10.12-2.53 10.12h-2.22l-3.34-11.73h2l2.4 10.12 2.66-10.12h2.1l2.53 10.12 2.59-10.12h1.91" data-name="gh"/>
 </g>
 <g id="at">
  <path class="cls-2" d="M120.47,365.08l-8.15-13,.06,13h-1.79V349.77H113l8.21,13.15-.12-13.15H123v15.31h-2.53" data-name="ge"/>
  <path class="cls-2" d="M133.43,362.85c-.92,1.3-1.91,2.53-4.2,2.47s-3.58-1.29-3.58-3.52c-.06-3.95,3.89-3.88,7.72-3.88.18-2.17-.56-3.34-2.53-3.34-1.48.06-2.53.43-2.59,1.92l-2-.19c.31-2.28,2-3.21,4.69-3.21s4.44,1.23,4.44,3.95v5.06c-.06,1.24.44,2,1.73,1.67V365C135.16,365.57,133.31,364.89,133.43,362.85Zm-5.74-1.05a1.87,1.87,0,0,0,2,2c2.53-.18,3.88-1.79,3.7-4.57-2.65.13-5.68-.31-5.68,2.53" data-name="gm"/>
  <path class="cls-2" d="M150,354.64c-4.14.19-2.35,6.49-2.72,10.44h-1.91v-7.47c0-1.79-.31-3.09-2.16-3-4.08.25-2.35,6.42-2.72,10.44h-1.91l-.07-11.73h1.86a9.48,9.48,0,0,0,.12,2c.62-2.71,6.11-3.08,6.6,0a3.8,3.8,0,0,1,3.59-2.22c5.24-.12,2.9,7.35,3.39,12H152.2v-7.47c0-1.79-.31-3-2.16-3" data-name="gB"/>
  <path class="cls-2" d="M161.7,353.1c3.89,0,5.31,2.59,5.19,6.54h-8.34c0,2.47.87,4.14,3.28,4.2a2.87,2.87,0,0,0,3-1.79l1.73.49c-.68,1.73-2.28,2.78-4.75,2.78-3.58,0-5.44-2.28-5.37-6.17S158.06,353.1,161.7,353.1Zm3.21,5c.37-3.7-4.69-4.75-6-1.73a4.58,4.58,0,0,0-.37,1.73h6.36" data-name="gf"/>
  <path class="cls-2" d="M176.21,356.25c-.19-2.1-5.31-2.35-5.37,0,.92,3.27,7.1.74,7.34,5.55s-9.26,4.57-9.69.5l1.73-.31c.25,2.22,6,2.78,6.05,0-.62-3.46-7-.93-7.28-5.56-.25-3.51,5.06-3.89,7.53-2.59A3.11,3.11,0,0,1,178,356" data-name="gt"/>
  <path class="cls-2" d="M186.09,353.1c3.39.06,4.32,2.53,4.32,6s-1,6.05-4.32,6.17a3.79,3.79,0,0,1-3.71-2.1l.06,6.49h-2l-.06-16.36h1.91l.12,1.85A3.64,3.64,0,0,1,186.09,353.1Zm-.5,10.74c2.47,0,2.78-2.1,2.78-4.63s-.37-4.5-2.78-4.57c-2.59,0-3.15,2-3.15,4.69s.62,4.51,3.15,4.51" data-name="gp"/>
  <path class="cls-2" d="M200,362.85c-.93,1.3-1.92,2.53-4.2,2.47s-3.58-1.29-3.58-3.52c-.06-3.95,3.89-3.88,7.71-3.88.19-2.17-.55-3.34-2.53-3.34-1.48.06-2.53.43-2.59,1.92l-2-.19c.31-2.28,2-3.21,4.7-3.21s4.44,1.23,4.44,3.95v5.06c-.06,1.24.43,2,1.73,1.67V365C201.76,365.57,199.91,364.89,200,362.85Zm-5.74-1.05a1.86,1.86,0,0,0,2,2c2.53-.18,3.89-1.79,3.7-4.57-2.65.13-5.67-.31-5.67,2.53" data-name="gm"/>
  <path class="cls-2" d="M209.6,354.64c-2.47,0-3,2-3,4.51s.56,4.63,3,4.63a2.46,2.46,0,0,0,2.66-2.35l2,.13a4.23,4.23,0,0,1-4.56,3.76c-3.65,0-4.7-2.53-5.07-6.11-.61-5.74,6.24-8.08,9.08-3.95a5.14,5.14,0,0,1,.43,1.36l-2,.18a2.36,2.36,0,0,0-2.53-2.16" data-name="go"/>
  <path class="cls-2" d="M221,353.1c3.89,0,5.31,2.59,5.19,6.54h-8.34c0,2.47.87,4.14,3.28,4.2a2.87,2.87,0,0,0,3-1.79l1.73.49c-.68,1.73-2.29,2.78-4.75,2.78-3.58,0-5.44-2.28-5.37-6.17S217.32,353.1,221,353.1Zm3.21,5c.37-3.7-4.69-4.75-6-1.73a4.58,4.58,0,0,0-.37,1.73h6.36" data-name="gf"/>
 </g>
 <g id="cK">
  <path class="cls-2" d="M126.76,386c-.06,4-2.46,6-6.42,6-3.76,0-6.17-2-6.17-5.8v-9.76h2c.49,5.5-2,13.83,4.13,13.83s4-8.21,4.39-13.83h2V386" data-name="gS"/>
  <path class="cls-2" d="M136.76,382.92c-.18-2.1-5.3-2.35-5.37,0,.93,3.27,7.1.74,7.35,5.55s-9.26,4.57-9.69.49l1.73-.3c.24,2.22,6,2.77,6.05,0-.62-3.46-7-.93-7.29-5.56-.24-3.52,5.06-3.89,7.53-2.59a3.08,3.08,0,0,1,1.48,2.16" data-name="gt"/>
  <path class="cls-2" d="m145.71 379.77c3.89 0 5.31 2.59 5.19 6.54h-8.33c0 2.47 0.86 4.14 3.27 4.2a2.87 2.87 0 0 0 3-1.79l1.73 0.49c-0.68 1.73-2.28 2.78-4.75 2.78-3.58 0-5.43-2.28-5.37-6.17s1.62-6.05 5.26-6.05zm3.21 5c0.38-3.71-4.69-4.76-6-1.73a4.39 4.39 0 0 0-0.37 1.73h6.35" data-name="gf"/>
  <path class="cls-2" d="M158.92,381.68c-4.81-1-3.27,5.62-3.51,10.06h-2L153.37,380h1.85a15.43,15.43,0,0,0,.12,2.41c.37-1.67,1.42-3,3.58-2.53v1.79" data-name="gj"/>
 </g>
 <g id="aD">
  <path class="cls-2" d="m178.06 391.74-1.73-4.44h-7l-1.73 4.44h-2.16l6.23-15.31h2.35l6.11 15.31zm-2.34-6.11-2.91-7.63c-0.74 2.78-1.91 5.06-2.84 7.59h5.75" data-name="gy"/>
  <path class="cls-2" d="M191.15,380c-.62,7.72,2.53,18.09-6.79,16.12a3.54,3.54,0,0,1-2.72-2.66l2-.31c.92,2.9,6.17,2,5.49-1.73v-1.85a3.9,3.9,0,0,1-3.77,2.22c-3.33,0-4.19-2.53-4.19-5.92s1-6,4.38-6.05a4,4,0,0,1,3.64,2.16,17.79,17.79,0,0,1,.13-2ZM186,390.38c2.23,0,3.09-2,3.09-4.5s-.86-4.63-3.09-4.63c-2.4,0-2.84,2.1-2.84,4.63s.37,4.5,2.84,4.5" data-name="gx"/>
  <path class="cls-2" d="M198.74,379.77c3.89,0,5.31,2.59,5.19,6.54h-8.34c0,2.47.87,4.14,3.27,4.2a2.88,2.88,0,0,0,3-1.79l1.73.49c-.68,1.73-2.29,2.78-4.76,2.78-3.58,0-5.43-2.28-5.37-6.17S195.1,379.77,198.74,379.77Zm3.21,5c.37-3.71-4.69-4.76-6-1.73a4.58,4.58,0,0,0-.37,1.73H202" data-name="gf"/>
  <path class="cls-2" d="M212.13,379.77c5.5-.25,3.28,7.16,3.71,12h-2v-7.47c0-1.91-.49-3-2.4-3-4.45.12-2.72,6.3-3,10.43h-2L206.39,380h1.86a9.54,9.54,0,0,0,.12,2,3.9,3.9,0,0,1,3.76-2.22" data-name="gq"/>
  <path class="cls-2" d="M220.9,388.84c-.12,1.48,1.11,1.79,2.35,1.36v1.48c-2,.62-4.32.31-4.32-2.41v-7.84h-1.36V380h1.48l.55-2.65h1.3V380h2.16v1.42H220.9v7.41" data-name="gg"/>
 </g>
 <path class="cls-1" d="m1378.3 122.63a6 6 0 0 1 6-6h148a6 6 0 0 1 6 6v108a6 6 0 0 1-6 6h-148a6 6 0 0 1-6-6z"/>
 <g id="bD">
  <path class="cls-2" d="M1436.72,167.1c7.28-.43,13.33.49,13.15,7.53-.19,4.82-2.66,7.78-7.47,7.78h-5.68Zm2,13.64c5.49.5,9-1,9-6.11s-3.7-6.23-9-5.86v12" data-name="gK"/>
  <path class="cls-2" d="M1462.58,182.41l-8.14-13,.06,13h-1.79V167.1h2.41l8.21,13.15-.13-13.15h1.92v15.31h-2.54" data-name="ge"/>
  <path class="cls-2" d="M1478.26,170.74c-.3-3-7.59-3.33-7.65.13.86,4.63,9.75.86,10.06,7.34.19,4.82-7.47,5.37-10.8,3.4a4.44,4.44,0,0,1-2-2.84l2-.44c.31,3.46,8.7,3.89,8.7-.06,0-4.81-9.57-.86-10-7.28-.31-5.06,9-5.19,11-2.1a5.67,5.67,0,0,1,.68,1.54" data-name="gG"/>
 </g>
 <path class="cls-3" d="m895 178.13h463.26"/>
 <path class="cls-4" d="m895 179.13h-1v-2h1"/>
 <path class="cls-5" d="m1373.5 178.13-14.27 4.64v-9.27z"/>
 <g data-name="ct">
  <path class="cls-2" d="M1079.43,184.11c5.93-.35,11,.24,10.91,6,0,4-2.17,6.22-6,6.22h-4.94Zm2.57,10.27c3.65.34,5.78-.89,5.78-4.25s-2.23-4.34-5.78-4v8.3" data-name="hv"/>
  <path class="cls-2" d="M1099.68,196.35l-5.34-9.43c.3,2.87.1,6.32.15,9.43h-2.27V184.11h2.91l5.44,9.53c-.3-2.87-.1-6.37-.15-9.53h2.27v12.24h-3" data-name="gU"/>
  <path class="cls-2" d="M1112.17,187.37c-.05-2.13-4.64-2.28-4.79-.15.89,3.26,7.46.49,7.61,5.63.14,4.69-8.15,4.59-10.08,1.77a3.63,3.63,0,0,1-.59-1.48l2.47-.39c.15,2.27,5.53,2.76,5.73.25-.84-3.41-7.41-.5-7.61-5.63-.19-4.3,7.56-4.35,9.29-1.73a4.35,4.35,0,0,1,.49,1.38" data-name="gW"/>
 </g>
 <g data-name="cu">
  <path class="cls-2" d="M1121.8,184.11c4.59,0,10.17-.79,10.08,3.9-.05,3.7-3.41,4.34-7.51,4.05v4.29h-2.57Zm2.57,6c2.32,0,4.94.35,4.94-2s-2.67-1.93-4.94-1.93v4" data-name="hz"/>
  <path class="cls-2" d="M1139.14,189c-1.93-.6-3,.64-3,2.81v4.59h-2.47l0-9.38H1136a13.62,13.62,0,0,0,.15,2c.3-1.39,1.34-2.62,3-2v2" data-name="gY"/>
  <path class="cls-2" d="m1144.8 186.77c3.16 0 4.74 1.78 4.74 4.89s-1.72 4.89-4.79 4.89-4.69-1.78-4.69-4.89 1.68-4.89 4.74-4.89zm0 8.1c1.73 0 2.23-1.38 2.23-3.21s-0.5-3.21-2.13-3.21-2.22 1.29-2.22 3.21 0.5 3.21 2.12 3.21" data-name="hc"/>
  <path class="cls-2" d="M1155.88,196.21c-1.78.69-4.3.34-4.3-2.08V188.6h-1.19V187h1.34l.74-2.22H1154V187h1.78v1.63H1154v4.89c0,1.13.79,1.53,1.88,1.23v1.49" data-name="hk"/>
  <path class="cls-2" d="m1161.5 186.77c3.16 0 4.74 1.78 4.74 4.89s-1.73 4.89-4.79 4.89-4.7-1.78-4.7-4.89 1.68-4.89 4.75-4.89zm0 8.1c1.72 0 2.22-1.38 2.22-3.21s-0.5-3.21-2.13-3.21-2.22 1.29-2.22 3.21 0.5 3.21 2.13 3.21" data-name="hc"/>
  <path class="cls-2" d="M1176.27,193.24c-.34,2.08-1.88,3.31-4.25,3.31-2.91,0-4.14-1.88-4.44-4.84-.59-5.43,7.6-6.76,8.59-1.78l-2.42.1a1.66,1.66,0,0,0-1.73-1.58c-1.48,0-1.72,1.38-1.87,3.16-.3,3.66,3.21,4.3,3.65,1.48" data-name="ht"/>
  <path class="cls-2" d="m1182.2 186.77c3.16 0 4.74 1.78 4.74 4.89s-1.73 4.89-4.79 4.89-4.69-1.78-4.69-4.89 1.68-4.89 4.74-4.89zm0 8.1c1.73 0 2.22-1.38 2.22-3.21s-0.49-3.21-2.12-3.21-2.23 1.29-2.23 3.21 0.5 3.21 2.13 3.21" data-name="hc"/>
  <path class="cls-2" d="m1188.8 196.35v-12.89h2.47v12.89h-2.47" data-name="hd"/>
 </g>
 <path class="cls-3" d="m866.17 509.88v66.17a6 6 0 0 0 6 6h292.77a6 6 0 0 1 6 6v235.42"/>
 <path class="cls-4" d="m867.17 509.9h-2v-1h2"/>
 <path class="cls-3" d="M1160.25,805.94,1171,824"/>
 <g id="cz">
  <path class="cls-2" d="m1035.5 570.94v-12.25h2.52v12.25h-2.56" data-name="hh"/>
  <path class="cls-2" d="M1040.41,558.69c4.6,0,10.18-.79,10.08,3.9,0,3.7-3.41,4.35-7.51,4v4.3h-2.57Zm2.57,6c2.32,0,4.94.34,4.94-2s-2.67-1.93-4.94-1.93v4" data-name="hz"/>
  <path id="hp" class="cls-2" d="M1054.39,564.76c0,2.62,1,4.3,3.6,4.35a3.25,3.25,0,0,0,3.21-2.32l2.23.84a5.38,5.38,0,0,1-5.44,3.5c-4,0-5.92-2.27-6.17-6.37-.34-5.43,5.38-7.7,9.68-5.28a4.21,4.21,0,0,1,1.78,2.47l-2.27.59a3,3,0,0,0-3.07-2c-2.56,0-3.5,1.68-3.55,4.24"/>
 </g>
 <path class="cls-3" d="m250.44 359.5h456.08m-456.08 4h456.08"/>
 <path class="cls-4" d="m250.46 360.5h-1v-2h1m0 6h-1v-2h1"/>
 <path class="cls-7" d="m729 361.5-21.5 12.73v-25.46z"/>
 <g id="cB">
  <path class="cls-2" d="M384,369.45v3.8h6.28v2H384v4.49h-2.56V367.48h9v2H384" data-name="gT"/>
  <path class="cls-2" d="m392.29 379.72v-12.89h2.47v12.89h-2.47" data-name="hd"/>
  <path class="cls-2" d="m401.43 370.14c3.16 0 4.74 1.78 4.74 4.89s-1.73 4.89-4.79 4.89-4.69-1.78-4.69-4.89 1.67-4.89 4.74-4.89zm-0.05 8.1c1.72 0 2.22-1.38 2.22-3.21s-0.5-3.21-2.12-3.21-2.23 1.28-2.23 3.21 0.5 3.21 2.13 3.21" data-name="hc"/>
  <path id="hf" class="cls-2" d="M418.22,379.72h-2.57l-1.93-7.65-2,7.65h-2.57l-2.42-9.38H409l1.58,7.16c.45-2.57,1.19-4.79,1.78-7.16H415l1.82,7.16,1.58-7.16h2.28"/>
 </g>
 <g id="cC">
  <path class="cls-2" d="M434.22,379.72l-5.34-9.43c.3,2.86.1,6.32.15,9.43h-2.27V367.48h2.91L435.1,377c-.29-2.87-.09-6.37-.14-9.53h2.27v12.24h-3" data-name="gU"/>
  <path id="hn" class="cls-2" d="M444.93,378c-.79.94-1.48,1.93-3.16,1.88a2.6,2.6,0,0,1-2.86-2.86c-.05-3,2.71-3.12,5.73-3,.05-1.28-.15-2.32-1.39-2.32a1.29,1.29,0,0,0-1.38,1.34l-2.57-.1c.35-1.88,1.78-2.87,4.05-2.82s3.66,1.09,3.71,3.36l0,4.05c0,.69.6.89,1.24.74v1.33C446.86,380,444.83,379.87,444.93,378Zm-2.37.15c1.43,0,2.13-1.18,2.08-2.81-1.58,0-3.26-.15-3.21,1.48,0,.84.39,1.33,1.13,1.33"/>
  <path id="hr" class="cls-2" d="M459.1,372c-2.61.44-1.38,4.94-1.67,7.75H455v-5.28c.05-1.34-.25-2.42-1.44-2.47-2.61.49-1.33,4.94-1.63,7.75h-2.46l-.05-9.38h2.32a12.29,12.29,0,0,0,.14,1.88c.5-2.62,5-2.77,5.34,0,.64-1.09,1.18-2.13,2.91-2.08,4.05.05,2.52,5.73,2.82,9.58h-2.42v-5.28c-.05-1.24-.25-2.37-1.44-2.47"/>
  <path class="cls-2" d="M473.18,377.35a4,4,0,0,1-4.05,2.57c-3-.1-4.4-1.83-4.4-4.94s1.49-4.84,4.45-4.84,4.1,2.22,4.15,5.34h-6c0,1.53.4,2.71,1.93,2.76a1.51,1.51,0,0,0,1.68-1.09ZM471,373.94c.24-2.27-2.82-3.11-3.46-1a3.14,3.14,0,0,0-.2,1H471" data-name="gX"/>
  <path id="hb" class="cls-2" d="M480.69,372.91c0-1.43-3.46-1.68-3.51-.2.74,2.27,5.83.35,5.88,4.25,0,4.1-8.1,3.75-8.5.44l2.13-.34c.19.93,1,1.23,2.17,1.23,1.63.4,2.81-1.48,1.18-2-2.12-.7-5-.55-5.13-3.26-.1-3.95,7.6-3.66,7.95-.35"/>
  <path id="hl" class="cls-2" d="M490.46,370.14c2.62,0,3.46,2.17,3.46,4.84s-.94,4.84-3.61,4.94a3.37,3.37,0,0,1-2.91-1.68c.15,1.63.1,3.41.1,5.19H485l0-13.09h2.37a13.22,13.22,0,0,0,.15,1.53A2.86,2.86,0,0,1,490.46,370.14Zm-1,8.1c1.63,0,1.92-1.53,2-3.26,0-1.88-.44-3.16-2-3.16-2.77,0-2.72,6.42,0,6.42"/>
  <path class="cls-2" d="M501.18,378c-.79.94-1.48,1.93-3.16,1.88a2.6,2.6,0,0,1-2.87-2.86c0-3,2.72-3.12,5.73-3,.05-1.28-.15-2.32-1.38-2.32a1.29,1.29,0,0,0-1.38,1.34l-2.57-.1c.34-1.88,1.78-2.87,4.05-2.82s3.65,1.09,3.7,3.36l.05,4.05c-.05.69.59.89,1.24.74v1.33C503.1,380,501.08,379.87,501.18,378Zm-2.37.15c1.43,0,2.12-1.18,2.07-2.81-1.58,0-3.26-.15-3.21,1.48,0,.84.4,1.33,1.14,1.33" data-name="hn"/>
  <path class="cls-2" d="M513.87,376.61c-.35,2.08-1.88,3.31-4.25,3.31-2.91,0-4.14-1.88-4.44-4.84-.59-5.43,7.6-6.77,8.59-1.78l-2.42.1a1.66,1.66,0,0,0-1.73-1.58c-1.48,0-1.73,1.38-1.87,3.16-.3,3.66,3.21,4.3,3.65,1.48" data-name="ht"/>
  <path class="cls-2" d="M523.5,377.35a4,4,0,0,1-4,2.57c-3-.1-4.39-1.83-4.39-4.94s1.48-4.84,4.44-4.84,4.1,2.22,4.15,5.34h-6c0,1.53.4,2.71,1.93,2.76a1.51,1.51,0,0,0,1.68-1.09Zm-2.22-3.41c.24-2.27-2.82-3.11-3.46-1a3.14,3.14,0,0,0-.2,1h3.66" data-name="gX"/>
 </g>
 <g id="cD">
  <path class="cls-2" d="m539 379.72-1.09-3.11h-4.64l-1.09 3.11h-2.57l4.45-12.24h3l4.44 12.24zm-1.63-5-1.78-5.34c-0.49 1.88-1.19 3.56-1.78 5.34h3.56" data-name="gV"/>
  <path class="cls-2" d="M551.35,376.61c-.34,2.08-1.87,3.31-4.24,3.31-2.92,0-4.15-1.88-4.45-4.84-.59-5.43,7.61-6.77,8.59-1.78l-2.42.1a1.65,1.65,0,0,0-1.72-1.58c-1.49,0-1.73,1.38-1.88,3.16-.3,3.66,3.21,4.3,3.65,1.48" data-name="ht"/>
  <path class="cls-2" d="M561.23,376.61c-.35,2.08-1.88,3.31-4.25,3.31-2.91,0-4.15-1.88-4.44-4.84-.6-5.43,7.6-6.77,8.59-1.78l-2.42.1a1.66,1.66,0,0,0-1.73-1.58c-1.48,0-1.73,1.38-1.87,3.16-.3,3.66,3.21,4.3,3.65,1.48" data-name="ht"/>
  <path class="cls-2" d="M570.86,377.35a4,4,0,0,1-4.05,2.57c-3-.1-4.4-1.83-4.4-4.94s1.49-4.84,4.45-4.84,4.1,2.22,4.15,5.34h-6c0,1.53.4,2.71,1.93,2.76a1.51,1.51,0,0,0,1.68-1.09Zm-2.22-3.41c.24-2.27-2.82-3.11-3.46-1a3.14,3.14,0,0,0-.2,1h3.66" data-name="gX"/>
  <path class="cls-2" d="M578.36,372.91c0-1.43-3.45-1.68-3.5-.2.74,2.27,5.83.35,5.87,4.25,0,4.1-8.09,3.75-8.49.44l2.12-.34c.2.93,1,1.23,2.18,1.23,1.63.4,2.81-1.48,1.18-2-2.12-.7-5-.55-5.13-3.26-.1-3.95,7.6-3.66,7.95-.35" data-name="hb"/>
  <path class="cls-2" d="M588.24,372.91c0-1.43-3.46-1.68-3.51-.2.75,2.27,5.83.35,5.88,4.25,0,4.1-8.1,3.75-8.49.44l2.12-.34c.2.93,1,1.23,2.17,1.23,1.63.4,2.82-1.48,1.19-2-2.12-.7-5-.55-5.14-3.26-.1-3.95,7.61-3.66,7.95-.35" data-name="hb"/>
  <path id="hj" class="cls-2" d="m592.59 368.66v-1.83h2.47v1.83zm0 11.06v-9.38h2.47v9.38h-2.47"/>
  <path class="cls-2" d="M603,370.14c4.29-.05,2.86,5.58,3.11,9.58H603.6c-.35-2.81,1.13-7.75-1.68-7.75s-1.68,4.79-1.93,7.75h-2.47l0-9.38h2.32a12.29,12.29,0,0,0,.14,1.88,3.09,3.09,0,0,1,3-2.08" data-name="ho"/>
  <path id="hi" class="cls-2" d="M616.73,379.43c.55,4.34-5.92,5.23-8.09,2.56a3.16,3.16,0,0,1-.4-1l2.42-.3a1.6,1.6,0,0,0,1.68,1.24c2,0,2.07-1.83,2-3.91a3.08,3.08,0,0,1-3,1.73c-2.61,0-3.45-2.12-3.45-4.79s.88-4.74,3.6-4.79a3.18,3.18,0,0,1,2.91,1.68l.1-1.48h2.32ZM612.29,378c1.58,0,2-1.33,2-3.11s-.45-3.06-2-3.06-1.93,1.43-2,3.11.45,3.06,1.93,3.06"/>
 </g>
 <g data-name="co">
  <path class="cls-2" d="M624,367.48c4.6,0,10.18-.79,10.08,3.9,0,3.7-3.41,4.34-7.51,4.05v4.29H624Zm2.57,6c2.32,0,4.94.35,4.94-2s-2.67-1.93-4.94-1.93v3.95" data-name="hz"/>
  <path class="cls-2" d="M641.38,372.31c-1.93-.59-3,.65-3,2.82v4.59h-2.47l-.05-9.38h2.33a12.17,12.17,0,0,0,.14,2c.3-1.38,1.34-2.61,3-2v2" data-name="gY"/>
  <path class="cls-2" d="m647.06 370.14c3.16 0 4.74 1.78 4.74 4.89s-1.73 4.89-4.79 4.89-4.7-1.78-4.7-4.89 1.69-4.89 4.75-4.89zm0 8.1c1.72 0 2.22-1.38 2.22-3.21s-0.5-3.21-2.13-3.21-2.22 1.28-2.22 3.21 0.5 3.21 2.13 3.21" data-name="hc"/>
  <path class="cls-2" d="M658.12,379.57c-1.78.7-4.3.35-4.3-2.07V372h-1.18v-1.63H654l.74-2.22h1.53v2.22H658V372h-1.78v4.89c0,1.13.79,1.53,1.88,1.23v1.48" data-name="hk"/>
  <path class="cls-2" d="m663.75 370.14c3.16 0 4.74 1.78 4.74 4.89s-1.73 4.89-4.79 4.89-4.7-1.78-4.7-4.92 1.69-4.86 4.75-4.86zm0 8.1c1.73 0 2.22-1.38 2.22-3.21s-0.49-3.21-2.12-3.21-2.23 1.28-2.23 3.21 0.5 3.21 2.13 3.21" data-name="hc"/>
  <path class="cls-2" d="M678.51,376.61c-.34,2.08-1.87,3.31-4.24,3.31-2.92,0-4.15-1.88-4.45-4.84-.59-5.43,7.61-6.77,8.59-1.78l-2.42.1a1.65,1.65,0,0,0-1.72-1.58c-1.49,0-1.73,1.38-1.88,3.16-.3,3.66,3.21,4.3,3.65,1.48" data-name="ht"/>
  <path class="cls-2" d="m684.44 370.14c3.16 0 4.74 1.78 4.74 4.89s-1.73 4.89-4.79 4.89-4.69-1.78-4.69-4.89 1.68-4.89 4.74-4.89zm-0.05 8.1c1.73 0 2.22-1.38 2.22-3.21s-0.49-3.21-2.12-3.21-2.22 1.28-2.22 3.21 0.49 3.21 2.12 3.21" data-name="hc"/>
  <path class="cls-2" d="m691.06 379.72v-12.89h2.46v12.89h-2.46" data-name="hd"/>
 </g>
 <path class="cls-3" d="M167.94,297.13v-113a6,6,0,0,1,6-6H712.5"/>
 <path class="cls-4" d="m168.94 298.13h-2v-1h2"/>
 <path class="cls-5" d="m727.76 178.13-14.26 4.64v-9.27z"/>
 <g data-name="ct">
  <path class="cls-2" d="M417.53,184.11c5.92-.35,11,.24,10.91,6-.05,4-2.17,6.22-6,6.22h-4.94Zm2.57,10.27c3.65.34,5.77-.89,5.77-4.25s-2.22-4.34-5.77-4v8.3" data-name="hv"/>
  <path class="cls-2" d="M437.77,196.35l-5.33-9.43c.3,2.87.1,6.32.15,9.43h-2.27V184.11h2.91l5.43,9.53c-.29-2.87-.1-6.37-.14-9.53h2.27v12.24h-3" data-name="gU"/>
  <path class="cls-2" d="M450.27,187.37c0-2.13-4.64-2.28-4.79-.15.89,3.26,7.46.49,7.6,5.63.15,4.69-8.14,4.59-10.07,1.77a3.5,3.5,0,0,1-.59-1.48l2.47-.39c.14,2.27,5.53,2.76,5.72.25-.84-3.41-7.4-.5-7.6-5.63-.2-4.3,7.55-4.35,9.28-1.73a4.13,4.13,0,0,1,.5,1.38" data-name="gW"/>
 </g>
 <g data-name="cu">
  <path class="cls-2" d="M459.9,184.11c4.59,0,10.17-.79,10.07,3.9-.05,3.7-3.41,4.34-7.5,4.05v4.29H459.9Zm2.57,6c2.32,0,4.93.35,4.93-2s-2.66-1.93-4.93-1.93v4" data-name="hz"/>
  <path class="cls-2" d="M477.23,189c-1.92-.6-3,.64-3,2.81v4.59H471.8l-.05-9.38h2.32a12.35,12.35,0,0,0,.15,2c.3-1.39,1.33-2.62,3-2v2" data-name="gY"/>
  <path class="cls-2" d="m482.91 186.77c3.16 0 4.74 1.78 4.74 4.89s-1.73 4.89-4.79 4.89-4.69-1.78-4.69-4.89 1.68-4.89 4.74-4.89zm-0.05 8.1c1.73 0 2.22-1.38 2.22-3.21s-0.49-3.21-2.12-3.21-2.22 1.29-2.22 3.21 0.49 3.21 2.12 3.21" data-name="hc"/>
  <path class="cls-2" d="M494,196.21c-1.78.69-4.29.34-4.29-2.08V188.6h-1.19V187h1.33l.74-2.22h1.54V187h1.77v1.63H492.1v4.89c-.05,1.13.79,1.53,1.87,1.23v1.49" data-name="hk"/>
  <path class="cls-2" d="m499.6 186.77c3.16 0 4.74 1.78 4.74 4.89s-1.73 4.89-4.79 4.89-4.69-1.78-4.69-4.89 1.68-4.89 4.74-4.89zm-0.05 8.1c1.73 0 2.22-1.38 2.22-3.21s-0.49-3.21-2.12-3.21-2.22 1.29-2.22 3.21 0.49 3.21 2.12 3.21" data-name="hc"/>
  <path class="cls-2" d="M514.37,193.24c-.35,2.08-1.88,3.31-4.25,3.31-2.91,0-4.15-1.88-4.44-4.84-.6-5.43,7.6-6.76,8.59-1.78l-2.42.1a1.66,1.66,0,0,0-1.73-1.58c-1.48,0-1.73,1.38-1.88,3.16-.29,3.66,3.21,4.3,3.66,1.48" data-name="ht"/>
  <path class="cls-2" d="m520.29 186.77c3.16 0 4.74 1.78 4.74 4.89s-1.72 4.89-4.79 4.89-4.69-1.78-4.69-4.89 1.68-4.89 4.74-4.89zm0 8.1c1.73 0 2.23-1.38 2.23-3.21s-0.5-3.21-2.13-3.21-2.22 1.29-2.22 3.21 0.49 3.21 2.12 3.21" data-name="hc"/>
  <path class="cls-2" d="m526.91 196.35v-12.89h2.47v12.89h-2.47" data-name="hd"/>
 </g>
 <path class="cls-3" d="M167.94,422.13V712.05a6,6,0,0,0,6,6H712.5"/>
 <path class="cls-4" d="m168.94 422.16h-2v-1h2"/>
 <path class="cls-5" d="m727.76 718.05-14.26 4.63v-9.27z"/>
 <path class="cls-1" d="m401.5 453.38a6 6 0 0 1 6-6h148a6 6 0 0 1 6 6v118.75a6 6 0 0 1-6 6h-148a6 6 0 0 1-6-6z"/>
 <g id="cE">
  <path class="cls-2" d="m426.16 490.53v-15.3h2.1v15.3h-2.1" data-name="gr"/>
  <path class="cls-2" d="m435.54 478.56a3.9 3.9 0 0 1 3.71 2l-0.06-6.18h2l0.06 16.11h-1.85a17.26 17.26 0 0 0-0.18-1.91 3.52 3.52 0 0 1-3.65 2.16c-3.27 0-4.26-2.41-4.32-6-0.03-4.08 1.39-6.18 4.29-6.18zm0.56 1.48c-2.47 0-2.84 2.1-2.84 4.63s0.37 4.57 2.78 4.57c2.59 0 3.15-2 3.15-4.69s-0.56-4.57-3.09-4.51" data-name="gz"/>
  <path class="cls-2" d="m448.81 478.56c3.89 0 5.31 2.59 5.19 6.54h-8.33c0 2.47 0.86 4.14 3.27 4.2a2.87 2.87 0 0 0 3-1.79l1.73 0.49c-0.68 1.73-2.28 2.78-4.75 2.78-3.58 0-5.43-2.28-5.37-6.17s1.62-6.05 5.26-6.05zm3.21 5c0.38-3.71-4.69-4.75-6-1.73a4.39 4.39 0 0 0-0.37 1.73h6.35" data-name="gf"/>
  <path class="cls-2" d="M462.21,478.56c5.49-.25,3.27,7.16,3.7,12h-2v-7.47c0-1.91-.5-3-2.41-3-4.44.13-2.72,6.3-3,10.43h-2l-.06-11.72h1.85a10.22,10.22,0,0,0,.12,2,3.9,3.9,0,0,1,3.77-2.22" data-name="gq"/>
  <path class="cls-2" d="M471,487.63c-.13,1.48,1.11,1.79,2.34,1.36v1.48c-2,.62-4.32.31-4.32-2.41v-7.83h-1.36v-1.42h1.48l.56-2.66H471v2.66h2.16v1.42H471v7.4" data-name="gg"/>
  <path class="cls-2" d="m475 476.27v-1.85h2v1.85zm0 14.26v-11.72h2v11.72h-2" data-name="gn"/>
  <path class="cls-2" d="M482,487.63c-.12,1.48,1.12,1.79,2.35,1.36v1.48c-2,.62-4.32.31-4.32-2.41v-7.83h-1.36v-1.42h1.48l.56-2.66H482v2.66h2.17v1.42H482v7.4" data-name="gg"/>
  <path class="cls-2" d="M495.61,478.81l-5.31,13.64c-.87,1.73-2.29,3.15-5,2.59v-1.48c2.4.37,3.27-1.24,3.95-3.09l-4.63-11.66h2.1l3.51,9.63,3.34-9.63h2" data-name="gL"/>
 </g>
 <g id="cF">
  <path class="cls-2" d="M510.54,488.31c-.92,1.3-1.91,2.53-4.19,2.47s-3.58-1.3-3.58-3.52c-.07-3.95,3.88-3.89,7.71-3.89.19-2.16-.55-3.33-2.53-3.33-1.48.06-2.53.43-2.59,1.91l-2-.18c.31-2.29,2-3.21,4.69-3.21s4.45,1.23,4.45,3.95v5.06c-.06,1.24.43,2,1.73,1.67v1.23C512.27,491,510.42,490.35,510.54,488.31Zm-5.74-1.05a1.87,1.87,0,0,0,2,2c2.53-.19,3.89-1.79,3.7-4.57-2.65.12-5.68-.31-5.68,2.53" data-name="gm"/>
  <path class="cls-2" d="M521.41,478.56c5.49-.25,3.27,7.16,3.7,12h-2v-7.47c0-1.91-.5-3-2.41-3-4.45.13-2.72,6.3-3,10.43h-2l-.06-11.72h1.85a10.22,10.22,0,0,0,.12,2,3.9,3.9,0,0,1,3.77-2.22" data-name="gq"/>
  <path class="cls-2" d="m531.78 478.56a3.9 3.9 0 0 1 3.7 2l-0.06-6.18h2l0.06 16.11h-1.85a17.14 17.14 0 0 0-0.19-1.91 3.52 3.52 0 0 1-3.64 2.16c-3.27 0-4.26-2.41-4.32-6-0.02-4.08 1.4-6.18 4.3-6.18zm0.55 1.48c-2.47 0-2.84 2.1-2.84 4.63s0.37 4.57 2.78 4.57c2.59 0 3.15-2 3.15-4.69s-0.56-4.57-3.09-4.51" data-name="gz"/>
 </g>
 <g id="cG">
  <path class="cls-2" d="m458.35 517.2-1.73-4.44h-7l-1.73 4.44h-2.16l6.27-15.31h2.35l6.11 15.31zm-2.35-6.11-2.91-7.59c-0.74 2.77-1.91 5.06-2.83 7.59h5.74" data-name="gy"/>
  <path class="cls-2" d="M466.44,506.77c-2.47,0-3,2-3,4.5s.55,4.63,3,4.63a2.45,2.45,0,0,0,2.65-2.34l2,.12a4.24,4.24,0,0,1-4.57,3.77c-3.64,0-4.69-2.53-5.06-6.11-.62-5.74,6.23-8.09,9.07-3.95a4.74,4.74,0,0,1,.43,1.35l-2,.19a2.36,2.36,0,0,0-2.53-2.16" data-name="go"/>
  <path class="cls-2" d="M477.55,506.77c-2.47,0-3,2-3,4.5s.55,4.63,3,4.63a2.45,2.45,0,0,0,2.65-2.34l2,.12a4.23,4.23,0,0,1-4.57,3.77c-3.64,0-4.69-2.53-5.06-6.11-.62-5.74,6.23-8.09,9.07-3.95a5.09,5.09,0,0,1,.44,1.35l-2,.19a2.36,2.36,0,0,0-2.53-2.16" data-name="go"/>
  <path class="cls-2" d="m488.91 505.23c3.89 0 5.31 2.59 5.18 6.54h-8.33c0 2.47 0.86 4.13 3.27 4.2a2.88 2.88 0 0 0 3-1.79l1.72 0.49c-0.68 1.73-2.28 2.78-4.75 2.78-3.58 0-5.43-2.29-5.37-6.18s1.64-6.04 5.28-6.04zm3.21 5c0.37-3.71-4.69-4.76-6-1.73a4.39 4.39 0 0 0-0.37 1.73h6.36" data-name="gf"/>
  <path class="cls-2" d="M503.41,508.37c-.18-2.1-5.31-2.34-5.37,0,.93,3.28,7.1.74,7.35,5.56s-9.26,4.57-9.69.49l1.73-.31c.24,2.23,6,2.78,6.05,0-.62-3.45-7-.92-7.29-5.55-.25-3.52,5.06-3.89,7.53-2.59a3.08,3.08,0,0,1,1.48,2.16" data-name="gt"/>
  <path class="cls-2" d="M514.52,508.37c-.18-2.1-5.3-2.34-5.37,0,.93,3.28,7.1.74,7.35,5.56s-9.26,4.57-9.69.49l1.73-.31c.24,2.23,6,2.78,6.05,0-.62-3.45-7-.92-7.29-5.55-.24-3.52,5.06-3.89,7.53-2.59a3.08,3.08,0,0,1,1.48,2.16" data-name="gt"/>
 </g>
 <g id="cH">
  <path class="cls-2" d="M452.55,543.87l.12-13.46c-1.42,4.69-3.33,9-4.94,13.46h-1.42l-5-13.46.07,13.46h-1.79V528.56h2.71l4.76,13c1.29-4.63,3.14-8.64,4.69-13h2.65v15.31h-1.85" data-name="gM"/>
  <path class="cls-2" d="M464.9,541.65c-.93,1.29-1.92,2.53-4.2,2.46s-3.58-1.29-3.58-3.51c-.06-4,3.89-3.89,7.71-3.89.19-2.16-.55-3.34-2.53-3.34-1.48.07-2.53.44-2.59,1.92l-2-.19c.31-2.28,2-3.21,4.69-3.21s4.45,1.24,4.45,4v5.06c-.06,1.24.43,2,1.73,1.67v1.24C466.62,544.36,464.77,543.68,464.9,541.65Zm-5.75-1a1.87,1.87,0,0,0,2,2c2.53-.18,3.89-1.79,3.7-4.57-2.65.13-5.68-.3-5.68,2.54" data-name="gm"/>
  <path class="cls-2" d="M475.76,531.89c5.49-.24,3.27,7.16,3.7,12h-2V536.4c0-1.92-.5-3-2.41-3-4.44.12-2.72,6.29-3,10.43h-2L470,532.14h1.85a10.17,10.17,0,0,0,.12,2,3.92,3.92,0,0,1,3.77-2.22" data-name="gq"/>
  <path class="cls-2" d="M489.59,541.65c-.93,1.29-1.92,2.53-4.2,2.46s-3.58-1.29-3.58-3.51c-.06-4,3.89-3.89,7.71-3.89.19-2.16-.55-3.34-2.53-3.34-1.48.07-2.53.44-2.59,1.92l-2-.19c.31-2.28,2-3.21,4.7-3.21s4.44,1.24,4.44,4v5.06c-.06,1.24.43,2,1.73,1.67v1.24C491.31,544.36,489.46,543.68,489.59,541.65Zm-5.74-1a1.86,1.86,0,0,0,2,2c2.53-.18,3.89-1.79,3.7-4.57-2.65.13-5.67-.3-5.67,2.54" data-name="gm"/>
  <path class="cls-2" d="M504.15,532.14c-.61,7.71,2.54,18.09-6.79,16.11a3.5,3.5,0,0,1-2.71-2.65l2-.31c.93,2.9,6.18,2,5.5-1.73v-1.85a3.92,3.92,0,0,1-3.77,2.22c-3.33,0-4.2-2.53-4.2-5.93s1-6,4.39-6a4,4,0,0,1,3.64,2.16c.06-.61,0-1.42.12-2ZM499,542.51c2.22,0,3.09-2,3.09-4.51s-.87-4.63-3.09-4.63c-2.41,0-2.84,2.1-2.84,4.63s.37,4.51,2.84,4.51" data-name="gx"/>
  <path class="cls-2" d="M511.75,531.89c3.89,0,5.31,2.59,5.18,6.55H508.6c0,2.46.86,4.13,3.27,4.19a2.88,2.88,0,0,0,3-1.79l1.72.5c-.68,1.72-2.28,2.77-4.75,2.77-3.58,0-5.43-2.28-5.37-6.17S508.1,531.89,511.75,531.89Zm3.21,5c.37-3.7-4.69-4.75-6-1.73a4.44,4.44,0,0,0-.37,1.73H515" data-name="gf"/>
  <path class="cls-2" d="M525,533.81c-4.82-1-3.27,5.61-3.52,10.06h-2l-.06-11.73h1.85a14.26,14.26,0,0,0,.13,2.41c.37-1.67,1.42-3,3.58-2.53v1.79" data-name="gj"/>
 </g>
 <path class="cls-3" d="M730,484.66H581.5"/>
 <path class="cls-4" d="m731 485.66h-1v-2h1"/>
 <path class="cls-5" d="M566.24,484.66,580.5,480v9.27Z"/>
 <g id="cI">
  <path class="cls-2" d="M636.68,502.89l-1.09-3.12H631l-1.09,3.12H627.3l4.44-12.25h3l4.45,12.25Zm-1.63-5-1.78-5.33c-.49,1.87-1.18,3.55-1.78,5.33h3.56" data-name="gV"/>
  <path id="hq" class="cls-2" d="M643.84,503.08c-4.3.05-2.86-5.58-3.11-9.58h2.47c.34,2.82-1.14,7.41,1.63,7.76,3-.25,1.73-4.79,2-7.76h2.47l.05,9.39H647a10.94,10.94,0,0,0-.15-1.88,3.07,3.07,0,0,1-3,2.07"/>
  <path class="cls-2" d="M656.14,502.74c-1.78.69-4.3.34-4.3-2.08v-5.53h-1.19V493.5H652l.74-2.22h1.53v2.22H656v1.63h-1.78V500c0,1.14.79,1.53,1.88,1.24v1.48" data-name="hk"/>
  <path id="hw" class="cls-2" d="M662,495.13c-2.91,0-1.68,4.79-1.92,7.76h-2.47V490H660l0,5.38a3.07,3.07,0,0,1,3-2.07c4.25-.05,2.86,5.58,3.11,9.58h-2.47c-.34-2.82,1.14-7.76-1.68-7.76"/>
 </g>
 <path class="cls-3" d="M730,674.37H487.5a6,6,0,0,1-6-6V598.13"/>
 <path class="cls-4" d="m731 675.37h-1v-2h1"/>
 <path class="cls-5" d="m481.5 582.87 4.64 14.26h-9.28z"/>
 <g data-name="cI">
  <path class="cls-2" d="m644.47 663.26-1.09-3.11h-4.64l-1.08 3.11h-2.57l4.44-12.26h3l4.47 12.26zm-1.63-5-1.78-5.34c-0.49 1.88-1.18 3.56-1.77 5.34h3.55" data-name="gV"/>
  <path class="cls-2" d="M651.63,663.46c-4.3,0-2.86-5.58-3.11-9.58H651c.34,2.81-1.14,7.41,1.63,7.75,3-.24,1.73-4.79,2-7.75h2.47l.05,9.38h-2.32a10.9,10.9,0,0,0-.15-1.87,3.07,3.07,0,0,1-3,2.07" data-name="hq"/>
  <path class="cls-2" d="M663.93,663.11c-1.78.7-4.3.35-4.3-2.07v-5.53h-1.18v-1.63h1.33l.74-2.22h1.53v2.22h1.78v1.63h-1.78v4.89c0,1.13.79,1.53,1.88,1.23v1.48" data-name="hk"/>
  <path class="cls-2" d="M669.75,655.51c-2.91,0-1.67,4.79-1.92,7.75h-2.47V650.37h2.47l-.05,5.39a3.07,3.07,0,0,1,3-2.08c4.25,0,2.87,5.58,3.11,9.58h-2.47c-.34-2.81,1.14-7.75-1.68-7.75" data-name="hw"/>
 </g>
 <path class="cls-8" d="M401.5,7.5a6,6,0,0,1,6-6h788.12a6,6,0,0,1,6,6V72.17a6,6,0,0,1-6,6H407.5a6,6,0,0,1-6-6Z"/>
 <g id="dP">
  <path class="cls-2" d="M508.73,48.34l-16.3-26.05.13,26.05H489V17.72h4.81L510.21,44,510,17.72h3.83V48.34h-5.06" data-name="ge"/>
  <path class="cls-2" d="M529.59,24.39c7.78,0,10.62,5.18,10.37,13.08H523.3c0,4.94,1.72,8.27,6.54,8.4,3.21.12,5.31-1.48,6-3.58l3.46,1c-1.36,3.45-4.57,5.55-9.51,5.55-7.16,0-10.86-4.57-10.74-12.35C519.22,29,522.31,24.39,529.59,24.39Zm6.42,10c.74-7.41-9.38-9.51-12-3.46a9,9,0,0,0-.74,3.46H536" data-name="gf"/>
  <path class="cls-2" d="M549.22,42.53c-.24,3,2.22,3.58,4.69,2.72v3c-4.07,1.24-8.64.62-8.64-4.81V27.72h-2.71V24.88h3l1.11-5.31h2.59v5.31h4.32v2.84h-4.32V42.53" data-name="gg"/>
  <path class="cls-2" d="m579.72 48.34h-4.45l-4.94-20.25-5.06 20.25h-4.44l-6.67-23.46h4l4.82 20.25 5.3-20.25h4.2l5.06 20.25 5.19-20.25h3.83" data-name="gh"/>
  <path class="cls-2" d="m598.6 24.39c7.66-0.13 10.5 4.56 10.5 12.22s-3.33 12.22-10.62 12.22-10.25-4.83-10.37-12.22c0-8.15 3.46-12.22 10.49-12.22zm-0.12 21.48c5.43 0.13 6.52-3.87 6.52-9.26s-1-9.26-6.29-9.26-6.54 3.95-6.54 9.26 1.23 9.13 6.29 9.26" data-name="gi"/>
  <path class="cls-2" d="M625,28.21c-9.63-2-6.54,11.24-7,20.13h-4l-.13-23.46h3.71c.12,1.48-.13,3.58.24,4.81.74-3.33,2.84-6,7.16-5.06v3.58" data-name="gj"/>
  <path class="cls-2" d="M643.3,48.34,635.39,37.6l-2.83,2.34v8.4h-4V16.11h4V36.24L642.8,24.88h4.57L637.86,35,648,48.34H643.3" data-name="gk"/>
 </g>
 <g id="dQ">
  <path class="cls-2" d="M663.91,17.72c10.74.12,23.58-1.85,23.58,9.26,0,9.63-9.5,9.88-19.5,9.38v12h-4.08ZM668,33.15c7,0,15.31,1.36,15.31-6.17,0-7.29-8.4-5.8-15.31-5.93v12.1" data-name="gl"/>
  <path class="cls-2" d="M707.25,43.89c-1.85,2.59-3.83,5.06-8.4,4.94s-7.16-2.59-7.16-7c-.12-7.9,7.78-7.77,15.43-7.77.37-4.33-1.11-6.67-5.06-6.67-3,.12-5.06.86-5.18,3.83l-4.08-.37c.62-4.57,4.08-6.42,9.39-6.42,5.55,0,8.88,2.47,8.88,7.9V42.41c-.12,2.47.87,4,3.46,3.33v2.47C710.7,49.32,707,48,707.25,43.89Zm-11.48-2.1a3.73,3.73,0,0,0,4,4.08c5.06-.37,7.77-3.58,7.4-9.14-5.31.25-11.35-.62-11.35,5.06" data-name="gm"/>
  <path class="cls-2" d="M728.61,28.21c-9.63-2-6.55,11.24-7,20.13h-4l-.13-23.46h3.71c.12,1.48-.13,3.58.24,4.81.75-3.33,2.84-6,7.17-5.06v3.58" data-name="gj"/>
  <path class="cls-2" d="M736.51,42.53c-.25,3,2.22,3.58,4.69,2.72v3c-4.08,1.24-8.64.62-8.64-4.81V27.72h-2.72V24.88h3l1.11-5.31h2.6v5.31h4.32v2.84h-4.32V42.53" data-name="gg"/>
  <path class="cls-2" d="M744.53,19.82V16.11h4v3.71Zm0,28.52V24.88h4V48.34h-4" data-name="gn"/>
  <path class="cls-2" d="M763.17,27.47c-4.94,0-5.92,4.08-5.92,9s1.11,9.26,5.92,9.26c3,0,5.06-1.72,5.31-4.69l3.95.25c-.74,4.57-3.82,7.53-9.13,7.53-7.29,0-9.39-5.06-10.13-12.22-1.23-11.48,12.47-16.17,18.15-7.9a10.23,10.23,0,0,1,.87,2.71l-4,.37c-.49-2.59-2-4.32-5.06-4.32" data-name="go"/>
  <path class="cls-2" d="M776.51,19.82V16.11h4v3.71Zm0,28.52V24.88h4V48.34h-4" data-name="gn"/>
  <path class="cls-2" d="M797.49,24.39c6.79.12,8.65,5.06,8.65,12.09s-2,12.1-8.65,12.35c-3.82,0-6-1.6-7.4-4.2l.12,13h-4l-.12-32.72H790l.25,3.7C791.44,26,793.67,24.39,797.49,24.39Zm-1,21.48c4.93,0,5.55-4.2,5.55-9.26s-.74-9-5.55-9.14c-5.19,0-6.3,4-6.3,9.39s1.23,9,6.3,9" data-name="gp"/>
  <path class="cls-2" d="M825.4,43.89c-1.86,2.59-3.83,5.06-8.4,4.94s-7.16-2.59-7.16-7c-.12-7.9,7.78-7.77,15.43-7.77.37-4.33-1.11-6.67-5.06-6.67-3,.12-5.06.86-5.19,3.83L811,30.81c.62-4.57,4.07-6.42,9.38-6.42,5.56,0,8.89,2.47,8.89,7.9V42.41c-.12,2.47.87,4,3.46,3.33v2.47C828.85,49.32,825.15,48,825.4,43.89Zm-11.49-2.1a3.74,3.74,0,0,0,4,4.08c5.07-.37,7.78-3.58,7.41-9.14-5.31.25-11.36-.62-11.36,5.06" data-name="gm"/>
  <path class="cls-2" d="M847.12,24.39c11-.5,6.55,14.32,7.41,24h-3.95V33.4c0-3.83-1-6-4.81-5.93-8.89.25-5.44,12.6-6,20.87h-4l-.13-23.46h3.71c.12,1.23-.13,3,.24,3.95,1.36-2.72,3.58-4.32,7.53-4.44" data-name="gq"/>
  <path class="cls-2" d="M864.65,42.53c-.24,3,2.23,3.58,4.7,2.72v3c-4.08,1.24-8.65.62-8.65-4.81V27.72H858V24.88h3l1.11-5.31h2.59v5.31H869v2.84h-4.33V42.53" data-name="gg"/>
 </g>
 <g id="dR">
  <path class="cls-2" d="M907.37,48.34l-3.46-8.89H890l-3.45,8.89h-4.33l12.47-30.62h4.7l12.22,30.62Zm-4.69-12.23-5.8-15.18c-1.49,5.55-3.83,10.12-5.68,15.18h11.48" data-name="gy"/>
  <path class="cls-2" d="M925.77,28.21c-9.63-2-6.55,11.24-7,20.13h-4l-.13-23.46h3.71c.12,1.48-.13,3.58.24,4.81.75-3.33,2.84-6,7.17-5.06v3.58" data-name="gj"/>
  <path class="cls-2" d="M938.23,27.47c-4.93,0-5.92,4.08-5.92,9s1.11,9.26,5.92,9.26c3,0,5.07-1.72,5.31-4.69l4,.25c-.74,4.57-3.82,7.53-9.13,7.53-7.29,0-9.38-5.06-10.13-12.22-1.23-11.48,12.47-16.17,18.15-7.9a9.88,9.88,0,0,1,.87,2.71l-4,.37c-.5-2.59-2-4.32-5.07-4.32" data-name="go"/>
  <path class="cls-2" d="M961.69,27.47c-8.89,0-5.43,12.6-6.05,20.87h-3.95V16.11h3.95l-.12,12.72a7.81,7.81,0,0,1,7.53-4.44c11,0,6.54,14.32,7.41,24h-4V33.4c.24-3.95-1-6-4.82-5.93" data-name="gN"/>
  <path class="cls-2" d="M976.26,19.82V16.11h4v3.71Zm0,28.52V24.88h4V48.34h-4" data-name="gn"/>
  <path class="cls-2" d="M990.33,42.53c-.24,3,2.23,3.58,4.69,2.72v3c-4.07,1.24-8.64.62-8.64-4.81V27.72h-2.71V24.88h3l1.11-5.31h2.59v5.31h4.32v2.84h-4.32V42.53" data-name="gg"/>
  <path class="cls-2" d="m1007.7 24.39c7.78 0 10.62 5.18 10.37 13.08h-16.67c0 4.94 1.73 8.27 6.55 8.4 3.21 0.12 5.31-1.48 6-3.58l3.45 1c-1.35 3.45-4.56 5.55-9.5 5.55-7.16 0-10.87-4.57-10.74-12.35 0.17-7.49 3.26-12.1 10.54-12.1zm6.42 10c0.74-7.41-9.38-9.51-12-3.46a9 9 0 0 0-0.74 3.46h12.72" data-name="gf"/>
  <path class="cls-2" d="M1031.94,27.47c-4.94,0-5.93,4.08-5.93,9s1.11,9.26,5.93,9.26c3,0,5.06-1.72,5.31-4.69l4,.25c-.74,4.57-3.83,7.53-9.14,7.53-7.28,0-9.38-5.06-10.12-12.22-1.24-11.48,12.47-16.17,18.15-7.9a10.21,10.21,0,0,1,.86,2.71l-4,.37c-.49-2.59-2-4.32-5.06-4.32" data-name="go"/>
  <path class="cls-2" d="M1049.59,42.53c-.24,3,2.22,3.58,4.69,2.72v3c-4.07,1.24-8.64.62-8.64-4.81V27.72h-2.71V24.88h3l1.11-5.31h2.59v5.31h4.32v2.84h-4.32V42.53" data-name="gg"/>
  <path class="cls-2" d="M1065,48.83c-11,.49-6.66-14.32-7.53-23.95h4V39.69c0,3.83.87,6.18,4.82,6.05,8.89-.24,5.55-12.46,6.17-20.86h3.83l.12,23.46h-3.7c-.12-1.24.12-3.09-.25-4.08-1.36,2.72-3.45,4.45-7.41,4.57" data-name="gu"/>
  <path class="cls-2" d="M1093.42,28.21c-9.63-2-6.54,11.24-7,20.13h-4l-.12-23.46h3.7c.13,1.48-.12,3.58.25,4.81.74-3.33,2.84-6,7.16-5.06v3.58" data-name="gj"/>
  <path class="cls-2" d="m1106.4 24.39c7.78 0 10.62 5.18 10.37 13.08h-16.66c0 4.94 1.72 8.27 6.54 8.4 3.21 0.12 5.31-1.48 6-3.58l3.46 1c-1.36 3.45-4.57 5.55-9.51 5.55-7.16 0-10.86-4.57-10.74-12.35 0.16-7.49 3.26-12.1 10.54-12.1zm6.42 10c0.74-7.41-9.38-9.51-12-3.46a9 9 0 0 0-0.74 3.46h12.71" data-name="gf"/>
 </g>
</svg>
