<?xml version="1.0" encoding="UTF-8"?>
<svg data-name="Layer 1" version="1.1" viewBox="0 0 942.81 689" xmlns="http://www.w3.org/2000/svg">
 <title>Figure8</title>
 <defs>
  <style>.cls-1,.cls-7,.cls-8{fill:#fff;}.cls-1,.cls-2{stroke:#333;}.cls-1,.cls-2,.cls-7,.cls-8{stroke-width:3px;}.cls-2,.cls-3,.cls-5{fill:none;}.cls-4{fill:#333;}.cls-5,.cls-6,.cls-7{stroke:#5e5f5f;}.cls-5,.cls-6{stroke-width:2px;}.cls-6{fill:#5e5f5f;}.cls-8{fill-opacity:0;stroke:#010101;stroke-opacity:0;}</style>
 </defs>
 <path class="cls-1" transform="translate(0)" d="m91.31 257.5a30 30 0 1 1-30-30 30 30 0 0 1 30 30z"/>
 <path class="cls-2" transform="translate(0)" d="m61.31 287.5v97.65a27.68 27.68 0 0 0 2.9 11.26l57.1 103.85m-60-109.1-60 109.1m0-182.75h120"/>
 <path class="cls-3" transform="translate(0)" d="m1.31 233.5a6 6 0 0 1 6-6h108a6 6 0 0 1 6 6v282.75a6 6 0 0 1-6 6h-108a6 6 0 0 1-6-6z"/>
 <g id="aW">
  <path id="fU" class="cls-4" transform="translate(0)" d="M52.24,512.29c-.06,4-2.47,6-6.42,6-3.76,0-6.17-2-6.17-5.8v-9.75h2c.5,5.49-2,13.83,4.14,13.83s4-8.21,4.38-13.83h2v9.57"/>
  <path id="fv" class="cls-4" transform="translate(0)" d="M62.24,509.2c-.18-2.1-5.31-2.35-5.37,0,.93,3.27,7.1.74,7.35,5.56s-9.26,4.56-9.7.49l1.73-.31c.25,2.22,6,2.78,6,0-.62-3.46-7-.92-7.28-5.55-.25-3.52,5.06-3.89,7.53-2.6A3.12,3.12,0,0,1,64,509"/>
  <path id="fh" class="cls-4" transform="translate(0)" d="M71.19,506.05c3.89,0,5.31,2.6,5.19,6.55H68c0,2.46.87,4.13,3.27,4.19a2.88,2.88,0,0,0,3-1.79l1.73.5c-.68,1.73-2.29,2.77-4.76,2.77-3.58,0-5.43-2.28-5.37-6.17S67.55,506.05,71.19,506.05Zm3.21,5c.37-3.7-4.69-4.75-6-1.73a4.62,4.62,0,0,0-.37,1.73H74.4"/>
  <path id="fl" class="cls-4" transform="translate(0)" d="M84.4,508c-4.81-1-3.27,5.61-3.52,10.06h-2l-.06-11.73H80.7a15.43,15.43,0,0,0,.12,2.41c.37-1.67,1.42-3,3.58-2.53V508"/>
 </g>
 <path class="cls-5" transform="translate(0)" d="m185.31 227.13h556m-556 0h-1"/>
 <path class="cls-6" transform="translate(0)" d="m756.57 227.13-14.26 4.64v-9.27z"/>
 <g id="bK">
  <path id="gr" class="cls-4" transform="translate(0)" d="M427.13,209.85c0,2.61,1,4.29,3.6,4.34a3.23,3.23,0,0,0,3.21-2.32l2.22.84a5.37,5.37,0,0,1-5.43,3.51c-4.05,0-5.93-2.27-6.17-6.37-.35-5.43,5.38-7.71,9.68-5.29A4.21,4.21,0,0,1,436,207l-2.27.6a3,3,0,0,0-3.06-2c-2.57,0-3.5,1.68-3.55,4.25"/>
  <path id="gc" class="cls-4" transform="translate(0)" d="m448.46 207.43a3.35 3.35 0 0 1-2.67 3.45l3.31 5.12h-2.91l-2.82-4.64h-3v4.64h-2.57v-12.23c4.59 0.23 10.71-1.13 10.66 3.66zm-8.1 2c2.37-0.1 5.53 0.6 5.53-1.87s-3.26-1.58-5.53-1.73v3.6"/>
  <path id="gi" class="cls-4" transform="translate(0)" d="M461.15,211.33c0,3.41-2.17,4.89-5.48,4.89s-5.19-1.43-5.19-4.79v-7.66H453v7.46a2.57,2.57,0,0,0,2.72,3c4.44.05,2.42-6.42,2.86-10.42h2.57v7.56"/>
  <path id="gx" class="cls-4" transform="translate(0)" d="M463.37,203.77c5.93-.34,11,.25,10.92,6-.05,3.95-2.18,6.22-6,6.22h-4.94ZM465.94,214c3.66.35,5.78-.88,5.78-4.24s-2.22-4.35-5.78-4.05V214"/>
 </g>
 <g id="aV">
  <path class="cls-4" transform="translate(0)" d="M483.67,205.75v3.8h6.27v2h-6.27V216H481.1V203.77h9v2h-6.47" data-name="fV"/>
  <path id="gf" class="cls-4" transform="translate(0)" d="M492,216V203.13h2.46V216H492"/>
  <path id="ge" class="cls-4" transform="translate(0)" d="m501.1 206.44c3.16 0 4.74 1.78 4.74 4.89s-1.73 4.89-4.79 4.89-4.69-1.78-4.69-4.89 1.64-4.89 4.74-4.89zm-0.05 8.1c1.73 0 2.22-1.38 2.22-3.21 0-2-0.49-3.21-2.12-3.21s-2.22 1.28-2.22 3.21c0 1.78 0.49 3.21 2.12 3.21"/>
  <path id="gh" class="cls-4" transform="translate(0)" d="M517.89,216h-2.57l-1.92-7.65-2,7.65h-2.57l-2.42-9.38h2.28l1.58,7.16c.44-2.57,1.18-4.79,1.77-7.16h2.62l1.83,7.16,1.58-7.16h2.27"/>
 </g>
 <path class="cls-5" transform="translate(0)" d="m185.31 266h556m-556 0h-1"/>
 <path class="cls-6" transform="translate(0)" d="m756.57 266-14.26 4.63v-9.27z"/>
 <g data-name="bk">
  <path id="gA" class="cls-4" transform="translate(0)" d="M429.89,254.84V242.59h2.57v10.27H439v2h-9.14"/>
  <path id="gl" class="cls-4" transform="translate(0)" d="M440.76,243.77V242h2.46v1.82Zm0,11.07v-9.39h2.46v9.39h-2.46"/>
  <path id="gd" class="cls-4" transform="translate(0)" d="M451.22,248c0-1.43-3.45-1.68-3.5-.2.74,2.28,5.83.35,5.87,4.25.05,4.1-8.09,3.75-8.49.45l2.12-.35c.2.94,1,1.23,2.18,1.23,1.63.4,2.81-1.48,1.18-2-2.12-.69-5-.54-5.13-3.26-.1-4,7.6-3.65,7.95-.35"/>
  <path id="gm" class="cls-4" transform="translate(0)" d="M460,254.69c-1.77.69-4.29.34-4.29-2.08v-5.53h-1.19v-1.63h1.34l.74-2.22h1.53v2.22h1.78v1.63h-1.78V252c-.05,1.14.79,1.53,1.87,1.24v1.48"/>
 </g>
 <g id="bW">
  <path class="cls-4" transform="translate(0)" d="m468.9 244.56v3.81h6.27v2h-6.27v4.5h-2.56v-12.28h9v2h-6.44" data-name="fV"/>
  <path class="cls-4" transform="translate(0)" d="M477.2,254.84V242h2.47v12.89H477.2" data-name="gf"/>
  <path class="cls-4" transform="translate(0)" d="m486.34 245.26c3.16 0 4.74 1.77 4.74 4.88s-1.73 4.89-4.79 4.89-4.7-1.77-4.7-4.89 1.68-4.88 4.75-4.88zm0 8.09c1.72 0 2.22-1.38 2.22-3.21s-0.5-3.21-2.13-3.21-2.22 1.29-2.22 3.21 0.5 3.21 2.13 3.21" data-name="ge"/>
  <path class="cls-4" transform="translate(0)" d="M503.13,254.84h-2.57l-1.93-7.66-2,7.66h-2.57l-2.42-9.39h2.27l1.58,7.16c.45-2.56,1.19-4.79,1.78-7.16h2.62l1.82,7.16,1.58-7.16h2.27" data-name="gh"/>
  <path class="cls-4" transform="translate(0)" d="M512.31,248c.05-1.43-3.46-1.68-3.51-.2.75,2.28,5.83.35,5.88,4.25.05,4.1-8.1,3.75-8.49.45l2.12-.35c.2.94,1,1.23,2.17,1.23,1.63.4,2.82-1.48,1.19-2-2.12-.69-5-.54-5.14-3.26-.1-4,7.61-3.65,8-.35" data-name="gd"/>
 </g>
 <path class="cls-5" transform="translate(0)" d="m182.31 148.88h559m-559 0h-1"/>
 <path class="cls-6" transform="translate(0)" d="m756.57 148.88-14.26 4.64v-9.27z"/>
 <g id="bX">
  <path class="cls-4" transform="translate(0)" d="M371.87,131.6c0,2.61,1,4.29,3.61,4.34a3.24,3.24,0,0,0,3.21-2.32l2.22.84a5.39,5.39,0,0,1-5.43,3.51c-4.05,0-5.93-2.27-6.17-6.37-.35-5.44,5.38-7.71,9.67-5.29a4.19,4.19,0,0,1,1.78,2.47l-2.27.59a3,3,0,0,0-3.06-2c-2.57,0-3.51,1.68-3.56,4.25" data-name="gr"/>
  <path class="cls-4" transform="translate(0)" d="m393.21 129.18a3.35 3.35 0 0 1-2.67 3.45l3.31 5.14h-2.92l-2.81-4.64h-3v4.64h-2.57v-12.25c4.58 0.2 10.71-1.13 10.66 3.66zm-8.1 2c2.37-0.1 5.53 0.59 5.53-1.87s-3.26-1.58-5.53-1.73v3.6" data-name="gc"/>
  <path class="cls-4" transform="translate(0)" d="M405.9,133.08c0,3.41-2.18,4.89-5.48,4.89s-5.19-1.44-5.19-4.79v-7.66h2.52V133a2.57,2.57,0,0,0,2.72,3c4.44.05,2.42-6.42,2.86-10.42h2.57v7.56" data-name="gi"/>
  <path class="cls-4" transform="translate(0)" d="M408.12,125.52c5.93-.34,11,.25,10.91,6,0,3.95-2.17,6.22-6,6.22h-4.94Zm2.57,10.27c3.65.35,5.78-.88,5.78-4.24s-2.23-4.35-5.78-4.05v8.29" data-name="gx"/>
 </g>
 <g id="bY">
  <path class="cls-4" transform="translate(0)" d="M428,131.6c0,2.61,1,4.29,3.61,4.34a3.25,3.25,0,0,0,3.21-2.32l2.22.84a5.39,5.39,0,0,1-5.43,3.51c-4.05,0-5.93-2.27-6.18-6.37-.34-5.44,5.39-7.71,9.68-5.29a4.24,4.24,0,0,1,1.78,2.47l-2.27.59a3,3,0,0,0-3.06-2c-2.57,0-3.51,1.68-3.56,4.25" data-name="gr"/>
  <path id="gy" class="cls-4" transform="translate(0)" d="M443.08,130c-2.91,0-1.68,4.79-1.92,7.75h-2.47V124.88h2.47l-.05,5.38a3.07,3.07,0,0,1,3-2.07c4.25-.05,2.86,5.58,3.11,9.58h-2.47c-.34-2.82,1.14-7.75-1.68-7.75"/>
  <path class="cls-4" transform="translate(0)" d="m449.5 126.71v-1.83h2.5v1.83zm0 11.06v-9.38h2.5v9.38h-2.5" data-name="gl"/>
  <path class="cls-4" transform="translate(0)" d="m454.44 137.77v-12.89h2.47v12.89h-2.47" data-name="gf"/>
  <path id="go" class="cls-4" transform="translate(0)" d="m462.49 128.19a3 3 0 0 1 2.86 1.68l-0.05-5h2.47l0.05 12.89h-2.37a13.22 13.22 0 0 0-0.15-1.53 3 3 0 0 1-3 1.73c-2.57 0-3.36-2.23-3.4-4.89s0.92-4.78 3.59-4.88zm0.84 8.1c1.63 0 2-1.48 2-3.26s-0.44-3.16-2-3.16-1.88 1.48-1.93 3.21c0 2.12 0.65 3.21 1.93 3.21"/>
 </g>
 <g id="bZ">
  <path id="fW" class="cls-4" transform="translate(0)" d="M482.54,137.77l-5.33-9.43c.29,2.86.09,6.32.14,9.43h-2.27V125.52H478l5.43,9.53c-.3-2.86-.1-6.37-.15-9.53h2.27v12.25h-3"/>
  <path id="gp" class="cls-4" transform="translate(0)" d="M493.26,136.09c-.79.94-1.49,1.93-3.17,1.88a2.6,2.6,0,0,1-2.86-2.87c-.05-3,2.72-3.11,5.73-3,.05-1.28-.15-2.32-1.38-2.32a1.29,1.29,0,0,0-1.39,1.33l-2.56-.1c.34-1.87,1.77-2.86,4.05-2.81s3.65,1.09,3.7,3.36l.05,4c-.05.69.59.89,1.23.74v1.33C495.18,138.07,493.16,137.92,493.26,136.09Zm-2.37.15c1.43,0,2.12-1.19,2.07-2.82-1.58,0-3.26-.14-3.21,1.49,0,.83.39,1.33,1.14,1.33"/>
  <path id="gt" class="cls-4" transform="translate(0)" d="M507.43,130c-2.62.44-1.38,4.93-1.68,7.75h-2.42v-5.28c.05-1.34-.25-2.42-1.43-2.47-2.62.49-1.34,4.93-1.63,7.75H497.8l-.05-9.38h2.32a10.9,10.9,0,0,0,.15,1.87c.49-2.61,5-2.76,5.33,0,.64-1.08,1.19-2.12,2.92-2.07,4,.05,2.51,5.73,2.81,9.58h-2.42v-5.28c-.05-1.24-.25-2.38-1.43-2.47"/>
  <path id="fZ" class="cls-4" transform="translate(0)" d="M521.5,135.4a4,4,0,0,1-4,2.57c-3-.1-4.39-1.83-4.39-4.94s1.48-4.84,4.44-4.84,4.1,2.22,4.15,5.33h-6c0,1.53.39,2.72,1.92,2.77a1.52,1.52,0,0,0,1.68-1.09ZM519.28,132c.25-2.27-2.81-3.11-3.46-1a3.27,3.27,0,0,0-.19,1h3.65"/>
  <path class="cls-4" transform="translate(0)" d="M529,131c0-1.43-3.46-1.67-3.51-.19.74,2.27,5.83.34,5.88,4.24,0,4.1-8.1,3.76-8.49.45l2.12-.35c.2.94,1,1.24,2.17,1.24,1.63.39,2.82-1.48,1.19-2-2.13-.69-5-.54-5.14-3.26-.1-4,7.61-3.65,7.95-.34" data-name="gd"/>
  <path id="gn" class="cls-4" transform="translate(0)" d="M538.79,128.19c2.61,0,3.45,2.17,3.45,4.84s-.94,4.84-3.6,4.94a3.4,3.4,0,0,1-2.92-1.68c.15,1.63.1,3.41.1,5.18h-2.47l-.05-13.08h2.38a13.56,13.56,0,0,0,.14,1.53A2.87,2.87,0,0,1,538.79,128.19Zm-1,8.1c1.63,0,1.93-1.53,2-3.26,0-1.88-.44-3.16-2-3.16-2.77,0-2.72,6.42,0,6.42"/>
  <path class="cls-4" transform="translate(0)" d="M549.5,136.09c-.79.94-1.48,1.93-3.16,1.88a2.6,2.6,0,0,1-2.86-2.87c-.05-3,2.71-3.11,5.73-3,0-1.28-.15-2.32-1.39-2.32a1.28,1.28,0,0,0-1.38,1.33l-2.57-.1c.35-1.87,1.78-2.86,4-2.81s3.66,1.09,3.71,3.36l0,4c0,.69.59.89,1.23.74v1.33C551.43,138.07,549.4,137.92,549.5,136.09Zm-2.37.15c1.43,0,2.13-1.19,2.08-2.82-1.58,0-3.26-.14-3.21,1.49,0,.83.39,1.33,1.13,1.33" data-name="gp"/>
  <path id="gv" class="cls-4" transform="translate(0)" d="M562.19,134.66c-.34,2.07-1.87,3.31-4.24,3.31-2.92,0-4.15-1.88-4.45-4.84-.59-5.43,7.61-6.77,8.59-1.78l-2.41.1a1.66,1.66,0,0,0-1.73-1.58c-1.48,0-1.73,1.38-1.88,3.16-.3,3.65,3.21,4.29,3.65,1.48"/>
  <path class="cls-4" transform="translate(0)" d="M571.82,135.4a4,4,0,0,1-4.05,2.57c-3-.1-4.39-1.83-4.39-4.94s1.48-4.84,4.44-4.84,4.1,2.22,4.15,5.33h-6c0,1.53.39,2.72,1.92,2.77a1.52,1.52,0,0,0,1.68-1.09ZM569.6,132c.25-2.27-2.81-3.11-3.46-1a3.57,3.57,0,0,0-.19,1h3.65" data-name="fZ"/>
 </g>
 <path class="cls-5" transform="translate(0)" d="m182.31 189.05h559m-559 0h-1"/>
 <path class="cls-6" transform="translate(0)" d="m756.57 189.05-14.26 4.63v-9.27z"/>
 <g data-name="bk">
  <path class="cls-4" transform="translate(0)" d="M379.58,177.94V165.69h2.56V176h6.57v2h-9.13" data-name="gA"/>
  <path class="cls-4" transform="translate(0)" d="m390.44 166.88v-1.83h2.47v1.83zm0 11.06v-9.39h2.47v9.39h-2.47" data-name="gl"/>
  <path class="cls-4" transform="translate(0)" d="M400.91,171.12c0-1.43-3.46-1.68-3.51-.2.74,2.28,5.83.35,5.88,4.25.05,4.1-8.1,3.75-8.49.45l2.12-.35c.2.94,1,1.23,2.17,1.23,1.63.4,2.82-1.48,1.19-2-2.13-.69-5-.54-5.14-3.26-.1-3.95,7.61-3.65,7.95-.34" data-name="gd"/>
  <path class="cls-4" transform="translate(0)" d="M409.7,177.79c-1.78.69-4.3.34-4.3-2.08v-5.53h-1.18v-1.63h1.33l.74-2.22h1.53v2.22h1.78v1.63h-1.78v4.89c-.05,1.14.79,1.53,1.88,1.24v1.48" data-name="gm"/>
 </g>
 <g id="ca">
  <path class="cls-4" transform="translate(0)" d="M418.14,171.76c0,2.62,1,4.3,3.61,4.35a3.25,3.25,0,0,0,3.21-2.32l2.22.84a5.38,5.38,0,0,1-5.43,3.5c-4.05,0-5.93-2.27-6.17-6.37-.35-5.43,5.38-7.7,9.68-5.28A4.19,4.19,0,0,1,427,169l-2.27.59a3,3,0,0,0-3.06-2c-2.57,0-3.51,1.68-3.56,4.24" data-name="gr"/>
  <path class="cls-4" transform="translate(0)" d="M433.26,170.18c-2.92,0-1.68,4.79-1.93,7.76h-2.47V165.05h2.47l-.05,5.38a3.07,3.07,0,0,1,3-2.07c4.25-.05,2.87,5.58,3.11,9.58h-2.47c-.34-2.82,1.14-7.76-1.67-7.76" data-name="gy"/>
  <path class="cls-4" transform="translate(0)" d="m439.68 166.88v-1.83h2.46v1.83zm0 11.06v-9.39h2.46v9.39h-2.46" data-name="gl"/>
  <path class="cls-4" transform="translate(0)" d="m444.61 177.94v-12.89h2.47v12.89h-2.47" data-name="gf"/>
  <path class="cls-4" transform="translate(0)" d="M452.66,168.36a3,3,0,0,1,2.87,1.68l0-5H458l.05,12.89h-2.37a13,13,0,0,0-.15-1.53,3,3,0,0,1-3,1.72c-2.57,0-3.36-2.22-3.41-4.88S450,168.46,452.66,168.36Zm.84,8.1c1.63,0,2-1.49,2-3.26s-.45-3.16-2-3.16-1.87,1.48-1.92,3.21c0,2.12.64,3.21,1.92,3.21" data-name="go"/>
 </g>
 <g id="cb">
  <path class="cls-4" transform="translate(0)" d="M472.71,177.94l-5.33-9.44c.3,2.87.1,6.33.15,9.44h-2.27V165.69h2.91l5.43,9.53c-.3-2.86-.1-6.37-.15-9.53h2.27v12.25h-3" data-name="fW"/>
  <path class="cls-4" transform="translate(0)" d="M483.43,176.26c-.79.94-1.48,1.92-3.16,1.87a2.6,2.6,0,0,1-2.87-2.86c0-3,2.72-3.11,5.73-3,.05-1.29-.15-2.32-1.38-2.32a1.28,1.28,0,0,0-1.38,1.33l-2.57-.1c.34-1.88,1.78-2.86,4.05-2.81s3.65,1.08,3.7,3.35l.05,4c-.05.7.59.89,1.24.74v1.34C485.35,178.23,483.33,178.08,483.43,176.26Zm-2.37.15c1.43,0,2.12-1.19,2.07-2.82-1.58,0-3.26-.15-3.21,1.48,0,.84.4,1.34,1.14,1.34" data-name="gp"/>
  <path class="cls-4" transform="translate(0)" d="M497.6,170.18c-2.62.45-1.38,4.94-1.68,7.76H493.5v-5.29c.05-1.33-.24-2.42-1.43-2.47-2.62.5-1.33,4.94-1.63,7.76H488l-.05-9.39h2.32a10.94,10.94,0,0,0,.15,1.88c.5-2.62,5-2.76,5.33,0,.65-1.09,1.19-2.12,2.92-2.07,4.05,0,2.52,5.72,2.81,9.58H499v-5.29c0-1.23-.24-2.37-1.43-2.47" data-name="gt"/>
  <path class="cls-4" transform="translate(0)" d="M511.68,175.57a4,4,0,0,1-4.05,2.56c-3-.09-4.4-1.82-4.4-4.93s1.48-4.84,4.45-4.84,4.09,2.22,4.14,5.33h-6c0,1.53.39,2.72,1.92,2.77a1.52,1.52,0,0,0,1.68-1.09Zm-2.23-3.41c.25-2.27-2.81-3.11-3.45-1a3.21,3.21,0,0,0-.2,1h3.65" data-name="fZ"/>
  <path class="cls-4" transform="translate(0)" d="M519.18,171.12c.05-1.43-3.46-1.68-3.5-.2.74,2.28,5.82.35,5.87,4.25.05,4.1-8.1,3.75-8.49.45l2.12-.35c.2.94,1,1.23,2.17,1.23,1.63.4,2.82-1.48,1.19-2-2.12-.69-5-.54-5.14-3.26-.1-3.95,7.61-3.65,8-.34" data-name="gd"/>
  <path class="cls-4" transform="translate(0)" d="M529,168.36c2.62,0,3.46,2.17,3.46,4.84s-.94,4.84-3.61,4.93a3.39,3.39,0,0,1-2.91-1.67c.15,1.62.1,3.4.1,5.18h-2.47l0-13.09h2.37a13,13,0,0,0,.15,1.53A2.85,2.85,0,0,1,529,168.36Zm-1,8.1c1.63,0,1.93-1.54,2-3.26,0-1.88-.45-3.16-2-3.16-2.76,0-2.71,6.42,0,6.42" data-name="gn"/>
  <path class="cls-4" transform="translate(0)" d="M539.68,176.26c-.79.94-1.49,1.92-3.17,1.87a2.6,2.6,0,0,1-2.86-2.86c0-3,2.72-3.11,5.73-3,0-1.29-.15-2.32-1.38-2.32a1.29,1.29,0,0,0-1.39,1.33l-2.56-.1c.34-1.88,1.77-2.86,4-2.81s3.66,1.08,3.71,3.35l.05,4c-.05.7.59.89,1.23.74v1.34C541.6,178.23,539.58,178.08,539.68,176.26Zm-2.38.15c1.44,0,2.13-1.19,2.08-2.82-1.58,0-3.26-.15-3.21,1.48,0,.84.39,1.34,1.13,1.34" data-name="gp"/>
  <path class="cls-4" transform="translate(0)" d="M552.37,174.83c-.35,2.07-1.88,3.3-4.25,3.3-2.91,0-4.15-1.87-4.44-4.84-.6-5.43,7.6-6.76,8.59-1.77l-2.42.1a1.66,1.66,0,0,0-1.73-1.58c-1.48,0-1.73,1.38-1.88,3.16-.29,3.65,3.21,4.29,3.66,1.48" data-name="gv"/>
  <path class="cls-4" transform="translate(0)" d="M562,175.57a4,4,0,0,1-4,2.56c-3-.09-4.4-1.82-4.4-4.93s1.48-4.84,4.45-4.84,4.09,2.22,4.14,5.33h-6c0,1.53.39,2.72,1.93,2.77a1.51,1.51,0,0,0,1.67-1.09Zm-2.23-3.41c.25-2.27-2.81-3.11-3.45-1a3.21,3.21,0,0,0-.2,1h3.65" data-name="fZ"/>
 </g>
 <path class="cls-5" transform="translate(0)" d="m186.81 307.5h554.5m-554.47 0h-1"/>
 <path class="cls-6" transform="translate(0)" d="m756.57 307.5-14.26 4.64v-9.28z"/>
 <g id="aU">
  <path id="fY" class="cls-4" transform="translate(0)" d="M415.6,287.4c-.05-2.12-4.64-2.27-4.79-.15.89,3.26,7.46.5,7.61,5.63.15,4.69-8.15,4.6-10.07,1.78a3.56,3.56,0,0,1-.6-1.48l2.47-.4c.15,2.28,5.53,2.77,5.73.25-.84-3.41-7.41-.49-7.6-5.63-.2-4.3,7.55-4.34,9.28-1.73a4.17,4.17,0,0,1,.49,1.39"/>
  <path id="gs" class="cls-4" transform="translate(0)" d="M423.31,296.59c-4.3.05-2.87-5.58-3.11-9.58h2.47c.34,2.81-1.14,7.4,1.63,7.75,3-.25,1.72-4.79,2-7.75h2.47l.05,9.38h-2.32a11.11,11.11,0,0,0-.15-1.88,3.07,3.07,0,0,1-3,2.08"/>
  <path id="gu" class="cls-4" transform="translate(0)" d="M436.59,286.81c2.57,0,3.46,2.12,3.46,4.84s-.94,4.89-3.61,4.94a3,3,0,0,1-2.86-1.73l-.1,1.53h-2.37l.05-12.89h2.47v5.14A3,3,0,0,1,436.59,286.81Zm-1,8.1c1.54,0,2-1.34,2-3.26s-.35-3.11-1.93-3.11-2,1.38-2,3.21.39,3.16,2,3.16"/>
  <path class="cls-4" transform="translate(0)" d="M447.51,289.57c0-1.43-3.46-1.67-3.51-.19.74,2.27,5.83.34,5.88,4.24.05,4.1-8.1,3.76-8.5.45l2.13-.35c.19.94,1,1.24,2.17,1.24,1.63.39,2.81-1.48,1.18-2-2.12-.69-5-.54-5.13-3.26-.1-3.95,7.6-3.65,7.95-.34" data-name="gd"/>
  <path class="cls-4" transform="translate(0)" d="M460,293.28c-.35,2.07-1.88,3.31-4.25,3.31-2.91,0-4.15-1.88-4.44-4.84-.59-5.44,7.6-6.77,8.59-1.78l-2.42.1a1.66,1.66,0,0,0-1.73-1.58c-1.48,0-1.73,1.38-1.87,3.16-.3,3.65,3.21,4.29,3.65,1.48" data-name="gv"/>
  <path class="cls-4" transform="translate(0)" d="M467.16,289c-1.93-.59-3,.64-3,2.82v4.59h-2.47l-.05-9.38H464a12.13,12.13,0,0,0,.15,2c.29-1.38,1.33-2.62,3-2v2" data-name="ga"/>
  <path class="cls-4" transform="translate(0)" d="M468.64,285.33V283.5h2.47v1.83Zm0,11.06V287h2.47v9.38h-2.47" data-name="gl"/>
  <path class="cls-4" transform="translate(0)" d="M479,286.81c2.57,0,3.46,2.12,3.46,4.84s-.94,4.89-3.61,4.94a3,3,0,0,1-2.86-1.73l-.1,1.53h-2.37l.05-12.89h2.47v5.14A3,3,0,0,1,479,286.81Zm-1,8.1c1.54,0,2-1.34,2-3.26s-.35-3.11-1.93-3.11-2,1.38-2,3.21.39,3.16,2,3.16" data-name="gu"/>
  <path class="cls-4" transform="translate(0)" d="M492.3,294a4,4,0,0,1-4.05,2.57c-3-.1-4.4-1.83-4.4-4.94s1.48-4.84,4.45-4.84,4.09,2.22,4.14,5.33h-6c0,1.53.39,2.72,1.93,2.77a1.51,1.51,0,0,0,1.67-1.09Zm-2.23-3.41c.25-2.27-2.81-3.11-3.45-1a3.26,3.26,0,0,0-.2,1h3.65" data-name="fZ"/>
 </g>
 <g data-name="aV">
  <path class="cls-4" transform="translate(0)" d="M501.73,286.12v3.8H508v2h-6.27v4.49h-2.57V284.14h9v2h-6.47" data-name="fV"/>
  <path class="cls-4" transform="translate(0)" d="M510,296.39V283.5h2.47v12.89H510" data-name="gf"/>
  <path class="cls-4" transform="translate(0)" d="m519.16 286.81c3.16 0 4.74 1.78 4.74 4.89s-1.73 4.89-4.79 4.89-4.69-1.78-4.69-4.89 1.68-4.89 4.74-4.89zm0 8.1c1.73 0 2.22-1.39 2.22-3.21 0-2-0.49-3.21-2.12-3.21s-2.26 1.28-2.26 3.21 0.49 3.21 2.12 3.21" data-name="ge"/>
  <path class="cls-4" transform="translate(0)" d="M536,296.39h-2.57l-1.92-7.66-2,7.66h-2.57L524.49,287h2.27l1.58,7.16c.45-2.57,1.19-4.79,1.78-7.16h2.62l1.83,7.16,1.58-7.16h2.27" data-name="gh"/>
 </g>
 <path class="cls-5" transform="translate(0)" d="m182.31 347.5h559m-559 0h-1"/>
 <path class="cls-6" transform="translate(0)" d="m756.57 347.5-14.26 4.64v-9.28z"/>
 <g id="cc">
  <path class="cls-4" transform="translate(0)" d="M406,331.7c0,3.4-2.18,4.89-5.48,4.89s-5.19-1.44-5.19-4.79v-7.66h2.52v7.46a2.57,2.57,0,0,0,2.72,3c4.44.05,2.41-6.42,2.86-10.42H406v7.56" data-name="gi"/>
  <path id="gq" class="cls-4" transform="translate(0)" d="M413.65,326.81c4.3-.05,2.87,5.58,3.11,9.58h-2.47c-.34-2.82,1.14-7.75-1.68-7.75s-1.68,4.79-1.92,7.75h-2.47l-.05-9.38h2.32a10.9,10.9,0,0,0,.15,1.87,3.07,3.07,0,0,1,3-2.07"/>
  <path class="cls-4" transform="translate(0)" d="M424.56,329.57c.05-1.43-3.45-1.67-3.5-.19.74,2.27,5.83.34,5.87,4.24.05,4.1-8.09,3.76-8.49.45l2.12-.35c.2.94,1,1.24,2.18,1.24,1.63.39,2.81-1.48,1.18-2-2.12-.69-5-.54-5.13-3.26-.1-3.95,7.6-3.65,7.95-.34" data-name="gd"/>
  <path class="cls-4" transform="translate(0)" d="M431.87,336.59c-4.29.05-2.86-5.58-3.11-9.58h2.47c.35,2.81-1.13,7.4,1.63,7.75,3-.25,1.73-4.79,2-7.75h2.47l0,9.38H435a12.29,12.29,0,0,0-.14-1.88,3.09,3.09,0,0,1-3,2.08" data-name="gs"/>
  <path class="cls-4" transform="translate(0)" d="M445.16,326.81c2.57,0,3.45,2.12,3.45,4.84s-.93,4.89-3.6,4.94a3,3,0,0,1-2.87-1.73l-.09,1.53h-2.37l.05-12.89h2.46v5.14A3,3,0,0,1,445.16,326.81Zm-1,8.1c1.53,0,2-1.34,2-3.26s-.35-3.11-1.93-3.11-2,1.38-2,3.21.4,3.16,2,3.16" data-name="gu"/>
  <path class="cls-4" transform="translate(0)" d="M456.07,329.57c.05-1.43-3.46-1.67-3.51-.19.75,2.27,5.83.34,5.88,4.24.05,4.1-8.1,3.76-8.49.45l2.12-.35c.2.94,1,1.24,2.17,1.24,1.63.39,2.82-1.48,1.19-2-2.12-.69-5-.54-5.14-3.26-.1-3.95,7.61-3.65,7.95-.34" data-name="gd"/>
  <path class="cls-4" transform="translate(0)" d="M468.56,333.28c-.34,2.07-1.87,3.31-4.24,3.31-2.92,0-4.15-1.88-4.45-4.84-.59-5.44,7.61-6.77,8.6-1.78l-2.42.1a1.66,1.66,0,0,0-1.73-1.58c-1.48,0-1.73,1.38-1.88,3.16-.3,3.65,3.21,4.29,3.66,1.48" data-name="gv"/>
  <path class="cls-4" transform="translate(0)" d="M475.73,329c-1.93-.59-3,.64-3,2.82v4.59h-2.47l-.05-9.38h2.32a13.37,13.37,0,0,0,.15,2c.3-1.38,1.34-2.62,3-2v2" data-name="ga"/>
  <path class="cls-4" transform="translate(0)" d="M477.21,325.33V323.5h2.47v1.83Zm0,11.06V327h2.47v9.38h-2.47" data-name="gl"/>
  <path class="cls-4" transform="translate(0)" d="m487.58 326.81c2.56 0 3.45 2.12 3.45 4.84s-0.93 4.89-3.6 4.94a3 3 0 0 1-2.87-1.73l-0.09 1.53h-2.37v-12.89h2.47v5.14a3 3 0 0 1 3.01-1.83zm-1 8.1c1.53 0 2-1.34 2-3.26s-0.35-3.11-1.93-3.11-2 1.38-2 3.21 0.4 3.16 2 3.16" data-name="gu"/>
  <path class="cls-4" transform="translate(0)" d="M500.86,334a4,4,0,0,1-4.05,2.57c-3-.1-4.39-1.83-4.39-4.94s1.48-4.84,4.44-4.84S501,329,501,332.14h-6c0,1.53.4,2.72,1.93,2.77a1.52,1.52,0,0,0,1.68-1.09Zm-2.22-3.41c.25-2.27-2.82-3.11-3.46-1a3.26,3.26,0,0,0-.2,1h3.66" data-name="fZ"/>
 </g>
 <g data-name="aV">
  <path class="cls-4" transform="translate(0)" d="m510.29 326.12v3.8h6.27v2h-6.27v4.49h-2.56v-12.27h9v2h-6.47" data-name="fV"/>
  <path class="cls-4" transform="translate(0)" d="M518.59,336.39V323.5h2.47v12.89h-2.47" data-name="gf"/>
  <path class="cls-4" transform="translate(0)" d="m527.73 326.81c3.16 0 4.74 1.78 4.74 4.89s-1.73 4.89-4.79 4.89-4.7-1.78-4.7-4.89 1.68-4.89 4.75-4.89zm-0.05 8.1c1.72 0 2.22-1.39 2.22-3.21 0-2-0.5-3.21-2.13-3.21s-2.22 1.28-2.22 3.21 0.5 3.21 2.13 3.21" data-name="ge"/>
  <path class="cls-4" transform="translate(0)" d="m544.52 336.39h-2.52l-2-7.66-2 7.66h-2.57l-2.37-9.39h2.27l1.58 7.16c0.44-2.57 1.19-4.79 1.78-7.16h2.62l1.82 7.16 1.58-7.16h2.29" data-name="gh"/>
 </g>
 <path class="cls-5" transform="translate(0)" d="m182.31 508.06h559m-559 0h-1"/>
 <path class="cls-6" transform="translate(0)" d="m756.57 508.06-14.26 4.64v-9.27z"/>
 <g id="ba">
  <path class="cls-4" transform="translate(0)" d="m438.07 488.36a3.37 3.37 0 0 1-2.67 3.46l3.31 5.13h-2.91l-2.8-4.64h-3v4.69h-2.6v-12.3c4.6 0.2 10.72-1.13 10.67 3.66zm-8.1 2c2.37-0.09 5.53 0.6 5.53-1.87s-3.26-1.58-5.53-1.73v3.6" data-name="gc"/>
  <path class="cls-4" transform="translate(0)" d="M448.14,494.58a4,4,0,0,1-4,2.57c-3-.1-4.4-1.83-4.4-4.94s1.48-4.84,4.44-4.84,4.1,2.22,4.15,5.33h-6c0,1.54.39,2.72,1.92,2.77a1.52,1.52,0,0,0,1.68-1.09Zm-2.22-3.41c.25-2.27-2.81-3.11-3.45-1a3.14,3.14,0,0,0-.2,1h3.65" data-name="fZ"/>
  <path class="cls-4" transform="translate(0)" d="M455.45,495.27c-.79.94-1.48,1.93-3.16,1.88a2.6,2.6,0,0,1-2.86-2.87c-.05-3,2.71-3.11,5.73-3,0-1.28-.15-2.32-1.39-2.32a1.29,1.29,0,0,0-1.38,1.33l-2.57-.09c.35-1.88,1.78-2.87,4.05-2.82s3.66,1.09,3.71,3.36l.05,4c-.05.69.59.89,1.23.74v1.33C457.38,497.25,455.35,497.1,455.45,495.27Zm-2.37.15c1.43,0,2.13-1.18,2.08-2.81-1.58,0-3.26-.15-3.21,1.48,0,.84.39,1.33,1.13,1.33" data-name="gp"/>
  <path class="cls-4" transform="translate(0)" d="m463.11 487.37a3 3 0 0 1 2.86 1.68l-0.05-5h2.47l0.05 12.89h-2.37a13.44 13.44 0 0 0-0.15-1.53 2.94 2.94 0 0 1-3 1.73c-2.57 0-3.36-2.22-3.41-4.89s0.93-4.78 3.6-4.88zm0.84 8.1c1.63 0 2-1.48 2-3.26s-0.44-3.16-2-3.16-1.88 1.48-1.93 3.21c0 2.12 0.64 3.21 1.93 3.21" data-name="go"/>
 </g>
 <g data-name="aV">
  <path class="cls-4" transform="translate(0)" d="M478.27,486.68v3.8h6.27v2h-6.27V497H475.7V484.7h9v2h-6.47" data-name="fV"/>
  <path class="cls-4" transform="translate(0)" d="M486.56,497V484.06H489V497h-2.47" data-name="gf"/>
  <path class="cls-4" transform="translate(0)" d="m495.7 487.37c3.16 0 4.74 1.78 4.74 4.89s-1.73 4.89-4.79 4.89-4.69-1.78-4.69-4.89 1.68-4.89 4.74-4.89zm-0.05 8.1c1.73 0 2.22-1.38 2.22-3.21 0-2-0.49-3.21-2.12-3.21s-2.22 1.28-2.22 3.21 0.49 3.21 2.12 3.21" data-name="ge"/>
  <path class="cls-4" transform="translate(0)" d="m512.49 497h-2.57l-1.92-7.7-2 7.7h-2.57l-2.43-9.43h2.27l1.58 7.16c0.45-2.57 1.19-4.79 1.78-7.16h2.62l1.83 7.16 1.58-7.16h2.34" data-name="gh"/>
 </g>
 <path class="cls-5" transform="translate(0)" d="m182.31 548.06h559m-559 0h-1"/>
 <path class="cls-6" transform="translate(0)" d="m756.57 548.06-14.26 4.64v-9.27z"/>
 <g id="cd">
  <path class="cls-4" transform="translate(0)" d="m439.48 537h-3l-2.18-9.68-2.18 9.68h-3.06l-3.16-12.3h2.61l2.18 9.83 2.22-9.83h2.86l2.13 9.83 2.17-9.83h2.57" data-name="gH"/>
  <path class="cls-4" transform="translate(0)" d="M449,529.54c-1.93-.59-3,.65-3,2.82V537h-2.47l0-9.38h2.32a12.13,12.13,0,0,0,.15,2c.29-1.38,1.33-2.61,3-2v2" data-name="ga"/>
  <path class="cls-4" transform="translate(0)" d="M450.44,525.89v-1.83h2.47v1.83Zm0,11.06v-9.38h2.47V537h-2.47" data-name="gl"/>
  <path class="cls-4" transform="translate(0)" d="M459.82,536.8c-1.77.69-4.29.35-4.29-2.07V529.2h-1.19v-1.63h1.34l.74-2.22H458v2.22h1.77v1.63H458v4.89c-.05,1.13.79,1.53,1.87,1.23v1.48" data-name="gm"/>
  <path class="cls-4" transform="translate(0)" d="M469.16,534.58a4,4,0,0,1-4.05,2.57c-3-.1-4.4-1.83-4.4-4.94s1.48-4.84,4.45-4.84,4.1,2.22,4.14,5.33h-6c0,1.54.4,2.72,1.93,2.77a1.53,1.53,0,0,0,1.68-1.09Zm-2.23-3.41c.25-2.27-2.81-3.11-3.45-1a3.14,3.14,0,0,0-.2,1h3.65" data-name="fZ"/>
 </g>
 <g data-name="aV">
  <path class="cls-4" transform="translate(0)" d="M478.59,526.68v3.8h6.27v2h-6.27V537H476V524.7h9v2h-6.47" data-name="fV"/>
  <path class="cls-4" transform="translate(0)" d="M486.89,537V524.06h2.46V537h-2.46" data-name="gf"/>
  <path class="cls-4" transform="translate(0)" d="M496,527.37c3.16,0,4.74,1.78,4.74,4.89s-1.73,4.89-4.79,4.89-4.69-1.78-4.69-4.89S493,527.37,496,527.37Zm0,8.1c1.73,0,2.22-1.38,2.22-3.21s-.49-3.21-2.12-3.21-2.22,1.28-2.22,3.21.49,3.21,2.12,3.21" data-name="ge"/>
  <path class="cls-4" transform="translate(0)" d="M512.81,537h-2.57l-1.92-7.65-2,7.65h-2.57l-2.42-9.38h2.28l1.58,7.16c.44-2.57,1.18-4.79,1.77-7.16h2.62l1.83,7.16,1.58-7.16h2.27" data-name="gh"/>
 </g>
 <path class="cls-7" transform="translate(0)" d="m781.31 93.5a6 6 0 0 1 6-6h148a6 6 0 0 1 6 6v588a6 6 0 0 1-6 6h-148a6 6 0 0 1-6-6z"/>
 <g id="ce">
  <path id="fx" class="cls-4" transform="translate(0)" d="M841.84,310.7v5.68h8.52v1.72h-8.52v6.18h-2V309h10.8v1.73h-8.76"/>
  <path class="cls-4" transform="translate(0)" d="m853 324.28v-16.11h2v16.11h-2" data-name="fy"/>
  <path id="fk" class="cls-4" transform="translate(0)" d="m862.52 312.3c3.83-0.06 5.24 2.29 5.24 6.11s-1.66 6.11-5.3 6.11-5.13-2.4-5.19-6.11c0-4.07 1.73-6.11 5.25-6.11zm-0.06 10.7c2.71 0.06 3.27-1.91 3.27-4.63s-0.5-4.63-3.15-4.63-3.27 2-3.27 4.63 0.62 4.57 3.15 4.63"/>
  <path id="fj" class="cls-4" transform="translate(0)" d="M881.41,324.28h-2.23l-2.46-10.13-2.54,10.13H872l-3.33-11.73h2L873,322.67l2.66-10.12h2.09l2.54,10.12,2.59-10.12h1.91"/>
 </g>
 <g id="cf">
  <path id="fg" class="cls-4" transform="translate(0)" d="M813.85,350.94l-8.15-13,.06,13H804v-15.3h2.41l8.21,13.14-.13-13.14h1.92v15.3h-2.53"/>
  <path id="fo" class="cls-4" transform="translate(0)" d="M826.81,348.72c-.93,1.3-1.92,2.53-4.2,2.47s-3.58-1.3-3.58-3.52c-.06-3.95,3.89-3.89,7.72-3.89.18-2.16-.56-3.33-2.53-3.33-1.49.06-2.54.43-2.6,1.91l-2-.18c.3-2.29,2-3.21,4.69-3.21s4.44,1.23,4.44,3.95V348c-.06,1.24.43,2,1.73,1.67v1.23C828.54,351.44,826.68,350.76,826.81,348.72Zm-5.74-1.05a1.86,1.86,0,0,0,2,2c2.53-.19,3.89-1.79,3.71-4.57-2.66.13-5.68-.31-5.68,2.53"/>
  <path id="fD" class="cls-4" transform="translate(0)" d="M843.41,340.51c-4.13.19-2.34,6.48-2.71,10.43h-1.92v-7.46c0-1.79-.3-3.09-2.16-3-4.07.25-2.34,6.42-2.71,10.43H832l-.06-11.72h1.85a10.18,10.18,0,0,0,.13,2c.61-2.71,6.11-3.09,6.6,0a3.78,3.78,0,0,1,3.58-2.22c5.25-.12,2.9,7.34,3.4,12h-1.92v-7.46c0-1.79-.3-3-2.16-3"/>
  <path class="cls-4" transform="translate(0)" d="M855.08,339c3.89,0,5.31,2.59,5.19,6.54h-8.34c0,2.47.87,4.14,3.27,4.2a2.88,2.88,0,0,0,3-1.79l1.73.49c-.68,1.73-2.29,2.78-4.76,2.78-3.58,0-5.43-2.28-5.37-6.17S851.44,339,855.08,339Zm3.21,5c.37-3.7-4.69-4.75-6-1.73a4.58,4.58,0,0,0-.37,1.73h6.36" data-name="fh"/>
  <path class="cls-4" transform="translate(0)" d="M869.59,342.12c-.19-2.1-5.31-2.35-5.37,0,.92,3.27,7.09.74,7.34,5.55s-9.26,4.57-9.69.5l1.73-.31c.25,2.22,6,2.78,6,0-.62-3.46-7-.93-7.29-5.56-.24-3.52,5.07-3.89,7.53-2.59a3.09,3.09,0,0,1,1.49,2.16" data-name="fv"/>
  <path id="fr" class="cls-4" transform="translate(0)" d="M879.46,339c3.4.06,4.32,2.53,4.32,6s-1,6.05-4.32,6.17a3.78,3.78,0,0,1-3.7-2.1l.06,6.48h-2l-.07-16.35h1.92l.12,1.85A3.64,3.64,0,0,1,879.46,339ZM879,349.71c2.47,0,2.78-2.1,2.78-4.63s-.37-4.51-2.78-4.57c-2.59,0-3.15,2-3.15,4.69s.62,4.51,3.15,4.51"/>
  <path class="cls-4" transform="translate(0)" d="M893.41,348.72c-.92,1.3-1.91,2.53-4.19,2.47s-3.58-1.3-3.58-3.52c-.07-3.95,3.88-3.89,7.71-3.89.19-2.16-.55-3.33-2.53-3.33-1.48.06-2.53.43-2.59,1.91l-2-.18c.31-2.29,2-3.21,4.69-3.21s4.45,1.23,4.45,3.95V348c-.06,1.24.43,2,1.73,1.67v1.23C895.14,351.44,893.29,350.76,893.41,348.72Zm-5.74-1.05a1.87,1.87,0,0,0,2,2c2.53-.19,3.89-1.79,3.7-4.57-2.65.13-5.68-.31-5.68,2.53" data-name="fo"/>
  <path id="fq" class="cls-4" transform="translate(0)" d="M903,340.51c-2.47,0-3,2-3,4.51s.55,4.63,3,4.63a2.47,2.47,0,0,0,2.66-2.35l2,.13a4.23,4.23,0,0,1-4.57,3.76c-3.64,0-4.69-2.53-5.06-6.11-.62-5.74,6.24-8.09,9.08-3.95a5.4,5.4,0,0,1,.43,1.36l-2,.18a2.36,2.36,0,0,0-2.53-2.16"/>
  <path class="cls-4" transform="translate(0)" d="M914.34,339c3.89,0,5.31,2.59,5.18,6.54h-8.33c0,2.47.87,4.14,3.27,4.2a2.88,2.88,0,0,0,3-1.79l1.73.49c-.68,1.73-2.29,2.78-4.76,2.78-3.58,0-5.43-2.28-5.37-6.17S910.7,339,914.34,339Zm3.21,5c.37-3.7-4.69-4.75-6-1.73a4.58,4.58,0,0,0-.37,1.73h6.36" data-name="fh"/>
 </g>
 <g id="cg">
  <path class="cls-4" transform="translate(0)" d="M852.24,371.87c-.06,4-2.47,6-6.42,6-3.77,0-6.17-2-6.17-5.8V362.3h2c.5,5.5-2,13.83,4.14,13.83s3.95-8.21,4.38-13.83h2v9.57" data-name="fU"/>
  <path class="cls-4" transform="translate(0)" d="M862.24,368.78c-.19-2.09-5.31-2.34-5.37,0,.93,3.28,7.1.74,7.35,5.56s-9.26,4.57-9.7.49l1.73-.31c.25,2.23,6,2.78,6,0-.62-3.45-7-.92-7.28-5.55-.25-3.52,5.06-3.89,7.53-2.59a3.11,3.11,0,0,1,1.48,2.16" data-name="fv"/>
  <path class="cls-4" transform="translate(0)" d="M871.19,365.64c3.89,0,5.31,2.59,5.19,6.54H868c0,2.47.87,4.13,3.27,4.2a2.88,2.88,0,0,0,3-1.79l1.73.49c-.68,1.73-2.29,2.78-4.76,2.78-3.58,0-5.43-2.29-5.37-6.17S867.55,365.64,871.19,365.64Zm3.21,5c.37-3.71-4.69-4.76-6-1.73a4.58,4.58,0,0,0-.37,1.73h6.36" data-name="fh"/>
  <path class="cls-4" transform="translate(0)" d="M884.4,367.55c-4.81-1-3.27,5.62-3.52,10.06h-2l-.07-11.73h1.86a14.3,14.3,0,0,0,.12,2.41c.37-1.67,1.42-3,3.58-2.53v1.79" data-name="fl"/>
 </g>
 <g id="aA">
  <path id="fA" class="cls-4" transform="translate(0)" d="m848 404.28-1.73-4.45h-7l-1.73 4.45h-2.16l6.3-15.28h2.32l6.11 15.31zm-2.34-6.11-2.9-7.6c-0.74 2.78-1.92 5.07-2.84 7.6h5.74"/>
  <path class="cls-4" transform="translate(0)" d="M861.13,392.55c-.62,7.72,2.53,18.09-6.79,16.11a3.52,3.52,0,0,1-2.72-2.65l2-.31c.92,2.9,6.17,2,5.49-1.73v-1.85a3.91,3.91,0,0,1-3.76,2.22c-3.34,0-4.2-2.53-4.2-5.93s1-6,4.38-6.05a4,4,0,0,1,3.64,2.16c.07-.61,0-1.42.13-2ZM856,402.92c2.22,0,3.08-2,3.08-4.51s-.86-4.63-3.08-4.63c-2.41,0-2.84,2.1-2.84,4.63s.37,4.51,2.84,4.51" data-name="fz"/>
  <path class="cls-4" transform="translate(0)" d="M868.72,392.3c3.89,0,5.31,2.6,5.19,6.55h-8.34c0,2.46.87,4.13,3.28,4.19a2.87,2.87,0,0,0,3-1.79l1.73.5c-.68,1.73-2.29,2.77-4.75,2.77-3.58,0-5.44-2.28-5.38-6.17S865.08,392.3,868.72,392.3Zm3.21,5c.37-3.7-4.69-4.75-6-1.73a4.62,4.62,0,0,0-.37,1.73h6.36" data-name="fh"/>
  <path id="fs" class="cls-4" transform="translate(0)" d="M882.12,392.3c5.49-.24,3.27,7.16,3.7,12h-2v-7.47c0-1.91-.5-3-2.41-3-4.45.12-2.72,6.29-3,10.43h-2l-.06-11.73h1.85a10.17,10.17,0,0,0,.12,2,3.92,3.92,0,0,1,3.77-2.22"/>
  <path id="fi" class="cls-4" transform="translate(0)" d="M890.88,401.38c-.12,1.48,1.11,1.79,2.35,1.35v1.49c-2,.61-4.32.3-4.32-2.41V394h-1.36v-1.42H889l.56-2.65h1.29v2.65H893V394h-2.16v7.41"/>
 </g>
 <g id="ci">
  <path class="cls-4" transform="translate(0)" d="M835.26,444.77v4.75h7.84V452h-7.84v5.62h-3.21V442.3h11.3v2.47h-8.09" data-name="fV"/>
  <path class="cls-4" transform="translate(0)" d="M854.89,457.61l-6.66-11.79c.37,3.58.12,7.9.18,11.79h-2.84V442.3h3.65L856,454.22c-.38-3.58-.13-8-.19-11.92h2.84v15.31h-3.77" data-name="fW"/>
  <path class="cls-4" transform="translate(0)" d="M874.77,451.75c0,4.26-2.72,6.11-6.85,6.11-3.95,0-6.48-1.79-6.48-6V442.3h3.15v9.32c-.07,2.35,1.17,3.65,3.39,3.71,5.56.06,3-8,3.58-13h3.21v9.45" data-name="gi"/>
  <path class="cls-4" transform="translate(0)" d="m888.35 457.61-1.35-3.89h-5.8l-1.36 3.89h-3.21l5.56-15.31h3.76l5.56 15.31zm-2-6.3-2.22-6.66c-0.62 2.34-1.48 4.44-2.22 6.66h4.44" data-name="fX"/>
 </g>
 <path class="cls-5" transform="translate(0)" d="m182.31 107.5h559m-559 0h-1"/>
 <path class="cls-6" transform="translate(0)" d="m756.57 107.5-14.26 4.64v-9.28z"/>
 <g id="cj">
  <path class="cls-4" transform="translate(0)" d="M447.65,96.39V84.14h2.57V94.41h6.57v2h-9.14" data-name="gA"/>
  <path class="cls-4" transform="translate(0)" d="m462.71 86.81c3.16 0 4.74 1.78 4.74 4.89s-1.73 4.89-4.79 4.89-4.66-1.78-4.66-4.89 1.65-4.89 4.71-4.89zm0 8.1c1.73 0 2.23-1.39 2.23-3.21 0-2-0.5-3.21-2.13-3.21s-2.22 1.28-2.22 3.21c0 1.78 0.49 3.21 2.12 3.21" data-name="ge"/>
  <path id="gk" class="cls-4" transform="translate(0)" d="M477.72,96.09c.55,4.35-5.92,5.24-8.09,2.57a3.22,3.22,0,0,1-.4-1l2.42-.29a1.59,1.59,0,0,0,1.68,1.23c2,0,2.07-1.83,2-3.9a3.08,3.08,0,0,1-3,1.73c-2.61,0-3.45-2.12-3.45-4.79s.88-4.74,3.6-4.79a3.18,3.18,0,0,1,2.91,1.68l.1-1.48h2.32Zm-4.44-1.43c1.58,0,2-1.33,2-3.11s-.45-3.06-2-3.06-1.93,1.43-2,3.11.45,3.06,1.93,3.06"/>
  <path class="cls-4" transform="translate(0)" d="M480.14,85.33V83.5h2.47v1.83Zm0,11.06V87h2.47v9.38h-2.47" data-name="gl"/>
  <path class="cls-4" transform="translate(0)" d="M490.52,86.81c4.29,0,2.86,5.58,3.11,9.58h-2.47c-.35-2.82,1.13-7.75-1.68-7.75s-1.68,4.79-1.93,7.75h-2.47L485,87h2.32a12,12,0,0,0,.15,1.87,3.1,3.1,0,0,1,3-2.07" data-name="gq"/>
 </g>
 <path class="cls-5" transform="translate(0)" d="m182.31 588.06h559m-559 0h-1"/>
 <path class="cls-6" transform="translate(0)" d="m756.57 588.06-14.26 4.64v-9.27z"/>
 <g id="ck">
  <path id="gB" class="cls-4" transform="translate(0)" d="M422.94,564.7c4.59,0,10.17-.79,10.07,3.91-.05,3.7-3.41,4.34-7.51,4V577h-2.56Zm2.56,6c2.32,0,4.94.35,4.94-2s-2.67-1.93-4.94-1.93v3.95"/>
  <path class="cls-4" transform="translate(0)" d="M440.17,575.27c-.79.94-1.48,1.93-3.16,1.88a2.61,2.61,0,0,1-2.87-2.87c0-3,2.72-3.11,5.73-3,.05-1.28-.14-2.32-1.38-2.32a1.28,1.28,0,0,0-1.38,1.33l-2.57-.09c.35-1.88,1.78-2.87,4-2.82s3.65,1.09,3.7,3.36l0,4c0,.69.6.89,1.24.74v1.33C442.1,577.25,440.07,577.1,440.17,575.27Zm-2.37.15c1.43,0,2.12-1.18,2.07-2.81-1.58,0-3.26-.15-3.21,1.48,0,.84.4,1.33,1.14,1.33" data-name="gp"/>
  <path class="cls-4" transform="translate(0)" d="M447.68,577.15c-4.3.05-2.87-5.58-3.12-9.58H447c.35,2.81-1.13,7.41,1.63,7.75,3-.25,1.73-4.79,2-7.75h2.47l.05,9.38h-2.32a11.11,11.11,0,0,0-.15-1.88,3.07,3.07,0,0,1-3,2.08" data-name="gs"/>
  <path class="cls-4" transform="translate(0)" d="M461.06,570.14c.05-1.44-3.46-1.68-3.51-.2.74,2.27,5.83.34,5.88,4.25.05,4.09-8.1,3.75-8.49.44l2.12-.35c.2.94,1,1.24,2.17,1.24,1.63.39,2.82-1.48,1.19-2-2.13-.69-5-.54-5.14-3.25-.1-4,7.61-3.66,8-.35" data-name="gd"/>
  <path class="cls-4" transform="translate(0)" d="M473.31,574.58a4,4,0,0,1-4.05,2.57c-3-.1-4.4-1.83-4.4-4.94s1.48-4.84,4.45-4.84,4.09,2.22,4.14,5.33h-6c0,1.54.39,2.72,1.92,2.77a1.52,1.52,0,0,0,1.68-1.09Zm-2.23-3.41c.25-2.27-2.81-3.11-3.45-1a3.14,3.14,0,0,0-.2,1h3.65" data-name="fZ"/>
 </g>
 <g data-name="aV">
  <path class="cls-4" transform="translate(0)" d="M482.74,566.68v3.8H489v2h-6.27V577h-2.57V564.7h9v2h-6.47" data-name="fV"/>
  <path class="cls-4" transform="translate(0)" d="M491,577V564.06h2.47V577H491" data-name="gf"/>
  <path class="cls-4" transform="translate(0)" d="m500.17 567.37c3.16 0 4.74 1.78 4.74 4.89s-1.73 4.89-4.79 4.89-4.69-1.78-4.69-4.89 1.68-4.89 4.74-4.89zm-0.05 8.1c1.73 0 2.22-1.38 2.22-3.21s-0.49-3.21-2.12-3.21-2.22 1.28-2.22 3.21 0.49 3.21 2.12 3.21" data-name="ge"/>
  <path class="cls-4" transform="translate(0)" d="M517,577h-2.57l-1.92-7.65-2,7.65h-2.57l-2.42-9.38h2.27l1.58,7.16c.45-2.57,1.19-4.79,1.78-7.16h2.62l1.83,7.16,1.58-7.16h2.27" data-name="gh"/>
 </g>
 <path class="cls-5" transform="translate(0)" d="m182.31 628.06h559m-559 0h-1"/>
 <path class="cls-6" transform="translate(0)" d="m756.57 628.06-14.26 4.64v-9.27z"/>
 <g data-name="by">
  <path class="cls-4" transform="translate(0)" d="m425.23 608.36a3.37 3.37 0 0 1-2.67 3.46l3.31 5.13h-2.87l-2.82-4.64h-3v4.69h-2.57v-12.3c4.55 0.2 10.67-1.13 10.62 3.66zm-8.1 2c2.37-0.09 5.53 0.6 5.53-1.87s-3.26-1.58-5.53-1.73v3.6" data-name="gc"/>
  <path class="cls-4" transform="translate(0)" d="M435.3,614.58a4,4,0,0,1-4,2.57c-3-.1-4.4-1.83-4.4-4.94s1.48-4.84,4.44-4.84,4.1,2.22,4.15,5.33h-6c0,1.54.39,2.72,1.92,2.77a1.52,1.52,0,0,0,1.68-1.09Zm-2.22-3.41c.25-2.27-2.81-3.11-3.45-1a3.14,3.14,0,0,0-.2,1h3.65" data-name="fZ"/>
  <path class="cls-4" transform="translate(0)" d="M442.81,610.14c.05-1.44-3.46-1.68-3.51-.2.75,2.27,5.83.34,5.88,4.25.05,4.09-8.1,3.75-8.49.44l2.12-.35c.2.94,1,1.24,2.17,1.24,1.63.39,2.82-1.48,1.19-2-2.12-.69-5-.54-5.14-3.25-.1-4,7.61-3.66,8-.35" data-name="gd"/>
  <path class="cls-4" transform="translate(0)" d="M450.12,617.15c-4.3.05-2.86-5.58-3.11-9.58h2.47c.34,2.81-1.14,7.41,1.63,7.75,3-.25,1.73-4.79,2-7.75h2.47l.05,9.38h-2.32a11.11,11.11,0,0,0-.15-1.88,3.07,3.07,0,0,1-3,2.08" data-name="gs"/>
  <path class="cls-4" transform="translate(0)" d="M467.6,609.2c-2.62.44-1.38,4.94-1.68,7.75H463.5v-5.28c.05-1.34-.24-2.42-1.43-2.47-2.62.49-1.33,4.94-1.63,7.75H458l-.05-9.38h2.32a11.11,11.11,0,0,0,.15,1.88c.49-2.62,5-2.77,5.33,0,.65-1.09,1.19-2.13,2.92-2.08,4.05,0,2.52,5.73,2.81,9.58H469v-5.28c0-1.24-.24-2.37-1.43-2.47" data-name="gt"/>
  <path class="cls-4" transform="translate(0)" d="M481.68,614.58a4,4,0,0,1-4.05,2.57c-3-.1-4.4-1.83-4.4-4.94s1.48-4.84,4.45-4.84,4.09,2.22,4.14,5.33h-6c0,1.54.39,2.72,1.92,2.77a1.52,1.52,0,0,0,1.68-1.09Zm-2.23-3.41c.25-2.27-2.81-3.11-3.45-1a3.14,3.14,0,0,0-.2,1h3.65" data-name="fZ"/>
 </g>
 <g data-name="aV">
  <path class="cls-4" transform="translate(0)" d="M491.11,606.68v3.8h6.27v2h-6.27V617h-2.57V604.7h9v2h-6.47" data-name="fV"/>
  <path class="cls-4" transform="translate(0)" d="M499.4,617V604.06h2.47V617H499.4" data-name="gf"/>
  <path class="cls-4" transform="translate(0)" d="m508.54 607.37c3.16 0 4.74 1.78 4.74 4.89s-1.73 4.89-4.79 4.89-4.69-1.78-4.69-4.89 1.68-4.89 4.74-4.89zm-0.05 8.1c1.73 0 2.22-1.38 2.22-3.21s-0.49-3.21-2.12-3.21-2.22 1.28-2.22 3.21 0.49 3.21 2.12 3.21" data-name="ge"/>
  <path class="cls-4" transform="translate(0)" d="M525.33,617h-2.57l-1.92-7.65-2,7.65h-2.57l-2.42-9.38h2.27l1.58,7.16c.45-2.57,1.19-4.79,1.78-7.16h2.62l1.83,7.16,1.58-7.16h2.27" data-name="gh"/>
 </g>
 <path class="cls-5" transform="translate(0)" d="m182.31 668.06h559m-559 0h-1"/>
 <path class="cls-6" transform="translate(0)" d="m756.57 668.06-14.26 4.64v-9.27z"/>
 <g id="cl">
  <path class="cls-4" transform="translate(0)" d="M436.56,648c-.05-2.12-4.64-2.27-4.79-.14.89,3.25,7.46.49,7.61,5.63.15,4.69-8.15,4.59-10.07,1.77a3.56,3.56,0,0,1-.6-1.48l2.47-.39c.15,2.27,5.53,2.76,5.73.24-.84-3.4-7.41-.49-7.6-5.63-.2-4.29,7.55-4.34,9.28-1.72a4,4,0,0,1,.49,1.38" data-name="fY"/>
  <path class="cls-4" transform="translate(0)" d="M445.75,656.8c-1.78.69-4.3.35-4.3-2.07V649.2h-1.18v-1.63h1.33l.74-2.22h1.53v2.22h1.78v1.63h-1.78v4.89c-.05,1.13.79,1.53,1.88,1.23v1.48" data-name="gm"/>
  <path class="cls-4" transform="translate(0)" d="m451.38 647.37c3.16 0 4.74 1.78 4.74 4.89s-1.73 4.89-4.79 4.89-4.69-1.78-4.69-4.89 1.68-4.89 4.74-4.89zm-0.05 8.1c1.73 0 2.22-1.38 2.22-3.21s-0.49-3.21-2.12-3.21-2.22 1.28-2.22 3.21 0.49 3.21 2.12 3.21" data-name="ge"/>
  <path class="cls-4" transform="translate(0)" d="M463.43,647.37c2.62,0,3.46,2.17,3.46,4.84s-.94,4.84-3.61,4.94a3.37,3.37,0,0,1-2.91-1.68c.14,1.63.1,3.41.1,5.19H458L458,647.57h2.37a13.44,13.44,0,0,0,.15,1.53A2.85,2.85,0,0,1,463.43,647.37Zm-1,8.1c1.63,0,1.93-1.53,2-3.26s-.45-3.16-2-3.16c-2.76,0-2.71,6.42,0,6.42" data-name="gn"/>
 </g>
 <g data-name="aV">
  <path class="cls-4" transform="translate(0)" d="M476.27,646.68v3.8h6.27v2h-6.27V657H473.7V644.7h9v2h-6.47" data-name="fV"/>
  <path class="cls-4" transform="translate(0)" d="M484.56,657V644.06H487V657h-2.47" data-name="gf"/>
  <path class="cls-4" transform="translate(0)" d="m493.7 647.37c3.16 0 4.74 1.78 4.74 4.89s-1.73 4.89-4.79 4.89-4.69-1.78-4.69-4.89 1.68-4.89 4.74-4.89zm-0.05 8.1c1.73 0 2.22-1.38 2.22-3.21s-0.49-3.21-2.12-3.21-2.22 1.28-2.22 3.21 0.49 3.21 2.12 3.21" data-name="ge"/>
  <path class="cls-4" transform="translate(0)" d="m510.49 657h-2.57l-1.92-7.7-2 7.7h-2.57l-2.43-9.43h2.27l1.58 7.16c0.45-2.57 1.19-4.79 1.78-7.16h2.62l1.83 7.16 1.58-7.16h2.34" data-name="gh"/>
 </g>
 <path class="cls-5" transform="translate(0)" d="m182.31 387.5h559m-559 0h-1"/>
 <path class="cls-6" transform="translate(0)" d="m756.57 387.5-14.26 4.64v-9.28z"/>
 <g data-name="bk">
  <path class="cls-4" transform="translate(0)" d="M394.42,376.39V364.14H397v10.27h6.57v2h-9.13" data-name="gA"/>
  <path class="cls-4" transform="translate(0)" d="M405.28,365.33V363.5h2.47v1.83Zm0,11.06V367h2.47v9.38h-2.47" data-name="gl"/>
  <path class="cls-4" transform="translate(0)" d="M415.75,369.57c.05-1.43-3.46-1.67-3.51-.19.74,2.27,5.83.34,5.88,4.24.05,4.1-8.1,3.76-8.49.45l2.12-.35c.2.94,1,1.24,2.17,1.24,1.63.39,2.82-1.48,1.19-2-2.13-.69-5-.54-5.14-3.26-.1-3.95,7.61-3.65,7.95-.34" data-name="gd"/>
  <path class="cls-4" transform="translate(0)" d="M424.54,376.24c-1.78.69-4.3.35-4.3-2.07v-5.53h-1.18V367h1.33l.74-2.23h1.53V367h1.78v1.63h-1.78v4.88c-.05,1.14.79,1.54,1.88,1.24v1.48" data-name="gm"/>
 </g>
 <g id="cm">
  <path class="cls-4" transform="translate(0)" d="M438,367.4c0-2.12-4.64-2.27-4.79-.15.89,3.26,7.46.5,7.61,5.63.14,4.69-8.15,4.6-10.08,1.78a3.69,3.69,0,0,1-.59-1.48l2.47-.4c.15,2.28,5.53,2.77,5.73.25-.84-3.41-7.41-.49-7.61-5.63-.2-4.3,7.56-4.34,9.29-1.73a4.41,4.41,0,0,1,.49,1.39" data-name="fY"/>
  <path class="cls-4" transform="translate(0)" d="M445.73,376.59c-4.3.05-2.87-5.58-3.12-9.58h2.47c.35,2.81-1.13,7.4,1.63,7.75,3-.25,1.73-4.79,2-7.75h2.47l0,9.38h-2.32a12.24,12.24,0,0,0-.15-1.88,3.09,3.09,0,0,1-3,2.08" data-name="gs"/>
  <path class="cls-4" transform="translate(0)" d="M459,366.81c2.57,0,3.46,2.12,3.46,4.84s-.94,4.89-3.61,4.94a3,3,0,0,1-2.86-1.73l-.1,1.53h-2.37l.05-12.89h2.47v5.14A3,3,0,0,1,459,366.81Zm-1,8.1c1.53,0,2-1.34,2-3.26s-.35-3.11-1.93-3.11-2,1.38-2,3.21.39,3.16,2,3.16" data-name="gu"/>
  <path class="cls-4" transform="translate(0)" d="M469.92,369.57c.05-1.43-3.45-1.67-3.5-.19.74,2.27,5.82.34,5.87,4.24,0,4.1-8.1,3.76-8.49.45l2.12-.35c.2.94,1,1.24,2.18,1.24,1.63.39,2.81-1.48,1.18-2-2.12-.69-5-.54-5.14-3.26-.09-3.95,7.61-3.65,8-.34" data-name="gd"/>
  <path class="cls-4" transform="translate(0)" d="M482.42,373.28c-.35,2.07-1.88,3.31-4.25,3.31-2.91,0-4.15-1.88-4.44-4.84-.6-5.44,7.6-6.77,8.59-1.78l-2.42.1a1.66,1.66,0,0,0-1.73-1.58c-1.48,0-1.73,1.38-1.88,3.16-.29,3.65,3.21,4.29,3.66,1.48" data-name="gv"/>
  <path class="cls-4" transform="translate(0)" d="M489.58,369c-1.93-.59-3,.64-3,2.82v4.59h-2.47l0-9.38h2.32a13.42,13.42,0,0,0,.14,2c.3-1.38,1.34-2.62,3-2v2" data-name="ga"/>
  <path class="cls-4" transform="translate(0)" d="M491.06,365.33V363.5h2.47v1.83Zm0,11.06V367h2.47v9.38h-2.47" data-name="gl"/>
  <path class="cls-4" transform="translate(0)" d="M501.43,366.81c2.62,0,3.46,2.17,3.46,4.84s-.94,4.84-3.61,4.94a3.37,3.37,0,0,1-2.91-1.68c.15,1.63.1,3.4.1,5.18H496L496,367h2.37a13.44,13.44,0,0,0,.15,1.53A2.85,2.85,0,0,1,501.43,366.81Zm-1,8.1c1.63,0,1.93-1.53,2-3.26s-.45-3.16-2-3.16c-2.76,0-2.71,6.42,0,6.42" data-name="gn"/>
  <path class="cls-4" transform="translate(0)" d="M511.26,376.24c-1.78.69-4.3.35-4.3-2.07v-5.53h-1.19V367h1.34l.74-2.23h1.53V367h1.78v1.63h-1.78v4.88c-.05,1.14.79,1.54,1.88,1.24v1.48" data-name="gm"/>
  <path class="cls-4" transform="translate(0)" d="M512.69,365.33V363.5h2.47v1.83Zm0,11.06V367h2.47v9.38h-2.47" data-name="gl"/>
  <path class="cls-4" transform="translate(0)" d="m521.82 366.81c3.16 0 4.74 1.78 4.74 4.89s-1.72 4.89-4.79 4.89-4.69-1.78-4.69-4.89 1.68-4.89 4.74-4.89zm-0.05 8.1c1.73 0 2.23-1.39 2.23-3.21 0-2-0.5-3.21-2.13-3.21s-2.22 1.28-2.22 3.21 0.49 3.21 2.12 3.21" data-name="ge"/>
  <path class="cls-4" transform="translate(0)" d="M533.87,366.81c4.3-.05,2.87,5.58,3.11,9.58h-2.46c-.35-2.82,1.13-7.75-1.68-7.75s-1.68,4.79-1.93,7.75h-2.47l-.05-9.38h2.32a10.9,10.9,0,0,0,.15,1.87,3.07,3.07,0,0,1,3-2.07" data-name="gq"/>
  <path class="cls-4" transform="translate(0)" d="M544.79,369.57c.05-1.43-3.46-1.67-3.51-.19.74,2.27,5.83.34,5.88,4.24.05,4.1-8.1,3.76-8.5.45l2.13-.35c.19.94,1,1.24,2.17,1.24,1.63.39,2.81-1.48,1.18-2-2.12-.69-5-.54-5.13-3.26-.1-3.95,7.6-3.65,8-.34" data-name="gd"/>
 </g>
 <path class="cls-5" transform="translate(0)" d="m182.31 427.5h559m-559 0h-1"/>
 <path class="cls-6" transform="translate(0)" d="m756.57 427.5-14.26 4.64v-9.28z"/>
 <g id="cn">
  <path class="cls-4" transform="translate(0)" d="m402.24 416.39v-12.25h2.57v10.27h6.57v2h-9.14" data-name="gA"/>
  <path class="cls-4" transform="translate(0)" d="M413.11,405.33V403.5h2.47v1.83Zm0,11.06V407h2.47v9.38h-2.47" data-name="gl"/>
  <path class="cls-4" transform="translate(0)" d="M423.58,409.57c.05-1.43-3.46-1.67-3.51-.19.74,2.27,5.83.34,5.88,4.24.05,4.1-8.1,3.76-8.5.45l2.13-.35c.19.94,1,1.24,2.17,1.24,1.63.39,2.81-1.48,1.19-2-2.13-.69-5-.54-5.14-3.26-.1-3.95,7.6-3.65,7.95-.34" data-name="gd"/>
  <path class="cls-4" transform="translate(0)" d="M432.37,416.24c-1.78.69-4.3.35-4.3-2.07v-5.53h-1.18V407h1.33l.74-2.23h1.53V407h1.78v1.63h-1.78v4.88c-.05,1.14.79,1.54,1.88,1.24v1.48" data-name="gm"/>
 </g>
 <g id="co">
  <path class="cls-4" transform="translate(0)" d="M445.85,407.4c-.05-2.12-4.64-2.27-4.79-.15.89,3.26,7.46.5,7.6,5.63.15,4.69-8.14,4.6-10.07,1.78a3.55,3.55,0,0,1-.59-1.48l2.47-.4c.14,2.28,5.53,2.77,5.72.25-.84-3.41-7.4-.49-7.6-5.63-.2-4.3,7.55-4.34,9.28-1.73a4.19,4.19,0,0,1,.5,1.39" data-name="fY"/>
  <path class="cls-4" transform="translate(0)" d="M453.55,416.59c-4.29.05-2.86-5.58-3.11-9.58h2.47c.35,2.81-1.14,7.4,1.63,7.75,3-.25,1.73-4.79,2-7.75H459l0,9.38h-2.32a11.11,11.11,0,0,0-.15-1.88,3.07,3.07,0,0,1-3,2.08" data-name="gs"/>
  <path class="cls-4" transform="translate(0)" d="m466.84 406.81c2.56 0 3.45 2.12 3.45 4.84s-0.94 4.89-3.6 4.94a3 3 0 0 1-2.87-1.73l-0.09 1.53h-2.38v-12.89h2.47v5.14a3 3 0 0 1 3.02-1.83zm-1 8.1c1.53 0 2-1.34 2-3.26s-0.34-3.11-1.92-3.11-2 1.38-2 3.21 0.4 3.16 2 3.16" data-name="gu"/>
  <path class="cls-4" transform="translate(0)" d="M477.75,409.57c.05-1.43-3.46-1.67-3.51-.19.74,2.27,5.83.34,5.88,4.24.05,4.1-8.1,3.76-8.49.45l2.12-.35c.2.94,1,1.24,2.17,1.24,1.63.39,2.82-1.48,1.19-2-2.13-.69-5-.54-5.14-3.26-.1-3.95,7.61-3.65,7.95-.34" data-name="gd"/>
  <path class="cls-4" transform="translate(0)" d="M490.24,413.28c-.34,2.07-1.87,3.31-4.24,3.31-2.92,0-4.15-1.88-4.45-4.84-.59-5.44,7.61-6.77,8.59-1.78l-2.41.1a1.66,1.66,0,0,0-1.73-1.58c-1.48,0-1.73,1.38-1.88,3.16-.3,3.65,3.21,4.29,3.65,1.48" data-name="gv"/>
  <path class="cls-4" transform="translate(0)" d="M497.4,409c-1.92-.59-3,.64-3,2.82v4.59H492l-.05-9.38h2.32a12.13,12.13,0,0,0,.15,2c.3-1.38,1.34-2.62,3-2v2" data-name="ga"/>
  <path class="cls-4" transform="translate(0)" d="M498.89,405.33V403.5h2.46v1.83Zm0,11.06V407h2.46v9.38h-2.46" data-name="gl"/>
  <path class="cls-4" transform="translate(0)" d="M509.26,406.81c2.56,0,3.45,2.12,3.45,4.84s-.94,4.89-3.6,4.94a3,3,0,0,1-2.87-1.73l-.1,1.53h-2.37l.05-12.89h2.47v5.14A3,3,0,0,1,509.26,406.81Zm-1,8.1c1.53,0,2-1.34,2-3.26s-.34-3.11-1.92-3.11-2,1.38-2,3.21.4,3.16,2,3.16" data-name="gu"/>
  <path class="cls-4" transform="translate(0)" d="M522.54,414a4,4,0,0,1-4,2.57c-3-.1-4.39-1.83-4.39-4.94s1.48-4.84,4.44-4.84,4.1,2.22,4.15,5.33h-6c0,1.53.4,2.72,1.93,2.77a1.52,1.52,0,0,0,1.68-1.09Zm-2.22-3.41c.24-2.27-2.82-3.11-3.46-1a3.26,3.26,0,0,0-.2,1h3.66" data-name="fZ"/>
  <path class="cls-4" transform="translate(0)" d="M530,409c-1.93-.59-3,.64-3,2.82v4.59h-2.46l0-9.38h2.32a13.42,13.42,0,0,0,.14,2c.3-1.38,1.34-2.62,3-2v2" data-name="ga"/>
  <path class="cls-4" transform="translate(0)" d="M537,409.57c0-1.43-3.46-1.67-3.51-.19.74,2.27,5.83.34,5.88,4.24,0,4.1-8.1,3.76-8.49.45l2.12-.35c.2.94,1,1.24,2.17,1.24,1.63.39,2.82-1.48,1.19-2-2.13-.69-5-.54-5.14-3.26-.1-3.95,7.61-3.65,8-.34" data-name="gd"/>
 </g>
 <path class="cls-5" transform="translate(0)" d="m182.31 467.5h559m-559 0h-1"/>
 <path class="cls-6" transform="translate(0)" d="m756.57 467.5-14.26 4.64v-9.28z"/>
 <g id="cp">
  <path class="cls-4" transform="translate(0)" d="m399.08 447.8a3.35 3.35 0 0 1-2.66 3.45l3.31 5.14h-2.92l-2.81-4.64h-3v4.64h-2.56v-12.25c4.56 0.2 10.69-1.14 10.64 3.66zm-8.1 2c2.37-0.1 5.54 0.59 5.54-1.87s-3.26-1.59-5.54-1.73v3.6" data-name="gc"/>
  <path class="cls-4" transform="translate(0)" d="M409.16,454a4,4,0,0,1-4.05,2.57c-3-.1-4.4-1.83-4.4-4.94s1.48-4.84,4.45-4.84,4.1,2.22,4.15,5.33h-6c0,1.53.4,2.72,1.93,2.77a1.52,1.52,0,0,0,1.68-1.09Zm-2.22-3.41c.24-2.27-2.82-3.11-3.46-1a3.26,3.26,0,0,0-.2,1h3.66" data-name="fZ"/>
  <path class="cls-4" transform="translate(0)" d="M420.76,448.64c-2.62.44-1.38,4.93-1.68,7.75h-2.42V451.1c0-1.33-.24-2.41-1.43-2.46-2.62.49-1.33,4.93-1.63,7.75h-2.47l-.05-9.38h2.32a10.9,10.9,0,0,0,.15,1.87c.5-2.61,5-2.76,5.34,0,.64-1.08,1.18-2.12,2.91-2.07,4.05.05,2.52,5.73,2.81,9.58h-2.42V451.1c-.05-1.23-.24-2.37-1.43-2.46" data-name="gt"/>
  <path class="cls-4" transform="translate(0)" d="m431.13 446.81c3.16 0 4.74 1.78 4.74 4.89s-1.73 4.89-4.79 4.89-4.69-1.78-4.69-4.89 1.68-4.89 4.74-4.89zm-0.05 8.1c1.73 0 2.23-1.39 2.23-3.21 0-2-0.5-3.21-2.13-3.21s-2.18 1.28-2.18 3.21 0.49 3.21 2.12 3.21" data-name="ge"/>
  <path class="cls-4" transform="translate(0)" d="m442.84 456.39h-2.92l-3.36-9.39h2.62l2.22 7.4 2.37-7.4h2.57" data-name="gb"/>
  <path class="cls-4" transform="translate(0)" d="M455.53,454a4,4,0,0,1-4,2.57c-3-.1-4.4-1.83-4.4-4.94s1.48-4.84,4.45-4.84,4.1,2.22,4.15,5.33h-6c0,1.53.4,2.72,1.93,2.77a1.52,1.52,0,0,0,1.68-1.09Zm-2.22-3.41c.24-2.27-2.82-3.11-3.46-1a3.26,3.26,0,0,0-.2,1h3.66" data-name="fZ"/>
 </g>
 <g id="cq">
  <path class="cls-4" transform="translate(0)" d="M469.55,447.4c-.05-2.12-4.64-2.27-4.79-.15.89,3.26,7.46.5,7.61,5.63.15,4.69-8.15,4.6-10.08,1.78a3.69,3.69,0,0,1-.59-1.48l2.47-.4c.15,2.28,5.53,2.77,5.73.25-.84-3.41-7.41-.49-7.61-5.63-.19-4.3,7.56-4.34,9.29-1.73a4.41,4.41,0,0,1,.49,1.39" data-name="fY"/>
  <path class="cls-4" transform="translate(0)" d="M477.26,456.59c-4.3.05-2.87-5.58-3.11-9.58h2.46c.35,2.81-1.13,7.4,1.63,7.75,3-.25,1.73-4.79,2-7.75h2.47l.05,9.38h-2.32a11.11,11.11,0,0,0-.15-1.88,3.07,3.07,0,0,1-3,2.08" data-name="gs"/>
  <path class="cls-4" transform="translate(0)" d="M490.54,446.81c2.57,0,3.46,2.12,3.46,4.84s-.94,4.89-3.61,4.94a3,3,0,0,1-2.86-1.73l-.1,1.53h-2.37l.05-12.89h2.47v5.14A3,3,0,0,1,490.54,446.81Zm-1,8.1c1.53,0,2-1.34,2-3.26s-.35-3.11-1.93-3.11-2,1.38-2,3.21.39,3.16,2,3.16" data-name="gu"/>
  <path class="cls-4" transform="translate(0)" d="M501.45,449.57c.05-1.43-3.45-1.67-3.5-.19.74,2.27,5.82.34,5.87,4.24.05,4.1-8.09,3.76-8.49.45l2.12-.35c.2.94,1,1.24,2.18,1.24,1.63.39,2.81-1.48,1.18-2-2.12-.69-5-.54-5.13-3.26-.1-3.95,7.6-3.65,7.95-.34" data-name="gd"/>
  <path class="cls-4" transform="translate(0)" d="M514,453.28c-.35,2.07-1.88,3.31-4.25,3.31-2.91,0-4.15-1.88-4.44-4.84-.6-5.44,7.6-6.77,8.59-1.78l-2.42.1a1.66,1.66,0,0,0-1.73-1.58c-1.48,0-1.73,1.38-1.88,3.16-.29,3.65,3.21,4.29,3.66,1.48" data-name="gv"/>
  <path class="cls-4" transform="translate(0)" d="M521.11,449c-1.93-.59-3,.64-3,2.82v4.59h-2.47l0-9.38H518a12.13,12.13,0,0,0,.15,2c.29-1.38,1.33-2.62,3-2v2" data-name="ga"/>
  <path class="cls-4" transform="translate(0)" d="M522.59,445.33V443.5h2.47v1.83Zm0,11.06V447h2.47v9.38h-2.47" data-name="gl"/>
  <path class="cls-4" transform="translate(0)" d="M533,446.81c2.57,0,3.46,2.12,3.46,4.84s-.94,4.89-3.61,4.94a3,3,0,0,1-2.86-1.73l-.1,1.53h-2.37l0-12.89H530v5.14A3,3,0,0,1,533,446.81Zm-1,8.1c1.53,0,2-1.34,2-3.26s-.35-3.11-1.93-3.11-2,1.38-2,3.21.39,3.16,2,3.16" data-name="gu"/>
  <path class="cls-4" transform="translate(0)" d="M546.24,454a4,4,0,0,1-4,2.57c-3-.1-4.39-1.83-4.39-4.94s1.48-4.84,4.44-4.84,4.1,2.22,4.15,5.33h-6c0,1.53.39,2.72,1.92,2.77a1.52,1.52,0,0,0,1.68-1.09ZM544,450.61c.25-2.27-2.81-3.11-3.46-1a3.57,3.57,0,0,0-.19,1H544" data-name="fZ"/>
  <path class="cls-4" transform="translate(0)" d="M553.65,449c-1.92-.59-3,.64-3,2.82v4.59h-2.47l-.05-9.38h2.32a12.13,12.13,0,0,0,.15,2c.3-1.38,1.33-2.62,3-2v2" data-name="ga"/>
 </g>
 <path class="cls-8" transform="translate(0)" d="m181.31 7.5a6 6 0 0 1 6-6h488a6 6 0 0 1 6 6v42.82a6 6 0 0 1-6 6h-488a6 6 0 0 1-6-6z"/>
 <g id="bP">
  <path class="cls-4" transform="translate(0)" d="M224.81,16.21v6.66h11v3.45h-11v7.87h-4.49V12.76h15.81v3.45H224.81" data-name="fV"/>
  <path class="cls-4" transform="translate(0)" d="M239.33,34.19V11.63h4.32V34.19h-4.32" data-name="gf"/>
  <path class="cls-4" transform="translate(0)" d="M255.32,17.42c5.53,0,8.3,3.11,8.3,8.56s-3,8.55-8.39,8.55S247,31.42,247,26,250,17.42,255.32,17.42Zm-.09,14.18c3,0,3.89-2.42,3.89-5.62,0-3.46-.86-5.62-3.71-5.62s-3.89,2.25-3.89,5.62c0,3.11.86,5.62,3.71,5.62" data-name="ge"/>
  <path class="cls-4" transform="translate(0)" d="M284.7,34.19h-4.49l-3.37-13.4-3.46,13.4h-4.49l-4.24-16.42h4l2.76,12.53c.78-4.49,2.08-8.38,3.12-12.53h4.58l3.19,12.53,2.77-12.53h4" data-name="gh"/>
 </g>
 <g id="bQ">
  <path class="cls-4" transform="translate(0)" d="M312.7,34.19l-9.33-16.51c.52,5,.17,11.06.26,16.51h-4V12.76h5.1l9.51,16.67c-.52-5-.17-11.14-.26-16.67h4V34.19H312.7" data-name="fW"/>
  <path class="cls-4" transform="translate(0)" d="M331.46,31.25c-1.39,1.64-2.6,3.37-5.53,3.28-3.2-.08-5-1.72-5-5-.08-5.18,4.76-5.44,10-5.27.08-2.25-.26-4.06-2.42-4.06a2.24,2.24,0,0,0-2.42,2.33l-4.5-.17c.61-3.29,3.12-5,7.09-4.93s6.4,1.9,6.48,5.88l.09,7.09c-.09,1.21,1,1.55,2.16,1.29V34C334.83,34.71,331.28,34.45,331.46,31.25Zm-4.15.26c2.5,0,3.71-2.08,3.63-4.93-2.77,0-5.71-.26-5.62,2.6,0,1.46.69,2.33,2,2.33" data-name="gp"/>
  <path class="cls-4" transform="translate(0)" d="M356.26,20.62c-4.58.78-2.42,8.64-2.94,13.57h-4.23V24.94c.08-2.33-.44-4.23-2.51-4.32-4.58.86-2.33,8.64-2.85,13.57h-4.32l-.09-16.42h4.06c.18,1-.08,2.42.26,3.28.87-4.58,8.73-4.84,9.34,0,1.12-1.9,2.07-3.71,5.09-3.63,7.09.09,4.41,10,4.93,16.77h-4.23V24.94c-.09-2.16-.44-4.15-2.51-4.32" data-name="gt"/>
  <path class="cls-4" transform="translate(0)" d="M380.89,30a6.94,6.94,0,0,1-7.09,4.49c-5.18-.17-7.69-3.19-7.69-8.64s2.59-8.47,7.78-8.47c5.36,0,7.17,3.89,7.26,9.34H370.6c0,2.67.7,4.75,3.38,4.84,1.55,0,2.59-.61,2.93-1.91Zm-3.89-6c.43-4-4.93-5.45-6.05-1.82a5.77,5.77,0,0,0-.35,1.82H377" data-name="fZ"/>
  <path class="cls-4" transform="translate(0)" d="M394,22.26c.09-2.5-6-2.94-6.13-.34,1.29,4,10.2.6,10.28,7.43.09,7.17-14.17,6.57-14.86.78l3.71-.61c.35,1.64,1.73,2.16,3.81,2.16,2.85.69,4.92-2.59,2.07-3.54-3.72-1.21-8.81-.95-9-5.71-.17-6.91,13.31-6.39,13.92-.6" data-name="gd"/>
  <path class="cls-4" transform="translate(0)" d="M411.14,17.42c4.58,0,6,3.8,6,8.47,0,4.84-1.64,8.47-6.3,8.64-2.68.09-3.89-1.47-5.1-2.93.26,2.85.17,6,.17,9.07h-4.32l-.09-22.9h4.15a22.77,22.77,0,0,0,.26,2.68C406.9,18.37,408.46,17.42,411.14,17.42ZM409.32,31.6c2.85,0,3.37-2.68,3.46-5.71,0-3.28-.78-5.53-3.46-5.53-4.84,0-4.75,11.24,0,11.24" data-name="gn"/>
  <path class="cls-4" transform="translate(0)" d="M429.89,31.25c-1.38,1.64-2.59,3.37-5.53,3.28-3.2-.08-5-1.72-5-5-.09-5.18,4.75-5.44,10-5.27.09-2.25-.26-4.06-2.42-4.06a2.24,2.24,0,0,0-2.42,2.33L420,22.35c.6-3.29,3.11-5,7.08-4.93s6.4,1.9,6.48,5.88l.09,7.09c-.09,1.21,1,1.55,2.16,1.29V34C433.26,34.71,429.72,34.45,429.89,31.25Zm-4.15.26c2.51,0,3.72-2.08,3.63-4.93-2.77,0-5.7-.26-5.62,2.6,0,1.46.69,2.33,2,2.33" data-name="gp"/>
  <path class="cls-4" transform="translate(0)" d="M452.1,28.74c-.61,3.63-3.29,5.79-7.43,5.79-5.1,0-7.26-3.28-7.78-8.47-1-9.5,13.31-11.84,15-3.11l-4.24.18a2.9,2.9,0,0,0-3-2.77c-2.6,0-3,2.42-3.29,5.53-.52,6.4,5.62,7.52,6.4,2.59" data-name="gv"/>
  <path class="cls-4" transform="translate(0)" d="M469,30a6.94,6.94,0,0,1-7.09,4.49c-5.18-.17-7.69-3.19-7.69-8.64s2.6-8.47,7.78-8.47c5.36,0,7.17,3.89,7.26,9.34H458.67c0,2.67.69,4.75,3.37,4.84,1.55,0,2.59-.61,2.94-1.91Zm-3.89-6c.43-4-4.92-5.45-6.05-1.82a5.78,5.78,0,0,0-.34,1.82h6.39" data-name="fZ"/>
 </g>
 <g id="cr">
  <path class="cls-4" transform="translate(0)" d="M499.46,26c0,6-3.81,8.55-9.6,8.55-5.53,0-9.07-2.5-9.07-8.38V12.76h4.41V25.81c-.09,3.28,1.64,5.09,4.75,5.18,7.78.09,4.23-11.23,5-18.23h4.5V26" data-name="gi"/>
  <path class="cls-4" transform="translate(0)" d="M513.11,22.26c.09-2.5-6.05-2.94-6.14-.34,1.3,4,10.2.6,10.29,7.43.09,7.17-14.17,6.57-14.87.78l3.72-.61c.35,1.64,1.73,2.16,3.8,2.16,2.86.69,4.93-2.59,2.08-3.54-3.72-1.21-8.82-.95-9-5.71-.17-6.91,13.31-6.39,13.91-.6" data-name="gd"/>
  <path class="cls-4" transform="translate(0)" d="M534.54,30a6.92,6.92,0,0,1-7.08,4.49c-5.19-.17-7.69-3.19-7.69-8.64s2.59-8.47,7.77-8.47c5.36,0,7.18,3.89,7.26,9.34H524.26c0,2.67.69,4.75,3.37,4.84,1.55,0,2.59-.61,2.94-1.91Zm-3.89-6c.44-4-4.92-5.45-6-1.82a5.78,5.78,0,0,0-.34,1.82h6.39" data-name="fZ"/>
  <path class="cls-4" transform="translate(0)" d="M547.51,21.22c-3.37-1-5.19,1.13-5.19,4.93v8H538l-.09-16.42H542c.18,1.12-.08,2.5.26,3.45.52-2.41,2.34-4.58,5.28-3.54v3.54" data-name="ga"/>
 </g>
 <g id="cs">
  <path class="cls-4" transform="translate(0)" d="m573.78 34.19-1.9-5.45h-8.13l-1.9 5.45h-4.49l7.78-21.43h5.27l7.77 21.43zm-2.85-8.82-3.12-9.37c-0.86 3.28-2.07 6.22-3.11 9.33h6.23" data-name="fX"/>
  <path class="cls-4" transform="translate(0)" d="M595.81,33.67c1,7.6-10.37,9.16-14.17,4.49a5.73,5.73,0,0,1-.69-1.81l4.23-.52c.26,1.38,1.39,2.07,2.94,2.16,3.46,0,3.63-3.2,3.46-6.83a5.36,5.36,0,0,1-5.27,3c-4.58,0-6-3.72-6-8.38,0-4.84,1.55-8.3,6.31-8.39a5.59,5.59,0,0,1,5.1,2.94l.17-2.59h4.06ZM588,31.16c2.76,0,3.54-2.33,3.54-5.44s-.78-5.36-3.46-5.36-3.37,2.51-3.45,5.45c0,3.11.77,5.35,3.37,5.35" data-name="gk"/>
  <path class="cls-4" transform="translate(0)" d="M613.88,30a6.94,6.94,0,0,1-7.09,4.49c-5.19-.17-7.69-3.19-7.69-8.64s2.59-8.47,7.78-8.47c5.35,0,7.17,3.89,7.26,9.34H603.59c0,2.67.69,4.75,3.37,4.84,1.56,0,2.6-.61,2.94-1.91Zm-3.89-6c.43-4-4.93-5.45-6-1.82a5.77,5.77,0,0,0-.35,1.82H610" data-name="fZ"/>
  <path class="cls-4" transform="translate(0)" d="M626.84,17.42c7.52-.08,5,9.77,5.44,16.77H628c-.6-4.93,2-13.57-2.94-13.57-5.09,0-2.93,8.38-3.37,13.57h-4.32l-.08-16.42h4.06c.17,1-.09,2.42.26,3.28,1-2.24,2.42-3.54,5.27-3.63" data-name="gq"/>
  <path class="cls-4" transform="translate(0)" d="M644,33.93c-3.11,1.21-7.52.6-7.52-3.63V20.62h-2.08V17.77h2.34l1.29-3.89h2.68v3.89h3.11v2.85h-3.11v8.56c-.08,2,1.39,2.67,3.29,2.16v2.59" data-name="gm"/>
 </g>
</svg>
